<?xml version="1.0" encoding="utf-8" standalone="no"?>
<!DOCTYPE svg PUBLIC "-//W3C//DTD SVG 1.1//EN"
  "http://www.w3.org/Graphics/SVG/1.1/DTD/svg11.dtd">
<svg xmlns:xlink="http://www.w3.org/1999/xlink" width="856.380938pt" height="495.353125pt" viewBox="0 0 856.380938 495.353125" xmlns="http://www.w3.org/2000/svg" version="1.1">
 <metadata>
  <rdf:RDF xmlns:dc="http://purl.org/dc/elements/1.1/" xmlns:cc="http://creativecommons.org/ns#" xmlns:rdf="http://www.w3.org/1999/02/22-rdf-syntax-ns#">
   <cc:Work>
    <dc:type rdf:resource="http://purl.org/dc/dcmitype/StillImage"/>
    <dc:date>2023-11-21T14:15:04.514891</dc:date>
    <dc:format>image/svg+xml</dc:format>
    <dc:creator>
     <cc:Agent>
      <dc:title>Matplotlib v3.7.1, https://matplotlib.org/</dc:title>
     </cc:Agent>
    </dc:creator>
   </cc:Work>
  </rdf:RDF>
 </metadata>
 <defs>
  <style type="text/css">*{stroke-linejoin: round; stroke-linecap: butt}</style>
 </defs>
 <g id="figure_1">
  <g id="patch_1">
   <path d="M 0 495.353125 
L 856.380938 495.353125 
L 856.380938 0 
L 0 0 
z
" style="fill: #ffffff"/>
  </g>
  <g id="axes_1">
   <g id="patch_2">
    <path d="M 52.160938 457.796875 
L 849.180938 457.796875 
L 849.180938 28.396875 
L 52.160938 28.396875 
z
" style="fill: #ffffff"/>
   </g>
   <g id="PolyCollection_1">
    <defs>
     <path id="m3c555e24c9" d="M 200.821408 -476.498472 
L 200.821408 -37.55625 
L 325.746173 -37.55625 
L 325.746173 -476.498472 
L 325.746173 -476.498472 
L 200.821408 -476.498472 
z
" style="stroke: #808080; stroke-opacity: 0.5"/>
    </defs>
    <g clip-path="url(#p007e3d1b43)">
     <use xlink:href="#m3c555e24c9" x="0" y="495.353125" style="fill: #808080; fill-opacity: 0.5; stroke: #808080; stroke-opacity: 0.5"/>
    </g>
   </g>
   <g id="PathCollection_1">
    <defs>
     <path id="mbc10ab5406" d="M -1.936492 1.936492 
L 1.936492 1.936492 
L 1.936492 -1.936492 
L -1.936492 -1.936492 
z
" style="stroke: #1f77b4"/>
    </defs>
    <g clip-path="url(#p007e3d1b43)">
     <use xlink:href="#mbc10ab5406" x="163.343978" y="414.856875" style="fill: #1f77b4; stroke: #1f77b4"/>
     <use xlink:href="#mbc10ab5406" x="213.313884" y="414.856875" style="fill: #1f77b4; stroke: #1f77b4"/>
     <use xlink:href="#mbc10ab5406" x="288.268743" y="414.856875" style="fill: #1f77b4; stroke: #1f77b4"/>
     <use xlink:href="#mbc10ab5406" x="313.253696" y="414.856875" style="fill: #1f77b4; stroke: #1f77b4"/>
     <use xlink:href="#mbc10ab5406" x="338.238649" y="414.856875" style="fill: #1f77b4; stroke: #1f77b4"/>
     <use xlink:href="#mbc10ab5406" x="363.223602" y="414.856875" style="fill: #1f77b4; stroke: #1f77b4"/>
     <use xlink:href="#mbc10ab5406" x="388.208555" y="414.856875" style="fill: #1f77b4; stroke: #1f77b4"/>
     <use xlink:href="#mbc10ab5406" x="413.193508" y="414.856875" style="fill: #1f77b4; stroke: #1f77b4"/>
     <use xlink:href="#mbc10ab5406" x="438.178461" y="414.856875" style="fill: #1f77b4; stroke: #1f77b4"/>
     <use xlink:href="#mbc10ab5406" x="463.163414" y="414.856875" style="fill: #1f77b4; stroke: #1f77b4"/>
     <use xlink:href="#mbc10ab5406" x="488.148367" y="414.856875" style="fill: #1f77b4; stroke: #1f77b4"/>
     <use xlink:href="#mbc10ab5406" x="513.13332" y="414.856875" style="fill: #1f77b4; stroke: #1f77b4"/>
     <use xlink:href="#mbc10ab5406" x="538.118273" y="414.856875" style="fill: #1f77b4; stroke: #1f77b4"/>
     <use xlink:href="#mbc10ab5406" x="563.103226" y="414.856875" style="fill: #1f77b4; stroke: #1f77b4"/>
     <use xlink:href="#mbc10ab5406" x="588.088179" y="414.856875" style="fill: #1f77b4; stroke: #1f77b4"/>
     <use xlink:href="#mbc10ab5406" x="613.073132" y="414.856875" style="fill: #1f77b4; stroke: #1f77b4"/>
     <use xlink:href="#mbc10ab5406" x="638.058085" y="414.856875" style="fill: #1f77b4; stroke: #1f77b4"/>
     <use xlink:href="#mbc10ab5406" x="663.043038" y="414.856875" style="fill: #1f77b4; stroke: #1f77b4"/>
     <use xlink:href="#mbc10ab5406" x="688.027991" y="414.856875" style="fill: #1f77b4; stroke: #1f77b4"/>
     <use xlink:href="#mbc10ab5406" x="713.012944" y="414.856875" style="fill: #1f77b4; stroke: #1f77b4"/>
     <use xlink:href="#mbc10ab5406" x="737.997897" y="414.856875" style="fill: #1f77b4; stroke: #1f77b4"/>
     <use xlink:href="#mbc10ab5406" x="762.98285" y="414.856875" style="fill: #1f77b4; stroke: #1f77b4"/>
     <use xlink:href="#mbc10ab5406" x="787.967803" y="414.856875" style="fill: #1f77b4; stroke: #1f77b4"/>
     <use xlink:href="#mbc10ab5406" x="812.952756" y="414.856875" style="fill: #1f77b4; stroke: #1f77b4"/>
    </g>
   </g>
   <g id="PathCollection_2"/>
   <g id="PathCollection_3"/>
   <g id="PathCollection_4">
    <defs>
     <path id="m6be32b0964" d="M -1.936492 1.936492 
L 1.936492 1.936492 
L 1.936492 -1.936492 
L -1.936492 -1.936492 
z
" style="stroke: #d62728"/>
    </defs>
    <g clip-path="url(#p007e3d1b43)">
     <use xlink:href="#m6be32b0964" x="263.28379" y="450.640208" style="fill: #d62728; stroke: #d62728"/>
     <use xlink:href="#m6be32b0964" x="288.268743" y="450.640208" style="fill: #d62728; stroke: #d62728"/>
     <use xlink:href="#m6be32b0964" x="313.253696" y="450.640208" style="fill: #d62728; stroke: #d62728"/>
     <use xlink:href="#m6be32b0964" x="338.238649" y="450.640208" style="fill: #d62728; stroke: #d62728"/>
     <use xlink:href="#m6be32b0964" x="363.223602" y="450.640208" style="fill: #d62728; stroke: #d62728"/>
     <use xlink:href="#m6be32b0964" x="388.208555" y="450.640208" style="fill: #d62728; stroke: #d62728"/>
     <use xlink:href="#m6be32b0964" x="413.193508" y="450.640208" style="fill: #d62728; stroke: #d62728"/>
     <use xlink:href="#m6be32b0964" x="438.178461" y="450.640208" style="fill: #d62728; stroke: #d62728"/>
     <use xlink:href="#m6be32b0964" x="463.163414" y="450.640208" style="fill: #d62728; stroke: #d62728"/>
     <use xlink:href="#m6be32b0964" x="488.148367" y="450.640208" style="fill: #d62728; stroke: #d62728"/>
     <use xlink:href="#m6be32b0964" x="513.13332" y="450.640208" style="fill: #d62728; stroke: #d62728"/>
     <use xlink:href="#m6be32b0964" x="538.118273" y="450.640208" style="fill: #d62728; stroke: #d62728"/>
     <use xlink:href="#m6be32b0964" x="563.103226" y="450.640208" style="fill: #d62728; stroke: #d62728"/>
     <use xlink:href="#m6be32b0964" x="588.088179" y="450.640208" style="fill: #d62728; stroke: #d62728"/>
     <use xlink:href="#m6be32b0964" x="613.073132" y="450.640208" style="fill: #d62728; stroke: #d62728"/>
     <use xlink:href="#m6be32b0964" x="762.98285" y="450.640208" style="fill: #d62728; stroke: #d62728"/>
     <use xlink:href="#m6be32b0964" x="787.967803" y="450.640208" style="fill: #d62728; stroke: #d62728"/>
    </g>
   </g>
   <g id="matplotlib.axis_1">
    <g id="xtick_1">
     <g id="line2d_1">
      <defs>
       <path id="mbfe1cfabee" d="M 0 0 
L 0 3.5 
" style="stroke: #000000; stroke-width: 0.8"/>
      </defs>
      <g>
       <use xlink:href="#mbfe1cfabee" x="100.881596" y="457.796875" style="stroke: #000000; stroke-width: 0.8"/>
      </g>
     </g>
     <g id="text_1">
      <text style="font: 10px 'DejaVu Sans', 'Bitstream Vera Sans', 'Computer Modern Sans Serif', 'Lucida Grande', 'Verdana', 'Geneva', 'Lucid', 'Arial', 'Helvetica', 'Avant Garde', sans-serif; text-anchor: middle" x="100.881596" y="472.395312" transform="rotate(-0 100.881596 472.395312)">−200</text>
     </g>
    </g>
    <g id="xtick_2">
     <g id="line2d_2">
      <g>
       <use xlink:href="#mbfe1cfabee" x="200.821408" y="457.796875" style="stroke: #000000; stroke-width: 0.8"/>
      </g>
     </g>
     <g id="text_2">
      <text style="font: 10px 'DejaVu Sans', 'Bitstream Vera Sans', 'Computer Modern Sans Serif', 'Lucida Grande', 'Verdana', 'Geneva', 'Lucid', 'Arial', 'Helvetica', 'Avant Garde', sans-serif; text-anchor: middle" x="200.821408" y="472.395312" transform="rotate(-0 200.821408 472.395312)">0</text>
     </g>
    </g>
    <g id="xtick_3">
     <g id="line2d_3">
      <g>
       <use xlink:href="#mbfe1cfabee" x="300.76122" y="457.796875" style="stroke: #000000; stroke-width: 0.8"/>
      </g>
     </g>
     <g id="text_3">
      <text style="font: 10px 'DejaVu Sans', 'Bitstream Vera Sans', 'Computer Modern Sans Serif', 'Lucida Grande', 'Verdana', 'Geneva', 'Lucid', 'Arial', 'Helvetica', 'Avant Garde', sans-serif; text-anchor: middle" x="300.76122" y="472.395312" transform="rotate(-0 300.76122 472.395312)">200</text>
     </g>
    </g>
    <g id="xtick_4">
     <g id="line2d_4">
      <g>
       <use xlink:href="#mbfe1cfabee" x="400.701032" y="457.796875" style="stroke: #000000; stroke-width: 0.8"/>
      </g>
     </g>
     <g id="text_4">
      <text style="font: 10px 'DejaVu Sans', 'Bitstream Vera Sans', 'Computer Modern Sans Serif', 'Lucida Grande', 'Verdana', 'Geneva', 'Lucid', 'Arial', 'Helvetica', 'Avant Garde', sans-serif; text-anchor: middle" x="400.701032" y="472.395312" transform="rotate(-0 400.701032 472.395312)">400</text>
     </g>
    </g>
    <g id="xtick_5">
     <g id="line2d_5">
      <g>
       <use xlink:href="#mbfe1cfabee" x="500.640843" y="457.796875" style="stroke: #000000; stroke-width: 0.8"/>
      </g>
     </g>
     <g id="text_5">
      <text style="font: 10px 'DejaVu Sans', 'Bitstream Vera Sans', 'Computer Modern Sans Serif', 'Lucida Grande', 'Verdana', 'Geneva', 'Lucid', 'Arial', 'Helvetica', 'Avant Garde', sans-serif; text-anchor: middle" x="500.640843" y="472.395312" transform="rotate(-0 500.640843 472.395312)">600</text>
     </g>
    </g>
    <g id="xtick_6">
     <g id="line2d_6">
      <g>
       <use xlink:href="#mbfe1cfabee" x="600.580655" y="457.796875" style="stroke: #000000; stroke-width: 0.8"/>
      </g>
     </g>
     <g id="text_6">
      <text style="font: 10px 'DejaVu Sans', 'Bitstream Vera Sans', 'Computer Modern Sans Serif', 'Lucida Grande', 'Verdana', 'Geneva', 'Lucid', 'Arial', 'Helvetica', 'Avant Garde', sans-serif; text-anchor: middle" x="600.580655" y="472.395312" transform="rotate(-0 600.580655 472.395312)">800</text>
     </g>
    </g>
    <g id="xtick_7">
     <g id="line2d_7">
      <g>
       <use xlink:href="#mbfe1cfabee" x="700.520467" y="457.796875" style="stroke: #000000; stroke-width: 0.8"/>
      </g>
     </g>
     <g id="text_7">
      <text style="font: 10px 'DejaVu Sans', 'Bitstream Vera Sans', 'Computer Modern Sans Serif', 'Lucida Grande', 'Verdana', 'Geneva', 'Lucid', 'Arial', 'Helvetica', 'Avant Garde', sans-serif; text-anchor: middle" x="700.520467" y="472.395312" transform="rotate(-0 700.520467 472.395312)">1000</text>
     </g>
    </g>
    <g id="xtick_8">
     <g id="line2d_8">
      <g>
       <use xlink:href="#mbfe1cfabee" x="800.460279" y="457.796875" style="stroke: #000000; stroke-width: 0.8"/>
      </g>
     </g>
     <g id="text_8">
      <text style="font: 10px 'DejaVu Sans', 'Bitstream Vera Sans', 'Computer Modern Sans Serif', 'Lucida Grande', 'Verdana', 'Geneva', 'Lucid', 'Arial', 'Helvetica', 'Avant Garde', sans-serif; text-anchor: middle" x="800.460279" y="472.395312" transform="rotate(-0 800.460279 472.395312)">1200</text>
     </g>
    </g>
    <g id="text_9">
     <text style="font: 10px 'DejaVu Sans', 'Bitstream Vera Sans', 'Computer Modern Sans Serif', 'Lucida Grande', 'Verdana', 'Geneva', 'Lucid', 'Arial', 'Helvetica', 'Avant Garde', sans-serif; text-anchor: middle" x="450.670937" y="486.073437" transform="rotate(-0 450.670937 486.073437)">timepoint</text>
    </g>
   </g>
   <g id="matplotlib.axis_2">
    <g id="ytick_1">
     <g id="line2d_9">
      <defs>
       <path id="m91bdff1f3d" d="M 0 0 
L -3.5 0 
" style="stroke: #000000; stroke-width: 0.8"/>
      </defs>
      <g>
       <use xlink:href="#m91bdff1f3d" x="52.160938" y="457.796875" style="stroke: #000000; stroke-width: 0.8"/>
      </g>
     </g>
     <g id="text_10">
      <text style="font: 10px 'DejaVu Sans', 'Bitstream Vera Sans', 'Computer Modern Sans Serif', 'Lucida Grande', 'Verdana', 'Geneva', 'Lucid', 'Arial', 'Helvetica', 'Avant Garde', sans-serif; text-anchor: end" x="45.160938" y="461.596094" transform="rotate(-0 45.160938 461.596094)">−0.2</text>
     </g>
    </g>
    <g id="ytick_2">
     <g id="line2d_10">
      <g>
       <use xlink:href="#m91bdff1f3d" x="52.160938" y="410.085764" style="stroke: #000000; stroke-width: 0.8"/>
      </g>
     </g>
     <g id="text_11">
      <text style="font: 10px 'DejaVu Sans', 'Bitstream Vera Sans', 'Computer Modern Sans Serif', 'Lucida Grande', 'Verdana', 'Geneva', 'Lucid', 'Arial', 'Helvetica', 'Avant Garde', sans-serif; text-anchor: end" x="45.160938" y="413.884983" transform="rotate(-0 45.160938 413.884983)">−0.1</text>
     </g>
    </g>
    <g id="ytick_3">
     <g id="line2d_11">
      <g>
       <use xlink:href="#m91bdff1f3d" x="52.160938" y="362.374653" style="stroke: #000000; stroke-width: 0.8"/>
      </g>
     </g>
     <g id="text_12">
      <text style="font: 10px 'DejaVu Sans', 'Bitstream Vera Sans', 'Computer Modern Sans Serif', 'Lucida Grande', 'Verdana', 'Geneva', 'Lucid', 'Arial', 'Helvetica', 'Avant Garde', sans-serif; text-anchor: end" x="45.160938" y="366.173872" transform="rotate(-0 45.160938 366.173872)">0.0</text>
     </g>
    </g>
    <g id="ytick_4">
     <g id="line2d_12">
      <g>
       <use xlink:href="#m91bdff1f3d" x="52.160938" y="314.663542" style="stroke: #000000; stroke-width: 0.8"/>
      </g>
     </g>
     <g id="text_13">
      <text style="font: 10px 'DejaVu Sans', 'Bitstream Vera Sans', 'Computer Modern Sans Serif', 'Lucida Grande', 'Verdana', 'Geneva', 'Lucid', 'Arial', 'Helvetica', 'Avant Garde', sans-serif; text-anchor: end" x="45.160938" y="318.46276" transform="rotate(-0 45.160938 318.46276)">0.1</text>
     </g>
    </g>
    <g id="ytick_5">
     <g id="line2d_13">
      <g>
       <use xlink:href="#m91bdff1f3d" x="52.160938" y="266.952431" style="stroke: #000000; stroke-width: 0.8"/>
      </g>
     </g>
     <g id="text_14">
      <text style="font: 10px 'DejaVu Sans', 'Bitstream Vera Sans', 'Computer Modern Sans Serif', 'Lucida Grande', 'Verdana', 'Geneva', 'Lucid', 'Arial', 'Helvetica', 'Avant Garde', sans-serif; text-anchor: end" x="45.160938" y="270.751649" transform="rotate(-0 45.160938 270.751649)">0.2</text>
     </g>
    </g>
    <g id="ytick_6">
     <g id="line2d_14">
      <g>
       <use xlink:href="#m91bdff1f3d" x="52.160938" y="219.241319" style="stroke: #000000; stroke-width: 0.8"/>
      </g>
     </g>
     <g id="text_15">
      <text style="font: 10px 'DejaVu Sans', 'Bitstream Vera Sans', 'Computer Modern Sans Serif', 'Lucida Grande', 'Verdana', 'Geneva', 'Lucid', 'Arial', 'Helvetica', 'Avant Garde', sans-serif; text-anchor: end" x="45.160938" y="223.040538" transform="rotate(-0 45.160938 223.040538)">0.3</text>
     </g>
    </g>
    <g id="ytick_7">
     <g id="line2d_15">
      <g>
       <use xlink:href="#m91bdff1f3d" x="52.160938" y="171.530208" style="stroke: #000000; stroke-width: 0.8"/>
      </g>
     </g>
     <g id="text_16">
      <text style="font: 10px 'DejaVu Sans', 'Bitstream Vera Sans', 'Computer Modern Sans Serif', 'Lucida Grande', 'Verdana', 'Geneva', 'Lucid', 'Arial', 'Helvetica', 'Avant Garde', sans-serif; text-anchor: end" x="45.160938" y="175.329427" transform="rotate(-0 45.160938 175.329427)">0.4</text>
     </g>
    </g>
    <g id="ytick_8">
     <g id="line2d_16">
      <g>
       <use xlink:href="#m91bdff1f3d" x="52.160938" y="123.819097" style="stroke: #000000; stroke-width: 0.8"/>
      </g>
     </g>
     <g id="text_17">
      <text style="font: 10px 'DejaVu Sans', 'Bitstream Vera Sans', 'Computer Modern Sans Serif', 'Lucida Grande', 'Verdana', 'Geneva', 'Lucid', 'Arial', 'Helvetica', 'Avant Garde', sans-serif; text-anchor: end" x="45.160938" y="127.618316" transform="rotate(-0 45.160938 127.618316)">0.5</text>
     </g>
    </g>
    <g id="ytick_9">
     <g id="line2d_17">
      <g>
       <use xlink:href="#m91bdff1f3d" x="52.160938" y="76.107986" style="stroke: #000000; stroke-width: 0.8"/>
      </g>
     </g>
     <g id="text_18">
      <text style="font: 10px 'DejaVu Sans', 'Bitstream Vera Sans', 'Computer Modern Sans Serif', 'Lucida Grande', 'Verdana', 'Geneva', 'Lucid', 'Arial', 'Helvetica', 'Avant Garde', sans-serif; text-anchor: end" x="45.160938" y="79.907205" transform="rotate(-0 45.160938 79.907205)">0.6</text>
     </g>
    </g>
    <g id="ytick_10">
     <g id="line2d_18">
      <g>
       <use xlink:href="#m91bdff1f3d" x="52.160938" y="28.396875" style="stroke: #000000; stroke-width: 0.8"/>
      </g>
     </g>
     <g id="text_19">
      <text style="font: 10px 'DejaVu Sans', 'Bitstream Vera Sans', 'Computer Modern Sans Serif', 'Lucida Grande', 'Verdana', 'Geneva', 'Lucid', 'Arial', 'Helvetica', 'Avant Garde', sans-serif; text-anchor: end" x="45.160938" y="32.196094" transform="rotate(-0 45.160938 32.196094)">0.7</text>
     </g>
    </g>
    <g id="text_20">
     <text style="font: 10px 'DejaVu Sans', 'Bitstream Vera Sans', 'Computer Modern Sans Serif', 'Lucida Grande', 'Verdana', 'Geneva', 'Lucid', 'Arial', 'Helvetica', 'Avant Garde', sans-serif; text-anchor: middle" x="14.798438" y="243.096875" transform="rotate(-90 14.798438 243.096875)">semipartial correlation</text>
    </g>
   </g>
   <g id="line2d_19">
    <path d="M 88.389119 362.374653 
L 113.374072 362.374653 
L 138.359025 362.374653 
L 163.343978 362.374653 
L 188.328931 362.374653 
L 213.313884 362.374653 
L 238.298837 362.374653 
L 263.28379 362.374653 
L 288.268743 362.374653 
L 313.253696 362.374653 
L 338.238649 362.374653 
L 363.223602 362.374653 
L 388.208555 362.374653 
L 413.193508 362.374653 
L 438.178461 362.374653 
L 463.163414 362.374653 
L 488.148367 362.374653 
L 513.13332 362.374653 
L 538.118273 362.374653 
L 563.103226 362.374653 
L 588.088179 362.374653 
L 613.073132 362.374653 
L 638.058085 362.374653 
L 663.043038 362.374653 
L 688.027991 362.374653 
L 713.012944 362.374653 
L 737.997897 362.374653 
L 762.98285 362.374653 
L 787.967803 362.374653 
L 812.952756 362.374653 
" clip-path="url(#p007e3d1b43)" style="fill: none; stroke-dasharray: 5.55,2.4; stroke-dashoffset: 0; stroke: #000000; stroke-width: 1.5"/>
   </g>
   <g id="line2d_20">
    <path d="M 88.389119 344.718665 
L 113.374072 367.028083 
L 138.359025 374.147564 
L 163.343978 401.417798 
L 188.328931 354.719743 
L 213.313884 315.628699 
L 238.298837 329.121423 
L 263.28379 334.186429 
L 288.268743 309.626226 
L 313.253696 300.23181 
L 338.238649 307.80489 
L 363.223602 296.51799 
L 388.208555 304.670821 
L 413.193508 304.892212 
L 438.178461 307.669624 
L 463.163414 282.945493 
L 488.148367 255.886933 
L 513.13332 242.41349 
L 538.118273 244.829946 
L 563.103226 246.767351 
L 588.088179 258.676707 
L 613.073132 266.586345 
L 638.058085 285.172386 
L 663.043038 278.749518 
L 688.027991 266.924266 
L 713.012944 250.110352 
L 737.997897 258.642165 
L 762.98285 284.598036 
L 787.967803 282.552449 
L 812.952756 287.251898 
" clip-path="url(#p007e3d1b43)" style="fill: none; stroke: #1f77b4; stroke-width: 4; stroke-linecap: square"/>
   </g>
   <g id="line2d_21">
    <path d="M 88.389119 383.982013 
L 113.374072 399.053387 
L 138.359025 385.138833 
L 163.343978 360.276113 
L 188.328931 343.334788 
L 213.313884 328.552156 
L 238.298837 329.36692 
L 263.28379 309.589916 
L 288.268743 312.138287 
L 313.253696 319.676331 
L 338.238649 345.566428 
L 363.223602 323.133716 
L 388.208555 346.546938 
L 413.193508 355.507634 
L 438.178461 345.827416 
L 463.163414 323.326463 
L 488.148367 332.550869 
L 513.13332 352.732684 
L 538.118273 342.46128 
L 563.103226 350.035455 
L 588.088179 365.27404 
L 613.073132 381.39346 
L 638.058085 390.414865 
L 663.043038 377.216464 
L 688.027991 371.523202 
L 713.012944 364.325499 
L 737.997897 362.858644 
L 762.98285 362.196101 
L 787.967803 339.394952 
L 812.952756 344.401604 
" clip-path="url(#p007e3d1b43)" style="fill: none; stroke-dasharray: 16,6; stroke-dashoffset: 0; stroke: #ff7f0e; stroke-width: 4"/>
   </g>
   <g id="line2d_22">
    <path d="M 88.389119 316.159433 
L 113.374072 332.534517 
L 138.359025 357.204908 
L 163.343978 353.932394 
L 188.328931 352.90013 
L 213.313884 359.569297 
L 238.298837 371.613107 
L 263.28379 369.810734 
L 288.268743 366.675535 
L 313.253696 357.271714 
L 338.238649 359.705936 
L 363.223602 362.018393 
L 388.208555 361.951169 
L 413.193508 363.397879 
L 438.178461 356.54371 
L 463.163414 372.473995 
L 488.148367 350.818797 
L 513.13332 339.505629 
L 538.118273 323.791407 
L 563.103226 327.681334 
L 588.088179 328.4217 
L 613.073132 318.91406 
L 638.058085 312.248275 
L 663.043038 328.101203 
L 688.027991 333.682163 
L 713.012944 351.477978 
L 737.997897 345.041201 
L 762.98285 361.865359 
L 787.967803 387.807352 
L 812.952756 373.951182 
" clip-path="url(#p007e3d1b43)" style="fill: none; stroke-dasharray: 4,4; stroke-dashoffset: 0; stroke: #2ca02c; stroke-width: 4"/>
   </g>
   <g id="line2d_23">
    <path d="M 88.389119 350.309928 
L 113.374072 357.985776 
L 138.359025 367.119722 
L 163.343978 368.098912 
L 188.328931 374.710917 
L 213.313884 369.142294 
L 238.298837 300.749748 
L 263.28379 207.798922 
L 288.268743 165.544874 
L 313.253696 173.56415 
L 338.238649 202.726989 
L 363.223602 200.532446 
L 388.208555 223.520727 
L 413.193508 238.188433 
L 438.178461 202.287336 
L 463.163414 202.818787 
L 488.148367 232.527696 
L 513.13332 247.493462 
L 538.118273 222.997633 
L 563.103226 247.420658 
L 588.088179 280.438851 
L 613.073132 286.656145 
L 638.058085 324.005077 
L 663.043038 336.588089 
L 688.027991 341.646444 
L 713.012944 330.717818 
L 737.997897 329.223208 
L 762.98285 308.666325 
L 787.967803 309.035176 
L 812.952756 321.75277 
" clip-path="url(#p007e3d1b43)" style="fill: none; stroke-dasharray: 12,5,6,5; stroke-dashoffset: 0; stroke: #d62728; stroke-width: 4"/>
   </g>
   <g id="line2d_24">
    <path d="M 88.389119 185.31821 
L 113.374072 190.459819 
L 138.359025 185.182449 
L 163.343978 207.979694 
L 188.328931 202.527856 
L 213.313884 200.450134 
L 238.298837 145.510775 
L 263.28379 126.881013 
L 288.268743 112.658972 
L 313.253696 120.076138 
L 338.238649 130.256426 
L 363.223602 128.70996 
L 388.208555 148.04973 
L 413.193508 139.366169 
L 438.178461 136.273077 
L 463.163414 142.791204 
L 488.148367 140.505467 
L 513.13332 127.215066 
L 538.118273 122.063143 
L 563.103226 133.314115 
L 588.088179 145.269523 
L 613.073132 131.814672 
L 638.058085 150.454156 
L 663.043038 153.228725 
L 688.027991 150.914289 
L 713.012944 167.360829 
L 737.997897 179.053627 
L 762.98285 175.529081 
L 787.967803 165.877333 
L 812.952756 173.436147 
" clip-path="url(#p007e3d1b43)" style="fill: none; stroke-dasharray: 20,4,4,4; stroke-dashoffset: 0; stroke: #000000; stroke-width: 4"/>
   </g>
   <g id="line2d_25"/>
   <g id="line2d_26"/>
   <g id="line2d_27"/>
   <g id="line2d_28"/>
   <g id="line2d_29"/>
   <g id="patch_3">
    <path d="M 52.160938 457.796875 
L 52.160938 28.396875 
" style="fill: none; stroke: #000000; stroke-width: 0.8; stroke-linejoin: miter; stroke-linecap: square"/>
   </g>
   <g id="patch_4">
    <path d="M 52.160937 457.796875 
L 849.180938 457.796875 
" style="fill: none; stroke: #000000; stroke-width: 0.8; stroke-linejoin: miter; stroke-linecap: square"/>
   </g>
   <g id="text_21">
    <text style="font: 20px 'DejaVu Sans', 'Bitstream Vera Sans', 'Computer Modern Sans Serif', 'Lucida Grande', 'Verdana', 'Geneva', 'Lucid', 'Arial', 'Helvetica', 'Avant Garde', sans-serif; text-anchor: middle" x="450.670937" y="22.396875" transform="rotate(-0 450.670937 22.396875)">semipartial correlation of RDMs Across Time</text>
   </g>
   <g id="legend_1">
    <g id="patch_5">
     <path d="M 706.5075 124.465625 
L 842.180938 124.465625 
Q 844.180938 124.465625 844.180938 122.465625 
L 844.180938 35.396875 
Q 844.180938 33.396875 842.180938 33.396875 
L 706.5075 33.396875 
Q 704.5075 33.396875 704.5075 35.396875 
L 704.5075 122.465625 
Q 704.5075 124.465625 706.5075 124.465625 
z
" style="fill: #ffffff; opacity: 0.8; stroke: #cccccc; stroke-linejoin: miter"/>
    </g>
    <g id="text_22">
     <text style="font: 10px 'DejaVu Sans', 'Bitstream Vera Sans', 'Computer Modern Sans Serif', 'Lucida Grande', 'Verdana', 'Geneva', 'Lucid', 'Arial', 'Helvetica', 'Avant Garde', sans-serif; text-anchor: start" x="759.695781" y="44.995313" transform="rotate(-0 759.695781 44.995313)">factor</text>
    </g>
    <g id="line2d_30">
     <path d="M 708.5075 56.173438 
L 718.5075 56.173438 
L 728.5075 56.173438 
" style="fill: none; stroke: #1f77b4; stroke-width: 1.5; stroke-linecap: square"/>
    </g>
    <g id="text_23">
     <text style="font: 10px 'DejaVu Sans', 'Bitstream Vera Sans', 'Computer Modern Sans Serif', 'Lucida Grande', 'Verdana', 'Geneva', 'Lucid', 'Arial', 'Helvetica', 'Avant Garde', sans-serif; text-anchor: start" x="736.5075" y="59.673438" transform="rotate(-0 736.5075 59.673438)">Set Size</text>
    </g>
    <g id="line2d_31">
     <path d="M 708.5075 70.851563 
L 718.5075 70.851563 
L 728.5075 70.851563 
" style="fill: none; stroke-dasharray: 6,2.25; stroke-dashoffset: 0; stroke: #ff7f0e; stroke-width: 1.5"/>
    </g>
    <g id="text_24">
     <text style="font: 10px 'DejaVu Sans', 'Bitstream Vera Sans', 'Computer Modern Sans Serif', 'Lucida Grande', 'Verdana', 'Geneva', 'Lucid', 'Arial', 'Helvetica', 'Avant Garde', sans-serif; text-anchor: start" x="736.5075" y="74.351563" transform="rotate(-0 736.5075 74.351563)">Number of Locations</text>
    </g>
    <g id="line2d_32">
     <path d="M 708.5075 85.529688 
L 718.5075 85.529688 
L 728.5075 85.529688 
" style="fill: none; stroke-dasharray: 1.5,1.5; stroke-dashoffset: 0; stroke: #2ca02c; stroke-width: 1.5"/>
    </g>
    <g id="text_25">
     <text style="font: 10px 'DejaVu Sans', 'Bitstream Vera Sans', 'Computer Modern Sans Serif', 'Lucida Grande', 'Verdana', 'Geneva', 'Lucid', 'Arial', 'Helvetica', 'Avant Garde', sans-serif; text-anchor: start" x="736.5075" y="89.029688" transform="rotate(-0 736.5075 89.029688)">Overlap Process</text>
    </g>
    <g id="line2d_33">
     <path d="M 708.5075 100.207813 
L 718.5075 100.207813 
L 728.5075 100.207813 
" style="fill: none; stroke-dasharray: 4.5,1.875,2.25,1.875; stroke-dashoffset: 0; stroke: #d62728; stroke-width: 1.5"/>
    </g>
    <g id="text_26">
     <text style="font: 10px 'DejaVu Sans', 'Bitstream Vera Sans', 'Computer Modern Sans Serif', 'Lucida Grande', 'Verdana', 'Geneva', 'Lucid', 'Arial', 'Helvetica', 'Avant Garde', sans-serif; text-anchor: start" x="736.5075" y="103.707813" transform="rotate(-0 736.5075 103.707813)">Attended Area</text>
    </g>
    <g id="line2d_34">
     <path d="M 708.5075 114.885938 
L 718.5075 114.885938 
L 728.5075 114.885938 
" style="fill: none; stroke-dasharray: 7.5,1.5,1.5,1.5; stroke-dashoffset: 0; stroke: #000000; stroke-width: 1.5"/>
    </g>
    <g id="text_27">
     <text style="font: 10px 'DejaVu Sans', 'Bitstream Vera Sans', 'Computer Modern Sans Serif', 'Lucida Grande', 'Verdana', 'Geneva', 'Lucid', 'Arial', 'Helvetica', 'Avant Garde', sans-serif; text-anchor: start" x="736.5075" y="118.385938" transform="rotate(-0 736.5075 118.385938)">Total</text>
    </g>
   </g>
  </g>
 </g>
 <defs>
  <clipPath id="p007e3d1b43">
   <rect x="52.160938" y="28.396875" width="797.02" height="429.4"/>
  </clipPath>
 </defs>
</svg>
