<?xml version="1.0" encoding="utf-8" standalone="no"?>
<!DOCTYPE svg PUBLIC "-//W3C//DTD SVG 1.1//EN"
  "http://www.w3.org/Graphics/SVG/1.1/DTD/svg11.dtd">
<svg xmlns:xlink="http://www.w3.org/1999/xlink" width="648pt" height="432pt" viewBox="0 0 648 432" xmlns="http://www.w3.org/2000/svg" version="1.1">
 <metadata>
  <rdf:RDF xmlns:dc="http://purl.org/dc/elements/1.1/" xmlns:cc="http://creativecommons.org/ns#" xmlns:rdf="http://www.w3.org/1999/02/22-rdf-syntax-ns#">
   <cc:Work>
    <dc:type rdf:resource="http://purl.org/dc/dcmitype/StillImage"/>
    <dc:date>2024-01-25T15:17:37.967887</dc:date>
    <dc:format>image/svg+xml</dc:format>
    <dc:creator>
     <cc:Agent>
      <dc:title>Matplotlib v3.7.1, https://matplotlib.org/</dc:title>
     </cc:Agent>
    </dc:creator>
   </cc:Work>
  </rdf:RDF>
 </metadata>
 <defs>
  <style type="text/css">*{stroke-linejoin: round; stroke-linecap: butt}</style>
 </defs>
 <g id="figure_1">
  <g id="patch_1">
   <path d="M 0 432 
L 648 432 
L 648 0 
L 0 0 
z
" style="fill: #ffffff"/>
  </g>
  <g id="axes_1">
   <g id="patch_2">
    <path d="M 54.38 384.28 
L 626.342459 384.28 
L 626.342459 29.76 
L 54.38 29.76 
z
" style="fill: #ffffff"/>
   </g>
   <g id="PolyCollection_1">
    <defs>
     <path id="m3ef191b3f0" d="M 152.051185 -402.24 
L 152.051185 -53.091515 
L 249.72237 -53.091515 
L 249.72237 -402.24 
L 249.72237 -402.24 
L 152.051185 -402.24 
z
" style="stroke: #808080; stroke-opacity: 0.5"/>
    </defs>
    <g clip-path="url(#p03527d4f67)">
     <use xlink:href="#m3ef191b3f0" x="0" y="432" style="fill: #808080; fill-opacity: 0.5; stroke: #808080; stroke-opacity: 0.5"/>
    </g>
   </g>
   <g id="PolyCollection_2">
    <defs>
     <path id="m9cbffceb6d" d="M 54.38 -133.355912 
L 54.38 -134.607058 
L 63.756434 -135.494926 
L 73.132868 -134.08843 
L 82.509301 -133.91014 
L 91.885735 -134.269239 
L 101.262169 -133.01512 
L 110.638603 -134.363577 
L 120.015036 -134.716076 
L 129.39147 -133.561684 
L 138.767904 -133.585464 
L 148.144338 -134.130651 
L 157.520771 -133.650598 
L 166.897205 -133.974444 
L 176.273639 -135.381661 
L 185.650073 -135.042455 
L 195.026506 -134.057349 
L 204.40294 -133.293279 
L 213.779374 -134.242303 
L 223.155808 -133.651198 
L 232.532241 -133.681882 
L 241.908675 -134.314494 
L 251.285109 -134.541946 
L 260.661543 -134.394783 
L 270.037976 -133.936641 
L 279.41441 -134.806694 
L 288.790844 -135.331683 
L 298.167278 -135.078434 
L 307.543711 -134.435737 
L 316.920145 -134.052062 
L 326.296579 -133.554662 
L 335.673013 -134.375585 
L 345.049446 -134.198497 
L 354.42588 -133.412144 
L 363.802314 -132.989366 
L 373.178748 -133.813334 
L 382.555181 -133.14938 
L 391.931615 -133.234005 
L 401.308049 -133.56953 
L 410.684483 -133.266714 
L 420.060916 -134.243591 
L 429.43735 -134.431933 
L 438.813784 -134.056972 
L 448.190218 -133.197445 
L 457.566651 -133.587692 
L 466.943085 -134.058062 
L 476.319519 -133.258384 
L 485.695953 -134.428075 
L 495.072386 -134.069063 
L 504.44882 -133.752501 
L 513.825254 -134.195922 
L 523.201688 -134.081853 
L 532.578121 -134.018181 
L 541.954555 -134.375743 
L 551.330989 -134.375002 
L 560.707423 -133.940297 
L 570.083856 -134.686521 
L 579.46029 -134.296416 
L 588.836724 -134.778402 
L 598.213158 -134.538653 
L 607.589592 -134.102835 
L 616.966025 -134.653379 
L 626.342459 -133.890889 
L 626.342459 -132.928446 
L 626.342459 -132.928446 
L 616.966025 -133.615727 
L 607.589592 -132.886261 
L 598.213158 -133.550729 
L 588.836724 -133.628829 
L 579.46029 -133.234006 
L 570.083856 -133.745615 
L 560.707423 -132.576807 
L 551.330989 -133.388455 
L 541.954555 -133.461891 
L 532.578121 -133.340594 
L 523.201688 -132.814353 
L 513.825254 -132.968994 
L 504.44882 -132.882802 
L 495.072386 -132.976441 
L 485.695953 -133.528299 
L 476.319519 -131.861721 
L 466.943085 -132.803276 
L 457.566651 -132.446648 
L 448.190218 -132.339727 
L 438.813784 -133.002668 
L 429.43735 -133.014483 
L 420.060916 -133.124339 
L 410.684483 -132.316635 
L 401.308049 -132.534815 
L 391.931615 -132.0494 
L 382.555181 -131.890355 
L 373.178748 -132.780774 
L 363.802314 -131.89959 
L 354.42588 -131.897109 
L 345.049446 -133.169299 
L 335.673013 -133.256478 
L 326.296579 -132.247317 
L 316.920145 -132.668593 
L 307.543711 -132.946328 
L 298.167278 -133.937434 
L 288.790844 -134.308438 
L 279.41441 -133.519896 
L 270.037976 -132.866404 
L 260.661543 -133.519722 
L 251.285109 -133.194451 
L 241.908675 -132.978046 
L 232.532241 -132.567857 
L 223.155808 -132.53971 
L 213.779374 -133.17463 
L 204.40294 -131.894139 
L 195.026506 -132.453292 
L 185.650073 -133.704164 
L 176.273639 -134.181186 
L 166.897205 -133.164489 
L 157.520771 -132.665915 
L 148.144338 -133.153273 
L 138.767904 -132.682315 
L 129.39147 -132.786466 
L 120.015036 -133.914496 
L 110.638603 -132.956427 
L 101.262169 -131.768559 
L 91.885735 -133.185389 
L 82.509301 -132.744684 
L 73.132868 -132.790275 
L 63.756434 -134.293955 
L 54.38 -133.355912 
z
" style="stroke: #808080; stroke-opacity: 0.5"/>
    </defs>
    <g clip-path="url(#p03527d4f67)">
     <use xlink:href="#m9cbffceb6d" x="0" y="432" style="fill: #808080; fill-opacity: 0.5; stroke: #808080; stroke-opacity: 0.5"/>
    </g>
   </g>
   <g id="PolyCollection_3">
    <defs>
     <path id="mc6c33adac3" d="M 54.38 -119.60623 
L 54.38 -130.098165 
L 63.756434 -145.112229 
L 73.132868 -144.946898 
L 82.509301 -135.297048 
L 91.885735 -129.825843 
L 101.262169 -141.821013 
L 110.638603 -130.047833 
L 120.015036 -138.318576 
L 129.39147 -126.820154 
L 138.767904 -143.033194 
L 148.144338 -141.791523 
L 157.520771 -131.224674 
L 166.897205 -134.890816 
L 176.273639 -140.391635 
L 185.650073 -181.485484 
L 195.026506 -215.37765 
L 204.40294 -271.891942 
L 213.779374 -302.331539 
L 223.155808 -298.334238 
L 232.532241 -285.720895 
L 241.908675 -266.127948 
L 251.285109 -268.260386 
L 260.661543 -269.544778 
L 270.037976 -261.472115 
L 279.41441 -261.604403 
L 288.790844 -266.873288 
L 298.167278 -274.521824 
L 307.543711 -286.300976 
L 316.920145 -298.142069 
L 326.296579 -294.418728 
L 335.673013 -288.926533 
L 345.049446 -281.005822 
L 354.42588 -276.469888 
L 363.802314 -265.026623 
L 373.178748 -261.610461 
L 382.555181 -255.401084 
L 391.931615 -249.390606 
L 401.308049 -250.880636 
L 410.684483 -245.13078 
L 420.060916 -246.032323 
L 429.43735 -233.064869 
L 438.813784 -223.856627 
L 448.190218 -228.294377 
L 457.566651 -227.006689 
L 466.943085 -219.767874 
L 476.319519 -217.372036 
L 485.695953 -210.043912 
L 495.072386 -212.721134 
L 504.44882 -212.936154 
L 513.825254 -205.119688 
L 523.201688 -203.357183 
L 532.578121 -197.735116 
L 541.954555 -197.366053 
L 551.330989 -200.130122 
L 560.707423 -204.696504 
L 570.083856 -199.053425 
L 579.46029 -191.839743 
L 588.836724 -199.560074 
L 598.213158 -200.168769 
L 607.589592 -197.487986 
L 616.966025 -199.174934 
L 626.342459 -194.779875 
L 626.342459 -175.70674 
L 626.342459 -175.70674 
L 616.966025 -181.957648 
L 607.589592 -178.479056 
L 598.213158 -180.579729 
L 588.836724 -179.554488 
L 579.46029 -171.50343 
L 570.083856 -181.724152 
L 560.707423 -183.384046 
L 551.330989 -181.119852 
L 541.954555 -180.058568 
L 532.578121 -174.574988 
L 523.201688 -181.407028 
L 513.825254 -184.503927 
L 504.44882 -191.710471 
L 495.072386 -193.344567 
L 485.695953 -191.645688 
L 476.319519 -196.232904 
L 466.943085 -199.944438 
L 457.566651 -206.098735 
L 448.190218 -210.205583 
L 438.813784 -201.366267 
L 429.43735 -210.705369 
L 420.060916 -225.060079 
L 410.684483 -222.68271 
L 401.308049 -226.740782 
L 391.931615 -225.057445 
L 382.555181 -232.162888 
L 373.178748 -236.215932 
L 363.802314 -242.092087 
L 354.42588 -256.14346 
L 345.049446 -259.345604 
L 335.673013 -270.895223 
L 326.296579 -273.620503 
L 316.920145 -275.614123 
L 307.543711 -267.730178 
L 298.167278 -256.38489 
L 288.790844 -244.358468 
L 279.41441 -239.949606 
L 270.037976 -242.240327 
L 260.661543 -247.757732 
L 251.285109 -251.405187 
L 241.908675 -246.164918 
L 232.532241 -267.263823 
L 223.155808 -277.618083 
L 213.779374 -278.435087 
L 204.40294 -248.739427 
L 195.026506 -200.017928 
L 185.650073 -160.554449 
L 176.273639 -126.439413 
L 166.897205 -124.964936 
L 157.520771 -120.974312 
L 148.144338 -125.867196 
L 138.767904 -128.148646 
L 129.39147 -115.16528 
L 120.015036 -126.301534 
L 110.638603 -122.04857 
L 101.262169 -126.799732 
L 91.885735 -118.39903 
L 82.509301 -124.965808 
L 73.132868 -133.995234 
L 63.756434 -132.401671 
L 54.38 -119.60623 
z
" style="stroke: #000000; stroke-opacity: 0.5"/>
    </defs>
    <g clip-path="url(#p03527d4f67)">
     <use xlink:href="#mc6c33adac3" x="0" y="432" style="fill-opacity: 0.5; stroke: #000000; stroke-opacity: 0.5"/>
    </g>
   </g>
   <g id="PathCollection_1">
    <defs>
     <path id="me8f2eafae4" d="M -2.645751 2.645751 
L 2.645751 2.645751 
L 2.645751 -2.645751 
L -2.645751 -2.645751 
z
" style="stroke: #000000"/>
    </defs>
    <g clip-path="url(#p03527d4f67)">
     <use xlink:href="#me8f2eafae4" x="181.743225" y="325.193333" style="stroke: #000000"/>
     <use xlink:href="#me8f2eafae4" x="191.119659" y="325.193333" style="stroke: #000000"/>
     <use xlink:href="#me8f2eafae4" x="200.496093" y="325.193333" style="stroke: #000000"/>
     <use xlink:href="#me8f2eafae4" x="209.872526" y="325.193333" style="stroke: #000000"/>
     <use xlink:href="#me8f2eafae4" x="219.24896" y="325.193333" style="stroke: #000000"/>
     <use xlink:href="#me8f2eafae4" x="228.625394" y="325.193333" style="stroke: #000000"/>
     <use xlink:href="#me8f2eafae4" x="238.001828" y="325.193333" style="stroke: #000000"/>
     <use xlink:href="#me8f2eafae4" x="247.378261" y="325.193333" style="stroke: #000000"/>
     <use xlink:href="#me8f2eafae4" x="256.754695" y="325.193333" style="stroke: #000000"/>
     <use xlink:href="#me8f2eafae4" x="266.131129" y="325.193333" style="stroke: #000000"/>
     <use xlink:href="#me8f2eafae4" x="275.507563" y="325.193333" style="stroke: #000000"/>
     <use xlink:href="#me8f2eafae4" x="284.883996" y="325.193333" style="stroke: #000000"/>
     <use xlink:href="#me8f2eafae4" x="294.26043" y="325.193333" style="stroke: #000000"/>
     <use xlink:href="#me8f2eafae4" x="303.636864" y="325.193333" style="stroke: #000000"/>
     <use xlink:href="#me8f2eafae4" x="313.013298" y="325.193333" style="stroke: #000000"/>
     <use xlink:href="#me8f2eafae4" x="322.389731" y="325.193333" style="stroke: #000000"/>
     <use xlink:href="#me8f2eafae4" x="331.766165" y="325.193333" style="stroke: #000000"/>
     <use xlink:href="#me8f2eafae4" x="341.142599" y="325.193333" style="stroke: #000000"/>
     <use xlink:href="#me8f2eafae4" x="350.519033" y="325.193333" style="stroke: #000000"/>
     <use xlink:href="#me8f2eafae4" x="359.895466" y="325.193333" style="stroke: #000000"/>
     <use xlink:href="#me8f2eafae4" x="369.2719" y="325.193333" style="stroke: #000000"/>
     <use xlink:href="#me8f2eafae4" x="378.648334" y="325.193333" style="stroke: #000000"/>
     <use xlink:href="#me8f2eafae4" x="388.024768" y="325.193333" style="stroke: #000000"/>
     <use xlink:href="#me8f2eafae4" x="397.401202" y="325.193333" style="stroke: #000000"/>
     <use xlink:href="#me8f2eafae4" x="406.777635" y="325.193333" style="stroke: #000000"/>
     <use xlink:href="#me8f2eafae4" x="416.154069" y="325.193333" style="stroke: #000000"/>
     <use xlink:href="#me8f2eafae4" x="425.530503" y="325.193333" style="stroke: #000000"/>
     <use xlink:href="#me8f2eafae4" x="434.906937" y="325.193333" style="stroke: #000000"/>
     <use xlink:href="#me8f2eafae4" x="444.28337" y="325.193333" style="stroke: #000000"/>
     <use xlink:href="#me8f2eafae4" x="453.659804" y="325.193333" style="stroke: #000000"/>
     <use xlink:href="#me8f2eafae4" x="463.036238" y="325.193333" style="stroke: #000000"/>
     <use xlink:href="#me8f2eafae4" x="472.412672" y="325.193333" style="stroke: #000000"/>
     <use xlink:href="#me8f2eafae4" x="481.789105" y="325.193333" style="stroke: #000000"/>
     <use xlink:href="#me8f2eafae4" x="491.165539" y="325.193333" style="stroke: #000000"/>
     <use xlink:href="#me8f2eafae4" x="500.541973" y="325.193333" style="stroke: #000000"/>
     <use xlink:href="#me8f2eafae4" x="509.918407" y="325.193333" style="stroke: #000000"/>
     <use xlink:href="#me8f2eafae4" x="519.29484" y="325.193333" style="stroke: #000000"/>
     <use xlink:href="#me8f2eafae4" x="528.671274" y="325.193333" style="stroke: #000000"/>
     <use xlink:href="#me8f2eafae4" x="538.047708" y="325.193333" style="stroke: #000000"/>
     <use xlink:href="#me8f2eafae4" x="547.424142" y="325.193333" style="stroke: #000000"/>
     <use xlink:href="#me8f2eafae4" x="556.800575" y="325.193333" style="stroke: #000000"/>
     <use xlink:href="#me8f2eafae4" x="566.177009" y="325.193333" style="stroke: #000000"/>
     <use xlink:href="#me8f2eafae4" x="575.553443" y="325.193333" style="stroke: #000000"/>
     <use xlink:href="#me8f2eafae4" x="584.929877" y="325.193333" style="stroke: #000000"/>
     <use xlink:href="#me8f2eafae4" x="594.30631" y="325.193333" style="stroke: #000000"/>
     <use xlink:href="#me8f2eafae4" x="603.682744" y="325.193333" style="stroke: #000000"/>
     <use xlink:href="#me8f2eafae4" x="613.059178" y="325.193333" style="stroke: #000000"/>
     <use xlink:href="#me8f2eafae4" x="622.435612" y="325.193333" style="stroke: #000000"/>
    </g>
   </g>
   <g id="matplotlib.axis_1">
    <g id="xtick_1">
     <g id="line2d_1">
      <defs>
       <path id="m13d3c9055a" d="M 0 0 
L 0 3.5 
" style="stroke: #000000; stroke-width: 0.8"/>
      </defs>
      <g>
       <use xlink:href="#m13d3c9055a" x="73.914237" y="384.28" style="stroke: #000000; stroke-width: 0.8"/>
      </g>
     </g>
     <g id="text_1">
      <text style="font: 14px 'Arial', sans-serif; text-anchor: middle" x="73.914237" y="401.300937" transform="rotate(-0 73.914237 401.300937)">−200</text>
     </g>
    </g>
    <g id="xtick_2">
     <g id="line2d_2">
      <g>
       <use xlink:href="#m13d3c9055a" x="152.051185" y="384.28" style="stroke: #000000; stroke-width: 0.8"/>
      </g>
     </g>
     <g id="text_2">
      <text style="font: 14px 'Arial', sans-serif; text-anchor: middle" x="152.051185" y="401.300937" transform="rotate(-0 152.051185 401.300937)">0</text>
     </g>
    </g>
    <g id="xtick_3">
     <g id="line2d_3">
      <g>
       <use xlink:href="#m13d3c9055a" x="230.188133" y="384.28" style="stroke: #000000; stroke-width: 0.8"/>
      </g>
     </g>
     <g id="text_3">
      <text style="font: 14px 'Arial', sans-serif; text-anchor: middle" x="230.188133" y="401.300937" transform="rotate(-0 230.188133 401.300937)">200</text>
     </g>
    </g>
    <g id="xtick_4">
     <g id="line2d_4">
      <g>
       <use xlink:href="#m13d3c9055a" x="308.325081" y="384.28" style="stroke: #000000; stroke-width: 0.8"/>
      </g>
     </g>
     <g id="text_4">
      <text style="font: 14px 'Arial', sans-serif; text-anchor: middle" x="308.325081" y="401.300937" transform="rotate(-0 308.325081 401.300937)">400</text>
     </g>
    </g>
    <g id="xtick_5">
     <g id="line2d_5">
      <g>
       <use xlink:href="#m13d3c9055a" x="386.462029" y="384.28" style="stroke: #000000; stroke-width: 0.8"/>
      </g>
     </g>
     <g id="text_5">
      <text style="font: 14px 'Arial', sans-serif; text-anchor: middle" x="386.462029" y="401.300937" transform="rotate(-0 386.462029 401.300937)">600</text>
     </g>
    </g>
    <g id="xtick_6">
     <g id="line2d_6">
      <g>
       <use xlink:href="#m13d3c9055a" x="464.598977" y="384.28" style="stroke: #000000; stroke-width: 0.8"/>
      </g>
     </g>
     <g id="text_6">
      <text style="font: 14px 'Arial', sans-serif; text-anchor: middle" x="464.598977" y="401.300937" transform="rotate(-0 464.598977 401.300937)">800</text>
     </g>
    </g>
    <g id="xtick_7">
     <g id="line2d_7">
      <g>
       <use xlink:href="#m13d3c9055a" x="542.735925" y="384.28" style="stroke: #000000; stroke-width: 0.8"/>
      </g>
     </g>
     <g id="text_7">
      <text style="font: 14px 'Arial', sans-serif; text-anchor: middle" x="542.735925" y="401.300937" transform="rotate(-0 542.735925 401.300937)">1000</text>
     </g>
    </g>
    <g id="xtick_8">
     <g id="line2d_8">
      <g>
       <use xlink:href="#m13d3c9055a" x="620.872873" y="384.28" style="stroke: #000000; stroke-width: 0.8"/>
      </g>
     </g>
     <g id="text_8">
      <text style="font: 14px 'Arial', sans-serif; text-anchor: middle" x="620.872873" y="401.300937" transform="rotate(-0 620.872873 401.300937)">1200</text>
     </g>
    </g>
    <g id="text_9">
     <text style="font: 14px 'Arial', sans-serif; text-anchor: middle" x="340.36123" y="418.275" transform="rotate(-0 340.36123 418.275)">Time from stimulus onset (ms)</text>
    </g>
   </g>
   <g id="matplotlib.axis_2">
    <g id="ytick_1">
     <g id="line2d_9">
      <defs>
       <path id="m10103419b9" d="M 0 0 
L -3.5 0 
" style="stroke: #000000; stroke-width: 0.8"/>
      </defs>
      <g>
       <use xlink:href="#m10103419b9" x="54.38" y="352.050909" style="stroke: #000000; stroke-width: 0.8"/>
      </g>
     </g>
     <g id="text_10">
      <text style="font: 14px 'Arial', sans-serif; text-anchor: end" x="47.38" y="357.061378" transform="rotate(-0 47.38 357.061378)">0.4</text>
     </g>
    </g>
    <g id="ytick_2">
     <g id="line2d_10">
      <g>
       <use xlink:href="#m10103419b9" x="54.38" y="298.335758" style="stroke: #000000; stroke-width: 0.8"/>
      </g>
     </g>
     <g id="text_11">
      <text style="font: 14px 'Arial', sans-serif; text-anchor: end" x="47.38" y="303.346226" transform="rotate(-0 47.38 303.346226)">0.5</text>
     </g>
    </g>
    <g id="ytick_3">
     <g id="line2d_11">
      <g>
       <use xlink:href="#m10103419b9" x="54.38" y="244.620606" style="stroke: #000000; stroke-width: 0.8"/>
      </g>
     </g>
     <g id="text_12">
      <text style="font: 14px 'Arial', sans-serif; text-anchor: end" x="47.38" y="249.631075" transform="rotate(-0 47.38 249.631075)">0.6</text>
     </g>
    </g>
    <g id="ytick_4">
     <g id="line2d_12">
      <g>
       <use xlink:href="#m10103419b9" x="54.38" y="190.905455" style="stroke: #000000; stroke-width: 0.8"/>
      </g>
     </g>
     <g id="text_13">
      <text style="font: 14px 'Arial', sans-serif; text-anchor: end" x="47.38" y="195.915923" transform="rotate(-0 47.38 195.915923)">0.7</text>
     </g>
    </g>
    <g id="ytick_5">
     <g id="line2d_13">
      <g>
       <use xlink:href="#m10103419b9" x="54.38" y="137.190303" style="stroke: #000000; stroke-width: 0.8"/>
      </g>
     </g>
     <g id="text_14">
      <text style="font: 14px 'Arial', sans-serif; text-anchor: end" x="47.38" y="142.200772" transform="rotate(-0 47.38 142.200772)">0.8</text>
     </g>
    </g>
    <g id="ytick_6">
     <g id="line2d_14">
      <g>
       <use xlink:href="#m10103419b9" x="54.38" y="83.475152" style="stroke: #000000; stroke-width: 0.8"/>
      </g>
     </g>
     <g id="text_15">
      <text style="font: 14px 'Arial', sans-serif; text-anchor: end" x="47.38" y="88.48562" transform="rotate(-0 47.38 88.48562)">0.9</text>
     </g>
    </g>
    <g id="ytick_7">
     <g id="line2d_15">
      <g>
       <use xlink:href="#m10103419b9" x="54.38" y="29.76" style="stroke: #000000; stroke-width: 0.8"/>
      </g>
     </g>
     <g id="text_16">
      <text style="font: 14px 'Arial', sans-serif; text-anchor: end" x="47.38" y="34.770469" transform="rotate(-0 47.38 34.770469)">1.0</text>
     </g>
    </g>
    <g id="text_17">
     <text style="font: 14px 'Arial', sans-serif; text-anchor: middle" x="20.973438" y="207.02" transform="rotate(-90 20.973438 207.02)">Classification accuracy</text>
    </g>
   </g>
   <g id="line2d_16">
    <path d="M 54.38 298.335758 
L 63.756434 298.335758 
L 73.132868 298.335758 
L 82.509301 298.335758 
L 91.885735 298.335758 
L 101.262169 298.335758 
L 110.638603 298.335758 
L 120.015036 298.335758 
L 129.39147 298.335758 
L 138.767904 298.335758 
L 148.144338 298.335758 
L 157.520771 298.335758 
L 166.897205 298.335758 
L 176.273639 298.335758 
L 185.650073 298.335758 
L 195.026506 298.335758 
L 204.40294 298.335758 
L 213.779374 298.335758 
L 223.155808 298.335758 
L 232.532241 298.335758 
L 241.908675 298.335758 
L 251.285109 298.335758 
L 260.661543 298.335758 
L 270.037976 298.335758 
L 279.41441 298.335758 
L 288.790844 298.335758 
L 298.167278 298.335758 
L 307.543711 298.335758 
L 316.920145 298.335758 
L 326.296579 298.335758 
L 335.673013 298.335758 
L 345.049446 298.335758 
L 354.42588 298.335758 
L 363.802314 298.335758 
L 373.178748 298.335758 
L 382.555181 298.335758 
L 391.931615 298.335758 
L 401.308049 298.335758 
L 410.684483 298.335758 
L 420.060916 298.335758 
L 429.43735 298.335758 
L 438.813784 298.335758 
L 448.190218 298.335758 
L 457.566651 298.335758 
L 466.943085 298.335758 
L 476.319519 298.335758 
L 485.695953 298.335758 
L 495.072386 298.335758 
L 504.44882 298.335758 
L 513.825254 298.335758 
L 523.201688 298.335758 
L 532.578121 298.335758 
L 541.954555 298.335758 
L 551.330989 298.335758 
L 560.707423 298.335758 
L 570.083856 298.335758 
L 579.46029 298.335758 
L 588.836724 298.335758 
L 598.213158 298.335758 
L 607.589592 298.335758 
L 616.966025 298.335758 
L 626.342459 298.335758 
" clip-path="url(#p03527d4f67)" style="fill: none; stroke-dasharray: 5.55,2.4; stroke-dashoffset: 0; stroke: #808080; stroke-width: 1.5"/>
   </g>
   <g id="line2d_17">
    <path d="M 54.38 298.018515 
L 63.756434 297.105559 
L 73.132868 298.560648 
L 82.509301 298.672588 
L 91.885735 298.272686 
L 101.262169 299.60816 
L 110.638603 298.339998 
L 120.015036 297.684714 
L 129.39147 298.825925 
L 138.767904 298.866111 
L 148.144338 298.358038 
L 157.520771 298.841744 
L 166.897205 298.430533 
L 176.273639 297.218577 
L 185.650073 297.626691 
L 195.026506 298.744679 
L 204.40294 299.406291 
L 213.779374 298.291533 
L 223.155808 298.904546 
L 232.532241 298.87513 
L 241.908675 298.35373 
L 251.285109 298.131802 
L 260.661543 298.042747 
L 270.037976 298.598477 
L 279.41441 297.836705 
L 288.790844 297.179939 
L 298.167278 297.492066 
L 307.543711 298.308967 
L 316.920145 298.639672 
L 326.296579 299.099011 
L 335.673013 298.183969 
L 345.049446 298.316102 
L 354.42588 299.345374 
L 363.802314 299.555522 
L 373.178748 298.702946 
L 382.555181 299.480133 
L 391.931615 299.358298 
L 401.308049 298.947828 
L 410.684483 299.208326 
L 420.060916 298.316035 
L 429.43735 298.276792 
L 438.813784 298.47018 
L 448.190218 299.231414 
L 457.566651 298.98283 
L 466.943085 298.569331 
L 476.319519 299.439947 
L 485.695953 298.021813 
L 495.072386 298.477248 
L 504.44882 298.682348 
L 513.825254 298.417542 
L 523.201688 298.551897 
L 532.578121 298.320612 
L 541.954555 298.081183 
L 551.330989 298.118272 
L 560.707423 298.741448 
L 570.083856 297.783932 
L 579.46029 298.234789 
L 588.836724 297.796385 
L 598.213158 297.955309 
L 607.589592 298.505452 
L 616.966025 297.865447 
L 626.342459 298.590332 
" clip-path="url(#p03527d4f67)" style="fill: none; stroke: #808080; stroke-width: 1.5; stroke-linecap: square"/>
   </g>
   <g id="line2d_18">
    <path d="M 54.38 307.147802 
L 63.756434 293.24305 
L 73.132868 292.528934 
L 82.509301 301.868572 
L 91.885735 307.887564 
L 101.262169 297.689628 
L 110.638603 305.951799 
L 120.015036 299.689945 
L 129.39147 311.007283 
L 138.767904 296.40908 
L 148.144338 298.170641 
L 157.520771 305.900507 
L 166.897205 302.072124 
L 176.273639 298.584476 
L 185.650073 260.980033 
L 195.026506 224.302211 
L 204.40294 171.684316 
L 213.779374 141.616687 
L 223.155808 144.02384 
L 232.532241 155.507641 
L 241.908675 175.853567 
L 251.285109 172.167213 
L 260.661543 173.348745 
L 270.037976 180.143779 
L 279.41441 181.222996 
L 288.790844 176.384122 
L 298.167278 166.546643 
L 307.543711 154.984423 
L 316.920145 145.121904 
L 326.296579 147.980385 
L 335.673013 152.089122 
L 345.049446 161.824287 
L 354.42588 165.693326 
L 363.802314 178.440645 
L 373.178748 183.086804 
L 382.555181 188.218014 
L 391.931615 194.775975 
L 401.308049 193.189291 
L 410.684483 198.093255 
L 420.060916 196.453799 
L 429.43735 210.114881 
L 438.813784 219.388553 
L 448.190218 212.75002 
L 457.566651 215.447288 
L 466.943085 222.143844 
L 476.319519 225.19753 
L 485.695953 231.1552 
L 495.072386 228.967149 
L 504.44882 229.676687 
L 513.825254 237.188193 
L 523.201688 239.617895 
L 532.578121 245.844948 
L 541.954555 243.287689 
L 551.330989 241.375013 
L 560.707423 237.959725 
L 570.083856 241.611211 
L 579.46029 250.328413 
L 588.836724 242.442719 
L 598.213158 241.625751 
L 607.589592 244.016479 
L 616.966025 241.433709 
L 626.342459 246.756692 
" clip-path="url(#p03527d4f67)" style="fill: none; stroke: #000000; stroke-width: 2; stroke-linecap: square"/>
   </g>
   <g id="patch_3">
    <path d="M 54.38 384.28 
L 54.38 29.76 
" style="fill: none; stroke: #000000; stroke-width: 0.8; stroke-linejoin: miter; stroke-linecap: square"/>
   </g>
   <g id="patch_4">
    <path d="M 54.38 384.28 
L 626.342459 384.28 
" style="fill: none; stroke: #000000; stroke-width: 0.8; stroke-linejoin: miter; stroke-linecap: square"/>
   </g>
   <g id="text_18">
    <text style="fill: #808080; font: 14px 'Arial', sans-serif; text-anchor: start" x="523.389216" y="312.761337" transform="rotate(-0 523.389216 312.761337)">Shuffle</text>
   </g>
   <g id="text_19">
    <text style="fill: #ffffff; font: 16px 'Arial', sans-serif; text-anchor: start" x="197.370615" y="48.3029" transform="rotate(-0 197.370615 48.3029)">Stim</text>
   </g>
   <g id="text_20">
    <text style="font: 18px 'Arial', sans-serif; text-anchor: middle" x="340.36123" y="23.76" transform="rotate(-0 340.36123 23.76)">Decode load, 1vs2</text>
   </g>
   <g id="legend_1">
    <g id="PathCollection_2">
     <g>
      <use xlink:href="#me8f2eafae4" x="562.698865" y="369.30625" style="stroke: #000000"/>
     </g>
    </g>
    <g id="text_21">
     <text style="font: 11px 'Arial', sans-serif; text-anchor: start" x="582.498865" y="372.19375" transform="rotate(-0 582.498865 372.19375)">p &lt; .05</text>
    </g>
   </g>
  </g>
 </g>
 <defs>
  <clipPath id="p03527d4f67">
   <rect x="54.38" y="29.76" width="571.962459" height="354.52"/>
  </clipPath>
 </defs>
</svg>
