<?xml version="1.0" encoding="utf-8" standalone="no"?>
<!DOCTYPE svg PUBLIC "-//W3C//DTD SVG 1.1//EN"
  "http://www.w3.org/Graphics/SVG/1.1/DTD/svg11.dtd">
<svg xmlns:xlink="http://www.w3.org/1999/xlink" width="648pt" height="432pt" viewBox="0 0 648 432" xmlns="http://www.w3.org/2000/svg" version="1.1">
 <metadata>
  <rdf:RDF xmlns:dc="http://purl.org/dc/elements/1.1/" xmlns:cc="http://creativecommons.org/ns#" xmlns:rdf="http://www.w3.org/1999/02/22-rdf-syntax-ns#">
   <cc:Work>
    <dc:type rdf:resource="http://purl.org/dc/dcmitype/StillImage"/>
    <dc:date>2024-01-12T12:30:35.275916</dc:date>
    <dc:format>image/svg+xml</dc:format>
    <dc:creator>
     <cc:Agent>
      <dc:title>Matplotlib v3.7.1, https://matplotlib.org/</dc:title>
     </cc:Agent>
    </dc:creator>
   </cc:Work>
  </rdf:RDF>
 </metadata>
 <defs>
  <style type="text/css">*{stroke-linejoin: round; stroke-linecap: butt}</style>
 </defs>
 <g id="figure_1">
  <g id="patch_1">
   <path d="M 0 432 
L 648 432 
L 648 0 
L 0 0 
z
" style="fill: #ffffff"/>
  </g>
  <g id="axes_1">
   <g id="patch_2">
    <path d="M 54.38 384.28 
L 626.342459 384.28 
L 626.342459 29.76 
L 54.38 29.76 
z
" style="fill: #ffffff"/>
   </g>
   <g id="PolyCollection_1">
    <defs>
     <path id="mcd147659d4" d="M 152.051185 -402.24 
L 152.051185 -53.091515 
L 249.72237 -53.091515 
L 249.72237 -402.24 
L 249.72237 -402.24 
L 152.051185 -402.24 
z
" style="stroke: #808080; stroke-opacity: 0.5"/>
    </defs>
    <g clip-path="url(#pa2896a24b3)">
     <use xlink:href="#mcd147659d4" x="0" y="432" style="fill: #808080; fill-opacity: 0.5; stroke: #808080; stroke-opacity: 0.5"/>
    </g>
   </g>
   <g id="PolyCollection_2">
    <defs>
     <path id="m4e56683605" d="M 54.38 -129.998442 
L 54.38 -138.731307 
L 63.756434 -130.987234 
L 73.132868 -137.932938 
L 82.509301 -147.055755 
L 91.885735 -134.00682 
L 101.262169 -140.782043 
L 110.638603 -138.718162 
L 120.015036 -135.335481 
L 129.39147 -145.614005 
L 138.767904 -141.168285 
L 148.144338 -139.678789 
L 157.520771 -146.596829 
L 166.897205 -145.685418 
L 176.273639 -145.660774 
L 185.650073 -138.667514 
L 195.026506 -139.631702 
L 204.40294 -133.771146 
L 213.779374 -129.913516 
L 223.155808 -131.13754 
L 232.532241 -136.681516 
L 241.908675 -137.438301 
L 251.285109 -139.765804 
L 260.661543 -144.594328 
L 270.037976 -139.137103 
L 279.41441 -132.220729 
L 288.790844 -137.866604 
L 298.167278 -137.622116 
L 307.543711 -143.753762 
L 316.920145 -137.395456 
L 326.296579 -131.81437 
L 335.673013 -140.666309 
L 345.049446 -133.033947 
L 354.42588 -131.249565 
L 363.802314 -132.13107 
L 373.178748 -132.214642 
L 382.555181 -138.973573 
L 391.931615 -139.250752 
L 401.308049 -133.312162 
L 410.684483 -139.654722 
L 420.060916 -138.455366 
L 429.43735 -130.282567 
L 438.813784 -135.187235 
L 448.190218 -135.227341 
L 457.566651 -125.206816 
L 466.943085 -125.070162 
L 476.319519 -137.188115 
L 485.695953 -135.664415 
L 495.072386 -133.764927 
L 504.44882 -128.624288 
L 513.825254 -134.89333 
L 523.201688 -140.826157 
L 532.578121 -139.363786 
L 541.954555 -132.993843 
L 551.330989 -139.875837 
L 560.707423 -131.845638 
L 570.083856 -129.576945 
L 579.46029 -132.043444 
L 588.836724 -138.346782 
L 598.213158 -136.889086 
L 607.589592 -140.733926 
L 616.966025 -140.81386 
L 626.342459 -147.592628 
L 626.342459 -135.894887 
L 626.342459 -135.894887 
L 616.966025 -129.061368 
L 607.589592 -131.73253 
L 598.213158 -127.814807 
L 588.836724 -129.426549 
L 579.46029 -122.551325 
L 570.083856 -119.346038 
L 560.707423 -118.345156 
L 551.330989 -129.198668 
L 541.954555 -123.19125 
L 532.578121 -127.542095 
L 523.201688 -131.006393 
L 513.825254 -125.339862 
L 504.44882 -118.763976 
L 495.072386 -125.100363 
L 485.695953 -126.904218 
L 476.319519 -127.982867 
L 466.943085 -116.446135 
L 457.566651 -116.821054 
L 448.190218 -127.218959 
L 438.813784 -125.991254 
L 429.43735 -117.561665 
L 420.060916 -126.248527 
L 410.684483 -127.840581 
L 401.308049 -123.050869 
L 391.931615 -126.365076 
L 382.555181 -125.441171 
L 373.178748 -122.880578 
L 363.802314 -123.809358 
L 354.42588 -122.3443 
L 345.049446 -123.240115 
L 335.673013 -131.143999 
L 326.296579 -121.267922 
L 316.920145 -126.196323 
L 307.543711 -130.625532 
L 298.167278 -127.915863 
L 288.790844 -128.694521 
L 279.41441 -123.753062 
L 270.037976 -130.20431 
L 260.661543 -134.744998 
L 251.285109 -130.84342 
L 241.908675 -128.466676 
L 232.532241 -127.722107 
L 223.155808 -121.511028 
L 213.779374 -119.120678 
L 204.40294 -123.781849 
L 195.026506 -127.941448 
L 185.650073 -130.484839 
L 176.273639 -135.646996 
L 166.897205 -137.879945 
L 157.520771 -136.167811 
L 148.144338 -130.952677 
L 138.767904 -132.410286 
L 129.39147 -136.227579 
L 120.015036 -124.152594 
L 110.638603 -126.653001 
L 101.262169 -128.94861 
L 91.885735 -125.525739 
L 82.509301 -137.966478 
L 73.132868 -126.737592 
L 63.756434 -121.527879 
L 54.38 -129.998442 
z
" style="stroke: #808080; stroke-opacity: 0.5"/>
    </defs>
    <g clip-path="url(#pa2896a24b3)">
     <use xlink:href="#m4e56683605" x="0" y="432" style="fill: #808080; fill-opacity: 0.5; stroke: #808080; stroke-opacity: 0.5"/>
    </g>
   </g>
   <g id="PolyCollection_3">
    <defs>
     <path id="ma712219361" d="M 54.38 -122.784516 
L 54.38 -131.598951 
L 63.756434 -134.980083 
L 73.132868 -145.642817 
L 82.509301 -139.121117 
L 91.885735 -138.296204 
L 101.262169 -135.097695 
L 110.638603 -136.826073 
L 120.015036 -144.779183 
L 129.39147 -125.947741 
L 138.767904 -138.863582 
L 148.144338 -127.865454 
L 157.520771 -130.177969 
L 166.897205 -134.619359 
L 176.273639 -137.927179 
L 185.650073 -193.181875 
L 195.026506 -219.408428 
L 204.40294 -267.824027 
L 213.779374 -308.406836 
L 223.155808 -295.809066 
L 232.532241 -273.384324 
L 241.908675 -263.673253 
L 251.285109 -261.741203 
L 260.661543 -265.825568 
L 270.037976 -266.508517 
L 279.41441 -265.033546 
L 288.790844 -270.529811 
L 298.167278 -276.224586 
L 307.543711 -280.741111 
L 316.920145 -297.945379 
L 326.296579 -286.441913 
L 335.673013 -281.275389 
L 345.049446 -277.487963 
L 354.42588 -267.084075 
L 363.802314 -267.643871 
L 373.178748 -255.831531 
L 382.555181 -252.604471 
L 391.931615 -247.06935 
L 401.308049 -249.724838 
L 410.684483 -248.71721 
L 420.060916 -244.530138 
L 429.43735 -238.453423 
L 438.813784 -234.083708 
L 448.190218 -238.194494 
L 457.566651 -237.482414 
L 466.943085 -233.50284 
L 476.319519 -220.07483 
L 485.695953 -225.033198 
L 495.072386 -221.484638 
L 504.44882 -222.432728 
L 513.825254 -215.616882 
L 523.201688 -214.400493 
L 532.578121 -211.570693 
L 541.954555 -212.890523 
L 551.330989 -213.092123 
L 560.707423 -212.808731 
L 570.083856 -215.381694 
L 579.46029 -204.46364 
L 588.836724 -210.99545 
L 598.213158 -205.107284 
L 607.589592 -207.864085 
L 616.966025 -215.130633 
L 626.342459 -206.387458 
L 626.342459 -186.109563 
L 626.342459 -186.109563 
L 616.966025 -197.807061 
L 607.589592 -190.693963 
L 598.213158 -189.335938 
L 588.836724 -191.477242 
L 579.46029 -181.227237 
L 570.083856 -195.33177 
L 560.707423 -190.853925 
L 551.330989 -191.193316 
L 541.954555 -189.137324 
L 532.578121 -187.098567 
L 523.201688 -189.729251 
L 513.825254 -188.145864 
L 504.44882 -196.176752 
L 495.072386 -197.169326 
L 485.695953 -199.592823 
L 476.319519 -194.764581 
L 466.943085 -207.882754 
L 457.566651 -215.736082 
L 448.190218 -214.868307 
L 438.813784 -207.946913 
L 429.43735 -214.642741 
L 420.060916 -221.844679 
L 410.684483 -221.360949 
L 401.308049 -224.012179 
L 391.931615 -221.752119 
L 382.555181 -227.249179 
L 373.178748 -228.537305 
L 363.802314 -242.681727 
L 354.42588 -244.564941 
L 345.049446 -256.436715 
L 335.673013 -262.068902 
L 326.296579 -267.133836 
L 316.920145 -273.72448 
L 307.543711 -260.078679 
L 298.167278 -256.287706 
L 288.790844 -249.10419 
L 279.41441 -244.079848 
L 270.037976 -251.879916 
L 260.661543 -247.235833 
L 251.285109 -244.413965 
L 241.908675 -245.117627 
L 232.532241 -252.966851 
L 223.155808 -278.085022 
L 213.779374 -285.716623 
L 204.40294 -242.134574 
L 195.026506 -200.413257 
L 185.650073 -169.098983 
L 176.273639 -119.692542 
L 166.897205 -118.785447 
L 157.520771 -115.353063 
L 148.144338 -112.249578 
L 138.767904 -121.925667 
L 129.39147 -114.34523 
L 120.015036 -129.833655 
L 110.638603 -126.832432 
L 101.262169 -119.330257 
L 91.885735 -122.34847 
L 82.509301 -127.26207 
L 73.132868 -130.682678 
L 63.756434 -117.668484 
L 54.38 -122.784516 
z
" style="stroke: #000000; stroke-opacity: 0.5"/>
    </defs>
    <g clip-path="url(#pa2896a24b3)">
     <use xlink:href="#ma712219361" x="0" y="432" style="fill-opacity: 0.5; stroke: #000000; stroke-opacity: 0.5"/>
    </g>
   </g>
   <g id="PathCollection_1">
    <defs>
     <path id="mde1421ccc4" d="M -2.645751 2.645751 
L 2.645751 2.645751 
L 2.645751 -2.645751 
L -2.645751 -2.645751 
z
" style="stroke: #000000"/>
    </defs>
    <g clip-path="url(#pa2896a24b3)">
     <use xlink:href="#mde1421ccc4" x="181.743225" y="325.193333" style="stroke: #000000"/>
     <use xlink:href="#mde1421ccc4" x="191.119659" y="325.193333" style="stroke: #000000"/>
     <use xlink:href="#mde1421ccc4" x="200.496093" y="325.193333" style="stroke: #000000"/>
     <use xlink:href="#mde1421ccc4" x="209.872526" y="325.193333" style="stroke: #000000"/>
     <use xlink:href="#mde1421ccc4" x="219.24896" y="325.193333" style="stroke: #000000"/>
     <use xlink:href="#mde1421ccc4" x="228.625394" y="325.193333" style="stroke: #000000"/>
     <use xlink:href="#mde1421ccc4" x="238.001828" y="325.193333" style="stroke: #000000"/>
     <use xlink:href="#mde1421ccc4" x="247.378261" y="325.193333" style="stroke: #000000"/>
     <use xlink:href="#mde1421ccc4" x="256.754695" y="325.193333" style="stroke: #000000"/>
     <use xlink:href="#mde1421ccc4" x="266.131129" y="325.193333" style="stroke: #000000"/>
     <use xlink:href="#mde1421ccc4" x="275.507563" y="325.193333" style="stroke: #000000"/>
     <use xlink:href="#mde1421ccc4" x="284.883996" y="325.193333" style="stroke: #000000"/>
     <use xlink:href="#mde1421ccc4" x="294.26043" y="325.193333" style="stroke: #000000"/>
     <use xlink:href="#mde1421ccc4" x="303.636864" y="325.193333" style="stroke: #000000"/>
     <use xlink:href="#mde1421ccc4" x="313.013298" y="325.193333" style="stroke: #000000"/>
     <use xlink:href="#mde1421ccc4" x="322.389731" y="325.193333" style="stroke: #000000"/>
     <use xlink:href="#mde1421ccc4" x="331.766165" y="325.193333" style="stroke: #000000"/>
     <use xlink:href="#mde1421ccc4" x="341.142599" y="325.193333" style="stroke: #000000"/>
     <use xlink:href="#mde1421ccc4" x="350.519033" y="325.193333" style="stroke: #000000"/>
     <use xlink:href="#mde1421ccc4" x="359.895466" y="325.193333" style="stroke: #000000"/>
     <use xlink:href="#mde1421ccc4" x="369.2719" y="325.193333" style="stroke: #000000"/>
     <use xlink:href="#mde1421ccc4" x="378.648334" y="325.193333" style="stroke: #000000"/>
     <use xlink:href="#mde1421ccc4" x="388.024768" y="325.193333" style="stroke: #000000"/>
     <use xlink:href="#mde1421ccc4" x="397.401202" y="325.193333" style="stroke: #000000"/>
     <use xlink:href="#mde1421ccc4" x="406.777635" y="325.193333" style="stroke: #000000"/>
     <use xlink:href="#mde1421ccc4" x="416.154069" y="325.193333" style="stroke: #000000"/>
     <use xlink:href="#mde1421ccc4" x="425.530503" y="325.193333" style="stroke: #000000"/>
     <use xlink:href="#mde1421ccc4" x="434.906937" y="325.193333" style="stroke: #000000"/>
     <use xlink:href="#mde1421ccc4" x="444.28337" y="325.193333" style="stroke: #000000"/>
     <use xlink:href="#mde1421ccc4" x="453.659804" y="325.193333" style="stroke: #000000"/>
     <use xlink:href="#mde1421ccc4" x="463.036238" y="325.193333" style="stroke: #000000"/>
     <use xlink:href="#mde1421ccc4" x="472.412672" y="325.193333" style="stroke: #000000"/>
     <use xlink:href="#mde1421ccc4" x="481.789105" y="325.193333" style="stroke: #000000"/>
     <use xlink:href="#mde1421ccc4" x="491.165539" y="325.193333" style="stroke: #000000"/>
     <use xlink:href="#mde1421ccc4" x="500.541973" y="325.193333" style="stroke: #000000"/>
     <use xlink:href="#mde1421ccc4" x="509.918407" y="325.193333" style="stroke: #000000"/>
     <use xlink:href="#mde1421ccc4" x="519.29484" y="325.193333" style="stroke: #000000"/>
     <use xlink:href="#mde1421ccc4" x="528.671274" y="325.193333" style="stroke: #000000"/>
     <use xlink:href="#mde1421ccc4" x="538.047708" y="325.193333" style="stroke: #000000"/>
     <use xlink:href="#mde1421ccc4" x="547.424142" y="325.193333" style="stroke: #000000"/>
     <use xlink:href="#mde1421ccc4" x="556.800575" y="325.193333" style="stroke: #000000"/>
     <use xlink:href="#mde1421ccc4" x="566.177009" y="325.193333" style="stroke: #000000"/>
     <use xlink:href="#mde1421ccc4" x="575.553443" y="325.193333" style="stroke: #000000"/>
     <use xlink:href="#mde1421ccc4" x="584.929877" y="325.193333" style="stroke: #000000"/>
     <use xlink:href="#mde1421ccc4" x="594.30631" y="325.193333" style="stroke: #000000"/>
     <use xlink:href="#mde1421ccc4" x="603.682744" y="325.193333" style="stroke: #000000"/>
     <use xlink:href="#mde1421ccc4" x="613.059178" y="325.193333" style="stroke: #000000"/>
     <use xlink:href="#mde1421ccc4" x="622.435612" y="325.193333" style="stroke: #000000"/>
    </g>
   </g>
   <g id="matplotlib.axis_1">
    <g id="xtick_1">
     <g id="line2d_1">
      <defs>
       <path id="ma7cc5c9d36" d="M 0 0 
L 0 3.5 
" style="stroke: #000000; stroke-width: 0.8"/>
      </defs>
      <g>
       <use xlink:href="#ma7cc5c9d36" x="73.914237" y="384.28" style="stroke: #000000; stroke-width: 0.8"/>
      </g>
     </g>
     <g id="text_1">
      <text style="font: 14px 'Arial', sans-serif; text-anchor: middle" x="73.914237" y="401.300937" transform="rotate(-0 73.914237 401.300937)">−200</text>
     </g>
    </g>
    <g id="xtick_2">
     <g id="line2d_2">
      <g>
       <use xlink:href="#ma7cc5c9d36" x="152.051185" y="384.28" style="stroke: #000000; stroke-width: 0.8"/>
      </g>
     </g>
     <g id="text_2">
      <text style="font: 14px 'Arial', sans-serif; text-anchor: middle" x="152.051185" y="401.300937" transform="rotate(-0 152.051185 401.300937)">0</text>
     </g>
    </g>
    <g id="xtick_3">
     <g id="line2d_3">
      <g>
       <use xlink:href="#ma7cc5c9d36" x="230.188133" y="384.28" style="stroke: #000000; stroke-width: 0.8"/>
      </g>
     </g>
     <g id="text_3">
      <text style="font: 14px 'Arial', sans-serif; text-anchor: middle" x="230.188133" y="401.300937" transform="rotate(-0 230.188133 401.300937)">200</text>
     </g>
    </g>
    <g id="xtick_4">
     <g id="line2d_4">
      <g>
       <use xlink:href="#ma7cc5c9d36" x="308.325081" y="384.28" style="stroke: #000000; stroke-width: 0.8"/>
      </g>
     </g>
     <g id="text_4">
      <text style="font: 14px 'Arial', sans-serif; text-anchor: middle" x="308.325081" y="401.300937" transform="rotate(-0 308.325081 401.300937)">400</text>
     </g>
    </g>
    <g id="xtick_5">
     <g id="line2d_5">
      <g>
       <use xlink:href="#ma7cc5c9d36" x="386.462029" y="384.28" style="stroke: #000000; stroke-width: 0.8"/>
      </g>
     </g>
     <g id="text_5">
      <text style="font: 14px 'Arial', sans-serif; text-anchor: middle" x="386.462029" y="401.300937" transform="rotate(-0 386.462029 401.300937)">600</text>
     </g>
    </g>
    <g id="xtick_6">
     <g id="line2d_6">
      <g>
       <use xlink:href="#ma7cc5c9d36" x="464.598977" y="384.28" style="stroke: #000000; stroke-width: 0.8"/>
      </g>
     </g>
     <g id="text_6">
      <text style="font: 14px 'Arial', sans-serif; text-anchor: middle" x="464.598977" y="401.300937" transform="rotate(-0 464.598977 401.300937)">800</text>
     </g>
    </g>
    <g id="xtick_7">
     <g id="line2d_7">
      <g>
       <use xlink:href="#ma7cc5c9d36" x="542.735925" y="384.28" style="stroke: #000000; stroke-width: 0.8"/>
      </g>
     </g>
     <g id="text_7">
      <text style="font: 14px 'Arial', sans-serif; text-anchor: middle" x="542.735925" y="401.300937" transform="rotate(-0 542.735925 401.300937)">1000</text>
     </g>
    </g>
    <g id="xtick_8">
     <g id="line2d_8">
      <g>
       <use xlink:href="#ma7cc5c9d36" x="620.872873" y="384.28" style="stroke: #000000; stroke-width: 0.8"/>
      </g>
     </g>
     <g id="text_8">
      <text style="font: 14px 'Arial', sans-serif; text-anchor: middle" x="620.872873" y="401.300937" transform="rotate(-0 620.872873 401.300937)">1200</text>
     </g>
    </g>
    <g id="text_9">
     <text style="font: 14px 'Arial', sans-serif; text-anchor: middle" x="340.36123" y="418.275" transform="rotate(-0 340.36123 418.275)">Time from stimulus onset (ms)</text>
    </g>
   </g>
   <g id="matplotlib.axis_2">
    <g id="ytick_1">
     <g id="line2d_9">
      <defs>
       <path id="m998c37fdfc" d="M 0 0 
L -3.5 0 
" style="stroke: #000000; stroke-width: 0.8"/>
      </defs>
      <g>
       <use xlink:href="#m998c37fdfc" x="54.38" y="352.050909" style="stroke: #000000; stroke-width: 0.8"/>
      </g>
     </g>
     <g id="text_10">
      <text style="font: 14px 'Arial', sans-serif; text-anchor: end" x="47.38" y="357.061378" transform="rotate(-0 47.38 357.061378)">0.4</text>
     </g>
    </g>
    <g id="ytick_2">
     <g id="line2d_10">
      <g>
       <use xlink:href="#m998c37fdfc" x="54.38" y="298.335758" style="stroke: #000000; stroke-width: 0.8"/>
      </g>
     </g>
     <g id="text_11">
      <text style="font: 14px 'Arial', sans-serif; text-anchor: end" x="47.38" y="303.346226" transform="rotate(-0 47.38 303.346226)">0.5</text>
     </g>
    </g>
    <g id="ytick_3">
     <g id="line2d_11">
      <g>
       <use xlink:href="#m998c37fdfc" x="54.38" y="244.620606" style="stroke: #000000; stroke-width: 0.8"/>
      </g>
     </g>
     <g id="text_12">
      <text style="font: 14px 'Arial', sans-serif; text-anchor: end" x="47.38" y="249.631075" transform="rotate(-0 47.38 249.631075)">0.6</text>
     </g>
    </g>
    <g id="ytick_4">
     <g id="line2d_12">
      <g>
       <use xlink:href="#m998c37fdfc" x="54.38" y="190.905455" style="stroke: #000000; stroke-width: 0.8"/>
      </g>
     </g>
     <g id="text_13">
      <text style="font: 14px 'Arial', sans-serif; text-anchor: end" x="47.38" y="195.915923" transform="rotate(-0 47.38 195.915923)">0.7</text>
     </g>
    </g>
    <g id="ytick_5">
     <g id="line2d_13">
      <g>
       <use xlink:href="#m998c37fdfc" x="54.38" y="137.190303" style="stroke: #000000; stroke-width: 0.8"/>
      </g>
     </g>
     <g id="text_14">
      <text style="font: 14px 'Arial', sans-serif; text-anchor: end" x="47.38" y="142.200772" transform="rotate(-0 47.38 142.200772)">0.8</text>
     </g>
    </g>
    <g id="ytick_6">
     <g id="line2d_14">
      <g>
       <use xlink:href="#m998c37fdfc" x="54.38" y="83.475152" style="stroke: #000000; stroke-width: 0.8"/>
      </g>
     </g>
     <g id="text_15">
      <text style="font: 14px 'Arial', sans-serif; text-anchor: end" x="47.38" y="88.48562" transform="rotate(-0 47.38 88.48562)">0.9</text>
     </g>
    </g>
    <g id="ytick_7">
     <g id="line2d_15">
      <g>
       <use xlink:href="#m998c37fdfc" x="54.38" y="29.76" style="stroke: #000000; stroke-width: 0.8"/>
      </g>
     </g>
     <g id="text_16">
      <text style="font: 14px 'Arial', sans-serif; text-anchor: end" x="47.38" y="34.770469" transform="rotate(-0 47.38 34.770469)">1.0</text>
     </g>
    </g>
    <g id="text_17">
     <text style="font: 14px 'Arial', sans-serif; text-anchor: middle" x="20.973438" y="207.02" transform="rotate(-90 20.973438 207.02)">Classification accuracy</text>
    </g>
   </g>
   <g id="line2d_16">
    <path d="M 54.38 298.335758 
L 63.756434 298.335758 
L 73.132868 298.335758 
L 82.509301 298.335758 
L 91.885735 298.335758 
L 101.262169 298.335758 
L 110.638603 298.335758 
L 120.015036 298.335758 
L 129.39147 298.335758 
L 138.767904 298.335758 
L 148.144338 298.335758 
L 157.520771 298.335758 
L 166.897205 298.335758 
L 176.273639 298.335758 
L 185.650073 298.335758 
L 195.026506 298.335758 
L 204.40294 298.335758 
L 213.779374 298.335758 
L 223.155808 298.335758 
L 232.532241 298.335758 
L 241.908675 298.335758 
L 251.285109 298.335758 
L 260.661543 298.335758 
L 270.037976 298.335758 
L 279.41441 298.335758 
L 288.790844 298.335758 
L 298.167278 298.335758 
L 307.543711 298.335758 
L 316.920145 298.335758 
L 326.296579 298.335758 
L 335.673013 298.335758 
L 345.049446 298.335758 
L 354.42588 298.335758 
L 363.802314 298.335758 
L 373.178748 298.335758 
L 382.555181 298.335758 
L 391.931615 298.335758 
L 401.308049 298.335758 
L 410.684483 298.335758 
L 420.060916 298.335758 
L 429.43735 298.335758 
L 438.813784 298.335758 
L 448.190218 298.335758 
L 457.566651 298.335758 
L 466.943085 298.335758 
L 476.319519 298.335758 
L 485.695953 298.335758 
L 495.072386 298.335758 
L 504.44882 298.335758 
L 513.825254 298.335758 
L 523.201688 298.335758 
L 532.578121 298.335758 
L 541.954555 298.335758 
L 551.330989 298.335758 
L 560.707423 298.335758 
L 570.083856 298.335758 
L 579.46029 298.335758 
L 588.836724 298.335758 
L 598.213158 298.335758 
L 607.589592 298.335758 
L 616.966025 298.335758 
L 626.342459 298.335758 
" clip-path="url(#pa2896a24b3)" style="fill: none; stroke-dasharray: 5.55,2.4; stroke-dashoffset: 0; stroke: #808080; stroke-width: 1.5"/>
   </g>
   <g id="line2d_17">
    <path d="M 54.38 297.635125 
L 63.756434 305.742443 
L 73.132868 299.664735 
L 82.509301 289.488883 
L 91.885735 302.23372 
L 101.262169 297.134673 
L 110.638603 299.314419 
L 120.015036 302.255963 
L 129.39147 291.079208 
L 138.767904 295.210715 
L 148.144338 296.684267 
L 157.520771 290.61768 
L 166.897205 290.217319 
L 176.273639 291.346115 
L 185.650073 297.423823 
L 195.026506 298.213425 
L 204.40294 303.223503 
L 213.779374 307.482903 
L 223.155808 305.675716 
L 232.532241 299.798189 
L 241.908675 299.047511 
L 251.285109 296.695388 
L 260.661543 292.330337 
L 270.037976 297.329294 
L 279.41441 304.013104 
L 288.790844 298.719437 
L 298.167278 299.23101 
L 307.543711 294.810353 
L 316.920145 300.204111 
L 326.296579 305.458854 
L 335.673013 296.094846 
L 345.049446 303.862969 
L 354.42588 305.203067 
L 363.802314 304.029786 
L 373.178748 304.45239 
L 382.555181 299.792628 
L 391.931615 299.192086 
L 401.308049 303.818484 
L 410.684483 298.252349 
L 420.060916 299.648053 
L 429.43735 308.077884 
L 438.813784 301.410755 
L 448.190218 300.77685 
L 457.566651 310.986065 
L 466.943085 311.241851 
L 476.319519 299.414509 
L 485.695953 300.715684 
L 495.072386 302.567355 
L 504.44882 308.305868 
L 513.825254 301.883404 
L 523.201688 296.083725 
L 532.578121 298.547059 
L 541.954555 303.907453 
L 551.330989 297.462747 
L 560.707423 306.904603 
L 570.083856 307.538509 
L 579.46029 304.702616 
L 588.836724 298.113335 
L 598.213158 299.648053 
L 607.589592 295.766772 
L 616.966025 297.062386 
L 626.342459 290.256243 
" clip-path="url(#pa2896a24b3)" style="fill: none; stroke: #808080; stroke-width: 1.5; stroke-linecap: square"/>
   </g>
   <g id="line2d_18">
    <path d="M 54.38 304.808267 
L 63.756434 305.675716 
L 73.132868 293.837253 
L 82.509301 298.808406 
L 91.885735 301.677663 
L 101.262169 304.786024 
L 110.638603 300.170747 
L 120.015036 294.693581 
L 129.39147 311.853515 
L 138.767904 301.605375 
L 148.144338 311.942484 
L 157.520771 309.234484 
L 166.897205 305.297597 
L 176.273639 303.190139 
L 185.650073 250.859571 
L 195.026506 222.089157 
L 204.40294 177.0207 
L 213.779374 134.93827 
L 223.155808 145.052956 
L 232.532241 168.824412 
L 241.908675 177.60456 
L 251.285109 178.922416 
L 260.661543 175.469299 
L 270.037976 172.805784 
L 279.41441 177.443303 
L 288.790844 172.183 
L 298.167278 165.743854 
L 307.543711 161.590105 
L 316.920145 146.165071 
L 326.296579 155.212126 
L 335.673013 160.327854 
L 345.049446 165.037661 
L 354.42588 176.175492 
L 363.802314 176.837201 
L 373.178748 189.815582 
L 382.555181 192.073175 
L 391.931615 197.589265 
L 401.308049 195.131491 
L 410.684483 196.96092 
L 420.060916 198.812592 
L 429.43735 205.451918 
L 438.813784 210.98469 
L 448.190218 205.4686 
L 457.566651 205.390752 
L 466.943085 211.307203 
L 476.319519 224.580295 
L 485.695953 219.686989 
L 495.072386 222.673018 
L 504.44882 222.69526 
L 513.825254 230.118627 
L 523.201688 229.935128 
L 532.578121 232.66537 
L 541.954555 230.986077 
L 551.330989 229.85728 
L 560.707423 230.168672 
L 570.083856 226.643268 
L 579.46029 239.154561 
L 588.836724 230.763654 
L 598.213158 234.778389 
L 607.589592 232.720976 
L 616.966025 225.531153 
L 626.342459 235.751489 
" clip-path="url(#pa2896a24b3)" style="fill: none; stroke: #000000; stroke-width: 2; stroke-linecap: square"/>
   </g>
   <g id="patch_3">
    <path d="M 54.38 384.28 
L 54.38 29.76 
" style="fill: none; stroke: #000000; stroke-width: 0.8; stroke-linejoin: miter; stroke-linecap: square"/>
   </g>
   <g id="patch_4">
    <path d="M 54.38 384.28 
L 626.342459 384.28 
" style="fill: none; stroke: #000000; stroke-width: 0.8; stroke-linejoin: miter; stroke-linecap: square"/>
   </g>
   <g id="text_18">
    <text style="fill: #808080; font: 14px 'Arial', sans-serif; text-anchor: start" x="523.389216" y="312.761337" transform="rotate(-0 523.389216 312.761337)">Shuffle</text>
   </g>
   <g id="text_19">
    <text style="fill: #ffffff; font: 16px 'Arial', sans-serif; text-anchor: start" x="197.370615" y="48.3029" transform="rotate(-0 197.370615 48.3029)">Stim</text>
   </g>
   <g id="text_20">
    <text style="font: 18px 'Arial', sans-serif; text-anchor: middle" x="340.36123" y="23.76" transform="rotate(-0 340.36123 23.76)">Decode load, 1vs2</text>
   </g>
   <g id="legend_1">
    <g id="PathCollection_2">
     <g>
      <use xlink:href="#mde1421ccc4" x="562.698865" y="369.30625" style="stroke: #000000"/>
     </g>
    </g>
    <g id="text_21">
     <text style="font: 11px 'Arial', sans-serif; text-anchor: start" x="582.498865" y="372.19375" transform="rotate(-0 582.498865 372.19375)">p &lt; .05</text>
    </g>
   </g>
  </g>
 </g>
 <defs>
  <clipPath id="pa2896a24b3">
   <rect x="54.38" y="29.76" width="571.962459" height="354.52"/>
  </clipPath>
 </defs>
</svg>
