<?xml version="1.0" encoding="utf-8" standalone="no"?>
<!DOCTYPE svg PUBLIC "-//W3C//DTD SVG 1.1//EN"
  "http://www.w3.org/Graphics/SVG/1.1/DTD/svg11.dtd">
<svg xmlns:xlink="http://www.w3.org/1999/xlink" width="648pt" height="432pt" viewBox="0 0 648 432" xmlns="http://www.w3.org/2000/svg" version="1.1">
 <metadata>
  <rdf:RDF xmlns:dc="http://purl.org/dc/elements/1.1/" xmlns:cc="http://creativecommons.org/ns#" xmlns:rdf="http://www.w3.org/1999/02/22-rdf-syntax-ns#">
   <cc:Work>
    <dc:type rdf:resource="http://purl.org/dc/dcmitype/StillImage"/>
    <dc:date>2024-01-25T15:17:35.026236</dc:date>
    <dc:format>image/svg+xml</dc:format>
    <dc:creator>
     <cc:Agent>
      <dc:title>Matplotlib v3.7.1, https://matplotlib.org/</dc:title>
     </cc:Agent>
    </dc:creator>
   </cc:Work>
  </rdf:RDF>
 </metadata>
 <defs>
  <style type="text/css">*{stroke-linejoin: round; stroke-linecap: butt}</style>
 </defs>
 <g id="figure_1">
  <g id="patch_1">
   <path d="M 0 432 
L 648 432 
L 648 0 
L 0 0 
z
" style="fill: #ffffff"/>
  </g>
  <g id="axes_1">
   <g id="patch_2">
    <path d="M 54.38 384.28 
L 626.342459 384.28 
L 626.342459 29.76 
L 54.38 29.76 
z
" style="fill: #ffffff"/>
   </g>
   <g id="PolyCollection_1">
    <defs>
     <path id="m2969e17db7" d="M 152.051185 -402.24 
L 152.051185 -53.091515 
L 249.72237 -53.091515 
L 249.72237 -402.24 
L 249.72237 -402.24 
L 152.051185 -402.24 
z
" style="stroke: #808080; stroke-opacity: 0.5"/>
    </defs>
    <g clip-path="url(#p6e577be985)">
     <use xlink:href="#m2969e17db7" x="0" y="432" style="fill: #808080; fill-opacity: 0.5; stroke: #808080; stroke-opacity: 0.5"/>
    </g>
   </g>
   <g id="PolyCollection_2">
    <defs>
     <path id="m03e76617bd" d="M 54.38 -133.301973 
L 54.38 -134.372379 
L 63.756434 -135.279983 
L 73.132868 -133.983337 
L 82.509301 -133.785279 
L 91.885735 -134.036622 
L 101.262169 -133.121535 
L 110.638603 -134.54426 
L 120.015036 -134.64713 
L 129.39147 -133.573675 
L 138.767904 -133.707177 
L 148.144338 -134.157012 
L 157.520771 -133.711605 
L 166.897205 -133.910458 
L 176.273639 -134.918733 
L 185.650073 -134.501226 
L 195.026506 -133.621989 
L 204.40294 -133.234297 
L 213.779374 -134.053708 
L 223.155808 -133.72178 
L 232.532241 -133.472373 
L 241.908675 -133.986543 
L 251.285109 -134.134289 
L 260.661543 -134.168271 
L 270.037976 -133.879044 
L 279.41441 -134.531085 
L 288.790844 -135.122703 
L 298.167278 -134.777685 
L 307.543711 -134.439201 
L 316.920145 -134.097599 
L 326.296579 -133.501743 
L 335.673013 -134.343349 
L 345.049446 -134.277303 
L 354.42588 -133.556478 
L 363.802314 -133.107675 
L 373.178748 -133.821342 
L 382.555181 -133.371363 
L 391.931615 -133.366285 
L 401.308049 -133.742327 
L 410.684483 -133.346166 
L 420.060916 -134.235794 
L 429.43735 -134.055702 
L 438.813784 -133.885947 
L 448.190218 -133.104457 
L 457.566651 -134.008692 
L 466.943085 -133.923902 
L 476.319519 -133.074578 
L 485.695953 -133.915875 
L 495.072386 -133.675205 
L 504.44882 -133.546888 
L 513.825254 -133.830932 
L 523.201688 -133.838904 
L 532.578121 -134.032206 
L 541.954555 -134.177535 
L 551.330989 -134.060219 
L 560.707423 -133.73825 
L 570.083856 -134.261852 
L 579.46029 -133.779819 
L 588.836724 -134.51401 
L 598.213158 -134.113885 
L 607.589592 -133.75831 
L 616.966025 -134.203241 
L 626.342459 -133.682357 
L 626.342459 -132.805146 
L 626.342459 -132.805146 
L 616.966025 -133.243684 
L 607.589592 -132.646008 
L 598.213158 -133.227389 
L 588.836724 -133.539018 
L 579.46029 -132.780528 
L 570.083856 -133.34544 
L 560.707423 -132.600787 
L 551.330989 -133.217331 
L 541.954555 -133.389387 
L 532.578121 -133.223991 
L 523.201688 -132.743241 
L 513.825254 -132.751323 
L 504.44882 -132.791703 
L 495.072386 -132.69864 
L 485.695953 -133.015029 
L 476.319519 -131.872202 
L 466.943085 -132.855198 
L 457.566651 -132.970812 
L 448.190218 -132.347223 
L 438.813784 -132.972113 
L 429.43735 -132.802692 
L 420.060916 -133.294206 
L 410.684483 -132.547691 
L 401.308049 -132.824804 
L 391.931615 -132.333508 
L 382.555181 -132.23846 
L 373.178748 -132.962763 
L 363.802314 -132.109794 
L 354.42588 -132.276768 
L 345.049446 -133.406725 
L 335.673013 -133.405626 
L 326.296579 -132.38355 
L 316.920145 -132.892247 
L 307.543711 -133.152299 
L 298.167278 -133.796813 
L 288.790844 -134.135635 
L 279.41441 -133.45377 
L 270.037976 -132.931306 
L 260.661543 -133.365621 
L 251.285109 -132.972218 
L 241.908675 -132.837375 
L 232.532241 -132.504893 
L 223.155808 -132.74248 
L 213.779374 -133.132983 
L 204.40294 -131.979056 
L 195.026506 -132.249292 
L 185.650073 -133.288787 
L 176.273639 -133.839042 
L 166.897205 -133.168802 
L 157.520771 -132.87432 
L 148.144338 -133.091845 
L 138.767904 -132.933465 
L 129.39147 -132.876462 
L 120.015036 -133.92203 
L 110.638603 -133.301914 
L 101.262169 -131.991061 
L 91.885735 -133.048866 
L 82.509301 -132.821666 
L 73.132868 -132.889514 
L 63.756434 -134.26706 
L 54.38 -133.301973 
z
" style="stroke: #808080; stroke-opacity: 0.5"/>
    </defs>
    <g clip-path="url(#p6e577be985)">
     <use xlink:href="#m03e76617bd" x="0" y="432" style="fill: #808080; fill-opacity: 0.5; stroke: #808080; stroke-opacity: 0.5"/>
    </g>
   </g>
   <g id="PolyCollection_3">
    <defs>
     <path id="m420e6cb087" d="M 54.38 -121.874005 
L 54.38 -130.960064 
L 63.756434 -142.450712 
L 73.132868 -142.159849 
L 82.509301 -136.761201 
L 91.885735 -129.790539 
L 101.262169 -136.511237 
L 110.638603 -132.736488 
L 120.015036 -140.166249 
L 129.39147 -129.199545 
L 138.767904 -143.197334 
L 148.144338 -138.549268 
L 157.520771 -128.50171 
L 166.897205 -135.227054 
L 176.273639 -139.689038 
L 185.650073 -185.892734 
L 195.026506 -218.019433 
L 204.40294 -275.867983 
L 213.779374 -305.72563 
L 223.155808 -301.441661 
L 232.532241 -281.43703 
L 241.908675 -261.851076 
L 251.285109 -266.475433 
L 260.661543 -268.516691 
L 270.037976 -263.174897 
L 279.41441 -261.773938 
L 288.790844 -263.284322 
L 298.167278 -268.968572 
L 307.543711 -284.829534 
L 316.920145 -300.95621 
L 326.296579 -296.979246 
L 335.673013 -289.561627 
L 345.049446 -282.947448 
L 354.42588 -279.686468 
L 363.802314 -271.443137 
L 373.178748 -268.11647 
L 382.555181 -259.611213 
L 391.931615 -253.476361 
L 401.308049 -255.555208 
L 410.684483 -251.270824 
L 420.060916 -249.38408 
L 429.43735 -239.657254 
L 438.813784 -235.033233 
L 448.190218 -238.584503 
L 457.566651 -236.423114 
L 466.943085 -231.291179 
L 476.319519 -228.961478 
L 485.695953 -221.103449 
L 495.072386 -223.194689 
L 504.44882 -222.541856 
L 513.825254 -217.303945 
L 523.201688 -213.005034 
L 532.578121 -206.068458 
L 541.954555 -205.856779 
L 551.330989 -207.993553 
L 560.707423 -210.752777 
L 570.083856 -207.920235 
L 579.46029 -198.980284 
L 588.836724 -207.193116 
L 598.213158 -206.240009 
L 607.589592 -203.946844 
L 616.966025 -207.05449 
L 626.342459 -201.849547 
L 626.342459 -184.189868 
L 626.342459 -184.189868 
L 616.966025 -190.367087 
L 607.589592 -186.494544 
L 598.213158 -188.472012 
L 588.836724 -188.042933 
L 579.46029 -179.868084 
L 570.083856 -191.050741 
L 560.707423 -191.063212 
L 551.330989 -189.711057 
L 541.954555 -187.561296 
L 532.578121 -182.757917 
L 523.201688 -190.424633 
L 513.825254 -195.194686 
L 504.44882 -199.42054 
L 495.072386 -201.089023 
L 485.695953 -199.590912 
L 476.319519 -205.67002 
L 466.943085 -209.438044 
L 457.566651 -215.062485 
L 448.190218 -217.984129 
L 438.813784 -211.380899 
L 429.43735 -215.428818 
L 420.060916 -226.908578 
L 410.684483 -228.425794 
L 401.308049 -231.013614 
L 391.931615 -230.429724 
L 382.555181 -236.351199 
L 373.178748 -242.667431 
L 363.802314 -248.629259 
L 354.42588 -260.837166 
L 345.049446 -263.265544 
L 335.673013 -273.443189 
L 326.296579 -279.217699 
L 316.920145 -281.339796 
L 307.543711 -268.938054 
L 298.167278 -252.889436 
L 288.790844 -244.556256 
L 279.41441 -242.412786 
L 270.037976 -246.034917 
L 260.661543 -250.102728 
L 251.285109 -251.930348 
L 241.908675 -243.504592 
L 232.532241 -264.022282 
L 223.155808 -282.530747 
L 213.779374 -284.810702 
L 204.40294 -255.480703 
L 195.026506 -203.089971 
L 185.650073 -165.304787 
L 176.273639 -125.473047 
L 166.897205 -125.581879 
L 157.520771 -119.770575 
L 148.144338 -125.247584 
L 138.767904 -128.991204 
L 129.39147 -118.130666 
L 120.015036 -129.525703 
L 110.638603 -125.40159 
L 101.262169 -122.35928 
L 91.885735 -119.198615 
L 82.509301 -127.920673 
L 73.132868 -131.228217 
L 63.756434 -130.466706 
L 54.38 -121.874005 
z
" style="stroke: #000000; stroke-opacity: 0.5"/>
    </defs>
    <g clip-path="url(#p6e577be985)">
     <use xlink:href="#m420e6cb087" x="0" y="432" style="fill-opacity: 0.5; stroke: #000000; stroke-opacity: 0.5"/>
    </g>
   </g>
   <g id="PathCollection_1">
    <defs>
     <path id="m6a92c6086b" d="M -2.645751 2.645751 
L 2.645751 2.645751 
L 2.645751 -2.645751 
L -2.645751 -2.645751 
z
" style="stroke: #000000"/>
    </defs>
    <g clip-path="url(#p6e577be985)">
     <use xlink:href="#m6a92c6086b" x="181.743225" y="325.193333" style="stroke: #000000"/>
     <use xlink:href="#m6a92c6086b" x="191.119659" y="325.193333" style="stroke: #000000"/>
     <use xlink:href="#m6a92c6086b" x="200.496093" y="325.193333" style="stroke: #000000"/>
     <use xlink:href="#m6a92c6086b" x="209.872526" y="325.193333" style="stroke: #000000"/>
     <use xlink:href="#m6a92c6086b" x="219.24896" y="325.193333" style="stroke: #000000"/>
     <use xlink:href="#m6a92c6086b" x="228.625394" y="325.193333" style="stroke: #000000"/>
     <use xlink:href="#m6a92c6086b" x="238.001828" y="325.193333" style="stroke: #000000"/>
     <use xlink:href="#m6a92c6086b" x="247.378261" y="325.193333" style="stroke: #000000"/>
     <use xlink:href="#m6a92c6086b" x="256.754695" y="325.193333" style="stroke: #000000"/>
     <use xlink:href="#m6a92c6086b" x="266.131129" y="325.193333" style="stroke: #000000"/>
     <use xlink:href="#m6a92c6086b" x="275.507563" y="325.193333" style="stroke: #000000"/>
     <use xlink:href="#m6a92c6086b" x="284.883996" y="325.193333" style="stroke: #000000"/>
     <use xlink:href="#m6a92c6086b" x="294.26043" y="325.193333" style="stroke: #000000"/>
     <use xlink:href="#m6a92c6086b" x="303.636864" y="325.193333" style="stroke: #000000"/>
     <use xlink:href="#m6a92c6086b" x="313.013298" y="325.193333" style="stroke: #000000"/>
     <use xlink:href="#m6a92c6086b" x="322.389731" y="325.193333" style="stroke: #000000"/>
     <use xlink:href="#m6a92c6086b" x="331.766165" y="325.193333" style="stroke: #000000"/>
     <use xlink:href="#m6a92c6086b" x="341.142599" y="325.193333" style="stroke: #000000"/>
     <use xlink:href="#m6a92c6086b" x="350.519033" y="325.193333" style="stroke: #000000"/>
     <use xlink:href="#m6a92c6086b" x="359.895466" y="325.193333" style="stroke: #000000"/>
     <use xlink:href="#m6a92c6086b" x="369.2719" y="325.193333" style="stroke: #000000"/>
     <use xlink:href="#m6a92c6086b" x="378.648334" y="325.193333" style="stroke: #000000"/>
     <use xlink:href="#m6a92c6086b" x="388.024768" y="325.193333" style="stroke: #000000"/>
     <use xlink:href="#m6a92c6086b" x="397.401202" y="325.193333" style="stroke: #000000"/>
     <use xlink:href="#m6a92c6086b" x="406.777635" y="325.193333" style="stroke: #000000"/>
     <use xlink:href="#m6a92c6086b" x="416.154069" y="325.193333" style="stroke: #000000"/>
     <use xlink:href="#m6a92c6086b" x="425.530503" y="325.193333" style="stroke: #000000"/>
     <use xlink:href="#m6a92c6086b" x="434.906937" y="325.193333" style="stroke: #000000"/>
     <use xlink:href="#m6a92c6086b" x="444.28337" y="325.193333" style="stroke: #000000"/>
     <use xlink:href="#m6a92c6086b" x="453.659804" y="325.193333" style="stroke: #000000"/>
     <use xlink:href="#m6a92c6086b" x="463.036238" y="325.193333" style="stroke: #000000"/>
     <use xlink:href="#m6a92c6086b" x="472.412672" y="325.193333" style="stroke: #000000"/>
     <use xlink:href="#m6a92c6086b" x="481.789105" y="325.193333" style="stroke: #000000"/>
     <use xlink:href="#m6a92c6086b" x="491.165539" y="325.193333" style="stroke: #000000"/>
     <use xlink:href="#m6a92c6086b" x="500.541973" y="325.193333" style="stroke: #000000"/>
     <use xlink:href="#m6a92c6086b" x="509.918407" y="325.193333" style="stroke: #000000"/>
     <use xlink:href="#m6a92c6086b" x="519.29484" y="325.193333" style="stroke: #000000"/>
     <use xlink:href="#m6a92c6086b" x="528.671274" y="325.193333" style="stroke: #000000"/>
     <use xlink:href="#m6a92c6086b" x="538.047708" y="325.193333" style="stroke: #000000"/>
     <use xlink:href="#m6a92c6086b" x="547.424142" y="325.193333" style="stroke: #000000"/>
     <use xlink:href="#m6a92c6086b" x="556.800575" y="325.193333" style="stroke: #000000"/>
     <use xlink:href="#m6a92c6086b" x="566.177009" y="325.193333" style="stroke: #000000"/>
     <use xlink:href="#m6a92c6086b" x="575.553443" y="325.193333" style="stroke: #000000"/>
     <use xlink:href="#m6a92c6086b" x="584.929877" y="325.193333" style="stroke: #000000"/>
     <use xlink:href="#m6a92c6086b" x="594.30631" y="325.193333" style="stroke: #000000"/>
     <use xlink:href="#m6a92c6086b" x="603.682744" y="325.193333" style="stroke: #000000"/>
     <use xlink:href="#m6a92c6086b" x="613.059178" y="325.193333" style="stroke: #000000"/>
     <use xlink:href="#m6a92c6086b" x="622.435612" y="325.193333" style="stroke: #000000"/>
    </g>
   </g>
   <g id="matplotlib.axis_1">
    <g id="xtick_1">
     <g id="line2d_1">
      <defs>
       <path id="m29c1e5b378" d="M 0 0 
L 0 3.5 
" style="stroke: #000000; stroke-width: 0.8"/>
      </defs>
      <g>
       <use xlink:href="#m29c1e5b378" x="73.914237" y="384.28" style="stroke: #000000; stroke-width: 0.8"/>
      </g>
     </g>
     <g id="text_1">
      <text style="font: 14px 'Arial', sans-serif; text-anchor: middle" x="73.914237" y="401.300937" transform="rotate(-0 73.914237 401.300937)">−200</text>
     </g>
    </g>
    <g id="xtick_2">
     <g id="line2d_2">
      <g>
       <use xlink:href="#m29c1e5b378" x="152.051185" y="384.28" style="stroke: #000000; stroke-width: 0.8"/>
      </g>
     </g>
     <g id="text_2">
      <text style="font: 14px 'Arial', sans-serif; text-anchor: middle" x="152.051185" y="401.300937" transform="rotate(-0 152.051185 401.300937)">0</text>
     </g>
    </g>
    <g id="xtick_3">
     <g id="line2d_3">
      <g>
       <use xlink:href="#m29c1e5b378" x="230.188133" y="384.28" style="stroke: #000000; stroke-width: 0.8"/>
      </g>
     </g>
     <g id="text_3">
      <text style="font: 14px 'Arial', sans-serif; text-anchor: middle" x="230.188133" y="401.300937" transform="rotate(-0 230.188133 401.300937)">200</text>
     </g>
    </g>
    <g id="xtick_4">
     <g id="line2d_4">
      <g>
       <use xlink:href="#m29c1e5b378" x="308.325081" y="384.28" style="stroke: #000000; stroke-width: 0.8"/>
      </g>
     </g>
     <g id="text_4">
      <text style="font: 14px 'Arial', sans-serif; text-anchor: middle" x="308.325081" y="401.300937" transform="rotate(-0 308.325081 401.300937)">400</text>
     </g>
    </g>
    <g id="xtick_5">
     <g id="line2d_5">
      <g>
       <use xlink:href="#m29c1e5b378" x="386.462029" y="384.28" style="stroke: #000000; stroke-width: 0.8"/>
      </g>
     </g>
     <g id="text_5">
      <text style="font: 14px 'Arial', sans-serif; text-anchor: middle" x="386.462029" y="401.300937" transform="rotate(-0 386.462029 401.300937)">600</text>
     </g>
    </g>
    <g id="xtick_6">
     <g id="line2d_6">
      <g>
       <use xlink:href="#m29c1e5b378" x="464.598977" y="384.28" style="stroke: #000000; stroke-width: 0.8"/>
      </g>
     </g>
     <g id="text_6">
      <text style="font: 14px 'Arial', sans-serif; text-anchor: middle" x="464.598977" y="401.300937" transform="rotate(-0 464.598977 401.300937)">800</text>
     </g>
    </g>
    <g id="xtick_7">
     <g id="line2d_7">
      <g>
       <use xlink:href="#m29c1e5b378" x="542.735925" y="384.28" style="stroke: #000000; stroke-width: 0.8"/>
      </g>
     </g>
     <g id="text_7">
      <text style="font: 14px 'Arial', sans-serif; text-anchor: middle" x="542.735925" y="401.300937" transform="rotate(-0 542.735925 401.300937)">1000</text>
     </g>
    </g>
    <g id="xtick_8">
     <g id="line2d_8">
      <g>
       <use xlink:href="#m29c1e5b378" x="620.872873" y="384.28" style="stroke: #000000; stroke-width: 0.8"/>
      </g>
     </g>
     <g id="text_8">
      <text style="font: 14px 'Arial', sans-serif; text-anchor: middle" x="620.872873" y="401.300937" transform="rotate(-0 620.872873 401.300937)">1200</text>
     </g>
    </g>
    <g id="text_9">
     <text style="font: 14px 'Arial', sans-serif; text-anchor: middle" x="340.36123" y="418.275" transform="rotate(-0 340.36123 418.275)">Time from stimulus onset (ms)</text>
    </g>
   </g>
   <g id="matplotlib.axis_2">
    <g id="ytick_1">
     <g id="line2d_9">
      <defs>
       <path id="m206b55bd6e" d="M 0 0 
L -3.5 0 
" style="stroke: #000000; stroke-width: 0.8"/>
      </defs>
      <g>
       <use xlink:href="#m206b55bd6e" x="54.38" y="352.050909" style="stroke: #000000; stroke-width: 0.8"/>
      </g>
     </g>
     <g id="text_10">
      <text style="font: 14px 'Arial', sans-serif; text-anchor: end" x="47.38" y="357.061378" transform="rotate(-0 47.38 357.061378)">0.4</text>
     </g>
    </g>
    <g id="ytick_2">
     <g id="line2d_10">
      <g>
       <use xlink:href="#m206b55bd6e" x="54.38" y="298.335758" style="stroke: #000000; stroke-width: 0.8"/>
      </g>
     </g>
     <g id="text_11">
      <text style="font: 14px 'Arial', sans-serif; text-anchor: end" x="47.38" y="303.346226" transform="rotate(-0 47.38 303.346226)">0.5</text>
     </g>
    </g>
    <g id="ytick_3">
     <g id="line2d_11">
      <g>
       <use xlink:href="#m206b55bd6e" x="54.38" y="244.620606" style="stroke: #000000; stroke-width: 0.8"/>
      </g>
     </g>
     <g id="text_12">
      <text style="font: 14px 'Arial', sans-serif; text-anchor: end" x="47.38" y="249.631075" transform="rotate(-0 47.38 249.631075)">0.6</text>
     </g>
    </g>
    <g id="ytick_4">
     <g id="line2d_12">
      <g>
       <use xlink:href="#m206b55bd6e" x="54.38" y="190.905455" style="stroke: #000000; stroke-width: 0.8"/>
      </g>
     </g>
     <g id="text_13">
      <text style="font: 14px 'Arial', sans-serif; text-anchor: end" x="47.38" y="195.915923" transform="rotate(-0 47.38 195.915923)">0.7</text>
     </g>
    </g>
    <g id="ytick_5">
     <g id="line2d_13">
      <g>
       <use xlink:href="#m206b55bd6e" x="54.38" y="137.190303" style="stroke: #000000; stroke-width: 0.8"/>
      </g>
     </g>
     <g id="text_14">
      <text style="font: 14px 'Arial', sans-serif; text-anchor: end" x="47.38" y="142.200772" transform="rotate(-0 47.38 142.200772)">0.8</text>
     </g>
    </g>
    <g id="ytick_6">
     <g id="line2d_14">
      <g>
       <use xlink:href="#m206b55bd6e" x="54.38" y="83.475152" style="stroke: #000000; stroke-width: 0.8"/>
      </g>
     </g>
     <g id="text_15">
      <text style="font: 14px 'Arial', sans-serif; text-anchor: end" x="47.38" y="88.48562" transform="rotate(-0 47.38 88.48562)">0.9</text>
     </g>
    </g>
    <g id="ytick_7">
     <g id="line2d_15">
      <g>
       <use xlink:href="#m206b55bd6e" x="54.38" y="29.76" style="stroke: #000000; stroke-width: 0.8"/>
      </g>
     </g>
     <g id="text_16">
      <text style="font: 14px 'Arial', sans-serif; text-anchor: end" x="47.38" y="34.770469" transform="rotate(-0 47.38 34.770469)">1.0</text>
     </g>
    </g>
    <g id="text_17">
     <text style="font: 14px 'Arial', sans-serif; text-anchor: middle" x="20.973438" y="207.02" transform="rotate(-90 20.973438 207.02)">Classification accuracy</text>
    </g>
   </g>
   <g id="line2d_16">
    <path d="M 54.38 298.335758 
L 63.756434 298.335758 
L 73.132868 298.335758 
L 82.509301 298.335758 
L 91.885735 298.335758 
L 101.262169 298.335758 
L 110.638603 298.335758 
L 120.015036 298.335758 
L 129.39147 298.335758 
L 138.767904 298.335758 
L 148.144338 298.335758 
L 157.520771 298.335758 
L 166.897205 298.335758 
L 176.273639 298.335758 
L 185.650073 298.335758 
L 195.026506 298.335758 
L 204.40294 298.335758 
L 213.779374 298.335758 
L 223.155808 298.335758 
L 232.532241 298.335758 
L 241.908675 298.335758 
L 251.285109 298.335758 
L 260.661543 298.335758 
L 270.037976 298.335758 
L 279.41441 298.335758 
L 288.790844 298.335758 
L 298.167278 298.335758 
L 307.543711 298.335758 
L 316.920145 298.335758 
L 326.296579 298.335758 
L 335.673013 298.335758 
L 345.049446 298.335758 
L 354.42588 298.335758 
L 363.802314 298.335758 
L 373.178748 298.335758 
L 382.555181 298.335758 
L 391.931615 298.335758 
L 401.308049 298.335758 
L 410.684483 298.335758 
L 420.060916 298.335758 
L 429.43735 298.335758 
L 438.813784 298.335758 
L 448.190218 298.335758 
L 457.566651 298.335758 
L 466.943085 298.335758 
L 476.319519 298.335758 
L 485.695953 298.335758 
L 495.072386 298.335758 
L 504.44882 298.335758 
L 513.825254 298.335758 
L 523.201688 298.335758 
L 532.578121 298.335758 
L 541.954555 298.335758 
L 551.330989 298.335758 
L 560.707423 298.335758 
L 570.083856 298.335758 
L 579.46029 298.335758 
L 588.836724 298.335758 
L 598.213158 298.335758 
L 607.589592 298.335758 
L 616.966025 298.335758 
L 626.342459 298.335758 
" clip-path="url(#p6e577be985)" style="fill: none; stroke-dasharray: 5.55,2.4; stroke-dashoffset: 0; stroke: #808080; stroke-width: 1.5"/>
   </g>
   <g id="line2d_17">
    <path d="M 54.38 298.162824 
L 63.756434 297.226479 
L 73.132868 298.563574 
L 82.509301 298.696528 
L 91.885735 298.457256 
L 101.262169 299.443702 
L 110.638603 298.076913 
L 120.015036 297.71542 
L 129.39147 298.774932 
L 138.767904 298.679679 
L 148.144338 298.375571 
L 157.520771 298.707037 
L 166.897205 298.46037 
L 176.273639 297.621113 
L 185.650073 298.104994 
L 195.026506 299.06436 
L 204.40294 299.393323 
L 213.779374 298.406655 
L 223.155808 298.76787 
L 232.532241 299.011367 
L 241.908675 298.588041 
L 251.285109 298.446747 
L 260.661543 298.233054 
L 270.037976 298.594825 
L 279.41441 298.007572 
L 288.790844 297.370831 
L 298.167278 297.712751 
L 307.543711 298.20425 
L 316.920145 298.505077 
L 326.296579 299.057353 
L 335.673013 298.125512 
L 345.049446 298.157986 
L 354.42588 299.083377 
L 363.802314 299.391266 
L 373.178748 298.607948 
L 382.555181 299.195089 
L 391.931615 299.150104 
L 401.308049 298.716435 
L 410.684483 299.053072 
L 420.060916 298.235 
L 429.43735 298.570803 
L 438.813784 298.57097 
L 448.190218 299.27416 
L 457.566651 298.510248 
L 466.943085 298.61045 
L 476.319519 299.52661 
L 485.695953 298.534548 
L 495.072386 298.813077 
L 504.44882 298.830704 
L 513.825254 298.708872 
L 523.201688 298.708928 
L 532.578121 298.371901 
L 541.954555 298.216539 
L 551.330989 298.361225 
L 560.707423 298.830482 
L 570.083856 298.196354 
L 579.46029 298.719826 
L 588.836724 297.973486 
L 598.213158 298.329363 
L 607.589592 298.797841 
L 616.966025 298.276537 
L 626.342459 298.756248 
" clip-path="url(#p6e577be985)" style="fill: none; stroke: #808080; stroke-width: 1.5; stroke-linecap: square"/>
   </g>
   <g id="line2d_18">
    <path d="M 54.38 305.582966 
L 63.756434 295.541291 
L 73.132868 295.305967 
L 82.509301 299.659063 
L 91.885735 307.505423 
L 101.262169 302.564741 
L 110.638603 302.930961 
L 120.015036 297.154024 
L 129.39147 308.334894 
L 138.767904 295.905731 
L 148.144338 300.101574 
L 157.520771 307.863858 
L 166.897205 301.595533 
L 176.273639 299.418958 
L 185.650073 256.40124 
L 195.026506 221.445298 
L 204.40294 166.325657 
L 213.779374 136.731834 
L 223.155808 140.013796 
L 232.532241 159.270344 
L 241.908675 179.322166 
L 251.285109 172.797109 
L 260.661543 172.690291 
L 270.037976 177.395093 
L 279.41441 179.906638 
L 288.790844 178.079711 
L 298.167278 171.070996 
L 307.543711 155.116206 
L 316.920145 140.851997 
L 326.296579 143.901527 
L 335.673013 150.497592 
L 345.049446 158.893504 
L 354.42588 161.738183 
L 363.802314 171.963802 
L 373.178748 176.608049 
L 382.555181 184.018794 
L 391.931615 190.046957 
L 401.308049 188.715589 
L 410.684483 192.151691 
L 420.060916 193.853671 
L 429.43735 204.456964 
L 438.813784 208.792934 
L 448.190218 203.715684 
L 457.566651 206.2572 
L 466.943085 211.635388 
L 476.319519 214.684251 
L 485.695953 221.652819 
L 495.072386 219.858144 
L 504.44882 221.018802 
L 513.825254 225.750685 
L 523.201688 230.285166 
L 532.578121 237.586813 
L 541.954555 235.290963 
L 551.330989 233.147695 
L 560.707423 231.092006 
L 570.083856 232.514512 
L 579.46029 242.575816 
L 588.836724 234.381975 
L 598.213158 234.64399 
L 607.589592 236.779306 
L 616.966025 233.289211 
L 626.342459 238.980293 
" clip-path="url(#p6e577be985)" style="fill: none; stroke: #000000; stroke-width: 2; stroke-linecap: square"/>
   </g>
   <g id="patch_3">
    <path d="M 54.38 384.28 
L 54.38 29.76 
" style="fill: none; stroke: #000000; stroke-width: 0.8; stroke-linejoin: miter; stroke-linecap: square"/>
   </g>
   <g id="patch_4">
    <path d="M 54.38 384.28 
L 626.342459 384.28 
" style="fill: none; stroke: #000000; stroke-width: 0.8; stroke-linejoin: miter; stroke-linecap: square"/>
   </g>
   <g id="text_18">
    <text style="fill: #808080; font: 14px 'Arial', sans-serif; text-anchor: start" x="523.389216" y="312.761337" transform="rotate(-0 523.389216 312.761337)">Shuffle</text>
   </g>
   <g id="text_19">
    <text style="fill: #ffffff; font: 16px 'Arial', sans-serif; text-anchor: start" x="197.370615" y="48.3029" transform="rotate(-0 197.370615 48.3029)">Stim</text>
   </g>
   <g id="text_20">
    <text style="font: 18px 'Arial', sans-serif; text-anchor: middle" x="340.36123" y="23.76" transform="rotate(-0 340.36123 23.76)">Decode load, 1vs2</text>
   </g>
   <g id="legend_1">
    <g id="PathCollection_2">
     <g>
      <use xlink:href="#m6a92c6086b" x="562.698865" y="369.30625" style="stroke: #000000"/>
     </g>
    </g>
    <g id="text_21">
     <text style="font: 11px 'Arial', sans-serif; text-anchor: start" x="582.498865" y="372.19375" transform="rotate(-0 582.498865 372.19375)">p &lt; .05</text>
    </g>
   </g>
  </g>
 </g>
 <defs>
  <clipPath id="p6e577be985">
   <rect x="54.38" y="29.76" width="571.962459" height="354.52"/>
  </clipPath>
 </defs>
</svg>
