<?xml version="1.0" encoding="utf-8" standalone="no"?>
<!DOCTYPE svg PUBLIC "-//W3C//DTD SVG 1.1//EN"
  "http://www.w3.org/Graphics/SVG/1.1/DTD/svg11.dtd">
<svg xmlns:xlink="http://www.w3.org/1999/xlink" width="1008pt" height="576pt" viewBox="0 0 1008 576" xmlns="http://www.w3.org/2000/svg" version="1.1">
 <metadata>
  <rdf:RDF xmlns:dc="http://purl.org/dc/elements/1.1/" xmlns:cc="http://creativecommons.org/ns#" xmlns:rdf="http://www.w3.org/1999/02/22-rdf-syntax-ns#">
   <cc:Work>
    <dc:type rdf:resource="http://purl.org/dc/dcmitype/StillImage"/>
    <dc:date>2024-01-29T11:43:16.586621</dc:date>
    <dc:format>image/svg+xml</dc:format>
    <dc:creator>
     <cc:Agent>
      <dc:title>Matplotlib v3.7.1, https://matplotlib.org/</dc:title>
     </cc:Agent>
    </dc:creator>
   </cc:Work>
  </rdf:RDF>
 </metadata>
 <defs>
  <style type="text/css">*{stroke-linejoin: round; stroke-linecap: butt}</style>
 </defs>
 <g id="figure_1">
  <g id="patch_1">
   <path d="M 0 576 
L 1008 576 
L 1008 0 
L 0 0 
z
" style="fill: #ffffff"/>
  </g>
  <g id="axes_1">
   <g id="patch_2">
    <path d="M 72.38 522.43 
L 997.2 522.43 
L 997.2 34.18125 
L 72.38 34.18125 
z
" style="fill: #ffffff"/>
   </g>
   <g id="PolyCollection_1">
    <path d="M 226.516667 -113.772917 
L 226.516667 625.997917 
L 380.653333 625.997917 
L 380.653333 -113.772917 
L 380.653333 -113.772917 
L 226.516667 -113.772917 
z
" clip-path="url(#p61222fb240)" style="fill: #808080; fill-opacity: 0.5; stroke: #808080; stroke-opacity: 0.5"/>
   </g>
   <g id="PolyCollection_2">
    <defs>
     <path id="m5882573697" d="M 72.38 -292.69717 
L 72.38 -320.590408 
L 87.17712 -348.375476 
L 101.97424 -340.422592 
L 116.77136 -322.007224 
L 131.56848 -345.105783 
L 146.3656 -318.674367 
L 161.16272 -337.436612 
L 175.95984 -334.705573 
L 190.75696 -331.072742 
L 205.55408 -317.132639 
L 220.3512 -329.407546 
L 235.14832 -331.799157 
L 249.94544 -331.659168 
L 264.74256 -318.56303 
L 279.53968 -329.83544 
L 294.3368 -339.707254 
L 309.13392 -326.827231 
L 323.93104 -327.067982 
L 338.72816 -296.956535 
L 353.52528 -274.653197 
L 368.3224 -266.429548 
L 383.11952 -261.709701 
L 397.91664 -265.155178 
L 412.71376 -232.74386 
L 427.51088 -213.798593 
L 442.308 -212.457297 
L 457.10512 -220.65992 
L 471.90224 -225.576665 
L 486.69936 -232.869055 
L 501.49648 -247.616441 
L 516.2936 -224.716652 
L 531.09072 -222.34824 
L 545.88784 -218.439643 
L 560.68496 -220.157887 
L 575.48208 -224.252612 
L 590.2792 -214.982723 
L 605.07632 -212.173772 
L 619.87344 -200.310698 
L 634.67056 -234.955546 
L 649.46768 -232.340521 
L 664.2648 -226.812589 
L 679.06192 -236.391033 
L 693.85904 -247.485033 
L 708.65616 -227.33124 
L 723.45328 -238.448189 
L 738.2504 -254.495712 
L 753.04752 -272.791599 
L 767.84464 -276.562407 
L 782.64176 -263.077859 
L 797.43888 -270.061573 
L 812.236 -267.002392 
L 827.03312 -275.675593 
L 841.83024 -251.353758 
L 856.62736 -251.883661 
L 871.42448 -255.946938 
L 886.2216 -260.385846 
L 901.01872 -260.304998 
L 915.81584 -261.601608 
L 930.61296 -268.185838 
L 945.41008 -263.488885 
L 960.2072 -247.247963 
L 975.00432 -272.815471 
L 975.00432 -234.962843 
L 975.00432 -234.962843 
L 960.2072 -209.782209 
L 945.41008 -223.441018 
L 930.61296 -222.882068 
L 915.81584 -215.50262 
L 901.01872 -217.316566 
L 886.2216 -225.570362 
L 871.42448 -217.150705 
L 856.62736 -218.276119 
L 841.83024 -216.433908 
L 827.03312 -236.228203 
L 812.236 -232.358613 
L 797.43888 -237.3464 
L 782.64176 -225.459632 
L 767.84464 -238.679225 
L 753.04752 -242.020282 
L 738.2504 -224.854157 
L 723.45328 -203.127769 
L 708.65616 -193.509752 
L 693.85904 -205.932871 
L 679.06192 -194.954756 
L 664.2648 -187.198047 
L 649.46768 -194.41314 
L 634.67056 -199.713111 
L 619.87344 -166.155743 
L 605.07632 -180.881532 
L 590.2792 -177.400125 
L 575.48208 -179.503045 
L 560.68496 -169.572792 
L 545.88784 -178.0979 
L 531.09072 -185.192844 
L 516.2936 -183.228331 
L 501.49648 -205.692275 
L 486.69936 -192.585086 
L 471.90224 -185.026341 
L 457.10512 -178.051659 
L 442.308 -165.981812 
L 427.51088 -169.707893 
L 412.71376 -185.139204 
L 397.91664 -220.876151 
L 383.11952 -217.829135 
L 368.3224 -220.53929 
L 353.52528 -232.280043 
L 338.72816 -264.218017 
L 323.93104 -299.775869 
L 309.13392 -304.424957 
L 294.3368 -319.591479 
L 279.53968 -298.802712 
L 264.74256 -290.660118 
L 249.94544 -315.062375 
L 235.14832 -312.286262 
L 220.3512 -300.353433 
L 205.55408 -289.470686 
L 190.75696 -313.476013 
L 175.95984 -314.659129 
L 161.16272 -317.385752 
L 146.3656 -297.377234 
L 131.56848 -325.262209 
L 116.77136 -294.826043 
L 101.97424 -313.586824 
L 87.17712 -323.169579 
L 72.38 -292.69717 
z
" style="stroke: #87ceeb; stroke-opacity: 0.3"/>
    </defs>
    <g clip-path="url(#p61222fb240)">
     <use xlink:href="#m5882573697" x="0" y="576" style="fill: #87ceeb; fill-opacity: 0.3; stroke: #87ceeb; stroke-opacity: 0.3"/>
    </g>
   </g>
   <g id="PolyCollection_3">
    <defs>
     <path id="meb10bc518c" d="M 72.38 -312.275263 
L 72.38 -339.936715 
L 87.17712 -315.914427 
L 101.97424 -326.349635 
L 116.77136 -342.06954 
L 131.56848 -316.343836 
L 146.3656 -332.289975 
L 161.16272 -320.712507 
L 175.95984 -325.609651 
L 190.75696 -326.401032 
L 205.55408 -348.010801 
L 220.3512 -333.045761 
L 235.14832 -328.94676 
L 249.94544 -324.09969 
L 264.74256 -355.17551 
L 279.53968 -343.463351 
L 294.3368 -316.490627 
L 309.13392 -333.686294 
L 323.93104 -337.957649 
L 338.72816 -377.17284 
L 353.52528 -406.315011 
L 368.3224 -415.638805 
L 383.11952 -421.796341 
L 397.91664 -424.198515 
L 412.71376 -459.231723 
L 427.51088 -475.828935 
L 442.308 -475.24965 
L 457.10512 -459.904996 
L 471.90224 -449.600847 
L 486.69936 -445.455777 
L 501.49648 -431.839807 
L 516.2936 -454.55879 
L 531.09072 -452.730388 
L 545.88784 -458.77648 
L 560.68496 -467.098831 
L 575.48208 -454.037025 
L 590.2792 -458.757001 
L 605.07632 -455.091097 
L 619.87344 -468.308213 
L 634.67056 -433.701088 
L 649.46768 -437.276073 
L 664.2648 -449.340188 
L 679.06192 -444.13274 
L 693.85904 -428.654572 
L 708.65616 -443.266946 
L 723.45328 -430.66066 
L 738.2504 -409.422692 
L 753.04752 -392.356496 
L 767.84464 -397.711469 
L 782.64176 -413.530508 
L 797.43888 -398.848369 
L 812.236 -404.437212 
L 827.03312 -396.424386 
L 841.83024 -419.120403 
L 856.62736 -417.687862 
L 871.42448 -420.778513 
L 886.2216 -412.031386 
L 901.01872 -418.659972 
L 915.81584 -415.990382 
L 930.61296 -415.982333 
L 945.41008 -407.977498 
L 960.2072 -419.311274 
L 975.00432 -398.636452 
L 975.00432 -360.830516 
L 975.00432 -360.830516 
L 960.2072 -381.927059 
L 945.41008 -369.427894 
L 930.61296 -372.149506 
L 915.81584 -370.450497 
L 901.01872 -375.371557 
L 886.2216 -375.306851 
L 871.42448 -381.022945 
L 856.62736 -383.3473 
L 841.83024 -383.206452 
L 827.03312 -356.61385 
L 812.236 -370.097594 
L 797.43888 -365.44653 
L 782.64176 -373.879353 
L 767.84464 -358.690776 
L 753.04752 -361.619088 
L 738.2504 -379.829861 
L 723.45328 -396.48374 
L 708.65616 -409.308019 
L 693.85904 -387.890215 
L 679.06192 -400.136588 
L 664.2648 -409.319931 
L 649.46768 -399.320038 
L 634.67056 -396.85395 
L 619.87344 -433.825399 
L 605.07632 -424.164549 
L 590.2792 -417.803142 
L 575.48208 -407.005123 
L 560.68496 -414.964042 
L 545.88784 -418.188325 
L 531.09072 -416.273609 
L 516.2936 -414.285099 
L 501.49648 -391.418108 
L 486.69936 -409.689137 
L 471.90224 -410.379652 
L 457.10512 -420.300321 
L 442.308 -428.115827 
L 427.51088 -430.510964 
L 412.71376 -411.360619 
L 397.91664 -378.700261 
L 383.11952 -378.266129 
L 368.3224 -370.08746 
L 353.52528 -362.333496 
L 338.72816 -344.227495 
L 323.93104 -311.491916 
L 309.13392 -310.900704 
L 294.3368 -295.360448 
L 279.53968 -314.011945 
L 264.74256 -328.049219 
L 249.94544 -307.399328 
L 235.14832 -311.357406 
L 220.3512 -305.777689 
L 205.55408 -318.977168 
L 190.75696 -306.635935 
L 175.95984 -304.904854 
L 161.16272 -298.768059 
L 146.3656 -311.198889 
L 131.56848 -295.376067 
L 116.77136 -315.341694 
L 101.97424 -300.729939 
L 87.17712 -290.487336 
L 72.38 -312.275263 
z
" style="stroke: #800080; stroke-opacity: 0.3"/>
    </defs>
    <g clip-path="url(#p61222fb240)">
     <use xlink:href="#meb10bc518c" x="0" y="576" style="fill: #800080; fill-opacity: 0.3; stroke: #800080; stroke-opacity: 0.3"/>
    </g>
   </g>
   <g id="matplotlib.axis_1">
    <g id="xtick_1">
     <g id="line2d_1">
      <defs>
       <path id="m62a8c09628" d="M 0 0 
L 0 3.5 
" style="stroke: #000000; stroke-width: 0.8"/>
      </defs>
      <g>
       <use xlink:href="#m62a8c09628" x="103.207333" y="522.43" style="stroke: #000000; stroke-width: 0.8"/>
      </g>
     </g>
     <g id="text_1">
      <text style="font: 14px 'Arial', sans-serif; text-anchor: middle" x="103.207333" y="539.450938" transform="rotate(-0 103.207333 539.450938)">−200</text>
     </g>
    </g>
    <g id="xtick_2">
     <g id="line2d_2">
      <g>
       <use xlink:href="#m62a8c09628" x="226.516667" y="522.43" style="stroke: #000000; stroke-width: 0.8"/>
      </g>
     </g>
     <g id="text_2">
      <text style="font: 14px 'Arial', sans-serif; text-anchor: middle" x="226.516667" y="539.450938" transform="rotate(-0 226.516667 539.450938)">0</text>
     </g>
    </g>
    <g id="xtick_3">
     <g id="line2d_3">
      <g>
       <use xlink:href="#m62a8c09628" x="349.826" y="522.43" style="stroke: #000000; stroke-width: 0.8"/>
      </g>
     </g>
     <g id="text_3">
      <text style="font: 14px 'Arial', sans-serif; text-anchor: middle" x="349.826" y="539.450938" transform="rotate(-0 349.826 539.450938)">200</text>
     </g>
    </g>
    <g id="xtick_4">
     <g id="line2d_4">
      <g>
       <use xlink:href="#m62a8c09628" x="473.135333" y="522.43" style="stroke: #000000; stroke-width: 0.8"/>
      </g>
     </g>
     <g id="text_4">
      <text style="font: 14px 'Arial', sans-serif; text-anchor: middle" x="473.135333" y="539.450938" transform="rotate(-0 473.135333 539.450938)">400</text>
     </g>
    </g>
    <g id="xtick_5">
     <g id="line2d_5">
      <g>
       <use xlink:href="#m62a8c09628" x="596.444667" y="522.43" style="stroke: #000000; stroke-width: 0.8"/>
      </g>
     </g>
     <g id="text_5">
      <text style="font: 14px 'Arial', sans-serif; text-anchor: middle" x="596.444667" y="539.450938" transform="rotate(-0 596.444667 539.450938)">600</text>
     </g>
    </g>
    <g id="xtick_6">
     <g id="line2d_6">
      <g>
       <use xlink:href="#m62a8c09628" x="719.754" y="522.43" style="stroke: #000000; stroke-width: 0.8"/>
      </g>
     </g>
     <g id="text_6">
      <text style="font: 14px 'Arial', sans-serif; text-anchor: middle" x="719.754" y="539.450938" transform="rotate(-0 719.754 539.450938)">800</text>
     </g>
    </g>
    <g id="xtick_7">
     <g id="line2d_7">
      <g>
       <use xlink:href="#m62a8c09628" x="843.063333" y="522.43" style="stroke: #000000; stroke-width: 0.8"/>
      </g>
     </g>
     <g id="text_7">
      <text style="font: 14px 'Arial', sans-serif; text-anchor: middle" x="843.063333" y="539.450938" transform="rotate(-0 843.063333 539.450938)">1000</text>
     </g>
    </g>
    <g id="xtick_8">
     <g id="line2d_8">
      <g>
       <use xlink:href="#m62a8c09628" x="966.372667" y="522.43" style="stroke: #000000; stroke-width: 0.8"/>
      </g>
     </g>
     <g id="text_8">
      <text style="font: 14px 'Arial', sans-serif; text-anchor: middle" x="966.372667" y="539.450938" transform="rotate(-0 966.372667 539.450938)">1200</text>
     </g>
    </g>
    <g id="text_9">
     <text style="font: 20px 'Arial', sans-serif; text-anchor: middle" x="534.79" y="560.792812" transform="rotate(-0 534.79 560.792812)">Time from stimulus onset (ms)</text>
    </g>
   </g>
   <g id="matplotlib.axis_2">
    <g id="ytick_1">
     <g id="line2d_9">
      <defs>
       <path id="m614ff95fce" d="M 0 0 
L -3.5 0 
" style="stroke: #000000; stroke-width: 0.8"/>
      </defs>
      <g>
       <use xlink:href="#m614ff95fce" x="72.38" y="478.04375" style="stroke: #000000; stroke-width: 0.8"/>
      </g>
     </g>
    </g>
    <g id="ytick_2">
     <g id="line2d_10">
      <g>
       <use xlink:href="#m614ff95fce" x="72.38" y="404.066667" style="stroke: #000000; stroke-width: 0.8"/>
      </g>
     </g>
    </g>
    <g id="ytick_3">
     <g id="line2d_11">
      <g>
       <use xlink:href="#m614ff95fce" x="72.38" y="330.089583" style="stroke: #000000; stroke-width: 0.8"/>
      </g>
     </g>
    </g>
    <g id="ytick_4">
     <g id="line2d_12">
      <g>
       <use xlink:href="#m614ff95fce" x="72.38" y="256.1125" style="stroke: #000000; stroke-width: 0.8"/>
      </g>
     </g>
    </g>
    <g id="ytick_5">
     <g id="line2d_13">
      <g>
       <use xlink:href="#m614ff95fce" x="72.38" y="182.135417" style="stroke: #000000; stroke-width: 0.8"/>
      </g>
     </g>
    </g>
    <g id="ytick_6">
     <g id="line2d_14">
      <g>
       <use xlink:href="#m614ff95fce" x="72.38" y="108.158333" style="stroke: #000000; stroke-width: 0.8"/>
      </g>
     </g>
    </g>
    <g id="ytick_7">
     <g id="line2d_15">
      <g>
       <use xlink:href="#m614ff95fce" x="72.38" y="34.18125" style="stroke: #000000; stroke-width: 0.8"/>
      </g>
     </g>
    </g>
    <g id="text_10">
     <text style="font: 24px 'Arial', sans-serif; text-anchor: middle" x="56.32875" y="278.305625" transform="rotate(-90 56.32875 278.305625)">Distance from Hyperplane (a.u.)</text>
    </g>
   </g>
   <g id="line2d_16">
    <path d="M 72.38 256.1125 
L 87.17712 256.1125 
L 101.97424 256.1125 
L 116.77136 256.1125 
L 131.56848 256.1125 
L 146.3656 256.1125 
L 161.16272 256.1125 
L 175.95984 256.1125 
L 190.75696 256.1125 
L 205.55408 256.1125 
L 220.3512 256.1125 
L 235.14832 256.1125 
L 249.94544 256.1125 
L 264.74256 256.1125 
L 279.53968 256.1125 
L 294.3368 256.1125 
L 309.13392 256.1125 
L 323.93104 256.1125 
L 338.72816 256.1125 
L 353.52528 256.1125 
L 368.3224 256.1125 
L 383.11952 256.1125 
L 397.91664 256.1125 
L 412.71376 256.1125 
L 427.51088 256.1125 
L 442.308 256.1125 
L 457.10512 256.1125 
L 471.90224 256.1125 
L 486.69936 256.1125 
L 501.49648 256.1125 
L 516.2936 256.1125 
L 531.09072 256.1125 
L 545.88784 256.1125 
L 560.68496 256.1125 
L 575.48208 256.1125 
L 590.2792 256.1125 
L 605.07632 256.1125 
L 619.87344 256.1125 
L 634.67056 256.1125 
L 649.46768 256.1125 
L 664.2648 256.1125 
L 679.06192 256.1125 
L 693.85904 256.1125 
L 708.65616 256.1125 
L 723.45328 256.1125 
L 738.2504 256.1125 
L 753.04752 256.1125 
L 767.84464 256.1125 
L 782.64176 256.1125 
L 797.43888 256.1125 
L 812.236 256.1125 
L 827.03312 256.1125 
L 841.83024 256.1125 
L 856.62736 256.1125 
L 871.42448 256.1125 
L 886.2216 256.1125 
L 901.01872 256.1125 
L 915.81584 256.1125 
L 930.61296 256.1125 
L 945.41008 256.1125 
L 960.2072 256.1125 
L 975.00432 256.1125 
" clip-path="url(#p61222fb240)" style="fill: none; stroke-dasharray: 5.55,2.4; stroke-dashoffset: 0; stroke: #808080; stroke-width: 1.5"/>
   </g>
   <g id="line2d_17">
    <path d="M 72.38 254.521796 
L 87.17712 269.788853 
L 101.97424 247.184672 
L 116.77136 274.490854 
L 131.56848 256.799597 
L 146.3656 271.420199 
L 161.16272 248.863392 
L 175.95984 252.07724 
L 190.75696 242.752765 
L 205.55408 281.719395 
L 220.3512 257.816154 
L 235.14832 255.315512 
L 249.94544 254.75044 
L 264.74256 263.6287 
L 279.53968 242.523148 
L 294.3368 229.209908 
L 309.13392 230.410175 
L 323.93104 184.896865 
L 338.72816 283.808299 
L 353.52528 320.541965 
L 368.3224 296.623582 
L 383.11952 330.31921 
L 397.91664 341.135293 
L 412.71376 358.86195 
L 427.51088 351.309678 
L 442.308 330.711249 
L 457.10512 316.593817 
L 471.90224 295.488941 
L 486.69936 337.57378 
L 501.49648 375.223857 
L 516.2936 420.952832 
L 531.09072 396.980708 
L 545.88784 388.114268 
L 560.68496 370.705297 
L 575.48208 402.786904 
L 590.2792 367.756077 
L 605.07632 363.883063 
L 619.87344 378.995007 
L 634.67056 347.546373 
L 649.46768 355.059671 
L 664.2648 362.128345 
L 679.06192 338.284706 
L 693.85904 338.126246 
L 708.65616 347.499859 
L 723.45328 354.367668 
L 738.2504 342.619622 
L 753.04752 322.286955 
L 767.84464 336.952231 
L 782.64176 334.602479 
L 797.43888 326.234279 
L 812.236 327.339326 
L 827.03312 321.238375 
L 841.83024 304.175769 
L 856.62736 319.057788 
L 871.42448 325.272748 
L 886.2216 342.470843 
L 901.01872 325.877576 
L 915.81584 343.793523 
L 930.61296 315.833249 
L 945.41008 310.549842 
L 960.2072 334.034239 
L 975.00432 304.580842 
" clip-path="url(#p61222fb240)" style="fill: none; stroke: #ffa07a; stroke-opacity: 0.75; stroke-width: 2; stroke-linecap: square"/>
   </g>
   <g id="line2d_18">
    <path d="M 72.38 269.356211 
L 87.17712 240.227472 
L 101.97424 248.995292 
L 116.77136 267.583366 
L 131.56848 240.816004 
L 146.3656 267.9742 
L 161.16272 248.588818 
L 175.95984 251.317649 
L 190.75696 253.725623 
L 205.55408 272.698338 
L 220.3512 261.11951 
L 235.14832 253.95729 
L 249.94544 252.639228 
L 264.74256 271.388426 
L 279.53968 261.680924 
L 294.3368 246.350634 
L 309.13392 260.373906 
L 323.93104 262.578074 
L 338.72816 295.412724 
L 353.52528 322.53338 
L 368.3224 332.515581 
L 383.11952 336.230582 
L 397.91664 332.984336 
L 412.71376 367.058468 
L 427.51088 384.246757 
L 442.308 386.780445 
L 457.10512 376.644211 
L 471.90224 370.698497 
L 486.69936 363.27293 
L 501.49648 349.345642 
L 516.2936 372.027508 
L 531.09072 372.229458 
L 545.88784 377.731229 
L 560.68496 381.134661 
L 575.48208 374.122171 
L 590.2792 379.808576 
L 605.07632 379.472348 
L 619.87344 392.76678 
L 634.67056 358.665671 
L 649.46768 362.62317 
L 664.2648 368.994682 
L 679.06192 360.327106 
L 693.85904 349.291048 
L 708.65616 365.579504 
L 723.45328 355.212021 
L 738.2504 336.325066 
L 753.04752 318.594059 
L 767.84464 318.379184 
L 782.64176 331.731255 
L 797.43888 322.296014 
L 812.236 326.319497 
L 827.03312 320.048102 
L 841.83024 342.106167 
L 856.62736 340.92011 
L 871.42448 339.451179 
L 886.2216 333.021896 
L 901.01872 337.189218 
L 915.81584 337.447886 
L 930.61296 330.466047 
L 945.41008 332.535048 
L 960.2072 347.484914 
L 975.00432 322.110843 
" clip-path="url(#p61222fb240)" style="fill: none; stroke: #87ceeb; stroke-opacity: 0.75; stroke-width: 2; stroke-linecap: square"/>
   </g>
   <g id="line2d_19">
    <path d="M 72.38 290.605491 
L 87.17712 280.731013 
L 101.97424 236.47945 
L 116.77136 233.531109 
L 131.56848 220.468561 
L 146.3656 258.452749 
L 161.16272 210.575973 
L 175.95984 278.236718 
L 190.75696 249.930357 
L 205.55408 267.3139 
L 220.3512 271.927087 
L 235.14832 306.371204 
L 249.94544 309.206916 
L 264.74256 239.093899 
L 279.53968 205.448165 
L 294.3368 229.233247 
L 309.13392 219.381906 
L 323.93104 148.214458 
L 338.72816 226.724609 
L 353.52528 163.243388 
L 368.3224 148.416747 
L 383.11952 201.563165 
L 397.91664 226.47577 
L 412.71376 115.104148 
L 427.51088 61.285377 
L 442.308 69.696617 
L 457.10512 93.627864 
L 471.90224 178.425766 
L 486.69936 228.685666 
L 501.49648 236.115399 
L 516.2936 242.525611 
L 531.09072 204.867656 
L 545.88784 206.792822 
L 560.68496 195.228488 
L 575.48208 168.049806 
L 590.2792 176.151094 
L 605.07632 92.243483 
L 619.87344 76.719891 
L 634.67056 117.973648 
L 649.46768 133.569193 
L 664.2648 152.168143 
L 679.06192 113.84669 
L 693.85904 120.365528 
L 708.65616 97.937627 
L 723.45328 100.402023 
L 738.2504 96.52601 
L 753.04752 149.167453 
L 767.84464 160.656577 
L 782.64176 173.777453 
L 797.43888 191.307172 
L 812.236 196.305901 
L 827.03312 177.768405 
L 841.83024 164.363138 
L 856.62736 141.681221 
L 871.42448 147.020212 
L 886.2216 199.416326 
L 901.01872 169.791522 
L 915.81584 201.384124 
L 930.61296 205.477821 
L 945.41008 192.844469 
L 960.2072 194.697154 
L 975.00432 212.162331 
" clip-path="url(#p61222fb240)" style="fill: none; stroke: #ff0000; stroke-opacity: 0.75; stroke-width: 2; stroke-linecap: square"/>
   </g>
   <g id="line2d_20">
    <path d="M 72.38 396.700379 
L 87.17712 206.574089 
L 101.97424 228.563741 
L 116.77136 271.892063 
L 131.56848 252.331303 
L 146.3656 264.189612 
L 161.16272 228.266364 
L 175.95984 234.577821 
L 190.75696 220.067044 
L 205.55408 224.04549 
L 220.3512 239.09266 
L 235.14832 247.294446 
L 249.94544 235.243793 
L 264.74256 282.120664 
L 279.53968 264.593779 
L 294.3368 212.466993 
L 309.13392 271.580117 
L 323.93104 252.128868 
L 338.72816 144.306322 
L 353.52528 76.814101 
L 368.3224 115.247826 
L 383.11952 115.149108 
L 397.91664 157.678952 
L 412.71376 95.884185 
L 427.51088 49.306678 
L 442.308 101.218517 
L 457.10512 117.46885 
L 471.90224 156.080613 
L 486.69936 164.98331 
L 501.49648 163.294664 
L 516.2936 199.681199 
L 531.09072 195.221161 
L 545.88784 157.185128 
L 560.68496 128.527026 
L 575.48208 161.115372 
L 590.2792 217.863909 
L 605.07632 224.127277 
L 619.87344 207.700688 
L 634.67056 194.176744 
L 649.46768 201.814485 
L 664.2648 233.436836 
L 679.06192 232.003486 
L 693.85904 197.413047 
L 708.65616 188.510663 
L 723.45328 217.51293 
L 738.2504 184.687095 
L 753.04752 161.240214 
L 767.84464 132.8889 
L 782.64176 138.766876 
L 797.43888 176.208134 
L 812.236 206.579505 
L 827.03312 126.1343 
L 841.83024 144.54732 
L 856.62736 177.405713 
L 871.42448 155.197789 
L 886.2216 132.548099 
L 901.01872 172.922474 
L 915.81584 178.917561 
L 930.61296 152.678335 
L 945.41008 120.977271 
L 960.2072 152.358652 
L 975.00432 172.922088 
" clip-path="url(#p61222fb240)" style="fill: none; stroke: #0000ff; stroke-opacity: 0.75; stroke-width: 2; stroke-linecap: square"/>
   </g>
   <g id="line2d_21">
    <path d="M 72.38 249.894011 
L 87.17712 272.799119 
L 101.97424 262.460213 
L 116.77136 247.294383 
L 131.56848 270.140048 
L 146.3656 254.255568 
L 161.16272 266.259717 
L 175.95984 260.742748 
L 190.75696 259.481517 
L 205.55408 242.506016 
L 220.3512 256.588275 
L 235.14832 255.847917 
L 249.94544 260.250491 
L 264.74256 234.387635 
L 279.53968 247.262352 
L 294.3368 270.074462 
L 309.13392 253.706501 
L 323.93104 251.275218 
L 338.72816 215.299833 
L 353.52528 191.675747 
L 368.3224 183.136868 
L 383.11952 175.968765 
L 397.91664 174.550612 
L 412.71376 140.703829 
L 427.51088 122.83005 
L 442.308 124.317261 
L 457.10512 135.897342 
L 471.90224 146.00975 
L 486.69936 148.427543 
L 501.49648 164.371042 
L 516.2936 141.578056 
L 531.09072 141.498001 
L 545.88784 137.517598 
L 560.68496 134.968563 
L 575.48208 145.478926 
L 590.2792 137.719929 
L 605.07632 136.372177 
L 619.87344 124.933194 
L 634.67056 160.722481 
L 649.46768 157.701944 
L 664.2648 146.66994 
L 679.06192 153.865336 
L 693.85904 167.727606 
L 708.65616 149.712517 
L 723.45328 162.4278 
L 738.2504 181.373723 
L 753.04752 199.012208 
L 767.84464 197.798877 
L 782.64176 182.29507 
L 797.43888 193.85255 
L 812.236 188.732597 
L 827.03312 199.480882 
L 841.83024 174.836572 
L 856.62736 175.482419 
L 871.42448 175.099271 
L 886.2216 182.330882 
L 901.01872 178.984236 
L 915.81584 182.77956 
L 930.61296 181.934081 
L 945.41008 187.297304 
L 960.2072 175.380833 
L 975.00432 196.266516 
" clip-path="url(#p61222fb240)" style="fill: none; stroke: #800080; stroke-opacity: 0.75; stroke-width: 2; stroke-linecap: square"/>
   </g>
   <g id="line2d_22">
    <path d="M 72.38 258.331363 
L 87.17712 262.669888 
L 101.97424 238.873466 
L 116.77136 272.559291 
L 131.56848 218.87447 
L 146.3656 280.429036 
L 161.16272 240.736553 
L 175.95984 284.460197 
L 190.75696 265.2865 
L 205.55408 267.591937 
L 220.3512 248.10579 
L 235.14832 270.669853 
L 249.94544 281.384191 
L 264.74256 245.260328 
L 279.53968 265.268741 
L 294.3368 265.223451 
L 309.13392 257.440556 
L 323.93104 292.103957 
L 338.72816 249.712762 
L 353.52528 199.911521 
L 368.3224 220.864559 
L 383.11952 189.910851 
L 397.91664 197.375879 
L 412.71376 178.991856 
L 427.51088 158.120795 
L 442.308 193.132804 
L 457.10512 200.821812 
L 471.90224 191.838633 
L 486.69936 180.052224 
L 501.49648 167.699691 
L 516.2936 167.763922 
L 531.09072 177.864322 
L 545.88784 182.464801 
L 560.68496 193.19956 
L 575.48208 191.159498 
L 590.2792 199.96422 
L 605.07632 195.293467 
L 619.87344 197.131254 
L 634.67056 167.664143 
L 649.46768 162.346678 
L 664.2648 187.925346 
L 679.06192 168.937993 
L 693.85904 163.009143 
L 708.65616 182.722922 
L 723.45328 190.305465 
L 738.2504 191.182086 
L 753.04752 185.969375 
L 767.84464 184.774752 
L 782.64176 196.265215 
L 797.43888 222.094068 
L 812.236 226.398989 
L 827.03312 217.057991 
L 841.83024 206.099446 
L 856.62736 194.220872 
L 871.42448 201.144788 
L 886.2216 208.411864 
L 901.01872 186.284475 
L 915.81584 201.508352 
L 930.61296 173.844639 
L 945.41008 183.568643 
L 960.2072 186.91549 
L 975.00432 193.249169 
" clip-path="url(#p61222fb240)" style="fill: none; stroke: #008000; stroke-opacity: 0.75; stroke-width: 2; stroke-linecap: square"/>
   </g>
   <g id="line2d_23">
    <path d="M 72.38 261.63903 
L 87.17712 269.873874 
L 101.97424 247.649326 
L 116.77136 274.045253 
L 131.56848 274.366396 
L 146.3656 266.541177 
L 161.16272 278.495914 
L 175.95984 274.067543 
L 190.75696 265.383901 
L 205.55408 257.950993 
L 220.3512 250.451752 
L 235.14832 247.797329 
L 249.94544 255.407981 
L 264.74256 266.917538 
L 279.53968 263.276745 
L 294.3368 248.010637 
L 309.13392 268.983728 
L 323.93104 296.010039 
L 338.72816 245.877837 
L 353.52528 206.47552 
L 368.3224 268.969219 
L 383.11952 267.967306 
L 397.91664 285.844486 
L 412.71376 283.489119 
L 427.51088 264.297843 
L 442.308 261.755843 
L 457.10512 260.137812 
L 471.90224 260.631548 
L 486.69936 228.661927 
L 501.49648 221.083468 
L 516.2936 223.108747 
L 531.09072 238.183224 
L 545.88784 234.677049 
L 560.68496 214.551081 
L 575.48208 219.047549 
L 590.2792 234.411017 
L 605.07632 248.985964 
L 619.87344 249.121489 
L 634.67056 223.209475 
L 649.46768 219.737256 
L 664.2648 244.861534 
L 679.06192 228.494108 
L 693.85904 218.433091 
L 708.65616 230.640421 
L 723.45328 235.033746 
L 738.2504 225.981541 
L 753.04752 245.122624 
L 767.84464 224.7872 
L 782.64176 228.5218 
L 797.43888 233.977826 
L 812.236 261.216686 
L 827.03312 245.409547 
L 841.83024 246.279708 
L 856.62736 247.647177 
L 871.42448 235.331019 
L 886.2216 230.356984 
L 901.01872 259.163214 
L 915.81584 238.611102 
L 930.61296 212.993524 
L 945.41008 217.78235 
L 960.2072 248.713302 
L 975.00432 237.754261 
" clip-path="url(#p61222fb240)" style="fill: none; stroke: #ff00ff; stroke-opacity: 0.75; stroke-width: 2; stroke-linecap: square"/>
   </g>
   <g id="line2d_24">
    <path d="M 72.38 260.14459 
L 87.17712 246.009546 
L 101.97424 238.870137 
L 116.77136 256.625678 
L 131.56848 281.833389 
L 146.3656 264.205301 
L 161.16272 251.185428 
L 175.95984 258.038496 
L 190.75696 245.507348 
L 205.55408 261.837113 
L 220.3512 243.029495 
L 235.14832 265.397341 
L 249.94544 252.632936 
L 264.74256 270.194623 
L 279.53968 257.312481 
L 294.3368 230.415609 
L 309.13392 251.988238 
L 323.93104 254.991321 
L 338.72816 229.598849 
L 353.52528 196.690203 
L 368.3224 244.66466 
L 383.11952 249.945425 
L 397.91664 265.134777 
L 412.71376 271.131685 
L 427.51088 254.452471 
L 442.308 241.973329 
L 457.10512 244.133919 
L 471.90224 226.809934 
L 486.69936 232.475016 
L 501.49648 250.947514 
L 516.2936 240.138242 
L 531.09072 244.182002 
L 545.88784 263.948688 
L 560.68496 265.491373 
L 575.48208 253.388593 
L 590.2792 238.576541 
L 605.07632 264.566963 
L 619.87344 258.409049 
L 634.67056 238.156998 
L 649.46768 219.83724 
L 664.2648 268.087207 
L 679.06192 275.756221 
L 693.85904 249.700591 
L 708.65616 221.053297 
L 723.45328 235.206463 
L 738.2504 259.369715 
L 753.04752 259.00358 
L 767.84464 237.327629 
L 782.64176 224.380738 
L 797.43888 254.092788 
L 812.236 252.507223 
L 827.03312 226.680659 
L 841.83024 236.599722 
L 856.62736 243.070488 
L 871.42448 241.556581 
L 886.2216 242.226429 
L 901.01872 264.600665 
L 915.81584 257.48645 
L 930.61296 227.683939 
L 945.41008 224.435692 
L 960.2072 243.486059 
L 975.00432 235.696584 
" clip-path="url(#p61222fb240)" style="fill: none; stroke: #ffa500; stroke-opacity: 0.75; stroke-width: 2; stroke-linecap: square"/>
   </g>
   <g id="line2d_25">
    <path d="M 72.38 281.092767 
L 87.17712 244.572652 
L 101.97424 254.427084 
L 116.77136 283.859096 
L 131.56848 268.306537 
L 146.3656 247.28462 
L 161.16272 254.484147 
L 175.95984 284.354431 
L 190.75696 255.452733 
L 205.55408 269.103745 
L 220.3512 247.688977 
L 235.14832 276.53537 
L 249.94544 246.51836 
L 264.74256 279.411059 
L 279.53968 283.116515 
L 294.3368 284.787181 
L 309.13392 258.312427 
L 323.93104 311.623852 
L 338.72816 207.909938 
L 353.52528 200.218833 
L 368.3224 277.746496 
L 383.11952 249.029319 
L 397.91664 235.379483 
L 412.71376 233.903472 
L 427.51088 255.972558 
L 442.308 266.830177 
L 457.10512 268.295744 
L 471.90224 263.803255 
L 486.69936 212.238312 
L 501.49648 186.038647 
L 516.2936 153.801835 
L 531.09072 193.649183 
L 545.88784 187.909571 
L 560.68496 152.577798 
L 575.48208 183.489602 
L 590.2792 178.183561 
L 605.07632 189.359714 
L 619.87344 222.551266 
L 634.67056 194.205697 
L 649.46768 204.223429 
L 664.2648 240.349503 
L 679.06192 237.326421 
L 693.85904 192.506279 
L 708.65616 199.749146 
L 723.45328 210.21333 
L 738.2504 237.555207 
L 753.04752 244.864162 
L 767.84464 228.255597 
L 782.64176 222.585492 
L 797.43888 238.859105 
L 812.236 212.568894 
L 827.03312 214.457541 
L 841.83024 249.351135 
L 856.62736 240.950852 
L 871.42448 204.323604 
L 886.2216 217.001902 
L 901.01872 224.248801 
L 915.81584 221.983674 
L 930.61296 208.713905 
L 945.41008 197.331685 
L 960.2072 220.045642 
L 975.00432 207.253006 
" clip-path="url(#p61222fb240)" style="fill: none; stroke: #00ffff; stroke-opacity: 0.75; stroke-width: 2; stroke-linecap: square"/>
   </g>
   <g id="patch_3">
    <path d="M 72.38 522.43 
L 72.38 34.18125 
" style="fill: none; stroke: #000000; stroke-width: 0.8; stroke-linejoin: miter; stroke-linecap: square"/>
   </g>
   <g id="patch_4">
    <path d="M 72.38 522.43 
L 997.2 522.43 
" style="fill: none; stroke: #000000; stroke-width: 0.8; stroke-linejoin: miter; stroke-linecap: square"/>
   </g>
   <g id="text_11">
    <text style="font: 24px 'Arial', sans-serif; text-anchor: middle" x="534.79" y="28.18125" transform="rotate(-0 534.79 28.18125)">By Timepoint</text>
   </g>
   <g id="legend_1">
    <g id="patch_5">
     <path d="M 81.003875 515.072844 
L 504.6695 515.072844 
Q 506.6695 515.072844 506.6695 513.072844 
L 506.6695 456.192687 
Q 506.6695 454.192687 504.6695 454.192687 
L 81.003875 454.192687 
Q 79.003875 454.192687 79.003875 456.192687 
L 79.003875 513.072844 
Q 79.003875 515.072844 81.003875 515.072844 
z
" style="fill: #ffffff; opacity: 0.8; stroke: #cccccc; stroke-linejoin: miter"/>
    </g>
    <g id="text_12">
     <text style="font: 11px 'Arial', sans-serif; text-anchor: start" x="258.807156" y="466.066281" transform="rotate(-0 258.807156 466.066281)">Trial condition</text>
    </g>
    <g id="line2d_26">
     <path d="M 83.003875 477.038469 
L 93.003875 477.038469 
L 103.003875 477.038469 
" style="fill: none; stroke: #00ffff; stroke-opacity: 0.75; stroke-width: 2; stroke-linecap: square"/>
    </g>
    <g id="text_13">
     <text style="font: 10px 'Arial', sans-serif; text-anchor: start" x="111.003875" y="480.538469" transform="rotate(-0 111.003875 480.538469)">SS2 NoOverlap Broad</text>
    </g>
    <g id="line2d_27">
     <path d="M 83.003875 491.311906 
L 93.003875 491.311906 
L 103.003875 491.311906 
" style="fill: none; stroke: #ffa500; stroke-opacity: 0.75; stroke-width: 2; stroke-linecap: square"/>
    </g>
    <g id="text_14">
     <text style="font: 10px 'Arial', sans-serif; text-anchor: start" x="111.003875" y="494.811906" transform="rotate(-0 111.003875 494.811906)">SS2 NoOverlap Narrow</text>
    </g>
    <g id="line2d_28">
     <path d="M 83.003875 505.585344 
L 93.003875 505.585344 
L 103.003875 505.585344 
" style="fill: none; stroke: #ff00ff; stroke-opacity: 0.75; stroke-width: 2; stroke-linecap: square"/>
    </g>
    <g id="text_15">
     <text style="font: 10px 'Arial', sans-serif; text-anchor: start" x="111.003875" y="509.085344" transform="rotate(-0 111.003875 509.085344)">SS2 NoOverlap Mixed</text>
    </g>
    <g id="line2d_29">
     <path d="M 235.482 477.038469 
L 245.482 477.038469 
L 255.482 477.038469 
" style="fill: none; stroke: #008000; stroke-opacity: 0.75; stroke-width: 2; stroke-linecap: square"/>
    </g>
    <g id="text_16">
     <text style="font: 10px 'Arial', sans-serif; text-anchor: start" x="263.482" y="480.538469" transform="rotate(-0 263.482 480.538469)">SS2 Partial Overlap</text>
    </g>
    <g id="line2d_30">
     <path d="M 235.482 491.311906 
L 245.482 491.311906 
L 255.482 491.311906 
" style="fill: none; stroke: #800080; stroke-opacity: 0.75; stroke-width: 2; stroke-linecap: square"/>
    </g>
    <g id="text_17">
     <text style="font: 10px 'Arial', sans-serif; text-anchor: start" x="263.482" y="494.811906" transform="rotate(-0 263.482 494.811906)">SS2 Superset Overlap</text>
    </g>
    <g id="line2d_31">
     <path d="M 235.482 505.585344 
L 245.482 505.585344 
L 255.482 505.585344 
" style="fill: none; stroke: #0000ff; stroke-opacity: 0.75; stroke-width: 2; stroke-linecap: square"/>
    </g>
    <g id="text_18">
     <text style="font: 10px 'Arial', sans-serif; text-anchor: start" x="263.482" y="509.085344" transform="rotate(-0 263.482 509.085344)">SS2 Overlap Broad</text>
    </g>
    <g id="line2d_32">
     <path d="M 382.974187 477.038469 
L 392.974187 477.038469 
L 402.974187 477.038469 
" style="fill: none; stroke: #ff0000; stroke-opacity: 0.75; stroke-width: 2; stroke-linecap: square"/>
    </g>
    <g id="text_19">
     <text style="font: 10px 'Arial', sans-serif; text-anchor: start" x="410.974187" y="480.538469" transform="rotate(-0 410.974187 480.538469)">SS2 Overlap Narrow</text>
    </g>
    <g id="line2d_33">
     <path d="M 382.974187 491.183781 
L 392.974187 491.183781 
L 402.974187 491.183781 
" style="fill: none; stroke: #87ceeb; stroke-opacity: 0.75; stroke-width: 2; stroke-linecap: square"/>
    </g>
    <g id="text_20">
     <text style="font: 10px 'Arial', sans-serif; text-anchor: start" x="410.974187" y="494.683781" transform="rotate(-0 410.974187 494.683781)">SS1 Broad</text>
    </g>
    <g id="line2d_34">
     <path d="M 382.974187 505.329094 
L 392.974187 505.329094 
L 402.974187 505.329094 
" style="fill: none; stroke: #ffa07a; stroke-opacity: 0.75; stroke-width: 2; stroke-linecap: square"/>
    </g>
    <g id="text_21">
     <text style="font: 10px 'Arial', sans-serif; text-anchor: start" x="410.974187" y="508.829094" transform="rotate(-0 410.974187 508.829094)">SS1 Narrow</text>
    </g>
   </g>
  </g>
 </g>
 <defs>
  <clipPath id="p61222fb240">
   <rect x="72.38" y="34.18125" width="924.82" height="488.24875"/>
  </clipPath>
 </defs>
</svg>
