<?xml version="1.0" encoding="utf-8" standalone="no"?>
<!DOCTYPE svg PUBLIC "-//W3C//DTD SVG 1.1//EN"
  "http://www.w3.org/Graphics/SVG/1.1/DTD/svg11.dtd">
<svg xmlns:xlink="http://www.w3.org/1999/xlink" width="1152pt" height="576pt" viewBox="0 0 1152 576" xmlns="http://www.w3.org/2000/svg" version="1.1">
 <metadata>
  <rdf:RDF xmlns:dc="http://purl.org/dc/elements/1.1/" xmlns:cc="http://creativecommons.org/ns#" xmlns:rdf="http://www.w3.org/1999/02/22-rdf-syntax-ns#">
   <cc:Work>
    <dc:type rdf:resource="http://purl.org/dc/dcmitype/StillImage"/>
    <dc:date>2024-01-23T11:35:45.814972</dc:date>
    <dc:format>image/svg+xml</dc:format>
    <dc:creator>
     <cc:Agent>
      <dc:title>Matplotlib v3.7.1, https://matplotlib.org/</dc:title>
     </cc:Agent>
    </dc:creator>
   </cc:Work>
  </rdf:RDF>
 </metadata>
 <defs>
  <style type="text/css">*{stroke-linejoin: round; stroke-linecap: butt}</style>
 </defs>
 <g id="figure_1">
  <g id="patch_1">
   <path d="M 0 576 
L 1152 576 
L 1152 0 
L 0 0 
z
" style="fill: #ffffff"/>
  </g>
  <g id="axes_1">
   <g id="patch_2">
    <path d="M 44.22125 522.43 
L 989.92 522.43 
L 989.92 38.152 
L 44.22125 38.152 
z
" style="fill: #ffffff"/>
   </g>
   <g id="PolyCollection_1">
    <path d="M 201.837708 -123.274 
L 201.837708 683.856 
L 359.454167 683.856 
L 359.454167 -123.274 
L 359.454167 -123.274 
L 201.837708 -123.274 
z
" clip-path="url(#p369e1fd664)" style="fill: #808080; fill-opacity: 0.5; stroke: #808080; stroke-opacity: 0.5"/>
   </g>
   <g id="PolyCollection_2">
    <defs>
     <path id="maf8d3bde9a" d="M 44.22125 -266.042878 
L 44.22125 -296.475911 
L 59.35243 -326.790923 
L 74.48361 -318.113896 
L 89.61479 -298.021734 
L 104.74597 -323.223512 
L 119.87715 -294.385406 
L 135.00833 -314.856031 
L 150.13951 -311.87632 
L 165.27069 -307.912704 
L 180.40187 -292.703297 
L 195.53305 -306.095885 
L 210.66423 -308.705263 
L 225.79541 -308.552527 
L 240.92659 -294.263932 
L 256.05777 -306.562741 
L 271.18895 -317.333424 
L 286.32013 -303.280622 
L 301.45131 -303.543294 
L 316.58249 -270.690077 
L 331.71367 -246.355928 
L 346.84485 -237.383482 
L 361.97603 -232.233874 
L 377.10721 -235.993075 
L 392.23839 -200.630574 
L 407.36957 -179.960263 
L 422.50075 -178.496837 
L 437.63193 -187.446342 
L 452.76311 -192.810777 
L 467.89429 -200.767168 
L 483.02547 -216.857365 
L 498.15665 -191.872456 
L 513.28783 -189.28839 
L 528.41901 -185.023899 
L 543.55019 -186.898597 
L 558.68137 -191.366164 
L 573.81255 -181.252214 
L 588.94373 -178.187496 
L 604.07491 -165.24424 
L 619.20609 -203.043644 
L 634.33727 -200.19051 
L 649.46845 -194.159237 
L 664.59963 -204.609838 
L 679.73081 -216.713991 
L 694.86199 -194.725113 
L 709.99317 -206.854306 
L 725.12435 -224.363021 
L 740.25553 -244.324825 
L 755.38671 -248.43898 
L 770.51789 -233.726608 
L 785.64907 -241.346218 
L 800.78025 -238.008487 
L 815.91143 -247.471418 
L 831.04261 -220.93498 
L 846.17379 -221.513133 
L 861.30497 -225.946387 
L 876.43615 -230.789477 
L 891.56733 -230.701267 
L 906.69851 -232.115938 
L 921.82969 -239.29969 
L 936.96087 -234.17506 
L 952.09205 -216.455335 
L 967.22323 -244.35087 
L 967.22323 -203.051605 
L 967.22323 -203.051605 
L 952.09205 -175.578171 
L 936.96087 -190.480671 
L 921.82969 -189.870826 
L 906.69851 -181.819449 
L 891.56733 -183.798562 
L 876.43615 -192.8039 
L 861.30497 -183.617598 
L 846.17379 -184.845487 
L 831.04261 -182.835534 
L 815.91143 -204.432181 
L 800.78025 -200.21025 
L 785.64907 -205.652194 
L 770.51789 -192.683088 
L 755.38671 -207.106379 
L 740.25553 -210.751653 
L 725.12435 -192.022481 
L 709.99317 -168.317817 
L 694.86199 -157.82404 
L 679.73081 -171.378335 
L 664.59963 -159.400617 
L 649.46845 -150.937629 
L 634.33727 -158.809685 
L 619.20609 -164.592241 
L 604.07491 -127.979337 
L 588.94373 -144.045969 
L 573.81255 -140.247565 
L 558.68137 -142.541965 
L 543.55019 -131.707522 
L 528.41901 -141.008876 
L 513.28783 -148.749844 
L 498.15665 -146.606454 
L 483.02547 -171.115832 
L 467.89429 -156.81518 
L 452.76311 -148.568179 
L 437.63193 -140.958424 
L 422.50075 -127.789569 
L 407.36957 -131.854925 
L 392.23839 -148.69132 
L 377.10721 -187.682261 
L 361.97603 -184.357802 
L 346.84485 -187.314729 
L 331.71367 -200.124525 
L 316.58249 -234.970583 
L 301.45131 -273.766123 
L 286.32013 -278.838529 
L 271.18895 -295.386025 
L 256.05777 -272.704355 
L 240.92659 -263.820345 
L 225.79541 -290.444527 
L 210.66423 -287.415638 
L 195.53305 -274.396276 
L 180.40187 -262.52261 
L 165.27069 -288.713721 
L 150.13951 -290.004565 
L 135.00833 -292.979457 
L 119.87715 -271.149082 
L 104.74597 -301.573098 
L 89.61479 -268.365595 
L 74.48361 -288.834621 
L 59.35243 -299.289925 
L 44.22125 -266.042878 
z
" style="stroke: #87ceeb; stroke-opacity: 0.3"/>
    </defs>
    <g clip-path="url(#p369e1fd664)">
     <use xlink:href="#maf8d3bde9a" x="0" y="576" style="fill: #87ceeb; fill-opacity: 0.3; stroke: #87ceeb; stroke-opacity: 0.3"/>
    </g>
   </g>
   <g id="PolyCollection_3">
    <defs>
     <path id="m0e3a8ab047" d="M 44.22125 -287.403638 
L 44.22125 -317.583778 
L 59.35243 -291.374163 
L 74.48361 -302.759539 
L 89.61479 -319.910805 
L 104.74597 -291.842671 
L 119.87715 -309.240771 
L 135.00833 -296.609127 
L 150.13951 -301.952176 
L 165.27069 -302.815616 
L 180.40187 -326.393042 
L 195.53305 -310.065375 
L 210.66423 -305.593143 
L 225.79541 -300.304727 
L 240.92659 -334.210128 
L 256.05777 -321.431528 
L 271.18895 -292.002828 
L 286.32013 -310.764231 
L 301.45131 -315.42451 
L 316.58249 -358.210405 
L 331.71367 -390.00609 
L 346.84485 -400.178854 
L 361.97603 -406.897059 
L 377.10721 -409.51796 
L 392.23839 -447.741085 
L 407.36957 -465.849542 
L 422.50075 -465.21751 
L 437.63193 -448.475663 
L 452.76311 -437.233279 
L 467.89429 -432.710784 
L 483.02547 -417.855023 
L 498.15665 -442.642662 
L 513.28783 -440.647778 
L 528.41901 -447.244391 
L 543.55019 -456.324526 
L 558.68137 -442.073389 
L 573.81255 -447.223139 
L 588.94373 -443.223438 
L 604.07491 -457.644027 
L 619.20609 -419.885782 
L 634.33727 -423.786284 
L 649.46845 -436.948886 
L 664.59963 -431.267278 
L 679.73081 -414.37976 
L 694.86199 -430.322651 
L 709.99317 -416.568511 
L 725.12435 -393.396738 
L 740.25553 -374.776595 
L 755.38671 -380.61916 
L 770.51789 -397.878588 
L 785.64907 -381.85958 
L 800.78025 -387.957309 
L 815.91143 -379.214883 
L 831.04261 -403.977466 
L 846.17379 -402.414486 
L 861.30497 -405.786553 
L 876.43615 -396.242964 
L 891.56733 -403.47511 
L 906.69851 -400.562444 
L 921.82969 -400.553661 
L 936.96087 -391.819954 
L 952.09205 -404.185716 
L 967.22323 -381.628367 
L 967.22323 -340.380045 
L 967.22323 -340.380045 
L 952.09205 -363.397516 
L 936.96087 -349.76025 
L 921.82969 -352.729675 
L 906.69851 -350.875965 
L 891.56733 -356.245107 
L 876.43615 -356.17451 
L 861.30497 -362.411078 
L 846.17379 -364.947074 
L 831.04261 -364.793402 
L 815.91143 -335.779434 
L 800.78025 -350.490928 
L 785.64907 -345.416366 
L 770.51789 -354.617032 
L 755.38671 -338.045473 
L 740.25553 -341.24042 
L 725.12435 -361.109359 
L 709.99317 -379.279641 
L 694.86199 -393.271624 
L 679.73081 -369.903641 
L 664.59963 -383.265097 
L 649.46845 -393.284621 
L 634.33727 -382.374196 
L 619.20609 -379.683561 
L 604.07491 -420.021412 
L 588.94373 -409.480902 
L 573.81255 -402.540262 
L 558.68137 -390.75904 
L 543.55019 -399.442651 
L 528.41901 -402.960518 
L 513.28783 -400.871459 
L 498.15665 -398.701888 
L 483.02547 -373.752763 
L 467.89429 -393.687444 
L 452.76311 -394.440834 
L 437.63193 -405.26482 
L 422.50075 -413.79196 
L 407.36957 -416.405184 
L 392.23839 -395.511121 
L 377.10721 -359.876904 
L 361.97603 -359.403242 
L 346.84485 -350.479872 
L 331.71367 -342.019878 
L 316.58249 -322.265251 
L 301.45131 -286.548964 
L 286.32013 -285.903919 
L 271.18895 -268.94866 
L 256.05777 -289.298451 
L 240.92659 -304.613877 
L 225.79541 -282.083729 
L 210.66423 -286.402206 
L 195.53305 -280.314433 
L 180.40187 -294.715779 
L 165.27069 -281.250826 
L 150.13951 -279.362122 
L 135.00833 -272.666547 
L 119.87715 -286.229255 
L 104.74597 -268.9657 
L 89.61479 -290.74928 
L 74.48361 -274.807065 
L 59.35243 -263.63183 
L 44.22125 -287.403638 
z
" style="stroke: #800080; stroke-opacity: 0.3"/>
    </defs>
    <g clip-path="url(#p369e1fd664)">
     <use xlink:href="#m0e3a8ab047" x="0" y="576" style="fill: #800080; fill-opacity: 0.3; stroke: #800080; stroke-opacity: 0.3"/>
    </g>
   </g>
   <g id="matplotlib.axis_1">
    <g id="xtick_1">
     <g id="line2d_1">
      <defs>
       <path id="m8a31bccffe" d="M 0 0 
L 0 3.5 
" style="stroke: #000000; stroke-width: 0.8"/>
      </defs>
      <g>
       <use xlink:href="#m8a31bccffe" x="75.744542" y="522.43" style="stroke: #000000; stroke-width: 0.8"/>
      </g>
     </g>
     <g id="text_1">
      <text style="font: 14px 'Arial', sans-serif; text-anchor: middle" x="75.744542" y="539.450938" transform="rotate(-0 75.744542 539.450938)">−200</text>
     </g>
    </g>
    <g id="xtick_2">
     <g id="line2d_2">
      <g>
       <use xlink:href="#m8a31bccffe" x="201.837708" y="522.43" style="stroke: #000000; stroke-width: 0.8"/>
      </g>
     </g>
     <g id="text_2">
      <text style="font: 14px 'Arial', sans-serif; text-anchor: middle" x="201.837708" y="539.450938" transform="rotate(-0 201.837708 539.450938)">0</text>
     </g>
    </g>
    <g id="xtick_3">
     <g id="line2d_3">
      <g>
       <use xlink:href="#m8a31bccffe" x="327.930875" y="522.43" style="stroke: #000000; stroke-width: 0.8"/>
      </g>
     </g>
     <g id="text_3">
      <text style="font: 14px 'Arial', sans-serif; text-anchor: middle" x="327.930875" y="539.450938" transform="rotate(-0 327.930875 539.450938)">200</text>
     </g>
    </g>
    <g id="xtick_4">
     <g id="line2d_4">
      <g>
       <use xlink:href="#m8a31bccffe" x="454.024042" y="522.43" style="stroke: #000000; stroke-width: 0.8"/>
      </g>
     </g>
     <g id="text_4">
      <text style="font: 14px 'Arial', sans-serif; text-anchor: middle" x="454.024042" y="539.450938" transform="rotate(-0 454.024042 539.450938)">400</text>
     </g>
    </g>
    <g id="xtick_5">
     <g id="line2d_5">
      <g>
       <use xlink:href="#m8a31bccffe" x="580.117208" y="522.43" style="stroke: #000000; stroke-width: 0.8"/>
      </g>
     </g>
     <g id="text_5">
      <text style="font: 14px 'Arial', sans-serif; text-anchor: middle" x="580.117208" y="539.450938" transform="rotate(-0 580.117208 539.450938)">600</text>
     </g>
    </g>
    <g id="xtick_6">
     <g id="line2d_6">
      <g>
       <use xlink:href="#m8a31bccffe" x="706.210375" y="522.43" style="stroke: #000000; stroke-width: 0.8"/>
      </g>
     </g>
     <g id="text_6">
      <text style="font: 14px 'Arial', sans-serif; text-anchor: middle" x="706.210375" y="539.450938" transform="rotate(-0 706.210375 539.450938)">800</text>
     </g>
    </g>
    <g id="xtick_7">
     <g id="line2d_7">
      <g>
       <use xlink:href="#m8a31bccffe" x="832.303542" y="522.43" style="stroke: #000000; stroke-width: 0.8"/>
      </g>
     </g>
     <g id="text_7">
      <text style="font: 14px 'Arial', sans-serif; text-anchor: middle" x="832.303542" y="539.450938" transform="rotate(-0 832.303542 539.450938)">1000</text>
     </g>
    </g>
    <g id="xtick_8">
     <g id="line2d_8">
      <g>
       <use xlink:href="#m8a31bccffe" x="958.396708" y="522.43" style="stroke: #000000; stroke-width: 0.8"/>
      </g>
     </g>
     <g id="text_8">
      <text style="font: 14px 'Arial', sans-serif; text-anchor: middle" x="958.396708" y="539.450938" transform="rotate(-0 958.396708 539.450938)">1200</text>
     </g>
    </g>
    <g id="text_9">
     <text style="font: 20px 'Arial', sans-serif; text-anchor: middle" x="517.070625" y="560.792812" transform="rotate(-0 517.070625 560.792812)">Time from stimulus onset (ms)</text>
    </g>
   </g>
   <g id="matplotlib.axis_2">
    <g id="ytick_1">
     <g id="line2d_9">
      <defs>
       <path id="m01a8873824" d="M 0 0 
L -3.5 0 
" style="stroke: #000000; stroke-width: 0.8"/>
      </defs>
      <g>
       <use xlink:href="#m01a8873824" x="44.22125" y="522.43" style="stroke: #000000; stroke-width: 0.8"/>
      </g>
     </g>
    </g>
    <g id="ytick_2">
     <g id="line2d_10">
      <g>
       <use xlink:href="#m01a8873824" x="44.22125" y="441.717" style="stroke: #000000; stroke-width: 0.8"/>
      </g>
     </g>
    </g>
    <g id="ytick_3">
     <g id="line2d_11">
      <g>
       <use xlink:href="#m01a8873824" x="44.22125" y="361.004" style="stroke: #000000; stroke-width: 0.8"/>
      </g>
     </g>
    </g>
    <g id="ytick_4">
     <g id="line2d_12">
      <g>
       <use xlink:href="#m01a8873824" x="44.22125" y="280.291" style="stroke: #000000; stroke-width: 0.8"/>
      </g>
     </g>
    </g>
    <g id="ytick_5">
     <g id="line2d_13">
      <g>
       <use xlink:href="#m01a8873824" x="44.22125" y="199.578" style="stroke: #000000; stroke-width: 0.8"/>
      </g>
     </g>
    </g>
    <g id="ytick_6">
     <g id="line2d_14">
      <g>
       <use xlink:href="#m01a8873824" x="44.22125" y="118.865" style="stroke: #000000; stroke-width: 0.8"/>
      </g>
     </g>
    </g>
    <g id="ytick_7">
     <g id="line2d_15">
      <g>
       <use xlink:href="#m01a8873824" x="44.22125" y="38.152" style="stroke: #000000; stroke-width: 0.8"/>
      </g>
     </g>
    </g>
    <g id="text_10">
     <text style="font: 24px 'Arial', sans-serif; text-anchor: middle" x="28.17" y="280.291" transform="rotate(-90 28.17 280.291)">Distance from Hyperplane (a.u.)</text>
    </g>
   </g>
   <g id="line2d_16">
    <path d="M 44.22125 280.291 
L 59.35243 280.291 
L 74.48361 280.291 
L 89.61479 280.291 
L 104.74597 280.291 
L 119.87715 280.291 
L 135.00833 280.291 
L 150.13951 280.291 
L 165.27069 280.291 
L 180.40187 280.291 
L 195.53305 280.291 
L 210.66423 280.291 
L 225.79541 280.291 
L 240.92659 280.291 
L 256.05777 280.291 
L 271.18895 280.291 
L 286.32013 280.291 
L 301.45131 280.291 
L 316.58249 280.291 
L 331.71367 280.291 
L 346.84485 280.291 
L 361.97603 280.291 
L 377.10721 280.291 
L 392.23839 280.291 
L 407.36957 280.291 
L 422.50075 280.291 
L 437.63193 280.291 
L 452.76311 280.291 
L 467.89429 280.291 
L 483.02547 280.291 
L 498.15665 280.291 
L 513.28783 280.291 
L 528.41901 280.291 
L 543.55019 280.291 
L 558.68137 280.291 
L 573.81255 280.291 
L 588.94373 280.291 
L 604.07491 280.291 
L 619.20609 280.291 
L 634.33727 280.291 
L 649.46845 280.291 
L 664.59963 280.291 
L 679.73081 280.291 
L 694.86199 280.291 
L 709.99317 280.291 
L 725.12435 280.291 
L 740.25553 280.291 
L 755.38671 280.291 
L 770.51789 280.291 
L 785.64907 280.291 
L 800.78025 280.291 
L 815.91143 280.291 
L 831.04261 280.291 
L 846.17379 280.291 
L 861.30497 280.291 
L 876.43615 280.291 
L 891.56733 280.291 
L 906.69851 280.291 
L 921.82969 280.291 
L 936.96087 280.291 
L 952.09205 280.291 
L 967.22323 280.291 
" clip-path="url(#p369e1fd664)" style="fill: none; stroke-dasharray: 5.55,2.4; stroke-dashoffset: 0; stroke: #808080; stroke-width: 1.5"/>
   </g>
   <g id="line2d_17">
    <path d="M 44.22125 278.555456 
L 59.35243 295.212641 
L 74.48361 270.550257 
L 89.61479 300.342779 
L 104.74597 281.04066 
L 119.87715 296.992527 
L 135.00833 272.381831 
L 150.13951 275.888313 
L 165.27069 265.714807 
L 180.40187 308.229508 
L 195.53305 282.149778 
L 210.66423 279.421443 
L 225.79541 278.804918 
L 240.92659 288.49158 
L 256.05777 265.464281 
L 271.18895 250.938817 
L 286.32013 252.248373 
L 301.45131 202.590889 
L 316.58249 310.508614 
L 331.71367 350.587032 
L 346.84485 324.490782 
L 361.97603 361.254535 
L 377.10721 373.055467 
L 392.23839 392.396209 
L 407.36957 384.156271 
L 422.50075 361.682271 
L 437.63193 346.279388 
L 452.76311 323.252827 
L 467.89429 369.169664 
L 483.02547 410.247934 
L 498.15665 460.14072 
L 513.28783 433.985836 
L 528.41901 424.31207 
L 543.55019 405.317941 
L 558.68137 440.320709 
L 573.81255 402.100182 
L 588.94373 397.874515 
L 604.07491 414.362463 
L 619.20609 380.050302 
L 634.33727 388.247717 
L 649.46845 395.960022 
L 664.59963 369.945322 
L 679.73081 369.772434 
L 694.86199 379.999553 
L 709.99317 387.492704 
L 725.12435 374.674951 
L 740.25553 352.49091 
L 755.38671 368.491519 
L 770.51789 365.927814 
L 785.64907 356.797654 
L 800.78025 358.00332 
L 815.91143 351.346853 
L 831.04261 332.730627 
L 846.17379 348.967714 
L 861.30497 355.748573 
L 876.43615 374.512624 
L 891.56733 356.408472 
L 906.69851 375.95574 
L 921.82969 345.449568 
L 936.96087 339.685085 
L 952.09205 365.307833 
L 967.22323 333.172583 
" clip-path="url(#p369e1fd664)" style="fill: none; stroke: #ffa07a; stroke-width: 1.5; stroke-linecap: square"/>
   </g>
   <g id="line2d_18">
    <path d="M 44.22125 294.740605 
L 59.35243 262.959576 
L 74.48361 272.525741 
L 89.61479 292.806336 
L 104.74597 263.601695 
L 119.87715 293.232756 
L 135.00833 272.082256 
L 150.13951 275.059558 
L 165.27069 277.686788 
L 180.40187 298.387046 
L 195.53305 285.753919 
L 210.66423 277.93955 
L 225.79541 276.501473 
L 240.92659 296.957862 
L 256.05777 286.366452 
L 271.18895 269.640276 
L 286.32013 284.940425 
L 301.45131 287.345291 
L 316.58249 323.16967 
L 331.71367 352.759773 
L 346.84485 363.650894 
L 361.97603 367.704162 
L 377.10721 364.162332 
L 392.23839 401.339053 
L 407.36957 420.092406 
L 422.50075 422.856797 
L 437.63193 411.797617 
L 452.76311 405.310522 
L 467.89429 397.208826 
L 483.02547 382.013401 
L 498.15665 406.760545 
L 513.28783 406.980883 
L 528.41901 412.983612 
L 543.55019 416.696941 
L 558.68137 409.045936 
L 573.81255 415.25011 
L 588.94373 414.883267 
L 604.07491 429.388212 
L 619.20609 392.182058 
L 634.33727 396.499903 
L 649.46845 403.451567 
L 664.59963 393.994773 
L 679.73081 381.953837 
L 694.86199 399.725424 
L 709.99317 388.413938 
L 725.12435 367.807249 
L 740.25553 348.461761 
L 755.38671 348.227321 
L 770.51789 362.795152 
L 785.64907 352.500794 
L 800.78025 356.890632 
L 815.91143 350.0482 
L 831.04261 374.114743 
L 846.17379 372.82069 
L 861.30497 371.218007 
L 876.43615 364.203312 
L 891.56733 368.750086 
L 906.69851 369.032307 
L 921.82969 361.414742 
L 936.96087 363.672135 
L 952.09205 379.983247 
L 967.22323 352.298763 
" clip-path="url(#p369e1fd664)" style="fill: none; stroke: #87ceeb; stroke-width: 1.5; stroke-linecap: square"/>
   </g>
   <g id="line2d_19">
    <path d="M 44.22125 317.924719 
L 59.35243 307.15113 
L 74.48361 258.870281 
L 89.61479 255.653481 
L 104.74597 241.401534 
L 119.87715 282.844338 
L 135.00833 230.608186 
L 150.13951 304.429719 
L 165.27069 273.545947 
L 180.40187 292.512333 
L 195.53305 297.54557 
L 210.66423 335.125965 
L 225.79541 338.21988 
L 240.92659 261.722786 
L 256.05777 225.013469 
L 271.18895 250.96428 
L 286.32013 240.215935 
L 301.45131 162.568399 
L 316.58249 248.227221 
L 331.71367 178.965775 
L 346.84485 162.789107 
L 361.97603 220.774724 
L 377.10721 247.955725 
L 392.23839 126.443259 
L 407.36957 67.724069 
L 422.50075 76.901186 
L 437.63193 103.011472 
L 452.76311 195.530571 
L 467.89429 250.36684 
L 483.02547 258.473081 
L 498.15665 265.466969 
L 513.28783 224.380103 
L 528.41901 226.480563 
L 543.55019 213.863249 
L 558.68137 184.209837 
L 573.81255 193.04878 
L 588.94373 101.501038 
L 604.07491 84.563959 
L 619.20609 129.57404 
L 634.33727 146.589623 
L 649.46845 166.882083 
L 664.59963 125.071305 
L 679.73081 132.183709 
L 694.86199 107.713657 
L 709.99317 110.402446 
L 725.12435 106.173506 
L 740.25553 163.608168 
L 755.38671 176.143424 
L 770.51789 190.459009 
L 785.64907 209.584881 
L 800.78025 215.038765 
L 815.91143 194.813354 
L 831.04261 180.187482 
L 846.17379 155.440284 
L 861.30497 161.265412 
L 876.43615 218.432407 
L 891.56733 186.110144 
L 906.69851 220.579381 
L 921.82969 225.045826 
L 936.96087 211.262155 
L 952.09205 213.283535 
L 967.22323 232.338988 
" clip-path="url(#p369e1fd664)" style="fill: none; stroke: #ff0000; stroke-width: 1.5; stroke-linecap: square"/>
   </g>
   <g id="line2d_20">
    <path d="M 44.22125 433.679982 
L 59.35243 226.241914 
L 74.48361 250.233814 
L 89.61479 297.507357 
L 104.74597 276.16551 
L 119.87715 289.103566 
L 135.00833 249.909359 
L 150.13951 256.7955 
L 165.27069 240.963457 
L 180.40187 245.304157 
L 195.53305 261.721434 
L 210.66423 270.670026 
L 225.79541 257.522112 
L 240.92659 308.667314 
L 256.05777 289.544534 
L 271.18895 232.671391 
L 286.32013 297.167007 
L 301.45131 275.944642 
L 316.58249 158.304411 
L 331.71367 84.666747 
L 346.84485 126.60002 
L 361.97603 126.492314 
L 377.10721 172.894675 
L 392.23839 105.47324 
L 407.36957 54.65466 
L 422.50075 111.293285 
L 437.63193 129.023277 
L 452.76311 171.1508 
L 467.89429 180.864124 
L 483.02547 179.021719 
L 498.15665 218.721398 
L 513.28783 213.855255 
L 528.41901 172.355885 
L 543.55019 141.088346 
L 558.68137 176.643994 
L 573.81255 238.559718 
L 588.94373 245.393392 
L 604.07491 227.471094 
L 619.20609 212.71574 
L 634.33727 221.048928 
L 649.46845 255.550623 
L 664.59963 253.986762 
L 679.73081 216.246721 
L 694.86199 206.533739 
L 709.99317 238.176781 
L 725.12435 202.362019 
L 740.25553 176.780203 
L 755.38671 145.847386 
L 770.51789 152.260576 
L 785.64907 193.111014 
L 800.78025 226.247823 
L 815.91143 138.477752 
L 831.04261 158.567353 
L 846.17379 194.417638 
L 861.30497 170.187591 
L 876.43615 145.475553 
L 891.56733 189.526181 
L 906.69851 196.067146 
L 921.82969 167.43873 
L 936.96087 132.851155 
L 952.09205 167.089939 
L 967.22323 189.52576 
" clip-path="url(#p369e1fd664)" style="fill: none; stroke: #0000ff; stroke-width: 1.5; stroke-linecap: square"/>
   </g>
   <g id="line2d_21">
    <path d="M 44.22125 273.506292 
L 59.35243 298.497004 
L 74.48361 287.216698 
L 89.61479 270.669957 
L 104.74597 295.595814 
L 119.87715 278.264987 
L 135.00833 291.362163 
L 150.13951 285.342851 
L 165.27069 283.966779 
L 180.40187 265.445589 
L 195.53305 280.810096 
L 210.66423 280.002326 
L 225.79541 284.805772 
L 240.92659 256.587997 
L 256.05777 270.63501 
L 271.18895 295.524256 
L 286.32013 277.665925 
L 301.45131 275.013263 
L 316.58249 235.762172 
L 331.71367 209.987016 
L 346.84485 200.670637 
L 361.97603 192.84985 
L 377.10721 191.302568 
L 392.23839 154.373897 
L 407.36957 134.872637 
L 422.50075 136.495265 
L 437.63193 149.129759 
L 452.76311 160.162944 
L 467.89429 162.800886 
L 483.02547 180.196107 
L 498.15665 155.327725 
L 513.28783 155.240382 
L 528.41901 150.897546 
L 543.55019 148.116411 
L 558.68137 159.583785 
L 573.81255 151.1183 
L 588.94373 149.64783 
L 604.07491 137.167281 
L 619.20609 176.215329 
L 634.33727 172.91976 
L 649.46845 160.883246 
L 664.59963 168.733813 
L 679.73081 183.858299 
L 694.86199 164.202863 
L 709.99317 178.075924 
L 725.12435 198.746952 
L 740.25553 217.991492 
L 755.38671 216.667683 
L 770.51789 199.75219 
L 785.64907 212.362027 
L 800.78025 206.775881 
L 815.91143 218.502841 
L 831.04261 191.614566 
L 846.17379 192.31922 
L 861.30497 191.901184 
L 876.43615 199.791263 
L 891.56733 196.139891 
L 906.69851 200.280796 
L 921.82969 199.358332 
L 936.96087 205.209898 
L 952.09205 192.208384 
L 967.22323 214.995794 
" clip-path="url(#p369e1fd664)" style="fill: none; stroke: #800080; stroke-width: 1.5; stroke-linecap: square"/>
   </g>
   <g id="line2d_22">
    <path d="M 44.22125 282.711899 
L 59.35243 287.445465 
L 74.48361 261.482281 
L 89.61479 298.235338 
L 104.74597 239.662295 
L 119.87715 306.821656 
L 135.00833 263.51501 
L 150.13951 311.219871 
L 165.27069 290.300331 
L 180.40187 292.815687 
L 195.53305 271.555246 
L 210.66423 296.17386 
L 225.79541 307.863783 
L 240.92659 268.450693 
L 256.05777 290.280955 
L 271.18895 290.231541 
L 286.32013 281.739981 
L 301.45131 319.559626 
L 316.58249 273.30854 
L 331.71367 218.972691 
L 346.84485 241.83359 
L 361.97603 208.06142 
L 377.10721 216.206169 
L 392.23839 196.148205 
L 407.36957 173.376749 
L 422.50075 211.576744 
L 437.63193 219.965868 
L 452.76311 210.164734 
L 467.89429 197.305124 
L 483.02547 183.827843 
L 498.15665 183.897922 
L 513.28783 194.918004 
L 528.41901 199.937376 
L 543.55019 211.649579 
L 558.68137 209.423761 
L 573.81255 219.030189 
L 588.94373 213.934144 
L 604.07491 215.93927 
L 619.20609 183.789058 
L 634.33727 177.987416 
L 649.46845 205.895126 
L 664.59963 185.178897 
L 679.73081 178.710201 
L 694.86199 200.219 
L 709.99317 208.491964 
L 725.12435 209.448406 
L 740.25553 203.761056 
L 755.38671 202.457658 
L 770.51789 214.994374 
L 785.64907 243.17505 
L 800.78025 247.871952 
L 815.91143 237.680418 
L 831.04261 225.724053 
L 846.17379 212.763886 
L 861.30497 220.318252 
L 876.43615 228.247025 
L 891.56733 204.104847 
L 906.69851 220.714921 
L 921.82969 190.532313 
L 936.96087 201.141728 
L 952.09205 204.793319 
L 967.22323 211.703705 
" clip-path="url(#p369e1fd664)" style="fill: none; stroke: #008000; stroke-width: 1.5; stroke-linecap: square"/>
   </g>
   <g id="line2d_23">
    <path d="M 44.22125 286.320744 
L 59.35243 295.305404 
L 74.48361 271.057219 
L 89.61479 299.856604 
L 104.74597 300.206988 
L 119.87715 291.669251 
L 135.00833 304.712515 
L 150.13951 299.880923 
L 165.27069 290.4066 
L 180.40187 282.296896 
L 195.53305 274.114817 
L 210.66423 271.218699 
L 225.79541 279.522331 
L 240.92659 292.079881 
L 256.05777 288.107579 
L 271.18895 271.45143 
L 286.32013 294.334206 
L 301.45131 323.821374 
L 316.58249 269.124429 
L 331.71367 226.134369 
L 346.84485 294.318376 
L 361.97603 293.225235 
L 377.10721 312.730206 
L 392.23839 310.160372 
L 407.36957 289.221652 
L 422.50075 286.448192 
L 437.63193 284.682834 
L 452.76311 285.221526 
L 467.89429 250.34094 
L 483.02547 242.072431 
L 498.15665 244.282119 
L 513.28783 260.72919 
L 528.41901 256.903763 
L 543.55019 234.945244 
L 558.68137 239.851133 
L 573.81255 256.613508 
L 588.94373 272.515564 
L 604.07491 272.663429 
L 619.20609 244.39202 
L 634.33727 240.603641 
L 649.46845 268.015588 
L 664.59963 250.15784 
L 679.73081 239.180727 
L 694.86199 252.499584 
L 709.99317 257.292939 
L 725.12435 247.416494 
L 740.25553 268.300451 
L 755.38671 246.113403 
L 770.51789 250.188054 
L 785.64907 256.140873 
L 800.78025 285.859943 
L 815.91143 268.613499 
L 831.04261 269.562892 
L 846.17379 271.054874 
L 861.30497 257.61728 
L 876.43615 252.190339 
L 891.56733 283.619494 
L 906.69851 261.196028 
L 921.82969 233.245864 
L 936.96087 238.470733 
L 952.09205 272.218075 
L 967.22323 260.261168 
" clip-path="url(#p369e1fd664)" style="fill: none; stroke: #ff00ff; stroke-width: 1.5; stroke-linecap: square"/>
   </g>
   <g id="line2d_24">
    <path d="M 44.22125 284.690228 
L 59.35243 269.26813 
L 74.48361 261.478649 
L 89.61479 280.850905 
L 104.74597 308.353881 
L 119.87715 289.120683 
L 135.00833 274.915298 
L 150.13951 282.392366 
L 165.27069 268.720205 
L 180.40187 286.536862 
L 195.53305 266.016734 
L 210.66423 290.421263 
L 225.79541 276.494607 
L 240.92659 295.655358 
L 256.05777 281.600244 
L 271.18895 252.254302 
L 286.32013 275.791207 
L 301.45131 279.067733 
L 316.58249 251.363172 
L 331.71367 215.458059 
L 346.84485 267.800787 
L 361.97603 273.562388 
L 377.10721 290.134793 
L 392.23839 296.677743 
L 407.36957 278.479819 
L 422.50075 264.8644 
L 437.63193 267.22172 
L 452.76311 248.320316 
L 467.89429 254.501227 
L 483.02547 274.655721 
L 498.15665 262.862221 
L 513.28783 267.274181 
L 528.41901 288.840705 
L 543.55019 290.523858 
L 558.68137 277.31907 
L 573.81255 261.15832 
L 588.94373 289.515277 
L 604.07491 282.796659 
L 619.20609 260.700576 
L 634.33727 240.712729 
L 649.46845 293.356053 
L 664.59963 301.723363 
L 679.73081 273.29526 
L 694.86199 242.039513 
L 709.99317 257.481382 
L 725.12435 283.844797 
L 740.25553 283.445324 
L 755.38671 259.795689 
L 770.51789 245.669931 
L 785.64907 278.087385 
L 800.78025 276.357448 
L 815.91143 248.17927 
L 831.04261 259.001504 
L 846.17379 266.06146 
L 861.30497 264.409705 
L 876.43615 265.140545 
L 891.56733 289.552047 
L 906.69851 281.790054 
L 921.82969 249.273902 
L 936.96087 245.729888 
L 952.09205 266.51487 
L 967.22323 258.016131 
" clip-path="url(#p369e1fd664)" style="fill: none; stroke: #ffa500; stroke-width: 1.5; stroke-linecap: square"/>
   </g>
   <g id="line2d_25">
    <path d="M 44.22125 307.545823 
L 59.35243 267.700402 
L 74.48361 278.45212 
L 89.61479 310.564037 
L 104.74597 293.595354 
L 119.87715 270.659305 
L 135.00833 278.514379 
L 150.13951 311.104474 
L 165.27069 279.571159 
L 180.40187 294.465151 
L 195.53305 271.10048 
L 210.66423 302.573456 
L 225.79541 269.823275 
L 240.92659 305.710988 
L 256.05777 309.753842 
L 271.18895 311.576629 
L 286.32013 282.691239 
L 301.45131 340.856889 
L 316.58249 227.699397 
L 331.71367 219.307986 
L 346.84485 303.89486 
L 361.97603 272.562866 
L 377.10721 257.670157 
L 392.23839 256.059749 
L 407.36957 280.138315 
L 422.50075 291.984566 
L 437.63193 293.583578 
L 452.76311 288.68203 
L 467.89429 232.421887 
L 483.02547 203.836636 
L 498.15665 168.664529 
L 513.28783 212.140141 
L 528.41901 205.877914 
L 543.55019 167.329039 
L 558.68137 201.055489 
L 573.81255 195.266311 
L 588.94373 207.460099 
L 604.07491 243.673878 
L 619.20609 212.747328 
L 634.33727 223.677216 
L 649.46845 263.092718 
L 664.59963 259.794371 
L 679.73081 210.893172 
L 694.86199 218.795532 
L 709.99317 230.212523 
L 725.12435 260.043989 
L 740.25553 268.018454 
L 755.38671 249.897611 
L 770.51789 243.711221 
L 785.64907 261.466612 
L 800.78025 232.78257 
L 815.91143 234.843187 
L 831.04261 272.913985 
L 846.17379 263.748822 
L 861.30497 223.786513 
L 876.43615 237.619222 
L 891.56733 245.525981 
L 906.69851 243.054605 
L 921.82969 228.576568 
L 936.96087 216.157951 
L 952.09205 240.940106 
L 967.22323 226.982649 
" clip-path="url(#p369e1fd664)" style="fill: none; stroke: #00ffff; stroke-width: 1.5; stroke-linecap: square"/>
   </g>
   <g id="patch_3">
    <path d="M 44.22125 522.43 
L 44.22125 38.152 
" style="fill: none; stroke: #000000; stroke-width: 0.8; stroke-linejoin: miter; stroke-linecap: square"/>
   </g>
   <g id="patch_4">
    <path d="M 44.22125 522.43 
L 989.92 522.43 
" style="fill: none; stroke: #000000; stroke-width: 0.8; stroke-linejoin: miter; stroke-linecap: square"/>
   </g>
   <g id="legend_1">
    <g id="patch_5">
     <path d="M 855.065187 105.7937 
L 1131.238625 105.7937 
Q 1133.238625 105.7937 1133.238625 103.7937 
L 1133.238625 18.366669 
Q 1133.238625 16.366669 1131.238625 16.366669 
L 855.065187 16.366669 
Q 853.065187 16.366669 853.065187 18.366669 
L 853.065187 103.7937 
Q 853.065187 105.7937 855.065187 105.7937 
z
" style="fill: #ffffff; opacity: 0.8; stroke: #cccccc; stroke-linejoin: miter"/>
    </g>
    <g id="text_11">
     <text style="font: 11px 'Arial', sans-serif; text-anchor: start" x="959.122375" y="28.240263" transform="rotate(-0 959.122375 28.240263)">Trial condition</text>
    </g>
    <g id="line2d_26">
     <path d="M 857.065187 39.21245 
L 867.065187 39.21245 
L 877.065187 39.21245 
" style="fill: none; stroke: #00ffff; stroke-width: 1.5; stroke-linecap: square"/>
    </g>
    <g id="text_12">
     <text style="font: 10px 'Arial', sans-serif; text-anchor: start" x="885.065187" y="42.71245" transform="rotate(-0 885.065187 42.71245)">SS2 NoOverlap Broad</text>
    </g>
    <g id="line2d_27">
     <path d="M 857.065187 53.485888 
L 867.065187 53.485888 
L 877.065187 53.485888 
" style="fill: none; stroke: #ffa500; stroke-width: 1.5; stroke-linecap: square"/>
    </g>
    <g id="text_13">
     <text style="font: 10px 'Arial', sans-serif; text-anchor: start" x="885.065187" y="56.985888" transform="rotate(-0 885.065187 56.985888)">SS2 NoOverlap Narrow</text>
    </g>
    <g id="line2d_28">
     <path d="M 857.065187 67.759325 
L 867.065187 67.759325 
L 877.065187 67.759325 
" style="fill: none; stroke: #ff00ff; stroke-width: 1.5; stroke-linecap: square"/>
    </g>
    <g id="text_14">
     <text style="font: 10px 'Arial', sans-serif; text-anchor: start" x="885.065187" y="71.259325" transform="rotate(-0 885.065187 71.259325)">SS2 NoOverlap Mixed</text>
    </g>
    <g id="line2d_29">
     <path d="M 857.065187 82.032763 
L 867.065187 82.032763 
L 877.065187 82.032763 
" style="fill: none; stroke: #008000; stroke-width: 1.5; stroke-linecap: square"/>
    </g>
    <g id="text_15">
     <text style="font: 10px 'Arial', sans-serif; text-anchor: start" x="885.065187" y="85.532763" transform="rotate(-0 885.065187 85.532763)">SS2 Partial Overlap</text>
    </g>
    <g id="line2d_30">
     <path d="M 857.065187 96.3062 
L 867.065187 96.3062 
L 877.065187 96.3062 
" style="fill: none; stroke: #800080; stroke-width: 1.5; stroke-linecap: square"/>
    </g>
    <g id="text_16">
     <text style="font: 10px 'Arial', sans-serif; text-anchor: start" x="885.065187" y="99.8062" transform="rotate(-0 885.065187 99.8062)">SS2 Superset Overlap</text>
    </g>
    <g id="line2d_31">
     <path d="M 1009.543312 39.21245 
L 1019.543312 39.21245 
L 1029.543312 39.21245 
" style="fill: none; stroke: #0000ff; stroke-width: 1.5; stroke-linecap: square"/>
    </g>
    <g id="text_17">
     <text style="font: 10px 'Arial', sans-serif; text-anchor: start" x="1037.543312" y="42.71245" transform="rotate(-0 1037.543312 42.71245)">SS2 Overlap Broad</text>
    </g>
    <g id="line2d_32">
     <path d="M 1009.543312 53.485888 
L 1019.543312 53.485888 
L 1029.543312 53.485888 
" style="fill: none; stroke: #ff0000; stroke-width: 1.5; stroke-linecap: square"/>
    </g>
    <g id="text_18">
     <text style="font: 10px 'Arial', sans-serif; text-anchor: start" x="1037.543312" y="56.985888" transform="rotate(-0 1037.543312 56.985888)">SS2 Overlap Narrow</text>
    </g>
    <g id="line2d_33">
     <path d="M 1009.543312 67.6312 
L 1019.543312 67.6312 
L 1029.543312 67.6312 
" style="fill: none; stroke: #87ceeb; stroke-width: 1.5; stroke-linecap: square"/>
    </g>
    <g id="text_19">
     <text style="font: 10px 'Arial', sans-serif; text-anchor: start" x="1037.543312" y="71.1312" transform="rotate(-0 1037.543312 71.1312)">SS1 Broad</text>
    </g>
    <g id="line2d_34">
     <path d="M 1009.543312 81.776513 
L 1019.543312 81.776513 
L 1029.543312 81.776513 
" style="fill: none; stroke: #ffa07a; stroke-width: 1.5; stroke-linecap: square"/>
    </g>
    <g id="text_20">
     <text style="font: 10px 'Arial', sans-serif; text-anchor: start" x="1037.543312" y="85.276513" transform="rotate(-0 1037.543312 85.276513)">SS1 Narrow</text>
    </g>
   </g>
  </g>
 </g>
 <defs>
  <clipPath id="p369e1fd664">
   <rect x="44.22125" y="38.152" width="945.69875" height="484.278"/>
  </clipPath>
 </defs>
</svg>
