<?xml version="1.0" encoding="utf-8" standalone="no"?>
<!DOCTYPE svg PUBLIC "-//W3C//DTD SVG 1.1//EN"
  "http://www.w3.org/Graphics/SVG/1.1/DTD/svg11.dtd">
<svg xmlns:xlink="http://www.w3.org/1999/xlink" width="864pt" height="576pt" viewBox="0 0 864 576" xmlns="http://www.w3.org/2000/svg" version="1.1">
 <metadata>
  <rdf:RDF xmlns:dc="http://purl.org/dc/elements/1.1/" xmlns:cc="http://creativecommons.org/ns#" xmlns:rdf="http://www.w3.org/1999/02/22-rdf-syntax-ns#">
   <cc:Work>
    <dc:type rdf:resource="http://purl.org/dc/dcmitype/StillImage"/>
    <dc:date>2024-01-23T11:35:46.064066</dc:date>
    <dc:format>image/svg+xml</dc:format>
    <dc:creator>
     <cc:Agent>
      <dc:title>Matplotlib v3.7.1, https://matplotlib.org/</dc:title>
     </cc:Agent>
    </dc:creator>
   </cc:Work>
  </rdf:RDF>
 </metadata>
 <defs>
  <style type="text/css">*{stroke-linejoin: round; stroke-linecap: butt}</style>
 </defs>
 <g id="figure_1">
  <g id="patch_1">
   <path d="M 0 576 
L 864 576 
L 864 0 
L 0 0 
z
" style="fill: #ffffff"/>
  </g>
  <g id="axes_1">
   <g id="patch_2">
    <path d="M 44.22125 522.43 
L 853.2 522.43 
L 853.2 10.8 
L 44.22125 10.8 
z
" style="fill: #ffffff"/>
   </g>
   <g id="PolyCollection_1">
    <path d="M 179.051042 -159.743333 
L 179.051042 692.973333 
L 313.880833 692.973333 
L 313.880833 -159.743333 
L 313.880833 -159.743333 
L 179.051042 -159.743333 
z
" clip-path="url(#pa833059a46)" style="fill: #808080; fill-opacity: 0.5; stroke: #808080; stroke-opacity: 0.5"/>
   </g>
   <g id="PolyCollection_2">
    <defs>
     <path id="m5379834b20" d="M 44.22125 -278.043337 
L 44.22125 -310.195226 
L 57.16491 -342.222429 
L 70.10857 -333.055323 
L 83.05223 -311.828357 
L 95.99589 -338.45353 
L 108.93955 -307.986649 
L 121.88321 -329.613454 
L 134.82687 -326.465449 
L 147.77053 -322.277969 
L 160.71419 -306.209536 
L 173.65785 -320.358536 
L 186.60151 -323.115291 
L 199.54517 -322.953929 
L 212.48883 -307.858314 
L 225.43249 -320.85176 
L 238.37615 -332.23077 
L 251.31981 -317.384266 
L 264.26347 -317.661775 
L 277.20713 -282.953009 
L 290.15079 -257.244469 
L 303.09445 -247.76526 
L 316.03811 -242.324802 
L 328.98177 -246.296322 
L 341.92543 -208.936549 
L 354.86909 -187.09878 
L 367.81275 -185.552699 
L 380.75641 -195.007672 
L 393.70007 -200.67509 
L 406.64373 -209.080858 
L 419.58739 -226.079828 
L 432.53105 -199.683773 
L 445.47471 -196.953759 
L 458.41837 -192.44841 
L 471.36203 -194.42899 
L 484.30569 -199.148885 
L 497.24935 -188.463699 
L 510.19301 -185.225887 
L 523.13667 -171.551596 
L 536.08033 -211.485908 
L 549.02399 -208.471629 
L 561.96765 -202.099711 
L 574.91131 -213.140561 
L 587.85497 -225.928357 
L 600.79863 -202.697547 
L 613.74229 -215.511797 
L 626.68595 -234.009404 
L 639.62961 -255.098649 
L 652.57327 -259.445171 
L 665.51693 -243.901845 
L 678.46059 -251.95181 
L 691.40425 -248.425564 
L 704.34791 -258.422961 
L 717.29157 -230.387746 
L 730.23523 -230.998553 
L 743.17889 -235.682198 
L 756.12255 -240.798825 
L 769.06621 -240.705633 
L 782.00987 -242.200205 
L 794.95353 -249.789695 
L 807.89719 -244.375626 
L 820.84085 -225.655092 
L 833.78451 -255.126165 
L 833.78451 -211.49432 
L 833.78451 -211.49432 
L 820.84085 -182.469187 
L 807.89719 -198.213379 
L 794.95353 -197.569091 
L 782.00987 -189.062972 
L 769.06621 -191.153866 
L 756.12255 -200.667824 
L 743.17889 -190.962681 
L 730.23523 -192.25992 
L 717.29157 -190.136446 
L 704.34791 -212.952871 
L 691.40425 -208.492484 
L 678.46059 -214.24179 
L 665.51693 -200.540189 
L 652.57327 -215.778107 
L 639.62961 -219.629266 
L 626.68595 -199.842271 
L 613.74229 -174.798768 
L 600.79863 -163.712304 
L 587.85497 -178.032145 
L 574.91131 -165.377926 
L 561.96765 -156.436948 
L 549.02399 -164.753617 
L 536.08033 -170.862772 
L 523.13667 -132.181973 
L 510.19301 -149.156048 
L 497.24935 -145.143111 
L 484.30569 -147.567097 
L 471.36203 -136.120726 
L 458.41837 -145.94742 
L 445.47471 -154.125597 
L 432.53105 -151.861148 
L 419.58739 -177.754815 
L 406.64373 -162.646463 
L 393.70007 -153.933672 
L 380.75641 -145.894118 
L 367.81275 -131.981487 
L 354.86909 -136.276454 
L 341.92543 -154.063767 
L 328.98177 -195.256916 
L 316.03811 -191.744691 
L 303.09445 -194.868625 
L 290.15079 -208.401918 
L 277.20713 -245.216079 
L 264.26347 -286.20279 
L 251.31981 -291.561686 
L 238.37615 -309.043783 
L 225.43249 -285.081054 
L 212.48883 -275.695275 
L 199.54517 -303.82319 
L 186.60151 -300.62323 
L 173.65785 -286.868535 
L 160.71419 -274.324244 
L 147.77053 -301.994628 
L 134.82687 -303.358378 
L 121.88321 -306.501293 
L 108.93955 -283.437939 
L 95.99589 -315.580302 
L 83.05223 -280.497241 
L 70.10857 -302.122357 
L 57.16491 -313.168176 
L 44.22125 -278.043337 
z
" style="stroke: #87ceeb; stroke-opacity: 0.3"/>
    </defs>
    <g clip-path="url(#pa833059a46)">
     <use xlink:href="#m5379834b20" x="0" y="576" style="fill: #87ceeb; fill-opacity: 0.3; stroke: #87ceeb; stroke-opacity: 0.3"/>
    </g>
   </g>
   <g id="PolyCollection_3">
    <defs>
     <path id="m549f576b2a" d="M 44.22125 -300.610551 
L 44.22125 -332.495265 
L 57.16491 -304.805331 
L 70.10857 -316.833753 
L 83.05223 -334.953722 
L 95.99589 -305.300301 
L 108.93955 -323.681045 
L 121.88321 -310.335966 
L 134.82687 -315.98079 
L 147.77053 -316.892997 
L 160.71419 -341.802076 
L 173.65785 -324.552222 
L 186.60151 -319.827398 
L 199.54517 -314.240293 
L 212.48883 -350.060671 
L 225.43249 -336.560336 
L 238.37615 -305.469504 
L 251.31981 -325.29055 
L 264.26347 -330.214041 
L 277.20713 -375.416481 
L 290.15079 -409.007985 
L 303.09445 -419.755306 
L 316.03811 -426.852955 
L 328.98177 -429.621885 
L 341.92543 -470.003851 
L 354.86909 -489.135072 
L 367.81275 -488.467343 
L 380.75641 -470.779917 
L 393.70007 -458.902564 
L 406.64373 -454.124638 
L 419.58739 -438.429825 
L 432.53105 -464.617469 
L 445.47471 -462.509914 
L 458.41837 -469.479103 
L 471.36203 -479.072084 
L 484.30569 -464.016044 
L 497.24935 -469.456651 
L 510.19301 -465.231047 
L 523.13667 -480.46611 
L 536.08033 -440.575281 
L 549.02399 -444.696083 
L 561.96765 -458.602109 
L 574.91131 -452.599604 
L 587.85497 -434.758279 
L 600.79863 -451.601624 
L 613.74229 -437.07065 
L 626.68595 -412.590137 
L 639.62961 -392.91833 
L 652.57327 -399.090883 
L 665.51693 -417.325121 
L 678.46059 -400.401361 
L 691.40425 -406.84349 
L 704.34791 -397.607291 
L 717.29157 -423.768464 
L 730.23523 -422.117207 
L 743.17889 -425.679728 
L 756.12255 -415.597118 
L 769.06621 -423.237736 
L 782.00987 -420.160561 
L 794.95353 -420.151283 
L 807.89719 -410.924296 
L 820.84085 -423.988477 
L 833.78451 -400.157089 
L 833.78451 -356.579064 
L 833.78451 -356.579064 
L 820.84085 -380.89656 
L 807.89719 -366.489063 
L 794.95353 -369.626201 
L 782.00987 -367.667793 
L 769.06621 -373.340184 
L 756.12255 -373.2656 
L 743.17889 -379.854409 
L 730.23523 -382.533638 
L 717.29157 -382.371286 
L 704.34791 -351.718611 
L 691.40425 -367.261009 
L 678.46059 -361.899836 
L 665.51693 -371.620155 
L 652.57327 -354.112635 
L 639.62961 -357.488032 
L 626.68595 -378.479168 
L 613.74229 -397.675708 
L 600.79863 -412.457956 
L 587.85497 -387.770151 
L 574.91131 -401.886261 
L 561.96765 -412.471687 
L 549.02399 -400.945043 
L 536.08033 -398.10244 
L 523.13667 -440.718572 
L 510.19301 -429.582734 
L 497.24935 -422.250087 
L 484.30569 -409.803462 
L 471.36203 -418.977523 
L 458.41837 -422.694079 
L 445.47471 -420.48703 
L 432.53105 -418.194921 
L 419.58739 -391.836672 
L 406.64373 -412.897263 
L 393.70007 -413.693203 
L 380.75641 -425.128528 
L 367.81275 -434.137281 
L 354.86909 -436.898099 
L 341.92543 -414.82394 
L 328.98177 -377.177104 
L 316.03811 -376.67669 
L 303.09445 -367.249328 
L 290.15079 -358.311514 
L 277.20713 -337.441147 
L 264.26347 -299.707605 
L 251.31981 -299.026129 
L 238.37615 -281.113237 
L 225.43249 -302.612384 
L 212.48883 -318.792824 
L 199.54517 -294.990174 
L 186.60151 -299.552558 
L 173.65785 -293.120949 
L 160.71419 -308.335681 
L 147.77053 -294.110229 
L 134.82687 -292.114851 
L 121.88321 -285.04111 
L 108.93955 -299.36984 
L 95.99589 -281.13124 
L 83.05223 -304.145155 
L 70.10857 -287.302524 
L 57.16491 -275.496113 
L 44.22125 -300.610551 
z
" style="stroke: #800080; stroke-opacity: 0.3"/>
    </defs>
    <g clip-path="url(#pa833059a46)">
     <use xlink:href="#m549f576b2a" x="0" y="576" style="fill: #800080; fill-opacity: 0.3; stroke: #800080; stroke-opacity: 0.3"/>
    </g>
   </g>
   <g id="matplotlib.axis_1">
    <g id="xtick_1">
     <g id="line2d_1">
      <defs>
       <path id="m25212ccdd7" d="M 0 0 
L 0 3.5 
" style="stroke: #000000; stroke-width: 0.8"/>
      </defs>
      <g>
       <use xlink:href="#m25212ccdd7" x="71.187208" y="522.43" style="stroke: #000000; stroke-width: 0.8"/>
      </g>
     </g>
     <g id="text_1">
      <text style="font: 14px 'Arial', sans-serif; text-anchor: middle" x="71.187208" y="539.450938" transform="rotate(-0 71.187208 539.450938)">−200</text>
     </g>
    </g>
    <g id="xtick_2">
     <g id="line2d_2">
      <g>
       <use xlink:href="#m25212ccdd7" x="179.051042" y="522.43" style="stroke: #000000; stroke-width: 0.8"/>
      </g>
     </g>
     <g id="text_2">
      <text style="font: 14px 'Arial', sans-serif; text-anchor: middle" x="179.051042" y="539.450938" transform="rotate(-0 179.051042 539.450938)">0</text>
     </g>
    </g>
    <g id="xtick_3">
     <g id="line2d_3">
      <g>
       <use xlink:href="#m25212ccdd7" x="286.914875" y="522.43" style="stroke: #000000; stroke-width: 0.8"/>
      </g>
     </g>
     <g id="text_3">
      <text style="font: 14px 'Arial', sans-serif; text-anchor: middle" x="286.914875" y="539.450938" transform="rotate(-0 286.914875 539.450938)">200</text>
     </g>
    </g>
    <g id="xtick_4">
     <g id="line2d_4">
      <g>
       <use xlink:href="#m25212ccdd7" x="394.778708" y="522.43" style="stroke: #000000; stroke-width: 0.8"/>
      </g>
     </g>
     <g id="text_4">
      <text style="font: 14px 'Arial', sans-serif; text-anchor: middle" x="394.778708" y="539.450938" transform="rotate(-0 394.778708 539.450938)">400</text>
     </g>
    </g>
    <g id="xtick_5">
     <g id="line2d_5">
      <g>
       <use xlink:href="#m25212ccdd7" x="502.642542" y="522.43" style="stroke: #000000; stroke-width: 0.8"/>
      </g>
     </g>
     <g id="text_5">
      <text style="font: 14px 'Arial', sans-serif; text-anchor: middle" x="502.642542" y="539.450938" transform="rotate(-0 502.642542 539.450938)">600</text>
     </g>
    </g>
    <g id="xtick_6">
     <g id="line2d_6">
      <g>
       <use xlink:href="#m25212ccdd7" x="610.506375" y="522.43" style="stroke: #000000; stroke-width: 0.8"/>
      </g>
     </g>
     <g id="text_6">
      <text style="font: 14px 'Arial', sans-serif; text-anchor: middle" x="610.506375" y="539.450938" transform="rotate(-0 610.506375 539.450938)">800</text>
     </g>
    </g>
    <g id="xtick_7">
     <g id="line2d_7">
      <g>
       <use xlink:href="#m25212ccdd7" x="718.370208" y="522.43" style="stroke: #000000; stroke-width: 0.8"/>
      </g>
     </g>
     <g id="text_7">
      <text style="font: 14px 'Arial', sans-serif; text-anchor: middle" x="718.370208" y="539.450938" transform="rotate(-0 718.370208 539.450938)">1000</text>
     </g>
    </g>
    <g id="xtick_8">
     <g id="line2d_8">
      <g>
       <use xlink:href="#m25212ccdd7" x="826.234042" y="522.43" style="stroke: #000000; stroke-width: 0.8"/>
      </g>
     </g>
     <g id="text_8">
      <text style="font: 14px 'Arial', sans-serif; text-anchor: middle" x="826.234042" y="539.450938" transform="rotate(-0 826.234042 539.450938)">1200</text>
     </g>
    </g>
    <g id="text_9">
     <text style="font: 20px 'Arial', sans-serif; text-anchor: middle" x="448.710625" y="560.792812" transform="rotate(-0 448.710625 560.792812)">Time from stimulus onset (ms)</text>
    </g>
   </g>
   <g id="matplotlib.axis_2">
    <g id="ytick_1">
     <g id="line2d_9">
      <defs>
       <path id="m91a3eae872" d="M 0 0 
L -3.5 0 
" style="stroke: #000000; stroke-width: 0.8"/>
      </defs>
      <g>
       <use xlink:href="#m91a3eae872" x="44.22125" y="522.43" style="stroke: #000000; stroke-width: 0.8"/>
      </g>
     </g>
    </g>
    <g id="ytick_2">
     <g id="line2d_10">
      <g>
       <use xlink:href="#m91a3eae872" x="44.22125" y="437.158333" style="stroke: #000000; stroke-width: 0.8"/>
      </g>
     </g>
    </g>
    <g id="ytick_3">
     <g id="line2d_11">
      <g>
       <use xlink:href="#m91a3eae872" x="44.22125" y="351.886667" style="stroke: #000000; stroke-width: 0.8"/>
      </g>
     </g>
    </g>
    <g id="ytick_4">
     <g id="line2d_12">
      <g>
       <use xlink:href="#m91a3eae872" x="44.22125" y="266.615" style="stroke: #000000; stroke-width: 0.8"/>
      </g>
     </g>
    </g>
    <g id="ytick_5">
     <g id="line2d_13">
      <g>
       <use xlink:href="#m91a3eae872" x="44.22125" y="181.343333" style="stroke: #000000; stroke-width: 0.8"/>
      </g>
     </g>
    </g>
    <g id="ytick_6">
     <g id="line2d_14">
      <g>
       <use xlink:href="#m91a3eae872" x="44.22125" y="96.071667" style="stroke: #000000; stroke-width: 0.8"/>
      </g>
     </g>
    </g>
    <g id="ytick_7">
     <g id="line2d_15">
      <g>
       <use xlink:href="#m91a3eae872" x="44.22125" y="10.8" style="stroke: #000000; stroke-width: 0.8"/>
      </g>
     </g>
    </g>
    <g id="text_10">
     <text style="font: 24px 'Arial', sans-serif; text-anchor: middle" x="28.17" y="266.615" transform="rotate(-90 28.17 266.615)">Distance from Hyperplane (a.u.)</text>
    </g>
   </g>
   <g id="line2d_16">
    <path d="M 44.22125 266.615 
L 57.16491 266.615 
L 70.10857 266.615 
L 83.05223 266.615 
L 95.99589 266.615 
L 108.93955 266.615 
L 121.88321 266.615 
L 134.82687 266.615 
L 147.77053 266.615 
L 160.71419 266.615 
L 173.65785 266.615 
L 186.60151 266.615 
L 199.54517 266.615 
L 212.48883 266.615 
L 225.43249 266.615 
L 238.37615 266.615 
L 251.31981 266.615 
L 264.26347 266.615 
L 277.20713 266.615 
L 290.15079 266.615 
L 303.09445 266.615 
L 316.03811 266.615 
L 328.98177 266.615 
L 341.92543 266.615 
L 354.86909 266.615 
L 367.81275 266.615 
L 380.75641 266.615 
L 393.70007 266.615 
L 406.64373 266.615 
L 419.58739 266.615 
L 432.53105 266.615 
L 445.47471 266.615 
L 458.41837 266.615 
L 471.36203 266.615 
L 484.30569 266.615 
L 497.24935 266.615 
L 510.19301 266.615 
L 523.13667 266.615 
L 536.08033 266.615 
L 549.02399 266.615 
L 561.96765 266.615 
L 574.91131 266.615 
L 587.85497 266.615 
L 600.79863 266.615 
L 613.74229 266.615 
L 626.68595 266.615 
L 639.62961 266.615 
L 652.57327 266.615 
L 665.51693 266.615 
L 678.46059 266.615 
L 691.40425 266.615 
L 704.34791 266.615 
L 717.29157 266.615 
L 730.23523 266.615 
L 743.17889 266.615 
L 756.12255 266.615 
L 769.06621 266.615 
L 782.00987 266.615 
L 794.95353 266.615 
L 807.89719 266.615 
L 820.84085 266.615 
L 833.78451 266.615 
" clip-path="url(#pa833059a46)" style="fill: none; stroke-dasharray: 5.55,2.4; stroke-dashoffset: 0; stroke: #808080; stroke-width: 1.5"/>
   </g>
   <g id="line2d_17">
    <path d="M 44.22125 281.880719 
L 57.16491 248.304698 
L 70.10857 258.41116 
L 83.05223 279.837201 
L 95.99589 248.983084 
L 108.93955 280.287706 
L 121.88321 257.942627 
L 134.82687 261.088086 
L 147.77053 263.863702 
L 160.71419 285.73311 
L 173.65785 272.386465 
L 186.60151 264.13074 
L 199.54517 262.611441 
L 212.48883 284.223205 
L 225.43249 273.033593 
L 238.37615 255.362723 
L 251.31981 271.527024 
L 264.26347 274.067718 
L 277.20713 311.915456 
L 290.15079 343.176806 
L 303.09445 354.683058 
L 316.03811 358.965253 
L 328.98177 355.223381 
L 341.92543 394.499842 
L 354.86909 414.312383 
L 367.81275 417.232907 
L 380.75641 405.549105 
L 393.70007 398.695619 
L 406.64373 390.13634 
L 419.58739 374.082678 
L 432.53105 400.227539 
L 445.47471 400.460322 
L 458.41837 406.802085 
L 471.36203 410.725142 
L 484.30569 402.642009 
L 497.24935 409.196595 
L 510.19301 408.809033 
L 523.13667 424.133216 
L 536.08033 384.82566 
L 549.02399 389.387377 
L 561.96765 396.73167 
L 574.91131 386.740757 
L 587.85497 374.019749 
L 600.79863 392.795075 
L 613.74229 380.844717 
L 626.68595 359.074163 
L 639.62961 338.636043 
L 652.57327 338.388361 
L 665.51693 353.778983 
L 678.46059 342.9032 
L 691.40425 347.540976 
L 704.34791 340.312084 
L 717.29157 365.737904 
L 730.23523 364.370763 
L 743.17889 362.67756 
L 756.12255 355.266675 
L 769.06621 360.070251 
L 782.00987 360.368412 
L 794.95353 352.320607 
L 807.89719 354.705497 
L 820.84085 371.937861 
L 833.78451 342.689758 
" clip-path="url(#pa833059a46)" style="fill: none; stroke: #87ceeb; stroke-width: 1.5; stroke-linecap: square"/>
   </g>
   <g id="line2d_18">
    <path d="M 44.22125 259.447092 
L 57.16491 285.849278 
L 70.10857 273.931861 
L 83.05223 256.450561 
L 95.99589 282.784229 
L 108.93955 264.474558 
L 121.88321 278.311462 
L 134.82687 271.952179 
L 147.77053 270.498387 
L 160.71419 250.931121 
L 173.65785 267.163414 
L 186.60151 266.310022 
L 199.54517 271.384766 
L 212.48883 241.573253 
L 225.43249 256.41364 
L 238.37615 282.70863 
L 251.31981 263.841661 
L 264.26347 261.039177 
L 277.20713 219.571186 
L 290.15079 192.34025 
L 303.09445 182.497683 
L 316.03811 174.235177 
L 328.98177 172.600505 
L 341.92543 133.586104 
L 354.86909 112.983414 
L 367.81275 114.697688 
L 380.75641 128.045778 
L 393.70007 139.702116 
L 406.64373 142.489049 
L 419.58739 160.866752 
L 432.53105 134.593805 
L 445.47471 134.501528 
L 458.41837 129.913409 
L 471.36203 126.975197 
L 484.30569 139.090247 
L 497.24935 130.146631 
L 510.19301 128.593109 
L 523.13667 115.407659 
L 536.08033 156.661139 
L 549.02399 153.179437 
L 561.96765 140.463102 
L 574.91131 148.757068 
L 587.85497 164.735785 
L 600.79863 143.97021 
L 613.74229 158.626821 
L 626.68595 180.465347 
L 639.62961 200.796819 
L 652.57327 199.398241 
L 665.51693 181.527362 
L 678.46059 194.849401 
L 691.40425 188.94775 
L 704.34791 201.337049 
L 717.29157 172.930125 
L 730.23523 173.674578 
L 743.17889 173.232931 
L 756.12255 181.568641 
L 769.06621 177.71104 
L 782.00987 182.085823 
L 794.95353 181.111258 
L 807.89719 187.293321 
L 820.84085 173.557482 
L 833.78451 197.631924 
" clip-path="url(#pa833059a46)" style="fill: none; stroke: #800080; stroke-width: 1.5; stroke-linecap: square"/>
   </g>
   <g id="patch_3">
    <path d="M 44.22125 522.43 
L 44.22125 10.8 
" style="fill: none; stroke: #000000; stroke-width: 0.8; stroke-linejoin: miter; stroke-linecap: square"/>
   </g>
   <g id="patch_4">
    <path d="M 44.22125 522.43 
L 853.2 522.43 
" style="fill: none; stroke: #000000; stroke-width: 0.8; stroke-linejoin: miter; stroke-linecap: square"/>
   </g>
   <g id="legend_1">
    <g id="patch_5">
     <path d="M 714.707813 62.278594 
L 846.2 62.278594 
Q 848.2 62.278594 848.2 60.278594 
L 848.2 17.8 
Q 848.2 15.8 846.2 15.8 
L 714.707813 15.8 
Q 712.707813 15.8 712.707813 17.8 
L 712.707813 60.278594 
Q 712.707813 62.278594 714.707813 62.278594 
z
" style="fill: #ffffff; opacity: 0.8; stroke: #cccccc; stroke-linejoin: miter"/>
    </g>
    <g id="text_11">
     <text style="font: 11px 'Arial', sans-serif; text-anchor: start" x="746.424375" y="27.673594" transform="rotate(-0 746.424375 27.673594)">Trial condition</text>
    </g>
    <g id="line2d_19">
     <path d="M 716.707813 38.645781 
L 726.707813 38.645781 
L 736.707813 38.645781 
" style="fill: none; stroke: #800080; stroke-width: 1.5; stroke-linecap: square"/>
    </g>
    <g id="text_12">
     <text style="font: 10px 'Arial', sans-serif; text-anchor: start" x="744.707813" y="42.145781" transform="rotate(-0 744.707813 42.145781)">SS2 Superset Overlap</text>
    </g>
    <g id="line2d_20">
     <path d="M 716.707813 52.791094 
L 726.707813 52.791094 
L 736.707813 52.791094 
" style="fill: none; stroke: #87ceeb; stroke-width: 1.5; stroke-linecap: square"/>
    </g>
    <g id="text_13">
     <text style="font: 10px 'Arial', sans-serif; text-anchor: start" x="744.707813" y="56.291094" transform="rotate(-0 744.707813 56.291094)">SS1 Broad</text>
    </g>
   </g>
  </g>
 </g>
 <defs>
  <clipPath id="pa833059a46">
   <rect x="44.22125" y="10.8" width="808.97875" height="511.63"/>
  </clipPath>
 </defs>
</svg>
