<?xml version="1.0" encoding="utf-8" standalone="no"?>
<!DOCTYPE svg PUBLIC "-//W3C//DTD SVG 1.1//EN"
  "http://www.w3.org/Graphics/SVG/1.1/DTD/svg11.dtd">
<svg xmlns:xlink="http://www.w3.org/1999/xlink" width="720pt" height="432pt" viewBox="0 0 720 432" xmlns="http://www.w3.org/2000/svg" version="1.1">
 <metadata>
  <rdf:RDF xmlns:dc="http://purl.org/dc/elements/1.1/" xmlns:cc="http://creativecommons.org/ns#" xmlns:rdf="http://www.w3.org/1999/02/22-rdf-syntax-ns#">
   <cc:Work>
    <dc:type rdf:resource="http://purl.org/dc/dcmitype/StillImage"/>
    <dc:date>2024-01-15T10:57:06.789586</dc:date>
    <dc:format>image/svg+xml</dc:format>
    <dc:creator>
     <cc:Agent>
      <dc:title>Matplotlib v3.7.1, https://matplotlib.org/</dc:title>
     </cc:Agent>
    </dc:creator>
   </cc:Work>
  </rdf:RDF>
 </metadata>
 <defs>
  <style type="text/css">*{stroke-linejoin: round; stroke-linecap: butt}</style>
 </defs>
 <g id="figure_1">
  <g id="patch_1">
   <path d="M 0 432 
L 720 432 
L 720 0 
L 0 0 
z
" style="fill: #ffffff"/>
  </g>
  <g id="axes_1">
   <g id="patch_2">
    <path d="M 62.57 390.04 
L 709.2 390.04 
L 709.2 10.8 
L 62.57 10.8 
z
" style="fill: #ffffff"/>
   </g>
   <g id="PolyCollection_1">
    <defs>
     <path id="m4a4ee7c663" d="M 166.68839 -421.2 
L 166.68839 -41.96 
L 276.286695 -41.96 
L 276.286695 -421.2 
L 276.286695 -421.2 
L 166.68839 -421.2 
z
" style="stroke: #808080; stroke-opacity: 0.5"/>
    </defs>
    <g clip-path="url(#pb9e2cf6106)">
     <use xlink:href="#m4a4ee7c663" x="0" y="432" style="fill: #808080; fill-opacity: 0.5; stroke: #808080; stroke-opacity: 0.5"/>
    </g>
   </g>
   <g id="PolyCollection_2">
    <defs>
     <path id="mbef86564f9" d="M 62.57 -119.501854 
L 62.57 -72.752932 
L 73.091437 -74.648556 
L 83.612875 -80.484167 
L 94.134312 -80.992638 
L 104.655749 -76.430815 
L 115.177186 -67.61772 
L 125.698624 -69.989302 
L 136.220061 -79.119787 
L 146.741498 -80.095366 
L 157.262936 -82.348331 
L 167.784373 -86.262121 
L 178.30581 -97.970127 
L 188.827247 -133.679427 
L 199.348685 -166.069514 
L 209.870122 -190.518486 
L 220.391559 -205.017881 
L 230.912997 -210.271743 
L 241.434434 -211.691625 
L 251.955871 -209.130464 
L 262.477308 -206.764368 
L 272.998746 -196.037532 
L 283.520183 -172.143494 
L 294.04162 -163.350674 
L 304.563058 -159.667064 
L 315.084495 -160.619172 
L 325.605932 -159.362294 
L 336.127369 -159.866116 
L 346.648807 -157.543613 
L 357.170244 -159.764537 
L 367.691681 -169.754887 
L 378.213119 -173.618673 
L 388.734556 -185.824845 
L 399.255993 -181.006234 
L 409.777431 -177.505823 
L 420.298868 -172.175128 
L 430.820305 -167.932493 
L 441.341742 -171.464288 
L 451.86318 -170.02074 
L 462.384617 -171.744925 
L 472.906054 -173.060264 
L 483.427492 -170.119572 
L 493.948929 -168.351274 
L 504.470366 -160.729501 
L 514.991803 -150.335616 
L 525.513241 -139.048798 
L 536.034678 -129.27944 
L 546.556115 -128.594947 
L 557.077553 -125.267727 
L 567.59899 -120.725174 
L 578.120427 -113.448724 
L 588.641864 -114.438463 
L 599.163302 -124.870195 
L 609.684739 -128.446478 
L 620.206176 -129.562256 
L 630.727614 -129.602816 
L 641.249051 -124.336083 
L 651.770488 -117.02913 
L 662.291925 -105.580066 
L 672.813363 -98.986078 
L 683.3348 -93.002173 
L 693.856237 -90.844548 
L 704.377675 -88.001969 
L 704.377675 -142.770019 
L 704.377675 -142.770019 
L 693.856237 -149.820837 
L 683.3348 -152.870119 
L 672.813363 -156.712226 
L 662.291925 -158.70633 
L 651.770488 -164.48269 
L 641.249051 -174.868044 
L 630.727614 -185.122616 
L 620.206176 -190.06619 
L 609.684739 -195.858144 
L 599.163302 -192.244914 
L 588.641864 -186.54354 
L 578.120427 -183.2273 
L 567.59899 -188.893341 
L 557.077553 -200.389829 
L 546.556115 -200.153415 
L 536.034678 -209.862393 
L 525.513241 -229.340554 
L 514.991803 -243.160033 
L 504.470366 -252.754791 
L 493.948929 -259.914707 
L 483.427492 -262.769149 
L 472.906054 -268.173843 
L 462.384617 -265.524199 
L 451.86318 -266.676689 
L 441.341742 -264.751311 
L 430.820305 -266.304606 
L 420.298868 -273.022276 
L 409.777431 -278.157524 
L 399.255993 -282.103102 
L 388.734556 -284.465724 
L 378.213119 -277.811466 
L 367.691681 -261.895668 
L 357.170244 -247.864227 
L 346.648807 -242.731699 
L 336.127369 -234.593721 
L 325.605932 -224.004098 
L 315.084495 -221.173351 
L 304.563058 -225.763982 
L 294.04162 -230.512952 
L 283.520183 -239.462278 
L 272.998746 -260.983729 
L 262.477308 -282.472942 
L 251.955871 -293.025552 
L 241.434434 -302.171399 
L 230.912997 -290.995303 
L 220.391559 -275.034689 
L 209.870122 -258.250277 
L 199.348685 -228.37368 
L 188.827247 -186.337693 
L 178.30581 -141.56818 
L 167.784373 -121.089466 
L 157.262936 -119.649137 
L 146.741498 -119.825077 
L 136.220061 -120.618555 
L 125.698624 -119.573883 
L 115.177186 -119.170356 
L 104.655749 -123.07135 
L 94.134312 -132.560077 
L 83.612875 -132.243366 
L 73.091437 -128.990647 
L 62.57 -119.501854 
z
" style="stroke: #87ceeb; stroke-opacity: 0.2"/>
    </defs>
    <g clip-path="url(#pb9e2cf6106)">
     <use xlink:href="#mbef86564f9" x="0" y="432" style="fill: #87ceeb; fill-opacity: 0.2; stroke: #87ceeb; stroke-opacity: 0.2"/>
    </g>
   </g>
   <g id="PolyCollection_3">
    <defs>
     <path id="m6bcfa03425" d="M 62.57 -179.112469 
L 62.57 -92.249379 
L 73.091437 -100.620887 
L 83.612875 -98.584903 
L 94.134312 -91.643085 
L 104.655749 -77.207881 
L 115.177186 -71.367975 
L 125.698624 -75.528352 
L 136.220061 -86.006137 
L 146.741498 -90.544038 
L 157.262936 -86.166672 
L 167.784373 -74.416812 
L 178.30581 -70.893004 
L 188.827247 -78.884484 
L 199.348685 -116.62258 
L 209.870122 -161.748137 
L 220.391559 -188.011511 
L 230.912997 -205.947918 
L 241.434434 -217.825026 
L 251.955871 -221.537412 
L 262.477308 -217.115706 
L 272.998746 -192.508327 
L 283.520183 -176.354041 
L 294.04162 -168.225665 
L 304.563058 -175.350456 
L 315.084495 -168.818052 
L 325.605932 -166.337002 
L 336.127369 -176.780646 
L 346.648807 -178.904045 
L 357.170244 -183.225554 
L 367.691681 -189.147427 
L 378.213119 -181.38041 
L 388.734556 -172.645545 
L 399.255993 -167.122217 
L 409.777431 -159.578752 
L 420.298868 -156.079015 
L 430.820305 -150.017392 
L 441.341742 -157.896708 
L 451.86318 -167.427553 
L 462.384617 -167.813728 
L 472.906054 -159.256729 
L 483.427492 -168.233902 
L 493.948929 -182.792317 
L 504.470366 -182.38916 
L 514.991803 -162.601136 
L 525.513241 -138.158734 
L 536.034678 -121.706286 
L 546.556115 -127.026106 
L 557.077553 -120.147671 
L 567.59899 -113.275464 
L 578.120427 -120.592466 
L 588.641864 -135.893109 
L 599.163302 -155.665287 
L 609.684739 -162.391952 
L 620.206176 -160.093099 
L 630.727614 -153.154932 
L 641.249051 -153.858 
L 651.770488 -158.046181 
L 662.291925 -163.242512 
L 672.813363 -152.234251 
L 683.3348 -139.698765 
L 693.856237 -130.510721 
L 704.377675 -114.748984 
L 704.377675 -189.284687 
L 704.377675 -189.284687 
L 693.856237 -206.472705 
L 683.3348 -227.143485 
L 672.813363 -235.536302 
L 662.291925 -244.152163 
L 651.770488 -245.90093 
L 641.249051 -245.098042 
L 630.727614 -250.981243 
L 620.206176 -263.370667 
L 609.684739 -265.881586 
L 599.163302 -269.41217 
L 588.641864 -251.302064 
L 578.120427 -232.04346 
L 567.59899 -227.112239 
L 557.077553 -225.213684 
L 546.556115 -226.795441 
L 536.034678 -227.730845 
L 525.513241 -240.15673 
L 514.991803 -261.023245 
L 504.470366 -275.577131 
L 493.948929 -281.27972 
L 483.427492 -282.366745 
L 472.906054 -284.790008 
L 462.384617 -285.6813 
L 451.86318 -276.975559 
L 441.341742 -266.737249 
L 430.820305 -257.906748 
L 420.298868 -258.869441 
L 409.777431 -272.254993 
L 399.255993 -282.58682 
L 388.734556 -285.786197 
L 378.213119 -288.784058 
L 367.691681 -285.750068 
L 357.170244 -276.068135 
L 346.648807 -265.978574 
L 336.127369 -258.702839 
L 325.605932 -251.391942 
L 315.084495 -258.262264 
L 304.563058 -259.672079 
L 294.04162 -262.023148 
L 283.520183 -263.113243 
L 272.998746 -271.061151 
L 262.477308 -290.266406 
L 251.955871 -300.740612 
L 241.434434 -297.089859 
L 230.912997 -285.44764 
L 220.391559 -261.77358 
L 209.870122 -232.900143 
L 199.348685 -189.411339 
L 188.827247 -145.360528 
L 178.30581 -127.252831 
L 167.784373 -135.451168 
L 157.262936 -142.752079 
L 146.741498 -147.15853 
L 136.220061 -147.83738 
L 125.698624 -140.436991 
L 115.177186 -133.90677 
L 104.655749 -136.033786 
L 94.134312 -154.823351 
L 83.612875 -169.790469 
L 73.091437 -186.658055 
L 62.57 -179.112469 
z
" style="stroke: #800080; stroke-opacity: 0.2"/>
    </defs>
    <g clip-path="url(#pb9e2cf6106)">
     <use xlink:href="#m6bcfa03425" x="0" y="432" style="fill: #800080; fill-opacity: 0.2; stroke: #800080; stroke-opacity: 0.2"/>
    </g>
   </g>
   <g id="matplotlib.axis_1">
    <g id="xtick_1">
     <g id="line2d_1">
      <defs>
       <path id="m4331cbb674" d="M 0 0 
L 0 3.5 
" style="stroke: #000000; stroke-width: 0.8"/>
      </defs>
      <g>
       <use xlink:href="#m4331cbb674" x="79.009746" y="390.04" style="stroke: #000000; stroke-width: 0.8"/>
      </g>
     </g>
     <g id="text_1">
      <text style="font: 10px 'DejaVu Sans', 'Bitstream Vera Sans', 'Computer Modern Sans Serif', 'Lucida Grande', 'Verdana', 'Geneva', 'Lucid', 'Arial', 'Helvetica', 'Avant Garde', sans-serif; text-anchor: middle" x="79.009746" y="404.638438" transform="rotate(-0 79.009746 404.638438)">−200</text>
     </g>
    </g>
    <g id="xtick_2">
     <g id="line2d_2">
      <g>
       <use xlink:href="#m4331cbb674" x="166.68839" y="390.04" style="stroke: #000000; stroke-width: 0.8"/>
      </g>
     </g>
     <g id="text_2">
      <text style="font: 10px 'DejaVu Sans', 'Bitstream Vera Sans', 'Computer Modern Sans Serif', 'Lucida Grande', 'Verdana', 'Geneva', 'Lucid', 'Arial', 'Helvetica', 'Avant Garde', sans-serif; text-anchor: middle" x="166.68839" y="404.638438" transform="rotate(-0 166.68839 404.638438)">0</text>
     </g>
    </g>
    <g id="xtick_3">
     <g id="line2d_3">
      <g>
       <use xlink:href="#m4331cbb674" x="254.367034" y="390.04" style="stroke: #000000; stroke-width: 0.8"/>
      </g>
     </g>
     <g id="text_3">
      <text style="font: 10px 'DejaVu Sans', 'Bitstream Vera Sans', 'Computer Modern Sans Serif', 'Lucida Grande', 'Verdana', 'Geneva', 'Lucid', 'Arial', 'Helvetica', 'Avant Garde', sans-serif; text-anchor: middle" x="254.367034" y="404.638438" transform="rotate(-0 254.367034 404.638438)">200</text>
     </g>
    </g>
    <g id="xtick_4">
     <g id="line2d_4">
      <g>
       <use xlink:href="#m4331cbb674" x="342.045678" y="390.04" style="stroke: #000000; stroke-width: 0.8"/>
      </g>
     </g>
     <g id="text_4">
      <text style="font: 10px 'DejaVu Sans', 'Bitstream Vera Sans', 'Computer Modern Sans Serif', 'Lucida Grande', 'Verdana', 'Geneva', 'Lucid', 'Arial', 'Helvetica', 'Avant Garde', sans-serif; text-anchor: middle" x="342.045678" y="404.638438" transform="rotate(-0 342.045678 404.638438)">400</text>
     </g>
    </g>
    <g id="xtick_5">
     <g id="line2d_5">
      <g>
       <use xlink:href="#m4331cbb674" x="429.724322" y="390.04" style="stroke: #000000; stroke-width: 0.8"/>
      </g>
     </g>
     <g id="text_5">
      <text style="font: 10px 'DejaVu Sans', 'Bitstream Vera Sans', 'Computer Modern Sans Serif', 'Lucida Grande', 'Verdana', 'Geneva', 'Lucid', 'Arial', 'Helvetica', 'Avant Garde', sans-serif; text-anchor: middle" x="429.724322" y="404.638438" transform="rotate(-0 429.724322 404.638438)">600</text>
     </g>
    </g>
    <g id="xtick_6">
     <g id="line2d_6">
      <g>
       <use xlink:href="#m4331cbb674" x="517.402966" y="390.04" style="stroke: #000000; stroke-width: 0.8"/>
      </g>
     </g>
     <g id="text_6">
      <text style="font: 10px 'DejaVu Sans', 'Bitstream Vera Sans', 'Computer Modern Sans Serif', 'Lucida Grande', 'Verdana', 'Geneva', 'Lucid', 'Arial', 'Helvetica', 'Avant Garde', sans-serif; text-anchor: middle" x="517.402966" y="404.638438" transform="rotate(-0 517.402966 404.638438)">800</text>
     </g>
    </g>
    <g id="xtick_7">
     <g id="line2d_7">
      <g>
       <use xlink:href="#m4331cbb674" x="605.08161" y="390.04" style="stroke: #000000; stroke-width: 0.8"/>
      </g>
     </g>
     <g id="text_7">
      <text style="font: 10px 'DejaVu Sans', 'Bitstream Vera Sans', 'Computer Modern Sans Serif', 'Lucida Grande', 'Verdana', 'Geneva', 'Lucid', 'Arial', 'Helvetica', 'Avant Garde', sans-serif; text-anchor: middle" x="605.08161" y="404.638438" transform="rotate(-0 605.08161 404.638438)">1000</text>
     </g>
    </g>
    <g id="xtick_8">
     <g id="line2d_8">
      <g>
       <use xlink:href="#m4331cbb674" x="692.760254" y="390.04" style="stroke: #000000; stroke-width: 0.8"/>
      </g>
     </g>
     <g id="text_8">
      <text style="font: 10px 'DejaVu Sans', 'Bitstream Vera Sans', 'Computer Modern Sans Serif', 'Lucida Grande', 'Verdana', 'Geneva', 'Lucid', 'Arial', 'Helvetica', 'Avant Garde', sans-serif; text-anchor: middle" x="692.760254" y="404.638438" transform="rotate(-0 692.760254 404.638438)">1200</text>
     </g>
    </g>
    <g id="text_9">
     <text style="font: 10px 'DejaVu Sans', 'Bitstream Vera Sans', 'Computer Modern Sans Serif', 'Lucida Grande', 'Verdana', 'Geneva', 'Lucid', 'Arial', 'Helvetica', 'Avant Garde', sans-serif; text-anchor: middle" x="385.885" y="418.316562" transform="rotate(-0 385.885 418.316562)">time</text>
    </g>
   </g>
   <g id="matplotlib.axis_2">
    <g id="ytick_1">
     <g id="line2d_9">
      <defs>
       <path id="m49bf3d7b0e" d="M 0 0 
L -3.5 0 
" style="stroke: #000000; stroke-width: 0.8"/>
      </defs>
      <g>
       <use xlink:href="#m49bf3d7b0e" x="62.57" y="390.04" style="stroke: #000000; stroke-width: 0.8"/>
      </g>
     </g>
     <g id="text_10">
      <text style="font: 10px 'DejaVu Sans', 'Bitstream Vera Sans', 'Computer Modern Sans Serif', 'Lucida Grande', 'Verdana', 'Geneva', 'Lucid', 'Arial', 'Helvetica', 'Avant Garde', sans-serif; text-anchor: end" x="55.57" y="393.839219" transform="rotate(-0 55.57 393.839219)">−0.02</text>
     </g>
    </g>
    <g id="ytick_2">
     <g id="line2d_10">
      <g>
       <use xlink:href="#m49bf3d7b0e" x="62.57" y="345.423529" style="stroke: #000000; stroke-width: 0.8"/>
      </g>
     </g>
     <g id="text_11">
      <text style="font: 10px 'DejaVu Sans', 'Bitstream Vera Sans', 'Computer Modern Sans Serif', 'Lucida Grande', 'Verdana', 'Geneva', 'Lucid', 'Arial', 'Helvetica', 'Avant Garde', sans-serif; text-anchor: end" x="55.57" y="349.222748" transform="rotate(-0 55.57 349.222748)">0.00</text>
     </g>
    </g>
    <g id="ytick_3">
     <g id="line2d_11">
      <g>
       <use xlink:href="#m49bf3d7b0e" x="62.57" y="300.807059" style="stroke: #000000; stroke-width: 0.8"/>
      </g>
     </g>
     <g id="text_12">
      <text style="font: 10px 'DejaVu Sans', 'Bitstream Vera Sans', 'Computer Modern Sans Serif', 'Lucida Grande', 'Verdana', 'Geneva', 'Lucid', 'Arial', 'Helvetica', 'Avant Garde', sans-serif; text-anchor: end" x="55.57" y="304.606278" transform="rotate(-0 55.57 304.606278)">0.02</text>
     </g>
    </g>
    <g id="ytick_4">
     <g id="line2d_12">
      <g>
       <use xlink:href="#m49bf3d7b0e" x="62.57" y="256.190588" style="stroke: #000000; stroke-width: 0.8"/>
      </g>
     </g>
     <g id="text_13">
      <text style="font: 10px 'DejaVu Sans', 'Bitstream Vera Sans', 'Computer Modern Sans Serif', 'Lucida Grande', 'Verdana', 'Geneva', 'Lucid', 'Arial', 'Helvetica', 'Avant Garde', sans-serif; text-anchor: end" x="55.57" y="259.989807" transform="rotate(-0 55.57 259.989807)">0.04</text>
     </g>
    </g>
    <g id="ytick_5">
     <g id="line2d_13">
      <g>
       <use xlink:href="#m49bf3d7b0e" x="62.57" y="211.574118" style="stroke: #000000; stroke-width: 0.8"/>
      </g>
     </g>
     <g id="text_14">
      <text style="font: 10px 'DejaVu Sans', 'Bitstream Vera Sans', 'Computer Modern Sans Serif', 'Lucida Grande', 'Verdana', 'Geneva', 'Lucid', 'Arial', 'Helvetica', 'Avant Garde', sans-serif; text-anchor: end" x="55.57" y="215.373336" transform="rotate(-0 55.57 215.373336)">0.06</text>
     </g>
    </g>
    <g id="ytick_6">
     <g id="line2d_14">
      <g>
       <use xlink:href="#m49bf3d7b0e" x="62.57" y="166.957647" style="stroke: #000000; stroke-width: 0.8"/>
      </g>
     </g>
     <g id="text_15">
      <text style="font: 10px 'DejaVu Sans', 'Bitstream Vera Sans', 'Computer Modern Sans Serif', 'Lucida Grande', 'Verdana', 'Geneva', 'Lucid', 'Arial', 'Helvetica', 'Avant Garde', sans-serif; text-anchor: end" x="55.57" y="170.756866" transform="rotate(-0 55.57 170.756866)">0.08</text>
     </g>
    </g>
    <g id="ytick_7">
     <g id="line2d_15">
      <g>
       <use xlink:href="#m49bf3d7b0e" x="62.57" y="122.341176" style="stroke: #000000; stroke-width: 0.8"/>
      </g>
     </g>
     <g id="text_16">
      <text style="font: 10px 'DejaVu Sans', 'Bitstream Vera Sans', 'Computer Modern Sans Serif', 'Lucida Grande', 'Verdana', 'Geneva', 'Lucid', 'Arial', 'Helvetica', 'Avant Garde', sans-serif; text-anchor: end" x="55.57" y="126.140395" transform="rotate(-0 55.57 126.140395)">0.10</text>
     </g>
    </g>
    <g id="ytick_8">
     <g id="line2d_16">
      <g>
       <use xlink:href="#m49bf3d7b0e" x="62.57" y="77.724706" style="stroke: #000000; stroke-width: 0.8"/>
      </g>
     </g>
     <g id="text_17">
      <text style="font: 10px 'DejaVu Sans', 'Bitstream Vera Sans', 'Computer Modern Sans Serif', 'Lucida Grande', 'Verdana', 'Geneva', 'Lucid', 'Arial', 'Helvetica', 'Avant Garde', sans-serif; text-anchor: end" x="55.57" y="81.523925" transform="rotate(-0 55.57 81.523925)">0.12</text>
     </g>
    </g>
    <g id="ytick_9">
     <g id="line2d_17">
      <g>
       <use xlink:href="#m49bf3d7b0e" x="62.57" y="33.108235" style="stroke: #000000; stroke-width: 0.8"/>
      </g>
     </g>
     <g id="text_18">
      <text style="font: 10px 'DejaVu Sans', 'Bitstream Vera Sans', 'Computer Modern Sans Serif', 'Lucida Grande', 'Verdana', 'Geneva', 'Lucid', 'Arial', 'Helvetica', 'Avant Garde', sans-serif; text-anchor: end" x="55.57" y="36.907454" transform="rotate(-0 55.57 36.907454)">0.14</text>
     </g>
    </g>
    <g id="text_19">
     <text style="font: 10px 'DejaVu Sans', 'Bitstream Vera Sans', 'Computer Modern Sans Serif', 'Lucida Grande', 'Verdana', 'Geneva', 'Lucid', 'Arial', 'Helvetica', 'Avant Garde', sans-serif; text-anchor: middle" x="18.845" y="200.42" transform="rotate(-90 18.845 200.42)">Slope</text>
    </g>
   </g>
   <g id="line2d_18">
    <path d="M 62.57 345.423529 
L 709.2 345.423529 
" clip-path="url(#pb9e2cf6106)" style="fill: none; stroke-dasharray: 7.4,3.2; stroke-dashoffset: 0; stroke: #000000; stroke-width: 2"/>
   </g>
   <g id="line2d_19">
    <path d="M 62.57 336.612832 
L 73.091437 330.022268 
L 83.612875 324.929567 
L 94.134312 325.336981 
L 104.655749 331.802037 
L 115.177186 338.03875 
L 125.698624 336.471826 
L 136.220061 332.303868 
L 146.741498 330.981553 
L 157.262936 329.713219 
L 167.784373 328.320292 
L 178.30581 311.738209 
L 188.827247 271.962543 
L 199.348685 235.321313 
L 209.870122 208.100886 
L 220.391559 189.40985 
L 230.912997 180.135835 
L 241.434434 175.895573 
L 251.955871 176.665346 
L 262.477308 184.448849 
L 272.998746 204.546839 
L 283.520183 226.144281 
L 294.04162 235.126393 
L 304.563058 240.820885 
L 315.084495 243.686629 
L 325.605932 240.653179 
L 336.127369 235.577558 
L 346.648807 232.38335 
L 357.170244 227.527771 
L 367.691681 216.789065 
L 378.213119 203.970034 
L 388.734556 198.946287 
L 399.255993 201.970351 
L 409.777431 206.971216 
L 420.298868 211.648525 
L 430.820305 215.358444 
L 441.341742 216.682616 
L 451.86318 216.168645 
L 462.384617 214.459759 
L 472.906054 213.676986 
L 483.427492 216.057629 
L 493.948929 220.689414 
L 504.470366 227.476351 
L 514.991803 234.917105 
L 525.513241 248.360837 
L 536.034678 262.764442 
L 546.556115 269.232702 
L 557.077553 271.872549 
L 567.59899 276.675831 
L 578.120427 283.489957 
L 588.641864 282.52351 
L 599.163302 274.844608 
L 609.684739 270.390127 
L 620.206176 271.392142 
L 630.727614 274.999594 
L 641.249051 283.021381 
L 651.770488 291.853446 
L 662.291925 299.696503 
L 672.813363 304.81499 
L 683.3348 308.723812 
L 693.856237 312.731339 
L 704.377675 317.995071 
" clip-path="url(#pb9e2cf6106)" style="fill: none; stroke: #87ceeb; stroke-width: 2; stroke-linecap: square"/>
   </g>
   <g id="line2d_20">
    <path d="M 62.57 296.649686 
L 73.091437 291.001672 
L 83.612875 297.943419 
L 94.134312 311.038729 
L 104.655749 326.034634 
L 115.177186 331.901269 
L 125.698624 324.854515 
L 136.220061 316.652671 
L 146.741498 313.578506 
L 157.262936 317.605244 
L 167.784373 327.023761 
L 178.30581 333.242896 
L 188.827247 320.074173 
L 199.348685 279.886556 
L 209.870122 235.234877 
L 220.391559 204.240987 
L 230.912997 185.543636 
L 241.434434 175.109016 
L 251.955871 170.172371 
L 262.477308 177.663159 
L 272.998746 197.382453 
L 283.520183 213.502845 
L 294.04162 219.429572 
L 304.563058 216.677738 
L 315.084495 220.632704 
L 325.605932 223.022278 
L 336.127369 214.787518 
L 346.648807 205.708178 
L 357.170244 199.04819 
L 367.691681 194.175801 
L 378.213119 197.452435 
L 388.734556 205.013962 
L 399.255993 209.434658 
L 409.777431 214.419044 
L 420.298868 224.4421 
L 430.820305 227.959041 
L 441.341742 222.450492 
L 451.86318 210.471401 
L 462.384617 204.92771 
L 472.906054 208.559024 
L 483.427492 206.256268 
L 493.948929 200.825743 
L 504.470366 203.776649 
L 514.991803 222.58495 
L 525.513241 245.075014 
L 536.034678 257.250683 
L 546.556115 259.063099 
L 557.077553 259.796232 
L 567.59899 261.809803 
L 578.120427 254.718091 
L 588.641864 238.029316 
L 599.163302 222.007438 
L 609.684739 217.018285 
L 620.206176 221.437868 
L 630.727614 228.490175 
L 641.249051 233.26511 
L 651.770488 229.30774 
L 662.291925 228.290329 
L 672.813363 237.74811 
L 683.3348 251.059766 
L 693.856237 265.737295 
L 704.377675 280.999569 
" clip-path="url(#pb9e2cf6106)" style="fill: none; stroke: #800080; stroke-width: 2; stroke-linecap: square"/>
   </g>
   <g id="line2d_21"/>
   <g id="line2d_22"/>
   <g id="patch_3">
    <path d="M 62.57 390.04 
L 62.57 10.8 
" style="fill: none; stroke: #000000; stroke-width: 0.8; stroke-linejoin: miter; stroke-linecap: square"/>
   </g>
   <g id="patch_4">
    <path d="M 709.2 390.04 
L 709.2 10.8 
" style="fill: none; stroke: #000000; stroke-width: 0.8; stroke-linejoin: miter; stroke-linecap: square"/>
   </g>
   <g id="patch_5">
    <path d="M 62.57 390.04 
L 709.2 390.04 
" style="fill: none; stroke: #000000; stroke-width: 0.8; stroke-linejoin: miter; stroke-linecap: square"/>
   </g>
   <g id="patch_6">
    <path d="M 62.57 10.8 
L 709.2 10.8 
" style="fill: none; stroke: #000000; stroke-width: 0.8; stroke-linejoin: miter; stroke-linecap: square"/>
   </g>
   <g id="legend_1">
    <g id="patch_7">
     <path d="M 603.38125 62.834375 
L 702.2 62.834375 
Q 704.2 62.834375 704.2 60.834375 
L 704.2 17.8 
Q 704.2 15.8 702.2 15.8 
L 603.38125 15.8 
Q 601.38125 15.8 601.38125 17.8 
L 601.38125 60.834375 
Q 601.38125 62.834375 603.38125 62.834375 
z
" style="fill: #ffffff; opacity: 0.8; stroke: #cccccc; stroke-linejoin: miter"/>
    </g>
    <g id="text_20">
     <text style="font: 10px 'DejaVu Sans', 'Bitstream Vera Sans', 'Computer Modern Sans Serif', 'Lucida Grande', 'Verdana', 'Geneva', 'Lucid', 'Arial', 'Helvetica', 'Avant Garde', sans-serif; text-anchor: start" x="629.672656" y="27.398438" transform="rotate(-0 629.672656 27.398438)">condition</text>
    </g>
    <g id="line2d_23">
     <path d="M 605.38125 38.576563 
L 615.38125 38.576563 
L 625.38125 38.576563 
" style="fill: none; stroke: #87ceeb; stroke-width: 1.5; stroke-linecap: square"/>
    </g>
    <g id="text_21">
     <text style="font: 10px 'DejaVu Sans', 'Bitstream Vera Sans', 'Computer Modern Sans Serif', 'Lucida Grande', 'Verdana', 'Geneva', 'Lucid', 'Arial', 'Helvetica', 'Avant Garde', sans-serif; text-anchor: start" x="633.38125" y="42.076563" transform="rotate(-0 633.38125 42.076563)">SS1 Broad</text>
    </g>
    <g id="line2d_24">
     <path d="M 605.38125 53.254688 
L 615.38125 53.254688 
L 625.38125 53.254688 
" style="fill: none; stroke: #800080; stroke-width: 1.5; stroke-linecap: square"/>
    </g>
    <g id="text_22">
     <text style="font: 10px 'DejaVu Sans', 'Bitstream Vera Sans', 'Computer Modern Sans Serif', 'Lucida Grande', 'Verdana', 'Geneva', 'Lucid', 'Arial', 'Helvetica', 'Avant Garde', sans-serif; text-anchor: start" x="633.38125" y="56.754688" transform="rotate(-0 633.38125 56.754688)">SS2 Superset</text>
    </g>
   </g>
  </g>
 </g>
 <defs>
  <clipPath id="pb9e2cf6106">
   <rect x="62.57" y="10.8" width="646.63" height="379.24"/>
  </clipPath>
 </defs>
</svg>
