<?xml version="1.0" encoding="utf-8" standalone="no"?>
<!DOCTYPE svg PUBLIC "-//W3C//DTD SVG 1.1//EN"
  "http://www.w3.org/Graphics/SVG/1.1/DTD/svg11.dtd">
<svg xmlns:xlink="http://www.w3.org/1999/xlink" width="720pt" height="432pt" viewBox="0 0 720 432" xmlns="http://www.w3.org/2000/svg" version="1.1">
 <metadata>
  <rdf:RDF xmlns:dc="http://purl.org/dc/elements/1.1/" xmlns:cc="http://creativecommons.org/ns#" xmlns:rdf="http://www.w3.org/1999/02/22-rdf-syntax-ns#">
   <cc:Work>
    <dc:type rdf:resource="http://purl.org/dc/dcmitype/StillImage"/>
    <dc:date>2024-01-29T12:35:49.692649</dc:date>
    <dc:format>image/svg+xml</dc:format>
    <dc:creator>
     <cc:Agent>
      <dc:title>Matplotlib v3.7.1, https://matplotlib.org/</dc:title>
     </cc:Agent>
    </dc:creator>
   </cc:Work>
  </rdf:RDF>
 </metadata>
 <defs>
  <style type="text/css">*{stroke-linejoin: round; stroke-linecap: butt}</style>
 </defs>
 <g id="figure_1">
  <g id="patch_1">
   <path d="M 0 432 
L 720 432 
L 720 0 
L 0 0 
z
" style="fill: #ffffff"/>
  </g>
  <g id="axes_1">
   <g id="patch_2">
    <path d="M 54.2 390.04 
L 709.2 390.04 
L 709.2 10.8 
L 54.2 10.8 
z
" style="fill: #ffffff"/>
   </g>
   <g id="PolyCollection_1">
    <defs>
     <path id="mf589ffe0d9" d="M 159.666102 -400.131111 
L 159.666102 -41.96 
L 270.683051 -41.96 
L 270.683051 -400.131111 
L 270.683051 -400.131111 
L 159.666102 -400.131111 
z
" style="stroke: #808080; stroke-opacity: 0.5"/>
    </defs>
    <g clip-path="url(#pd54f7839d2)">
     <use xlink:href="#mf589ffe0d9" x="0" y="432" style="fill: #808080; fill-opacity: 0.5; stroke: #808080; stroke-opacity: 0.5"/>
    </g>
   </g>
   <g id="PolyCollection_2">
    <defs>
     <path id="m8c28463b30" d="M 54.2 -109.473093 
L 54.2 -48.79527 
L 64.857627 -49.521975 
L 75.515254 -61.186903 
L 86.172881 -56.174795 
L 96.830508 -51.143993 
L 107.488136 -51.394747 
L 118.145763 -53.117621 
L 128.80339 -51.842148 
L 139.461017 -46.717336 
L 150.118644 -41.002216 
L 160.776271 -32.764276 
L 171.433898 -38.737269 
L 182.091525 -57.384159 
L 192.749153 -85.398005 
L 203.40678 -131.16442 
L 214.064407 -171.082493 
L 224.722034 -198.999106 
L 235.379661 -212.574297 
L 246.037288 -214.103983 
L 256.694915 -216.671283 
L 267.352542 -223.723465 
L 278.010169 -230.391541 
L 288.667797 -222.127363 
L 299.325424 -224.151034 
L 309.983051 -236.327504 
L 320.640678 -227.677696 
L 331.298305 -214.180465 
L 341.955932 -206.163929 
L 352.613559 -209.129055 
L 363.271186 -200.385418 
L 373.928814 -205.043518 
L 384.586441 -208.626238 
L 395.244068 -215.10503 
L 405.901695 -216.87221 
L 416.559322 -208.871613 
L 427.216949 -205.707303 
L 437.874576 -196.209831 
L 448.532203 -198.589874 
L 459.189831 -203.22009 
L 469.847458 -198.905108 
L 480.505085 -184.335931 
L 491.162712 -169.087138 
L 501.820339 -157.041478 
L 512.477966 -157.009093 
L 523.135593 -151.413342 
L 533.79322 -139.599608 
L 544.450847 -136.078151 
L 555.108475 -138.923137 
L 565.766102 -128.577527 
L 576.423729 -129.59054 
L 587.081356 -128.644695 
L 597.738983 -135.733914 
L 608.39661 -140.117455 
L 619.054237 -140.966654 
L 629.711864 -139.194906 
L 640.369492 -133.310599 
L 651.027119 -132.99757 
L 661.684746 -130.805229 
L 672.342373 -120.513369 
L 683 -117.048844 
L 693.657627 -107.733969 
L 704.315254 -106.739648 
L 704.315254 -169.499463 
L 704.315254 -169.499463 
L 693.657627 -182.810079 
L 683 -191.490889 
L 672.342373 -195.449909 
L 661.684746 -201.24442 
L 651.027119 -210.850567 
L 640.369492 -216.965823 
L 629.711864 -218.782743 
L 619.054237 -218.624633 
L 608.39661 -222.254502 
L 597.738983 -222.195124 
L 587.081356 -222.448646 
L 576.423729 -228.822474 
L 565.766102 -229.334548 
L 555.108475 -238.595981 
L 544.450847 -239.855509 
L 533.79322 -247.659031 
L 523.135593 -258.994996 
L 512.477966 -260.543477 
L 501.820339 -263.821056 
L 491.162712 -267.394388 
L 480.505085 -284.170679 
L 469.847458 -298.911607 
L 459.189831 -314.749354 
L 448.532203 -321.662524 
L 437.874576 -329.039085 
L 427.216949 -331.703784 
L 416.559322 -330.164868 
L 405.901695 -330.801634 
L 395.244068 -335.990143 
L 384.586441 -324.842111 
L 373.928814 -319.88318 
L 363.271186 -317.645028 
L 352.613559 -312.730939 
L 341.955932 -316.766598 
L 331.298305 -329.434957 
L 320.640678 -334.39749 
L 309.983051 -343.212524 
L 299.325424 -340.468058 
L 288.667797 -333.658391 
L 278.010169 -331.428858 
L 267.352542 -318.340856 
L 256.694915 -306.059081 
L 246.037288 -302.138987 
L 235.379661 -282.200378 
L 224.722034 -265.237276 
L 214.064407 -235.215314 
L 203.40678 -200.183577 
L 192.749153 -159.158272 
L 182.091525 -133.698749 
L 171.433898 -116.342055 
L 160.776271 -100.419048 
L 150.118644 -99.49958 
L 139.461017 -105.257926 
L 128.80339 -111.871469 
L 118.145763 -108.195186 
L 107.488136 -107.663441 
L 96.830508 -115.659429 
L 86.172881 -124.227137 
L 75.515254 -126.210593 
L 64.857627 -113.783116 
L 54.2 -109.473093 
z
" style="stroke: #ffa07a; stroke-opacity: 0.2"/>
    </defs>
    <g clip-path="url(#pd54f7839d2)">
     <use xlink:href="#m8c28463b30" x="0" y="432" style="fill: #ffa07a; fill-opacity: 0.2; stroke: #ffa07a; stroke-opacity: 0.2"/>
    </g>
   </g>
   <g id="PolyCollection_3">
    <defs>
     <path id="m44b5458d3b" d="M 54.2 -109.291936 
L 54.2 -58.372888 
L 64.857627 -63.759042 
L 75.515254 -73.893557 
L 86.172881 -71.996885 
L 96.830508 -61.298743 
L 107.488136 -49.407023 
L 118.145763 -45.958849 
L 128.80339 -50.685322 
L 139.461017 -47.960285 
L 150.118644 -36.510453 
L 160.776271 -50.230948 
L 171.433898 -74.142396 
L 182.091525 -101.589152 
L 192.749153 -146.977781 
L 203.40678 -196.633479 
L 214.064407 -227.361005 
L 224.722034 -231.907113 
L 235.379661 -229.766113 
L 246.037288 -217.638869 
L 256.694915 -205.272706 
L 267.352542 -189.433177 
L 278.010169 -171.495858 
L 288.667797 -165.414583 
L 299.325424 -164.788601 
L 309.983051 -162.241725 
L 320.640678 -161.785874 
L 331.298305 -166.149948 
L 341.955932 -167.540918 
L 352.613559 -171.268468 
L 363.271186 -174.673597 
L 373.928814 -184.065221 
L 384.586441 -193.707077 
L 395.244068 -193.39992 
L 405.901695 -184.989406 
L 416.559322 -175.480784 
L 427.216949 -166.334956 
L 437.874576 -170.262185 
L 448.532203 -178.334953 
L 459.189831 -177.055543 
L 469.847458 -173.916303 
L 480.505085 -156.346829 
L 491.162712 -143.710332 
L 501.820339 -148.16514 
L 512.477966 -164.801458 
L 523.135593 -163.209848 
L 533.79322 -161.52914 
L 544.450847 -139.712346 
L 555.108475 -120.17291 
L 565.766102 -107.579831 
L 576.423729 -113.163776 
L 587.081356 -117.528015 
L 597.738983 -128.518086 
L 608.39661 -135.823156 
L 619.054237 -139.688492 
L 629.711864 -132.730721 
L 640.369492 -123.067827 
L 651.027119 -105.190805 
L 661.684746 -82.209226 
L 672.342373 -74.634668 
L 683 -83.677101 
L 693.657627 -94.760625 
L 704.315254 -99.880936 
L 704.315254 -158.036027 
L 704.315254 -158.036027 
L 693.657627 -163.882904 
L 683 -169.145807 
L 672.342373 -167.167503 
L 661.684746 -168.877343 
L 651.027119 -173.230582 
L 640.369492 -188.23058 
L 629.711864 -202.414089 
L 619.054237 -210.356204 
L 608.39661 -216.808023 
L 597.738983 -210.347152 
L 587.081356 -201.479866 
L 576.423729 -196.846564 
L 565.766102 -199.864731 
L 555.108475 -216.904079 
L 544.450847 -232.907272 
L 533.79322 -242.865368 
L 523.135593 -242.341217 
L 512.477966 -239.660751 
L 501.820339 -235.863782 
L 491.162712 -231.803863 
L 480.505085 -237.065021 
L 469.847458 -246.669508 
L 459.189831 -252.306796 
L 448.532203 -257.630718 
L 437.874576 -256.721581 
L 427.216949 -261.275792 
L 416.559322 -267.523144 
L 405.901695 -270.521117 
L 395.244068 -274.761067 
L 384.586441 -279.966947 
L 373.928814 -283.54114 
L 363.271186 -273.14372 
L 352.613559 -260.178573 
L 341.955932 -250.220454 
L 331.298305 -238.574854 
L 320.640678 -222.678933 
L 309.983051 -215.164065 
L 299.325424 -220.151134 
L 288.667797 -228.468194 
L 278.010169 -235.439676 
L 267.352542 -245.77074 
L 256.694915 -267.711714 
L 246.037288 -289.723653 
L 235.379661 -303.222246 
L 224.722034 -301.844073 
L 214.064407 -286.690801 
L 203.40678 -256.812681 
L 192.749153 -211.712608 
L 182.091525 -168.098041 
L 171.433898 -130.522722 
L 160.776271 -110.353034 
L 150.118644 -104.928164 
L 139.461017 -107.135887 
L 128.80339 -109.215402 
L 118.145763 -106.769531 
L 107.488136 -99.490887 
L 96.830508 -107.792742 
L 86.172881 -122.421322 
L 75.515254 -122.093977 
L 64.857627 -111.763371 
L 54.2 -109.291936 
z
" style="stroke: #87ceeb; stroke-opacity: 0.2"/>
    </defs>
    <g clip-path="url(#pd54f7839d2)">
     <use xlink:href="#m44b5458d3b" x="0" y="432" style="fill: #87ceeb; fill-opacity: 0.2; stroke: #87ceeb; stroke-opacity: 0.2"/>
    </g>
   </g>
   <g id="matplotlib.axis_1">
    <g id="xtick_1">
     <g id="line2d_1">
      <defs>
       <path id="m397f9aebf9" d="M 0 0 
L 0 3.5 
" style="stroke: #000000; stroke-width: 0.8"/>
      </defs>
      <g>
       <use xlink:href="#m397f9aebf9" x="70.852542" y="390.04" style="stroke: #000000; stroke-width: 0.8"/>
      </g>
     </g>
     <g id="text_1">
      <text style="font: 10px 'DejaVu Sans', 'Bitstream Vera Sans', 'Computer Modern Sans Serif', 'Lucida Grande', 'Verdana', 'Geneva', 'Lucid', 'Arial', 'Helvetica', 'Avant Garde', sans-serif; text-anchor: middle" x="70.852542" y="404.638438" transform="rotate(-0 70.852542 404.638438)">−200</text>
     </g>
    </g>
    <g id="xtick_2">
     <g id="line2d_2">
      <g>
       <use xlink:href="#m397f9aebf9" x="159.666102" y="390.04" style="stroke: #000000; stroke-width: 0.8"/>
      </g>
     </g>
     <g id="text_2">
      <text style="font: 10px 'DejaVu Sans', 'Bitstream Vera Sans', 'Computer Modern Sans Serif', 'Lucida Grande', 'Verdana', 'Geneva', 'Lucid', 'Arial', 'Helvetica', 'Avant Garde', sans-serif; text-anchor: middle" x="159.666102" y="404.638438" transform="rotate(-0 159.666102 404.638438)">0</text>
     </g>
    </g>
    <g id="xtick_3">
     <g id="line2d_3">
      <g>
       <use xlink:href="#m397f9aebf9" x="248.479661" y="390.04" style="stroke: #000000; stroke-width: 0.8"/>
      </g>
     </g>
     <g id="text_3">
      <text style="font: 10px 'DejaVu Sans', 'Bitstream Vera Sans', 'Computer Modern Sans Serif', 'Lucida Grande', 'Verdana', 'Geneva', 'Lucid', 'Arial', 'Helvetica', 'Avant Garde', sans-serif; text-anchor: middle" x="248.479661" y="404.638438" transform="rotate(-0 248.479661 404.638438)">200</text>
     </g>
    </g>
    <g id="xtick_4">
     <g id="line2d_4">
      <g>
       <use xlink:href="#m397f9aebf9" x="337.29322" y="390.04" style="stroke: #000000; stroke-width: 0.8"/>
      </g>
     </g>
     <g id="text_4">
      <text style="font: 10px 'DejaVu Sans', 'Bitstream Vera Sans', 'Computer Modern Sans Serif', 'Lucida Grande', 'Verdana', 'Geneva', 'Lucid', 'Arial', 'Helvetica', 'Avant Garde', sans-serif; text-anchor: middle" x="337.29322" y="404.638438" transform="rotate(-0 337.29322 404.638438)">400</text>
     </g>
    </g>
    <g id="xtick_5">
     <g id="line2d_5">
      <g>
       <use xlink:href="#m397f9aebf9" x="426.10678" y="390.04" style="stroke: #000000; stroke-width: 0.8"/>
      </g>
     </g>
     <g id="text_5">
      <text style="font: 10px 'DejaVu Sans', 'Bitstream Vera Sans', 'Computer Modern Sans Serif', 'Lucida Grande', 'Verdana', 'Geneva', 'Lucid', 'Arial', 'Helvetica', 'Avant Garde', sans-serif; text-anchor: middle" x="426.10678" y="404.638438" transform="rotate(-0 426.10678 404.638438)">600</text>
     </g>
    </g>
    <g id="xtick_6">
     <g id="line2d_6">
      <g>
       <use xlink:href="#m397f9aebf9" x="514.920339" y="390.04" style="stroke: #000000; stroke-width: 0.8"/>
      </g>
     </g>
     <g id="text_6">
      <text style="font: 10px 'DejaVu Sans', 'Bitstream Vera Sans', 'Computer Modern Sans Serif', 'Lucida Grande', 'Verdana', 'Geneva', 'Lucid', 'Arial', 'Helvetica', 'Avant Garde', sans-serif; text-anchor: middle" x="514.920339" y="404.638438" transform="rotate(-0 514.920339 404.638438)">800</text>
     </g>
    </g>
    <g id="xtick_7">
     <g id="line2d_7">
      <g>
       <use xlink:href="#m397f9aebf9" x="603.733898" y="390.04" style="stroke: #000000; stroke-width: 0.8"/>
      </g>
     </g>
     <g id="text_7">
      <text style="font: 10px 'DejaVu Sans', 'Bitstream Vera Sans', 'Computer Modern Sans Serif', 'Lucida Grande', 'Verdana', 'Geneva', 'Lucid', 'Arial', 'Helvetica', 'Avant Garde', sans-serif; text-anchor: middle" x="603.733898" y="404.638438" transform="rotate(-0 603.733898 404.638438)">1000</text>
     </g>
    </g>
    <g id="xtick_8">
     <g id="line2d_8">
      <g>
       <use xlink:href="#m397f9aebf9" x="692.547458" y="390.04" style="stroke: #000000; stroke-width: 0.8"/>
      </g>
     </g>
     <g id="text_8">
      <text style="font: 10px 'DejaVu Sans', 'Bitstream Vera Sans', 'Computer Modern Sans Serif', 'Lucida Grande', 'Verdana', 'Geneva', 'Lucid', 'Arial', 'Helvetica', 'Avant Garde', sans-serif; text-anchor: middle" x="692.547458" y="404.638438" transform="rotate(-0 692.547458 404.638438)">1200</text>
     </g>
    </g>
    <g id="text_9">
     <text style="font: 10px 'DejaVu Sans', 'Bitstream Vera Sans', 'Computer Modern Sans Serif', 'Lucida Grande', 'Verdana', 'Geneva', 'Lucid', 'Arial', 'Helvetica', 'Avant Garde', sans-serif; text-anchor: middle" x="381.7" y="418.316562" transform="rotate(-0 381.7 418.316562)">time</text>
    </g>
   </g>
   <g id="matplotlib.axis_2">
    <g id="ytick_1">
     <g id="line2d_9">
      <defs>
       <path id="ma0e302c58f" d="M 0 0 
L -3.5 0 
" style="stroke: #000000; stroke-width: 0.8"/>
      </defs>
      <g>
       <use xlink:href="#ma0e302c58f" x="54.2" y="347.902222" style="stroke: #000000; stroke-width: 0.8"/>
      </g>
     </g>
     <g id="text_10">
      <text style="font: 10px 'DejaVu Sans', 'Bitstream Vera Sans', 'Computer Modern Sans Serif', 'Lucida Grande', 'Verdana', 'Geneva', 'Lucid', 'Arial', 'Helvetica', 'Avant Garde', sans-serif; text-anchor: end" x="47.2" y="351.701441" transform="rotate(-0 47.2 351.701441)">0.00</text>
     </g>
    </g>
    <g id="ytick_2">
     <g id="line2d_10">
      <g>
       <use xlink:href="#ma0e302c58f" x="54.2" y="263.626667" style="stroke: #000000; stroke-width: 0.8"/>
      </g>
     </g>
     <g id="text_11">
      <text style="font: 10px 'DejaVu Sans', 'Bitstream Vera Sans', 'Computer Modern Sans Serif', 'Lucida Grande', 'Verdana', 'Geneva', 'Lucid', 'Arial', 'Helvetica', 'Avant Garde', sans-serif; text-anchor: end" x="47.2" y="267.425885" transform="rotate(-0 47.2 267.425885)">0.04</text>
     </g>
    </g>
    <g id="ytick_3">
     <g id="line2d_11">
      <g>
       <use xlink:href="#ma0e302c58f" x="54.2" y="179.351111" style="stroke: #000000; stroke-width: 0.8"/>
      </g>
     </g>
     <g id="text_12">
      <text style="font: 10px 'DejaVu Sans', 'Bitstream Vera Sans', 'Computer Modern Sans Serif', 'Lucida Grande', 'Verdana', 'Geneva', 'Lucid', 'Arial', 'Helvetica', 'Avant Garde', sans-serif; text-anchor: end" x="47.2" y="183.15033" transform="rotate(-0 47.2 183.15033)">0.08</text>
     </g>
    </g>
    <g id="ytick_4">
     <g id="line2d_12">
      <g>
       <use xlink:href="#ma0e302c58f" x="54.2" y="95.075556" style="stroke: #000000; stroke-width: 0.8"/>
      </g>
     </g>
     <g id="text_13">
      <text style="font: 10px 'DejaVu Sans', 'Bitstream Vera Sans', 'Computer Modern Sans Serif', 'Lucida Grande', 'Verdana', 'Geneva', 'Lucid', 'Arial', 'Helvetica', 'Avant Garde', sans-serif; text-anchor: end" x="47.2" y="98.874774" transform="rotate(-0 47.2 98.874774)">0.12</text>
     </g>
    </g>
    <g id="text_14">
     <text style="font: 10px 'DejaVu Sans', 'Bitstream Vera Sans', 'Computer Modern Sans Serif', 'Lucida Grande', 'Verdana', 'Geneva', 'Lucid', 'Arial', 'Helvetica', 'Avant Garde', sans-serif; text-anchor: middle" x="18.854688" y="200.42" transform="rotate(-90 18.854688 200.42)">Slope</text>
    </g>
   </g>
   <g id="line2d_13">
    <path d="M 54.2 347.902222 
L 709.2 347.902222 
" clip-path="url(#pd54f7839d2)" style="fill: none; stroke-dasharray: 7.4,3.2; stroke-dashoffset: 0; stroke: #000000; stroke-width: 2"/>
   </g>
   <g id="line2d_14">
    <path d="M 54.2 352.856516 
L 64.857627 347.706007 
L 75.515254 338.01982 
L 86.172881 340.873884 
L 96.830508 348.156811 
L 107.488136 353.109401 
L 118.145763 351.221162 
L 128.80339 350.341596 
L 139.461017 355.835345 
L 150.118644 361.741886 
L 160.776271 364.103172 
L 171.433898 354.604279 
L 182.091525 335.626356 
L 192.749153 311.499904 
L 203.40678 266.540031 
L 214.064407 227.36787 
L 224.722034 199.272592 
L 235.379661 182.729541 
L 246.037288 175.093659 
L 256.694915 170.659481 
L 267.352542 160.740812 
L 278.010169 150.424357 
L 288.667797 153.7987 
L 299.325424 149.467043 
L 309.983051 145.768043 
L 320.640678 151.758489 
L 331.298305 163.804199 
L 341.955932 169.93788 
L 352.613559 171.323902 
L 363.271186 173.914309 
L 373.928814 170.87981 
L 384.586441 164.00461 
L 395.244068 158.510848 
L 405.901695 158.784819 
L 416.559322 160.83965 
L 427.216949 164.113408 
L 437.874576 168.007814 
L 448.532203 170.811189 
L 459.189831 174.550671 
L 469.847458 183.73486 
L 480.505085 197.672856 
L 491.162712 213.431735 
L 501.820339 223.122134 
L 512.477966 225.708057 
L 523.135593 230.760101 
L 533.79322 239.513021 
L 544.450847 241.131676 
L 555.108475 246.147132 
L 565.766102 253.126632 
L 576.423729 255.287292 
L 587.081356 255.87085 
L 597.738983 254.055497 
L 608.39661 252.140599 
L 619.054237 251.34606 
L 629.711864 253.472142 
L 640.369492 256.660372 
L 651.027119 260.832607 
L 661.684746 267.050373 
L 672.342373 273.254748 
L 683 279.456711 
L 693.657627 287.285124 
L 704.315254 292.573759 
" clip-path="url(#pd54f7839d2)" style="fill: none; stroke: #ffa07a; stroke-width: 2; stroke-linecap: square"/>
   </g>
   <g id="line2d_15">
    <path d="M 54.2 349.563879 
L 64.857627 344.830394 
L 75.515254 335.673771 
L 86.172881 335.895662 
L 96.830508 347.005764 
L 107.488136 356.73714 
L 118.145763 354.965139 
L 128.80339 350.826741 
L 139.461017 354.614039 
L 150.118644 359.068172 
L 160.776271 351.867024 
L 171.433898 329.937472 
L 182.091525 296.415184 
L 192.749153 252.582834 
L 203.40678 206.860009 
L 214.064407 174.559137 
L 224.722034 164.760653 
L 235.379661 165.911109 
L 246.037288 177.353555 
L 256.694915 196.672775 
L 267.352542 213.85964 
L 278.010169 224.610586 
L 288.667797 233.267633 
L 299.325424 239.461445 
L 309.983051 242.897022 
L 320.640678 238.56469 
L 331.298305 230.429657 
L 341.955932 222.379596 
L 352.613559 215.414231 
L 363.271186 207.665263 
L 373.928814 196.711288 
L 384.586441 194.100357 
L 395.244068 198.766985 
L 405.901695 206.131237 
L 416.559322 211.68468 
L 427.216949 217.088603 
L 437.874576 216.669976 
L 448.532203 215.026719 
L 459.189831 215.606694 
L 469.847458 222.182379 
L 480.505085 236.092044 
L 491.162712 243.058895 
L 501.820339 237.463513 
L 512.477966 229.390687 
L 523.135593 226.391351 
L 533.79322 232.57313 
L 544.450847 245.427832 
L 555.108475 264.961728 
L 565.766102 276.83064 
L 576.423729 278.908699 
L 587.081356 272.378495 
L 597.738983 262.379278 
L 608.39661 255.512146 
L 619.054237 255.758796 
L 629.711864 263.808149 
L 640.369492 275.79912 
L 651.027119 292.487594 
L 661.684746 306.583066 
L 672.342373 310.749262 
L 683 306.639006 
L 693.657627 302.918115 
L 704.315254 302.577683 
" clip-path="url(#pd54f7839d2)" style="fill: none; stroke: #87ceeb; stroke-width: 2; stroke-linecap: square"/>
   </g>
   <g id="line2d_16"/>
   <g id="line2d_17"/>
   <g id="patch_3">
    <path d="M 54.2 390.04 
L 54.2 10.8 
" style="fill: none; stroke: #000000; stroke-width: 0.8; stroke-linejoin: miter; stroke-linecap: square"/>
   </g>
   <g id="patch_4">
    <path d="M 709.2 390.04 
L 709.2 10.8 
" style="fill: none; stroke: #000000; stroke-width: 0.8; stroke-linejoin: miter; stroke-linecap: square"/>
   </g>
   <g id="patch_5">
    <path d="M 54.2 390.04 
L 709.2 390.04 
" style="fill: none; stroke: #000000; stroke-width: 0.8; stroke-linejoin: miter; stroke-linecap: square"/>
   </g>
   <g id="patch_6">
    <path d="M 54.2 10.8 
L 709.2 10.8 
" style="fill: none; stroke: #000000; stroke-width: 0.8; stroke-linejoin: miter; stroke-linecap: square"/>
   </g>
   <g id="legend_1">
    <g id="patch_7">
     <path d="M 634.471875 62.834375 
L 702.2 62.834375 
Q 704.2 62.834375 704.2 60.834375 
L 704.2 17.8 
Q 704.2 15.8 702.2 15.8 
L 634.471875 15.8 
Q 632.471875 15.8 632.471875 17.8 
L 632.471875 60.834375 
Q 632.471875 62.834375 634.471875 62.834375 
z
" style="fill: #ffffff; opacity: 0.8; stroke: #cccccc; stroke-linejoin: miter"/>
    </g>
    <g id="text_15">
     <text style="font: 10px 'DejaVu Sans', 'Bitstream Vera Sans', 'Computer Modern Sans Serif', 'Lucida Grande', 'Verdana', 'Geneva', 'Lucid', 'Arial', 'Helvetica', 'Avant Garde', sans-serif; text-anchor: start" x="645.217969" y="27.398438" transform="rotate(-0 645.217969 27.398438)">condition</text>
    </g>
    <g id="line2d_18">
     <path d="M 636.471875 38.576563 
L 646.471875 38.576563 
L 656.471875 38.576563 
" style="fill: none; stroke: #ffa07a; stroke-width: 1.5; stroke-linecap: square"/>
    </g>
    <g id="text_16">
     <text style="font: 10px 'DejaVu Sans', 'Bitstream Vera Sans', 'Computer Modern Sans Serif', 'Lucida Grande', 'Verdana', 'Geneva', 'Lucid', 'Arial', 'Helvetica', 'Avant Garde', sans-serif; text-anchor: start" x="664.471875" y="42.076563" transform="rotate(-0 664.471875 42.076563)">Narrow</text>
    </g>
    <g id="line2d_19">
     <path d="M 636.471875 53.254688 
L 646.471875 53.254688 
L 656.471875 53.254688 
" style="fill: none; stroke: #87ceeb; stroke-width: 1.5; stroke-linecap: square"/>
    </g>
    <g id="text_17">
     <text style="font: 10px 'DejaVu Sans', 'Bitstream Vera Sans', 'Computer Modern Sans Serif', 'Lucida Grande', 'Verdana', 'Geneva', 'Lucid', 'Arial', 'Helvetica', 'Avant Garde', sans-serif; text-anchor: start" x="664.471875" y="56.754688" transform="rotate(-0 664.471875 56.754688)">Broad</text>
    </g>
   </g>
  </g>
 </g>
 <defs>
  <clipPath id="pd54f7839d2">
   <rect x="54.2" y="10.8" width="655" height="379.24"/>
  </clipPath>
 </defs>
</svg>
