<?xml version="1.0" encoding="utf-8" standalone="no"?>
<!DOCTYPE svg PUBLIC "-//W3C//DTD SVG 1.1//EN"
  "http://www.w3.org/Graphics/SVG/1.1/DTD/svg11.dtd">
<svg xmlns:xlink="http://www.w3.org/1999/xlink" width="720pt" height="432pt" viewBox="0 0 720 432" xmlns="http://www.w3.org/2000/svg" version="1.1">
 <metadata>
  <rdf:RDF xmlns:dc="http://purl.org/dc/elements/1.1/" xmlns:cc="http://creativecommons.org/ns#" xmlns:rdf="http://www.w3.org/1999/02/22-rdf-syntax-ns#">
   <cc:Work>
    <dc:type rdf:resource="http://purl.org/dc/dcmitype/StillImage"/>
    <dc:date>2024-01-29T12:44:55.086866</dc:date>
    <dc:format>image/svg+xml</dc:format>
    <dc:creator>
     <cc:Agent>
      <dc:title>Matplotlib v3.7.1, https://matplotlib.org/</dc:title>
     </cc:Agent>
    </dc:creator>
   </cc:Work>
  </rdf:RDF>
 </metadata>
 <defs>
  <style type="text/css">*{stroke-linejoin: round; stroke-linecap: butt}</style>
 </defs>
 <g id="figure_1">
  <g id="patch_1">
   <path d="M 0 432 
L 720 432 
L 720 0 
L 0 0 
z
" style="fill: #ffffff"/>
  </g>
  <g id="axes_1">
   <g id="patch_2">
    <path d="M 54.2 390.04 
L 709.2 390.04 
L 709.2 10.8 
L 54.2 10.8 
z
" style="fill: #ffffff"/>
   </g>
   <g id="PolyCollection_1">
    <defs>
     <path id="m236b72d494" d="M 159.666102 -400.131111 
L 159.666102 -41.96 
L 270.683051 -41.96 
L 270.683051 -400.131111 
L 270.683051 -400.131111 
L 159.666102 -400.131111 
z
" style="stroke: #808080; stroke-opacity: 0.5"/>
    </defs>
    <g clip-path="url(#p7b199322d2)">
     <use xlink:href="#m236b72d494" x="0" y="432" style="fill: #808080; fill-opacity: 0.5; stroke: #808080; stroke-opacity: 0.5"/>
    </g>
   </g>
   <g id="PolyCollection_2">
    <defs>
     <path id="mfaacda18c8" d="M 54.2 -113.962108 
L 54.2 -71.276107 
L 64.857627 -74.410866 
L 75.515254 -79.418464 
L 86.172881 -79.412219 
L 96.830508 -76.419227 
L 107.488136 -66.367841 
L 118.145763 -69.294326 
L 128.80339 -75.477145 
L 139.461017 -77.595185 
L 150.118644 -82.390724 
L 160.776271 -82.996862 
L 171.433898 -92.975551 
L 182.091525 -126.202695 
L 192.749153 -158.690986 
L 203.40678 -181.781163 
L 214.064407 -197.763711 
L 224.722034 -201.89821 
L 235.379661 -202.43958 
L 246.037288 -201.453097 
L 256.694915 -201.386364 
L 267.352542 -186.142271 
L 278.010169 -166.389246 
L 288.667797 -158.024659 
L 299.325424 -152.117799 
L 309.983051 -152.533547 
L 320.640678 -153.875587 
L 331.298305 -151.596348 
L 341.955932 -152.337859 
L 352.613559 -157.317438 
L 363.271186 -161.031259 
L 373.928814 -167.972583 
L 384.586441 -174.306236 
L 395.244068 -172.390503 
L 405.901695 -164.551256 
L 416.559322 -164.687365 
L 427.216949 -162.116975 
L 437.874576 -159.815168 
L 448.532203 -160.589454 
L 459.189831 -163.008637 
L 469.847458 -165.108572 
L 480.505085 -164.087214 
L 491.162712 -159.833176 
L 501.820339 -155.383712 
L 512.477966 -144.453086 
L 523.135593 -136.388496 
L 533.79322 -124.732951 
L 544.450847 -122.700116 
L 555.108475 -122.383577 
L 565.766102 -114.865968 
L 576.423729 -110.523484 
L 587.081356 -112.371179 
L 597.738983 -119.731607 
L 608.39661 -124.015201 
L 619.054237 -126.881603 
L 629.711864 -124.334164 
L 640.369492 -119.368549 
L 651.027119 -112.990428 
L 661.684746 -103.192074 
L 672.342373 -97.554801 
L 683 -91.306609 
L 693.657627 -85.82659 
L 704.315254 -84.79019 
L 704.315254 -139.802245 
L 704.315254 -139.802245 
L 693.657627 -143.167572 
L 683 -146.513362 
L 672.342373 -151.585465 
L 661.684746 -152.194682 
L 651.027119 -157.826254 
L 640.369492 -166.204406 
L 629.711864 -176.621943 
L 619.054237 -183.083118 
L 608.39661 -186.561546 
L 597.738983 -183.602308 
L 587.081356 -180.394733 
L 576.423729 -178.045564 
L 565.766102 -185.695391 
L 555.108475 -188.355468 
L 544.450847 -194.449367 
L 533.79322 -201.402595 
L 523.135593 -217.046451 
L 512.477966 -234.187511 
L 501.820339 -241.731762 
L 491.162712 -248.536369 
L 480.505085 -253.238944 
L 469.847458 -259.041018 
L 459.189831 -251.112619 
L 448.532203 -255.42114 
L 437.874576 -250.434749 
L 427.216949 -255.635418 
L 416.559322 -259.304055 
L 405.901695 -261.76567 
L 395.244068 -269.132448 
L 384.586441 -271.929194 
L 373.928814 -262.899465 
L 363.271186 -250.746628 
L 352.613559 -239.026302 
L 341.955932 -232.090667 
L 331.298305 -224.064496 
L 320.640678 -217.399066 
L 309.983051 -211.935556 
L 299.325424 -213.198203 
L 288.667797 -219.828836 
L 278.010169 -230.705521 
L 267.352542 -247.977642 
L 256.694915 -272.033309 
L 246.037288 -281.549952 
L 235.379661 -284.698394 
L 224.722034 -281.047769 
L 214.064407 -265.938483 
L 203.40678 -245.686292 
L 192.749153 -217.36481 
L 182.091525 -178.96709 
L 171.433898 -137.072428 
L 160.776271 -115.827902 
L 150.118644 -114.840643 
L 139.461017 -115.8766 
L 128.80339 -118.673479 
L 118.145763 -116.90049 
L 107.488136 -114.840062 
L 96.830508 -120.807409 
L 86.172881 -128.452836 
L 75.515254 -128.895234 
L 64.857627 -123.28719 
L 54.2 -113.962108 
z
" style="stroke: #87ceeb; stroke-opacity: 0.2"/>
    </defs>
    <g clip-path="url(#p7b199322d2)">
     <use xlink:href="#mfaacda18c8" x="0" y="432" style="fill: #87ceeb; fill-opacity: 0.2; stroke: #87ceeb; stroke-opacity: 0.2"/>
    </g>
   </g>
   <g id="PolyCollection_3">
    <defs>
     <path id="m1258b88c67" d="M 54.2 -174.912495 
L 54.2 -89.67676 
L 64.857627 -95.870579 
L 75.515254 -92.8646 
L 86.172881 -86.436823 
L 96.830508 -75.326151 
L 107.488136 -68.540683 
L 118.145763 -73.370135 
L 128.80339 -81.617025 
L 139.461017 -86.56032 
L 150.118644 -82.911001 
L 160.776271 -74.056845 
L 171.433898 -69.83463 
L 182.091525 -75.688388 
L 192.749153 -113.710326 
L 203.40678 -154.229437 
L 214.064407 -177.985393 
L 224.722034 -196.579498 
L 235.379661 -204.217545 
L 246.037288 -211.91077 
L 256.694915 -208.61228 
L 267.352542 -186.826891 
L 278.010169 -163.923624 
L 288.667797 -158.593937 
L 299.325424 -165.498002 
L 309.983051 -161.732916 
L 320.640678 -160.899875 
L 331.298305 -167.276605 
L 341.955932 -174.553099 
L 352.613559 -177.578314 
L 363.271186 -180.166415 
L 373.928814 -174.640194 
L 384.586441 -160.041806 
L 395.244068 -159.592654 
L 405.901695 -156.657461 
L 416.559322 -146.186574 
L 427.216949 -140.836203 
L 437.874576 -151.805663 
L 448.532203 -157.345085 
L 459.189831 -157.932133 
L 469.847458 -152.565198 
L 480.505085 -161.018384 
L 491.162712 -174.777483 
L 501.820339 -174.43174 
L 512.477966 -156.849231 
L 523.135593 -133.165949 
L 533.79322 -114.797066 
L 544.450847 -118.556497 
L 555.108475 -112.073346 
L 565.766102 -108.957035 
L 576.423729 -113.189887 
L 587.081356 -132.241927 
L 597.738983 -148.792321 
L 608.39661 -156.149274 
L 619.054237 -157.798211 
L 629.711864 -153.444365 
L 640.369492 -146.086844 
L 651.027119 -152.18277 
L 661.684746 -153.124233 
L 672.342373 -145.627396 
L 683 -135.551573 
L 693.657627 -124.529835 
L 704.315254 -112.987782 
L 704.315254 -180.665756 
L 704.315254 -180.665756 
L 693.657627 -197.666112 
L 683 -213.6343 
L 672.342373 -226.094438 
L 661.684746 -233.286248 
L 651.027119 -237.671972 
L 640.369492 -234.849742 
L 629.711864 -242.787849 
L 619.054237 -252.72099 
L 608.39661 -257.533575 
L 597.738983 -255.716685 
L 587.081356 -240.913197 
L 576.423729 -223.946045 
L 565.766102 -216.768333 
L 555.108475 -211.636426 
L 544.450847 -215.36074 
L 533.79322 -219.719159 
L 523.135593 -226.70782 
L 512.477966 -248.877938 
L 501.820339 -263.386832 
L 491.162712 -268.083251 
L 480.505085 -265.160945 
L 469.847458 -274.514487 
L 459.189831 -273.50942 
L 448.532203 -266.772363 
L 437.874576 -257.034413 
L 427.216949 -244.775936 
L 416.559322 -254.132792 
L 405.901695 -258.629087 
L 395.244068 -264.835597 
L 384.586441 -270.160119 
L 373.928814 -273.246025 
L 363.271186 -271.561578 
L 352.613559 -261.467929 
L 341.955932 -254.958944 
L 331.298305 -249.06364 
L 320.640678 -239.764961 
L 309.983051 -248.492295 
L 299.325424 -247.405444 
L 288.667797 -246.29238 
L 278.010169 -249.603249 
L 267.352542 -263.91368 
L 256.694915 -274.291329 
L 246.037288 -284.116956 
L 235.379661 -281.582696 
L 224.722034 -268.609105 
L 214.064407 -250.222847 
L 203.40678 -219.799337 
L 192.749153 -178.161041 
L 182.091525 -139.792731 
L 171.433898 -122.889934 
L 160.776271 -132.816833 
L 150.118644 -137.658777 
L 139.461017 -142.718924 
L 128.80339 -140.806934 
L 118.145763 -138.025662 
L 107.488136 -126.000795 
L 96.830508 -133.227676 
L 86.172881 -146.467851 
L 75.515254 -162.536063 
L 64.857627 -174.176435 
L 54.2 -174.912495 
z
" style="stroke: #800080; stroke-opacity: 0.2"/>
    </defs>
    <g clip-path="url(#p7b199322d2)">
     <use xlink:href="#m1258b88c67" x="0" y="432" style="fill: #800080; fill-opacity: 0.2; stroke: #800080; stroke-opacity: 0.2"/>
    </g>
   </g>
   <g id="matplotlib.axis_1">
    <g id="xtick_1">
     <g id="line2d_1">
      <defs>
       <path id="mf0851387f4" d="M 0 0 
L 0 3.5 
" style="stroke: #000000; stroke-width: 0.8"/>
      </defs>
      <g>
       <use xlink:href="#mf0851387f4" x="70.852542" y="390.04" style="stroke: #000000; stroke-width: 0.8"/>
      </g>
     </g>
     <g id="text_1">
      <text style="font: 10px 'DejaVu Sans', 'Bitstream Vera Sans', 'Computer Modern Sans Serif', 'Lucida Grande', 'Verdana', 'Geneva', 'Lucid', 'Arial', 'Helvetica', 'Avant Garde', sans-serif; text-anchor: middle" x="70.852542" y="404.638438" transform="rotate(-0 70.852542 404.638438)">−200</text>
     </g>
    </g>
    <g id="xtick_2">
     <g id="line2d_2">
      <g>
       <use xlink:href="#mf0851387f4" x="159.666102" y="390.04" style="stroke: #000000; stroke-width: 0.8"/>
      </g>
     </g>
     <g id="text_2">
      <text style="font: 10px 'DejaVu Sans', 'Bitstream Vera Sans', 'Computer Modern Sans Serif', 'Lucida Grande', 'Verdana', 'Geneva', 'Lucid', 'Arial', 'Helvetica', 'Avant Garde', sans-serif; text-anchor: middle" x="159.666102" y="404.638438" transform="rotate(-0 159.666102 404.638438)">0</text>
     </g>
    </g>
    <g id="xtick_3">
     <g id="line2d_3">
      <g>
       <use xlink:href="#mf0851387f4" x="248.479661" y="390.04" style="stroke: #000000; stroke-width: 0.8"/>
      </g>
     </g>
     <g id="text_3">
      <text style="font: 10px 'DejaVu Sans', 'Bitstream Vera Sans', 'Computer Modern Sans Serif', 'Lucida Grande', 'Verdana', 'Geneva', 'Lucid', 'Arial', 'Helvetica', 'Avant Garde', sans-serif; text-anchor: middle" x="248.479661" y="404.638438" transform="rotate(-0 248.479661 404.638438)">200</text>
     </g>
    </g>
    <g id="xtick_4">
     <g id="line2d_4">
      <g>
       <use xlink:href="#mf0851387f4" x="337.29322" y="390.04" style="stroke: #000000; stroke-width: 0.8"/>
      </g>
     </g>
     <g id="text_4">
      <text style="font: 10px 'DejaVu Sans', 'Bitstream Vera Sans', 'Computer Modern Sans Serif', 'Lucida Grande', 'Verdana', 'Geneva', 'Lucid', 'Arial', 'Helvetica', 'Avant Garde', sans-serif; text-anchor: middle" x="337.29322" y="404.638438" transform="rotate(-0 337.29322 404.638438)">400</text>
     </g>
    </g>
    <g id="xtick_5">
     <g id="line2d_5">
      <g>
       <use xlink:href="#mf0851387f4" x="426.10678" y="390.04" style="stroke: #000000; stroke-width: 0.8"/>
      </g>
     </g>
     <g id="text_5">
      <text style="font: 10px 'DejaVu Sans', 'Bitstream Vera Sans', 'Computer Modern Sans Serif', 'Lucida Grande', 'Verdana', 'Geneva', 'Lucid', 'Arial', 'Helvetica', 'Avant Garde', sans-serif; text-anchor: middle" x="426.10678" y="404.638438" transform="rotate(-0 426.10678 404.638438)">600</text>
     </g>
    </g>
    <g id="xtick_6">
     <g id="line2d_6">
      <g>
       <use xlink:href="#mf0851387f4" x="514.920339" y="390.04" style="stroke: #000000; stroke-width: 0.8"/>
      </g>
     </g>
     <g id="text_6">
      <text style="font: 10px 'DejaVu Sans', 'Bitstream Vera Sans', 'Computer Modern Sans Serif', 'Lucida Grande', 'Verdana', 'Geneva', 'Lucid', 'Arial', 'Helvetica', 'Avant Garde', sans-serif; text-anchor: middle" x="514.920339" y="404.638438" transform="rotate(-0 514.920339 404.638438)">800</text>
     </g>
    </g>
    <g id="xtick_7">
     <g id="line2d_7">
      <g>
       <use xlink:href="#mf0851387f4" x="603.733898" y="390.04" style="stroke: #000000; stroke-width: 0.8"/>
      </g>
     </g>
     <g id="text_7">
      <text style="font: 10px 'DejaVu Sans', 'Bitstream Vera Sans', 'Computer Modern Sans Serif', 'Lucida Grande', 'Verdana', 'Geneva', 'Lucid', 'Arial', 'Helvetica', 'Avant Garde', sans-serif; text-anchor: middle" x="603.733898" y="404.638438" transform="rotate(-0 603.733898 404.638438)">1000</text>
     </g>
    </g>
    <g id="xtick_8">
     <g id="line2d_8">
      <g>
       <use xlink:href="#mf0851387f4" x="692.547458" y="390.04" style="stroke: #000000; stroke-width: 0.8"/>
      </g>
     </g>
     <g id="text_8">
      <text style="font: 10px 'DejaVu Sans', 'Bitstream Vera Sans', 'Computer Modern Sans Serif', 'Lucida Grande', 'Verdana', 'Geneva', 'Lucid', 'Arial', 'Helvetica', 'Avant Garde', sans-serif; text-anchor: middle" x="692.547458" y="404.638438" transform="rotate(-0 692.547458 404.638438)">1200</text>
     </g>
    </g>
    <g id="text_9">
     <text style="font: 10px 'DejaVu Sans', 'Bitstream Vera Sans', 'Computer Modern Sans Serif', 'Lucida Grande', 'Verdana', 'Geneva', 'Lucid', 'Arial', 'Helvetica', 'Avant Garde', sans-serif; text-anchor: middle" x="381.7" y="418.316562" transform="rotate(-0 381.7 418.316562)">time</text>
    </g>
   </g>
   <g id="matplotlib.axis_2">
    <g id="ytick_1">
     <g id="line2d_9">
      <defs>
       <path id="m1724e5f155" d="M 0 0 
L -3.5 0 
" style="stroke: #000000; stroke-width: 0.8"/>
      </defs>
      <g>
       <use xlink:href="#m1724e5f155" x="54.2" y="347.902222" style="stroke: #000000; stroke-width: 0.8"/>
      </g>
     </g>
     <g id="text_10">
      <text style="font: 10px 'DejaVu Sans', 'Bitstream Vera Sans', 'Computer Modern Sans Serif', 'Lucida Grande', 'Verdana', 'Geneva', 'Lucid', 'Arial', 'Helvetica', 'Avant Garde', sans-serif; text-anchor: end" x="47.2" y="351.701441" transform="rotate(-0 47.2 351.701441)">0.00</text>
     </g>
    </g>
    <g id="ytick_2">
     <g id="line2d_10">
      <g>
       <use xlink:href="#m1724e5f155" x="54.2" y="263.626667" style="stroke: #000000; stroke-width: 0.8"/>
      </g>
     </g>
     <g id="text_11">
      <text style="font: 10px 'DejaVu Sans', 'Bitstream Vera Sans', 'Computer Modern Sans Serif', 'Lucida Grande', 'Verdana', 'Geneva', 'Lucid', 'Arial', 'Helvetica', 'Avant Garde', sans-serif; text-anchor: end" x="47.2" y="267.425885" transform="rotate(-0 47.2 267.425885)">0.04</text>
     </g>
    </g>
    <g id="ytick_3">
     <g id="line2d_11">
      <g>
       <use xlink:href="#m1724e5f155" x="54.2" y="179.351111" style="stroke: #000000; stroke-width: 0.8"/>
      </g>
     </g>
     <g id="text_12">
      <text style="font: 10px 'DejaVu Sans', 'Bitstream Vera Sans', 'Computer Modern Sans Serif', 'Lucida Grande', 'Verdana', 'Geneva', 'Lucid', 'Arial', 'Helvetica', 'Avant Garde', sans-serif; text-anchor: end" x="47.2" y="183.15033" transform="rotate(-0 47.2 183.15033)">0.08</text>
     </g>
    </g>
    <g id="ytick_4">
     <g id="line2d_12">
      <g>
       <use xlink:href="#m1724e5f155" x="54.2" y="95.075556" style="stroke: #000000; stroke-width: 0.8"/>
      </g>
     </g>
     <g id="text_13">
      <text style="font: 10px 'DejaVu Sans', 'Bitstream Vera Sans', 'Computer Modern Sans Serif', 'Lucida Grande', 'Verdana', 'Geneva', 'Lucid', 'Arial', 'Helvetica', 'Avant Garde', sans-serif; text-anchor: end" x="47.2" y="98.874774" transform="rotate(-0 47.2 98.874774)">0.12</text>
     </g>
    </g>
    <g id="text_14">
     <text style="font: 10px 'DejaVu Sans', 'Bitstream Vera Sans', 'Computer Modern Sans Serif', 'Lucida Grande', 'Verdana', 'Geneva', 'Lucid', 'Arial', 'Helvetica', 'Avant Garde', sans-serif; text-anchor: middle" x="18.854688" y="200.42" transform="rotate(-90 18.854688 200.42)">Slope</text>
    </g>
   </g>
   <g id="line2d_13">
    <path d="M 54.2 347.902222 
L 709.2 347.902222 
" clip-path="url(#p7b199322d2)" style="fill: none; stroke-dasharray: 7.4,3.2; stroke-dashoffset: 0; stroke: #000000; stroke-width: 2"/>
   </g>
   <g id="line2d_14">
    <path d="M 54.2 339.581008 
L 64.857627 333.356587 
L 75.515254 328.546813 
L 86.172881 328.931593 
L 96.830508 335.037479 
L 107.488136 340.927709 
L 118.145763 339.447836 
L 128.80339 335.511431 
L 139.461017 334.262578 
L 150.118644 333.064707 
L 160.776271 331.749164 
L 171.433898 316.088308 
L 182.091525 278.522402 
L 192.749153 243.916795 
L 203.40678 218.208615 
L 214.064407 200.55597 
L 224.722034 191.797177 
L 235.379661 187.792485 
L 246.037288 188.519494 
L 256.694915 195.870579 
L 267.352542 214.852015 
L 278.010169 235.249598 
L 288.667797 243.732705 
L 299.325424 249.110836 
L 309.983051 251.817372 
L 320.640678 248.952447 
L 331.298305 244.158804 
L 341.955932 241.142052 
L 352.613559 236.556228 
L 363.271186 226.414117 
L 373.928814 214.307254 
L 384.586441 209.562604 
L 395.244068 212.418665 
L 405.901695 217.141704 
L 416.559322 221.559163 
L 427.216949 225.062975 
L 437.874576 226.313582 
L 448.532203 225.828165 
L 459.189831 224.214217 
L 469.847458 223.474931 
L 480.505085 225.723316 
L 491.162712 230.09778 
L 501.820339 236.507665 
L 512.477966 243.535043 
L 523.135593 256.231902 
L 533.79322 269.835306 
L 544.450847 275.944218 
L 555.108475 278.437407 
L 565.766102 282.97384 
L 576.423729 289.409403 
L 587.081356 288.496648 
L 597.738983 281.244352 
L 608.39661 277.037342 
L 619.054237 277.98369 
L 629.711864 281.390728 
L 640.369492 288.96686 
L 651.027119 297.308254 
L 661.684746 304.715586 
L 672.342373 309.549713 
L 683 313.241378 
L 693.657627 317.026265 
L 704.315254 321.997567 
" clip-path="url(#p7b199322d2)" style="fill: none; stroke: #87ceeb; stroke-width: 2; stroke-linecap: square"/>
   </g>
   <g id="line2d_15">
    <path d="M 54.2 301.838036 
L 64.857627 296.503802 
L 75.515254 303.059896 
L 86.172881 315.427688 
L 96.830508 329.590487 
L 107.488136 335.131198 
L 118.145763 328.47593 
L 128.80339 320.729745 
L 139.461017 317.826367 
L 150.118644 321.629397 
L 160.776271 330.524663 
L 171.433898 336.398291 
L 182.091525 323.961163 
L 192.749153 286.006192 
L 203.40678 243.835162 
L 214.064407 214.563154 
L 224.722034 196.904545 
L 235.379661 187.049626 
L 246.037288 182.387239 
L 256.694915 189.461872 
L 267.352542 208.08565 
L 278.010169 223.310464 
L 288.667797 228.907929 
L 299.325424 226.308975 
L 309.983051 230.044221 
L 320.640678 232.301041 
L 331.298305 224.523767 
L 341.955932 215.948835 
L 352.613559 209.658846 
L 363.271186 205.057145 
L 373.928814 208.151744 
L 384.586441 215.293186 
L 395.244068 219.468288 
L 405.901695 224.175763 
L 416.559322 233.641983 
L 427.216949 236.963539 
L 437.874576 231.76102 
L 448.532203 220.447434 
L 459.189831 215.211726 
L 469.847458 218.641301 
L 480.505085 216.466475 
L 491.162712 211.337646 
L 501.820339 214.124613 
L 512.477966 231.888009 
L 523.135593 253.128625 
L 533.79322 264.627868 
L 544.450847 266.339594 
L 555.108475 267.031997 
L 565.766102 268.933703 
L 576.423729 262.235975 
L 587.081356 246.474354 
L 597.738983 231.34258 
L 608.39661 226.630603 
L 619.054237 230.804653 
L 629.711864 237.465165 
L 640.369492 241.974826 
L 651.027119 238.23731 
L 661.684746 237.276422 
L 672.342373 246.208771 
L 683 258.78089 
L 693.657627 272.643001 
L 704.315254 287.057371 
" clip-path="url(#p7b199322d2)" style="fill: none; stroke: #800080; stroke-width: 2; stroke-linecap: square"/>
   </g>
   <g id="line2d_16"/>
   <g id="line2d_17"/>
   <g id="patch_3">
    <path d="M 54.2 390.04 
L 54.2 10.8 
" style="fill: none; stroke: #000000; stroke-width: 0.8; stroke-linejoin: miter; stroke-linecap: square"/>
   </g>
   <g id="patch_4">
    <path d="M 709.2 390.04 
L 709.2 10.8 
" style="fill: none; stroke: #000000; stroke-width: 0.8; stroke-linejoin: miter; stroke-linecap: square"/>
   </g>
   <g id="patch_5">
    <path d="M 54.2 390.04 
L 709.2 390.04 
" style="fill: none; stroke: #000000; stroke-width: 0.8; stroke-linejoin: miter; stroke-linecap: square"/>
   </g>
   <g id="patch_6">
    <path d="M 54.2 10.8 
L 709.2 10.8 
" style="fill: none; stroke: #000000; stroke-width: 0.8; stroke-linejoin: miter; stroke-linecap: square"/>
   </g>
   <g id="legend_1">
    <g id="patch_7">
     <path d="M 603.38125 62.834375 
L 702.2 62.834375 
Q 704.2 62.834375 704.2 60.834375 
L 704.2 17.8 
Q 704.2 15.8 702.2 15.8 
L 603.38125 15.8 
Q 601.38125 15.8 601.38125 17.8 
L 601.38125 60.834375 
Q 601.38125 62.834375 603.38125 62.834375 
z
" style="fill: #ffffff; opacity: 0.8; stroke: #cccccc; stroke-linejoin: miter"/>
    </g>
    <g id="text_15">
     <text style="font: 10px 'DejaVu Sans', 'Bitstream Vera Sans', 'Computer Modern Sans Serif', 'Lucida Grande', 'Verdana', 'Geneva', 'Lucid', 'Arial', 'Helvetica', 'Avant Garde', sans-serif; text-anchor: start" x="629.672656" y="27.398438" transform="rotate(-0 629.672656 27.398438)">condition</text>
    </g>
    <g id="line2d_18">
     <path d="M 605.38125 38.576563 
L 615.38125 38.576563 
L 625.38125 38.576563 
" style="fill: none; stroke: #87ceeb; stroke-width: 1.5; stroke-linecap: square"/>
    </g>
    <g id="text_16">
     <text style="font: 10px 'DejaVu Sans', 'Bitstream Vera Sans', 'Computer Modern Sans Serif', 'Lucida Grande', 'Verdana', 'Geneva', 'Lucid', 'Arial', 'Helvetica', 'Avant Garde', sans-serif; text-anchor: start" x="633.38125" y="42.076563" transform="rotate(-0 633.38125 42.076563)">SS1 Broad</text>
    </g>
    <g id="line2d_19">
     <path d="M 605.38125 53.254688 
L 615.38125 53.254688 
L 625.38125 53.254688 
" style="fill: none; stroke: #800080; stroke-width: 1.5; stroke-linecap: square"/>
    </g>
    <g id="text_17">
     <text style="font: 10px 'DejaVu Sans', 'Bitstream Vera Sans', 'Computer Modern Sans Serif', 'Lucida Grande', 'Verdana', 'Geneva', 'Lucid', 'Arial', 'Helvetica', 'Avant Garde', sans-serif; text-anchor: start" x="633.38125" y="56.754688" transform="rotate(-0 633.38125 56.754688)">SS2 Superset</text>
    </g>
   </g>
  </g>
 </g>
 <defs>
  <clipPath id="p7b199322d2">
   <rect x="54.2" y="10.8" width="655" height="379.24"/>
  </clipPath>
 </defs>
</svg>
