<?xml version="1.0" encoding="utf-8" standalone="no"?>
<!DOCTYPE svg PUBLIC "-//W3C//DTD SVG 1.1//EN"
  "http://www.w3.org/Graphics/SVG/1.1/DTD/svg11.dtd">
<svg xmlns:xlink="http://www.w3.org/1999/xlink" width="720pt" height="432pt" viewBox="0 0 720 432" xmlns="http://www.w3.org/2000/svg" version="1.1">
 <metadata>
  <rdf:RDF xmlns:dc="http://purl.org/dc/elements/1.1/" xmlns:cc="http://creativecommons.org/ns#" xmlns:rdf="http://www.w3.org/1999/02/22-rdf-syntax-ns#">
   <cc:Work>
    <dc:type rdf:resource="http://purl.org/dc/dcmitype/StillImage"/>
    <dc:date>2024-01-29T12:27:24.081500</dc:date>
    <dc:format>image/svg+xml</dc:format>
    <dc:creator>
     <cc:Agent>
      <dc:title>Matplotlib v3.7.1, https://matplotlib.org/</dc:title>
     </cc:Agent>
    </dc:creator>
   </cc:Work>
  </rdf:RDF>
 </metadata>
 <defs>
  <style type="text/css">*{stroke-linejoin: round; stroke-linecap: butt}</style>
 </defs>
 <g id="figure_1">
  <g id="patch_1">
   <path d="M 0 432 
L 720 432 
L 720 0 
L 0 0 
z
" style="fill: #ffffff"/>
  </g>
  <g id="axes_1">
   <g id="patch_2">
    <path d="M 54.2 390.04 
L 709.2 390.04 
L 709.2 10.8 
L 54.2 10.8 
z
" style="fill: #ffffff"/>
   </g>
   <g id="PolyCollection_1">
    <defs>
     <path id="m4ca05d6fa3" d="M 159.666102 -400.131111 
L 159.666102 -41.96 
L 270.683051 -41.96 
L 270.683051 -400.131111 
L 270.683051 -400.131111 
L 159.666102 -400.131111 
z
" style="stroke: #808080; stroke-opacity: 0.5"/>
    </defs>
    <g clip-path="url(#pd5b6d7dc93)">
     <use xlink:href="#m4ca05d6fa3" x="0" y="432" style="fill: #808080; fill-opacity: 0.5; stroke: #808080; stroke-opacity: 0.5"/>
    </g>
   </g>
   <g id="PolyCollection_2">
    <defs>
     <path id="me7a8d5b575" d="M 54.2 -122.243382 
L 54.2 -55.369807 
L 64.857627 -47.559646 
L 75.515254 -57.685052 
L 86.172881 -66.537655 
L 96.830508 -65.122921 
L 107.488136 -53.499858 
L 118.145763 -57.83758 
L 128.80339 -59.9864 
L 139.461017 -61.651831 
L 150.118644 -61.246878 
L 160.776271 -67.003792 
L 171.433898 -89.924411 
L 182.091525 -116.902349 
L 192.749153 -166.325568 
L 203.40678 -217.095357 
L 214.064407 -253.319755 
L 224.722034 -279.994279 
L 235.379661 -292.62246 
L 246.037288 -297.590174 
L 256.694915 -294.231998 
L 267.352542 -291.485363 
L 278.010169 -286.427732 
L 288.667797 -274.737383 
L 299.325424 -278.532681 
L 309.983051 -264.86752 
L 320.640678 -262.185645 
L 331.298305 -257.173294 
L 341.955932 -253.309889 
L 352.613559 -251.808152 
L 363.271186 -253.218333 
L 373.928814 -256.006227 
L 384.586441 -248.698644 
L 395.244068 -253.415355 
L 405.901695 -246.804875 
L 416.559322 -247.356235 
L 427.216949 -239.034321 
L 437.874576 -249.006561 
L 448.532203 -246.194755 
L 459.189831 -257.279317 
L 469.847458 -261.931522 
L 480.505085 -233.324393 
L 491.162712 -205.862338 
L 501.820339 -195.969509 
L 512.477966 -190.384158 
L 523.135593 -172.783697 
L 533.79322 -160.468579 
L 544.450847 -146.775859 
L 555.108475 -139.01013 
L 565.766102 -144.386034 
L 576.423729 -144.760942 
L 587.081356 -146.876729 
L 597.738983 -155.727066 
L 608.39661 -152.800149 
L 619.054237 -146.79042 
L 629.711864 -141.393676 
L 640.369492 -139.591972 
L 651.027119 -141.413541 
L 661.684746 -138.04554 
L 672.342373 -139.007738 
L 683 -127.882089 
L 693.657627 -124.668664 
L 704.315254 -128.375955 
L 704.315254 -197.804991 
L 704.315254 -197.804991 
L 693.657627 -211.43298 
L 683 -215.327945 
L 672.342373 -224.486165 
L 661.684746 -227.724256 
L 651.027119 -234.038707 
L 640.369492 -241.5131 
L 629.711864 -247.514057 
L 619.054237 -251.166895 
L 608.39661 -261.186339 
L 597.738983 -262.035106 
L 587.081356 -258.780154 
L 576.423729 -264.793435 
L 565.766102 -269.020429 
L 555.108475 -269.949616 
L 544.450847 -282.375149 
L 533.79322 -292.801571 
L 523.135593 -295.661366 
L 512.477966 -320.4472 
L 501.820339 -319.651668 
L 491.162712 -328.831736 
L 480.505085 -342.113717 
L 469.847458 -363.678883 
L 459.189831 -373.848809 
L 448.532203 -381.249063 
L 437.874576 -389.866925 
L 427.216949 -387.779064 
L 416.559322 -382.570975 
L 405.901695 -388.335543 
L 395.244068 -386.662787 
L 384.586441 -388.353477 
L 373.928814 -388.12617 
L 363.271186 -376.822644 
L 352.613559 -376.235169 
L 341.955932 -375.280127 
L 331.298305 -374.308856 
L 320.640678 -364.389158 
L 309.983051 -371.562611 
L 299.325424 -375.057744 
L 288.667797 -377.508754 
L 278.010169 -387.135788 
L 267.352542 -384.127338 
L 256.694915 -377.836579 
L 246.037288 -379.723965 
L 235.379661 -373.985734 
L 224.722034 -355.070475 
L 214.064407 -329.153752 
L 203.40678 -291.334547 
L 192.749153 -248.938892 
L 182.091525 -205.552289 
L 171.433898 -157.974776 
L 160.776271 -126.807587 
L 150.118644 -116.635913 
L 139.461017 -117.644809 
L 128.80339 -115.205174 
L 118.145763 -116.383952 
L 107.488136 -119.161833 
L 96.830508 -128.311734 
L 86.172881 -130.298439 
L 75.515254 -127.751666 
L 64.857627 -121.627761 
L 54.2 -122.243382 
z
" style="stroke: #00ced1; stroke-opacity: 0.2"/>
    </defs>
    <g clip-path="url(#pd5b6d7dc93)">
     <use xlink:href="#me7a8d5b575" x="0" y="432" style="fill: #00ced1; fill-opacity: 0.2; stroke: #00ced1; stroke-opacity: 0.2"/>
    </g>
   </g>
   <g id="PolyCollection_3">
    <defs>
     <path id="m2df5500843" d="M 54.2 -112.049459 
L 54.2 -67.920694 
L 64.857627 -54.967663 
L 75.515254 -55.552614 
L 86.172881 -65.773779 
L 96.830508 -70.955072 
L 107.488136 -64.010583 
L 118.145763 -63.265685 
L 128.80339 -68.360324 
L 139.461017 -69.008429 
L 150.118644 -80.5116 
L 160.776271 -87.496052 
L 171.433898 -98.783614 
L 182.091525 -114.75039 
L 192.749153 -138.533604 
L 203.40678 -166.262309 
L 214.064407 -178.473422 
L 224.722034 -190.790445 
L 235.379661 -194.24957 
L 246.037288 -197.172871 
L 256.694915 -189.422215 
L 267.352542 -180.163209 
L 278.010169 -170.006904 
L 288.667797 -154.910364 
L 299.325424 -146.140421 
L 309.983051 -153.376508 
L 320.640678 -163.999581 
L 331.298305 -172.077197 
L 341.955932 -171.689456 
L 352.613559 -168.072843 
L 363.271186 -169.300968 
L 373.928814 -168.845432 
L 384.586441 -156.677997 
L 395.244068 -155.323294 
L 405.901695 -152.266095 
L 416.559322 -151.033665 
L 427.216949 -155.222823 
L 437.874576 -170.804079 
L 448.532203 -177.881976 
L 459.189831 -176.577835 
L 469.847458 -170.948135 
L 480.505085 -164.484815 
L 491.162712 -155.752523 
L 501.820339 -151.271219 
L 512.477966 -139.83145 
L 523.135593 -128.406982 
L 533.79322 -118.016225 
L 544.450847 -120.753032 
L 555.108475 -124.889684 
L 565.766102 -130.308051 
L 576.423729 -133.340197 
L 587.081356 -124.908299 
L 597.738983 -124.597568 
L 608.39661 -119.157269 
L 619.054237 -115.91591 
L 629.711864 -116.81983 
L 640.369492 -122.775561 
L 651.027119 -132.823608 
L 661.684746 -133.993463 
L 672.342373 -126.698662 
L 683 -124.032949 
L 693.657627 -121.193685 
L 704.315254 -119.482473 
L 704.315254 -176.856138 
L 704.315254 -176.856138 
L 693.657627 -187.211684 
L 683 -190.849827 
L 672.342373 -197.374798 
L 661.684746 -195.892065 
L 651.027119 -194.329148 
L 640.369492 -188.330624 
L 629.711864 -188.781808 
L 619.054237 -191.393627 
L 608.39661 -192.872466 
L 597.738983 -196.563031 
L 587.081356 -201.894456 
L 576.423729 -207.990705 
L 565.766102 -211.171533 
L 555.108475 -206.719863 
L 544.450847 -203.44791 
L 533.79322 -202.873766 
L 523.135593 -209.429147 
L 512.477966 -212.358113 
L 501.820339 -218.547815 
L 491.162712 -223.750375 
L 480.505085 -228.172174 
L 469.847458 -237.077742 
L 459.189831 -242.930784 
L 448.532203 -241.817589 
L 437.874576 -240.746699 
L 427.216949 -237.033488 
L 416.559322 -224.525018 
L 405.901695 -224.28671 
L 395.244068 -224.057194 
L 384.586441 -226.171604 
L 373.928814 -231.45382 
L 363.271186 -228.955745 
L 352.613559 -227.720859 
L 341.955932 -225.537324 
L 331.298305 -221.100533 
L 320.640678 -215.442817 
L 309.983051 -207.675675 
L 299.325424 -202.140205 
L 288.667797 -201.998114 
L 278.010169 -215.041184 
L 267.352542 -226.311743 
L 256.694915 -236.332244 
L 246.037288 -241.283769 
L 235.379661 -243.790124 
L 224.722034 -244.477811 
L 214.064407 -231.509613 
L 203.40678 -215.561116 
L 192.749153 -187.242634 
L 182.091525 -159.067766 
L 171.433898 -135.053277 
L 160.776271 -124.161941 
L 150.118644 -118.879148 
L 139.461017 -111.782528 
L 128.80339 -111.058959 
L 118.145763 -116.495874 
L 107.488136 -118.476597 
L 96.830508 -122.712689 
L 86.172881 -117.389024 
L 75.515254 -112.17673 
L 64.857627 -107.974039 
L 54.2 -112.049459 
z
" style="stroke: #d2691e; stroke-opacity: 0.2"/>
    </defs>
    <g clip-path="url(#pd5b6d7dc93)">
     <use xlink:href="#m2df5500843" x="0" y="432" style="fill: #d2691e; fill-opacity: 0.2; stroke: #d2691e; stroke-opacity: 0.2"/>
    </g>
   </g>
   <g id="matplotlib.axis_1">
    <g id="xtick_1">
     <g id="line2d_1">
      <defs>
       <path id="m5c8c6af122" d="M 0 0 
L 0 3.5 
" style="stroke: #000000; stroke-width: 0.8"/>
      </defs>
      <g>
       <use xlink:href="#m5c8c6af122" x="70.852542" y="390.04" style="stroke: #000000; stroke-width: 0.8"/>
      </g>
     </g>
     <g id="text_1">
      <text style="font: 10px 'DejaVu Sans', 'Bitstream Vera Sans', 'Computer Modern Sans Serif', 'Lucida Grande', 'Verdana', 'Geneva', 'Lucid', 'Arial', 'Helvetica', 'Avant Garde', sans-serif; text-anchor: middle" x="70.852542" y="404.638438" transform="rotate(-0 70.852542 404.638438)">−200</text>
     </g>
    </g>
    <g id="xtick_2">
     <g id="line2d_2">
      <g>
       <use xlink:href="#m5c8c6af122" x="159.666102" y="390.04" style="stroke: #000000; stroke-width: 0.8"/>
      </g>
     </g>
     <g id="text_2">
      <text style="font: 10px 'DejaVu Sans', 'Bitstream Vera Sans', 'Computer Modern Sans Serif', 'Lucida Grande', 'Verdana', 'Geneva', 'Lucid', 'Arial', 'Helvetica', 'Avant Garde', sans-serif; text-anchor: middle" x="159.666102" y="404.638438" transform="rotate(-0 159.666102 404.638438)">0</text>
     </g>
    </g>
    <g id="xtick_3">
     <g id="line2d_3">
      <g>
       <use xlink:href="#m5c8c6af122" x="248.479661" y="390.04" style="stroke: #000000; stroke-width: 0.8"/>
      </g>
     </g>
     <g id="text_3">
      <text style="font: 10px 'DejaVu Sans', 'Bitstream Vera Sans', 'Computer Modern Sans Serif', 'Lucida Grande', 'Verdana', 'Geneva', 'Lucid', 'Arial', 'Helvetica', 'Avant Garde', sans-serif; text-anchor: middle" x="248.479661" y="404.638438" transform="rotate(-0 248.479661 404.638438)">200</text>
     </g>
    </g>
    <g id="xtick_4">
     <g id="line2d_4">
      <g>
       <use xlink:href="#m5c8c6af122" x="337.29322" y="390.04" style="stroke: #000000; stroke-width: 0.8"/>
      </g>
     </g>
     <g id="text_4">
      <text style="font: 10px 'DejaVu Sans', 'Bitstream Vera Sans', 'Computer Modern Sans Serif', 'Lucida Grande', 'Verdana', 'Geneva', 'Lucid', 'Arial', 'Helvetica', 'Avant Garde', sans-serif; text-anchor: middle" x="337.29322" y="404.638438" transform="rotate(-0 337.29322 404.638438)">400</text>
     </g>
    </g>
    <g id="xtick_5">
     <g id="line2d_5">
      <g>
       <use xlink:href="#m5c8c6af122" x="426.10678" y="390.04" style="stroke: #000000; stroke-width: 0.8"/>
      </g>
     </g>
     <g id="text_5">
      <text style="font: 10px 'DejaVu Sans', 'Bitstream Vera Sans', 'Computer Modern Sans Serif', 'Lucida Grande', 'Verdana', 'Geneva', 'Lucid', 'Arial', 'Helvetica', 'Avant Garde', sans-serif; text-anchor: middle" x="426.10678" y="404.638438" transform="rotate(-0 426.10678 404.638438)">600</text>
     </g>
    </g>
    <g id="xtick_6">
     <g id="line2d_6">
      <g>
       <use xlink:href="#m5c8c6af122" x="514.920339" y="390.04" style="stroke: #000000; stroke-width: 0.8"/>
      </g>
     </g>
     <g id="text_6">
      <text style="font: 10px 'DejaVu Sans', 'Bitstream Vera Sans', 'Computer Modern Sans Serif', 'Lucida Grande', 'Verdana', 'Geneva', 'Lucid', 'Arial', 'Helvetica', 'Avant Garde', sans-serif; text-anchor: middle" x="514.920339" y="404.638438" transform="rotate(-0 514.920339 404.638438)">800</text>
     </g>
    </g>
    <g id="xtick_7">
     <g id="line2d_7">
      <g>
       <use xlink:href="#m5c8c6af122" x="603.733898" y="390.04" style="stroke: #000000; stroke-width: 0.8"/>
      </g>
     </g>
     <g id="text_7">
      <text style="font: 10px 'DejaVu Sans', 'Bitstream Vera Sans', 'Computer Modern Sans Serif', 'Lucida Grande', 'Verdana', 'Geneva', 'Lucid', 'Arial', 'Helvetica', 'Avant Garde', sans-serif; text-anchor: middle" x="603.733898" y="404.638438" transform="rotate(-0 603.733898 404.638438)">1000</text>
     </g>
    </g>
    <g id="xtick_8">
     <g id="line2d_8">
      <g>
       <use xlink:href="#m5c8c6af122" x="692.547458" y="390.04" style="stroke: #000000; stroke-width: 0.8"/>
      </g>
     </g>
     <g id="text_8">
      <text style="font: 10px 'DejaVu Sans', 'Bitstream Vera Sans', 'Computer Modern Sans Serif', 'Lucida Grande', 'Verdana', 'Geneva', 'Lucid', 'Arial', 'Helvetica', 'Avant Garde', sans-serif; text-anchor: middle" x="692.547458" y="404.638438" transform="rotate(-0 692.547458 404.638438)">1200</text>
     </g>
    </g>
    <g id="text_9">
     <text style="font: 10px 'DejaVu Sans', 'Bitstream Vera Sans', 'Computer Modern Sans Serif', 'Lucida Grande', 'Verdana', 'Geneva', 'Lucid', 'Arial', 'Helvetica', 'Avant Garde', sans-serif; text-anchor: middle" x="381.7" y="418.316562" transform="rotate(-0 381.7 418.316562)">time</text>
    </g>
   </g>
   <g id="matplotlib.axis_2">
    <g id="ytick_1">
     <g id="line2d_9">
      <defs>
       <path id="m290cf795d4" d="M 0 0 
L -3.5 0 
" style="stroke: #000000; stroke-width: 0.8"/>
      </defs>
      <g>
       <use xlink:href="#m290cf795d4" x="54.2" y="347.902222" style="stroke: #000000; stroke-width: 0.8"/>
      </g>
     </g>
     <g id="text_10">
      <text style="font: 10px 'DejaVu Sans', 'Bitstream Vera Sans', 'Computer Modern Sans Serif', 'Lucida Grande', 'Verdana', 'Geneva', 'Lucid', 'Arial', 'Helvetica', 'Avant Garde', sans-serif; text-anchor: end" x="47.2" y="351.701441" transform="rotate(-0 47.2 351.701441)">0.00</text>
     </g>
    </g>
    <g id="ytick_2">
     <g id="line2d_10">
      <g>
       <use xlink:href="#m290cf795d4" x="54.2" y="263.626667" style="stroke: #000000; stroke-width: 0.8"/>
      </g>
     </g>
     <g id="text_11">
      <text style="font: 10px 'DejaVu Sans', 'Bitstream Vera Sans', 'Computer Modern Sans Serif', 'Lucida Grande', 'Verdana', 'Geneva', 'Lucid', 'Arial', 'Helvetica', 'Avant Garde', sans-serif; text-anchor: end" x="47.2" y="267.425885" transform="rotate(-0 47.2 267.425885)">0.04</text>
     </g>
    </g>
    <g id="ytick_3">
     <g id="line2d_11">
      <g>
       <use xlink:href="#m290cf795d4" x="54.2" y="179.351111" style="stroke: #000000; stroke-width: 0.8"/>
      </g>
     </g>
     <g id="text_12">
      <text style="font: 10px 'DejaVu Sans', 'Bitstream Vera Sans', 'Computer Modern Sans Serif', 'Lucida Grande', 'Verdana', 'Geneva', 'Lucid', 'Arial', 'Helvetica', 'Avant Garde', sans-serif; text-anchor: end" x="47.2" y="183.15033" transform="rotate(-0 47.2 183.15033)">0.08</text>
     </g>
    </g>
    <g id="ytick_4">
     <g id="line2d_12">
      <g>
       <use xlink:href="#m290cf795d4" x="54.2" y="95.075556" style="stroke: #000000; stroke-width: 0.8"/>
      </g>
     </g>
     <g id="text_13">
      <text style="font: 10px 'DejaVu Sans', 'Bitstream Vera Sans', 'Computer Modern Sans Serif', 'Lucida Grande', 'Verdana', 'Geneva', 'Lucid', 'Arial', 'Helvetica', 'Avant Garde', sans-serif; text-anchor: end" x="47.2" y="98.874774" transform="rotate(-0 47.2 98.874774)">0.12</text>
     </g>
    </g>
    <g id="text_14">
     <text style="font: 10px 'DejaVu Sans', 'Bitstream Vera Sans', 'Computer Modern Sans Serif', 'Lucida Grande', 'Verdana', 'Geneva', 'Lucid', 'Arial', 'Helvetica', 'Avant Garde', sans-serif; text-anchor: middle" x="18.854688" y="200.42" transform="rotate(-90 18.854688 200.42)">Slope</text>
    </g>
   </g>
   <g id="line2d_13">
    <path d="M 54.2 347.902222 
L 709.2 347.902222 
" clip-path="url(#pd5b6d7dc93)" style="fill: none; stroke-dasharray: 7.4,3.2; stroke-dashoffset: 0; stroke: #000000; stroke-width: 2"/>
   </g>
   <g id="line2d_14">
    <path d="M 54.2 343.189202 
L 64.857627 348.259929 
L 75.515254 339.213249 
L 86.172881 332.22819 
L 96.830508 335.164645 
L 107.488136 344.837544 
L 118.145763 345.603866 
L 128.80339 343.274358 
L 139.461017 342.949375 
L 150.118644 343.316476 
L 160.776271 337.372743 
L 171.433898 309.505315 
L 182.091525 269.499 
L 192.749153 225.520674 
L 203.40678 177.971717 
L 214.064407 142.593887 
L 224.722034 113.584726 
L 235.379661 99.088149 
L 246.037288 93.792961 
L 256.694915 94.828433 
L 267.352542 95.334019 
L 278.010169 94.950771 
L 288.667797 102.116817 
L 299.325424 105.710917 
L 309.983051 112.667296 
L 320.640678 116.936015 
L 331.298305 116.246181 
L 341.955932 116.784402 
L 352.613559 116.914015 
L 363.271186 114.909418 
L 373.928814 109.24818 
L 384.586441 110.715432 
L 395.244068 113.357009 
L 405.901695 115.439135 
L 416.559322 117.294911 
L 427.216949 116.907465 
L 437.874576 112.666643 
L 448.532203 112.977432 
L 459.189831 114.772361 
L 469.847458 121.908865 
L 480.505085 142.405079 
L 491.162712 163.718721 
L 501.820339 174.298138 
L 512.477966 181.771318 
L 523.135593 196.461674 
L 533.79322 208.474685 
L 544.450847 217.18383 
L 555.108475 222.456325 
L 565.766102 226.924511 
L 576.423729 229.105769 
L 587.081356 226.86514 
L 597.738983 224.444068 
L 608.39661 226.892914 
L 619.054237 233.270567 
L 629.711864 239.606016 
L 640.369492 244.588362 
L 651.027119 245.879714 
L 661.684746 248.324909 
L 672.342373 251.743451 
L 683 258.779729 
L 693.657627 263.673733 
L 704.315254 270.441241 
" clip-path="url(#pd5b6d7dc93)" style="fill: none; stroke: #00ced1; stroke-width: 2; stroke-linecap: square"/>
   </g>
   <g id="line2d_15">
    <path d="M 54.2 340.715431 
L 64.857627 348.291904 
L 75.515254 347.848013 
L 86.172881 340.935713 
L 96.830508 335.79824 
L 107.488136 339.47197 
L 118.145763 342.331696 
L 128.80339 342.093292 
L 139.461017 340.327196 
L 150.118644 331.786673 
L 160.776271 325.715404 
L 171.433898 315.283099 
L 182.091525 294.079338 
L 192.749153 267.153233 
L 203.40678 240.634283 
L 214.064407 224.730107 
L 224.722034 215.176713 
L 235.379661 213.284643 
L 246.037288 213.035902 
L 256.694915 218.606514 
L 267.352542 229.399738 
L 278.010169 240.205943 
L 288.667797 253.348144 
L 299.325424 257.862348 
L 309.983051 251.625234 
L 320.640678 242.167271 
L 331.298305 234.846278 
L 341.955932 232.590218 
L 352.613559 232.169425 
L 363.271186 231.332799 
L 373.928814 232.678565 
L 384.586441 239.126312 
L 395.244068 241.204516 
L 405.901695 242.957659 
L 416.559322 241.786646 
L 427.216949 235.568297 
L 437.874576 226.451694 
L 448.532203 221.497633 
L 459.189831 221.154364 
L 469.847458 226.179845 
L 480.505085 234.940885 
L 491.162712 240.709562 
L 501.820339 245.261182 
L 512.477966 253.87507 
L 523.135593 264.804353 
L 533.79322 270.194195 
L 544.450847 269.238982 
L 555.108475 265.763429 
L 565.766102 261.108615 
L 576.423729 263.108834 
L 587.081356 268.223636 
L 597.738983 272.271823 
L 608.39661 275.678067 
L 619.054237 279.088734 
L 629.711864 281.266155 
L 640.369492 276.937915 
L 651.027119 269.463469 
L 661.684746 266.792509 
L 672.342373 269.673764 
L 683 274.269037 
L 693.657627 277.56778 
L 704.315254 283.650098 
" clip-path="url(#pd5b6d7dc93)" style="fill: none; stroke: #d2691e; stroke-width: 2; stroke-linecap: square"/>
   </g>
   <g id="line2d_16"/>
   <g id="line2d_17"/>
   <g id="patch_3">
    <path d="M 54.2 390.04 
L 54.2 10.8 
" style="fill: none; stroke: #000000; stroke-width: 0.8; stroke-linejoin: miter; stroke-linecap: square"/>
   </g>
   <g id="patch_4">
    <path d="M 709.2 390.04 
L 709.2 10.8 
" style="fill: none; stroke: #000000; stroke-width: 0.8; stroke-linejoin: miter; stroke-linecap: square"/>
   </g>
   <g id="patch_5">
    <path d="M 54.2 390.04 
L 709.2 390.04 
" style="fill: none; stroke: #000000; stroke-width: 0.8; stroke-linejoin: miter; stroke-linecap: square"/>
   </g>
   <g id="patch_6">
    <path d="M 54.2 10.8 
L 709.2 10.8 
" style="fill: none; stroke: #000000; stroke-width: 0.8; stroke-linejoin: miter; stroke-linecap: square"/>
   </g>
   <g id="legend_1">
    <g id="patch_7">
     <path d="M 651.140625 62.834375 
L 702.2 62.834375 
Q 704.2 62.834375 704.2 60.834375 
L 704.2 17.8 
Q 704.2 15.8 702.2 15.8 
L 651.140625 15.8 
Q 649.140625 15.8 649.140625 17.8 
L 649.140625 60.834375 
Q 649.140625 62.834375 651.140625 62.834375 
z
" style="fill: #ffffff; opacity: 0.8; stroke: #cccccc; stroke-linejoin: miter"/>
    </g>
    <g id="text_15">
     <text style="font: 10px 'DejaVu Sans', 'Bitstream Vera Sans', 'Computer Modern Sans Serif', 'Lucida Grande', 'Verdana', 'Geneva', 'Lucid', 'Arial', 'Helvetica', 'Avant Garde', sans-serif; text-anchor: start" x="653.552344" y="27.398438" transform="rotate(-0 653.552344 27.398438)">condition</text>
    </g>
    <g id="line2d_18">
     <path d="M 653.140625 38.576563 
L 663.140625 38.576563 
L 673.140625 38.576563 
" style="fill: none; stroke: #00ced1; stroke-width: 1.5; stroke-linecap: square"/>
    </g>
    <g id="text_16">
     <text style="font: 10px 'DejaVu Sans', 'Bitstream Vera Sans', 'Computer Modern Sans Serif', 'Lucida Grande', 'Verdana', 'Geneva', 'Lucid', 'Arial', 'Helvetica', 'Avant Garde', sans-serif; text-anchor: start" x="681.140625" y="42.076563" transform="rotate(-0 681.140625 42.076563)">SS1</text>
    </g>
    <g id="line2d_19">
     <path d="M 653.140625 53.254688 
L 663.140625 53.254688 
L 673.140625 53.254688 
" style="fill: none; stroke: #d2691e; stroke-width: 1.5; stroke-linecap: square"/>
    </g>
    <g id="text_17">
     <text style="font: 10px 'DejaVu Sans', 'Bitstream Vera Sans', 'Computer Modern Sans Serif', 'Lucida Grande', 'Verdana', 'Geneva', 'Lucid', 'Arial', 'Helvetica', 'Avant Garde', sans-serif; text-anchor: start" x="681.140625" y="56.754688" transform="rotate(-0 681.140625 56.754688)">SS2</text>
    </g>
   </g>
  </g>
 </g>
 <defs>
  <clipPath id="pd5b6d7dc93">
   <rect x="54.2" y="10.8" width="655" height="379.24"/>
  </clipPath>
 </defs>
</svg>
