<?xml version="1.0" encoding="utf-8" standalone="no"?>
<!DOCTYPE svg PUBLIC "-//W3C//DTD SVG 1.1//EN"
  "http://www.w3.org/Graphics/SVG/1.1/DTD/svg11.dtd">
<svg xmlns:xlink="http://www.w3.org/1999/xlink" width="856.380938pt" height="495.353125pt" viewBox="0 0 856.380938 495.353125" xmlns="http://www.w3.org/2000/svg" version="1.1">
 <metadata>
  <rdf:RDF xmlns:dc="http://purl.org/dc/elements/1.1/" xmlns:cc="http://creativecommons.org/ns#" xmlns:rdf="http://www.w3.org/1999/02/22-rdf-syntax-ns#">
   <cc:Work>
    <dc:type rdf:resource="http://purl.org/dc/dcmitype/StillImage"/>
    <dc:date>2024-01-18T11:09:39.454680</dc:date>
    <dc:format>image/svg+xml</dc:format>
    <dc:creator>
     <cc:Agent>
      <dc:title>Matplotlib v3.7.1, https://matplotlib.org/</dc:title>
     </cc:Agent>
    </dc:creator>
   </cc:Work>
  </rdf:RDF>
 </metadata>
 <defs>
  <style type="text/css">*{stroke-linejoin: round; stroke-linecap: butt}</style>
 </defs>
 <g id="figure_1">
  <g id="patch_1">
   <path d="M 0 495.353125 
L 856.380938 495.353125 
L 856.380938 0 
L 0 0 
z
" style="fill: #ffffff"/>
  </g>
  <g id="axes_1">
   <g id="patch_2">
    <path d="M 52.160938 457.796875 
L 849.180938 457.796875 
L 849.180938 28.396875 
L 52.160938 28.396875 
z
" style="fill: #ffffff"/>
   </g>
   <g id="PolyCollection_1">
    <defs>
     <path id="m468c83d6c5" d="M 200.821408 -476.498472 
L 200.821408 -37.55625 
L 325.746173 -37.55625 
L 325.746173 -476.498472 
L 325.746173 -476.498472 
L 200.821408 -476.498472 
z
" style="stroke: #808080; stroke-opacity: 0.5"/>
    </defs>
    <g clip-path="url(#p20de6962dc)">
     <use xlink:href="#m468c83d6c5" x="0" y="495.353125" style="fill: #808080; fill-opacity: 0.5; stroke: #808080; stroke-opacity: 0.5"/>
    </g>
   </g>
   <g id="PathCollection_1">
    <defs>
     <path id="m8fae640cef" d="M -1.936492 1.936492 
L 1.936492 1.936492 
L 1.936492 -1.936492 
L -1.936492 -1.936492 
z
" style="stroke: #1f77b4"/>
    </defs>
    <g clip-path="url(#p20de6962dc)">
     <use xlink:href="#m8fae640cef" x="263.28379" y="414.856875" style="fill: #1f77b4; stroke: #1f77b4"/>
     <use xlink:href="#m8fae640cef" x="288.268743" y="414.856875" style="fill: #1f77b4; stroke: #1f77b4"/>
     <use xlink:href="#m8fae640cef" x="313.253696" y="414.856875" style="fill: #1f77b4; stroke: #1f77b4"/>
     <use xlink:href="#m8fae640cef" x="338.238649" y="414.856875" style="fill: #1f77b4; stroke: #1f77b4"/>
     <use xlink:href="#m8fae640cef" x="363.223602" y="414.856875" style="fill: #1f77b4; stroke: #1f77b4"/>
     <use xlink:href="#m8fae640cef" x="388.208555" y="414.856875" style="fill: #1f77b4; stroke: #1f77b4"/>
     <use xlink:href="#m8fae640cef" x="413.193508" y="414.856875" style="fill: #1f77b4; stroke: #1f77b4"/>
     <use xlink:href="#m8fae640cef" x="438.178461" y="414.856875" style="fill: #1f77b4; stroke: #1f77b4"/>
     <use xlink:href="#m8fae640cef" x="463.163414" y="414.856875" style="fill: #1f77b4; stroke: #1f77b4"/>
     <use xlink:href="#m8fae640cef" x="488.148367" y="414.856875" style="fill: #1f77b4; stroke: #1f77b4"/>
     <use xlink:href="#m8fae640cef" x="513.13332" y="414.856875" style="fill: #1f77b4; stroke: #1f77b4"/>
     <use xlink:href="#m8fae640cef" x="538.118273" y="414.856875" style="fill: #1f77b4; stroke: #1f77b4"/>
     <use xlink:href="#m8fae640cef" x="563.103226" y="414.856875" style="fill: #1f77b4; stroke: #1f77b4"/>
     <use xlink:href="#m8fae640cef" x="588.088179" y="414.856875" style="fill: #1f77b4; stroke: #1f77b4"/>
     <use xlink:href="#m8fae640cef" x="613.073132" y="414.856875" style="fill: #1f77b4; stroke: #1f77b4"/>
     <use xlink:href="#m8fae640cef" x="638.058085" y="414.856875" style="fill: #1f77b4; stroke: #1f77b4"/>
     <use xlink:href="#m8fae640cef" x="663.043038" y="414.856875" style="fill: #1f77b4; stroke: #1f77b4"/>
     <use xlink:href="#m8fae640cef" x="688.027991" y="414.856875" style="fill: #1f77b4; stroke: #1f77b4"/>
     <use xlink:href="#m8fae640cef" x="713.012944" y="414.856875" style="fill: #1f77b4; stroke: #1f77b4"/>
     <use xlink:href="#m8fae640cef" x="737.997897" y="414.856875" style="fill: #1f77b4; stroke: #1f77b4"/>
     <use xlink:href="#m8fae640cef" x="762.98285" y="414.856875" style="fill: #1f77b4; stroke: #1f77b4"/>
     <use xlink:href="#m8fae640cef" x="787.967803" y="414.856875" style="fill: #1f77b4; stroke: #1f77b4"/>
     <use xlink:href="#m8fae640cef" x="812.952756" y="414.856875" style="fill: #1f77b4; stroke: #1f77b4"/>
    </g>
   </g>
   <g id="PathCollection_2">
    <defs>
     <path id="mce62aa10eb" d="M -1.936492 1.936492 
L 1.936492 1.936492 
L 1.936492 -1.936492 
L -1.936492 -1.936492 
z
" style="stroke: #ff7f0e"/>
    </defs>
    <g clip-path="url(#p20de6962dc)">
     <use xlink:href="#mce62aa10eb" x="313.253696" y="426.784653" style="fill: #ff7f0e; stroke: #ff7f0e"/>
     <use xlink:href="#mce62aa10eb" x="713.012944" y="426.784653" style="fill: #ff7f0e; stroke: #ff7f0e"/>
    </g>
   </g>
   <g id="PathCollection_3">
    <defs>
     <path id="mf33406fd1a" d="M -1.936492 1.936492 
L 1.936492 1.936492 
L 1.936492 -1.936492 
L -1.936492 -1.936492 
z
" style="stroke: #2ca02c"/>
    </defs>
    <g clip-path="url(#p20de6962dc)">
     <use xlink:href="#mf33406fd1a" x="213.313884" y="438.712431" style="fill: #2ca02c; stroke: #2ca02c"/>
     <use xlink:href="#mf33406fd1a" x="313.253696" y="438.712431" style="fill: #2ca02c; stroke: #2ca02c"/>
     <use xlink:href="#mf33406fd1a" x="338.238649" y="438.712431" style="fill: #2ca02c; stroke: #2ca02c"/>
     <use xlink:href="#mf33406fd1a" x="363.223602" y="438.712431" style="fill: #2ca02c; stroke: #2ca02c"/>
     <use xlink:href="#mf33406fd1a" x="388.208555" y="438.712431" style="fill: #2ca02c; stroke: #2ca02c"/>
     <use xlink:href="#mf33406fd1a" x="413.193508" y="438.712431" style="fill: #2ca02c; stroke: #2ca02c"/>
     <use xlink:href="#mf33406fd1a" x="438.178461" y="438.712431" style="fill: #2ca02c; stroke: #2ca02c"/>
     <use xlink:href="#mf33406fd1a" x="463.163414" y="438.712431" style="fill: #2ca02c; stroke: #2ca02c"/>
     <use xlink:href="#mf33406fd1a" x="488.148367" y="438.712431" style="fill: #2ca02c; stroke: #2ca02c"/>
     <use xlink:href="#mf33406fd1a" x="513.13332" y="438.712431" style="fill: #2ca02c; stroke: #2ca02c"/>
     <use xlink:href="#mf33406fd1a" x="538.118273" y="438.712431" style="fill: #2ca02c; stroke: #2ca02c"/>
     <use xlink:href="#mf33406fd1a" x="563.103226" y="438.712431" style="fill: #2ca02c; stroke: #2ca02c"/>
     <use xlink:href="#mf33406fd1a" x="588.088179" y="438.712431" style="fill: #2ca02c; stroke: #2ca02c"/>
     <use xlink:href="#mf33406fd1a" x="613.073132" y="438.712431" style="fill: #2ca02c; stroke: #2ca02c"/>
     <use xlink:href="#mf33406fd1a" x="638.058085" y="438.712431" style="fill: #2ca02c; stroke: #2ca02c"/>
     <use xlink:href="#mf33406fd1a" x="663.043038" y="438.712431" style="fill: #2ca02c; stroke: #2ca02c"/>
     <use xlink:href="#mf33406fd1a" x="688.027991" y="438.712431" style="fill: #2ca02c; stroke: #2ca02c"/>
     <use xlink:href="#mf33406fd1a" x="713.012944" y="438.712431" style="fill: #2ca02c; stroke: #2ca02c"/>
     <use xlink:href="#mf33406fd1a" x="737.997897" y="438.712431" style="fill: #2ca02c; stroke: #2ca02c"/>
     <use xlink:href="#mf33406fd1a" x="762.98285" y="438.712431" style="fill: #2ca02c; stroke: #2ca02c"/>
    </g>
   </g>
   <g id="PathCollection_4">
    <defs>
     <path id="m4b1fb8ffa5" d="M -1.936492 1.936492 
L 1.936492 1.936492 
L 1.936492 -1.936492 
L -1.936492 -1.936492 
z
" style="stroke: #d62728"/>
    </defs>
    <g clip-path="url(#p20de6962dc)">
     <use xlink:href="#m4b1fb8ffa5" x="263.28379" y="450.640208" style="fill: #d62728; stroke: #d62728"/>
     <use xlink:href="#m4b1fb8ffa5" x="288.268743" y="450.640208" style="fill: #d62728; stroke: #d62728"/>
     <use xlink:href="#m4b1fb8ffa5" x="313.253696" y="450.640208" style="fill: #d62728; stroke: #d62728"/>
     <use xlink:href="#m4b1fb8ffa5" x="338.238649" y="450.640208" style="fill: #d62728; stroke: #d62728"/>
     <use xlink:href="#m4b1fb8ffa5" x="363.223602" y="450.640208" style="fill: #d62728; stroke: #d62728"/>
     <use xlink:href="#m4b1fb8ffa5" x="388.208555" y="450.640208" style="fill: #d62728; stroke: #d62728"/>
     <use xlink:href="#m4b1fb8ffa5" x="413.193508" y="450.640208" style="fill: #d62728; stroke: #d62728"/>
     <use xlink:href="#m4b1fb8ffa5" x="438.178461" y="450.640208" style="fill: #d62728; stroke: #d62728"/>
     <use xlink:href="#m4b1fb8ffa5" x="463.163414" y="450.640208" style="fill: #d62728; stroke: #d62728"/>
     <use xlink:href="#m4b1fb8ffa5" x="488.148367" y="450.640208" style="fill: #d62728; stroke: #d62728"/>
     <use xlink:href="#m4b1fb8ffa5" x="513.13332" y="450.640208" style="fill: #d62728; stroke: #d62728"/>
     <use xlink:href="#m4b1fb8ffa5" x="538.118273" y="450.640208" style="fill: #d62728; stroke: #d62728"/>
     <use xlink:href="#m4b1fb8ffa5" x="563.103226" y="450.640208" style="fill: #d62728; stroke: #d62728"/>
     <use xlink:href="#m4b1fb8ffa5" x="588.088179" y="450.640208" style="fill: #d62728; stroke: #d62728"/>
     <use xlink:href="#m4b1fb8ffa5" x="613.073132" y="450.640208" style="fill: #d62728; stroke: #d62728"/>
     <use xlink:href="#m4b1fb8ffa5" x="638.058085" y="450.640208" style="fill: #d62728; stroke: #d62728"/>
     <use xlink:href="#m4b1fb8ffa5" x="663.043038" y="450.640208" style="fill: #d62728; stroke: #d62728"/>
    </g>
   </g>
   <g id="matplotlib.axis_1">
    <g id="xtick_1">
     <g id="line2d_1">
      <defs>
       <path id="mb67903014e" d="M 0 0 
L 0 3.5 
" style="stroke: #000000; stroke-width: 0.8"/>
      </defs>
      <g>
       <use xlink:href="#mb67903014e" x="100.881596" y="457.796875" style="stroke: #000000; stroke-width: 0.8"/>
      </g>
     </g>
     <g id="text_1">
      <text style="font: 10px 'DejaVu Sans', 'Bitstream Vera Sans', 'Computer Modern Sans Serif', 'Lucida Grande', 'Verdana', 'Geneva', 'Lucid', 'Arial', 'Helvetica', 'Avant Garde', sans-serif; text-anchor: middle" x="100.881596" y="472.395312" transform="rotate(-0 100.881596 472.395312)">−200</text>
     </g>
    </g>
    <g id="xtick_2">
     <g id="line2d_2">
      <g>
       <use xlink:href="#mb67903014e" x="200.821408" y="457.796875" style="stroke: #000000; stroke-width: 0.8"/>
      </g>
     </g>
     <g id="text_2">
      <text style="font: 10px 'DejaVu Sans', 'Bitstream Vera Sans', 'Computer Modern Sans Serif', 'Lucida Grande', 'Verdana', 'Geneva', 'Lucid', 'Arial', 'Helvetica', 'Avant Garde', sans-serif; text-anchor: middle" x="200.821408" y="472.395312" transform="rotate(-0 200.821408 472.395312)">0</text>
     </g>
    </g>
    <g id="xtick_3">
     <g id="line2d_3">
      <g>
       <use xlink:href="#mb67903014e" x="300.76122" y="457.796875" style="stroke: #000000; stroke-width: 0.8"/>
      </g>
     </g>
     <g id="text_3">
      <text style="font: 10px 'DejaVu Sans', 'Bitstream Vera Sans', 'Computer Modern Sans Serif', 'Lucida Grande', 'Verdana', 'Geneva', 'Lucid', 'Arial', 'Helvetica', 'Avant Garde', sans-serif; text-anchor: middle" x="300.76122" y="472.395312" transform="rotate(-0 300.76122 472.395312)">200</text>
     </g>
    </g>
    <g id="xtick_4">
     <g id="line2d_4">
      <g>
       <use xlink:href="#mb67903014e" x="400.701032" y="457.796875" style="stroke: #000000; stroke-width: 0.8"/>
      </g>
     </g>
     <g id="text_4">
      <text style="font: 10px 'DejaVu Sans', 'Bitstream Vera Sans', 'Computer Modern Sans Serif', 'Lucida Grande', 'Verdana', 'Geneva', 'Lucid', 'Arial', 'Helvetica', 'Avant Garde', sans-serif; text-anchor: middle" x="400.701032" y="472.395312" transform="rotate(-0 400.701032 472.395312)">400</text>
     </g>
    </g>
    <g id="xtick_5">
     <g id="line2d_5">
      <g>
       <use xlink:href="#mb67903014e" x="500.640843" y="457.796875" style="stroke: #000000; stroke-width: 0.8"/>
      </g>
     </g>
     <g id="text_5">
      <text style="font: 10px 'DejaVu Sans', 'Bitstream Vera Sans', 'Computer Modern Sans Serif', 'Lucida Grande', 'Verdana', 'Geneva', 'Lucid', 'Arial', 'Helvetica', 'Avant Garde', sans-serif; text-anchor: middle" x="500.640843" y="472.395312" transform="rotate(-0 500.640843 472.395312)">600</text>
     </g>
    </g>
    <g id="xtick_6">
     <g id="line2d_6">
      <g>
       <use xlink:href="#mb67903014e" x="600.580655" y="457.796875" style="stroke: #000000; stroke-width: 0.8"/>
      </g>
     </g>
     <g id="text_6">
      <text style="font: 10px 'DejaVu Sans', 'Bitstream Vera Sans', 'Computer Modern Sans Serif', 'Lucida Grande', 'Verdana', 'Geneva', 'Lucid', 'Arial', 'Helvetica', 'Avant Garde', sans-serif; text-anchor: middle" x="600.580655" y="472.395312" transform="rotate(-0 600.580655 472.395312)">800</text>
     </g>
    </g>
    <g id="xtick_7">
     <g id="line2d_7">
      <g>
       <use xlink:href="#mb67903014e" x="700.520467" y="457.796875" style="stroke: #000000; stroke-width: 0.8"/>
      </g>
     </g>
     <g id="text_7">
      <text style="font: 10px 'DejaVu Sans', 'Bitstream Vera Sans', 'Computer Modern Sans Serif', 'Lucida Grande', 'Verdana', 'Geneva', 'Lucid', 'Arial', 'Helvetica', 'Avant Garde', sans-serif; text-anchor: middle" x="700.520467" y="472.395312" transform="rotate(-0 700.520467 472.395312)">1000</text>
     </g>
    </g>
    <g id="xtick_8">
     <g id="line2d_8">
      <g>
       <use xlink:href="#mb67903014e" x="800.460279" y="457.796875" style="stroke: #000000; stroke-width: 0.8"/>
      </g>
     </g>
     <g id="text_8">
      <text style="font: 10px 'DejaVu Sans', 'Bitstream Vera Sans', 'Computer Modern Sans Serif', 'Lucida Grande', 'Verdana', 'Geneva', 'Lucid', 'Arial', 'Helvetica', 'Avant Garde', sans-serif; text-anchor: middle" x="800.460279" y="472.395312" transform="rotate(-0 800.460279 472.395312)">1200</text>
     </g>
    </g>
    <g id="text_9">
     <text style="font: 10px 'DejaVu Sans', 'Bitstream Vera Sans', 'Computer Modern Sans Serif', 'Lucida Grande', 'Verdana', 'Geneva', 'Lucid', 'Arial', 'Helvetica', 'Avant Garde', sans-serif; text-anchor: middle" x="450.670937" y="486.073437" transform="rotate(-0 450.670937 486.073437)">timepoint</text>
    </g>
   </g>
   <g id="matplotlib.axis_2">
    <g id="ytick_1">
     <g id="line2d_9">
      <defs>
       <path id="m804f775fa0" d="M 0 0 
L -3.5 0 
" style="stroke: #000000; stroke-width: 0.8"/>
      </defs>
      <g>
       <use xlink:href="#m804f775fa0" x="52.160938" y="457.796875" style="stroke: #000000; stroke-width: 0.8"/>
      </g>
     </g>
     <g id="text_10">
      <text style="font: 10px 'DejaVu Sans', 'Bitstream Vera Sans', 'Computer Modern Sans Serif', 'Lucida Grande', 'Verdana', 'Geneva', 'Lucid', 'Arial', 'Helvetica', 'Avant Garde', sans-serif; text-anchor: end" x="45.160938" y="461.596094" transform="rotate(-0 45.160938 461.596094)">−0.2</text>
     </g>
    </g>
    <g id="ytick_2">
     <g id="line2d_10">
      <g>
       <use xlink:href="#m804f775fa0" x="52.160938" y="410.085764" style="stroke: #000000; stroke-width: 0.8"/>
      </g>
     </g>
     <g id="text_11">
      <text style="font: 10px 'DejaVu Sans', 'Bitstream Vera Sans', 'Computer Modern Sans Serif', 'Lucida Grande', 'Verdana', 'Geneva', 'Lucid', 'Arial', 'Helvetica', 'Avant Garde', sans-serif; text-anchor: end" x="45.160938" y="413.884983" transform="rotate(-0 45.160938 413.884983)">−0.1</text>
     </g>
    </g>
    <g id="ytick_3">
     <g id="line2d_11">
      <g>
       <use xlink:href="#m804f775fa0" x="52.160938" y="362.374653" style="stroke: #000000; stroke-width: 0.8"/>
      </g>
     </g>
     <g id="text_12">
      <text style="font: 10px 'DejaVu Sans', 'Bitstream Vera Sans', 'Computer Modern Sans Serif', 'Lucida Grande', 'Verdana', 'Geneva', 'Lucid', 'Arial', 'Helvetica', 'Avant Garde', sans-serif; text-anchor: end" x="45.160938" y="366.173872" transform="rotate(-0 45.160938 366.173872)">0.0</text>
     </g>
    </g>
    <g id="ytick_4">
     <g id="line2d_12">
      <g>
       <use xlink:href="#m804f775fa0" x="52.160938" y="314.663542" style="stroke: #000000; stroke-width: 0.8"/>
      </g>
     </g>
     <g id="text_13">
      <text style="font: 10px 'DejaVu Sans', 'Bitstream Vera Sans', 'Computer Modern Sans Serif', 'Lucida Grande', 'Verdana', 'Geneva', 'Lucid', 'Arial', 'Helvetica', 'Avant Garde', sans-serif; text-anchor: end" x="45.160938" y="318.46276" transform="rotate(-0 45.160938 318.46276)">0.1</text>
     </g>
    </g>
    <g id="ytick_5">
     <g id="line2d_13">
      <g>
       <use xlink:href="#m804f775fa0" x="52.160938" y="266.952431" style="stroke: #000000; stroke-width: 0.8"/>
      </g>
     </g>
     <g id="text_14">
      <text style="font: 10px 'DejaVu Sans', 'Bitstream Vera Sans', 'Computer Modern Sans Serif', 'Lucida Grande', 'Verdana', 'Geneva', 'Lucid', 'Arial', 'Helvetica', 'Avant Garde', sans-serif; text-anchor: end" x="45.160938" y="270.751649" transform="rotate(-0 45.160938 270.751649)">0.2</text>
     </g>
    </g>
    <g id="ytick_6">
     <g id="line2d_14">
      <g>
       <use xlink:href="#m804f775fa0" x="52.160938" y="219.241319" style="stroke: #000000; stroke-width: 0.8"/>
      </g>
     </g>
     <g id="text_15">
      <text style="font: 10px 'DejaVu Sans', 'Bitstream Vera Sans', 'Computer Modern Sans Serif', 'Lucida Grande', 'Verdana', 'Geneva', 'Lucid', 'Arial', 'Helvetica', 'Avant Garde', sans-serif; text-anchor: end" x="45.160938" y="223.040538" transform="rotate(-0 45.160938 223.040538)">0.3</text>
     </g>
    </g>
    <g id="ytick_7">
     <g id="line2d_15">
      <g>
       <use xlink:href="#m804f775fa0" x="52.160938" y="171.530208" style="stroke: #000000; stroke-width: 0.8"/>
      </g>
     </g>
     <g id="text_16">
      <text style="font: 10px 'DejaVu Sans', 'Bitstream Vera Sans', 'Computer Modern Sans Serif', 'Lucida Grande', 'Verdana', 'Geneva', 'Lucid', 'Arial', 'Helvetica', 'Avant Garde', sans-serif; text-anchor: end" x="45.160938" y="175.329427" transform="rotate(-0 45.160938 175.329427)">0.4</text>
     </g>
    </g>
    <g id="ytick_8">
     <g id="line2d_16">
      <g>
       <use xlink:href="#m804f775fa0" x="52.160938" y="123.819097" style="stroke: #000000; stroke-width: 0.8"/>
      </g>
     </g>
     <g id="text_17">
      <text style="font: 10px 'DejaVu Sans', 'Bitstream Vera Sans', 'Computer Modern Sans Serif', 'Lucida Grande', 'Verdana', 'Geneva', 'Lucid', 'Arial', 'Helvetica', 'Avant Garde', sans-serif; text-anchor: end" x="45.160938" y="127.618316" transform="rotate(-0 45.160938 127.618316)">0.5</text>
     </g>
    </g>
    <g id="ytick_9">
     <g id="line2d_17">
      <g>
       <use xlink:href="#m804f775fa0" x="52.160938" y="76.107986" style="stroke: #000000; stroke-width: 0.8"/>
      </g>
     </g>
     <g id="text_18">
      <text style="font: 10px 'DejaVu Sans', 'Bitstream Vera Sans', 'Computer Modern Sans Serif', 'Lucida Grande', 'Verdana', 'Geneva', 'Lucid', 'Arial', 'Helvetica', 'Avant Garde', sans-serif; text-anchor: end" x="45.160938" y="79.907205" transform="rotate(-0 45.160938 79.907205)">0.6</text>
     </g>
    </g>
    <g id="ytick_10">
     <g id="line2d_18">
      <g>
       <use xlink:href="#m804f775fa0" x="52.160938" y="28.396875" style="stroke: #000000; stroke-width: 0.8"/>
      </g>
     </g>
     <g id="text_19">
      <text style="font: 10px 'DejaVu Sans', 'Bitstream Vera Sans', 'Computer Modern Sans Serif', 'Lucida Grande', 'Verdana', 'Geneva', 'Lucid', 'Arial', 'Helvetica', 'Avant Garde', sans-serif; text-anchor: end" x="45.160938" y="32.196094" transform="rotate(-0 45.160938 32.196094)">0.7</text>
     </g>
    </g>
    <g id="text_20">
     <text style="font: 10px 'DejaVu Sans', 'Bitstream Vera Sans', 'Computer Modern Sans Serif', 'Lucida Grande', 'Verdana', 'Geneva', 'Lucid', 'Arial', 'Helvetica', 'Avant Garde', sans-serif; text-anchor: middle" x="14.798438" y="243.096875" transform="rotate(-90 14.798438 243.096875)">semipartial correlation</text>
    </g>
   </g>
   <g id="line2d_19">
    <path d="M 88.389119 362.374653 
L 113.374072 362.374653 
L 138.359025 362.374653 
L 163.343978 362.374653 
L 188.328931 362.374653 
L 213.313884 362.374653 
L 238.298837 362.374653 
L 263.28379 362.374653 
L 288.268743 362.374653 
L 313.253696 362.374653 
L 338.238649 362.374653 
L 363.223602 362.374653 
L 388.208555 362.374653 
L 413.193508 362.374653 
L 438.178461 362.374653 
L 463.163414 362.374653 
L 488.148367 362.374653 
L 513.13332 362.374653 
L 538.118273 362.374653 
L 563.103226 362.374653 
L 588.088179 362.374653 
L 613.073132 362.374653 
L 638.058085 362.374653 
L 663.043038 362.374653 
L 688.027991 362.374653 
L 713.012944 362.374653 
L 737.997897 362.374653 
L 762.98285 362.374653 
L 787.967803 362.374653 
L 812.952756 362.374653 
" clip-path="url(#p20de6962dc)" style="fill: none; stroke-dasharray: 5.55,2.4; stroke-dashoffset: 0; stroke: #000000; stroke-width: 1.5"/>
   </g>
   <g id="line2d_20">
    <path d="M 88.389119 364.585618 
L 113.374072 345.939328 
L 138.359025 369.861576 
L 163.343978 358.933763 
L 188.328931 355.167922 
L 213.313884 344.507855 
L 238.298837 356.3707 
L 263.28379 292.18385 
L 288.268743 307.546733 
L 313.253696 269.896742 
L 338.238649 252.996732 
L 363.223602 242.198716 
L 388.208555 231.559359 
L 413.193508 243.203056 
L 438.178461 232.935546 
L 463.163414 232.7607 
L 488.148367 251.928081 
L 513.13332 255.139364 
L 538.118273 252.925203 
L 563.103226 254.48897 
L 588.088179 242.166566 
L 613.073132 259.957951 
L 638.058085 275.577049 
L 663.043038 283.932689 
L 688.027991 275.504407 
L 713.012944 272.512701 
L 737.997897 293.889181 
L 762.98285 277.738904 
L 787.967803 287.543592 
L 812.952756 306.885468 
" clip-path="url(#p20de6962dc)" style="fill: none; stroke: #1f77b4; stroke-width: 4; stroke-linecap: square"/>
   </g>
   <g id="line2d_21">
    <path d="M 88.389119 369.309012 
L 113.374072 349.430539 
L 138.359025 350.246254 
L 163.343978 352.666852 
L 188.328931 358.495021 
L 213.313884 338.338113 
L 238.298837 355.968012 
L 263.28379 332.332372 
L 288.268743 344.049124 
L 313.253696 318.747288 
L 338.238649 327.140738 
L 363.223602 322.223163 
L 388.208555 334.817627 
L 413.193508 337.328119 
L 438.178461 339.289028 
L 463.163414 349.172709 
L 488.148367 352.871697 
L 513.13332 369.942987 
L 538.118273 362.922779 
L 563.103226 373.689876 
L 588.088179 361.127914 
L 613.073132 385.396616 
L 638.058085 381.76515 
L 663.043038 401.281616 
L 688.027991 384.232745 
L 713.012944 406.091657 
L 737.997897 400.486341 
L 762.98285 394.094584 
L 787.967803 377.725806 
L 812.952756 394.288885 
" clip-path="url(#p20de6962dc)" style="fill: none; stroke-dasharray: 16,6; stroke-dashoffset: 0; stroke: #ff7f0e; stroke-width: 4"/>
   </g>
   <g id="line2d_22">
    <path d="M 88.389119 346.410486 
L 113.374072 365.506047 
L 138.359025 370.364988 
L 163.343978 367.379116 
L 188.328931 358.558411 
L 213.313884 405.234036 
L 238.298837 383.808899 
L 263.28379 379.417091 
L 288.268743 349.28804 
L 313.253696 324.158744 
L 338.238649 309.044151 
L 363.223602 273.961876 
L 388.208555 293.525377 
L 413.193508 311.939919 
L 438.178461 315.672785 
L 463.163414 301.900845 
L 488.148367 301.4745 
L 513.13332 292.697961 
L 538.118273 299.525093 
L 563.103226 295.42991 
L 588.088179 305.604261 
L 613.073132 277.880784 
L 638.058085 297.298757 
L 663.043038 295.014865 
L 688.027991 303.743747 
L 713.012944 295.964923 
L 737.997897 300.210308 
L 762.98285 312.583982 
L 787.967803 316.330372 
L 812.952756 319.715245 
" clip-path="url(#p20de6962dc)" style="fill: none; stroke-dasharray: 4,4; stroke-dashoffset: 0; stroke: #2ca02c; stroke-width: 4"/>
   </g>
   <g id="line2d_23">
    <path d="M 88.389119 365.606273 
L 113.374072 366.221117 
L 138.359025 369.7758 
L 163.343978 383.850354 
L 188.328931 365.554152 
L 213.313884 405.71841 
L 238.298837 347.678651 
L 263.28379 142.628813 
L 288.268743 70.832602 
L 313.253696 151.212304 
L 338.238649 145.990008 
L 363.223602 184.720755 
L 388.208555 182.225088 
L 413.193508 126.777398 
L 438.178461 190.511127 
L 463.163414 222.129489 
L 488.148367 225.949683 
L 513.13332 273.67967 
L 538.118273 264.594159 
L 563.103226 288.45111 
L 588.088179 295.812492 
L 613.073132 288.210971 
L 638.058085 296.454184 
L 663.043038 313.298337 
L 688.027991 331.409099 
L 713.012944 351.488522 
L 737.997897 356.912688 
L 762.98285 365.256774 
L 787.967803 354.91811 
L 812.952756 357.714804 
" clip-path="url(#p20de6962dc)" style="fill: none; stroke-dasharray: 12,5,6,5; stroke-dashoffset: 0; stroke: #d62728; stroke-width: 4"/>
   </g>
   <g id="line2d_24">
    <path d="M 88.389119 194.427855 
L 113.374072 202.328112 
L 138.359025 198.749229 
L 163.343978 190.360901 
L 188.328931 197.661021 
L 213.313884 183.216227 
L 238.298837 172.752509 
L 263.28379 102.139339 
L 288.268743 51.931149 
L 313.253696 95.594339 
L 338.238649 81.625967 
L 363.223602 101.342194 
L 388.208555 111.746963 
L 413.193508 75.528923 
L 438.178461 108.654467 
L 463.163414 110.143383 
L 488.148367 131.366688 
L 513.13332 133.445607 
L 538.118273 141.358926 
L 563.103226 123.914703 
L 588.088179 138.798646 
L 613.073132 132.243128 
L 638.058085 153.075058 
L 663.043038 174.98381 
L 688.027991 168.830353 
L 713.012944 155.69622 
L 737.997897 174.20312 
L 762.98285 178.874164 
L 787.967803 182.872478 
L 812.952756 194.616905 
" clip-path="url(#p20de6962dc)" style="fill: none; stroke-dasharray: 20,4,4,4; stroke-dashoffset: 0; stroke: #000000; stroke-width: 4"/>
   </g>
   <g id="line2d_25"/>
   <g id="line2d_26"/>
   <g id="line2d_27"/>
   <g id="line2d_28"/>
   <g id="line2d_29"/>
   <g id="patch_3">
    <path d="M 52.160938 457.796875 
L 52.160938 28.396875 
" style="fill: none; stroke: #000000; stroke-width: 0.8; stroke-linejoin: miter; stroke-linecap: square"/>
   </g>
   <g id="patch_4">
    <path d="M 52.160937 457.796875 
L 849.180938 457.796875 
" style="fill: none; stroke: #000000; stroke-width: 0.8; stroke-linejoin: miter; stroke-linecap: square"/>
   </g>
   <g id="text_21">
    <text style="font: 20px 'DejaVu Sans', 'Bitstream Vera Sans', 'Computer Modern Sans Serif', 'Lucida Grande', 'Verdana', 'Geneva', 'Lucid', 'Arial', 'Helvetica', 'Avant Garde', sans-serif; text-anchor: middle" x="450.670937" y="22.396875" transform="rotate(-0 450.670937 22.396875)">semipartial correlation of RDMs Across Time</text>
   </g>
   <g id="legend_1">
    <g id="patch_5">
     <path d="M 706.5075 124.465625 
L 842.180938 124.465625 
Q 844.180938 124.465625 844.180938 122.465625 
L 844.180938 35.396875 
Q 844.180938 33.396875 842.180938 33.396875 
L 706.5075 33.396875 
Q 704.5075 33.396875 704.5075 35.396875 
L 704.5075 122.465625 
Q 704.5075 124.465625 706.5075 124.465625 
z
" style="fill: #ffffff; opacity: 0.8; stroke: #cccccc; stroke-linejoin: miter"/>
    </g>
    <g id="text_22">
     <text style="font: 10px 'DejaVu Sans', 'Bitstream Vera Sans', 'Computer Modern Sans Serif', 'Lucida Grande', 'Verdana', 'Geneva', 'Lucid', 'Arial', 'Helvetica', 'Avant Garde', sans-serif; text-anchor: start" x="759.695781" y="44.995313" transform="rotate(-0 759.695781 44.995313)">factor</text>
    </g>
    <g id="line2d_30">
     <path d="M 708.5075 56.173438 
L 718.5075 56.173438 
L 728.5075 56.173438 
" style="fill: none; stroke: #1f77b4; stroke-width: 1.5; stroke-linecap: square"/>
    </g>
    <g id="text_23">
     <text style="font: 10px 'DejaVu Sans', 'Bitstream Vera Sans', 'Computer Modern Sans Serif', 'Lucida Grande', 'Verdana', 'Geneva', 'Lucid', 'Arial', 'Helvetica', 'Avant Garde', sans-serif; text-anchor: start" x="736.5075" y="59.673438" transform="rotate(-0 736.5075 59.673438)">Set Size</text>
    </g>
    <g id="line2d_31">
     <path d="M 708.5075 70.851563 
L 718.5075 70.851563 
L 728.5075 70.851563 
" style="fill: none; stroke-dasharray: 6,2.25; stroke-dashoffset: 0; stroke: #ff7f0e; stroke-width: 1.5"/>
    </g>
    <g id="text_24">
     <text style="font: 10px 'DejaVu Sans', 'Bitstream Vera Sans', 'Computer Modern Sans Serif', 'Lucida Grande', 'Verdana', 'Geneva', 'Lucid', 'Arial', 'Helvetica', 'Avant Garde', sans-serif; text-anchor: start" x="736.5075" y="74.351563" transform="rotate(-0 736.5075 74.351563)">Number of Locations</text>
    </g>
    <g id="line2d_32">
     <path d="M 708.5075 85.529688 
L 718.5075 85.529688 
L 728.5075 85.529688 
" style="fill: none; stroke-dasharray: 1.5,1.5; stroke-dashoffset: 0; stroke: #2ca02c; stroke-width: 1.5"/>
    </g>
    <g id="text_25">
     <text style="font: 10px 'DejaVu Sans', 'Bitstream Vera Sans', 'Computer Modern Sans Serif', 'Lucida Grande', 'Verdana', 'Geneva', 'Lucid', 'Arial', 'Helvetica', 'Avant Garde', sans-serif; text-anchor: start" x="736.5075" y="89.029688" transform="rotate(-0 736.5075 89.029688)">Overlap Process</text>
    </g>
    <g id="line2d_33">
     <path d="M 708.5075 100.207813 
L 718.5075 100.207813 
L 728.5075 100.207813 
" style="fill: none; stroke-dasharray: 4.5,1.875,2.25,1.875; stroke-dashoffset: 0; stroke: #d62728; stroke-width: 1.5"/>
    </g>
    <g id="text_26">
     <text style="font: 10px 'DejaVu Sans', 'Bitstream Vera Sans', 'Computer Modern Sans Serif', 'Lucida Grande', 'Verdana', 'Geneva', 'Lucid', 'Arial', 'Helvetica', 'Avant Garde', sans-serif; text-anchor: start" x="736.5075" y="103.707813" transform="rotate(-0 736.5075 103.707813)">Attended Area</text>
    </g>
    <g id="line2d_34">
     <path d="M 708.5075 114.885938 
L 718.5075 114.885938 
L 728.5075 114.885938 
" style="fill: none; stroke-dasharray: 7.5,1.5,1.5,1.5; stroke-dashoffset: 0; stroke: #000000; stroke-width: 1.5"/>
    </g>
    <g id="text_27">
     <text style="font: 10px 'DejaVu Sans', 'Bitstream Vera Sans', 'Computer Modern Sans Serif', 'Lucida Grande', 'Verdana', 'Geneva', 'Lucid', 'Arial', 'Helvetica', 'Avant Garde', sans-serif; text-anchor: start" x="736.5075" y="118.385938" transform="rotate(-0 736.5075 118.385938)">Total</text>
    </g>
   </g>
  </g>
 </g>
 <defs>
  <clipPath id="p20de6962dc">
   <rect x="52.160938" y="28.396875" width="797.02" height="429.4"/>
  </clipPath>
 </defs>
</svg>
