<?xml version="1.0" encoding="utf-8" standalone="no"?>
<!DOCTYPE svg PUBLIC "-//W3C//DTD SVG 1.1//EN"
  "http://www.w3.org/Graphics/SVG/1.1/DTD/svg11.dtd">
<svg xmlns:xlink="http://www.w3.org/1999/xlink" width="856.380938pt" height="495.353125pt" viewBox="0 0 856.380938 495.353125" xmlns="http://www.w3.org/2000/svg" version="1.1">
 <metadata>
  <rdf:RDF xmlns:dc="http://purl.org/dc/elements/1.1/" xmlns:cc="http://creativecommons.org/ns#" xmlns:rdf="http://www.w3.org/1999/02/22-rdf-syntax-ns#">
   <cc:Work>
    <dc:type rdf:resource="http://purl.org/dc/dcmitype/StillImage"/>
    <dc:date>2024-01-18T11:04:07.231647</dc:date>
    <dc:format>image/svg+xml</dc:format>
    <dc:creator>
     <cc:Agent>
      <dc:title>Matplotlib v3.7.1, https://matplotlib.org/</dc:title>
     </cc:Agent>
    </dc:creator>
   </cc:Work>
  </rdf:RDF>
 </metadata>
 <defs>
  <style type="text/css">*{stroke-linejoin: round; stroke-linecap: butt}</style>
 </defs>
 <g id="figure_1">
  <g id="patch_1">
   <path d="M 0 495.353125 
L 856.380938 495.353125 
L 856.380938 0 
L 0 0 
z
" style="fill: #ffffff"/>
  </g>
  <g id="axes_1">
   <g id="patch_2">
    <path d="M 52.160938 457.796875 
L 849.180938 457.796875 
L 849.180938 28.396875 
L 52.160938 28.396875 
z
" style="fill: #ffffff"/>
   </g>
   <g id="PolyCollection_1">
    <defs>
     <path id="m7373ef01e9" d="M 200.821408 -475.99625 
L 200.821408 -37.55625 
L 325.746173 -37.55625 
L 325.746173 -475.99625 
L 325.746173 -475.99625 
L 200.821408 -475.99625 
z
" style="stroke: #808080; stroke-opacity: 0.5"/>
    </defs>
    <g clip-path="url(#pe0da9c935a)">
     <use xlink:href="#m7373ef01e9" x="0" y="495.353125" style="fill: #808080; fill-opacity: 0.5; stroke: #808080; stroke-opacity: 0.5"/>
    </g>
   </g>
   <g id="PolyCollection_2">
    <defs>
     <path id="mde62f25630" d="M 88.389119 -161.470476 
L 88.389119 -88.509617 
L 113.374072 -86.276086 
L 138.359025 -87.251441 
L 163.343978 -64.863858 
L 188.328931 -82.810942 
L 213.313884 -43.757077 
L 238.298837 -89.570425 
L 263.28379 -296.471502 
L 288.268743 -376.237297 
L 313.253696 -285.194735 
L 338.238649 -293.736716 
L 363.223602 -265.07435 
L 388.208555 -264.455649 
L 413.193508 -320.544175 
L 438.178461 -257.995112 
L 463.163414 -230.818204 
L 488.148367 -218.30375 
L 513.13332 -173.911533 
L 538.118273 -184.838665 
L 563.103226 -161.082609 
L 588.088179 -152.791791 
L 613.073132 -163.906595 
L 638.058085 -150.669084 
L 663.043038 -145.702606 
L 688.027991 -124.592334 
L 713.012944 -102.665783 
L 737.997897 -100.593064 
L 762.98285 -94.041206 
L 787.967803 -103.572064 
L 812.952756 -102.376806 
L 812.952756 -159.017791 
L 812.952756 -159.017791 
L 787.967803 -170.067793 
L 762.98285 -157.527168 
L 737.997897 -162.060068 
L 713.012944 -175.908542 
L 688.027991 -189.990536 
L 663.043038 -200.880171 
L 638.058085 -228.90672 
L 613.073132 -233.107722 
L 588.088179 -230.548602 
L 563.103226 -234.73709 
L 538.118273 -253.917932 
L 513.13332 -247.531506 
L 488.148367 -292.395787 
L 463.163414 -289.13925 
L 438.178461 -322.7676 
L 413.193508 -379.122376 
L 388.208555 -333.145178 
L 363.223602 -328.425472 
L 338.238649 -367.025323 
L 313.253696 -368.129529 
L 288.268743 -434.046754 
L 263.28379 -378.50267 
L 238.298837 -187.755991 
L 213.313884 -132.136736 
L 188.328931 -162.439271 
L 163.343978 -150.46342 
L 138.359025 -160.005637 
L 113.374072 -161.09368 
L 88.389119 -161.470476 
z
" style="stroke: #d62728; stroke-opacity: 0.2"/>
    </defs>
    <g clip-path="url(#pe0da9c935a)">
     <use xlink:href="#mde62f25630" x="0" y="495.353125" style="fill: #d62728; fill-opacity: 0.2; stroke: #d62728; stroke-opacity: 0.2"/>
    </g>
   </g>
   <g id="PathCollection_1">
    <defs>
     <path id="mf1a7728280" d="M -1.936492 1.936492 
L 1.936492 1.936492 
L 1.936492 -1.936492 
L -1.936492 -1.936492 
z
" style="stroke: #d62728"/>
    </defs>
    <g clip-path="url(#pe0da9c935a)">
     <use xlink:href="#mf1a7728280" x="263.28379" y="401.296875" style="fill: #d62728; stroke: #d62728"/>
     <use xlink:href="#mf1a7728280" x="288.268743" y="401.296875" style="fill: #d62728; stroke: #d62728"/>
     <use xlink:href="#mf1a7728280" x="313.253696" y="401.296875" style="fill: #d62728; stroke: #d62728"/>
     <use xlink:href="#mf1a7728280" x="338.238649" y="401.296875" style="fill: #d62728; stroke: #d62728"/>
     <use xlink:href="#mf1a7728280" x="363.223602" y="401.296875" style="fill: #d62728; stroke: #d62728"/>
     <use xlink:href="#mf1a7728280" x="388.208555" y="401.296875" style="fill: #d62728; stroke: #d62728"/>
     <use xlink:href="#mf1a7728280" x="413.193508" y="401.296875" style="fill: #d62728; stroke: #d62728"/>
     <use xlink:href="#mf1a7728280" x="438.178461" y="401.296875" style="fill: #d62728; stroke: #d62728"/>
     <use xlink:href="#mf1a7728280" x="463.163414" y="401.296875" style="fill: #d62728; stroke: #d62728"/>
     <use xlink:href="#mf1a7728280" x="488.148367" y="401.296875" style="fill: #d62728; stroke: #d62728"/>
     <use xlink:href="#mf1a7728280" x="513.13332" y="401.296875" style="fill: #d62728; stroke: #d62728"/>
     <use xlink:href="#mf1a7728280" x="538.118273" y="401.296875" style="fill: #d62728; stroke: #d62728"/>
     <use xlink:href="#mf1a7728280" x="563.103226" y="401.296875" style="fill: #d62728; stroke: #d62728"/>
     <use xlink:href="#mf1a7728280" x="588.088179" y="401.296875" style="fill: #d62728; stroke: #d62728"/>
     <use xlink:href="#mf1a7728280" x="613.073132" y="401.296875" style="fill: #d62728; stroke: #d62728"/>
     <use xlink:href="#mf1a7728280" x="638.058085" y="401.296875" style="fill: #d62728; stroke: #d62728"/>
     <use xlink:href="#mf1a7728280" x="663.043038" y="401.296875" style="fill: #d62728; stroke: #d62728"/>
    </g>
   </g>
   <g id="matplotlib.axis_1">
    <g id="xtick_1">
     <g id="line2d_1">
      <defs>
       <path id="ma99d6b815d" d="M 0 0 
L 0 3.5 
" style="stroke: #000000; stroke-width: 0.8"/>
      </defs>
      <g>
       <use xlink:href="#ma99d6b815d" x="100.881596" y="457.796875" style="stroke: #000000; stroke-width: 0.8"/>
      </g>
     </g>
     <g id="text_1">
      <text style="font: 10px 'DejaVu Sans', 'Bitstream Vera Sans', 'Computer Modern Sans Serif', 'Lucida Grande', 'Verdana', 'Geneva', 'Lucid', 'Arial', 'Helvetica', 'Avant Garde', sans-serif; text-anchor: middle" x="100.881596" y="472.395312" transform="rotate(-0 100.881596 472.395312)">−200</text>
     </g>
    </g>
    <g id="xtick_2">
     <g id="line2d_2">
      <g>
       <use xlink:href="#ma99d6b815d" x="200.821408" y="457.796875" style="stroke: #000000; stroke-width: 0.8"/>
      </g>
     </g>
     <g id="text_2">
      <text style="font: 10px 'DejaVu Sans', 'Bitstream Vera Sans', 'Computer Modern Sans Serif', 'Lucida Grande', 'Verdana', 'Geneva', 'Lucid', 'Arial', 'Helvetica', 'Avant Garde', sans-serif; text-anchor: middle" x="200.821408" y="472.395312" transform="rotate(-0 200.821408 472.395312)">0</text>
     </g>
    </g>
    <g id="xtick_3">
     <g id="line2d_3">
      <g>
       <use xlink:href="#ma99d6b815d" x="300.76122" y="457.796875" style="stroke: #000000; stroke-width: 0.8"/>
      </g>
     </g>
     <g id="text_3">
      <text style="font: 10px 'DejaVu Sans', 'Bitstream Vera Sans', 'Computer Modern Sans Serif', 'Lucida Grande', 'Verdana', 'Geneva', 'Lucid', 'Arial', 'Helvetica', 'Avant Garde', sans-serif; text-anchor: middle" x="300.76122" y="472.395312" transform="rotate(-0 300.76122 472.395312)">200</text>
     </g>
    </g>
    <g id="xtick_4">
     <g id="line2d_4">
      <g>
       <use xlink:href="#ma99d6b815d" x="400.701032" y="457.796875" style="stroke: #000000; stroke-width: 0.8"/>
      </g>
     </g>
     <g id="text_4">
      <text style="font: 10px 'DejaVu Sans', 'Bitstream Vera Sans', 'Computer Modern Sans Serif', 'Lucida Grande', 'Verdana', 'Geneva', 'Lucid', 'Arial', 'Helvetica', 'Avant Garde', sans-serif; text-anchor: middle" x="400.701032" y="472.395312" transform="rotate(-0 400.701032 472.395312)">400</text>
     </g>
    </g>
    <g id="xtick_5">
     <g id="line2d_5">
      <g>
       <use xlink:href="#ma99d6b815d" x="500.640843" y="457.796875" style="stroke: #000000; stroke-width: 0.8"/>
      </g>
     </g>
     <g id="text_5">
      <text style="font: 10px 'DejaVu Sans', 'Bitstream Vera Sans', 'Computer Modern Sans Serif', 'Lucida Grande', 'Verdana', 'Geneva', 'Lucid', 'Arial', 'Helvetica', 'Avant Garde', sans-serif; text-anchor: middle" x="500.640843" y="472.395312" transform="rotate(-0 500.640843 472.395312)">600</text>
     </g>
    </g>
    <g id="xtick_6">
     <g id="line2d_6">
      <g>
       <use xlink:href="#ma99d6b815d" x="600.580655" y="457.796875" style="stroke: #000000; stroke-width: 0.8"/>
      </g>
     </g>
     <g id="text_6">
      <text style="font: 10px 'DejaVu Sans', 'Bitstream Vera Sans', 'Computer Modern Sans Serif', 'Lucida Grande', 'Verdana', 'Geneva', 'Lucid', 'Arial', 'Helvetica', 'Avant Garde', sans-serif; text-anchor: middle" x="600.580655" y="472.395312" transform="rotate(-0 600.580655 472.395312)">800</text>
     </g>
    </g>
    <g id="xtick_7">
     <g id="line2d_7">
      <g>
       <use xlink:href="#ma99d6b815d" x="700.520467" y="457.796875" style="stroke: #000000; stroke-width: 0.8"/>
      </g>
     </g>
     <g id="text_7">
      <text style="font: 10px 'DejaVu Sans', 'Bitstream Vera Sans', 'Computer Modern Sans Serif', 'Lucida Grande', 'Verdana', 'Geneva', 'Lucid', 'Arial', 'Helvetica', 'Avant Garde', sans-serif; text-anchor: middle" x="700.520467" y="472.395312" transform="rotate(-0 700.520467 472.395312)">1000</text>
     </g>
    </g>
    <g id="xtick_8">
     <g id="line2d_8">
      <g>
       <use xlink:href="#ma99d6b815d" x="800.460279" y="457.796875" style="stroke: #000000; stroke-width: 0.8"/>
      </g>
     </g>
     <g id="text_8">
      <text style="font: 10px 'DejaVu Sans', 'Bitstream Vera Sans', 'Computer Modern Sans Serif', 'Lucida Grande', 'Verdana', 'Geneva', 'Lucid', 'Arial', 'Helvetica', 'Avant Garde', sans-serif; text-anchor: middle" x="800.460279" y="472.395312" transform="rotate(-0 800.460279 472.395312)">1200</text>
     </g>
    </g>
    <g id="text_9">
     <text style="font: 10px 'DejaVu Sans', 'Bitstream Vera Sans', 'Computer Modern Sans Serif', 'Lucida Grande', 'Verdana', 'Geneva', 'Lucid', 'Arial', 'Helvetica', 'Avant Garde', sans-serif; text-anchor: middle" x="450.670937" y="486.073437" transform="rotate(-0 450.670937 486.073437)">timepoint</text>
    </g>
   </g>
   <g id="matplotlib.axis_2">
    <g id="ytick_1">
     <g id="line2d_9">
      <defs>
       <path id="m63f9e6c232" d="M 0 0 
L -3.5 0 
" style="stroke: #000000; stroke-width: 0.8"/>
      </defs>
      <g>
       <use xlink:href="#m63f9e6c232" x="52.160938" y="457.796875" style="stroke: #000000; stroke-width: 0.8"/>
      </g>
     </g>
     <g id="text_10">
      <text style="font: 10px 'DejaVu Sans', 'Bitstream Vera Sans', 'Computer Modern Sans Serif', 'Lucida Grande', 'Verdana', 'Geneva', 'Lucid', 'Arial', 'Helvetica', 'Avant Garde', sans-serif; text-anchor: end" x="45.160938" y="461.596094" transform="rotate(-0 45.160938 461.596094)">−0.2</text>
     </g>
    </g>
    <g id="ytick_2">
     <g id="line2d_10">
      <g>
       <use xlink:href="#m63f9e6c232" x="52.160938" y="367.396875" style="stroke: #000000; stroke-width: 0.8"/>
      </g>
     </g>
     <g id="text_11">
      <text style="font: 10px 'DejaVu Sans', 'Bitstream Vera Sans', 'Computer Modern Sans Serif', 'Lucida Grande', 'Verdana', 'Geneva', 'Lucid', 'Arial', 'Helvetica', 'Avant Garde', sans-serif; text-anchor: end" x="45.160938" y="371.196094" transform="rotate(-0 45.160938 371.196094)">0.0</text>
     </g>
    </g>
    <g id="ytick_3">
     <g id="line2d_11">
      <g>
       <use xlink:href="#m63f9e6c232" x="52.160938" y="276.996875" style="stroke: #000000; stroke-width: 0.8"/>
      </g>
     </g>
     <g id="text_12">
      <text style="font: 10px 'DejaVu Sans', 'Bitstream Vera Sans', 'Computer Modern Sans Serif', 'Lucida Grande', 'Verdana', 'Geneva', 'Lucid', 'Arial', 'Helvetica', 'Avant Garde', sans-serif; text-anchor: end" x="45.160938" y="280.796094" transform="rotate(-0 45.160938 280.796094)">0.2</text>
     </g>
    </g>
    <g id="ytick_4">
     <g id="line2d_12">
      <g>
       <use xlink:href="#m63f9e6c232" x="52.160938" y="186.596875" style="stroke: #000000; stroke-width: 0.8"/>
      </g>
     </g>
     <g id="text_13">
      <text style="font: 10px 'DejaVu Sans', 'Bitstream Vera Sans', 'Computer Modern Sans Serif', 'Lucida Grande', 'Verdana', 'Geneva', 'Lucid', 'Arial', 'Helvetica', 'Avant Garde', sans-serif; text-anchor: end" x="45.160938" y="190.396094" transform="rotate(-0 45.160938 190.396094)">0.4</text>
     </g>
    </g>
    <g id="ytick_5">
     <g id="line2d_13">
      <g>
       <use xlink:href="#m63f9e6c232" x="52.160938" y="96.196875" style="stroke: #000000; stroke-width: 0.8"/>
      </g>
     </g>
     <g id="text_14">
      <text style="font: 10px 'DejaVu Sans', 'Bitstream Vera Sans', 'Computer Modern Sans Serif', 'Lucida Grande', 'Verdana', 'Geneva', 'Lucid', 'Arial', 'Helvetica', 'Avant Garde', sans-serif; text-anchor: end" x="45.160938" y="99.996094" transform="rotate(-0 45.160938 99.996094)">0.6</text>
     </g>
    </g>
    <g id="text_15">
     <text style="font: 10px 'DejaVu Sans', 'Bitstream Vera Sans', 'Computer Modern Sans Serif', 'Lucida Grande', 'Verdana', 'Geneva', 'Lucid', 'Arial', 'Helvetica', 'Avant Garde', sans-serif; text-anchor: middle" x="14.798438" y="243.096875" transform="rotate(-90 14.798438 243.096875)">semipartial correlation</text>
    </g>
   </g>
   <g id="line2d_14">
    <path d="M 88.389119 367.396875 
L 113.374072 367.396875 
L 138.359025 367.396875 
L 163.343978 367.396875 
L 188.328931 367.396875 
L 213.313884 367.396875 
L 238.298837 367.396875 
L 263.28379 367.396875 
L 288.268743 367.396875 
L 313.253696 367.396875 
L 338.238649 367.396875 
L 363.223602 367.396875 
L 388.208555 367.396875 
L 413.193508 367.396875 
L 438.178461 367.396875 
L 463.163414 367.396875 
L 488.148367 367.396875 
L 513.13332 367.396875 
L 538.118273 367.396875 
L 563.103226 367.396875 
L 588.088179 367.396875 
L 613.073132 367.396875 
L 638.058085 367.396875 
L 663.043038 367.396875 
L 688.027991 367.396875 
L 713.012944 367.396875 
L 737.997897 367.396875 
L 762.98285 367.396875 
L 787.967803 367.396875 
L 812.952756 367.396875 
" clip-path="url(#pe0da9c935a)" style="fill: none; stroke-dasharray: 5.55,2.4; stroke-dashoffset: 0; stroke: #000000; stroke-width: 1.5"/>
   </g>
   <g id="line2d_15">
    <path d="M 88.389119 370.45841 
L 113.374072 371.040893 
L 138.359025 374.408488 
L 163.343978 387.742276 
L 188.328931 370.409032 
L 213.313884 408.459382 
L 238.298837 353.474347 
L 263.28379 159.216606 
L 288.268743 91.199143 
L 313.253696 167.348334 
L 338.238649 162.400895 
L 363.223602 199.093183 
L 388.208555 196.728866 
L 413.193508 144.199476 
L 438.178461 204.578798 
L 463.163414 234.533036 
L 488.148367 238.152167 
L 513.13332 283.370049 
L 538.118273 274.762723 
L 563.103226 297.364045 
L 588.088179 304.337986 
L 613.073132 297.136545 
L 638.058085 304.945904 
L 663.043038 320.903524 
L 688.027991 338.061087 
L 713.012944 357.083698 
L 737.997897 362.222382 
L 762.98285 370.127305 
L 787.967803 360.332782 
L 812.952756 362.982282 
" clip-path="url(#pe0da9c935a)" style="fill: none; stroke: #d62728; stroke-width: 2; stroke-linecap: square"/>
   </g>
   <g id="line2d_16"/>
   <g id="patch_3">
    <path d="M 52.160938 457.796875 
L 52.160938 28.396875 
" style="fill: none; stroke: #000000; stroke-width: 0.8; stroke-linejoin: miter; stroke-linecap: square"/>
   </g>
   <g id="patch_4">
    <path d="M 52.160937 457.796875 
L 849.180938 457.796875 
" style="fill: none; stroke: #000000; stroke-width: 0.8; stroke-linejoin: miter; stroke-linecap: square"/>
   </g>
   <g id="text_16">
    <text style="font: 20px 'DejaVu Sans', 'Bitstream Vera Sans', 'Computer Modern Sans Serif', 'Lucida Grande', 'Verdana', 'Geneva', 'Lucid', 'Arial', 'Helvetica', 'Avant Garde', sans-serif; text-anchor: middle" x="450.670937" y="22.396875" transform="rotate(-0 450.670937 22.396875)">semipartial correlation of RDMs Across Time</text>
   </g>
   <g id="legend_1">
    <g id="patch_5">
     <path d="M 738.148125 65.753125 
L 842.180938 65.753125 
Q 844.180938 65.753125 844.180938 63.753125 
L 844.180938 35.396875 
Q 844.180938 33.396875 842.180938 33.396875 
L 738.148125 33.396875 
Q 736.148125 33.396875 736.148125 35.396875 
L 736.148125 63.753125 
Q 736.148125 65.753125 738.148125 65.753125 
z
" style="fill: #ffffff; opacity: 0.8; stroke: #cccccc; stroke-linejoin: miter"/>
    </g>
    <g id="text_17">
     <text style="font: 10px 'DejaVu Sans', 'Bitstream Vera Sans', 'Computer Modern Sans Serif', 'Lucida Grande', 'Verdana', 'Geneva', 'Lucid', 'Arial', 'Helvetica', 'Avant Garde', sans-serif; text-anchor: start" x="775.516094" y="44.995312" transform="rotate(-0 775.516094 44.995312)">factor</text>
    </g>
    <g id="line2d_17">
     <path d="M 740.148125 56.173437 
L 750.148125 56.173437 
L 760.148125 56.173437 
" style="fill: none; stroke: #d62728; stroke-width: 1.5; stroke-linecap: square"/>
    </g>
    <g id="text_18">
     <text style="font: 10px 'DejaVu Sans', 'Bitstream Vera Sans', 'Computer Modern Sans Serif', 'Lucida Grande', 'Verdana', 'Geneva', 'Lucid', 'Arial', 'Helvetica', 'Avant Garde', sans-serif; text-anchor: start" x="768.148125" y="59.673437" transform="rotate(-0 768.148125 59.673437)">Attended Area</text>
    </g>
   </g>
  </g>
 </g>
 <defs>
  <clipPath id="pe0da9c935a">
   <rect x="52.160938" y="28.396875" width="797.02" height="429.4"/>
  </clipPath>
 </defs>
</svg>
