<?xml version="1.0" encoding="utf-8" standalone="no"?>
<!DOCTYPE svg PUBLIC "-//W3C//DTD SVG 1.1//EN"
  "http://www.w3.org/Graphics/SVG/1.1/DTD/svg11.dtd">
<svg xmlns:xlink="http://www.w3.org/1999/xlink" width="856.380938pt" height="495.353125pt" viewBox="0 0 856.380938 495.353125" xmlns="http://www.w3.org/2000/svg" version="1.1">
 <metadata>
  <rdf:RDF xmlns:dc="http://purl.org/dc/elements/1.1/" xmlns:cc="http://creativecommons.org/ns#" xmlns:rdf="http://www.w3.org/1999/02/22-rdf-syntax-ns#">
   <cc:Work>
    <dc:type rdf:resource="http://purl.org/dc/dcmitype/StillImage"/>
    <dc:date>2024-01-18T11:04:07.951979</dc:date>
    <dc:format>image/svg+xml</dc:format>
    <dc:creator>
     <cc:Agent>
      <dc:title>Matplotlib v3.7.1, https://matplotlib.org/</dc:title>
     </cc:Agent>
    </dc:creator>
   </cc:Work>
  </rdf:RDF>
 </metadata>
 <defs>
  <style type="text/css">*{stroke-linejoin: round; stroke-linecap: butt}</style>
 </defs>
 <g id="figure_1">
  <g id="patch_1">
   <path d="M 0 495.353125 
L 856.380938 495.353125 
L 856.380938 0 
L 0 0 
z
" style="fill: #ffffff"/>
  </g>
  <g id="axes_1">
   <g id="patch_2">
    <path d="M 52.160938 457.796875 
L 849.180938 457.796875 
L 849.180938 28.396875 
L 52.160938 28.396875 
z
" style="fill: #ffffff"/>
   </g>
   <g id="PolyCollection_1">
    <defs>
     <path id="mf2e8914b22" d="M 200.821408 -475.99625 
L 200.821408 -37.55625 
L 325.746173 -37.55625 
L 325.746173 -475.99625 
L 325.746173 -475.99625 
L 200.821408 -475.99625 
z
" style="stroke: #808080; stroke-opacity: 0.5"/>
    </defs>
    <g clip-path="url(#p635ba153e3)">
     <use xlink:href="#mf2e8914b22" x="0" y="495.353125" style="fill: #808080; fill-opacity: 0.5; stroke: #808080; stroke-opacity: 0.5"/>
    </g>
   </g>
   <g id="PolyCollection_2">
    <defs>
     <path id="mdba3a8ecfc" d="M 88.389119 -170.018508 
L 88.389119 -118.209261 
L 113.374072 -98.1156 
L 138.359025 -89.815387 
L 163.343978 -99.385521 
L 188.328931 -98.412721 
L 213.313884 -55.332018 
L 238.298837 -79.369373 
L 263.28379 -92.065872 
L 288.268743 -121.574773 
L 313.253696 -144.196923 
L 338.238649 -147.116855 
L 363.223602 -177.597532 
L 388.208555 -160.559262 
L 413.193508 -153.934758 
L 438.178461 -143.102682 
L 463.163414 -149.853592 
L 488.148367 -160.542255 
L 513.13332 -154.554839 
L 538.118273 -155.225926 
L 563.103226 -151.273108 
L 588.088179 -151.740271 
L 613.073132 -170.508164 
L 638.058085 -155.387649 
L 663.043038 -159.471615 
L 688.027991 -152.442397 
L 713.012944 -157.876316 
L 737.997897 -150.546357 
L 762.98285 -148.400368 
L 787.967803 -130.72423 
L 812.952756 -136.267089 
L 812.952756 -202.725426 
L 812.952756 -202.725426 
L 787.967803 -210.375462 
L 762.98285 -201.859777 
L 737.997897 -222.979388 
L 713.012944 -224.179124 
L 688.027991 -215.546826 
L 663.043038 -227.134406 
L 638.058085 -224.999975 
L 613.073132 -247.88349 
L 588.088179 -210.674878 
L 563.103226 -228.08052 
L 538.118273 -222.601021 
L 513.13332 -237.043589 
L 488.148367 -213.566832 
L 463.163414 -219.494027 
L 438.178461 -203.52391 
L 413.193508 -196.707704 
L 388.208555 -223.529188 
L 363.223602 -244.762478 
L 338.238649 -210.324897 
L 313.253696 -184.475849 
L 288.268743 -159.050937 
L 263.28379 -130.17994 
L 238.298837 -136.588059 
L 213.313884 -123.060574 
L 188.328931 -163.479205 
L 163.343978 -148.737712 
L 138.359025 -153.862568 
L 113.374072 -153.73658 
L 88.389119 -170.018508 
z
" style="stroke: #2ca02c; stroke-opacity: 0.2"/>
    </defs>
    <g clip-path="url(#p635ba153e3)">
     <use xlink:href="#mdba3a8ecfc" x="0" y="495.353125" style="fill: #2ca02c; fill-opacity: 0.2; stroke: #2ca02c; stroke-opacity: 0.2"/>
    </g>
   </g>
   <g id="PolyCollection_3">
    <defs>
     <path id="m746d496577" d="M 88.389119 -160.53962 
L 88.389119 -89.115716 
L 113.374072 -85.898024 
L 138.359025 -84.590054 
L 163.343978 -67.550195 
L 188.328931 -83.823542 
L 213.313884 -43.031604 
L 238.298837 -93.226187 
L 263.28379 -293.409181 
L 288.268743 -373.357212 
L 313.253696 -280.868339 
L 338.238649 -292.050495 
L 363.223602 -264.999214 
L 388.208555 -261.895658 
L 413.193508 -318.526251 
L 438.178461 -258.295574 
L 463.163414 -229.090216 
L 488.148367 -219.110539 
L 513.13332 -172.103259 
L 538.118273 -187.449211 
L 563.103226 -160.538001 
L 588.088179 -153.133053 
L 613.073132 -161.894932 
L 638.058085 -152.113826 
L 663.043038 -147.459288 
L 688.027991 -123.63266 
L 713.012944 -103.379723 
L 737.997897 -101.453102 
L 762.98285 -92.331294 
L 787.967803 -103.928149 
L 812.952756 -101.184485 
L 812.952756 -161.057055 
L 812.952756 -161.057055 
L 787.967803 -171.092938 
L 762.98285 -160.679774 
L 737.997897 -163.471101 
L 713.012944 -175.432727 
L 688.027991 -189.254665 
L 663.043038 -200.578506 
L 638.058085 -228.734674 
L 613.073132 -233.650356 
L 588.088179 -232.930724 
L 563.103226 -235.745742 
L 538.118273 -254.657429 
L 513.13332 -248.362122 
L 488.148367 -292.94763 
L 463.163414 -289.816506 
L 438.178461 -321.311984 
L 413.193508 -380.265264 
L 388.208555 -332.49097 
L 363.223602 -327.652339 
L 338.238649 -369.876488 
L 313.253696 -371.011806 
L 288.268743 -435.68725 
L 263.28379 -376.500072 
L 238.298837 -193.076429 
L 213.313884 -127.622118 
L 188.328931 -162.246256 
L 163.343978 -153.246617 
L 138.359025 -159.238843 
L 113.374072 -161.516604 
L 88.389119 -160.53962 
z
" style="stroke: #d62728; stroke-opacity: 0.2"/>
    </defs>
    <g clip-path="url(#p635ba153e3)">
     <use xlink:href="#m746d496577" x="0" y="495.353125" style="fill: #d62728; fill-opacity: 0.2; stroke: #d62728; stroke-opacity: 0.2"/>
    </g>
   </g>
   <g id="PathCollection_1">
    <defs>
     <path id="mb029d3440a" d="M -1.936492 1.936492 
L 1.936492 1.936492 
L 1.936492 -1.936492 
L -1.936492 -1.936492 
z
" style="stroke: #d62728"/>
    </defs>
    <g clip-path="url(#p635ba153e3)">
     <use xlink:href="#mb029d3440a" x="263.28379" y="401.296875" style="fill: #d62728; stroke: #d62728"/>
     <use xlink:href="#mb029d3440a" x="288.268743" y="401.296875" style="fill: #d62728; stroke: #d62728"/>
     <use xlink:href="#mb029d3440a" x="313.253696" y="401.296875" style="fill: #d62728; stroke: #d62728"/>
     <use xlink:href="#mb029d3440a" x="338.238649" y="401.296875" style="fill: #d62728; stroke: #d62728"/>
     <use xlink:href="#mb029d3440a" x="363.223602" y="401.296875" style="fill: #d62728; stroke: #d62728"/>
     <use xlink:href="#mb029d3440a" x="388.208555" y="401.296875" style="fill: #d62728; stroke: #d62728"/>
     <use xlink:href="#mb029d3440a" x="413.193508" y="401.296875" style="fill: #d62728; stroke: #d62728"/>
     <use xlink:href="#mb029d3440a" x="438.178461" y="401.296875" style="fill: #d62728; stroke: #d62728"/>
     <use xlink:href="#mb029d3440a" x="463.163414" y="401.296875" style="fill: #d62728; stroke: #d62728"/>
     <use xlink:href="#mb029d3440a" x="488.148367" y="401.296875" style="fill: #d62728; stroke: #d62728"/>
     <use xlink:href="#mb029d3440a" x="513.13332" y="401.296875" style="fill: #d62728; stroke: #d62728"/>
     <use xlink:href="#mb029d3440a" x="538.118273" y="401.296875" style="fill: #d62728; stroke: #d62728"/>
     <use xlink:href="#mb029d3440a" x="563.103226" y="401.296875" style="fill: #d62728; stroke: #d62728"/>
     <use xlink:href="#mb029d3440a" x="588.088179" y="401.296875" style="fill: #d62728; stroke: #d62728"/>
     <use xlink:href="#mb029d3440a" x="613.073132" y="401.296875" style="fill: #d62728; stroke: #d62728"/>
     <use xlink:href="#mb029d3440a" x="638.058085" y="401.296875" style="fill: #d62728; stroke: #d62728"/>
     <use xlink:href="#mb029d3440a" x="663.043038" y="401.296875" style="fill: #d62728; stroke: #d62728"/>
    </g>
   </g>
   <g id="PathCollection_2">
    <defs>
     <path id="m63ed0f6e19" d="M -1.936492 1.936492 
L 1.936492 1.936492 
L 1.936492 -1.936492 
L -1.936492 -1.936492 
z
" style="stroke: #2ca02c"/>
    </defs>
    <g clip-path="url(#p635ba153e3)">
     <use xlink:href="#m63ed0f6e19" x="213.313884" y="412.596875" style="fill: #2ca02c; stroke: #2ca02c"/>
     <use xlink:href="#m63ed0f6e19" x="313.253696" y="412.596875" style="fill: #2ca02c; stroke: #2ca02c"/>
     <use xlink:href="#m63ed0f6e19" x="338.238649" y="412.596875" style="fill: #2ca02c; stroke: #2ca02c"/>
     <use xlink:href="#m63ed0f6e19" x="363.223602" y="412.596875" style="fill: #2ca02c; stroke: #2ca02c"/>
     <use xlink:href="#m63ed0f6e19" x="388.208555" y="412.596875" style="fill: #2ca02c; stroke: #2ca02c"/>
     <use xlink:href="#m63ed0f6e19" x="413.193508" y="412.596875" style="fill: #2ca02c; stroke: #2ca02c"/>
     <use xlink:href="#m63ed0f6e19" x="438.178461" y="412.596875" style="fill: #2ca02c; stroke: #2ca02c"/>
     <use xlink:href="#m63ed0f6e19" x="463.163414" y="412.596875" style="fill: #2ca02c; stroke: #2ca02c"/>
     <use xlink:href="#m63ed0f6e19" x="488.148367" y="412.596875" style="fill: #2ca02c; stroke: #2ca02c"/>
     <use xlink:href="#m63ed0f6e19" x="513.13332" y="412.596875" style="fill: #2ca02c; stroke: #2ca02c"/>
     <use xlink:href="#m63ed0f6e19" x="538.118273" y="412.596875" style="fill: #2ca02c; stroke: #2ca02c"/>
     <use xlink:href="#m63ed0f6e19" x="563.103226" y="412.596875" style="fill: #2ca02c; stroke: #2ca02c"/>
     <use xlink:href="#m63ed0f6e19" x="588.088179" y="412.596875" style="fill: #2ca02c; stroke: #2ca02c"/>
     <use xlink:href="#m63ed0f6e19" x="613.073132" y="412.596875" style="fill: #2ca02c; stroke: #2ca02c"/>
     <use xlink:href="#m63ed0f6e19" x="638.058085" y="412.596875" style="fill: #2ca02c; stroke: #2ca02c"/>
     <use xlink:href="#m63ed0f6e19" x="663.043038" y="412.596875" style="fill: #2ca02c; stroke: #2ca02c"/>
     <use xlink:href="#m63ed0f6e19" x="688.027991" y="412.596875" style="fill: #2ca02c; stroke: #2ca02c"/>
     <use xlink:href="#m63ed0f6e19" x="713.012944" y="412.596875" style="fill: #2ca02c; stroke: #2ca02c"/>
     <use xlink:href="#m63ed0f6e19" x="737.997897" y="412.596875" style="fill: #2ca02c; stroke: #2ca02c"/>
     <use xlink:href="#m63ed0f6e19" x="762.98285" y="412.596875" style="fill: #2ca02c; stroke: #2ca02c"/>
    </g>
   </g>
   <g id="matplotlib.axis_1">
    <g id="xtick_1">
     <g id="line2d_1">
      <defs>
       <path id="mbf89a6382c" d="M 0 0 
L 0 3.5 
" style="stroke: #000000; stroke-width: 0.8"/>
      </defs>
      <g>
       <use xlink:href="#mbf89a6382c" x="100.881596" y="457.796875" style="stroke: #000000; stroke-width: 0.8"/>
      </g>
     </g>
     <g id="text_1">
      <text style="font: 10px 'DejaVu Sans', 'Bitstream Vera Sans', 'Computer Modern Sans Serif', 'Lucida Grande', 'Verdana', 'Geneva', 'Lucid', 'Arial', 'Helvetica', 'Avant Garde', sans-serif; text-anchor: middle" x="100.881596" y="472.395312" transform="rotate(-0 100.881596 472.395312)">−200</text>
     </g>
    </g>
    <g id="xtick_2">
     <g id="line2d_2">
      <g>
       <use xlink:href="#mbf89a6382c" x="200.821408" y="457.796875" style="stroke: #000000; stroke-width: 0.8"/>
      </g>
     </g>
     <g id="text_2">
      <text style="font: 10px 'DejaVu Sans', 'Bitstream Vera Sans', 'Computer Modern Sans Serif', 'Lucida Grande', 'Verdana', 'Geneva', 'Lucid', 'Arial', 'Helvetica', 'Avant Garde', sans-serif; text-anchor: middle" x="200.821408" y="472.395312" transform="rotate(-0 200.821408 472.395312)">0</text>
     </g>
    </g>
    <g id="xtick_3">
     <g id="line2d_3">
      <g>
       <use xlink:href="#mbf89a6382c" x="300.76122" y="457.796875" style="stroke: #000000; stroke-width: 0.8"/>
      </g>
     </g>
     <g id="text_3">
      <text style="font: 10px 'DejaVu Sans', 'Bitstream Vera Sans', 'Computer Modern Sans Serif', 'Lucida Grande', 'Verdana', 'Geneva', 'Lucid', 'Arial', 'Helvetica', 'Avant Garde', sans-serif; text-anchor: middle" x="300.76122" y="472.395312" transform="rotate(-0 300.76122 472.395312)">200</text>
     </g>
    </g>
    <g id="xtick_4">
     <g id="line2d_4">
      <g>
       <use xlink:href="#mbf89a6382c" x="400.701032" y="457.796875" style="stroke: #000000; stroke-width: 0.8"/>
      </g>
     </g>
     <g id="text_4">
      <text style="font: 10px 'DejaVu Sans', 'Bitstream Vera Sans', 'Computer Modern Sans Serif', 'Lucida Grande', 'Verdana', 'Geneva', 'Lucid', 'Arial', 'Helvetica', 'Avant Garde', sans-serif; text-anchor: middle" x="400.701032" y="472.395312" transform="rotate(-0 400.701032 472.395312)">400</text>
     </g>
    </g>
    <g id="xtick_5">
     <g id="line2d_5">
      <g>
       <use xlink:href="#mbf89a6382c" x="500.640843" y="457.796875" style="stroke: #000000; stroke-width: 0.8"/>
      </g>
     </g>
     <g id="text_5">
      <text style="font: 10px 'DejaVu Sans', 'Bitstream Vera Sans', 'Computer Modern Sans Serif', 'Lucida Grande', 'Verdana', 'Geneva', 'Lucid', 'Arial', 'Helvetica', 'Avant Garde', sans-serif; text-anchor: middle" x="500.640843" y="472.395312" transform="rotate(-0 500.640843 472.395312)">600</text>
     </g>
    </g>
    <g id="xtick_6">
     <g id="line2d_6">
      <g>
       <use xlink:href="#mbf89a6382c" x="600.580655" y="457.796875" style="stroke: #000000; stroke-width: 0.8"/>
      </g>
     </g>
     <g id="text_6">
      <text style="font: 10px 'DejaVu Sans', 'Bitstream Vera Sans', 'Computer Modern Sans Serif', 'Lucida Grande', 'Verdana', 'Geneva', 'Lucid', 'Arial', 'Helvetica', 'Avant Garde', sans-serif; text-anchor: middle" x="600.580655" y="472.395312" transform="rotate(-0 600.580655 472.395312)">800</text>
     </g>
    </g>
    <g id="xtick_7">
     <g id="line2d_7">
      <g>
       <use xlink:href="#mbf89a6382c" x="700.520467" y="457.796875" style="stroke: #000000; stroke-width: 0.8"/>
      </g>
     </g>
     <g id="text_7">
      <text style="font: 10px 'DejaVu Sans', 'Bitstream Vera Sans', 'Computer Modern Sans Serif', 'Lucida Grande', 'Verdana', 'Geneva', 'Lucid', 'Arial', 'Helvetica', 'Avant Garde', sans-serif; text-anchor: middle" x="700.520467" y="472.395312" transform="rotate(-0 700.520467 472.395312)">1000</text>
     </g>
    </g>
    <g id="xtick_8">
     <g id="line2d_8">
      <g>
       <use xlink:href="#mbf89a6382c" x="800.460279" y="457.796875" style="stroke: #000000; stroke-width: 0.8"/>
      </g>
     </g>
     <g id="text_8">
      <text style="font: 10px 'DejaVu Sans', 'Bitstream Vera Sans', 'Computer Modern Sans Serif', 'Lucida Grande', 'Verdana', 'Geneva', 'Lucid', 'Arial', 'Helvetica', 'Avant Garde', sans-serif; text-anchor: middle" x="800.460279" y="472.395312" transform="rotate(-0 800.460279 472.395312)">1200</text>
     </g>
    </g>
    <g id="text_9">
     <text style="font: 10px 'DejaVu Sans', 'Bitstream Vera Sans', 'Computer Modern Sans Serif', 'Lucida Grande', 'Verdana', 'Geneva', 'Lucid', 'Arial', 'Helvetica', 'Avant Garde', sans-serif; text-anchor: middle" x="450.670937" y="486.073437" transform="rotate(-0 450.670937 486.073437)">timepoint</text>
    </g>
   </g>
   <g id="matplotlib.axis_2">
    <g id="ytick_1">
     <g id="line2d_9">
      <defs>
       <path id="m758cb928be" d="M 0 0 
L -3.5 0 
" style="stroke: #000000; stroke-width: 0.8"/>
      </defs>
      <g>
       <use xlink:href="#m758cb928be" x="52.160938" y="457.796875" style="stroke: #000000; stroke-width: 0.8"/>
      </g>
     </g>
     <g id="text_10">
      <text style="font: 10px 'DejaVu Sans', 'Bitstream Vera Sans', 'Computer Modern Sans Serif', 'Lucida Grande', 'Verdana', 'Geneva', 'Lucid', 'Arial', 'Helvetica', 'Avant Garde', sans-serif; text-anchor: end" x="45.160938" y="461.596094" transform="rotate(-0 45.160938 461.596094)">−0.2</text>
     </g>
    </g>
    <g id="ytick_2">
     <g id="line2d_10">
      <g>
       <use xlink:href="#m758cb928be" x="52.160938" y="367.396875" style="stroke: #000000; stroke-width: 0.8"/>
      </g>
     </g>
     <g id="text_11">
      <text style="font: 10px 'DejaVu Sans', 'Bitstream Vera Sans', 'Computer Modern Sans Serif', 'Lucida Grande', 'Verdana', 'Geneva', 'Lucid', 'Arial', 'Helvetica', 'Avant Garde', sans-serif; text-anchor: end" x="45.160938" y="371.196094" transform="rotate(-0 45.160938 371.196094)">0.0</text>
     </g>
    </g>
    <g id="ytick_3">
     <g id="line2d_11">
      <g>
       <use xlink:href="#m758cb928be" x="52.160938" y="276.996875" style="stroke: #000000; stroke-width: 0.8"/>
      </g>
     </g>
     <g id="text_12">
      <text style="font: 10px 'DejaVu Sans', 'Bitstream Vera Sans', 'Computer Modern Sans Serif', 'Lucida Grande', 'Verdana', 'Geneva', 'Lucid', 'Arial', 'Helvetica', 'Avant Garde', sans-serif; text-anchor: end" x="45.160938" y="280.796094" transform="rotate(-0 45.160938 280.796094)">0.2</text>
     </g>
    </g>
    <g id="ytick_4">
     <g id="line2d_12">
      <g>
       <use xlink:href="#m758cb928be" x="52.160938" y="186.596875" style="stroke: #000000; stroke-width: 0.8"/>
      </g>
     </g>
     <g id="text_13">
      <text style="font: 10px 'DejaVu Sans', 'Bitstream Vera Sans', 'Computer Modern Sans Serif', 'Lucida Grande', 'Verdana', 'Geneva', 'Lucid', 'Arial', 'Helvetica', 'Avant Garde', sans-serif; text-anchor: end" x="45.160938" y="190.396094" transform="rotate(-0 45.160938 190.396094)">0.4</text>
     </g>
    </g>
    <g id="ytick_5">
     <g id="line2d_13">
      <g>
       <use xlink:href="#m758cb928be" x="52.160938" y="96.196875" style="stroke: #000000; stroke-width: 0.8"/>
      </g>
     </g>
     <g id="text_14">
      <text style="font: 10px 'DejaVu Sans', 'Bitstream Vera Sans', 'Computer Modern Sans Serif', 'Lucida Grande', 'Verdana', 'Geneva', 'Lucid', 'Arial', 'Helvetica', 'Avant Garde', sans-serif; text-anchor: end" x="45.160938" y="99.996094" transform="rotate(-0 45.160938 99.996094)">0.6</text>
     </g>
    </g>
    <g id="text_15">
     <text style="font: 10px 'DejaVu Sans', 'Bitstream Vera Sans', 'Computer Modern Sans Serif', 'Lucida Grande', 'Verdana', 'Geneva', 'Lucid', 'Arial', 'Helvetica', 'Avant Garde', sans-serif; text-anchor: middle" x="14.798438" y="243.096875" transform="rotate(-90 14.798438 243.096875)">semipartial correlation</text>
    </g>
   </g>
   <g id="line2d_14">
    <path d="M 88.389119 367.396875 
L 113.374072 367.396875 
L 138.359025 367.396875 
L 163.343978 367.396875 
L 188.328931 367.396875 
L 213.313884 367.396875 
L 238.298837 367.396875 
L 263.28379 367.396875 
L 288.268743 367.396875 
L 313.253696 367.396875 
L 338.238649 367.396875 
L 363.223602 367.396875 
L 388.208555 367.396875 
L 413.193508 367.396875 
L 438.178461 367.396875 
L 463.163414 367.396875 
L 488.148367 367.396875 
L 513.13332 367.396875 
L 538.118273 367.396875 
L 563.103226 367.396875 
L 588.088179 367.396875 
L 613.073132 367.396875 
L 638.058085 367.396875 
L 663.043038 367.396875 
L 688.027991 367.396875 
L 713.012944 367.396875 
L 737.997897 367.396875 
L 762.98285 367.396875 
L 787.967803 367.396875 
L 812.952756 367.396875 
" clip-path="url(#p635ba153e3)" style="fill: none; stroke-dasharray: 5.55,2.4; stroke-dashoffset: 0; stroke: #000000; stroke-width: 1.5"/>
   </g>
   <g id="line2d_15">
    <path d="M 88.389119 352.272927 
L 113.374072 370.363459 
L 138.359025 374.966666 
L 163.343978 372.137945 
L 188.328931 363.781488 
L 213.313884 408.000501 
L 238.298837 387.703003 
L 263.28379 383.542343 
L 288.268743 354.999031 
L 313.253696 331.19233 
L 338.238649 316.873242 
L 363.223602 283.637403 
L 388.208555 302.171246 
L 413.193508 319.616601 
L 438.178461 323.153 
L 463.163414 310.1059 
L 488.148367 309.701994 
L 513.13332 301.387377 
L 538.118273 307.855187 
L 563.103226 303.97554 
L 588.088179 313.614399 
L 613.073132 287.350052 
L 638.058085 305.746027 
L 663.043038 303.582339 
L 688.027991 311.851807 
L 713.012944 304.482395 
L 737.997897 308.504337 
L 762.98285 320.226766 
L 787.967803 323.775978 
L 812.952756 326.9827 
" clip-path="url(#p635ba153e3)" style="fill: none; stroke: #2ca02c; stroke-width: 2; stroke-linecap: square"/>
   </g>
   <g id="line2d_16">
    <path d="M 88.389119 370.45841 
L 113.374072 371.040893 
L 138.359025 374.408488 
L 163.343978 387.742276 
L 188.328931 370.409032 
L 213.313884 408.459382 
L 238.298837 353.474347 
L 263.28379 159.216606 
L 288.268743 91.199143 
L 313.253696 167.348334 
L 338.238649 162.400895 
L 363.223602 199.093183 
L 388.208555 196.728866 
L 413.193508 144.199476 
L 438.178461 204.578798 
L 463.163414 234.533036 
L 488.148367 238.152167 
L 513.13332 283.370049 
L 538.118273 274.762723 
L 563.103226 297.364045 
L 588.088179 304.337986 
L 613.073132 297.136545 
L 638.058085 304.945904 
L 663.043038 320.903524 
L 688.027991 338.061087 
L 713.012944 357.083698 
L 737.997897 362.222382 
L 762.98285 370.127305 
L 787.967803 360.332782 
L 812.952756 362.982282 
" clip-path="url(#p635ba153e3)" style="fill: none; stroke: #d62728; stroke-width: 2; stroke-linecap: square"/>
   </g>
   <g id="line2d_17"/>
   <g id="line2d_18"/>
   <g id="patch_3">
    <path d="M 52.160938 457.796875 
L 52.160938 28.396875 
" style="fill: none; stroke: #000000; stroke-width: 0.8; stroke-linejoin: miter; stroke-linecap: square"/>
   </g>
   <g id="patch_4">
    <path d="M 52.160937 457.796875 
L 849.180938 457.796875 
" style="fill: none; stroke: #000000; stroke-width: 0.8; stroke-linejoin: miter; stroke-linecap: square"/>
   </g>
   <g id="text_16">
    <text style="font: 20px 'DejaVu Sans', 'Bitstream Vera Sans', 'Computer Modern Sans Serif', 'Lucida Grande', 'Verdana', 'Geneva', 'Lucid', 'Arial', 'Helvetica', 'Avant Garde', sans-serif; text-anchor: middle" x="450.670937" y="22.396875" transform="rotate(-0 450.670937 22.396875)">semipartial correlation of RDMs Across Time</text>
   </g>
   <g id="legend_1">
    <g id="patch_5">
     <path d="M 729.76375 80.43125 
L 842.180938 80.43125 
Q 844.180938 80.43125 844.180938 78.43125 
L 844.180938 35.396875 
Q 844.180938 33.396875 842.180938 33.396875 
L 729.76375 33.396875 
Q 727.76375 33.396875 727.76375 35.396875 
L 727.76375 78.43125 
Q 727.76375 80.43125 729.76375 80.43125 
z
" style="fill: #ffffff; opacity: 0.8; stroke: #cccccc; stroke-linejoin: miter"/>
    </g>
    <g id="text_17">
     <text style="font: 10px 'DejaVu Sans', 'Bitstream Vera Sans', 'Computer Modern Sans Serif', 'Lucida Grande', 'Verdana', 'Geneva', 'Lucid', 'Arial', 'Helvetica', 'Avant Garde', sans-serif; text-anchor: start" x="771.323906" y="44.995312" transform="rotate(-0 771.323906 44.995312)">factor</text>
    </g>
    <g id="line2d_19">
     <path d="M 731.76375 56.173437 
L 741.76375 56.173437 
L 751.76375 56.173437 
" style="fill: none; stroke: #2ca02c; stroke-width: 1.5; stroke-linecap: square"/>
    </g>
    <g id="text_18">
     <text style="font: 10px 'DejaVu Sans', 'Bitstream Vera Sans', 'Computer Modern Sans Serif', 'Lucida Grande', 'Verdana', 'Geneva', 'Lucid', 'Arial', 'Helvetica', 'Avant Garde', sans-serif; text-anchor: start" x="759.76375" y="59.673437" transform="rotate(-0 759.76375 59.673437)">Overlap Process</text>
    </g>
    <g id="line2d_20">
     <path d="M 731.76375 70.851562 
L 741.76375 70.851562 
L 751.76375 70.851562 
" style="fill: none; stroke: #d62728; stroke-width: 1.5; stroke-linecap: square"/>
    </g>
    <g id="text_19">
     <text style="font: 10px 'DejaVu Sans', 'Bitstream Vera Sans', 'Computer Modern Sans Serif', 'Lucida Grande', 'Verdana', 'Geneva', 'Lucid', 'Arial', 'Helvetica', 'Avant Garde', sans-serif; text-anchor: start" x="759.76375" y="74.351562" transform="rotate(-0 759.76375 74.351562)">Attended Area</text>
    </g>
   </g>
  </g>
 </g>
 <defs>
  <clipPath id="p635ba153e3">
   <rect x="52.160938" y="28.396875" width="797.02" height="429.4"/>
  </clipPath>
 </defs>
</svg>
