<?xml version="1.0" encoding="utf-8" standalone="no"?>
<!DOCTYPE svg PUBLIC "-//W3C//DTD SVG 1.1//EN"
  "http://www.w3.org/Graphics/SVG/1.1/DTD/svg11.dtd">
<svg xmlns:xlink="http://www.w3.org/1999/xlink" width="576pt" height="288pt" viewBox="0 0 576 288" xmlns="http://www.w3.org/2000/svg" version="1.1">
 <metadata>
  <rdf:RDF xmlns:dc="http://purl.org/dc/elements/1.1/" xmlns:cc="http://creativecommons.org/ns#" xmlns:rdf="http://www.w3.org/1999/02/22-rdf-syntax-ns#">
   <cc:Work>
    <dc:type rdf:resource="http://purl.org/dc/dcmitype/StillImage"/>
    <dc:date>2024-01-12T14:17:44.647653</dc:date>
    <dc:format>image/svg+xml</dc:format>
    <dc:creator>
     <cc:Agent>
      <dc:title>Matplotlib v3.7.1, https://matplotlib.org/</dc:title>
     </cc:Agent>
    </dc:creator>
   </cc:Work>
  </rdf:RDF>
 </metadata>
 <defs>
  <style type="text/css">*{stroke-linejoin: round; stroke-linecap: butt}</style>
 </defs>
 <g id="figure_1">
  <g id="patch_1">
   <path d="M 0 288 
L 576 288 
L 576 0 
L 0 0 
z
" style="fill: #ffffff"/>
  </g>
  <g id="axes_1">
   <g id="patch_2">
    <path d="M 62.57 246.04 
L 565.2 246.04 
L 565.2 10.8 
L 62.57 10.8 
z
" style="fill: #ffffff"/>
   </g>
   <g id="PolyCollection_1">
    <defs>
     <path id="m4e816cf15e" d="M 85.416818 -85.789843 
L 85.416818 -61.875767 
L 92.907578 -60.156627 
L 100.398338 -63.174891 
L 107.889098 -67.112658 
L 115.379858 -65.227354 
L 122.870618 -60.537849 
L 130.361379 -60.782403 
L 137.852139 -62.728349 
L 145.342899 -64.007446 
L 152.833659 -65.82744 
L 160.324419 -66.951644 
L 167.815179 -74.973956 
L 175.305939 -90.773523 
L 182.796699 -115.576915 
L 190.287459 -144.123293 
L 197.778219 -163.851637 
L 205.268979 -180.786474 
L 212.759739 -189.860859 
L 220.250499 -193.810217 
L 227.741259 -186.055473 
L 235.232019 -182.736652 
L 242.722779 -181.128611 
L 250.213539 -177.216394 
L 257.7043 -174.552569 
L 265.19506 -170.766161 
L 272.68582 -165.862759 
L 280.17658 -168.051951 
L 287.66734 -167.127779 
L 295.1581 -163.758906 
L 302.64886 -166.805487 
L 310.13962 -168.060876 
L 317.63038 -169.383167 
L 325.12114 -174.153799 
L 332.6119 -169.190963 
L 340.10266 -168.409253 
L 347.59342 -166.910632 
L 355.08418 -169.687984 
L 362.57494 -171.037031 
L 370.0657 -171.426996 
L 377.556461 -162.913096 
L 385.047221 -155.633214 
L 392.537981 -143.870706 
L 400.028741 -135.058792 
L 407.519501 -132.655737 
L 415.010261 -125.453146 
L 422.501021 -121.989484 
L 429.991781 -118.722356 
L 437.482541 -117.715305 
L 444.973301 -108.394674 
L 452.464061 -103.474153 
L 459.954821 -103.707402 
L 467.445581 -108.767962 
L 474.936341 -109.903623 
L 482.427101 -106.80673 
L 489.917861 -107.788458 
L 497.408621 -109.094332 
L 504.899382 -110.04514 
L 512.390142 -108.449849 
L 519.880902 -103.883225 
L 527.371662 -97.784404 
L 534.862422 -95.760015 
L 542.353182 -96.76653 
L 542.353182 -135.280621 
L 542.353182 -135.280621 
L 534.862422 -143.48482 
L 527.371662 -148.170569 
L 519.880902 -155.296875 
L 512.390142 -159.324087 
L 504.899382 -165.788527 
L 497.408621 -162.667373 
L 489.917861 -166.116892 
L 482.427101 -170.783753 
L 474.936341 -174.836197 
L 467.445581 -173.75674 
L 459.954821 -172.979665 
L 452.464061 -174.996077 
L 444.973301 -176.350908 
L 437.482541 -189.29642 
L 429.991781 -191.383893 
L 422.501021 -192.80009 
L 415.010261 -205.926797 
L 407.519501 -212.878016 
L 400.028741 -217.730759 
L 392.537981 -231.833392 
L 385.047221 -236.21649 
L 377.556461 -246.372537 
L 370.0657 -253.917101 
L 362.57494 -260.292105 
L 355.08418 -263.142659 
L 347.59342 -258.945603 
L 340.10266 -262.597158 
L 332.6119 -264.429502 
L 325.12114 -266.507273 
L 317.63038 -260.93404 
L 310.13962 -255.710036 
L 302.64886 -250.15004 
L 295.1581 -242.620643 
L 287.66734 -240.880416 
L 280.17658 -240.516807 
L 272.68582 -237.782906 
L 265.19506 -244.096725 
L 257.7043 -247.564883 
L 250.213539 -249.749903 
L 242.722779 -253.709802 
L 235.232019 -250.30371 
L 227.741259 -247.910683 
L 220.250499 -254.540969 
L 212.759739 -249.075533 
L 205.268979 -235.840659 
L 197.778219 -216.867658 
L 190.287459 -189.291636 
L 182.796699 -159.486365 
L 175.305939 -130.963211 
L 167.815179 -101.559808 
L 160.324419 -88.961307 
L 152.833659 -86.610184 
L 145.342899 -85.369755 
L 137.852139 -86.376565 
L 130.361379 -86.935885 
L 122.870618 -88.658589 
L 115.379858 -88.469788 
L 107.889098 -91.312134 
L 100.398338 -92.49466 
L 92.907578 -88.317633 
L 85.416818 -85.789843 
z
" style="stroke: #00ced1; stroke-opacity: 0.2"/>
    </defs>
    <g clip-path="url(#pca0c5beb9c)">
     <use xlink:href="#m4e816cf15e" x="0" y="288" style="fill: #00ced1; fill-opacity: 0.2; stroke: #00ced1; stroke-opacity: 0.2"/>
    </g>
   </g>
   <g id="PolyCollection_2">
    <defs>
     <path id="maa79642db8" d="M 85.416818 -91.884723 
L 85.416818 -64.9681 
L 92.907578 -56.403746 
L 100.398338 -52.652727 
L 107.889098 -55.725044 
L 115.379858 -58.251969 
L 122.870618 -61.702286 
L 130.361379 -63.948605 
L 137.852139 -65.213301 
L 145.342899 -68.821002 
L 152.833659 -72.199183 
L 160.324419 -73.373399 
L 167.815179 -77.709738 
L 175.305939 -79.88623 
L 182.796699 -80.139496 
L 190.287459 -74.417773 
L 197.778219 -69.098344 
L 205.268979 -67.479548 
L 212.759739 -68.962227 
L 220.250499 -71.727199 
L 227.741259 -75.07627 
L 235.232019 -81.002052 
L 242.722779 -82.857109 
L 250.213539 -86.911249 
L 257.7043 -88.424098 
L 265.19506 -89.780412 
L 272.68582 -88.807202 
L 280.17658 -88.271849 
L 287.66734 -90.39427 
L 295.1581 -85.177458 
L 302.64886 -78.531377 
L 310.13962 -73.684968 
L 317.63038 -73.16696 
L 325.12114 -75.179891 
L 332.6119 -72.707746 
L 340.10266 -70.600191 
L 347.59342 -69.470026 
L 355.08418 -68.719426 
L 362.57494 -63.325502 
L 370.0657 -55.656102 
L 377.556461 -58.107429 
L 385.047221 -63.781269 
L 392.537981 -68.604387 
L 400.028741 -67.995447 
L 407.519501 -66.143821 
L 415.010261 -67.191718 
L 422.501021 -68.666505 
L 429.991781 -71.880145 
L 437.482541 -70.211374 
L 444.973301 -67.489662 
L 452.464061 -64.695251 
L 459.954821 -61.418424 
L 467.445581 -63.524475 
L 474.936341 -64.657499 
L 482.427101 -66.783382 
L 489.917861 -69.254194 
L 497.408621 -66.985471 
L 504.899382 -64.242531 
L 512.390142 -63.995046 
L 519.880902 -65.547655 
L 527.371662 -68.315301 
L 534.862422 -71.733186 
L 542.353182 -75.795508 
L 542.353182 -97.787053 
L 542.353182 -97.787053 
L 534.862422 -99.234285 
L 527.371662 -100.679446 
L 519.880902 -96.697348 
L 512.390142 -93.243249 
L 504.899382 -91.38041 
L 497.408621 -92.88837 
L 489.917861 -92.121281 
L 482.427101 -92.720508 
L 474.936341 -95.159602 
L 467.445581 -93.363058 
L 459.954821 -92.019474 
L 452.464061 -93.471783 
L 444.973301 -95.425759 
L 437.482541 -96.571271 
L 429.991781 -98.379854 
L 422.501021 -97.522073 
L 415.010261 -96.610006 
L 407.519501 -96.957356 
L 400.028741 -97.734084 
L 392.537981 -96.20195 
L 385.047221 -95.332235 
L 377.556461 -93.214755 
L 370.0657 -94.225139 
L 362.57494 -103.81976 
L 355.08418 -107.298884 
L 347.59342 -104.815142 
L 340.10266 -104.734664 
L 332.6119 -103.272826 
L 325.12114 -104.699212 
L 317.63038 -107.264962 
L 310.13962 -109.806407 
L 302.64886 -113.766757 
L 295.1581 -113.84352 
L 287.66734 -117.882537 
L 280.17658 -123.645488 
L 272.68582 -129.0196 
L 265.19506 -135.213935 
L 257.7043 -133.286772 
L 250.213539 -125.177339 
L 242.722779 -117.070447 
L 235.232019 -113.643384 
L 227.741259 -106.991412 
L 220.250499 -102.694135 
L 212.759739 -93.801841 
L 205.268979 -87.330469 
L 197.778219 -90.325368 
L 190.287459 -96.136096 
L 182.796699 -102.606341 
L 175.305939 -107.070448 
L 167.815179 -107.608011 
L 160.324419 -102.974092 
L 152.833659 -99.843194 
L 145.342899 -100.078551 
L 137.852139 -97.760508 
L 130.361379 -95.812674 
L 122.870618 -94.787368 
L 115.379858 -92.014835 
L 107.889098 -87.668572 
L 100.398338 -84.968861 
L 92.907578 -87.889398 
L 85.416818 -91.884723 
z
" style="stroke: #00ced1; stroke-opacity: 0.2"/>
    </defs>
    <g clip-path="url(#pca0c5beb9c)">
     <use xlink:href="#maa79642db8" x="0" y="288" style="fill: #00ced1; fill-opacity: 0.2; stroke: #00ced1; stroke-opacity: 0.2"/>
    </g>
   </g>
   <g id="PolyCollection_3">
    <defs>
     <path id="me4bb673084" d="M 85.416818 -92.547894 
L 85.416818 -75.812906 
L 92.907578 -70.721356 
L 100.398338 -66.620737 
L 107.889098 -66.626365 
L 115.379858 -68.791208 
L 122.870618 -67.44601 
L 130.361379 -66.836622 
L 137.852139 -69.114847 
L 145.342899 -70.920743 
L 152.833659 -72.126407 
L 160.324419 -74.88787 
L 167.815179 -79.366634 
L 175.305939 -85.919434 
L 182.796699 -99.018516 
L 190.287459 -113.767771 
L 197.778219 -123.985264 
L 205.268979 -131.237474 
L 212.759739 -136.529585 
L 220.250499 -138.653596 
L 227.741259 -136.441193 
L 235.232019 -127.265184 
L 242.722779 -117.371343 
L 250.213539 -112.69314 
L 257.7043 -111.916509 
L 265.19506 -112.572632 
L 272.68582 -115.461583 
L 280.17658 -120.464791 
L 287.66734 -120.373521 
L 295.1581 -120.0264 
L 302.64886 -120.809704 
L 310.13962 -120.857772 
L 317.63038 -118.928137 
L 325.12114 -117.292409 
L 332.6119 -118.464454 
L 340.10266 -118.327466 
L 347.59342 -120.811377 
L 355.08418 -124.177899 
L 362.57494 -125.218745 
L 370.0657 -124.319786 
L 377.556461 -117.853403 
L 385.047221 -111.444611 
L 392.537981 -111.592827 
L 400.028741 -107.899818 
L 407.519501 -105.712584 
L 415.010261 -102.214933 
L 422.501021 -97.773757 
L 429.991781 -100.440006 
L 437.482541 -102.792391 
L 444.973301 -104.848578 
L 452.464061 -102.778543 
L 459.954821 -99.566859 
L 467.445581 -96.215789 
L 474.936341 -98.495314 
L 482.427101 -97.677204 
L 489.917861 -96.075565 
L 497.408621 -95.174405 
L 504.899382 -96.581049 
L 512.390142 -97.931522 
L 519.880902 -96.859959 
L 527.371662 -96.922117 
L 534.862422 -93.278958 
L 542.353182 -89.847704 
L 542.353182 -120.904644 
L 542.353182 -120.904644 
L 534.862422 -125.741855 
L 527.371662 -130.28039 
L 519.880902 -135.114218 
L 512.390142 -136.811804 
L 504.899382 -136.055172 
L 497.408621 -134.815261 
L 489.917861 -138.20364 
L 482.427101 -138.39667 
L 474.936341 -141.285693 
L 467.445581 -141.451856 
L 459.954821 -142.731415 
L 452.464061 -145.442314 
L 444.973301 -147.623648 
L 437.482541 -146.941685 
L 429.991781 -143.88172 
L 422.501021 -143.472749 
L 415.010261 -150.972251 
L 407.519501 -153.583574 
L 400.028741 -154.280348 
L 392.537981 -155.561692 
L 385.047221 -155.872161 
L 377.556461 -160.753504 
L 370.0657 -166.203666 
L 362.57494 -168.402294 
L 355.08418 -168.768937 
L 347.59342 -166.601657 
L 340.10266 -163.787383 
L 332.6119 -163.10532 
L 325.12114 -162.695291 
L 317.63038 -161.200219 
L 310.13962 -161.783802 
L 302.64886 -159.363689 
L 295.1581 -161.043766 
L 287.66734 -156.735441 
L 280.17658 -153.902411 
L 272.68582 -148.759582 
L 265.19506 -145.124708 
L 257.7043 -146.609498 
L 250.213539 -145.719147 
L 242.722779 -152.609899 
L 235.232019 -158.782065 
L 227.741259 -167.532049 
L 220.250499 -172.727688 
L 212.759739 -171.3693 
L 205.268979 -166.361921 
L 197.778219 -157.245189 
L 190.287459 -143.478918 
L 182.796699 -125.44118 
L 175.305939 -109.1725 
L 167.815179 -97.282582 
L 160.324419 -93.632372 
L 152.833659 -92.888838 
L 145.342899 -89.926962 
L 137.852139 -86.912961 
L 130.361379 -87.90842 
L 122.870618 -89.497202 
L 115.379858 -91.398271 
L 107.889098 -91.064896 
L 100.398338 -87.502248 
L 92.907578 -88.460604 
L 85.416818 -92.547894 
z
" style="stroke: #d2691e; stroke-opacity: 0.2"/>
    </defs>
    <g clip-path="url(#pca0c5beb9c)">
     <use xlink:href="#me4bb673084" x="0" y="288" style="fill: #d2691e; fill-opacity: 0.2; stroke: #d2691e; stroke-opacity: 0.2"/>
    </g>
   </g>
   <g id="PolyCollection_4">
    <defs>
     <path id="mff7c2151f4" d="M 85.416818 -77.525655 
L 85.416818 -55.602289 
L 92.907578 -57.880471 
L 100.398338 -62.274148 
L 107.889098 -68.573527 
L 115.379858 -72.224447 
L 122.870618 -76.060056 
L 130.361379 -79.090058 
L 137.852139 -77.760556 
L 145.342899 -74.8481 
L 152.833659 -73.409748 
L 160.324419 -73.45042 
L 167.815179 -77.312078 
L 175.305939 -78.85905 
L 182.796699 -73.644573 
L 190.287459 -66.754834 
L 197.778219 -63.967325 
L 205.268979 -68.587566 
L 212.759739 -73.502707 
L 220.250499 -75.562292 
L 227.741259 -75.433778 
L 235.232019 -75.994025 
L 242.722779 -79.330981 
L 250.213539 -85.420259 
L 257.7043 -87.667396 
L 265.19506 -84.873493 
L 272.68582 -80.727876 
L 280.17658 -79.758132 
L 287.66734 -80.121982 
L 295.1581 -81.176372 
L 302.64886 -78.060166 
L 310.13962 -74.845408 
L 317.63038 -69.757778 
L 325.12114 -66.61324 
L 332.6119 -67.336476 
L 340.10266 -69.605981 
L 347.59342 -75.565455 
L 355.08418 -81.481419 
L 362.57494 -81.737175 
L 370.0657 -81.337784 
L 377.556461 -83.233959 
L 385.047221 -86.808908 
L 392.537981 -87.918334 
L 400.028741 -85.062889 
L 407.519501 -76.154188 
L 415.010261 -73.67772 
L 422.501021 -75.852443 
L 429.991781 -78.831933 
L 437.482541 -79.968294 
L 444.973301 -77.139434 
L 452.464061 -67.787911 
L 459.954821 -63.187434 
L 467.445581 -66.688721 
L 474.936341 -71.797476 
L 482.427101 -73.754756 
L 489.917861 -73.527724 
L 497.408621 -72.807661 
L 504.899382 -74.369709 
L 512.390142 -75.193699 
L 519.880902 -74.725044 
L 527.371662 -73.588635 
L 534.862422 -72.598999 
L 542.353182 -73.045646 
L 542.353182 -94.145086 
L 542.353182 -94.145086 
L 534.862422 -93.906021 
L 527.371662 -94.382782 
L 519.880902 -94.762708 
L 512.390142 -97.14317 
L 504.899382 -98.094614 
L 497.408621 -96.833578 
L 489.917861 -98.137234 
L 482.427101 -97.794298 
L 474.936341 -94.085062 
L 467.445581 -91.996216 
L 459.954821 -88.684 
L 452.464061 -90.149922 
L 444.973301 -93.605806 
L 437.482541 -95.820533 
L 429.991781 -97.863252 
L 422.501021 -98.324075 
L 415.010261 -96.928879 
L 407.519501 -98.768788 
L 400.028741 -101.782402 
L 392.537981 -102.868391 
L 385.047221 -104.141181 
L 377.556461 -102.518199 
L 370.0657 -100.46582 
L 362.57494 -99.697159 
L 355.08418 -99.574333 
L 347.59342 -97.640728 
L 340.10266 -90.865095 
L 332.6119 -86.842754 
L 325.12114 -85.937258 
L 317.63038 -90.125516 
L 310.13962 -96.447169 
L 302.64886 -99.476749 
L 295.1581 -102.020859 
L 287.66734 -102.052725 
L 280.17658 -103.630612 
L 272.68582 -105.889064 
L 265.19506 -106.127935 
L 257.7043 -105.857639 
L 250.213539 -101.897499 
L 242.722779 -97.228055 
L 235.232019 -95.895164 
L 227.741259 -96.608326 
L 220.250499 -98.196224 
L 212.759739 -102.364569 
L 205.268979 -102.349677 
L 197.778219 -96.174193 
L 190.287459 -97.238446 
L 182.796699 -95.559379 
L 175.305939 -93.958598 
L 167.815179 -95.166273 
L 160.324419 -95.70314 
L 152.833659 -94.883948 
L 145.342899 -97.091818 
L 137.852139 -98.487759 
L 130.361379 -98.658234 
L 122.870618 -97.075935 
L 115.379858 -93.315573 
L 107.889098 -92.929995 
L 100.398338 -87.328538 
L 92.907578 -81.537737 
L 85.416818 -77.525655 
z
" style="stroke: #d2691e; stroke-opacity: 0.2"/>
    </defs>
    <g clip-path="url(#pca0c5beb9c)">
     <use xlink:href="#mff7c2151f4" x="0" y="288" style="fill: #d2691e; fill-opacity: 0.2; stroke: #d2691e; stroke-opacity: 0.2"/>
    </g>
   </g>
   <g id="matplotlib.axis_1">
    <g id="xtick_1">
     <g id="line2d_1">
      <defs>
       <path id="m3f8e710b14" d="M 0 0 
L 0 3.5 
" style="stroke: #000000; stroke-width: 0.8"/>
      </defs>
      <g>
       <use xlink:href="#m3f8e710b14" x="101.022568" y="246.04" style="stroke: #000000; stroke-width: 0.8"/>
      </g>
     </g>
     <g id="text_1">
      <!-- −200 -->
      <g transform="translate(87.288975 260.638438) scale(0.1 -0.1)">
       <defs>
        <path id="DejaVuSans-2212" d="M 678 2272 
L 4684 2272 
L 4684 1741 
L 678 1741 
L 678 2272 
z
" transform="scale(0.015625)"/>
        <path id="DejaVuSans-32" d="M 1228 531 
L 3431 531 
L 3431 0 
L 469 0 
L 469 531 
Q 828 903 1448 1529 
Q 2069 2156 2228 2338 
Q 2531 2678 2651 2914 
Q 2772 3150 2772 3378 
Q 2772 3750 2511 3984 
Q 2250 4219 1831 4219 
Q 1534 4219 1204 4116 
Q 875 4013 500 3803 
L 500 4441 
Q 881 4594 1212 4672 
Q 1544 4750 1819 4750 
Q 2544 4750 2975 4387 
Q 3406 4025 3406 3419 
Q 3406 3131 3298 2873 
Q 3191 2616 2906 2266 
Q 2828 2175 2409 1742 
Q 1991 1309 1228 531 
z
" transform="scale(0.015625)"/>
        <path id="DejaVuSans-30" d="M 2034 4250 
Q 1547 4250 1301 3770 
Q 1056 3291 1056 2328 
Q 1056 1369 1301 889 
Q 1547 409 2034 409 
Q 2525 409 2770 889 
Q 3016 1369 3016 2328 
Q 3016 3291 2770 3770 
Q 2525 4250 2034 4250 
z
M 2034 4750 
Q 2819 4750 3233 4129 
Q 3647 3509 3647 2328 
Q 3647 1150 3233 529 
Q 2819 -91 2034 -91 
Q 1250 -91 836 529 
Q 422 1150 422 2328 
Q 422 3509 836 4129 
Q 1250 4750 2034 4750 
z
" transform="scale(0.015625)"/>
       </defs>
       <use xlink:href="#DejaVuSans-2212"/>
       <use xlink:href="#DejaVuSans-32" x="83.789062"/>
       <use xlink:href="#DejaVuSans-30" x="147.412109"/>
       <use xlink:href="#DejaVuSans-30" x="211.035156"/>
      </g>
     </g>
    </g>
    <g id="xtick_2">
     <g id="line2d_2">
      <g>
       <use xlink:href="#m3f8e710b14" x="163.445569" y="246.04" style="stroke: #000000; stroke-width: 0.8"/>
      </g>
     </g>
     <g id="text_2">
      <!-- 0 -->
      <g transform="translate(160.264319 260.638438) scale(0.1 -0.1)">
       <use xlink:href="#DejaVuSans-30"/>
      </g>
     </g>
    </g>
    <g id="xtick_3">
     <g id="line2d_3">
      <g>
       <use xlink:href="#m3f8e710b14" x="225.868569" y="246.04" style="stroke: #000000; stroke-width: 0.8"/>
      </g>
     </g>
     <g id="text_3">
      <!-- 200 -->
      <g transform="translate(216.324819 260.638438) scale(0.1 -0.1)">
       <use xlink:href="#DejaVuSans-32"/>
       <use xlink:href="#DejaVuSans-30" x="63.623047"/>
       <use xlink:href="#DejaVuSans-30" x="127.246094"/>
      </g>
     </g>
    </g>
    <g id="xtick_4">
     <g id="line2d_4">
      <g>
       <use xlink:href="#m3f8e710b14" x="288.29157" y="246.04" style="stroke: #000000; stroke-width: 0.8"/>
      </g>
     </g>
     <g id="text_4">
      <!-- 400 -->
      <g transform="translate(278.74782 260.638438) scale(0.1 -0.1)">
       <defs>
        <path id="DejaVuSans-34" d="M 2419 4116 
L 825 1625 
L 2419 1625 
L 2419 4116 
z
M 2253 4666 
L 3047 4666 
L 3047 1625 
L 3713 1625 
L 3713 1100 
L 3047 1100 
L 3047 0 
L 2419 0 
L 2419 1100 
L 313 1100 
L 313 1709 
L 2253 4666 
z
" transform="scale(0.015625)"/>
       </defs>
       <use xlink:href="#DejaVuSans-34"/>
       <use xlink:href="#DejaVuSans-30" x="63.623047"/>
       <use xlink:href="#DejaVuSans-30" x="127.246094"/>
      </g>
     </g>
    </g>
    <g id="xtick_5">
     <g id="line2d_5">
      <g>
       <use xlink:href="#m3f8e710b14" x="350.71457" y="246.04" style="stroke: #000000; stroke-width: 0.8"/>
      </g>
     </g>
     <g id="text_5">
      <!-- 600 -->
      <g transform="translate(341.17082 260.638438) scale(0.1 -0.1)">
       <defs>
        <path id="DejaVuSans-36" d="M 2113 2584 
Q 1688 2584 1439 2293 
Q 1191 2003 1191 1497 
Q 1191 994 1439 701 
Q 1688 409 2113 409 
Q 2538 409 2786 701 
Q 3034 994 3034 1497 
Q 3034 2003 2786 2293 
Q 2538 2584 2113 2584 
z
M 3366 4563 
L 3366 3988 
Q 3128 4100 2886 4159 
Q 2644 4219 2406 4219 
Q 1781 4219 1451 3797 
Q 1122 3375 1075 2522 
Q 1259 2794 1537 2939 
Q 1816 3084 2150 3084 
Q 2853 3084 3261 2657 
Q 3669 2231 3669 1497 
Q 3669 778 3244 343 
Q 2819 -91 2113 -91 
Q 1303 -91 875 529 
Q 447 1150 447 2328 
Q 447 3434 972 4092 
Q 1497 4750 2381 4750 
Q 2619 4750 2861 4703 
Q 3103 4656 3366 4563 
z
" transform="scale(0.015625)"/>
       </defs>
       <use xlink:href="#DejaVuSans-36"/>
       <use xlink:href="#DejaVuSans-30" x="63.623047"/>
       <use xlink:href="#DejaVuSans-30" x="127.246094"/>
      </g>
     </g>
    </g>
    <g id="xtick_6">
     <g id="line2d_6">
      <g>
       <use xlink:href="#m3f8e710b14" x="413.137571" y="246.04" style="stroke: #000000; stroke-width: 0.8"/>
      </g>
     </g>
     <g id="text_6">
      <!-- 800 -->
      <g transform="translate(403.593821 260.638438) scale(0.1 -0.1)">
       <defs>
        <path id="DejaVuSans-38" d="M 2034 2216 
Q 1584 2216 1326 1975 
Q 1069 1734 1069 1313 
Q 1069 891 1326 650 
Q 1584 409 2034 409 
Q 2484 409 2743 651 
Q 3003 894 3003 1313 
Q 3003 1734 2745 1975 
Q 2488 2216 2034 2216 
z
M 1403 2484 
Q 997 2584 770 2862 
Q 544 3141 544 3541 
Q 544 4100 942 4425 
Q 1341 4750 2034 4750 
Q 2731 4750 3128 4425 
Q 3525 4100 3525 3541 
Q 3525 3141 3298 2862 
Q 3072 2584 2669 2484 
Q 3125 2378 3379 2068 
Q 3634 1759 3634 1313 
Q 3634 634 3220 271 
Q 2806 -91 2034 -91 
Q 1263 -91 848 271 
Q 434 634 434 1313 
Q 434 1759 690 2068 
Q 947 2378 1403 2484 
z
M 1172 3481 
Q 1172 3119 1398 2916 
Q 1625 2713 2034 2713 
Q 2441 2713 2670 2916 
Q 2900 3119 2900 3481 
Q 2900 3844 2670 4047 
Q 2441 4250 2034 4250 
Q 1625 4250 1398 4047 
Q 1172 3844 1172 3481 
z
" transform="scale(0.015625)"/>
       </defs>
       <use xlink:href="#DejaVuSans-38"/>
       <use xlink:href="#DejaVuSans-30" x="63.623047"/>
       <use xlink:href="#DejaVuSans-30" x="127.246094"/>
      </g>
     </g>
    </g>
    <g id="xtick_7">
     <g id="line2d_7">
      <g>
       <use xlink:href="#m3f8e710b14" x="475.560571" y="246.04" style="stroke: #000000; stroke-width: 0.8"/>
      </g>
     </g>
     <g id="text_7">
      <!-- 1000 -->
      <g transform="translate(462.835571 260.638438) scale(0.1 -0.1)">
       <defs>
        <path id="DejaVuSans-31" d="M 794 531 
L 1825 531 
L 1825 4091 
L 703 3866 
L 703 4441 
L 1819 4666 
L 2450 4666 
L 2450 531 
L 3481 531 
L 3481 0 
L 794 0 
L 794 531 
z
" transform="scale(0.015625)"/>
       </defs>
       <use xlink:href="#DejaVuSans-31"/>
       <use xlink:href="#DejaVuSans-30" x="63.623047"/>
       <use xlink:href="#DejaVuSans-30" x="127.246094"/>
       <use xlink:href="#DejaVuSans-30" x="190.869141"/>
      </g>
     </g>
    </g>
    <g id="xtick_8">
     <g id="line2d_8">
      <g>
       <use xlink:href="#m3f8e710b14" x="537.983572" y="246.04" style="stroke: #000000; stroke-width: 0.8"/>
      </g>
     </g>
     <g id="text_8">
      <!-- 1200 -->
      <g transform="translate(525.258572 260.638438) scale(0.1 -0.1)">
       <use xlink:href="#DejaVuSans-31"/>
       <use xlink:href="#DejaVuSans-32" x="63.623047"/>
       <use xlink:href="#DejaVuSans-30" x="127.246094"/>
       <use xlink:href="#DejaVuSans-30" x="190.869141"/>
      </g>
     </g>
    </g>
    <g id="text_9">
     <!-- time -->
     <g transform="translate(302.588906 274.316562) scale(0.1 -0.1)">
      <defs>
       <path id="DejaVuSans-74" d="M 1172 4494 
L 1172 3500 
L 2356 3500 
L 2356 3053 
L 1172 3053 
L 1172 1153 
Q 1172 725 1289 603 
Q 1406 481 1766 481 
L 2356 481 
L 2356 0 
L 1766 0 
Q 1100 0 847 248 
Q 594 497 594 1153 
L 594 3053 
L 172 3053 
L 172 3500 
L 594 3500 
L 594 4494 
L 1172 4494 
z
" transform="scale(0.015625)"/>
       <path id="DejaVuSans-69" d="M 603 3500 
L 1178 3500 
L 1178 0 
L 603 0 
L 603 3500 
z
M 603 4863 
L 1178 4863 
L 1178 4134 
L 603 4134 
L 603 4863 
z
" transform="scale(0.015625)"/>
       <path id="DejaVuSans-6d" d="M 3328 2828 
Q 3544 3216 3844 3400 
Q 4144 3584 4550 3584 
Q 5097 3584 5394 3201 
Q 5691 2819 5691 2113 
L 5691 0 
L 5113 0 
L 5113 2094 
Q 5113 2597 4934 2840 
Q 4756 3084 4391 3084 
Q 3944 3084 3684 2787 
Q 3425 2491 3425 1978 
L 3425 0 
L 2847 0 
L 2847 2094 
Q 2847 2600 2669 2842 
Q 2491 3084 2119 3084 
Q 1678 3084 1418 2786 
Q 1159 2488 1159 1978 
L 1159 0 
L 581 0 
L 581 3500 
L 1159 3500 
L 1159 2956 
Q 1356 3278 1631 3431 
Q 1906 3584 2284 3584 
Q 2666 3584 2933 3390 
Q 3200 3197 3328 2828 
z
" transform="scale(0.015625)"/>
       <path id="DejaVuSans-65" d="M 3597 1894 
L 3597 1613 
L 953 1613 
Q 991 1019 1311 708 
Q 1631 397 2203 397 
Q 2534 397 2845 478 
Q 3156 559 3463 722 
L 3463 178 
Q 3153 47 2828 -22 
Q 2503 -91 2169 -91 
Q 1331 -91 842 396 
Q 353 884 353 1716 
Q 353 2575 817 3079 
Q 1281 3584 2069 3584 
Q 2775 3584 3186 3129 
Q 3597 2675 3597 1894 
z
M 3022 2063 
Q 3016 2534 2758 2815 
Q 2500 3097 2075 3097 
Q 1594 3097 1305 2825 
Q 1016 2553 972 2059 
L 3022 2063 
z
" transform="scale(0.015625)"/>
      </defs>
      <use xlink:href="#DejaVuSans-74"/>
      <use xlink:href="#DejaVuSans-69" x="39.208984"/>
      <use xlink:href="#DejaVuSans-6d" x="66.992188"/>
      <use xlink:href="#DejaVuSans-65" x="164.404297"/>
     </g>
    </g>
   </g>
   <g id="matplotlib.axis_2">
    <g id="ytick_1">
     <g id="line2d_9">
      <defs>
       <path id="m2fc1153d9a" d="M 0 0 
L -3.5 0 
" style="stroke: #000000; stroke-width: 0.8"/>
      </defs>
      <g>
       <use xlink:href="#m2fc1153d9a" x="62.57" y="241.59352" style="stroke: #000000; stroke-width: 0.8"/>
      </g>
     </g>
     <g id="text_10">
      <!-- −0.02 -->
      <g transform="translate(24.924688 245.392739) scale(0.1 -0.1)">
       <defs>
        <path id="DejaVuSans-2e" d="M 684 794 
L 1344 794 
L 1344 0 
L 684 0 
L 684 794 
z
" transform="scale(0.015625)"/>
       </defs>
       <use xlink:href="#DejaVuSans-2212"/>
       <use xlink:href="#DejaVuSans-30" x="83.789062"/>
       <use xlink:href="#DejaVuSans-2e" x="147.412109"/>
       <use xlink:href="#DejaVuSans-30" x="179.199219"/>
       <use xlink:href="#DejaVuSans-32" x="242.822266"/>
      </g>
     </g>
    </g>
    <g id="ytick_2">
     <g id="line2d_10">
      <g>
       <use xlink:href="#m2fc1153d9a" x="62.57" y="211.239309" style="stroke: #000000; stroke-width: 0.8"/>
      </g>
     </g>
     <g id="text_11">
      <!-- 0.00 -->
      <g transform="translate(33.304375 215.038528) scale(0.1 -0.1)">
       <use xlink:href="#DejaVuSans-30"/>
       <use xlink:href="#DejaVuSans-2e" x="63.623047"/>
       <use xlink:href="#DejaVuSans-30" x="95.410156"/>
       <use xlink:href="#DejaVuSans-30" x="159.033203"/>
      </g>
     </g>
    </g>
    <g id="ytick_3">
     <g id="line2d_11">
      <g>
       <use xlink:href="#m2fc1153d9a" x="62.57" y="180.885098" style="stroke: #000000; stroke-width: 0.8"/>
      </g>
     </g>
     <g id="text_12">
      <!-- 0.02 -->
      <g transform="translate(33.304375 184.684317) scale(0.1 -0.1)">
       <use xlink:href="#DejaVuSans-30"/>
       <use xlink:href="#DejaVuSans-2e" x="63.623047"/>
       <use xlink:href="#DejaVuSans-30" x="95.410156"/>
       <use xlink:href="#DejaVuSans-32" x="159.033203"/>
      </g>
     </g>
    </g>
    <g id="ytick_4">
     <g id="line2d_12">
      <g>
       <use xlink:href="#m2fc1153d9a" x="62.57" y="150.530887" style="stroke: #000000; stroke-width: 0.8"/>
      </g>
     </g>
     <g id="text_13">
      <!-- 0.04 -->
      <g transform="translate(33.304375 154.330106) scale(0.1 -0.1)">
       <use xlink:href="#DejaVuSans-30"/>
       <use xlink:href="#DejaVuSans-2e" x="63.623047"/>
       <use xlink:href="#DejaVuSans-30" x="95.410156"/>
       <use xlink:href="#DejaVuSans-34" x="159.033203"/>
      </g>
     </g>
    </g>
    <g id="ytick_5">
     <g id="line2d_13">
      <g>
       <use xlink:href="#m2fc1153d9a" x="62.57" y="120.176676" style="stroke: #000000; stroke-width: 0.8"/>
      </g>
     </g>
     <g id="text_14">
      <!-- 0.06 -->
      <g transform="translate(33.304375 123.975895) scale(0.1 -0.1)">
       <use xlink:href="#DejaVuSans-30"/>
       <use xlink:href="#DejaVuSans-2e" x="63.623047"/>
       <use xlink:href="#DejaVuSans-30" x="95.410156"/>
       <use xlink:href="#DejaVuSans-36" x="159.033203"/>
      </g>
     </g>
    </g>
    <g id="ytick_6">
     <g id="line2d_14">
      <g>
       <use xlink:href="#m2fc1153d9a" x="62.57" y="89.822465" style="stroke: #000000; stroke-width: 0.8"/>
      </g>
     </g>
     <g id="text_15">
      <!-- 0.08 -->
      <g transform="translate(33.304375 93.621684) scale(0.1 -0.1)">
       <use xlink:href="#DejaVuSans-30"/>
       <use xlink:href="#DejaVuSans-2e" x="63.623047"/>
       <use xlink:href="#DejaVuSans-30" x="95.410156"/>
       <use xlink:href="#DejaVuSans-38" x="159.033203"/>
      </g>
     </g>
    </g>
    <g id="ytick_7">
     <g id="line2d_15">
      <g>
       <use xlink:href="#m2fc1153d9a" x="62.57" y="59.468254" style="stroke: #000000; stroke-width: 0.8"/>
      </g>
     </g>
     <g id="text_16">
      <!-- 0.10 -->
      <g transform="translate(33.304375 63.267473) scale(0.1 -0.1)">
       <use xlink:href="#DejaVuSans-30"/>
       <use xlink:href="#DejaVuSans-2e" x="63.623047"/>
       <use xlink:href="#DejaVuSans-31" x="95.410156"/>
       <use xlink:href="#DejaVuSans-30" x="159.033203"/>
      </g>
     </g>
    </g>
    <g id="ytick_8">
     <g id="line2d_16">
      <g>
       <use xlink:href="#m2fc1153d9a" x="62.57" y="29.114043" style="stroke: #000000; stroke-width: 0.8"/>
      </g>
     </g>
     <g id="text_17">
      <!-- 0.12 -->
      <g transform="translate(33.304375 32.913262) scale(0.1 -0.1)">
       <use xlink:href="#DejaVuSans-30"/>
       <use xlink:href="#DejaVuSans-2e" x="63.623047"/>
       <use xlink:href="#DejaVuSans-31" x="95.410156"/>
       <use xlink:href="#DejaVuSans-32" x="159.033203"/>
      </g>
     </g>
    </g>
    <g id="text_18">
     <!-- Slope -->
     <g transform="translate(18.845 142.293438) rotate(-90) scale(0.1 -0.1)">
      <defs>
       <path id="DejaVuSans-53" d="M 3425 4513 
L 3425 3897 
Q 3066 4069 2747 4153 
Q 2428 4238 2131 4238 
Q 1616 4238 1336 4038 
Q 1056 3838 1056 3469 
Q 1056 3159 1242 3001 
Q 1428 2844 1947 2747 
L 2328 2669 
Q 3034 2534 3370 2195 
Q 3706 1856 3706 1288 
Q 3706 609 3251 259 
Q 2797 -91 1919 -91 
Q 1588 -91 1214 -16 
Q 841 59 441 206 
L 441 856 
Q 825 641 1194 531 
Q 1563 422 1919 422 
Q 2459 422 2753 634 
Q 3047 847 3047 1241 
Q 3047 1584 2836 1778 
Q 2625 1972 2144 2069 
L 1759 2144 
Q 1053 2284 737 2584 
Q 422 2884 422 3419 
Q 422 4038 858 4394 
Q 1294 4750 2059 4750 
Q 2388 4750 2728 4690 
Q 3069 4631 3425 4513 
z
" transform="scale(0.015625)"/>
       <path id="DejaVuSans-6c" d="M 603 4863 
L 1178 4863 
L 1178 0 
L 603 0 
L 603 4863 
z
" transform="scale(0.015625)"/>
       <path id="DejaVuSans-6f" d="M 1959 3097 
Q 1497 3097 1228 2736 
Q 959 2375 959 1747 
Q 959 1119 1226 758 
Q 1494 397 1959 397 
Q 2419 397 2687 759 
Q 2956 1122 2956 1747 
Q 2956 2369 2687 2733 
Q 2419 3097 1959 3097 
z
M 1959 3584 
Q 2709 3584 3137 3096 
Q 3566 2609 3566 1747 
Q 3566 888 3137 398 
Q 2709 -91 1959 -91 
Q 1206 -91 779 398 
Q 353 888 353 1747 
Q 353 2609 779 3096 
Q 1206 3584 1959 3584 
z
" transform="scale(0.015625)"/>
       <path id="DejaVuSans-70" d="M 1159 525 
L 1159 -1331 
L 581 -1331 
L 581 3500 
L 1159 3500 
L 1159 2969 
Q 1341 3281 1617 3432 
Q 1894 3584 2278 3584 
Q 2916 3584 3314 3078 
Q 3713 2572 3713 1747 
Q 3713 922 3314 415 
Q 2916 -91 2278 -91 
Q 1894 -91 1617 61 
Q 1341 213 1159 525 
z
M 3116 1747 
Q 3116 2381 2855 2742 
Q 2594 3103 2138 3103 
Q 1681 3103 1420 2742 
Q 1159 2381 1159 1747 
Q 1159 1113 1420 752 
Q 1681 391 2138 391 
Q 2594 391 2855 752 
Q 3116 1113 3116 1747 
z
" transform="scale(0.015625)"/>
      </defs>
      <use xlink:href="#DejaVuSans-53"/>
      <use xlink:href="#DejaVuSans-6c" x="63.476562"/>
      <use xlink:href="#DejaVuSans-6f" x="91.259766"/>
      <use xlink:href="#DejaVuSans-70" x="152.441406"/>
      <use xlink:href="#DejaVuSans-65" x="215.917969"/>
     </g>
    </g>
   </g>
   <g id="line2d_17">
    <path d="M 85.416818 214.35048 
L 92.907578 213.493535 
L 100.398338 209.691103 
L 107.889098 208.797485 
L 115.379858 211.240891 
L 122.870618 213.837241 
L 130.361379 214.23112 
L 137.852139 213.737182 
L 145.342899 212.429518 
L 152.833659 211.713103 
L 160.324419 210.831229 
L 167.815179 199.838532 
L 175.305939 178.392533 
L 182.796699 151.239995 
L 190.287459 122.156274 
L 197.778219 98.180015 
L 205.268979 80.048867 
L 212.759739 69.036169 
L 220.250499 67.017192 
L 227.741259 69.624725 
L 235.232019 72.749923 
L 242.722779 72.883222 
L 250.213539 74.040481 
L 257.7043 79.027658 
L 265.19506 83.244723 
L 272.68582 86.754777 
L 280.17658 86.870524 
L 287.66734 84.114743 
L 295.1581 83.14316 
L 302.64886 80.681017 
L 310.13962 75.714163 
L 317.63038 72.574312 
L 325.12114 71.237989 
L 332.6119 72.369139 
L 340.10266 72.444489 
L 347.59342 73.499961 
L 355.08418 74.764264 
L 362.57494 74.523918 
L 370.0657 76.709815 
L 377.556461 83.702484 
L 385.047221 93.602129 
L 392.537981 102.650489 
L 400.028741 110.971695 
L 407.519501 117.484959 
L 415.010261 124.555886 
L 422.501021 129.888777 
L 429.991781 134.778135 
L 437.482541 140.016958 
L 444.973301 146.726753 
L 452.464061 150.365711 
L 459.954821 151.221476 
L 467.445581 149.020474 
L 474.936341 147.826188 
L 482.427101 150.146482 
L 489.917861 152.036739 
L 497.408621 153.821458 
L 504.899382 152.663018 
L 512.390142 155.076717 
L 519.880902 159.922332 
L 527.371662 165.050318 
L 534.862422 169.176395 
L 542.353182 174.214669 
" clip-path="url(#pca0c5beb9c)" style="fill: none; stroke: #00ced1; stroke-width: 1.5; stroke-linecap: square"/>
   </g>
   <g id="line2d_18">
    <path d="M 85.416818 210.628359 
L 92.907578 217.8605 
L 100.398338 220.397076 
L 107.889098 217.051248 
L 115.379858 213.844666 
L 122.870618 210.895604 
L 130.361379 208.917021 
L 137.852139 207.204923 
L 145.342899 203.90482 
L 152.833659 202.450719 
L 160.324419 199.970418 
L 167.815179 195.656849 
L 175.305939 194.361372 
L 182.796699 196.949004 
L 190.287459 202.568935 
L 197.778219 208.22894 
L 205.268979 210.312592 
L 212.759739 206.492706 
L 220.250499 200.389624 
L 227.741259 196.718913 
L 235.232019 192.18701 
L 242.722779 188.278057 
L 250.213539 182.548932 
L 257.7043 177.945357 
L 265.19506 177.024522 
L 272.68582 178.796211 
L 280.17658 181.540271 
L 287.66734 183.968154 
L 295.1581 188.227247 
L 302.64886 193.079534 
L 310.13962 196.579931 
L 317.63038 197.946871 
L 325.12114 198.753857 
L 332.6119 200.401575 
L 340.10266 201.882191 
L 347.59342 201.827152 
L 355.08418 200.290904 
L 362.57494 203.956442 
L 370.0657 212.023697 
L 377.556461 214.160386 
L 385.047221 209.60255 
L 392.537981 206.766682 
L 400.028741 206.122381 
L 407.519501 207.044554 
L 415.010261 207.031656 
L 422.501021 204.528107 
L 429.991781 202.958095 
L 437.482541 205.526692 
L 444.973301 207.485681 
L 452.464061 209.25044 
L 459.954821 211.834811 
L 467.445581 210.440858 
L 474.936341 209.730107 
L 482.427101 208.535517 
L 489.917861 207.563139 
L 497.408621 207.844479 
L 504.899382 210.147324 
L 512.390142 209.919715 
L 519.880902 206.192928 
L 527.371662 202.515322 
L 534.862422 200.997009 
L 542.353182 200.94664 
" clip-path="url(#pca0c5beb9c)" style="fill: none; stroke-dasharray: 6,2.25; stroke-dashoffset: 0; stroke: #00ced1; stroke-width: 1.5"/>
   </g>
   <g id="line2d_19">
    <path d="M 85.416818 204.247401 
L 92.907578 208.309628 
L 100.398338 210.891822 
L 107.889098 208.584396 
L 115.379858 207.376027 
L 122.870618 209.093023 
L 130.361379 210.75327 
L 137.852139 209.757034 
L 145.342899 208.065932 
L 152.833659 205.67935 
L 160.324419 203.621302 
L 167.815179 200.763746 
L 175.305939 191.531498 
L 182.796699 175.702205 
L 190.287459 159.399144 
L 197.778219 147.83255 
L 205.268979 140.192555 
L 212.759739 134.648578 
L 220.250499 132.403007 
L 227.741259 135.496246 
L 235.232019 144.525105 
L 242.722779 152.715507 
L 250.213539 159.009834 
L 257.7043 159.137644 
L 265.19506 158.802236 
L 272.68582 155.920802 
L 280.17658 150.811402 
L 287.66734 148.831154 
L 295.1581 148.739221 
L 302.64886 148.31889 
L 310.13962 147.03995 
L 317.63038 148.200722 
L 325.12114 148.112651 
L 332.6119 147.237802 
L 340.10266 146.805939 
L 347.59342 144.248748 
L 355.08418 141.772315 
L 362.57494 141.256497 
L 370.0657 144.117415 
L 377.556461 148.72763 
L 385.047221 153.235894 
L 392.537981 154.65778 
L 400.028741 156.58397 
L 407.519501 159.480325 
L 415.010261 163.6914 
L 422.501021 166.780942 
L 429.991781 167.09284 
L 437.482541 164.575926 
L 444.973301 162.93791 
L 452.464061 164.63981 
L 459.954821 167.637269 
L 467.445581 168.492084 
L 474.936341 168.704159 
L 482.427101 170.466276 
L 489.917861 172.541359 
L 497.408621 173.876257 
L 504.899382 173.179386 
L 512.390142 172.198317 
L 519.880902 173.056615 
L 527.371662 175.456853 
L 534.862422 179.053311 
L 542.353182 182.91389 
" clip-path="url(#pca0c5beb9c)" style="fill: none; stroke: #d2691e; stroke-width: 1.5; stroke-linecap: square"/>
   </g>
   <g id="line2d_20">
    <path d="M 85.416818 221.43248 
L 92.907578 218.938939 
L 100.398338 213.069816 
L 107.889098 207.623246 
L 115.379858 205.180263 
L 122.870618 201.989619 
L 130.361379 199.69346 
L 137.852139 200.219203 
L 145.342899 202.054652 
L 152.833659 204.168358 
L 160.324419 203.910962 
L 167.815179 201.46388 
L 175.305939 201.406128 
L 182.796699 203.025464 
L 190.287459 207.185077 
L 197.778219 208.529704 
L 205.268979 203.601037 
L 212.759739 200.658254 
L 220.250499 201.307058 
L 227.741259 201.849347 
L 235.232019 201.626615 
L 242.722779 199.371608 
L 250.213539 194.265807 
L 257.7043 191.242765 
L 265.19506 192.511154 
L 272.68582 194.763268 
L 280.17658 196.034503 
L 287.66734 196.988563 
L 295.1581 195.991902 
L 302.64886 198.842051 
L 310.13962 202.578111 
L 317.63038 208.451033 
L 325.12114 211.622189 
L 332.6119 211.303291 
L 340.10266 207.814458 
L 347.59342 202.208129 
L 355.08418 197.829646 
L 362.57494 197.390188 
L 370.0657 196.856008 
L 377.556461 195.269674 
L 385.047221 192.926446 
L 392.537981 192.589933 
L 400.028741 195.303014 
L 407.519501 200.851206 
L 415.010261 203.271512 
L 422.501021 201.617286 
L 429.991781 200.258048 
L 437.482541 200.411375 
L 444.973301 202.685185 
L 452.464061 208.396541 
L 459.954821 212.028617 
L 467.445581 208.774689 
L 474.936341 205.408512 
L 482.427101 202.964583 
L 489.917861 202.825405 
L 497.408621 203.004342 
L 504.899382 201.607223 
L 512.390142 201.983057 
L 519.880902 203.33705 
L 527.371662 203.526105 
L 534.862422 204.464228 
L 542.353182 204.646979 
" clip-path="url(#pca0c5beb9c)" style="fill: none; stroke-dasharray: 6,2.25; stroke-dashoffset: 0; stroke: #d2691e; stroke-width: 1.5"/>
   </g>
   <g id="line2d_21"/>
   <g id="line2d_22"/>
   <g id="line2d_23"/>
   <g id="line2d_24"/>
   <g id="line2d_25">
    <path d="M 62.57 211.239309 
L 565.2 211.239309 
" clip-path="url(#pca0c5beb9c)" style="fill: none; stroke-dasharray: 11.1,4.8; stroke-dashoffset: 0; stroke: #000000; stroke-width: 3"/>
   </g>
   <g id="patch_3">
    <path d="M 62.57 246.04 
L 62.57 10.8 
" style="fill: none; stroke: #000000; stroke-width: 0.8; stroke-linejoin: miter; stroke-linecap: square"/>
   </g>
   <g id="patch_4">
    <path d="M 565.2 246.04 
L 565.2 10.8 
" style="fill: none; stroke: #000000; stroke-width: 0.8; stroke-linejoin: miter; stroke-linecap: square"/>
   </g>
   <g id="patch_5">
    <path d="M 62.57 246.04 
L 565.2 246.04 
" style="fill: none; stroke: #000000; stroke-width: 0.8; stroke-linejoin: miter; stroke-linecap: square"/>
   </g>
   <g id="patch_6">
    <path d="M 62.57 10.8 
L 565.2 10.8 
" style="fill: none; stroke: #000000; stroke-width: 0.8; stroke-linejoin: miter; stroke-linecap: square"/>
   </g>
   <g id="legend_1">
    <g id="patch_7">
     <path d="M 479.096875 107.146875 
L 558.2 107.146875 
Q 560.2 107.146875 560.2 105.146875 
L 560.2 17.8 
Q 560.2 15.8 558.2 15.8 
L 479.096875 15.8 
Q 477.096875 15.8 477.096875 17.8 
L 477.096875 105.146875 
Q 477.096875 107.146875 479.096875 107.146875 
z
" style="fill: #ffffff; opacity: 0.8; stroke: #cccccc; stroke-linejoin: miter"/>
    </g>
    <g id="text_19">
     <!-- condition -->
     <g transform="translate(489.096875 27.398438) scale(0.1 -0.1)">
      <defs>
       <path id="DejaVuSans-63" d="M 3122 3366 
L 3122 2828 
Q 2878 2963 2633 3030 
Q 2388 3097 2138 3097 
Q 1578 3097 1268 2742 
Q 959 2388 959 1747 
Q 959 1106 1268 751 
Q 1578 397 2138 397 
Q 2388 397 2633 464 
Q 2878 531 3122 666 
L 3122 134 
Q 2881 22 2623 -34 
Q 2366 -91 2075 -91 
Q 1284 -91 818 406 
Q 353 903 353 1747 
Q 353 2603 823 3093 
Q 1294 3584 2113 3584 
Q 2378 3584 2631 3529 
Q 2884 3475 3122 3366 
z
" transform="scale(0.015625)"/>
       <path id="DejaVuSans-6e" d="M 3513 2113 
L 3513 0 
L 2938 0 
L 2938 2094 
Q 2938 2591 2744 2837 
Q 2550 3084 2163 3084 
Q 1697 3084 1428 2787 
Q 1159 2491 1159 1978 
L 1159 0 
L 581 0 
L 581 3500 
L 1159 3500 
L 1159 2956 
Q 1366 3272 1645 3428 
Q 1925 3584 2291 3584 
Q 2894 3584 3203 3211 
Q 3513 2838 3513 2113 
z
" transform="scale(0.015625)"/>
       <path id="DejaVuSans-64" d="M 2906 2969 
L 2906 4863 
L 3481 4863 
L 3481 0 
L 2906 0 
L 2906 525 
Q 2725 213 2448 61 
Q 2172 -91 1784 -91 
Q 1150 -91 751 415 
Q 353 922 353 1747 
Q 353 2572 751 3078 
Q 1150 3584 1784 3584 
Q 2172 3584 2448 3432 
Q 2725 3281 2906 2969 
z
M 947 1747 
Q 947 1113 1208 752 
Q 1469 391 1925 391 
Q 2381 391 2643 752 
Q 2906 1113 2906 1747 
Q 2906 2381 2643 2742 
Q 2381 3103 1925 3103 
Q 1469 3103 1208 2742 
Q 947 2381 947 1747 
z
" transform="scale(0.015625)"/>
      </defs>
      <use xlink:href="#DejaVuSans-63"/>
      <use xlink:href="#DejaVuSans-6f" x="54.980469"/>
      <use xlink:href="#DejaVuSans-6e" x="116.162109"/>
      <use xlink:href="#DejaVuSans-64" x="179.541016"/>
      <use xlink:href="#DejaVuSans-69" x="243.017578"/>
      <use xlink:href="#DejaVuSans-74" x="270.800781"/>
      <use xlink:href="#DejaVuSans-69" x="310.009766"/>
      <use xlink:href="#DejaVuSans-6f" x="337.792969"/>
      <use xlink:href="#DejaVuSans-6e" x="398.974609"/>
     </g>
    </g>
    <g id="line2d_26">
     <path d="M 481.096875 38.576562 
L 491.096875 38.576562 
L 501.096875 38.576562 
" style="fill: none; stroke: #00ced1; stroke-width: 1.5; stroke-linecap: square"/>
    </g>
    <g id="text_20">
     <!-- SS1 -->
     <g transform="translate(509.096875 42.076562) scale(0.1 -0.1)">
      <use xlink:href="#DejaVuSans-53"/>
      <use xlink:href="#DejaVuSans-53" x="63.476562"/>
      <use xlink:href="#DejaVuSans-31" x="126.953125"/>
     </g>
    </g>
    <g id="line2d_27">
     <path d="M 481.096875 53.254687 
L 491.096875 53.254687 
L 501.096875 53.254687 
" style="fill: none; stroke: #d2691e; stroke-width: 1.5; stroke-linecap: square"/>
    </g>
    <g id="text_21">
     <!-- SS2 -->
     <g transform="translate(509.096875 56.754687) scale(0.1 -0.1)">
      <use xlink:href="#DejaVuSans-53"/>
      <use xlink:href="#DejaVuSans-53" x="63.476562"/>
      <use xlink:href="#DejaVuSans-32" x="126.953125"/>
     </g>
    </g>
    <g id="text_22">
     <!-- location -->
     <g transform="translate(489.096875 71.432813) scale(0.1 -0.1)">
      <defs>
       <path id="DejaVuSans-61" d="M 2194 1759 
Q 1497 1759 1228 1600 
Q 959 1441 959 1056 
Q 959 750 1161 570 
Q 1363 391 1709 391 
Q 2188 391 2477 730 
Q 2766 1069 2766 1631 
L 2766 1759 
L 2194 1759 
z
M 3341 1997 
L 3341 0 
L 2766 0 
L 2766 531 
Q 2569 213 2275 61 
Q 1981 -91 1556 -91 
Q 1019 -91 701 211 
Q 384 513 384 1019 
Q 384 1609 779 1909 
Q 1175 2209 1959 2209 
L 2766 2209 
L 2766 2266 
Q 2766 2663 2505 2880 
Q 2244 3097 1772 3097 
Q 1472 3097 1187 3025 
Q 903 2953 641 2809 
L 641 3341 
Q 956 3463 1253 3523 
Q 1550 3584 1831 3584 
Q 2591 3584 2966 3190 
Q 3341 2797 3341 1997 
z
" transform="scale(0.015625)"/>
      </defs>
      <use xlink:href="#DejaVuSans-6c"/>
      <use xlink:href="#DejaVuSans-6f" x="27.783203"/>
      <use xlink:href="#DejaVuSans-63" x="88.964844"/>
      <use xlink:href="#DejaVuSans-61" x="143.945312"/>
      <use xlink:href="#DejaVuSans-74" x="205.224609"/>
      <use xlink:href="#DejaVuSans-69" x="244.433594"/>
      <use xlink:href="#DejaVuSans-6f" x="272.216797"/>
      <use xlink:href="#DejaVuSans-6e" x="333.398438"/>
     </g>
    </g>
    <g id="line2d_28">
     <path d="M 481.096875 82.610938 
L 491.096875 82.610938 
L 501.096875 82.610938 
" style="fill: none; stroke: #333333; stroke-width: 1.5; stroke-linecap: square"/>
    </g>
    <g id="text_23">
     <!-- target -->
     <g transform="translate(509.096875 86.110938) scale(0.1 -0.1)">
      <defs>
       <path id="DejaVuSans-72" d="M 2631 2963 
Q 2534 3019 2420 3045 
Q 2306 3072 2169 3072 
Q 1681 3072 1420 2755 
Q 1159 2438 1159 1844 
L 1159 0 
L 581 0 
L 581 3500 
L 1159 3500 
L 1159 2956 
Q 1341 3275 1631 3429 
Q 1922 3584 2338 3584 
Q 2397 3584 2469 3576 
Q 2541 3569 2628 3553 
L 2631 2963 
z
" transform="scale(0.015625)"/>
       <path id="DejaVuSans-67" d="M 2906 1791 
Q 2906 2416 2648 2759 
Q 2391 3103 1925 3103 
Q 1463 3103 1205 2759 
Q 947 2416 947 1791 
Q 947 1169 1205 825 
Q 1463 481 1925 481 
Q 2391 481 2648 825 
Q 2906 1169 2906 1791 
z
M 3481 434 
Q 3481 -459 3084 -895 
Q 2688 -1331 1869 -1331 
Q 1566 -1331 1297 -1286 
Q 1028 -1241 775 -1147 
L 775 -588 
Q 1028 -725 1275 -790 
Q 1522 -856 1778 -856 
Q 2344 -856 2625 -561 
Q 2906 -266 2906 331 
L 2906 616 
Q 2728 306 2450 153 
Q 2172 0 1784 0 
Q 1141 0 747 490 
Q 353 981 353 1791 
Q 353 2603 747 3093 
Q 1141 3584 1784 3584 
Q 2172 3584 2450 3431 
Q 2728 3278 2906 2969 
L 2906 3500 
L 3481 3500 
L 3481 434 
z
" transform="scale(0.015625)"/>
      </defs>
      <use xlink:href="#DejaVuSans-74"/>
      <use xlink:href="#DejaVuSans-61" x="39.208984"/>
      <use xlink:href="#DejaVuSans-72" x="100.488281"/>
      <use xlink:href="#DejaVuSans-67" x="139.851562"/>
      <use xlink:href="#DejaVuSans-65" x="203.328125"/>
      <use xlink:href="#DejaVuSans-74" x="264.851562"/>
     </g>
    </g>
    <g id="line2d_29">
     <path d="M 481.096875 97.289062 
L 491.096875 97.289062 
L 501.096875 97.289062 
" style="fill: none; stroke-dasharray: 6,2.25; stroke-dashoffset: 0; stroke: #333333; stroke-width: 1.5"/>
    </g>
    <g id="text_24">
     <!-- eye_gaze -->
     <g transform="translate(509.096875 100.789062) scale(0.1 -0.1)">
      <defs>
       <path id="DejaVuSans-79" d="M 2059 -325 
Q 1816 -950 1584 -1140 
Q 1353 -1331 966 -1331 
L 506 -1331 
L 506 -850 
L 844 -850 
Q 1081 -850 1212 -737 
Q 1344 -625 1503 -206 
L 1606 56 
L 191 3500 
L 800 3500 
L 1894 763 
L 2988 3500 
L 3597 3500 
L 2059 -325 
z
" transform="scale(0.015625)"/>
       <path id="DejaVuSans-5f" d="M 3263 -1063 
L 3263 -1509 
L -63 -1509 
L -63 -1063 
L 3263 -1063 
z
" transform="scale(0.015625)"/>
       <path id="DejaVuSans-7a" d="M 353 3500 
L 3084 3500 
L 3084 2975 
L 922 459 
L 3084 459 
L 3084 0 
L 275 0 
L 275 525 
L 2438 3041 
L 353 3041 
L 353 3500 
z
" transform="scale(0.015625)"/>
      </defs>
      <use xlink:href="#DejaVuSans-65"/>
      <use xlink:href="#DejaVuSans-79" x="61.523438"/>
      <use xlink:href="#DejaVuSans-65" x="120.703125"/>
      <use xlink:href="#DejaVuSans-5f" x="182.226562"/>
      <use xlink:href="#DejaVuSans-67" x="232.226562"/>
      <use xlink:href="#DejaVuSans-61" x="295.703125"/>
      <use xlink:href="#DejaVuSans-7a" x="356.982422"/>
      <use xlink:href="#DejaVuSans-65" x="409.472656"/>
     </g>
    </g>
   </g>
  </g>
 </g>
 <defs>
  <clipPath id="pca0c5beb9c">
   <rect x="62.57" y="10.8" width="502.63" height="235.24"/>
  </clipPath>
 </defs>
</svg>
