<?xml version="1.0" encoding="utf-8" standalone="no"?>
<!DOCTYPE svg PUBLIC "-//W3C//DTD SVG 1.1//EN"
  "http://www.w3.org/Graphics/SVG/1.1/DTD/svg11.dtd">
<svg xmlns:xlink="http://www.w3.org/1999/xlink" width="576pt" height="288pt" viewBox="0 0 576 288" xmlns="http://www.w3.org/2000/svg" version="1.1">
 <metadata>
  <rdf:RDF xmlns:dc="http://purl.org/dc/elements/1.1/" xmlns:cc="http://creativecommons.org/ns#" xmlns:rdf="http://www.w3.org/1999/02/22-rdf-syntax-ns#">
   <cc:Work>
    <dc:type rdf:resource="http://purl.org/dc/dcmitype/StillImage"/>
    <dc:date>2024-01-29T14:47:44.783858</dc:date>
    <dc:format>image/svg+xml</dc:format>
    <dc:creator>
     <cc:Agent>
      <dc:title>Matplotlib v3.7.1, https://matplotlib.org/</dc:title>
     </cc:Agent>
    </dc:creator>
   </cc:Work>
  </rdf:RDF>
 </metadata>
 <defs>
  <style type="text/css">*{stroke-linejoin: round; stroke-linecap: butt}</style>
 </defs>
 <g id="figure_1">
  <g id="patch_1">
   <path d="M 0 288 
L 576 288 
L 576 0 
L 0 0 
z
" style="fill: #ffffff"/>
  </g>
  <g id="axes_1">
   <g id="patch_2">
    <path d="M 54.2 246.04 
L 565.2 246.04 
L 565.2 10.8 
L 54.2 10.8 
z
" style="fill: #ffffff"/>
   </g>
   <g id="PolyCollection_1">
    <defs>
     <path id="m9f578b8562" d="M 77.427273 -84.050393 
L 77.427273 -56.97094 
L 85.042772 -55.607343 
L 92.658271 -60.609577 
L 100.27377 -64.666592 
L 107.88927 -63.604939 
L 115.504769 -56.749567 
L 123.120268 -55.089155 
L 130.735768 -54.477325 
L 138.351267 -55.170215 
L 145.966766 -56.08831 
L 153.582265 -57.71105 
L 161.197765 -63.63231 
L 168.813264 -78.803052 
L 176.428763 -104.610482 
L 184.044262 -131.877851 
L 191.659762 -152.949089 
L 199.275261 -171.541109 
L 206.89076 -181.65453 
L 214.506259 -187.360158 
L 222.121759 -181.11654 
L 229.737258 -172.273572 
L 237.352757 -170.067978 
L 244.968256 -163.893193 
L 252.583756 -163.815911 
L 260.199255 -164.491246 
L 267.814754 -161.244293 
L 275.430253 -166.179025 
L 283.045753 -165.217801 
L 290.661252 -166.076468 
L 298.276751 -170.289089 
L 305.89225 -171.558672 
L 313.50775 -173.072852 
L 321.123249 -171.82217 
L 328.738748 -172.395709 
L 336.354247 -174.421886 
L 343.969747 -168.457031 
L 351.585246 -163.053924 
L 359.200745 -162.057453 
L 366.816244 -156.925028 
L 374.431744 -155.721331 
L 382.047243 -153.948151 
L 389.662742 -143.544031 
L 397.278241 -142.266558 
L 404.893741 -135.661399 
L 412.50924 -126.775409 
L 420.124739 -120.936668 
L 427.740238 -115.902922 
L 435.355738 -108.748541 
L 442.971237 -103.587012 
L 450.586736 -99.593477 
L 458.202235 -101.873961 
L 465.817735 -103.870265 
L 473.433234 -104.637931 
L 481.048733 -103.74685 
L 488.664232 -101.075478 
L 496.279732 -98.799982 
L 503.895231 -102.255144 
L 511.51073 -101.365063 
L 519.12623 -95.445807 
L 526.741729 -92.996634 
L 534.357228 -91.171048 
L 541.972727 -90.535237 
L 541.972727 -133.805294 
L 541.972727 -133.805294 
L 534.357228 -143.767124 
L 526.741729 -148.118972 
L 519.12623 -154.115459 
L 511.51073 -157.081903 
L 503.895231 -159.004295 
L 496.279732 -159.067185 
L 488.664232 -164.203635 
L 481.048733 -170.509045 
L 473.433234 -176.926544 
L 465.817735 -174.92592 
L 458.202235 -177.506771 
L 450.586736 -176.913933 
L 442.971237 -178.429007 
L 435.355738 -188.647695 
L 427.740238 -193.195169 
L 420.124739 -200.50644 
L 412.50924 -207.336098 
L 404.893741 -216.724478 
L 397.278241 -224.109042 
L 389.662742 -232.127655 
L 382.047243 -242.332683 
L 374.431744 -243.690386 
L 366.816244 -251.035333 
L 359.200745 -256.136313 
L 351.585246 -262.489373 
L 343.969747 -267.337041 
L 336.354247 -270.708912 
L 328.738748 -274.003536 
L 321.123249 -271.659264 
L 313.50775 -266.635614 
L 305.89225 -262.028663 
L 298.276751 -254.064183 
L 290.661252 -244.224682 
L 283.045753 -248.670489 
L 275.430253 -240.382464 
L 267.814754 -239.234701 
L 260.199255 -244.781278 
L 252.583756 -242.096506 
L 244.968256 -244.716311 
L 237.352757 -245.288875 
L 229.737258 -249.436744 
L 222.121759 -248.791563 
L 214.506259 -251.447647 
L 206.89076 -244.637526 
L 199.275261 -230.454384 
L 191.659762 -212.378317 
L 184.044262 -177.818246 
L 176.428763 -146.225154 
L 168.813264 -116.857506 
L 161.197765 -92.936806 
L 153.582265 -78.684089 
L 145.966766 -76.93992 
L 138.351267 -77.682896 
L 130.735768 -78.751827 
L 123.120268 -83.320957 
L 115.504769 -84.244963 
L 107.88927 -85.937407 
L 100.27377 -88.695349 
L 92.658271 -89.908463 
L 85.042772 -87.000354 
L 77.427273 -84.050393 
z
" style="stroke: #00ced1; stroke-opacity: 0.2"/>
    </defs>
    <g clip-path="url(#p706f2c26b5)">
     <use xlink:href="#m9f578b8562" x="0" y="288" style="fill: #00ced1; fill-opacity: 0.2; stroke: #00ced1; stroke-opacity: 0.2"/>
    </g>
   </g>
   <g id="PolyCollection_2">
    <defs>
     <path id="m362cce6425" d="M 77.427273 -89.168094 
L 77.427273 -57.33198 
L 85.042772 -48.889627 
L 92.658271 -45.596363 
L 100.27377 -51.701625 
L 107.88927 -54.020292 
L 115.504769 -58.289681 
L 123.120268 -59.798729 
L 130.735768 -62.538318 
L 138.351267 -63.690549 
L 145.966766 -66.735811 
L 153.582265 -66.953669 
L 161.197765 -70.128596 
L 168.813264 -72.933863 
L 176.428763 -72.86611 
L 184.044262 -69.242862 
L 191.659762 -65.175817 
L 199.275261 -61.89776 
L 206.89076 -60.38552 
L 214.506259 -62.177606 
L 222.121759 -63.144757 
L 229.737258 -70.191743 
L 237.352757 -75.525329 
L 244.968256 -80.556947 
L 252.583756 -83.607449 
L 260.199255 -83.36226 
L 267.814754 -85.359913 
L 275.430253 -85.176079 
L 283.045753 -83.768362 
L 290.661252 -77.762099 
L 298.276751 -68.922172 
L 305.89225 -63.249636 
L 313.50775 -63.490103 
L 321.123249 -67.59418 
L 328.738748 -66.250242 
L 336.354247 -64.759443 
L 343.969747 -63.918303 
L 351.585246 -61.254576 
L 359.200745 -55.414799 
L 366.816244 -47.153153 
L 374.431744 -50.872955 
L 382.047243 -58.417048 
L 389.662742 -62.205722 
L 397.278241 -58.969083 
L 404.893741 -55.375798 
L 412.50924 -53.61257 
L 420.124739 -54.377652 
L 427.740238 -57.316465 
L 435.355738 -58.072923 
L 442.971237 -56.069288 
L 450.586736 -52.774936 
L 458.202235 -51.813411 
L 465.817735 -53.297273 
L 473.433234 -53.512107 
L 481.048733 -55.564327 
L 488.664232 -58.72906 
L 496.279732 -59.080941 
L 503.895231 -56.240134 
L 511.51073 -53.18583 
L 519.12623 -55.009755 
L 526.741729 -57.766457 
L 534.357228 -61.162108 
L 541.972727 -66.008512 
L 541.972727 -87.391961 
L 541.972727 -87.391961 
L 534.357228 -92.965853 
L 526.741729 -94.039925 
L 519.12623 -88.430661 
L 511.51073 -85.054437 
L 503.895231 -82.238833 
L 496.279732 -81.84895 
L 488.664232 -81.564303 
L 481.048733 -82.301475 
L 473.433234 -82.751195 
L 465.817735 -85.67877 
L 458.202235 -83.704532 
L 450.586736 -80.337912 
L 442.971237 -76.030045 
L 435.355738 -76.436543 
L 427.740238 -79.755637 
L 420.124739 -79.256139 
L 412.50924 -77.719047 
L 404.893741 -81.571833 
L 397.278241 -87.494472 
L 389.662742 -91.751347 
L 382.047243 -92.516903 
L 374.431744 -90.417169 
L 366.816244 -93.819576 
L 359.200745 -101.005237 
L 351.585246 -103.267982 
L 343.969747 -102.727923 
L 336.354247 -102.095538 
L 328.738748 -102.660886 
L 321.123249 -101.548818 
L 313.50775 -100.628956 
L 305.89225 -103.224999 
L 298.276751 -106.182038 
L 290.661252 -109.815786 
L 283.045753 -113.27857 
L 275.430253 -122.730318 
L 267.814754 -128.590156 
L 260.199255 -134.106489 
L 252.583756 -132.696076 
L 244.968256 -122.024007 
L 237.352757 -112.552698 
L 229.737258 -105.28181 
L 222.121759 -102.112284 
L 214.506259 -95.55822 
L 206.89076 -88.335994 
L 199.275261 -83.808483 
L 191.659762 -85.857286 
L 184.044262 -90.619513 
L 176.428763 -95.460801 
L 168.813264 -102.687422 
L 161.197765 -102.606467 
L 153.582265 -98.252027 
L 145.966766 -96.286978 
L 138.351267 -97.510972 
L 130.735768 -95.360591 
L 123.120268 -96.148085 
L 115.504769 -93.889186 
L 107.88927 -90.02525 
L 100.27377 -85.654914 
L 92.658271 -82.077903 
L 85.042772 -81.348629 
L 77.427273 -89.168094 
z
" style="stroke: #00ced1; stroke-opacity: 0.2"/>
    </defs>
    <g clip-path="url(#p706f2c26b5)">
     <use xlink:href="#m362cce6425" x="0" y="288" style="fill: #00ced1; fill-opacity: 0.2; stroke: #00ced1; stroke-opacity: 0.2"/>
    </g>
   </g>
   <g id="PolyCollection_3">
    <defs>
     <path id="mc9747db650" d="M 77.427273 -87.179126 
L 77.427273 -70.887273 
L 85.042772 -66.952725 
L 92.658271 -60.879724 
L 100.27377 -61.159767 
L 107.88927 -64.801328 
L 115.504769 -60.728931 
L 123.120268 -60.238565 
L 130.735768 -62.64798 
L 138.351267 -63.965938 
L 145.966766 -65.841602 
L 153.582265 -68.352545 
L 161.197765 -71.679566 
L 168.813264 -76.507326 
L 176.428763 -90.165949 
L 184.044262 -107.90417 
L 191.659762 -119.508584 
L 199.275261 -125.491816 
L 206.89076 -127.433298 
L 214.506259 -132.889038 
L 222.121759 -128.934681 
L 229.737258 -118.794885 
L 237.352757 -109.891842 
L 244.968256 -105.007852 
L 252.583756 -105.747516 
L 260.199255 -107.697195 
L 267.814754 -111.971554 
L 275.430253 -118.000868 
L 283.045753 -120.525292 
L 290.661252 -116.75062 
L 298.276751 -116.85197 
L 305.89225 -119.908352 
L 313.50775 -116.771177 
L 321.123249 -116.269394 
L 328.738748 -114.83165 
L 336.354247 -115.694772 
L 343.969747 -117.956421 
L 351.585246 -119.93615 
L 359.200745 -120.329482 
L 366.816244 -117.01084 
L 374.431744 -112.224714 
L 382.047243 -109.526459 
L 389.662742 -110.891672 
L 397.278241 -111.842177 
L 404.893741 -107.051641 
L 412.50924 -104.54679 
L 420.124739 -101.443552 
L 427.740238 -97.596927 
L 435.355738 -98.768004 
L 442.971237 -102.02214 
L 450.586736 -100.244878 
L 458.202235 -96.253131 
L 465.817735 -99.141101 
L 473.433234 -98.06392 
L 481.048733 -91.989956 
L 488.664232 -87.676905 
L 496.279732 -89.022297 
L 503.895231 -91.022271 
L 511.51073 -92.179037 
L 519.12623 -89.577418 
L 526.741729 -86.853866 
L 534.357228 -86.598627 
L 541.972727 -83.434099 
L 541.972727 -116.32214 
L 541.972727 -116.32214 
L 534.357228 -120.365251 
L 526.741729 -126.314854 
L 519.12623 -130.54698 
L 511.51073 -133.70854 
L 503.895231 -132.281618 
L 496.279732 -132.042333 
L 488.664232 -133.130174 
L 481.048733 -136.423905 
L 473.433234 -140.595459 
L 465.817735 -140.824758 
L 458.202235 -145.173455 
L 450.586736 -143.945328 
L 442.971237 -144.720152 
L 435.355738 -144.420751 
L 427.740238 -146.54791 
L 420.124739 -147.609291 
L 412.50924 -151.61732 
L 404.893741 -153.515227 
L 397.278241 -156.16648 
L 389.662742 -155.250046 
L 382.047243 -155.237831 
L 374.431744 -160.347419 
L 366.816244 -162.371258 
L 359.200745 -165.674526 
L 351.585246 -165.848031 
L 343.969747 -165.011002 
L 336.354247 -162.75211 
L 328.738748 -159.286885 
L 321.123249 -159.76983 
L 313.50775 -162.121101 
L 305.89225 -159.839962 
L 298.276751 -157.268065 
L 290.661252 -157.330401 
L 283.045753 -156.177616 
L 275.430253 -152.145606 
L 267.814754 -145.880941 
L 260.199255 -141.854568 
L 252.583756 -141.57332 
L 244.968256 -142.711144 
L 237.352757 -146.711951 
L 229.737258 -153.796831 
L 222.121759 -162.605928 
L 214.506259 -165.665681 
L 206.89076 -166.348172 
L 199.275261 -160.625277 
L 191.659762 -154.802323 
L 184.044262 -139.438328 
L 176.428763 -120.335609 
L 168.813264 -102.81973 
L 161.197765 -90.833427 
L 153.582265 -87.224781 
L 145.966766 -85.278522 
L 138.351267 -82.987178 
L 130.735768 -81.811565 
L 123.120268 -82.882416 
L 115.504769 -84.429434 
L 107.88927 -86.598433 
L 100.27377 -85.432708 
L 92.658271 -82.684065 
L 85.042772 -83.80526 
L 77.427273 -87.179126 
z
" style="stroke: #d2691e; stroke-opacity: 0.2"/>
    </defs>
    <g clip-path="url(#p706f2c26b5)">
     <use xlink:href="#mc9747db650" x="0" y="288" style="fill: #d2691e; fill-opacity: 0.2; stroke: #d2691e; stroke-opacity: 0.2"/>
    </g>
   </g>
   <g id="PolyCollection_4">
    <defs>
     <path id="m63e3c0a11d" d="M 77.427273 -73.967279 
L 77.427273 -49.694562 
L 85.042772 -51.743292 
L 92.658271 -56.952119 
L 100.27377 -62.097026 
L 107.88927 -65.287559 
L 115.504769 -69.595118 
L 123.120268 -71.603498 
L 130.735768 -71.74873 
L 138.351267 -69.07266 
L 145.966766 -65.582467 
L 153.582265 -65.953043 
L 161.197765 -70.214492 
L 168.813264 -70.068281 
L 176.428763 -64.66621 
L 184.044262 -60.063126 
L 191.659762 -56.117748 
L 199.275261 -62.491219 
L 206.89076 -66.948078 
L 214.506259 -66.761185 
L 222.121759 -66.053286 
L 229.737258 -68.105546 
L 237.352757 -72.276383 
L 244.968256 -78.828665 
L 252.583756 -81.161863 
L 260.199255 -79.27307 
L 267.814754 -74.627054 
L 275.430253 -72.059323 
L 283.045753 -72.011874 
L 290.661252 -72.573024 
L 298.276751 -67.95543 
L 305.89225 -66.324537 
L 313.50775 -60.013813 
L 321.123249 -57.988534 
L 328.738748 -58.591467 
L 336.354247 -61.400746 
L 343.969747 -69.043421 
L 351.585246 -74.972165 
L 359.200745 -75.308524 
L 366.816244 -75.137409 
L 374.431744 -76.610298 
L 382.047243 -79.467974 
L 389.662742 -79.253012 
L 397.278241 -75.313778 
L 404.893741 -66.117034 
L 412.50924 -62.376423 
L 420.124739 -69.705248 
L 427.740238 -72.695998 
L 435.355738 -72.207545 
L 442.971237 -69.140286 
L 450.586736 -61.906647 
L 458.202235 -57.043543 
L 465.817735 -59.31897 
L 473.433234 -62.81282 
L 481.048733 -64.150329 
L 488.664232 -63.19066 
L 496.279732 -64.44173 
L 503.895231 -65.631114 
L 511.51073 -67.332433 
L 519.12623 -67.2111 
L 526.741729 -69.13844 
L 534.357228 -68.831414 
L 541.972727 -67.963277 
L 541.972727 -90.68767 
L 541.972727 -90.68767 
L 534.357228 -90.848885 
L 526.741729 -91.692577 
L 519.12623 -91.751141 
L 511.51073 -92.189116 
L 503.895231 -91.721927 
L 496.279732 -88.313509 
L 488.664232 -86.723237 
L 481.048733 -84.282184 
L 473.433234 -82.959047 
L 465.817735 -82.290647 
L 458.202235 -83.313555 
L 450.586736 -85.720706 
L 442.971237 -86.682481 
L 435.355738 -87.55169 
L 427.740238 -88.942807 
L 420.124739 -87.893223 
L 412.50924 -85.991185 
L 404.893741 -85.932682 
L 397.278241 -88.660182 
L 389.662742 -91.532014 
L 382.047243 -96.107844 
L 374.431744 -96.337505 
L 366.816244 -94.994253 
L 359.200745 -95.659987 
L 351.585246 -95.467836 
L 343.969747 -90.359466 
L 336.354247 -85.512691 
L 328.738748 -80.865282 
L 321.123249 -79.003773 
L 313.50775 -84.073951 
L 305.89225 -89.078853 
L 298.276751 -91.850852 
L 290.661252 -94.129403 
L 283.045753 -95.022465 
L 275.430253 -98.642967 
L 267.814754 -100.56222 
L 260.199255 -99.977927 
L 252.583756 -100.659697 
L 244.968256 -96.856674 
L 237.352757 -92.273558 
L 229.737258 -88.64181 
L 222.121759 -87.623432 
L 214.506259 -92.784409 
L 206.89076 -98.951132 
L 199.275261 -98.985205 
L 191.659762 -93.16528 
L 184.044262 -89.821334 
L 176.428763 -88.477626 
L 168.813264 -85.924326 
L 161.197765 -89.885963 
L 153.582265 -91.302791 
L 145.966766 -90.797498 
L 138.351267 -92.970954 
L 130.735768 -92.829895 
L 123.120268 -92.096353 
L 115.504769 -89.469587 
L 107.88927 -86.801834 
L 100.27377 -87.127992 
L 92.658271 -83.281906 
L 85.042772 -77.500284 
L 77.427273 -73.967279 
z
" style="stroke: #d2691e; stroke-opacity: 0.2"/>
    </defs>
    <g clip-path="url(#p706f2c26b5)">
     <use xlink:href="#m63e3c0a11d" x="0" y="288" style="fill: #d2691e; fill-opacity: 0.2; stroke: #d2691e; stroke-opacity: 0.2"/>
    </g>
   </g>
   <g id="matplotlib.axis_1">
    <g id="xtick_1">
     <g id="line2d_1">
      <defs>
       <path id="m4a897ae69b" d="M 0 0 
L 0 3.5 
" style="stroke: #000000; stroke-width: 0.8"/>
      </defs>
      <g>
       <use xlink:href="#m4a897ae69b" x="93.292896" y="246.04" style="stroke: #000000; stroke-width: 0.8"/>
      </g>
     </g>
     <g id="text_1">
      <text style="font: 10px 'DejaVu Sans', 'Bitstream Vera Sans', 'Computer Modern Sans Serif', 'Lucida Grande', 'Verdana', 'Geneva', 'Lucid', 'Arial', 'Helvetica', 'Avant Garde', sans-serif; text-anchor: middle" x="93.292896" y="260.638438" transform="rotate(-0 93.292896 260.638438)">−200</text>
     </g>
    </g>
    <g id="xtick_2">
     <g id="line2d_2">
      <g>
       <use xlink:href="#m4a897ae69b" x="156.75539" y="246.04" style="stroke: #000000; stroke-width: 0.8"/>
      </g>
     </g>
     <g id="text_2">
      <text style="font: 10px 'DejaVu Sans', 'Bitstream Vera Sans', 'Computer Modern Sans Serif', 'Lucida Grande', 'Verdana', 'Geneva', 'Lucid', 'Arial', 'Helvetica', 'Avant Garde', sans-serif; text-anchor: middle" x="156.75539" y="260.638438" transform="rotate(-0 156.75539 260.638438)">0</text>
     </g>
    </g>
    <g id="xtick_3">
     <g id="line2d_3">
      <g>
       <use xlink:href="#m4a897ae69b" x="220.217884" y="246.04" style="stroke: #000000; stroke-width: 0.8"/>
      </g>
     </g>
     <g id="text_3">
      <text style="font: 10px 'DejaVu Sans', 'Bitstream Vera Sans', 'Computer Modern Sans Serif', 'Lucida Grande', 'Verdana', 'Geneva', 'Lucid', 'Arial', 'Helvetica', 'Avant Garde', sans-serif; text-anchor: middle" x="220.217884" y="260.638438" transform="rotate(-0 220.217884 260.638438)">200</text>
     </g>
    </g>
    <g id="xtick_4">
     <g id="line2d_4">
      <g>
       <use xlink:href="#m4a897ae69b" x="283.680378" y="246.04" style="stroke: #000000; stroke-width: 0.8"/>
      </g>
     </g>
     <g id="text_4">
      <text style="font: 10px 'DejaVu Sans', 'Bitstream Vera Sans', 'Computer Modern Sans Serif', 'Lucida Grande', 'Verdana', 'Geneva', 'Lucid', 'Arial', 'Helvetica', 'Avant Garde', sans-serif; text-anchor: middle" x="283.680378" y="260.638438" transform="rotate(-0 283.680378 260.638438)">400</text>
     </g>
    </g>
    <g id="xtick_5">
     <g id="line2d_5">
      <g>
       <use xlink:href="#m4a897ae69b" x="347.142871" y="246.04" style="stroke: #000000; stroke-width: 0.8"/>
      </g>
     </g>
     <g id="text_5">
      <text style="font: 10px 'DejaVu Sans', 'Bitstream Vera Sans', 'Computer Modern Sans Serif', 'Lucida Grande', 'Verdana', 'Geneva', 'Lucid', 'Arial', 'Helvetica', 'Avant Garde', sans-serif; text-anchor: middle" x="347.142871" y="260.638438" transform="rotate(-0 347.142871 260.638438)">600</text>
     </g>
    </g>
    <g id="xtick_6">
     <g id="line2d_6">
      <g>
       <use xlink:href="#m4a897ae69b" x="410.605365" y="246.04" style="stroke: #000000; stroke-width: 0.8"/>
      </g>
     </g>
     <g id="text_6">
      <text style="font: 10px 'DejaVu Sans', 'Bitstream Vera Sans', 'Computer Modern Sans Serif', 'Lucida Grande', 'Verdana', 'Geneva', 'Lucid', 'Arial', 'Helvetica', 'Avant Garde', sans-serif; text-anchor: middle" x="410.605365" y="260.638438" transform="rotate(-0 410.605365 260.638438)">800</text>
     </g>
    </g>
    <g id="xtick_7">
     <g id="line2d_7">
      <g>
       <use xlink:href="#m4a897ae69b" x="474.067859" y="246.04" style="stroke: #000000; stroke-width: 0.8"/>
      </g>
     </g>
     <g id="text_7">
      <text style="font: 10px 'DejaVu Sans', 'Bitstream Vera Sans', 'Computer Modern Sans Serif', 'Lucida Grande', 'Verdana', 'Geneva', 'Lucid', 'Arial', 'Helvetica', 'Avant Garde', sans-serif; text-anchor: middle" x="474.067859" y="260.638438" transform="rotate(-0 474.067859 260.638438)">1000</text>
     </g>
    </g>
    <g id="xtick_8">
     <g id="line2d_8">
      <g>
       <use xlink:href="#m4a897ae69b" x="537.530353" y="246.04" style="stroke: #000000; stroke-width: 0.8"/>
      </g>
     </g>
     <g id="text_8">
      <text style="font: 10px 'DejaVu Sans', 'Bitstream Vera Sans', 'Computer Modern Sans Serif', 'Lucida Grande', 'Verdana', 'Geneva', 'Lucid', 'Arial', 'Helvetica', 'Avant Garde', sans-serif; text-anchor: middle" x="537.530353" y="260.638438" transform="rotate(-0 537.530353 260.638438)">1200</text>
     </g>
    </g>
    <g id="text_9">
     <text style="font: 10px 'DejaVu Sans', 'Bitstream Vera Sans', 'Computer Modern Sans Serif', 'Lucida Grande', 'Verdana', 'Geneva', 'Lucid', 'Arial', 'Helvetica', 'Avant Garde', sans-serif; text-anchor: middle" x="309.7" y="274.316562" transform="rotate(-0 309.7 274.316562)">time</text>
    </g>
   </g>
   <g id="matplotlib.axis_2">
    <g id="ytick_1">
     <g id="line2d_9">
      <defs>
       <path id="m758a7ef55c" d="M 0 0 
L -3.5 0 
" style="stroke: #000000; stroke-width: 0.8"/>
      </defs>
      <g>
       <use xlink:href="#m758a7ef55c" x="54.2" y="217.526061" style="stroke: #000000; stroke-width: 0.8"/>
      </g>
     </g>
     <g id="text_10">
      <text style="font: 10px 'DejaVu Sans', 'Bitstream Vera Sans', 'Computer Modern Sans Serif', 'Lucida Grande', 'Verdana', 'Geneva', 'Lucid', 'Arial', 'Helvetica', 'Avant Garde', sans-serif; text-anchor: end" x="47.2" y="221.325279" transform="rotate(-0 47.2 221.325279)">0.00</text>
     </g>
    </g>
    <g id="ytick_2">
     <g id="line2d_10">
      <g>
       <use xlink:href="#m758a7ef55c" x="54.2" y="160.498182" style="stroke: #000000; stroke-width: 0.8"/>
      </g>
     </g>
     <g id="text_11">
      <text style="font: 10px 'DejaVu Sans', 'Bitstream Vera Sans', 'Computer Modern Sans Serif', 'Lucida Grande', 'Verdana', 'Geneva', 'Lucid', 'Arial', 'Helvetica', 'Avant Garde', sans-serif; text-anchor: end" x="47.2" y="164.297401" transform="rotate(-0 47.2 164.297401)">0.04</text>
     </g>
    </g>
    <g id="ytick_3">
     <g id="line2d_11">
      <g>
       <use xlink:href="#m758a7ef55c" x="54.2" y="103.470303" style="stroke: #000000; stroke-width: 0.8"/>
      </g>
     </g>
     <g id="text_12">
      <text style="font: 10px 'DejaVu Sans', 'Bitstream Vera Sans', 'Computer Modern Sans Serif', 'Lucida Grande', 'Verdana', 'Geneva', 'Lucid', 'Arial', 'Helvetica', 'Avant Garde', sans-serif; text-anchor: end" x="47.2" y="107.269522" transform="rotate(-0 47.2 107.269522)">0.08</text>
     </g>
    </g>
    <g id="ytick_4">
     <g id="line2d_12">
      <g>
       <use xlink:href="#m758a7ef55c" x="54.2" y="46.442424" style="stroke: #000000; stroke-width: 0.8"/>
      </g>
     </g>
     <g id="text_13">
      <text style="font: 10px 'DejaVu Sans', 'Bitstream Vera Sans', 'Computer Modern Sans Serif', 'Lucida Grande', 'Verdana', 'Geneva', 'Lucid', 'Arial', 'Helvetica', 'Avant Garde', sans-serif; text-anchor: end" x="47.2" y="50.241643" transform="rotate(-0 47.2 50.241643)">0.12</text>
     </g>
    </g>
    <g id="text_14">
     <text style="font: 10px 'DejaVu Sans', 'Bitstream Vera Sans', 'Computer Modern Sans Serif', 'Lucida Grande', 'Verdana', 'Geneva', 'Lucid', 'Arial', 'Helvetica', 'Avant Garde', sans-serif; text-anchor: middle" x="18.854688" y="128.42" transform="rotate(-90 18.854688 128.42)">Slope</text>
    </g>
   </g>
   <g id="line2d_13">
    <path d="M 77.427273 217.446562 
L 85.042772 217.142606 
L 92.658271 212.856033 
L 100.27377 211.042078 
L 107.88927 213.78182 
L 115.504769 217.286426 
L 123.120268 218.909514 
L 130.735768 220.984887 
L 138.351267 221.784889 
L 145.966766 221.824919 
L 153.582265 220.868349 
L 161.197765 210.376782 
L 168.813264 190.336175 
L 176.428763 163.62972 
L 184.044262 132.968411 
L 191.659762 107.438359 
L 199.275261 88.086758 
L 206.89076 75.888042 
L 214.506259 72.000599 
L 222.121759 74.458337 
L 229.737258 78.353704 
L 237.352757 79.665845 
L 244.968256 82.270491 
L 252.583756 85.456496 
L 260.199255 86.723805 
L 267.814754 87.198172 
L 275.430253 85.360115 
L 283.045753 82.226527 
L 290.661252 80.014725 
L 298.276751 75.379683 
L 305.89225 69.966936 
L 313.50775 67.781342 
L 321.123249 67.068028 
L 328.738748 67.411335 
L 336.354247 67.900826 
L 343.969747 70.929508 
L 351.585246 75.543055 
L 359.200745 79.157868 
L 366.816244 82.050691 
L 374.431744 86.926985 
L 382.047243 93.863888 
L 389.662742 100.586378 
L 397.278241 107.045322 
L 404.893741 113.149416 
L 412.50924 121.145794 
L 420.124739 128.265954 
L 427.740238 135.764688 
L 435.355738 142.745077 
L 442.971237 149.286037 
L 450.586736 151.800113 
L 458.202235 151.708629 
L 465.817735 149.298124 
L 473.433234 149.348118 
L 481.048733 152.77137 
L 488.664232 156.07799 
L 496.279732 158.581835 
L 503.895231 157.312354 
L 511.51073 159.132519 
L 519.12623 163.647305 
L 526.741729 167.519455 
L 534.357228 171.262004 
L 541.972727 177.066326 
" clip-path="url(#p706f2c26b5)" style="fill: none; stroke: #00ced1; stroke-width: 1.5; stroke-linecap: square"/>
   </g>
   <g id="line2d_14">
    <path d="M 77.427273 216.471333 
L 85.042772 223.862076 
L 92.658271 225.152049 
L 100.27377 220.019789 
L 107.88927 216.189756 
L 115.504769 212.947958 
L 123.120268 210.713571 
L 130.735768 209.0788 
L 138.351267 207.596952 
L 145.966766 207.450368 
L 153.582265 205.367385 
L 161.197765 200.863932 
L 168.813264 200.987372 
L 176.428763 203.871311 
L 184.044262 207.924092 
L 191.659762 211.94117 
L 199.275261 214.814351 
L 206.89076 213.228253 
L 214.506259 209.013001 
L 222.121759 205.994477 
L 229.737258 200.214398 
L 237.352757 194.141186 
L 244.968256 187.304442 
L 252.583756 181.640548 
L 260.199255 180.416381 
L 267.814754 181.825309 
L 275.430253 184.848397 
L 283.045753 188.938462 
L 290.661252 194.646256 
L 298.276751 200.740991 
L 305.89225 205.686946 
L 313.50775 206.506262 
L 321.123249 204.99325 
L 328.738748 204.160555 
L 336.354247 204.752112 
L 343.969747 205.063355 
L 351.585246 205.792286 
L 359.200745 210.32276 
L 366.816244 216.932134 
L 374.431744 218.51762 
L 382.047243 213.74119 
L 389.662742 212.07637 
L 397.278241 214.940321 
L 404.893741 219.723643 
L 412.50924 222.130854 
L 420.124739 220.928588 
L 427.740238 219.324678 
L 435.355738 220.669319 
L 442.971237 221.214371 
L 450.586736 221.70156 
L 458.202235 221.624839 
L 465.817735 219.890184 
L 473.433234 220.387849 
L 481.048733 219.091228 
L 488.664232 217.187527 
L 496.279732 216.850427 
L 503.895231 218.238585 
L 511.51073 218.25284 
L 519.12623 215.29907 
L 526.741729 211.621272 
L 534.357228 210.19722 
L 541.972727 210.02007 
" clip-path="url(#p706f2c26b5)" style="fill: none; stroke-dasharray: 6,2.25; stroke-dashoffset: 0; stroke: #00ced1; stroke-width: 1.5"/>
   </g>
   <g id="line2d_15">
    <path d="M 77.427273 209.06775 
L 85.042772 212.76736 
L 92.658271 215.90963 
L 100.27377 213.938546 
L 107.88927 212.805651 
L 115.504769 214.626101 
L 123.120268 216.292839 
L 130.735768 216.017227 
L 138.351267 214.600482 
L 145.966766 212.781167 
L 153.582265 210.344389 
L 161.197765 207.537628 
L 168.813264 198.335721 
L 176.428763 181.999809 
L 184.044262 164.113077 
L 191.659762 151.948502 
L 199.275261 144.841079 
L 206.89076 140.276118 
L 214.506259 138.943237 
L 222.121759 143.067466 
L 229.737258 152.467943 
L 237.352757 159.827578 
L 244.968256 165.546935 
L 252.583756 164.985418 
L 260.199255 163.402228 
L 267.814754 160.018477 
L 275.430253 153.307672 
L 283.045753 150.026272 
L 290.661252 149.074489 
L 298.276751 148.597127 
L 305.89225 147.498122 
L 313.50775 148.205009 
L 321.123249 149.090826 
L 328.738748 149.215912 
L 336.354247 148.927957 
L 343.969747 147.168387 
L 351.585246 144.990067 
L 359.200745 144.754083 
L 366.816244 147.750971 
L 374.431744 152.257075 
L 382.047243 155.921674 
L 389.662742 156.043042 
L 397.278241 156.086731 
L 404.893741 157.212121 
L 412.50924 160.309221 
L 420.124739 164.44463 
L 427.740238 167.364156 
L 435.355738 167.07151 
L 442.971237 165.674349 
L 450.586736 166.393001 
L 458.202235 168.267417 
L 465.817735 168.460899 
L 473.433234 170.180307 
L 481.048733 174.458911 
L 488.664232 177.646531 
L 496.279732 178.225526 
L 503.895231 176.813384 
L 511.51073 175.574443 
L 519.12623 177.713931 
L 526.741729 181.357823 
L 534.357228 185.460652 
L 541.972727 190.053529 
" clip-path="url(#p706f2c26b5)" style="fill: none; stroke: #d2691e; stroke-width: 1.5; stroke-linecap: square"/>
   </g>
   <g id="line2d_16">
    <path d="M 77.427273 226.74922 
L 85.042772 223.886881 
L 92.658271 217.963231 
L 100.27377 212.665366 
L 107.88927 211.446088 
L 115.504769 208.762044 
L 123.120268 206.405203 
L 130.735768 205.833459 
L 138.351267 207.152134 
L 145.966766 209.725648 
L 153.582265 209.55083 
L 161.197765 208.152304 
L 168.813264 209.986552 
L 176.428763 211.261446 
L 184.044262 213.450476 
L 191.659762 213.559894 
L 199.275261 208.766004 
L 206.89076 206.993765 
L 214.506259 209.353351 
L 222.121759 211.251753 
L 229.737258 209.801025 
L 237.352757 205.408525 
L 244.968256 199.799378 
L 252.583756 197.392804 
L 260.199255 198.203724 
L 267.814754 199.881501 
L 275.430253 201.636924 
L 283.045753 203.975062 
L 290.661252 204.367598 
L 298.276751 207.310035 
L 305.89225 210.482934 
L 313.50775 215.822443 
L 321.123249 218.736436 
L 328.738748 218.679662 
L 336.354247 214.893785 
L 343.969747 207.983604 
L 351.585246 203.103939 
L 359.200745 202.428225 
L 366.816244 202.854968 
L 374.431744 201.813052 
L 382.047243 200.548308 
L 389.662742 202.328747 
L 397.278241 206.089802 
L 404.893741 212.206066 
L 412.50924 213.128124 
L 420.124739 209.633003 
L 427.740238 207.734534 
L 435.355738 208.344622 
L 442.971237 209.58996 
L 450.586736 213.609969 
L 458.202235 218.036588 
L 465.817735 217.314034 
L 473.433234 214.954562 
L 481.048733 213.746973 
L 488.664232 213.287506 
L 496.279732 211.643125 
L 503.895231 208.765284 
L 511.51073 208.055195 
L 519.12623 208.622188 
L 526.741729 208.031106 
L 534.357228 208.614062 
L 541.972727 209.106593 
" clip-path="url(#p706f2c26b5)" style="fill: none; stroke-dasharray: 6,2.25; stroke-dashoffset: 0; stroke: #d2691e; stroke-width: 1.5"/>
   </g>
   <g id="line2d_17"/>
   <g id="line2d_18"/>
   <g id="line2d_19"/>
   <g id="line2d_20"/>
   <g id="line2d_21">
    <path d="M 54.2 217.526061 
L 565.2 217.526061 
" clip-path="url(#p706f2c26b5)" style="fill: none; stroke-dasharray: 7.4,3.2; stroke-dashoffset: 0; stroke: #000000; stroke-width: 2"/>
   </g>
   <g id="patch_3">
    <path d="M 54.2 246.04 
L 54.2 10.8 
" style="fill: none; stroke: #000000; stroke-width: 0.8; stroke-linejoin: miter; stroke-linecap: square"/>
   </g>
   <g id="patch_4">
    <path d="M 565.2 246.04 
L 565.2 10.8 
" style="fill: none; stroke: #000000; stroke-width: 0.8; stroke-linejoin: miter; stroke-linecap: square"/>
   </g>
   <g id="patch_5">
    <path d="M 54.2 246.04 
L 565.2 246.04 
" style="fill: none; stroke: #000000; stroke-width: 0.8; stroke-linejoin: miter; stroke-linecap: square"/>
   </g>
   <g id="patch_6">
    <path d="M 54.2 10.8 
L 565.2 10.8 
" style="fill: none; stroke: #000000; stroke-width: 0.8; stroke-linejoin: miter; stroke-linecap: square"/>
   </g>
   <g id="legend_1">
    <g id="patch_7">
     <path d="M 480.91875 106.86875 
L 558.2 106.86875 
Q 560.2 106.86875 560.2 104.86875 
L 560.2 17.8 
Q 560.2 15.8 558.2 15.8 
L 480.91875 15.8 
Q 478.91875 15.8 478.91875 17.8 
L 478.91875 104.86875 
Q 478.91875 106.86875 480.91875 106.86875 
z
" style="fill: #ffffff; opacity: 0.8; stroke: #cccccc; stroke-linejoin: miter"/>
    </g>
    <g id="text_15">
     <text style="font: 10px 'DejaVu Sans', 'Bitstream Vera Sans', 'Computer Modern Sans Serif', 'Lucida Grande', 'Verdana', 'Geneva', 'Lucid', 'Arial', 'Helvetica', 'Avant Garde', sans-serif; text-anchor: start" x="490.91875" y="27.398438" transform="rotate(-0 490.91875 27.398438)">condition</text>
    </g>
    <g id="line2d_22">
     <path d="M 482.91875 38.576562 
L 492.91875 38.576562 
L 502.91875 38.576562 
" style="fill: none; stroke: #00ced1; stroke-width: 1.5; stroke-linecap: square"/>
    </g>
    <g id="text_16">
     <text style="font: 10px 'DejaVu Sans', 'Bitstream Vera Sans', 'Computer Modern Sans Serif', 'Lucida Grande', 'Verdana', 'Geneva', 'Lucid', 'Arial', 'Helvetica', 'Avant Garde', sans-serif; text-anchor: start" x="510.91875" y="42.076562" transform="rotate(-0 510.91875 42.076562)">SS1</text>
    </g>
    <g id="line2d_23">
     <path d="M 482.91875 53.254687 
L 492.91875 53.254687 
L 502.91875 53.254687 
" style="fill: none; stroke: #d2691e; stroke-width: 1.5; stroke-linecap: square"/>
    </g>
    <g id="text_17">
     <text style="font: 10px 'DejaVu Sans', 'Bitstream Vera Sans', 'Computer Modern Sans Serif', 'Lucida Grande', 'Verdana', 'Geneva', 'Lucid', 'Arial', 'Helvetica', 'Avant Garde', sans-serif; text-anchor: start" x="510.91875" y="56.754687" transform="rotate(-0 510.91875 56.754687)">SS2</text>
    </g>
    <g id="text_18">
     <text style="font: 10px 'DejaVu Sans', 'Bitstream Vera Sans', 'Computer Modern Sans Serif', 'Lucida Grande', 'Verdana', 'Geneva', 'Lucid', 'Arial', 'Helvetica', 'Avant Garde', sans-serif; text-anchor: start" x="490.91875" y="71.432813" transform="rotate(-0 490.91875 71.432813)">location</text>
    </g>
    <g id="line2d_24">
     <path d="M 482.91875 82.610938 
L 492.91875 82.610938 
L 502.91875 82.610938 
" style="fill: none; stroke: #333333; stroke-width: 1.5; stroke-linecap: square"/>
    </g>
    <g id="text_19">
     <text style="font: 10px 'DejaVu Sans', 'Bitstream Vera Sans', 'Computer Modern Sans Serif', 'Lucida Grande', 'Verdana', 'Geneva', 'Lucid', 'Arial', 'Helvetica', 'Avant Garde', sans-serif; text-anchor: start" x="510.91875" y="86.110938" transform="rotate(-0 510.91875 86.110938)">target</text>
    </g>
    <g id="line2d_25">
     <path d="M 482.91875 97.289062 
L 492.91875 97.289062 
L 502.91875 97.289062 
" style="fill: none; stroke-dasharray: 6,2.25; stroke-dashoffset: 0; stroke: #333333; stroke-width: 1.5"/>
    </g>
    <g id="text_20">
     <text style="font: 10px 'DejaVu Sans', 'Bitstream Vera Sans', 'Computer Modern Sans Serif', 'Lucida Grande', 'Verdana', 'Geneva', 'Lucid', 'Arial', 'Helvetica', 'Avant Garde', sans-serif; text-anchor: start" x="510.91875" y="100.789062" transform="rotate(-0 510.91875 100.789062)">eye gaze</text>
    </g>
   </g>
  </g>
 </g>
 <defs>
  <clipPath id="p706f2c26b5">
   <rect x="54.2" y="10.8" width="511" height="235.24"/>
  </clipPath>
 </defs>
</svg>
