<?xml version="1.0" encoding="utf-8" standalone="no"?>
<!DOCTYPE svg PUBLIC "-//W3C//DTD SVG 1.1//EN"
  "http://www.w3.org/Graphics/SVG/1.1/DTD/svg11.dtd">
<svg xmlns:xlink="http://www.w3.org/1999/xlink" width="460.8pt" height="345.6pt" viewBox="0 0 460.8 345.6" xmlns="http://www.w3.org/2000/svg" version="1.1">
 <metadata>
  <rdf:RDF xmlns:dc="http://purl.org/dc/elements/1.1/" xmlns:cc="http://creativecommons.org/ns#" xmlns:rdf="http://www.w3.org/1999/02/22-rdf-syntax-ns#">
   <cc:Work>
    <dc:type rdf:resource="http://purl.org/dc/dcmitype/StillImage"/>
    <dc:date>2024-01-29T12:38:13.714548</dc:date>
    <dc:format>image/svg+xml</dc:format>
    <dc:creator>
     <cc:Agent>
      <dc:title>Matplotlib v3.7.1, https://matplotlib.org/</dc:title>
     </cc:Agent>
    </dc:creator>
   </cc:Work>
  </rdf:RDF>
 </metadata>
 <defs>
  <style type="text/css">*{stroke-linejoin: round; stroke-linecap: butt}</style>
 </defs>
 <g id="figure_1">
  <g id="patch_1">
   <path d="M 0 345.6 
L 460.8 345.6 
L 460.8 0 
L 0 0 
z
" style="fill: #ffffff"/>
  </g>
  <g id="axes_1">
   <g id="patch_2">
    <path d="M 57.6 307.584 
L 414.72 307.584 
L 414.72 41.472 
L 57.6 41.472 
z
" style="fill: #ffffff"/>
   </g>
   <g id="PolyCollection_1">
    <defs>
     <path id="m3d7da73748" d="M 73.832727 -142.296367 
L 73.832727 -82.168331 
L 79.154933 -84.119447 
L 84.477139 -86.198531 
L 89.799344 -80.043675 
L 95.12155 -66.047811 
L 100.443756 -59.029719 
L 105.765961 -59.562444 
L 111.088167 -61.525588 
L 116.410373 -66.956641 
L 121.732578 -60.540091 
L 127.054784 -60.191326 
L 132.37699 -65.181661 
L 137.699195 -80.910932 
L 143.021401 -95.791832 
L 148.343607 -129.440344 
L 153.665812 -152.613507 
L 158.988018 -176.321849 
L 164.310224 -190.557905 
L 169.632429 -187.280138 
L 174.954635 -179.415455 
L 180.276841 -189.264043 
L 185.599046 -205.133021 
L 190.921252 -199.301164 
L 196.243458 -196.043483 
L 201.565663 -199.672784 
L 206.887869 -196.210335 
L 212.210075 -184.568351 
L 217.53228 -185.965136 
L 222.854486 -182.192751 
L 228.176692 -176.617489 
L 233.498897 -180.198272 
L 238.821103 -190.506799 
L 244.143308 -194.794764 
L 249.465514 -194.783027 
L 254.78772 -193.448007 
L 260.109925 -185.641075 
L 265.432131 -175.253442 
L 270.754337 -178.603383 
L 276.076542 -179.368117 
L 281.398748 -182.963085 
L 286.720954 -175.598266 
L 292.043159 -166.968569 
L 297.365365 -161.700031 
L 302.687571 -158.869197 
L 308.009776 -152.538387 
L 313.331982 -149.241124 
L 318.654188 -145.08726 
L 323.976393 -148.599111 
L 329.298599 -141.255358 
L 334.620805 -137.595764 
L 339.94301 -137.465584 
L 345.265216 -139.852565 
L 350.587422 -146.598101 
L 355.909627 -148.37582 
L 361.231833 -142.054711 
L 366.554039 -137.349053 
L 371.876244 -134.496099 
L 377.19845 -131.055789 
L 382.520656 -125.008027 
L 387.842861 -111.385616 
L 393.165067 -108.76723 
L 398.487273 -111.637363 
L 398.487273 -155.416797 
L 398.487273 -155.416797 
L 393.165067 -165.302602 
L 387.842861 -176.990095 
L 382.520656 -190.17137 
L 377.19845 -204.311724 
L 371.876244 -213.628586 
L 366.554039 -217.042225 
L 361.231833 -214.651756 
L 355.909627 -210.570515 
L 350.587422 -208.837628 
L 345.265216 -209.184479 
L 339.94301 -208.261809 
L 334.620805 -215.113833 
L 329.298599 -224.252647 
L 323.976393 -236.988301 
L 318.654188 -246.425497 
L 313.331982 -250.101516 
L 308.009776 -248.019145 
L 302.687571 -249.990572 
L 297.365365 -249.163796 
L 292.043159 -261.0472 
L 286.720954 -271.229576 
L 281.398748 -273.130839 
L 276.076542 -278.87792 
L 270.754337 -284.902381 
L 265.432131 -283.768746 
L 260.109925 -285.305501 
L 254.78772 -284.12337 
L 249.465514 -284.039035 
L 244.143308 -282.051703 
L 238.821103 -278.592813 
L 233.498897 -277.687941 
L 228.176692 -274.597638 
L 222.854486 -273.158555 
L 217.53228 -269.819735 
L 212.210075 -267.112806 
L 206.887869 -271.643543 
L 201.565663 -275.300477 
L 196.243458 -280.257761 
L 190.921252 -280.29471 
L 185.599046 -271.518892 
L 180.276841 -258.771543 
L 174.954635 -244.966681 
L 169.632429 -248.203549 
L 164.310224 -248.26191 
L 158.988018 -237.958118 
L 153.665812 -220.293174 
L 148.343607 -196.79473 
L 143.021401 -171.586988 
L 137.699195 -154.662935 
L 132.37699 -135.650669 
L 127.054784 -118.905327 
L 121.732578 -111.854128 
L 116.410373 -110.702892 
L 111.088167 -120.526178 
L 105.765961 -122.604787 
L 100.443756 -121.823417 
L 95.12155 -127.419082 
L 89.799344 -136.362217 
L 84.477139 -144.796356 
L 79.154933 -144.181095 
L 73.832727 -142.296367 
z
" style="stroke: #1f77b4; stroke-opacity: 0.2"/>
    </defs>
    <g clip-path="url(#p547d276be6)">
     <use xlink:href="#m3d7da73748" x="0" y="345.6" style="fill: #1f77b4; fill-opacity: 0.2; stroke: #1f77b4; stroke-opacity: 0.2"/>
    </g>
   </g>
   <g id="PolyCollection_2">
    <defs>
     <path id="m465f216edf" d="M 73.832727 -118.643319 
L 73.832727 -50.112 
L 79.154933 -52.03215 
L 84.477139 -66.038819 
L 89.799344 -67.412507 
L 95.12155 -76.208695 
L 100.443756 -75.946416 
L 105.765961 -72.964527 
L 111.088167 -74.59973 
L 116.410373 -71.663965 
L 121.732578 -69.953805 
L 127.054784 -64.666308 
L 132.37699 -61.550851 
L 137.699195 -74.147947 
L 143.021401 -88.262552 
L 148.343607 -119.085055 
L 153.665812 -150.280891 
L 158.988018 -166.247633 
L 164.310224 -175.601997 
L 169.632429 -190.816826 
L 174.954635 -197.626555 
L 180.276841 -204.218061 
L 185.599046 -197.503609 
L 190.921252 -193.924586 
L 196.243458 -200.107826 
L 201.565663 -204.083092 
L 206.887869 -200.362765 
L 212.210075 -190.913537 
L 217.53228 -184.039483 
L 222.854486 -180.13228 
L 228.176692 -183.769689 
L 233.498897 -183.349003 
L 238.821103 -187.067318 
L 244.143308 -189.17632 
L 249.465514 -184.699575 
L 254.78772 -179.486823 
L 260.109925 -174.548058 
L 265.432131 -177.189895 
L 270.754337 -172.106525 
L 276.076542 -169.819226 
L 281.398748 -169.348982 
L 286.720954 -154.772839 
L 292.043159 -143.609971 
L 297.365365 -135.904819 
L 302.687571 -132.262459 
L 308.009776 -120.934116 
L 313.331982 -115.341122 
L 318.654188 -111.697325 
L 323.976393 -110.767404 
L 329.298599 -112.237598 
L 334.620805 -116.092218 
L 339.94301 -120.868246 
L 345.265216 -123.264594 
L 350.587422 -125.103041 
L 355.909627 -122.388778 
L 361.231833 -120.112094 
L 366.554039 -118.888338 
L 371.876244 -119.530704 
L 377.19845 -114.693952 
L 382.520656 -116.133687 
L 387.842861 -120.595997 
L 393.165067 -115.520013 
L 398.487273 -111.650315 
L 398.487273 -188.409688 
L 398.487273 -188.409688 
L 393.165067 -193.9763 
L 387.842861 -187.830131 
L 382.520656 -192.053447 
L 377.19845 -180.048008 
L 371.876244 -185.75331 
L 366.554039 -184.544383 
L 361.231833 -188.588304 
L 355.909627 -194.78862 
L 350.587422 -198.968017 
L 345.265216 -200.220098 
L 339.94301 -200.424077 
L 334.620805 -197.647378 
L 329.298599 -192.052453 
L 323.976393 -190.583056 
L 318.654188 -193.358554 
L 313.331982 -201.263852 
L 308.009776 -208.188653 
L 302.687571 -211.455932 
L 297.365365 -211.782599 
L 292.043159 -212.157766 
L 286.720954 -223.28061 
L 281.398748 -238.88626 
L 276.076542 -252.893619 
L 270.754337 -257.416425 
L 265.432131 -265.400197 
L 260.109925 -270.903277 
L 254.78772 -270.419512 
L 249.465514 -272.450522 
L 244.143308 -268.44061 
L 238.821103 -265.83093 
L 233.498897 -258.802428 
L 228.176692 -257.621134 
L 222.854486 -259.462037 
L 217.53228 -272.050655 
L 212.210075 -277.772559 
L 206.887869 -289.866025 
L 201.565663 -292.032 
L 196.243458 -286.357498 
L 190.921252 -279.188305 
L 185.599046 -277.060213 
L 180.276841 -278.699112 
L 174.954635 -274.030208 
L 169.632429 -267.905504 
L 164.310224 -252.710311 
L 158.988018 -236.844087 
L 153.665812 -216.262848 
L 148.343607 -188.560767 
L 143.021401 -153.358746 
L 137.699195 -136.416363 
L 132.37699 -124.37997 
L 127.054784 -122.528954 
L 121.732578 -129.701595 
L 116.410373 -136.341453 
L 111.088167 -143.172108 
L 105.765961 -138.644911 
L 100.443756 -135.705406 
L 95.12155 -134.905295 
L 89.799344 -138.357258 
L 84.477139 -138.439234 
L 79.154933 -124.933678 
L 73.832727 -118.643319 
z
" style="stroke: #1f77b4; stroke-opacity: 0.2"/>
    </defs>
    <g clip-path="url(#p547d276be6)">
     <use xlink:href="#m465f216edf" x="0" y="345.6" style="fill: #1f77b4; fill-opacity: 0.2; stroke: #1f77b4; stroke-opacity: 0.2"/>
    </g>
   </g>
   <g id="PolyCollection_3">
    <defs>
     <path id="m169f4f32e2" d="M 73.832727 -136.995642 
L 73.832727 -72.738464 
L 79.154933 -84.529478 
L 84.477139 -95.382783 
L 89.799344 -88.612179 
L 95.12155 -70.29695 
L 100.443756 -60.648272 
L 105.765961 -65.550136 
L 111.088167 -79.284231 
L 116.410373 -81.244586 
L 121.732578 -74.537392 
L 127.054784 -75.905449 
L 132.37699 -98.168248 
L 137.699195 -117.727864 
L 143.021401 -142.019599 
L 148.343607 -178.007339 
L 153.665812 -199.702806 
L 158.988018 -201.912938 
L 164.310224 -207.800121 
L 169.632429 -198.887554 
L 174.954635 -185.297451 
L 180.276841 -170.90367 
L 185.599046 -159.596092 
L 190.921252 -162.071139 
L 196.243458 -160.48724 
L 201.565663 -153.174739 
L 206.887869 -153.419432 
L 212.210075 -152.681967 
L 217.53228 -155.020692 
L 222.854486 -159.27622 
L 228.176692 -168.331499 
L 233.498897 -186.107095 
L 238.821103 -188.078895 
L 244.143308 -186.680922 
L 249.465514 -176.963291 
L 254.78772 -170.26845 
L 260.109925 -166.557378 
L 265.432131 -168.031832 
L 270.754337 -166.50648 
L 276.076542 -164.749254 
L 281.398748 -151.504365 
L 286.720954 -140.72105 
L 292.043159 -134.773893 
L 297.365365 -141.742748 
L 302.687571 -150.98553 
L 308.009776 -144.567425 
L 313.331982 -139.277118 
L 318.654188 -133.560138 
L 323.976393 -125.486604 
L 329.298599 -124.937525 
L 334.620805 -126.394827 
L 339.94301 -134.42148 
L 345.265216 -142.439029 
L 350.587422 -146.67618 
L 355.909627 -145.399663 
L 361.231833 -139.625304 
L 366.554039 -130.582555 
L 371.876244 -114.399054 
L 377.19845 -95.439239 
L 382.520656 -93.795344 
L 387.842861 -102.8089 
L 393.165067 -112.8336 
L 398.487273 -118.227401 
L 398.487273 -172.420636 
L 398.487273 -172.420636 
L 393.165067 -177.435767 
L 387.842861 -173.543053 
L 382.520656 -175.839867 
L 377.19845 -183.7086 
L 371.876244 -187.846833 
L 366.554039 -199.811715 
L 361.231833 -204.733979 
L 355.909627 -211.210498 
L 350.587422 -210.886945 
L 345.265216 -210.390273 
L 339.94301 -206.657147 
L 334.620805 -197.655961 
L 329.298599 -192.830037 
L 323.976393 -193.928562 
L 318.654188 -200.139818 
L 313.331982 -202.576694 
L 308.009776 -205.281073 
L 302.687571 -214.284668 
L 297.365365 -213.886672 
L 292.043159 -213.417843 
L 286.720954 -215.933803 
L 281.398748 -222.037679 
L 276.076542 -225.954587 
L 270.754337 -231.990409 
L 265.432131 -228.814269 
L 260.109925 -225.216253 
L 254.78772 -229.315303 
L 249.465514 -234.828573 
L 244.143308 -240.980222 
L 238.821103 -248.506968 
L 233.498897 -249.355936 
L 228.176692 -238.235123 
L 222.854486 -226.947265 
L 217.53228 -220.616237 
L 212.210075 -209.131791 
L 206.887869 -202.109273 
L 201.565663 -203.547618 
L 196.243458 -209.397312 
L 190.921252 -212.403212 
L 185.599046 -214.446491 
L 180.276841 -217.031423 
L 174.954635 -236.470997 
L 169.632429 -260.060344 
L 164.310224 -266.174131 
L 158.988018 -264.148845 
L 153.665812 -254.600187 
L 148.343607 -238.100536 
L 143.021401 -212.096274 
L 137.699195 -186.412081 
L 132.37699 -157.819289 
L 127.054784 -145.022389 
L 121.732578 -144.50572 
L 116.410373 -137.212032 
L 111.088167 -127.709376 
L 105.765961 -119.718615 
L 100.443756 -114.213048 
L 95.12155 -123.133399 
L 89.799344 -137.230956 
L 84.477139 -139.444261 
L 79.154933 -141.822917 
L 73.832727 -136.995642 
z
" style="stroke: #ff7f0e; stroke-opacity: 0.2"/>
    </defs>
    <g clip-path="url(#p547d276be6)">
     <use xlink:href="#m169f4f32e2" x="0" y="345.6" style="fill: #ff7f0e; fill-opacity: 0.2; stroke: #ff7f0e; stroke-opacity: 0.2"/>
    </g>
   </g>
   <g id="PolyCollection_4">
    <defs>
     <path id="mbeee482e71" d="M 73.832727 -122.596616 
L 73.832727 -73.565565 
L 79.154933 -73.041136 
L 84.477139 -77.93294 
L 89.799344 -83.685405 
L 95.12155 -83.910034 
L 100.443756 -79.051643 
L 105.765961 -72.897013 
L 111.088167 -63.441337 
L 116.410373 -55.576531 
L 121.732578 -54.353805 
L 127.054784 -63.083792 
L 132.37699 -78.549821 
L 137.699195 -99.694553 
L 143.021401 -131.567401 
L 148.343607 -162.677516 
L 153.665812 -190.63511 
L 158.988018 -193.462886 
L 164.310224 -187.310546 
L 169.632429 -185.736959 
L 174.954635 -178.673946 
L 180.276841 -171.923722 
L 185.599046 -162.719577 
L 190.921252 -152.413435 
L 196.243458 -148.487975 
L 201.565663 -149.442367 
L 206.887869 -154.771173 
L 212.210075 -159.821223 
L 217.53228 -158.285603 
L 222.854486 -156.059352 
L 228.176692 -155.686926 
L 233.498897 -160.711144 
L 238.821103 -160.465139 
L 244.143308 -160.338902 
L 249.465514 -157.102112 
L 254.78772 -152.069736 
L 260.109925 -146.074974 
L 265.432131 -148.323202 
L 270.754337 -152.616253 
L 276.076542 -157.159757 
L 281.398748 -150.079454 
L 286.720954 -142.777209 
L 292.043159 -134.791721 
L 297.365365 -139.321071 
L 302.687571 -154.238811 
L 308.009776 -160.785608 
L 313.331982 -162.947519 
L 318.654188 -142.653318 
L 323.976393 -119.429808 
L 329.298599 -106.171449 
L 334.620805 -104.471464 
L 339.94301 -107.394111 
L 345.265216 -116.339693 
L 350.587422 -123.890998 
L 355.909627 -129.540258 
L 361.231833 -124.024625 
L 366.554039 -114.983335 
L 371.876244 -99.769651 
L 377.19845 -85.783626 
L 382.520656 -84.672072 
L 387.842861 -92.182641 
L 393.165067 -93.648394 
L 398.487273 -94.307365 
L 398.487273 -148.680925 
L 398.487273 -148.680925 
L 393.165067 -155.577382 
L 387.842861 -155.165624 
L 382.520656 -157.800788 
L 377.19845 -157.659532 
L 371.876244 -158.200265 
L 366.554039 -164.160764 
L 361.231833 -174.497547 
L 355.909627 -180.495132 
L 350.587422 -181.202666 
L 345.265216 -177.5327 
L 339.94301 -174.516902 
L 334.620805 -171.257269 
L 329.298599 -179.711268 
L 323.976393 -198.694261 
L 318.654188 -216.958205 
L 313.331982 -228.418528 
L 308.009776 -225.979019 
L 302.687571 -223.418904 
L 297.365365 -214.836355 
L 292.043159 -209.385817 
L 286.720954 -217.157458 
L 281.398748 -223.339201 
L 276.076542 -226.819334 
L 270.754337 -228.009521 
L 265.432131 -229.801028 
L 260.109925 -233.884371 
L 254.78772 -233.183517 
L 249.465514 -235.362652 
L 244.143308 -232.461056 
L 238.821103 -236.739752 
L 233.498897 -235.932752 
L 228.176692 -232.377167 
L 222.854486 -231.138698 
L 217.53228 -225.090203 
L 212.210075 -213.639403 
L 206.887869 -204.631498 
L 201.565663 -192.704233 
L 196.243458 -191.568543 
L 190.921252 -197.921693 
L 185.599046 -209.765347 
L 180.276841 -217.164072 
L 174.954635 -226.974977 
L 169.632429 -238.847019 
L 164.310224 -249.300164 
L 158.988018 -253.575672 
L 153.665812 -248.137028 
L 148.343607 -223.011616 
L 143.021401 -185.197358 
L 137.699195 -148.68383 
L 132.37699 -123.199106 
L 127.054784 -107.77164 
L 121.732578 -104.423854 
L 116.410373 -111.283733 
L 111.088167 -124.393338 
L 105.765961 -129.278211 
L 100.443756 -131.654503 
L 95.12155 -130.64864 
L 89.799344 -131.501207 
L 84.477139 -126.935035 
L 79.154933 -119.459728 
L 73.832727 -122.596616 
z
" style="stroke: #ff7f0e; stroke-opacity: 0.2"/>
    </defs>
    <g clip-path="url(#p547d276be6)">
     <use xlink:href="#mbeee482e71" x="0" y="345.6" style="fill: #ff7f0e; fill-opacity: 0.2; stroke: #ff7f0e; stroke-opacity: 0.2"/>
    </g>
   </g>
   <g id="matplotlib.axis_1">
    <g id="xtick_1">
     <g id="line2d_1">
      <defs>
       <path id="m2c56f419e3" d="M 0 0 
L 0 3.5 
" style="stroke: #000000; stroke-width: 0.8"/>
      </defs>
      <g>
       <use xlink:href="#m2c56f419e3" x="82.148674" y="307.584" style="stroke: #000000; stroke-width: 0.8"/>
      </g>
     </g>
     <g id="text_1">
      <text style="font: 10px 'DejaVu Sans', 'Bitstream Vera Sans', 'Computer Modern Sans Serif', 'Lucida Grande', 'Verdana', 'Geneva', 'Lucid', 'Arial', 'Helvetica', 'Avant Garde', sans-serif; text-anchor: middle" x="82.148674" y="322.182437" transform="rotate(-0 82.148674 322.182437)">−200</text>
     </g>
    </g>
    <g id="xtick_2">
     <g id="line2d_2">
      <g>
       <use xlink:href="#m2c56f419e3" x="126.500387" y="307.584" style="stroke: #000000; stroke-width: 0.8"/>
      </g>
     </g>
     <g id="text_2">
      <text style="font: 10px 'DejaVu Sans', 'Bitstream Vera Sans', 'Computer Modern Sans Serif', 'Lucida Grande', 'Verdana', 'Geneva', 'Lucid', 'Arial', 'Helvetica', 'Avant Garde', sans-serif; text-anchor: middle" x="126.500387" y="322.182437" transform="rotate(-0 126.500387 322.182437)">0</text>
     </g>
    </g>
    <g id="xtick_3">
     <g id="line2d_3">
      <g>
       <use xlink:href="#m2c56f419e3" x="170.852101" y="307.584" style="stroke: #000000; stroke-width: 0.8"/>
      </g>
     </g>
     <g id="text_3">
      <text style="font: 10px 'DejaVu Sans', 'Bitstream Vera Sans', 'Computer Modern Sans Serif', 'Lucida Grande', 'Verdana', 'Geneva', 'Lucid', 'Arial', 'Helvetica', 'Avant Garde', sans-serif; text-anchor: middle" x="170.852101" y="322.182437" transform="rotate(-0 170.852101 322.182437)">200</text>
     </g>
    </g>
    <g id="xtick_4">
     <g id="line2d_4">
      <g>
       <use xlink:href="#m2c56f419e3" x="215.203815" y="307.584" style="stroke: #000000; stroke-width: 0.8"/>
      </g>
     </g>
     <g id="text_4">
      <text style="font: 10px 'DejaVu Sans', 'Bitstream Vera Sans', 'Computer Modern Sans Serif', 'Lucida Grande', 'Verdana', 'Geneva', 'Lucid', 'Arial', 'Helvetica', 'Avant Garde', sans-serif; text-anchor: middle" x="215.203815" y="322.182437" transform="rotate(-0 215.203815 322.182437)">400</text>
     </g>
    </g>
    <g id="xtick_5">
     <g id="line2d_5">
      <g>
       <use xlink:href="#m2c56f419e3" x="259.555529" y="307.584" style="stroke: #000000; stroke-width: 0.8"/>
      </g>
     </g>
     <g id="text_5">
      <text style="font: 10px 'DejaVu Sans', 'Bitstream Vera Sans', 'Computer Modern Sans Serif', 'Lucida Grande', 'Verdana', 'Geneva', 'Lucid', 'Arial', 'Helvetica', 'Avant Garde', sans-serif; text-anchor: middle" x="259.555529" y="322.182437" transform="rotate(-0 259.555529 322.182437)">600</text>
     </g>
    </g>
    <g id="xtick_6">
     <g id="line2d_6">
      <g>
       <use xlink:href="#m2c56f419e3" x="303.907243" y="307.584" style="stroke: #000000; stroke-width: 0.8"/>
      </g>
     </g>
     <g id="text_6">
      <text style="font: 10px 'DejaVu Sans', 'Bitstream Vera Sans', 'Computer Modern Sans Serif', 'Lucida Grande', 'Verdana', 'Geneva', 'Lucid', 'Arial', 'Helvetica', 'Avant Garde', sans-serif; text-anchor: middle" x="303.907243" y="322.182437" transform="rotate(-0 303.907243 322.182437)">800</text>
     </g>
    </g>
    <g id="xtick_7">
     <g id="line2d_7">
      <g>
       <use xlink:href="#m2c56f419e3" x="348.258957" y="307.584" style="stroke: #000000; stroke-width: 0.8"/>
      </g>
     </g>
     <g id="text_7">
      <text style="font: 10px 'DejaVu Sans', 'Bitstream Vera Sans', 'Computer Modern Sans Serif', 'Lucida Grande', 'Verdana', 'Geneva', 'Lucid', 'Arial', 'Helvetica', 'Avant Garde', sans-serif; text-anchor: middle" x="348.258957" y="322.182437" transform="rotate(-0 348.258957 322.182437)">1000</text>
     </g>
    </g>
    <g id="xtick_8">
     <g id="line2d_8">
      <g>
       <use xlink:href="#m2c56f419e3" x="392.610671" y="307.584" style="stroke: #000000; stroke-width: 0.8"/>
      </g>
     </g>
     <g id="text_8">
      <text style="font: 10px 'DejaVu Sans', 'Bitstream Vera Sans', 'Computer Modern Sans Serif', 'Lucida Grande', 'Verdana', 'Geneva', 'Lucid', 'Arial', 'Helvetica', 'Avant Garde', sans-serif; text-anchor: middle" x="392.610671" y="322.182437" transform="rotate(-0 392.610671 322.182437)">1200</text>
     </g>
    </g>
    <g id="text_9">
     <text style="font: 10px 'DejaVu Sans', 'Bitstream Vera Sans', 'Computer Modern Sans Serif', 'Lucida Grande', 'Verdana', 'Geneva', 'Lucid', 'Arial', 'Helvetica', 'Avant Garde', sans-serif; text-anchor: middle" x="236.16" y="335.860562" transform="rotate(-0 236.16 335.860562)">time</text>
    </g>
   </g>
   <g id="matplotlib.axis_2">
    <g id="ytick_1">
     <g id="line2d_9">
      <defs>
       <path id="m69543db61b" d="M 0 0 
L -3.5 0 
" style="stroke: #000000; stroke-width: 0.8"/>
      </defs>
      <g>
       <use xlink:href="#m69543db61b" x="57.6" y="280.073145" style="stroke: #000000; stroke-width: 0.8"/>
      </g>
     </g>
     <g id="text_10">
      <text style="font: 10px 'DejaVu Sans', 'Bitstream Vera Sans', 'Computer Modern Sans Serif', 'Lucida Grande', 'Verdana', 'Geneva', 'Lucid', 'Arial', 'Helvetica', 'Avant Garde', sans-serif; text-anchor: end" x="50.6" y="283.872364" transform="rotate(-0 50.6 283.872364)">−0.025</text>
     </g>
    </g>
    <g id="ytick_2">
     <g id="line2d_10">
      <g>
       <use xlink:href="#m69543db61b" x="57.6" y="243.486147" style="stroke: #000000; stroke-width: 0.8"/>
      </g>
     </g>
     <g id="text_11">
      <text style="font: 10px 'DejaVu Sans', 'Bitstream Vera Sans', 'Computer Modern Sans Serif', 'Lucida Grande', 'Verdana', 'Geneva', 'Lucid', 'Arial', 'Helvetica', 'Avant Garde', sans-serif; text-anchor: end" x="50.6" y="247.285366" transform="rotate(-0 50.6 247.285366)">0.000</text>
     </g>
    </g>
    <g id="ytick_3">
     <g id="line2d_11">
      <g>
       <use xlink:href="#m69543db61b" x="57.6" y="206.899149" style="stroke: #000000; stroke-width: 0.8"/>
      </g>
     </g>
     <g id="text_12">
      <text style="font: 10px 'DejaVu Sans', 'Bitstream Vera Sans', 'Computer Modern Sans Serif', 'Lucida Grande', 'Verdana', 'Geneva', 'Lucid', 'Arial', 'Helvetica', 'Avant Garde', sans-serif; text-anchor: end" x="50.6" y="210.698367" transform="rotate(-0 50.6 210.698367)">0.025</text>
     </g>
    </g>
    <g id="ytick_4">
     <g id="line2d_12">
      <g>
       <use xlink:href="#m69543db61b" x="57.6" y="170.31215" style="stroke: #000000; stroke-width: 0.8"/>
      </g>
     </g>
     <g id="text_13">
      <text style="font: 10px 'DejaVu Sans', 'Bitstream Vera Sans', 'Computer Modern Sans Serif', 'Lucida Grande', 'Verdana', 'Geneva', 'Lucid', 'Arial', 'Helvetica', 'Avant Garde', sans-serif; text-anchor: end" x="50.6" y="174.111369" transform="rotate(-0 50.6 174.111369)">0.050</text>
     </g>
    </g>
    <g id="ytick_5">
     <g id="line2d_13">
      <g>
       <use xlink:href="#m69543db61b" x="57.6" y="133.725152" style="stroke: #000000; stroke-width: 0.8"/>
      </g>
     </g>
     <g id="text_14">
      <text style="font: 10px 'DejaVu Sans', 'Bitstream Vera Sans', 'Computer Modern Sans Serif', 'Lucida Grande', 'Verdana', 'Geneva', 'Lucid', 'Arial', 'Helvetica', 'Avant Garde', sans-serif; text-anchor: end" x="50.6" y="137.52437" transform="rotate(-0 50.6 137.52437)">0.075</text>
     </g>
    </g>
    <g id="ytick_6">
     <g id="line2d_14">
      <g>
       <use xlink:href="#m69543db61b" x="57.6" y="97.138153" style="stroke: #000000; stroke-width: 0.8"/>
      </g>
     </g>
     <g id="text_15">
      <text style="font: 10px 'DejaVu Sans', 'Bitstream Vera Sans', 'Computer Modern Sans Serif', 'Lucida Grande', 'Verdana', 'Geneva', 'Lucid', 'Arial', 'Helvetica', 'Avant Garde', sans-serif; text-anchor: end" x="50.6" y="100.937372" transform="rotate(-0 50.6 100.937372)">0.100</text>
     </g>
    </g>
    <g id="ytick_7">
     <g id="line2d_15">
      <g>
       <use xlink:href="#m69543db61b" x="57.6" y="60.551155" style="stroke: #000000; stroke-width: 0.8"/>
      </g>
     </g>
     <g id="text_16">
      <text style="font: 10px 'DejaVu Sans', 'Bitstream Vera Sans', 'Computer Modern Sans Serif', 'Lucida Grande', 'Verdana', 'Geneva', 'Lucid', 'Arial', 'Helvetica', 'Avant Garde', sans-serif; text-anchor: end" x="50.6" y="64.350374" transform="rotate(-0 50.6 64.350374)">0.125</text>
     </g>
    </g>
    <g id="text_17">
     <text style="font: 10px 'DejaVu Sans', 'Bitstream Vera Sans', 'Computer Modern Sans Serif', 'Lucida Grande', 'Verdana', 'Geneva', 'Lucid', 'Arial', 'Helvetica', 'Avant Garde', sans-serif; text-anchor: middle" x="7.5125" y="174.528" transform="rotate(-90 7.5125 174.528)">Slope</text>
    </g>
   </g>
   <g id="line2d_16">
    <path d="M 73.832727 232.205526 
L 79.154933 232.239391 
L 84.477139 230.389407 
L 89.799344 236.822063 
L 95.12155 247.125766 
L 100.443756 253.730994 
L 105.765961 253.003403 
L 111.088167 252.789125 
L 116.410373 255.581508 
L 121.732578 259.180296 
L 127.054784 256.463146 
L 132.37699 243.452189 
L 137.699195 228.204392 
L 143.021401 210.896771 
L 148.343607 183.370342 
L 153.665812 158.289433 
L 158.988018 137.140543 
L 164.310224 125.505696 
L 169.632429 127.569155 
L 174.954635 130.854067 
L 180.276841 120.568948 
L 185.599046 106.528049 
L 190.921252 108.475814 
L 196.243458 106.799292 
L 201.565663 106.745691 
L 206.887869 112.488416 
L 212.210075 119.024522 
L 217.53228 118.511188 
L 222.854486 117.309323 
L 228.176692 121.010592 
L 233.498897 117.41076 
L 238.821103 111.771807 
L 244.143308 106.232067 
L 249.465514 104.734327 
L 254.78772 104.691585 
L 260.109925 108.569318 
L 265.432131 111.767501 
L 270.754337 112.956179 
L 276.076542 113.828603 
L 281.398748 117.487173 
L 286.720954 123.649031 
L 292.043159 132.623119 
L 297.365365 139.547885 
L 302.687571 141.63662 
L 308.009776 144.458581 
L 313.331982 147.481 
L 318.654188 146.316675 
L 323.976393 150.230212 
L 329.298599 161.225562 
L 334.620805 169.255853 
L 339.94301 173.130163 
L 345.265216 171.103159 
L 350.587422 167.800133 
L 355.909627 165.525143 
L 361.231833 164.604106 
L 366.554039 167.026639 
L 371.876244 170.450876 
L 377.19845 175.896022 
L 382.520656 187.679629 
L 387.842861 200.514842 
L 393.165067 209.593587 
L 398.487273 212.373855 
" clip-path="url(#p547d276be6)" style="fill: none; stroke: #1f77b4; stroke-width: 1.5; stroke-linecap: square"/>
   </g>
   <g id="line2d_17">
    <path d="M 73.832727 261.649437 
L 79.154933 254.460314 
L 84.477139 242.853926 
L 89.799344 240.38623 
L 95.12155 240.200211 
L 100.443756 240.475285 
L 105.765961 238.579672 
L 111.088167 237.572028 
L 116.410373 242.411743 
L 121.732578 247.018518 
L 127.054784 253.016044 
L 132.37699 252.830823 
L 137.699195 241.713862 
L 143.021401 225.504216 
L 148.343607 190.5709 
L 153.665812 161.232544 
L 158.988018 143.350542 
L 164.310224 132.003234 
L 169.632429 119.331756 
L 174.954635 109.886737 
L 180.276841 106.392511 
L 185.599046 106.101449 
L 190.921252 108.841434 
L 196.243458 104.500274 
L 201.565663 99.415101 
L 206.887869 101.994503 
L 212.210075 112.192697 
L 217.53228 121.227143 
L 222.854486 124.354515 
L 228.176692 124.251926 
L 233.498897 123.636132 
L 238.821103 119.723829 
L 244.143308 117.631452 
L 249.465514 119.509802 
L 254.78772 122.407183 
L 260.109925 123.077464 
L 265.432131 125.289519 
L 270.754337 127.995383 
L 276.076542 132.31797 
L 281.398748 141.418381 
L 286.720954 154.619648 
L 292.043159 167.538317 
L 297.365365 174.075775 
L 302.687571 175.57949 
L 308.009776 179.775996 
L 313.331982 188.913424 
L 318.654188 192.326437 
L 323.976393 195.380538 
L 329.298599 194.081341 
L 334.620805 189.05271 
L 339.94301 185.989098 
L 345.265216 185.494154 
L 350.587422 186.136939 
L 355.909627 187.30813 
L 361.231833 191.18279 
L 366.554039 193.189452 
L 371.876244 195.561422 
L 377.19845 198.754203 
L 382.520656 195.58992 
L 387.842861 191.370679 
L 393.165067 193.167426 
L 398.487273 197.734305 
" clip-path="url(#p547d276be6)" style="fill: none; stroke-dasharray: 6,2.25; stroke-dashoffset: 0; stroke: #1f77b4; stroke-width: 1.5"/>
   </g>
   <g id="line2d_18">
    <path d="M 73.832727 240.889805 
L 79.154933 233.372362 
L 84.477139 227.477489 
L 89.799344 232.294667 
L 95.12155 248.083712 
L 100.443756 258.868557 
L 105.765961 252.232765 
L 111.088167 241.165638 
L 116.410373 235.714188 
L 121.732578 236.724127 
L 127.054784 233.509502 
L 132.37699 218.41689 
L 137.699195 194.674718 
L 143.021401 167.553605 
L 148.343607 138.349431 
L 153.665812 119.498921 
L 158.988018 110.9792 
L 164.310224 107.007587 
L 169.632429 115.198824 
L 174.954635 133.71119 
L 180.276841 150.908637 
L 185.599046 156.481323 
L 190.921252 157.094346 
L 196.243458 159.8868 
L 201.565663 166.54986 
L 206.887869 168.466047 
L 212.210075 164.604307 
L 217.53228 159.141738 
L 222.854486 152.529354 
L 228.176692 142.413161 
L 233.498897 129.282359 
L 238.821103 126.616191 
L 244.143308 131.882927 
L 249.465514 140.165072 
L 254.78772 146.629368 
L 260.109925 149.012494 
L 265.432131 147.412644 
L 270.754337 146.793332 
L 276.076542 149.256803 
L 281.398748 155.168898 
L 286.720954 165.412159 
L 292.043159 170.084291 
L 297.365365 165.738133 
L 302.687571 163.629577 
L 308.009776 167.977503 
L 313.331982 174.687566 
L 318.654188 178.823431 
L 323.976393 184.072257 
L 329.298599 184.296821 
L 334.620805 181.546453 
L 339.94301 175.781626 
L 345.265216 168.491985 
L 350.587422 166.177453 
L 355.909627 169.541317 
L 361.231833 174.91514 
L 366.554039 181.172845 
L 371.876244 194.007524 
L 377.19845 205.561625 
L 382.520656 210.159743 
L 387.842861 206.277618 
L 393.165067 202.158933 
L 398.487273 200.323233 
" clip-path="url(#p547d276be6)" style="fill: none; stroke: #ff7f0e; stroke-width: 1.5; stroke-linecap: square"/>
   </g>
   <g id="line2d_19">
    <path d="M 73.832727 248.390917 
L 79.154933 249.332447 
L 84.477139 242.506634 
L 89.799344 237.997714 
L 95.12155 237.643192 
L 100.443756 240.377497 
L 105.765961 244.551567 
L 111.088167 249.869495 
L 116.410373 260.582385 
L 121.732578 265.760274 
L 127.054784 258.970825 
L 132.37699 243.598177 
L 137.699195 220.770077 
L 143.021401 186.997835 
L 148.343607 152.682346 
L 153.665812 126.659413 
L 158.988018 121.566757 
L 164.310224 127.136621 
L 169.632429 134.84161 
L 174.954635 143.168144 
L 180.276841 149.847258 
L 185.599046 159.210144 
L 190.921252 170.623778 
L 196.243458 176.435972 
L 201.565663 174.545729 
L 206.887869 166.610923 
L 212.210075 159.171206 
L 217.53228 153.450363 
L 222.854486 150.386232 
L 228.176692 149.737301 
L 233.498897 147.650478 
L 238.821103 146.689455 
L 244.143308 147.905754 
L 249.465514 149.85427 
L 254.78772 151.105001 
L 260.109925 156.229185 
L 265.432131 157.247464 
L 270.754337 155.583909 
L 276.076542 153.926159 
L 281.398748 157.149224 
L 286.720954 166.229729 
L 292.043159 171.236177 
L 297.365365 167.809046 
L 302.687571 158.702565 
L 308.009776 150.187862 
L 313.331982 152.065731 
L 318.654188 165.788043 
L 323.976393 187.676354 
L 329.298599 203.940475 
L 334.620805 209.577752 
L 339.94301 206.270603 
L 345.265216 199.669001 
L 350.587422 192.443484 
L 355.909627 189.422274 
L 361.231833 195.23088 
L 366.554039 205.631431 
L 371.876244 215.980933 
L 377.19845 224.008728 
L 382.520656 225.198427 
L 387.842861 223.370448 
L 393.165067 222.319948 
L 398.487273 223.682709 
" clip-path="url(#p547d276be6)" style="fill: none; stroke-dasharray: 6,2.25; stroke-dashoffset: 0; stroke: #ff7f0e; stroke-width: 1.5"/>
   </g>
   <g id="line2d_20"/>
   <g id="line2d_21"/>
   <g id="line2d_22"/>
   <g id="line2d_23"/>
   <g id="patch_3">
    <path d="M 57.6 307.584 
L 57.6 41.472 
" style="fill: none; stroke: #000000; stroke-width: 0.8; stroke-linejoin: miter; stroke-linecap: square"/>
   </g>
   <g id="patch_4">
    <path d="M 414.72 307.584 
L 414.72 41.472 
" style="fill: none; stroke: #000000; stroke-width: 0.8; stroke-linejoin: miter; stroke-linecap: square"/>
   </g>
   <g id="patch_5">
    <path d="M 57.6 307.584 
L 414.72 307.584 
" style="fill: none; stroke: #000000; stroke-width: 0.8; stroke-linejoin: miter; stroke-linecap: square"/>
   </g>
   <g id="patch_6">
    <path d="M 57.6 41.472 
L 414.72 41.472 
" style="fill: none; stroke: #000000; stroke-width: 0.8; stroke-linejoin: miter; stroke-linecap: square"/>
   </g>
   <g id="legend_1">
    <g id="patch_7">
     <path d="M 318.780937 137.54075 
L 407.72 137.54075 
Q 409.72 137.54075 409.72 135.54075 
L 409.72 48.472 
Q 409.72 46.472 407.72 46.472 
L 318.780937 46.472 
Q 316.780937 46.472 316.780937 48.472 
L 316.780937 135.54075 
Q 316.780937 137.54075 318.780937 137.54075 
z
" style="fill: #ffffff; opacity: 0.8; stroke: #cccccc; stroke-linejoin: miter"/>
    </g>
    <g id="text_18">
     <text style="font: 10px 'DejaVu Sans', 'Bitstream Vera Sans', 'Computer Modern Sans Serif', 'Lucida Grande', 'Verdana', 'Geneva', 'Lucid', 'Arial', 'Helvetica', 'Avant Garde', sans-serif; text-anchor: start" x="328.780937" y="58.070438" transform="rotate(-0 328.780937 58.070438)">width</text>
    </g>
    <g id="line2d_24">
     <path d="M 320.780937 69.248563 
L 330.780937 69.248563 
L 340.780937 69.248563 
" style="fill: none; stroke: #1f77b4; stroke-width: 1.5; stroke-linecap: square"/>
    </g>
    <g id="text_19">
     <text style="font: 10px 'DejaVu Sans', 'Bitstream Vera Sans', 'Computer Modern Sans Serif', 'Lucida Grande', 'Verdana', 'Geneva', 'Lucid', 'Arial', 'Helvetica', 'Avant Garde', sans-serif; text-anchor: start" x="348.780937" y="72.748563" transform="rotate(-0 348.780937 72.748563)">Narrow</text>
    </g>
    <g id="line2d_25">
     <path d="M 320.780937 83.926688 
L 330.780937 83.926688 
L 340.780937 83.926688 
" style="fill: none; stroke: #ff7f0e; stroke-width: 1.5; stroke-linecap: square"/>
    </g>
    <g id="text_20">
     <text style="font: 10px 'DejaVu Sans', 'Bitstream Vera Sans', 'Computer Modern Sans Serif', 'Lucida Grande', 'Verdana', 'Geneva', 'Lucid', 'Arial', 'Helvetica', 'Avant Garde', sans-serif; text-anchor: start" x="348.780937" y="87.426688" transform="rotate(-0 348.780937 87.426688)">Broad</text>
    </g>
    <g id="text_21">
     <text style="font: 10px 'DejaVu Sans', 'Bitstream Vera Sans', 'Computer Modern Sans Serif', 'Lucida Grande', 'Verdana', 'Geneva', 'Lucid', 'Arial', 'Helvetica', 'Avant Garde', sans-serif; text-anchor: start" x="328.780937" y="102.104813" transform="rotate(-0 328.780937 102.104813)">location</text>
    </g>
    <g id="line2d_26">
     <path d="M 320.780937 113.282938 
L 330.780937 113.282938 
L 340.780937 113.282938 
" style="fill: none; stroke: #333333; stroke-width: 1.5; stroke-linecap: square"/>
    </g>
    <g id="text_22">
     <text style="font: 10px 'DejaVu Sans', 'Bitstream Vera Sans', 'Computer Modern Sans Serif', 'Lucida Grande', 'Verdana', 'Geneva', 'Lucid', 'Arial', 'Helvetica', 'Avant Garde', sans-serif; text-anchor: start" x="348.780937" y="116.782938" transform="rotate(-0 348.780937 116.782938)">Centralized</text>
    </g>
    <g id="line2d_27">
     <path d="M 320.780937 127.961063 
L 330.780937 127.961063 
L 340.780937 127.961063 
" style="fill: none; stroke-dasharray: 6,2.25; stroke-dashoffset: 0; stroke: #333333; stroke-width: 1.5"/>
    </g>
    <g id="text_23">
     <text style="font: 10px 'DejaVu Sans', 'Bitstream Vera Sans', 'Computer Modern Sans Serif', 'Lucida Grande', 'Verdana', 'Geneva', 'Lucid', 'Arial', 'Helvetica', 'Avant Garde', sans-serif; text-anchor: start" x="348.780937" y="131.461063" transform="rotate(-0 348.780937 131.461063)">Lateralized</text>
    </g>
   </g>
  </g>
 </g>
 <defs>
  <clipPath id="p547d276be6">
   <rect x="57.6" y="41.472" width="357.12" height="266.112"/>
  </clipPath>
 </defs>
</svg>
