<?xml version="1.0" encoding="utf-8" standalone="no"?>
<!DOCTYPE svg PUBLIC "-//W3C//DTD SVG 1.1//EN"
  "http://www.w3.org/Graphics/SVG/1.1/DTD/svg11.dtd">
<svg xmlns:xlink="http://www.w3.org/1999/xlink" width="460.8pt" height="345.6pt" viewBox="0 0 460.8 345.6" xmlns="http://www.w3.org/2000/svg" version="1.1">
 <metadata>
  <rdf:RDF xmlns:dc="http://purl.org/dc/elements/1.1/" xmlns:cc="http://creativecommons.org/ns#" xmlns:rdf="http://www.w3.org/1999/02/22-rdf-syntax-ns#">
   <cc:Work>
    <dc:type rdf:resource="http://purl.org/dc/dcmitype/StillImage"/>
    <dc:date>2024-01-15T10:50:21.670173</dc:date>
    <dc:format>image/svg+xml</dc:format>
    <dc:creator>
     <cc:Agent>
      <dc:title>Matplotlib v3.7.1, https://matplotlib.org/</dc:title>
     </cc:Agent>
    </dc:creator>
   </cc:Work>
  </rdf:RDF>
 </metadata>
 <defs>
  <style type="text/css">*{stroke-linejoin: round; stroke-linecap: butt}</style>
 </defs>
 <g id="figure_1">
  <g id="patch_1">
   <path d="M 0 345.6 
L 460.8 345.6 
L 460.8 0 
L 0 0 
z
" style="fill: #ffffff"/>
  </g>
  <g id="axes_1">
   <g id="patch_2">
    <path d="M 57.6 307.584 
L 414.72 307.584 
L 414.72 41.472 
L 57.6 41.472 
z
" style="fill: #ffffff"/>
   </g>
   <g id="PolyCollection_1">
    <defs>
     <path id="m8cf1fe01a5" d="M 73.832727 -145.212538 
L 73.832727 -84.126715 
L 79.154933 -85.107685 
L 84.477139 -86.257649 
L 89.799344 -81.430103 
L 95.12155 -69.559513 
L 100.443756 -63.150301 
L 105.765961 -64.799409 
L 111.088167 -66.252192 
L 116.410373 -68.310416 
L 121.732578 -63.512439 
L 127.054784 -58.246922 
L 132.37699 -69.414387 
L 137.699195 -82.359224 
L 143.021401 -100.653093 
L 148.343607 -130.115861 
L 153.665812 -157.223022 
L 158.988018 -180.292055 
L 164.310224 -190.907686 
L 169.632429 -190.201973 
L 174.954635 -181.685713 
L 180.276841 -188.313888 
L 185.599046 -205.921189 
L 190.921252 -196.397952 
L 196.243458 -198.917349 
L 201.565663 -200.239976 
L 206.887869 -197.705634 
L 212.210075 -190.844356 
L 217.53228 -190.773278 
L 222.854486 -184.38193 
L 228.176692 -175.77218 
L 233.498897 -179.192117 
L 238.821103 -184.403291 
L 244.143308 -198.820092 
L 249.465514 -200.558253 
L 254.78772 -196.79644 
L 260.109925 -182.049339 
L 265.432131 -182.184069 
L 270.754337 -180.889776 
L 276.076542 -185.727441 
L 281.398748 -180.511331 
L 286.720954 -175.546638 
L 292.043159 -165.644089 
L 297.365365 -161.653137 
L 302.687571 -159.347755 
L 308.009776 -154.594476 
L 313.331982 -151.848196 
L 318.654188 -149.690044 
L 323.976393 -152.983903 
L 329.298599 -146.388844 
L 334.620805 -139.908783 
L 339.94301 -135.878408 
L 345.265216 -141.483971 
L 350.587422 -148.183043 
L 355.909627 -151.415926 
L 361.231833 -146.087675 
L 366.554039 -138.0434 
L 371.876244 -137.433658 
L 377.19845 -135.521713 
L 382.520656 -124.106811 
L 387.842861 -113.448898 
L 393.165067 -112.407733 
L 398.487273 -113.711341 
L 398.487273 -161.611741 
L 398.487273 -161.611741 
L 393.165067 -165.694608 
L 387.842861 -180.808696 
L 382.520656 -194.066549 
L 377.19845 -207.80054 
L 371.876244 -214.4078 
L 366.554039 -219.370987 
L 361.231833 -216.4171 
L 355.909627 -210.533161 
L 350.587422 -211.85269 
L 345.265216 -209.328382 
L 339.94301 -213.166249 
L 334.620805 -217.994958 
L 329.298599 -226.763223 
L 323.976393 -241.09394 
L 318.654188 -251.530466 
L 313.331982 -246.496516 
L 308.009776 -252.068413 
L 302.687571 -250.889596 
L 297.365365 -256.41725 
L 292.043159 -261.683215 
L 286.720954 -273.533216 
L 281.398748 -279.010685 
L 276.076542 -282.214262 
L 270.754337 -285.493469 
L 265.432131 -288.60132 
L 260.109925 -292.032 
L 254.78772 -288.571693 
L 249.465514 -285.995289 
L 244.143308 -285.363421 
L 238.821103 -284.949951 
L 233.498897 -277.668914 
L 228.176692 -273.229898 
L 222.854486 -273.586472 
L 217.53228 -269.724749 
L 212.210075 -266.738888 
L 206.887869 -273.693261 
L 201.565663 -280.274547 
L 196.243458 -279.482406 
L 190.921252 -278.757107 
L 185.599046 -274.746343 
L 180.276841 -259.008186 
L 174.954635 -250.061258 
L 169.632429 -252.123119 
L 164.310224 -247.697775 
L 158.988018 -241.391436 
L 153.665812 -220.802936 
L 148.343607 -195.931786 
L 143.021401 -177.952976 
L 137.699195 -156.722772 
L 132.37699 -137.433212 
L 127.054784 -120.484498 
L 121.732578 -111.103996 
L 116.410373 -116.108383 
L 111.088167 -122.112094 
L 105.765961 -124.153726 
L 100.443756 -124.454423 
L 95.12155 -130.56104 
L 89.799344 -136.35688 
L 84.477139 -146.208326 
L 79.154933 -145.620618 
L 73.832727 -145.212538 
z
" style="stroke: #1f77b4; stroke-opacity: 0.2"/>
    </defs>
    <g clip-path="url(#pc1b3650081)">
     <use xlink:href="#m8cf1fe01a5" x="0" y="345.6" style="fill: #1f77b4; fill-opacity: 0.2; stroke: #1f77b4; stroke-opacity: 0.2"/>
    </g>
   </g>
   <g id="PolyCollection_2">
    <defs>
     <path id="ma37d8fa23e" d="M 73.832727 -123.372747 
L 73.832727 -50.112 
L 79.154933 -58.590481 
L 84.477139 -68.318932 
L 89.799344 -70.327159 
L 95.12155 -79.195568 
L 100.443756 -78.908866 
L 105.765961 -76.191569 
L 111.088167 -73.558677 
L 116.410373 -72.483408 
L 121.732578 -71.93008 
L 127.054784 -66.179098 
L 132.37699 -62.83586 
L 137.699195 -76.745596 
L 143.021401 -91.068437 
L 148.343607 -125.764453 
L 153.665812 -150.287005 
L 158.988018 -170.070892 
L 164.310224 -178.153043 
L 169.632429 -191.810025 
L 174.954635 -203.263875 
L 180.276841 -205.087484 
L 185.599046 -202.558374 
L 190.921252 -197.384387 
L 196.243458 -197.811119 
L 201.565663 -207.12951 
L 206.887869 -201.910118 
L 212.210075 -188.49654 
L 217.53228 -183.721799 
L 222.854486 -181.178618 
L 228.176692 -184.897918 
L 233.498897 -185.082138 
L 238.821103 -187.303266 
L 244.143308 -190.146854 
L 249.465514 -185.979198 
L 254.78772 -177.235923 
L 260.109925 -179.091257 
L 265.432131 -182.276547 
L 270.754337 -176.009671 
L 276.076542 -174.561054 
L 281.398748 -167.64154 
L 286.720954 -159.560649 
L 292.043159 -144.705182 
L 297.365365 -137.738948 
L 302.687571 -129.904741 
L 308.009776 -124.972746 
L 313.331982 -114.327541 
L 318.654188 -116.351944 
L 323.976393 -115.307324 
L 329.298599 -111.936219 
L 334.620805 -111.517257 
L 339.94301 -122.098361 
L 345.265216 -125.158091 
L 350.587422 -126.32675 
L 355.909627 -124.446219 
L 361.231833 -124.648124 
L 366.554039 -120.277942 
L 371.876244 -119.848621 
L 377.19845 -116.748782 
L 382.520656 -116.131734 
L 387.842861 -118.572371 
L 393.165067 -116.909218 
L 398.487273 -115.074231 
L 398.487273 -189.534847 
L 398.487273 -189.534847 
L 393.165067 -196.466977 
L 387.842861 -192.69982 
L 382.520656 -188.240575 
L 377.19845 -183.130694 
L 371.876244 -188.154419 
L 366.554039 -187.313536 
L 361.231833 -191.025243 
L 355.909627 -195.368214 
L 350.587422 -198.58807 
L 345.265216 -198.023487 
L 339.94301 -202.678154 
L 334.620805 -202.351328 
L 329.298599 -193.652076 
L 323.976393 -191.412485 
L 318.654188 -197.219487 
L 313.331982 -201.354981 
L 308.009776 -211.380383 
L 302.687571 -214.636822 
L 297.365365 -213.598889 
L 292.043159 -215.533185 
L 286.720954 -224.993577 
L 281.398748 -241.931656 
L 276.076542 -256.819021 
L 270.754337 -260.868042 
L 265.432131 -266.425904 
L 260.109925 -270.332972 
L 254.78772 -273.632396 
L 249.465514 -271.149593 
L 244.143308 -269.446464 
L 238.821103 -266.484701 
L 233.498897 -265.770325 
L 228.176692 -259.218419 
L 222.854486 -265.604401 
L 217.53228 -270.228533 
L 212.210075 -279.518609 
L 206.887869 -291.796888 
L 201.565663 -291.84742 
L 196.243458 -285.812855 
L 190.921252 -280.309979 
L 185.599046 -282.04751 
L 180.276841 -277.930209 
L 174.954635 -275.427805 
L 169.632429 -265.578583 
L 164.310224 -252.836533 
L 158.988018 -240.578905 
L 153.665812 -220.982259 
L 148.343607 -193.263791 
L 143.021401 -153.661482 
L 137.699195 -138.788936 
L 132.37699 -131.385388 
L 127.054784 -124.170793 
L 121.732578 -130.97369 
L 116.410373 -138.934535 
L 111.088167 -145.08506 
L 105.765961 -143.598064 
L 100.443756 -139.506952 
L 95.12155 -136.780831 
L 89.799344 -139.568695 
L 84.477139 -144.646511 
L 79.154933 -126.186582 
L 73.832727 -123.372747 
z
" style="stroke: #1f77b4; stroke-opacity: 0.2"/>
    </defs>
    <g clip-path="url(#pc1b3650081)">
     <use xlink:href="#ma37d8fa23e" x="0" y="345.6" style="fill: #1f77b4; fill-opacity: 0.2; stroke: #1f77b4; stroke-opacity: 0.2"/>
    </g>
   </g>
   <g id="PolyCollection_3">
    <defs>
     <path id="mcd120a1dc9" d="M 73.832727 -139.375357 
L 73.832727 -76.252634 
L 79.154933 -86.742362 
L 84.477139 -95.822877 
L 89.799344 -90.290692 
L 95.12155 -71.816037 
L 100.443756 -61.373446 
L 105.765961 -69.521781 
L 111.088167 -81.06671 
L 116.410373 -84.670923 
L 121.732578 -71.312024 
L 127.054784 -78.117855 
L 132.37699 -101.120053 
L 137.699195 -120.046419 
L 143.021401 -144.484449 
L 148.343607 -177.519475 
L 153.665812 -198.164306 
L 158.988018 -204.428741 
L 164.310224 -209.63852 
L 169.632429 -200.816005 
L 174.954635 -184.795681 
L 180.276841 -173.578122 
L 185.599046 -160.459493 
L 190.921252 -165.92418 
L 196.243458 -162.332153 
L 201.565663 -155.965688 
L 206.887869 -153.363104 
L 212.210075 -156.657964 
L 217.53228 -155.036325 
L 222.854486 -160.980308 
L 228.176692 -169.387136 
L 233.498897 -187.297173 
L 238.821103 -189.292539 
L 244.143308 -190.036846 
L 249.465514 -180.218293 
L 254.78772 -168.89406 
L 260.109925 -171.434352 
L 265.432131 -166.415007 
L 270.754337 -166.216525 
L 276.076542 -166.960254 
L 281.398748 -156.006149 
L 286.720954 -138.500177 
L 292.043159 -138.834197 
L 297.365365 -146.27891 
L 302.687571 -153.063728 
L 308.009776 -150.574473 
L 313.331982 -137.805247 
L 318.654188 -134.143248 
L 323.976393 -129.744509 
L 329.298599 -129.597572 
L 334.620805 -126.954837 
L 339.94301 -133.590065 
L 345.265216 -144.413184 
L 350.587422 -150.20819 
L 355.909627 -144.951841 
L 361.231833 -140.799356 
L 366.554039 -132.640761 
L 371.876244 -116.532084 
L 377.19845 -98.575006 
L 382.520656 -96.534947 
L 387.842861 -106.078096 
L 393.165067 -113.10219 
L 398.487273 -121.360856 
L 398.487273 -174.6888 
L 398.487273 -174.6888 
L 393.165067 -175.251095 
L 387.842861 -175.809348 
L 382.520656 -181.143891 
L 377.19845 -182.157193 
L 371.876244 -192.798624 
L 366.554039 -201.986069 
L 361.231833 -204.959418 
L 355.909627 -212.326972 
L 350.587422 -214.64602 
L 345.265216 -212.245719 
L 339.94301 -210.181826 
L 334.620805 -200.668425 
L 329.298599 -194.170305 
L 323.976393 -198.220021 
L 318.654188 -201.939469 
L 313.331982 -204.503184 
L 308.009776 -209.628536 
L 302.687571 -213.929033 
L 297.365365 -217.198751 
L 292.043159 -214.188333 
L 286.720954 -218.662707 
L 281.398748 -221.948917 
L 276.076542 -228.158916 
L 270.754337 -233.996353 
L 265.432131 -232.528244 
L 260.109925 -230.697887 
L 254.78772 -231.232683 
L 249.465514 -236.446481 
L 244.143308 -242.586089 
L 238.821103 -251.413648 
L 233.498897 -253.243681 
L 228.176692 -239.397305 
L 222.854486 -227.687269 
L 217.53228 -219.761772 
L 212.210075 -211.3957 
L 206.887869 -203.120323 
L 201.565663 -203.677765 
L 196.243458 -212.249021 
L 190.921252 -214.144454 
L 185.599046 -216.808052 
L 180.276841 -220.333036 
L 174.954635 -238.724488 
L 169.632429 -260.802474 
L 164.310224 -270.615426 
L 158.988018 -265.669876 
L 153.665812 -256.114406 
L 148.343607 -238.999536 
L 143.021401 -214.456293 
L 137.699195 -186.173387 
L 132.37699 -157.918437 
L 127.054784 -150.060132 
L 121.732578 -146.341661 
L 116.410373 -140.730515 
L 111.088167 -129.377803 
L 105.765961 -121.346153 
L 100.443756 -114.932457 
L 95.12155 -124.713198 
L 89.799344 -138.388944 
L 84.477139 -145.155734 
L 79.154933 -140.975321 
L 73.832727 -139.375357 
z
" style="stroke: #ff7f0e; stroke-opacity: 0.2"/>
    </defs>
    <g clip-path="url(#pc1b3650081)">
     <use xlink:href="#mcd120a1dc9" x="0" y="345.6" style="fill: #ff7f0e; fill-opacity: 0.2; stroke: #ff7f0e; stroke-opacity: 0.2"/>
    </g>
   </g>
   <g id="PolyCollection_4">
    <defs>
     <path id="m550460385b" d="M 73.832727 -124.586081 
L 73.832727 -76.654115 
L 79.154933 -76.047238 
L 84.477139 -79.964385 
L 89.799344 -88.519052 
L 95.12155 -87.06533 
L 100.443756 -82.051366 
L 105.765961 -72.701738 
L 111.088167 -69.563839 
L 116.410373 -60.647059 
L 121.732578 -59.328162 
L 127.054784 -66.046505 
L 132.37699 -79.311444 
L 137.699195 -98.002218 
L 143.021401 -131.891529 
L 148.343607 -164.000728 
L 153.665812 -190.37783 
L 158.988018 -194.755624 
L 164.310224 -190.612013 
L 169.632429 -186.651195 
L 174.954635 -180.273662 
L 180.276841 -174.204209 
L 185.599046 -162.898175 
L 190.921252 -151.161976 
L 196.243458 -148.667294 
L 201.565663 -150.995874 
L 206.887869 -158.099377 
L 212.210075 -159.799643 
L 217.53228 -162.266188 
L 222.854486 -161.940598 
L 228.176692 -158.870464 
L 233.498897 -162.677023 
L 238.821103 -162.582658 
L 244.143308 -159.287438 
L 249.465514 -162.641642 
L 254.78772 -156.942459 
L 260.109925 -146.801741 
L 265.432131 -151.740066 
L 270.754337 -158.007884 
L 276.076542 -159.558552 
L 281.398748 -154.806927 
L 286.720954 -145.021166 
L 292.043159 -133.069824 
L 297.365365 -141.607196 
L 302.687571 -154.771768 
L 308.009776 -164.8315 
L 313.331982 -161.696932 
L 318.654188 -144.047881 
L 323.976393 -124.451632 
L 329.298599 -106.870142 
L 334.620805 -102.506615 
L 339.94301 -105.862268 
L 345.265216 -118.192369 
L 350.587422 -124.658415 
L 355.909627 -132.385067 
L 361.231833 -128.58912 
L 366.554039 -116.471435 
L 371.876244 -103.13125 
L 377.19845 -90.185726 
L 382.520656 -86.305764 
L 387.842861 -89.631203 
L 393.165067 -96.205518 
L 398.487273 -99.963123 
L 398.487273 -150.000349 
L 398.487273 -150.000349 
L 393.165067 -154.391214 
L 387.842861 -158.382171 
L 382.520656 -158.240368 
L 377.19845 -157.37647 
L 371.876244 -158.881231 
L 366.554039 -166.46154 
L 361.231833 -174.652117 
L 355.909627 -182.960695 
L 350.587422 -183.142172 
L 345.265216 -180.991472 
L 339.94301 -177.383067 
L 334.620805 -174.29924 
L 329.298599 -180.476119 
L 323.976393 -195.374008 
L 318.654188 -220.631547 
L 313.331982 -226.858283 
L 308.009776 -227.482824 
L 302.687571 -221.376532 
L 297.365365 -216.947 
L 292.043159 -214.400815 
L 286.720954 -215.945225 
L 281.398748 -226.05716 
L 276.076542 -228.665734 
L 270.754337 -229.060372 
L 265.432131 -228.748317 
L 260.109925 -231.36047 
L 254.78772 -234.61282 
L 249.465514 -234.756769 
L 244.143308 -239.096086 
L 238.821103 -239.567043 
L 233.498897 -235.956024 
L 228.176692 -233.222192 
L 222.854486 -230.615122 
L 217.53228 -225.587288 
L 212.210075 -218.27916 
L 206.887869 -204.04847 
L 201.565663 -196.381395 
L 196.243458 -194.63717 
L 190.921252 -200.220227 
L 185.599046 -212.143553 
L 180.276841 -222.00769 
L 174.954635 -228.519884 
L 169.632429 -239.756605 
L 164.310224 -249.562861 
L 158.988018 -258.981667 
L 153.665812 -250.669751 
L 148.343607 -223.187992 
L 143.021401 -187.939219 
L 137.699195 -152.630441 
L 132.37699 -127.304418 
L 127.054784 -109.200527 
L 121.732578 -104.54925 
L 116.410373 -113.920368 
L 111.088167 -127.561855 
L 105.765961 -130.725666 
L 100.443756 -134.465549 
L 95.12155 -133.651267 
L 89.799344 -132.666874 
L 84.477139 -128.958149 
L 79.154933 -123.231139 
L 73.832727 -124.586081 
z
" style="stroke: #ff7f0e; stroke-opacity: 0.2"/>
    </defs>
    <g clip-path="url(#pc1b3650081)">
     <use xlink:href="#m550460385b" x="0" y="345.6" style="fill: #ff7f0e; fill-opacity: 0.2; stroke: #ff7f0e; stroke-opacity: 0.2"/>
    </g>
   </g>
   <g id="matplotlib.axis_1">
    <g id="xtick_1">
     <g id="line2d_1">
      <defs>
       <path id="mdd41b78ab3" d="M 0 0 
L 0 3.5 
" style="stroke: #000000; stroke-width: 0.8"/>
      </defs>
      <g>
       <use xlink:href="#mdd41b78ab3" x="82.148674" y="307.584" style="stroke: #000000; stroke-width: 0.8"/>
      </g>
     </g>
     <g id="text_1">
      <text style="font: 10px 'DejaVu Sans', 'Bitstream Vera Sans', 'Computer Modern Sans Serif', 'Lucida Grande', 'Verdana', 'Geneva', 'Lucid', 'Arial', 'Helvetica', 'Avant Garde', sans-serif; text-anchor: middle" x="82.148674" y="322.182437" transform="rotate(-0 82.148674 322.182437)">−200</text>
     </g>
    </g>
    <g id="xtick_2">
     <g id="line2d_2">
      <g>
       <use xlink:href="#mdd41b78ab3" x="126.500387" y="307.584" style="stroke: #000000; stroke-width: 0.8"/>
      </g>
     </g>
     <g id="text_2">
      <text style="font: 10px 'DejaVu Sans', 'Bitstream Vera Sans', 'Computer Modern Sans Serif', 'Lucida Grande', 'Verdana', 'Geneva', 'Lucid', 'Arial', 'Helvetica', 'Avant Garde', sans-serif; text-anchor: middle" x="126.500387" y="322.182437" transform="rotate(-0 126.500387 322.182437)">0</text>
     </g>
    </g>
    <g id="xtick_3">
     <g id="line2d_3">
      <g>
       <use xlink:href="#mdd41b78ab3" x="170.852101" y="307.584" style="stroke: #000000; stroke-width: 0.8"/>
      </g>
     </g>
     <g id="text_3">
      <text style="font: 10px 'DejaVu Sans', 'Bitstream Vera Sans', 'Computer Modern Sans Serif', 'Lucida Grande', 'Verdana', 'Geneva', 'Lucid', 'Arial', 'Helvetica', 'Avant Garde', sans-serif; text-anchor: middle" x="170.852101" y="322.182437" transform="rotate(-0 170.852101 322.182437)">200</text>
     </g>
    </g>
    <g id="xtick_4">
     <g id="line2d_4">
      <g>
       <use xlink:href="#mdd41b78ab3" x="215.203815" y="307.584" style="stroke: #000000; stroke-width: 0.8"/>
      </g>
     </g>
     <g id="text_4">
      <text style="font: 10px 'DejaVu Sans', 'Bitstream Vera Sans', 'Computer Modern Sans Serif', 'Lucida Grande', 'Verdana', 'Geneva', 'Lucid', 'Arial', 'Helvetica', 'Avant Garde', sans-serif; text-anchor: middle" x="215.203815" y="322.182437" transform="rotate(-0 215.203815 322.182437)">400</text>
     </g>
    </g>
    <g id="xtick_5">
     <g id="line2d_5">
      <g>
       <use xlink:href="#mdd41b78ab3" x="259.555529" y="307.584" style="stroke: #000000; stroke-width: 0.8"/>
      </g>
     </g>
     <g id="text_5">
      <text style="font: 10px 'DejaVu Sans', 'Bitstream Vera Sans', 'Computer Modern Sans Serif', 'Lucida Grande', 'Verdana', 'Geneva', 'Lucid', 'Arial', 'Helvetica', 'Avant Garde', sans-serif; text-anchor: middle" x="259.555529" y="322.182437" transform="rotate(-0 259.555529 322.182437)">600</text>
     </g>
    </g>
    <g id="xtick_6">
     <g id="line2d_6">
      <g>
       <use xlink:href="#mdd41b78ab3" x="303.907243" y="307.584" style="stroke: #000000; stroke-width: 0.8"/>
      </g>
     </g>
     <g id="text_6">
      <text style="font: 10px 'DejaVu Sans', 'Bitstream Vera Sans', 'Computer Modern Sans Serif', 'Lucida Grande', 'Verdana', 'Geneva', 'Lucid', 'Arial', 'Helvetica', 'Avant Garde', sans-serif; text-anchor: middle" x="303.907243" y="322.182437" transform="rotate(-0 303.907243 322.182437)">800</text>
     </g>
    </g>
    <g id="xtick_7">
     <g id="line2d_7">
      <g>
       <use xlink:href="#mdd41b78ab3" x="348.258957" y="307.584" style="stroke: #000000; stroke-width: 0.8"/>
      </g>
     </g>
     <g id="text_7">
      <text style="font: 10px 'DejaVu Sans', 'Bitstream Vera Sans', 'Computer Modern Sans Serif', 'Lucida Grande', 'Verdana', 'Geneva', 'Lucid', 'Arial', 'Helvetica', 'Avant Garde', sans-serif; text-anchor: middle" x="348.258957" y="322.182437" transform="rotate(-0 348.258957 322.182437)">1000</text>
     </g>
    </g>
    <g id="xtick_8">
     <g id="line2d_8">
      <g>
       <use xlink:href="#mdd41b78ab3" x="392.610671" y="307.584" style="stroke: #000000; stroke-width: 0.8"/>
      </g>
     </g>
     <g id="text_8">
      <text style="font: 10px 'DejaVu Sans', 'Bitstream Vera Sans', 'Computer Modern Sans Serif', 'Lucida Grande', 'Verdana', 'Geneva', 'Lucid', 'Arial', 'Helvetica', 'Avant Garde', sans-serif; text-anchor: middle" x="392.610671" y="322.182437" transform="rotate(-0 392.610671 322.182437)">1200</text>
     </g>
    </g>
    <g id="text_9">
     <text style="font: 10px 'DejaVu Sans', 'Bitstream Vera Sans', 'Computer Modern Sans Serif', 'Lucida Grande', 'Verdana', 'Geneva', 'Lucid', 'Arial', 'Helvetica', 'Avant Garde', sans-serif; text-anchor: middle" x="236.16" y="335.860562" transform="rotate(-0 236.16 335.860562)">time</text>
    </g>
   </g>
   <g id="matplotlib.axis_2">
    <g id="ytick_1">
     <g id="line2d_9">
      <defs>
       <path id="mf779019577" d="M 0 0 
L -3.5 0 
" style="stroke: #000000; stroke-width: 0.8"/>
      </defs>
      <g>
       <use xlink:href="#mf779019577" x="57.6" y="277.892705" style="stroke: #000000; stroke-width: 0.8"/>
      </g>
     </g>
     <g id="text_10">
      <text style="font: 10px 'DejaVu Sans', 'Bitstream Vera Sans', 'Computer Modern Sans Serif', 'Lucida Grande', 'Verdana', 'Geneva', 'Lucid', 'Arial', 'Helvetica', 'Avant Garde', sans-serif; text-anchor: end" x="50.6" y="281.691924" transform="rotate(-0 50.6 281.691924)">−0.025</text>
     </g>
    </g>
    <g id="ytick_2">
     <g id="line2d_10">
      <g>
       <use xlink:href="#mf779019577" x="57.6" y="241.36206" style="stroke: #000000; stroke-width: 0.8"/>
      </g>
     </g>
     <g id="text_11">
      <text style="font: 10px 'DejaVu Sans', 'Bitstream Vera Sans', 'Computer Modern Sans Serif', 'Lucida Grande', 'Verdana', 'Geneva', 'Lucid', 'Arial', 'Helvetica', 'Avant Garde', sans-serif; text-anchor: end" x="50.6" y="245.161279" transform="rotate(-0 50.6 245.161279)">0.000</text>
     </g>
    </g>
    <g id="ytick_3">
     <g id="line2d_11">
      <g>
       <use xlink:href="#mf779019577" x="57.6" y="204.831415" style="stroke: #000000; stroke-width: 0.8"/>
      </g>
     </g>
     <g id="text_12">
      <text style="font: 10px 'DejaVu Sans', 'Bitstream Vera Sans', 'Computer Modern Sans Serif', 'Lucida Grande', 'Verdana', 'Geneva', 'Lucid', 'Arial', 'Helvetica', 'Avant Garde', sans-serif; text-anchor: end" x="50.6" y="208.630633" transform="rotate(-0 50.6 208.630633)">0.025</text>
     </g>
    </g>
    <g id="ytick_4">
     <g id="line2d_12">
      <g>
       <use xlink:href="#mf779019577" x="57.6" y="168.300769" style="stroke: #000000; stroke-width: 0.8"/>
      </g>
     </g>
     <g id="text_13">
      <text style="font: 10px 'DejaVu Sans', 'Bitstream Vera Sans', 'Computer Modern Sans Serif', 'Lucida Grande', 'Verdana', 'Geneva', 'Lucid', 'Arial', 'Helvetica', 'Avant Garde', sans-serif; text-anchor: end" x="50.6" y="172.099988" transform="rotate(-0 50.6 172.099988)">0.050</text>
     </g>
    </g>
    <g id="ytick_5">
     <g id="line2d_13">
      <g>
       <use xlink:href="#mf779019577" x="57.6" y="131.770124" style="stroke: #000000; stroke-width: 0.8"/>
      </g>
     </g>
     <g id="text_14">
      <text style="font: 10px 'DejaVu Sans', 'Bitstream Vera Sans', 'Computer Modern Sans Serif', 'Lucida Grande', 'Verdana', 'Geneva', 'Lucid', 'Arial', 'Helvetica', 'Avant Garde', sans-serif; text-anchor: end" x="50.6" y="135.569343" transform="rotate(-0 50.6 135.569343)">0.075</text>
     </g>
    </g>
    <g id="ytick_6">
     <g id="line2d_14">
      <g>
       <use xlink:href="#mf779019577" x="57.6" y="95.239479" style="stroke: #000000; stroke-width: 0.8"/>
      </g>
     </g>
     <g id="text_15">
      <text style="font: 10px 'DejaVu Sans', 'Bitstream Vera Sans', 'Computer Modern Sans Serif', 'Lucida Grande', 'Verdana', 'Geneva', 'Lucid', 'Arial', 'Helvetica', 'Avant Garde', sans-serif; text-anchor: end" x="50.6" y="99.038698" transform="rotate(-0 50.6 99.038698)">0.100</text>
     </g>
    </g>
    <g id="ytick_7">
     <g id="line2d_15">
      <g>
       <use xlink:href="#mf779019577" x="57.6" y="58.708834" style="stroke: #000000; stroke-width: 0.8"/>
      </g>
     </g>
     <g id="text_16">
      <text style="font: 10px 'DejaVu Sans', 'Bitstream Vera Sans', 'Computer Modern Sans Serif', 'Lucida Grande', 'Verdana', 'Geneva', 'Lucid', 'Arial', 'Helvetica', 'Avant Garde', sans-serif; text-anchor: end" x="50.6" y="62.508053" transform="rotate(-0 50.6 62.508053)">0.125</text>
     </g>
    </g>
    <g id="text_17">
     <text style="font: 10px 'DejaVu Sans', 'Bitstream Vera Sans', 'Computer Modern Sans Serif', 'Lucida Grande', 'Verdana', 'Geneva', 'Lucid', 'Arial', 'Helvetica', 'Avant Garde', sans-serif; text-anchor: middle" x="7.5125" y="174.528" transform="rotate(-90 7.5125 174.528)">Slope</text>
    </g>
   </g>
   <g id="line2d_16">
    <path d="M 73.832727 230.098814 
L 79.154933 230.132627 
L 84.477139 228.285492 
L 89.799344 234.70824 
L 95.12155 244.996073 
L 100.443756 251.591127 
L 105.765961 250.864657 
L 111.088167 250.650709 
L 116.410373 253.438791 
L 121.732578 257.032036 
L 127.054784 254.319072 
L 132.37699 241.328155 
L 137.699195 226.103843 
L 143.021401 208.82288 
L 148.343607 181.338848 
L 153.665812 156.29657 
L 158.988018 135.180255 
L 164.310224 123.563329 
L 169.632429 125.623609 
L 174.954635 128.903461 
L 180.276841 118.634185 
L 185.599046 104.614912 
L 190.921252 106.559677 
L 196.243458 104.885737 
L 201.565663 104.832219 
L 206.887869 110.566098 
L 212.210075 117.092137 
L 217.53228 116.579594 
L 222.854486 115.37958 
L 228.176692 119.075148 
L 233.498897 115.48086 
L 238.821103 109.850593 
L 244.143308 104.319386 
L 249.465514 102.823953 
L 254.78772 102.781277 
L 260.109925 106.653037 
L 265.432131 109.846293 
L 270.754337 111.03314 
L 276.076542 111.904221 
L 281.398748 115.557156 
L 286.720954 121.709523 
L 292.043159 130.669789 
L 297.365365 137.583889 
L 302.687571 139.669407 
L 308.009776 142.487022 
L 313.331982 145.504785 
L 318.654188 144.342253 
L 323.976393 148.249763 
L 329.298599 159.228177 
L 334.620805 167.246099 
L 339.94301 171.114442 
L 345.265216 169.09056 
L 350.587422 165.792621 
L 355.909627 163.521136 
L 361.231833 162.601517 
L 366.554039 165.020319 
L 371.876244 168.439282 
L 377.19845 173.876041 
L 382.520656 185.641498 
L 387.842861 198.456942 
L 393.165067 207.521703 
L 398.487273 210.297688 
" clip-path="url(#pc1b3650081)" style="fill: none; stroke: #1f77b4; stroke-width: 1.5; stroke-linecap: square"/>
   </g>
   <g id="line2d_17">
    <path d="M 73.832727 259.497374 
L 79.154933 252.319324 
L 84.477139 240.730812 
L 89.799344 238.266918 
L 95.12155 238.081185 
L 100.443756 238.355836 
L 105.765961 236.463143 
L 111.088167 235.45705 
L 116.410373 240.289311 
L 121.732578 244.88899 
L 127.054784 250.877278 
L 132.37699 250.692343 
L 137.699195 239.592504 
L 143.021401 223.407826 
L 148.343607 188.528316 
L 153.665812 159.235148 
L 158.988018 141.380689 
L 164.310224 130.050859 
L 169.632429 117.398898 
L 174.954635 107.968427 
L 180.276841 104.479583 
L 185.599046 104.188969 
L 190.921252 106.924734 
L 196.243458 102.59026 
L 201.565663 97.512919 
L 206.887869 100.088349 
L 212.210075 110.270835 
L 217.53228 119.291366 
L 222.854486 122.413921 
L 228.176692 122.31149 
L 233.498897 121.696644 
L 238.821103 117.790367 
L 244.143308 115.701213 
L 249.465514 117.576669 
L 254.78772 120.469588 
L 260.109925 121.138837 
L 265.432131 123.347485 
L 270.754337 126.04918 
L 276.076542 130.36511 
L 281.398748 139.451504 
L 286.720954 152.632438 
L 292.043159 165.531209 
L 297.365365 172.058597 
L 302.687571 173.559996 
L 308.009776 177.750038 
L 313.331982 186.873392 
L 318.654188 190.281149 
L 323.976393 193.330546 
L 329.298599 192.03335 
L 334.620805 187.012464 
L 339.94301 183.953571 
L 345.265216 183.45939 
L 350.587422 184.101185 
L 355.909627 185.270571 
L 361.231833 189.139263 
L 366.554039 191.142834 
L 371.876244 193.511151 
L 377.19845 196.699014 
L 382.520656 193.539605 
L 387.842861 189.326863 
L 393.165067 191.120842 
L 398.487273 195.680687 
" clip-path="url(#pc1b3650081)" style="fill: none; stroke-dasharray: 6,2.25; stroke-dashoffset: 0; stroke: #1f77b4; stroke-width: 1.5"/>
   </g>
   <g id="line2d_18">
    <path d="M 73.832727 238.769717 
L 79.154933 231.263853 
L 84.477139 225.378059 
L 89.799344 230.187818 
L 95.12155 245.952544 
L 100.443756 256.720777 
L 105.765961 250.095206 
L 111.088167 239.045125 
L 116.410373 233.602071 
L 121.732578 234.610456 
L 127.054784 231.400782 
L 132.37699 216.331416 
L 137.699195 192.625812 
L 143.021401 165.546474 
L 148.343607 136.38728 
L 153.665812 117.565806 
L 158.988018 109.059207 
L 164.310224 105.093711 
L 169.632429 113.272331 
L 174.954635 131.756184 
L 180.276841 148.927143 
L 185.599046 154.491245 
L 190.921252 155.103324 
L 196.243458 157.891477 
L 201.565663 164.544275 
L 206.887869 166.45751 
L 212.210075 162.601718 
L 217.53228 157.147563 
L 222.854486 150.545363 
L 228.176692 140.444752 
L 233.498897 127.334175 
L 238.821103 124.672113 
L 244.143308 129.930736 
L 249.465514 138.200125 
L 254.78772 144.654464 
L 260.109925 147.03392 
L 265.432131 145.436535 
L 270.754337 144.818176 
L 276.076542 147.277853 
L 281.398748 153.180841 
L 286.720954 163.408326 
L 292.043159 168.073262 
L 297.365365 163.733797 
L 302.687571 161.628489 
L 308.009776 165.969719 
L 313.331982 172.669446 
L 318.654188 176.798941 
L 323.976393 182.039682 
L 329.298599 182.2639 
L 334.620805 179.517768 
L 339.94301 173.761821 
L 345.265216 166.483408 
L 350.587422 164.172441 
L 355.909627 167.531124 
L 361.231833 172.89667 
L 366.554039 179.144736 
L 371.876244 191.959646 
L 377.19845 203.495951 
L 382.520656 208.086987 
L 387.842861 204.210841 
L 393.165067 200.0985 
L 398.487273 198.265627 
" clip-path="url(#pc1b3650081)" style="fill: none; stroke: #ff7f0e; stroke-width: 1.5; stroke-linecap: square"/>
   </g>
   <g id="line2d_19">
    <path d="M 73.832727 246.259276 
L 79.154933 247.199355 
L 84.477139 240.384056 
L 89.799344 235.882081 
L 95.12155 235.528105 
L 100.443756 238.258199 
L 105.765961 242.425839 
L 111.088167 247.735576 
L 116.410373 258.431965 
L 121.732578 263.601879 
L 127.054784 256.822888 
L 132.37699 241.473918 
L 137.699195 218.680978 
L 143.021401 184.960754 
L 148.343607 150.69812 
L 153.665812 124.715269 
L 158.988018 119.630457 
L 164.310224 125.191741 
L 169.632429 132.884863 
L 174.954635 141.198572 
L 180.276841 147.867399 
L 185.599046 157.215864 
L 190.921252 168.611917 
L 196.243458 174.415159 
L 201.565663 172.527828 
L 206.887869 164.605243 
L 212.210075 157.176985 
L 217.53228 151.464953 
L 222.854486 148.405543 
L 228.176692 147.757611 
L 233.498897 145.674002 
L 238.821103 144.714459 
L 244.143308 145.928884 
L 249.465514 147.8744 
L 254.78772 149.123205 
L 260.109925 154.239496 
L 265.432131 155.256206 
L 270.754337 153.595213 
L 276.076542 151.940017 
L 281.398748 155.158117 
L 286.720954 164.224636 
L 292.043159 169.223373 
L 297.365365 165.801521 
L 302.687571 156.709066 
L 308.009776 148.207477 
L 313.331982 150.082454 
L 318.654188 163.783631 
L 323.976393 185.638228 
L 329.298599 201.877298 
L 334.620805 207.505892 
L 339.94301 204.203838 
L 345.265216 197.612403 
L 350.587422 190.398016 
L 355.909627 187.381459 
L 361.231833 193.181118 
L 366.554039 203.565649 
L 371.876244 213.899211 
L 377.19845 221.914641 
L 382.520656 223.102508 
L 387.842861 221.277344 
L 393.165067 220.228462 
L 398.487273 221.589125 
" clip-path="url(#pc1b3650081)" style="fill: none; stroke-dasharray: 6,2.25; stroke-dashoffset: 0; stroke: #ff7f0e; stroke-width: 1.5"/>
   </g>
   <g id="line2d_20"/>
   <g id="line2d_21"/>
   <g id="line2d_22"/>
   <g id="line2d_23"/>
   <g id="patch_3">
    <path d="M 57.6 307.584 
L 57.6 41.472 
" style="fill: none; stroke: #000000; stroke-width: 0.8; stroke-linejoin: miter; stroke-linecap: square"/>
   </g>
   <g id="patch_4">
    <path d="M 414.72 307.584 
L 414.72 41.472 
" style="fill: none; stroke: #000000; stroke-width: 0.8; stroke-linejoin: miter; stroke-linecap: square"/>
   </g>
   <g id="patch_5">
    <path d="M 57.6 307.584 
L 414.72 307.584 
" style="fill: none; stroke: #000000; stroke-width: 0.8; stroke-linejoin: miter; stroke-linecap: square"/>
   </g>
   <g id="patch_6">
    <path d="M 57.6 41.472 
L 414.72 41.472 
" style="fill: none; stroke: #000000; stroke-width: 0.8; stroke-linejoin: miter; stroke-linecap: square"/>
   </g>
   <g id="legend_1">
    <g id="patch_7">
     <path d="M 318.780937 137.54075 
L 407.72 137.54075 
Q 409.72 137.54075 409.72 135.54075 
L 409.72 48.472 
Q 409.72 46.472 407.72 46.472 
L 318.780937 46.472 
Q 316.780937 46.472 316.780937 48.472 
L 316.780937 135.54075 
Q 316.780937 137.54075 318.780937 137.54075 
z
" style="fill: #ffffff; opacity: 0.8; stroke: #cccccc; stroke-linejoin: miter"/>
    </g>
    <g id="text_18">
     <text style="font: 10px 'DejaVu Sans', 'Bitstream Vera Sans', 'Computer Modern Sans Serif', 'Lucida Grande', 'Verdana', 'Geneva', 'Lucid', 'Arial', 'Helvetica', 'Avant Garde', sans-serif; text-anchor: start" x="328.780937" y="58.070438" transform="rotate(-0 328.780937 58.070438)">width</text>
    </g>
    <g id="line2d_24">
     <path d="M 320.780937 69.248563 
L 330.780937 69.248563 
L 340.780937 69.248563 
" style="fill: none; stroke: #1f77b4; stroke-width: 1.5; stroke-linecap: square"/>
    </g>
    <g id="text_19">
     <text style="font: 10px 'DejaVu Sans', 'Bitstream Vera Sans', 'Computer Modern Sans Serif', 'Lucida Grande', 'Verdana', 'Geneva', 'Lucid', 'Arial', 'Helvetica', 'Avant Garde', sans-serif; text-anchor: start" x="348.780937" y="72.748563" transform="rotate(-0 348.780937 72.748563)">Narrow</text>
    </g>
    <g id="line2d_25">
     <path d="M 320.780937 83.926688 
L 330.780937 83.926688 
L 340.780937 83.926688 
" style="fill: none; stroke: #ff7f0e; stroke-width: 1.5; stroke-linecap: square"/>
    </g>
    <g id="text_20">
     <text style="font: 10px 'DejaVu Sans', 'Bitstream Vera Sans', 'Computer Modern Sans Serif', 'Lucida Grande', 'Verdana', 'Geneva', 'Lucid', 'Arial', 'Helvetica', 'Avant Garde', sans-serif; text-anchor: start" x="348.780937" y="87.426688" transform="rotate(-0 348.780937 87.426688)">Broad</text>
    </g>
    <g id="text_21">
     <text style="font: 10px 'DejaVu Sans', 'Bitstream Vera Sans', 'Computer Modern Sans Serif', 'Lucida Grande', 'Verdana', 'Geneva', 'Lucid', 'Arial', 'Helvetica', 'Avant Garde', sans-serif; text-anchor: start" x="328.780937" y="102.104813" transform="rotate(-0 328.780937 102.104813)">location</text>
    </g>
    <g id="line2d_26">
     <path d="M 320.780937 113.282938 
L 330.780937 113.282938 
L 340.780937 113.282938 
" style="fill: none; stroke: #333333; stroke-width: 1.5; stroke-linecap: square"/>
    </g>
    <g id="text_22">
     <text style="font: 10px 'DejaVu Sans', 'Bitstream Vera Sans', 'Computer Modern Sans Serif', 'Lucida Grande', 'Verdana', 'Geneva', 'Lucid', 'Arial', 'Helvetica', 'Avant Garde', sans-serif; text-anchor: start" x="348.780937" y="116.782938" transform="rotate(-0 348.780937 116.782938)">Centralized</text>
    </g>
    <g id="line2d_27">
     <path d="M 320.780937 127.961063 
L 330.780937 127.961063 
L 340.780937 127.961063 
" style="fill: none; stroke-dasharray: 6,2.25; stroke-dashoffset: 0; stroke: #333333; stroke-width: 1.5"/>
    </g>
    <g id="text_23">
     <text style="font: 10px 'DejaVu Sans', 'Bitstream Vera Sans', 'Computer Modern Sans Serif', 'Lucida Grande', 'Verdana', 'Geneva', 'Lucid', 'Arial', 'Helvetica', 'Avant Garde', sans-serif; text-anchor: start" x="348.780937" y="131.461063" transform="rotate(-0 348.780937 131.461063)">Lateralized</text>
    </g>
   </g>
  </g>
 </g>
 <defs>
  <clipPath id="pc1b3650081">
   <rect x="57.6" y="41.472" width="357.12" height="266.112"/>
  </clipPath>
 </defs>
</svg>
