<?xml version="1.0" encoding="utf-8" standalone="no"?>
<!DOCTYPE svg PUBLIC "-//W3C//DTD SVG 1.1//EN"
  "http://www.w3.org/Graphics/SVG/1.1/DTD/svg11.dtd">
<svg xmlns:xlink="http://www.w3.org/1999/xlink" width="504pt" height="504pt" viewBox="0 0 504 504" xmlns="http://www.w3.org/2000/svg" version="1.1">
 <metadata>
  <rdf:RDF xmlns:dc="http://purl.org/dc/elements/1.1/" xmlns:cc="http://creativecommons.org/ns#" xmlns:rdf="http://www.w3.org/1999/02/22-rdf-syntax-ns#">
   <cc:Work>
    <dc:type rdf:resource="http://purl.org/dc/dcmitype/StillImage"/>
    <dc:date>2024-01-29T13:08:33.740844</dc:date>
    <dc:format>image/svg+xml</dc:format>
    <dc:creator>
     <cc:Agent>
      <dc:title>Matplotlib v3.7.1, https://matplotlib.org/</dc:title>
     </cc:Agent>
    </dc:creator>
   </cc:Work>
  </rdf:RDF>
 </metadata>
 <defs>
  <style type="text/css">*{stroke-linejoin: round; stroke-linecap: butt}</style>
 </defs>
 <g id="figure_1">
  <g id="patch_1">
   <path d="M 0 504 
L 504 504 
L 504 0 
L 0 0 
z
" style="fill: #ffffff"/>
  </g>
  <g id="axes_1">
   <g id="patch_2">
    <path d="M 130.75 404.127732 
L 493.2 404.127732 
L 493.2 41.677732 
L 130.75 41.677732 
z
" style="fill: #ffffff"/>
   </g>
   <g id="QuadMesh_1">
    <path d="M 130.75 41.677732 
L 171.022222 41.677732 
L 171.022222 81.949954 
L 130.75 81.949954 
L 130.75 41.677732 
" clip-path="url(#p31760f4ca2)"/>
    <path d="M 171.022222 41.677732 
L 211.294444 41.677732 
L 211.294444 81.949954 
L 171.022222 81.949954 
L 171.022222 41.677732 
" clip-path="url(#p31760f4ca2)" style="fill: #666464"/>
    <path d="M 211.294444 41.677732 
L 251.566667 41.677732 
L 251.566667 81.949954 
L 211.294444 81.949954 
L 211.294444 41.677732 
" clip-path="url(#p31760f4ca2)"/>
    <path d="M 251.566667 41.677732 
L 291.838889 41.677732 
L 291.838889 81.949954 
L 251.566667 81.949954 
L 251.566667 41.677732 
" clip-path="url(#p31760f4ca2)" style="fill: #666464"/>
    <path d="M 291.838889 41.677732 
L 332.111111 41.677732 
L 332.111111 81.949954 
L 291.838889 81.949954 
L 291.838889 41.677732 
" clip-path="url(#p31760f4ca2)" style="fill: #666464"/>
    <path d="M 332.111111 41.677732 
L 372.383333 41.677732 
L 372.383333 81.949954 
L 332.111111 81.949954 
L 332.111111 41.677732 
" clip-path="url(#p31760f4ca2)" style="fill: #b3afaf"/>
    <path d="M 372.383333 41.677732 
L 412.655556 41.677732 
L 412.655556 81.949954 
L 372.383333 81.949954 
L 372.383333 41.677732 
" clip-path="url(#p31760f4ca2)" style="fill: #999696"/>
    <path d="M 412.655556 41.677732 
L 452.927778 41.677732 
L 452.927778 81.949954 
L 412.655556 81.949954 
L 412.655556 41.677732 
" clip-path="url(#p31760f4ca2)" style="fill: #333232"/>
    <path d="M 452.927778 41.677732 
L 493.2 41.677732 
L 493.2 81.949954 
L 452.927778 81.949954 
L 452.927778 41.677732 
" clip-path="url(#p31760f4ca2)" style="fill: #fffafa"/>
    <path d="M 130.75 81.949954 
L 171.022222 81.949954 
L 171.022222 122.222176 
L 130.75 122.222176 
L 130.75 81.949954 
" clip-path="url(#p31760f4ca2)" style="fill: #666464"/>
    <path d="M 171.022222 81.949954 
L 211.294444 81.949954 
L 211.294444 122.222176 
L 171.022222 122.222176 
L 171.022222 81.949954 
" clip-path="url(#p31760f4ca2)"/>
    <path d="M 211.294444 81.949954 
L 251.566667 81.949954 
L 251.566667 122.222176 
L 211.294444 122.222176 
L 211.294444 81.949954 
" clip-path="url(#p31760f4ca2)" style="fill: #666464"/>
    <path d="M 251.566667 81.949954 
L 291.838889 81.949954 
L 291.838889 122.222176 
L 251.566667 122.222176 
L 251.566667 81.949954 
" clip-path="url(#p31760f4ca2)"/>
    <path d="M 291.838889 81.949954 
L 332.111111 81.949954 
L 332.111111 122.222176 
L 291.838889 122.222176 
L 291.838889 81.949954 
" clip-path="url(#p31760f4ca2)"/>
    <path d="M 332.111111 81.949954 
L 372.383333 81.949954 
L 372.383333 122.222176 
L 332.111111 122.222176 
L 332.111111 81.949954 
" clip-path="url(#p31760f4ca2)" style="fill: #4c4b4b"/>
    <path d="M 372.383333 81.949954 
L 412.655556 81.949954 
L 412.655556 122.222176 
L 372.383333 122.222176 
L 372.383333 81.949954 
" clip-path="url(#p31760f4ca2)" style="fill: #333232"/>
    <path d="M 412.655556 81.949954 
L 452.927778 81.949954 
L 452.927778 122.222176 
L 412.655556 122.222176 
L 412.655556 81.949954 
" clip-path="url(#p31760f4ca2)" style="fill: #333232"/>
    <path d="M 452.927778 81.949954 
L 493.2 81.949954 
L 493.2 122.222176 
L 452.927778 122.222176 
L 452.927778 81.949954 
" clip-path="url(#p31760f4ca2)" style="fill: #999696"/>
    <path d="M 130.75 122.222176 
L 171.022222 122.222176 
L 171.022222 162.494399 
L 130.75 162.494399 
L 130.75 122.222176 
" clip-path="url(#p31760f4ca2)"/>
    <path d="M 171.022222 122.222176 
L 211.294444 122.222176 
L 211.294444 162.494399 
L 171.022222 162.494399 
L 171.022222 122.222176 
" clip-path="url(#p31760f4ca2)" style="fill: #666464"/>
    <path d="M 211.294444 122.222176 
L 251.566667 122.222176 
L 251.566667 162.494399 
L 211.294444 162.494399 
L 211.294444 122.222176 
" clip-path="url(#p31760f4ca2)"/>
    <path d="M 251.566667 122.222176 
L 291.838889 122.222176 
L 291.838889 162.494399 
L 251.566667 162.494399 
L 251.566667 122.222176 
" clip-path="url(#p31760f4ca2)" style="fill: #666464"/>
    <path d="M 291.838889 122.222176 
L 332.111111 122.222176 
L 332.111111 162.494399 
L 291.838889 162.494399 
L 291.838889 122.222176 
" clip-path="url(#p31760f4ca2)" style="fill: #666464"/>
    <path d="M 332.111111 122.222176 
L 372.383333 122.222176 
L 372.383333 162.494399 
L 332.111111 162.494399 
L 332.111111 122.222176 
" clip-path="url(#p31760f4ca2)" style="fill: #b3afaf"/>
    <path d="M 372.383333 122.222176 
L 412.655556 122.222176 
L 412.655556 162.494399 
L 372.383333 162.494399 
L 372.383333 122.222176 
" clip-path="url(#p31760f4ca2)" style="fill: #999696"/>
    <path d="M 412.655556 122.222176 
L 452.927778 122.222176 
L 452.927778 162.494399 
L 412.655556 162.494399 
L 412.655556 122.222176 
" clip-path="url(#p31760f4ca2)" style="fill: #333232"/>
    <path d="M 452.927778 122.222176 
L 493.2 122.222176 
L 493.2 162.494399 
L 452.927778 162.494399 
L 452.927778 122.222176 
" clip-path="url(#p31760f4ca2)" style="fill: #fffafa"/>
    <path d="M 130.75 162.494399 
L 171.022222 162.494399 
L 171.022222 202.766621 
L 130.75 202.766621 
L 130.75 162.494399 
" clip-path="url(#p31760f4ca2)" style="fill: #666464"/>
    <path d="M 171.022222 162.494399 
L 211.294444 162.494399 
L 211.294444 202.766621 
L 171.022222 202.766621 
L 171.022222 162.494399 
" clip-path="url(#p31760f4ca2)"/>
    <path d="M 211.294444 162.494399 
L 251.566667 162.494399 
L 251.566667 202.766621 
L 211.294444 202.766621 
L 211.294444 162.494399 
" clip-path="url(#p31760f4ca2)" style="fill: #666464"/>
    <path d="M 251.566667 162.494399 
L 291.838889 162.494399 
L 291.838889 202.766621 
L 251.566667 202.766621 
L 251.566667 162.494399 
" clip-path="url(#p31760f4ca2)"/>
    <path d="M 291.838889 162.494399 
L 332.111111 162.494399 
L 332.111111 202.766621 
L 291.838889 202.766621 
L 291.838889 162.494399 
" clip-path="url(#p31760f4ca2)"/>
    <path d="M 332.111111 162.494399 
L 372.383333 162.494399 
L 372.383333 202.766621 
L 332.111111 202.766621 
L 332.111111 162.494399 
" clip-path="url(#p31760f4ca2)" style="fill: #4c4b4b"/>
    <path d="M 372.383333 162.494399 
L 412.655556 162.494399 
L 412.655556 202.766621 
L 372.383333 202.766621 
L 372.383333 162.494399 
" clip-path="url(#p31760f4ca2)" style="fill: #333232"/>
    <path d="M 412.655556 162.494399 
L 452.927778 162.494399 
L 452.927778 202.766621 
L 412.655556 202.766621 
L 412.655556 162.494399 
" clip-path="url(#p31760f4ca2)" style="fill: #333232"/>
    <path d="M 452.927778 162.494399 
L 493.2 162.494399 
L 493.2 202.766621 
L 452.927778 202.766621 
L 452.927778 162.494399 
" clip-path="url(#p31760f4ca2)" style="fill: #999696"/>
    <path d="M 130.75 202.766621 
L 171.022222 202.766621 
L 171.022222 243.038843 
L 130.75 243.038843 
L 130.75 202.766621 
" clip-path="url(#p31760f4ca2)" style="fill: #666464"/>
    <path d="M 171.022222 202.766621 
L 211.294444 202.766621 
L 211.294444 243.038843 
L 171.022222 243.038843 
L 171.022222 202.766621 
" clip-path="url(#p31760f4ca2)"/>
    <path d="M 211.294444 202.766621 
L 251.566667 202.766621 
L 251.566667 243.038843 
L 211.294444 243.038843 
L 211.294444 202.766621 
" clip-path="url(#p31760f4ca2)" style="fill: #666464"/>
    <path d="M 251.566667 202.766621 
L 291.838889 202.766621 
L 291.838889 243.038843 
L 251.566667 243.038843 
L 251.566667 202.766621 
" clip-path="url(#p31760f4ca2)"/>
    <path d="M 291.838889 202.766621 
L 332.111111 202.766621 
L 332.111111 243.038843 
L 291.838889 243.038843 
L 291.838889 202.766621 
" clip-path="url(#p31760f4ca2)"/>
    <path d="M 332.111111 202.766621 
L 372.383333 202.766621 
L 372.383333 243.038843 
L 332.111111 243.038843 
L 332.111111 202.766621 
" clip-path="url(#p31760f4ca2)" style="fill: #4c4b4b"/>
    <path d="M 372.383333 202.766621 
L 412.655556 202.766621 
L 412.655556 243.038843 
L 372.383333 243.038843 
L 372.383333 202.766621 
" clip-path="url(#p31760f4ca2)" style="fill: #333232"/>
    <path d="M 412.655556 202.766621 
L 452.927778 202.766621 
L 452.927778 243.038843 
L 412.655556 243.038843 
L 412.655556 202.766621 
" clip-path="url(#p31760f4ca2)" style="fill: #333232"/>
    <path d="M 452.927778 202.766621 
L 493.2 202.766621 
L 493.2 243.038843 
L 452.927778 243.038843 
L 452.927778 202.766621 
" clip-path="url(#p31760f4ca2)" style="fill: #999696"/>
    <path d="M 130.75 243.038843 
L 171.022222 243.038843 
L 171.022222 283.311065 
L 130.75 283.311065 
L 130.75 243.038843 
" clip-path="url(#p31760f4ca2)" style="fill: #b3afaf"/>
    <path d="M 171.022222 243.038843 
L 211.294444 243.038843 
L 211.294444 283.311065 
L 171.022222 283.311065 
L 171.022222 243.038843 
" clip-path="url(#p31760f4ca2)" style="fill: #4c4b4b"/>
    <path d="M 211.294444 243.038843 
L 251.566667 243.038843 
L 251.566667 283.311065 
L 211.294444 283.311065 
L 211.294444 243.038843 
" clip-path="url(#p31760f4ca2)" style="fill: #b3afaf"/>
    <path d="M 251.566667 243.038843 
L 291.838889 243.038843 
L 291.838889 283.311065 
L 251.566667 283.311065 
L 251.566667 243.038843 
" clip-path="url(#p31760f4ca2)" style="fill: #4c4b4b"/>
    <path d="M 291.838889 243.038843 
L 332.111111 243.038843 
L 332.111111 283.311065 
L 291.838889 283.311065 
L 291.838889 243.038843 
" clip-path="url(#p31760f4ca2)" style="fill: #4c4b4b"/>
    <path d="M 332.111111 243.038843 
L 372.383333 243.038843 
L 372.383333 283.311065 
L 332.111111 283.311065 
L 332.111111 243.038843 
" clip-path="url(#p31760f4ca2)"/>
    <path d="M 372.383333 243.038843 
L 412.655556 243.038843 
L 412.655556 283.311065 
L 372.383333 283.311065 
L 372.383333 243.038843 
" clip-path="url(#p31760f4ca2)" style="fill: #191919"/>
    <path d="M 412.655556 243.038843 
L 452.927778 243.038843 
L 452.927778 283.311065 
L 412.655556 283.311065 
L 412.655556 243.038843 
" clip-path="url(#p31760f4ca2)" style="fill: #807d7d"/>
    <path d="M 452.927778 243.038843 
L 493.2 243.038843 
L 493.2 283.311065 
L 452.927778 283.311065 
L 452.927778 243.038843 
" clip-path="url(#p31760f4ca2)" style="fill: #4c4b4b"/>
    <path d="M 130.75 283.311065 
L 171.022222 283.311065 
L 171.022222 323.583288 
L 130.75 323.583288 
L 130.75 283.311065 
" clip-path="url(#p31760f4ca2)" style="fill: #999696"/>
    <path d="M 171.022222 283.311065 
L 211.294444 283.311065 
L 211.294444 323.583288 
L 171.022222 323.583288 
L 171.022222 283.311065 
" clip-path="url(#p31760f4ca2)" style="fill: #333232"/>
    <path d="M 211.294444 283.311065 
L 251.566667 283.311065 
L 251.566667 323.583288 
L 211.294444 323.583288 
L 211.294444 283.311065 
" clip-path="url(#p31760f4ca2)" style="fill: #999696"/>
    <path d="M 251.566667 283.311065 
L 291.838889 283.311065 
L 291.838889 323.583288 
L 251.566667 323.583288 
L 251.566667 283.311065 
" clip-path="url(#p31760f4ca2)" style="fill: #333232"/>
    <path d="M 291.838889 283.311065 
L 332.111111 283.311065 
L 332.111111 323.583288 
L 291.838889 323.583288 
L 291.838889 283.311065 
" clip-path="url(#p31760f4ca2)" style="fill: #333232"/>
    <path d="M 332.111111 283.311065 
L 372.383333 283.311065 
L 372.383333 323.583288 
L 332.111111 323.583288 
L 332.111111 283.311065 
" clip-path="url(#p31760f4ca2)" style="fill: #191919"/>
    <path d="M 372.383333 283.311065 
L 412.655556 283.311065 
L 412.655556 323.583288 
L 372.383333 323.583288 
L 372.383333 283.311065 
" clip-path="url(#p31760f4ca2)"/>
    <path d="M 412.655556 283.311065 
L 452.927778 283.311065 
L 452.927778 323.583288 
L 412.655556 323.583288 
L 412.655556 283.311065 
" clip-path="url(#p31760f4ca2)" style="fill: #666464"/>
    <path d="M 452.927778 283.311065 
L 493.2 283.311065 
L 493.2 323.583288 
L 452.927778 323.583288 
L 452.927778 283.311065 
" clip-path="url(#p31760f4ca2)" style="fill: #666464"/>
    <path d="M 130.75 323.583288 
L 171.022222 323.583288 
L 171.022222 363.85551 
L 130.75 363.85551 
L 130.75 323.583288 
" clip-path="url(#p31760f4ca2)" style="fill: #333232"/>
    <path d="M 171.022222 323.583288 
L 211.294444 323.583288 
L 211.294444 363.85551 
L 171.022222 363.85551 
L 171.022222 323.583288 
" clip-path="url(#p31760f4ca2)" style="fill: #333232"/>
    <path d="M 211.294444 323.583288 
L 251.566667 323.583288 
L 251.566667 363.85551 
L 211.294444 363.85551 
L 211.294444 323.583288 
" clip-path="url(#p31760f4ca2)" style="fill: #333232"/>
    <path d="M 251.566667 323.583288 
L 291.838889 323.583288 
L 291.838889 363.85551 
L 251.566667 363.85551 
L 251.566667 323.583288 
" clip-path="url(#p31760f4ca2)" style="fill: #333232"/>
    <path d="M 291.838889 323.583288 
L 332.111111 323.583288 
L 332.111111 363.85551 
L 291.838889 363.85551 
L 291.838889 323.583288 
" clip-path="url(#p31760f4ca2)" style="fill: #333232"/>
    <path d="M 332.111111 323.583288 
L 372.383333 323.583288 
L 372.383333 363.85551 
L 332.111111 363.85551 
L 332.111111 323.583288 
" clip-path="url(#p31760f4ca2)" style="fill: #807d7d"/>
    <path d="M 372.383333 323.583288 
L 412.655556 323.583288 
L 412.655556 363.85551 
L 372.383333 363.85551 
L 372.383333 323.583288 
" clip-path="url(#p31760f4ca2)" style="fill: #666464"/>
    <path d="M 412.655556 323.583288 
L 452.927778 323.583288 
L 452.927778 363.85551 
L 412.655556 363.85551 
L 412.655556 323.583288 
" clip-path="url(#p31760f4ca2)"/>
    <path d="M 452.927778 323.583288 
L 493.2 323.583288 
L 493.2 363.85551 
L 452.927778 363.85551 
L 452.927778 323.583288 
" clip-path="url(#p31760f4ca2)" style="fill: #ccc8c8"/>
    <path d="M 130.75 363.85551 
L 171.022222 363.85551 
L 171.022222 404.127732 
L 130.75 404.127732 
L 130.75 363.85551 
" clip-path="url(#p31760f4ca2)" style="fill: #fffafa"/>
    <path d="M 171.022222 363.85551 
L 211.294444 363.85551 
L 211.294444 404.127732 
L 171.022222 404.127732 
L 171.022222 363.85551 
" clip-path="url(#p31760f4ca2)" style="fill: #999696"/>
    <path d="M 211.294444 363.85551 
L 251.566667 363.85551 
L 251.566667 404.127732 
L 211.294444 404.127732 
L 211.294444 363.85551 
" clip-path="url(#p31760f4ca2)" style="fill: #fffafa"/>
    <path d="M 251.566667 363.85551 
L 291.838889 363.85551 
L 291.838889 404.127732 
L 251.566667 404.127732 
L 251.566667 363.85551 
" clip-path="url(#p31760f4ca2)" style="fill: #999696"/>
    <path d="M 291.838889 363.85551 
L 332.111111 363.85551 
L 332.111111 404.127732 
L 291.838889 404.127732 
L 291.838889 363.85551 
" clip-path="url(#p31760f4ca2)" style="fill: #999696"/>
    <path d="M 332.111111 363.85551 
L 372.383333 363.85551 
L 372.383333 404.127732 
L 332.111111 404.127732 
L 332.111111 363.85551 
" clip-path="url(#p31760f4ca2)" style="fill: #4c4b4b"/>
    <path d="M 372.383333 363.85551 
L 412.655556 363.85551 
L 412.655556 404.127732 
L 372.383333 404.127732 
L 372.383333 363.85551 
" clip-path="url(#p31760f4ca2)" style="fill: #666464"/>
    <path d="M 412.655556 363.85551 
L 452.927778 363.85551 
L 452.927778 404.127732 
L 412.655556 404.127732 
L 412.655556 363.85551 
" clip-path="url(#p31760f4ca2)" style="fill: #ccc8c8"/>
    <path d="M 452.927778 363.85551 
L 493.2 363.85551 
L 493.2 404.127732 
L 452.927778 404.127732 
L 452.927778 363.85551 
" clip-path="url(#p31760f4ca2)"/>
   </g>
   <g id="matplotlib.axis_1">
    <g id="xtick_1">
     <g id="line2d_1">
      <defs>
       <path id="m0b794cfb6c" d="M 0 0 
L 0 3.5 
" style="stroke: #000000; stroke-width: 0.8"/>
      </defs>
      <g>
       <use xlink:href="#m0b794cfb6c" x="150.886111" y="404.127732" style="stroke: #000000; stroke-width: 0.8"/>
      </g>
     </g>
     <g id="text_1">
      <text style="font: 10px 'DejaVu Sans', 'Bitstream Vera Sans', 'Computer Modern Sans Serif', 'Lucida Grande', 'Verdana', 'Geneva', 'Lucid', 'Arial', 'Helvetica', 'Avant Garde', sans-serif" transform="translate(99.646564 446.690984) rotate(-30)">SS1 Narrow</text>
     </g>
    </g>
    <g id="xtick_2">
     <g id="line2d_2">
      <g>
       <use xlink:href="#m0b794cfb6c" x="191.158333" y="404.127732" style="stroke: #000000; stroke-width: 0.8"/>
      </g>
     </g>
     <g id="text_2">
      <text style="font: 10px 'DejaVu Sans', 'Bitstream Vera Sans', 'Computer Modern Sans Serif', 'Lucida Grande', 'Verdana', 'Geneva', 'Lucid', 'Arial', 'Helvetica', 'Avant Garde', sans-serif" transform="translate(145.44917 443.498016) rotate(-30)">SS1 Broad</text>
     </g>
    </g>
    <g id="xtick_3">
     <g id="line2d_3">
      <g>
       <use xlink:href="#m0b794cfb6c" x="231.430556" y="404.127732" style="stroke: #000000; stroke-width: 0.8"/>
      </g>
     </g>
     <g id="text_3">
      <text style="font: 10px 'DejaVu Sans', 'Bitstream Vera Sans', 'Computer Modern Sans Serif', 'Lucida Grande', 'Verdana', 'Geneva', 'Lucid', 'Arial', 'Helvetica', 'Avant Garde', sans-serif" transform="translate(143.395754 467.934734) rotate(-30)">SS2 Overlap Narrow</text>
     </g>
    </g>
    <g id="xtick_4">
     <g id="line2d_4">
      <g>
       <use xlink:href="#m0b794cfb6c" x="271.702778" y="404.127732" style="stroke: #000000; stroke-width: 0.8"/>
      </g>
     </g>
     <g id="text_4">
      <text style="font: 10px 'DejaVu Sans', 'Bitstream Vera Sans', 'Computer Modern Sans Serif', 'Lucida Grande', 'Verdana', 'Geneva', 'Lucid', 'Arial', 'Helvetica', 'Avant Garde', sans-serif" transform="translate(189.19836 464.741766) rotate(-30)">SS2 Overlap Broad</text>
     </g>
    </g>
    <g id="xtick_5">
     <g id="line2d_5">
      <g>
       <use xlink:href="#m0b794cfb6c" x="311.975" y="404.127732" style="stroke: #000000; stroke-width: 0.8"/>
      </g>
     </g>
     <g id="text_5">
      <text style="font: 10px 'DejaVu Sans', 'Bitstream Vera Sans', 'Computer Modern Sans Serif', 'Lucida Grande', 'Verdana', 'Geneva', 'Lucid', 'Arial', 'Helvetica', 'Avant Garde', sans-serif" transform="translate(216.273167 472.361297) rotate(-30)">SS2 Overlap Superset</text>
     </g>
    </g>
    <g id="xtick_6">
     <g id="line2d_6">
      <g>
       <use xlink:href="#m0b794cfb6c" x="352.247222" y="404.127732" style="stroke: #000000; stroke-width: 0.8"/>
      </g>
     </g>
     <g id="text_6">
      <text style="font: 10px 'DejaVu Sans', 'Bitstream Vera Sans', 'Computer Modern Sans Serif', 'Lucida Grande', 'Verdana', 'Geneva', 'Lucid', 'Arial', 'Helvetica', 'Avant Garde', sans-serif" transform="translate(267.940389 465.782391) rotate(-30)">SS2 Overlap Partial</text>
     </g>
    </g>
    <g id="xtick_7">
     <g id="line2d_7">
      <g>
       <use xlink:href="#m0b794cfb6c" x="392.519444" y="404.127732" style="stroke: #000000; stroke-width: 0.8"/>
      </g>
     </g>
     <g id="text_7">
      <text style="font: 10px 'DejaVu Sans', 'Bitstream Vera Sans', 'Computer Modern Sans Serif', 'Lucida Grande', 'Verdana', 'Geneva', 'Lucid', 'Arial', 'Helvetica', 'Avant Garde', sans-serif" transform="translate(298.088233 471.627703) rotate(-30)">SS2 NoOverlap Mixed</text>
     </g>
    </g>
    <g id="xtick_8">
     <g id="line2d_8">
      <g>
       <use xlink:href="#m0b794cfb6c" x="432.791667" y="404.127732" style="stroke: #000000; stroke-width: 0.8"/>
      </g>
     </g>
     <g id="text_8">
      <text style="font: 10px 'DejaVu Sans', 'Bitstream Vera Sans', 'Computer Modern Sans Serif', 'Lucida Grande', 'Verdana', 'Geneva', 'Lucid', 'Arial', 'Helvetica', 'Avant Garde', sans-serif" transform="translate(332.978919 474.734734) rotate(-30)">SS2 NoOverlap Narrow</text>
     </g>
    </g>
    <g id="xtick_9">
     <g id="line2d_9">
      <g>
       <use xlink:href="#m0b794cfb6c" x="473.063889" y="404.127732" style="stroke: #000000; stroke-width: 0.8"/>
      </g>
     </g>
     <g id="text_9">
      <text style="font: 10px 'DejaVu Sans', 'Bitstream Vera Sans', 'Computer Modern Sans Serif', 'Lucida Grande', 'Verdana', 'Geneva', 'Lucid', 'Arial', 'Helvetica', 'Avant Garde', sans-serif" transform="translate(378.781526 471.541766) rotate(-30)">SS2 NoOverlap Broad</text>
     </g>
    </g>
   </g>
   <g id="matplotlib.axis_2">
    <g id="ytick_1">
     <g id="line2d_10">
      <defs>
       <path id="m2cc34725d3" d="M 0 0 
L -3.5 0 
" style="stroke: #000000; stroke-width: 0.8"/>
      </defs>
      <g>
       <use xlink:href="#m2cc34725d3" x="130.75" y="61.813843" style="stroke: #000000; stroke-width: 0.8"/>
      </g>
     </g>
     <g id="text_10">
      <text style="font: 10px 'DejaVu Sans', 'Bitstream Vera Sans', 'Computer Modern Sans Serif', 'Lucida Grande', 'Verdana', 'Geneva', 'Lucid', 'Arial', 'Helvetica', 'Avant Garde', sans-serif; text-anchor: end" x="123.75" y="64.573218" transform="rotate(-0 123.75 64.573218)">SS1 Narrow</text>
     </g>
    </g>
    <g id="ytick_2">
     <g id="line2d_11">
      <g>
       <use xlink:href="#m2cc34725d3" x="130.75" y="102.086065" style="stroke: #000000; stroke-width: 0.8"/>
      </g>
     </g>
     <g id="text_11">
      <text style="font: 10px 'DejaVu Sans', 'Bitstream Vera Sans', 'Computer Modern Sans Serif', 'Lucida Grande', 'Verdana', 'Geneva', 'Lucid', 'Arial', 'Helvetica', 'Avant Garde', sans-serif; text-anchor: end" x="123.75" y="104.84544" transform="rotate(-0 123.75 104.84544)">SS1 Broad</text>
     </g>
    </g>
    <g id="ytick_3">
     <g id="line2d_12">
      <g>
       <use xlink:href="#m2cc34725d3" x="130.75" y="142.358288" style="stroke: #000000; stroke-width: 0.8"/>
      </g>
     </g>
     <g id="text_12">
      <text style="font: 10px 'DejaVu Sans', 'Bitstream Vera Sans', 'Computer Modern Sans Serif', 'Lucida Grande', 'Verdana', 'Geneva', 'Lucid', 'Arial', 'Helvetica', 'Avant Garde', sans-serif; text-anchor: end" x="123.75" y="145.117663" transform="rotate(-0 123.75 145.117663)">SS2 Overlap Narrow</text>
     </g>
    </g>
    <g id="ytick_4">
     <g id="line2d_13">
      <g>
       <use xlink:href="#m2cc34725d3" x="130.75" y="182.63051" style="stroke: #000000; stroke-width: 0.8"/>
      </g>
     </g>
     <g id="text_13">
      <text style="font: 10px 'DejaVu Sans', 'Bitstream Vera Sans', 'Computer Modern Sans Serif', 'Lucida Grande', 'Verdana', 'Geneva', 'Lucid', 'Arial', 'Helvetica', 'Avant Garde', sans-serif; text-anchor: end" x="123.75" y="185.389885" transform="rotate(-0 123.75 185.389885)">SS2 Overlap Broad</text>
     </g>
    </g>
    <g id="ytick_5">
     <g id="line2d_14">
      <g>
       <use xlink:href="#m2cc34725d3" x="130.75" y="222.902732" style="stroke: #000000; stroke-width: 0.8"/>
      </g>
     </g>
     <g id="text_14">
      <text style="font: 10px 'DejaVu Sans', 'Bitstream Vera Sans', 'Computer Modern Sans Serif', 'Lucida Grande', 'Verdana', 'Geneva', 'Lucid', 'Arial', 'Helvetica', 'Avant Garde', sans-serif; text-anchor: end" x="123.75" y="225.662107" transform="rotate(-0 123.75 225.662107)">SS2 Overlap Superset</text>
     </g>
    </g>
    <g id="ytick_6">
     <g id="line2d_15">
      <g>
       <use xlink:href="#m2cc34725d3" x="130.75" y="263.174954" style="stroke: #000000; stroke-width: 0.8"/>
      </g>
     </g>
     <g id="text_15">
      <text style="font: 10px 'DejaVu Sans', 'Bitstream Vera Sans', 'Computer Modern Sans Serif', 'Lucida Grande', 'Verdana', 'Geneva', 'Lucid', 'Arial', 'Helvetica', 'Avant Garde', sans-serif; text-anchor: end" x="123.75" y="265.934329" transform="rotate(-0 123.75 265.934329)">SS2 Overlap Partial</text>
     </g>
    </g>
    <g id="ytick_7">
     <g id="line2d_16">
      <g>
       <use xlink:href="#m2cc34725d3" x="130.75" y="303.447176" style="stroke: #000000; stroke-width: 0.8"/>
      </g>
     </g>
     <g id="text_16">
      <text style="font: 10px 'DejaVu Sans', 'Bitstream Vera Sans', 'Computer Modern Sans Serif', 'Lucida Grande', 'Verdana', 'Geneva', 'Lucid', 'Arial', 'Helvetica', 'Avant Garde', sans-serif; text-anchor: end" x="123.75" y="306.206551" transform="rotate(-0 123.75 306.206551)">SS2 NoOverlap Mixed</text>
     </g>
    </g>
    <g id="ytick_8">
     <g id="line2d_17">
      <g>
       <use xlink:href="#m2cc34725d3" x="130.75" y="343.719399" style="stroke: #000000; stroke-width: 0.8"/>
      </g>
     </g>
     <g id="text_17">
      <text style="font: 10px 'DejaVu Sans', 'Bitstream Vera Sans', 'Computer Modern Sans Serif', 'Lucida Grande', 'Verdana', 'Geneva', 'Lucid', 'Arial', 'Helvetica', 'Avant Garde', sans-serif; text-anchor: end" x="123.75" y="346.478774" transform="rotate(-0 123.75 346.478774)">SS2 NoOverlap Narrow</text>
     </g>
    </g>
    <g id="ytick_9">
     <g id="line2d_18">
      <g>
       <use xlink:href="#m2cc34725d3" x="130.75" y="383.991621" style="stroke: #000000; stroke-width: 0.8"/>
      </g>
     </g>
     <g id="text_18">
      <text style="font: 10px 'DejaVu Sans', 'Bitstream Vera Sans', 'Computer Modern Sans Serif', 'Lucida Grande', 'Verdana', 'Geneva', 'Lucid', 'Arial', 'Helvetica', 'Avant Garde', sans-serif; text-anchor: end" x="123.75" y="386.750996" transform="rotate(-0 123.75 386.750996)">SS2 NoOverlap Broad</text>
     </g>
    </g>
   </g>
   <g id="patch_3">
    <path d="M 130.75 404.127732 
L 130.75 41.677732 
" style="fill: none; stroke: #000000; stroke-width: 0.8; stroke-linejoin: miter; stroke-linecap: square"/>
   </g>
   <g id="patch_4">
    <path d="M 493.2 404.127732 
L 493.2 41.677732 
" style="fill: none; stroke: #000000; stroke-width: 0.8; stroke-linejoin: miter; stroke-linecap: square"/>
   </g>
   <g id="patch_5">
    <path d="M 130.75 404.127732 
L 493.2 404.127732 
" style="fill: none; stroke: #000000; stroke-width: 0.8; stroke-linejoin: miter; stroke-linecap: square"/>
   </g>
   <g id="patch_6">
    <path d="M 130.75 41.677732 
L 493.2 41.677732 
" style="fill: none; stroke: #000000; stroke-width: 0.8; stroke-linejoin: miter; stroke-linecap: square"/>
   </g>
   <g id="text_19">
    <text style="font: 12px 'DejaVu Sans', 'Bitstream Vera Sans', 'Computer Modern Sans Serif', 'Lucida Grande', 'Verdana', 'Geneva', 'Lucid', 'Arial', 'Helvetica', 'Avant Garde', sans-serif; text-anchor: middle" x="311.975" y="35.677732" transform="rotate(-0 311.975 35.677732)">Attended Area</text>
   </g>
  </g>
 </g>
 <defs>
  <clipPath id="p31760f4ca2">
   <rect x="130.75" y="41.677732" width="362.45" height="362.45"/>
  </clipPath>
 </defs>
</svg>
