<?xml version="1.0" encoding="utf-8" standalone="no"?>
<!DOCTYPE svg PUBLIC "-//W3C//DTD SVG 1.1//EN"
  "http://www.w3.org/Graphics/SVG/1.1/DTD/svg11.dtd">
<svg xmlns:xlink="http://www.w3.org/1999/xlink" width="429.208125pt" height="300.904687pt" viewBox="0 0 429.208125 300.904687" xmlns="http://www.w3.org/2000/svg" version="1.1">
 <metadata>
  <rdf:RDF xmlns:dc="http://purl.org/dc/elements/1.1/" xmlns:cc="http://creativecommons.org/ns#" xmlns:rdf="http://www.w3.org/1999/02/22-rdf-syntax-ns#">
   <cc:Work>
    <dc:type rdf:resource="http://purl.org/dc/dcmitype/StillImage"/>
    <dc:date>2023-07-20T12:24:53.914095</dc:date>
    <dc:format>image/svg+xml</dc:format>
    <dc:creator>
     <cc:Agent>
      <dc:title>Matplotlib v3.7.1, https://matplotlib.org/</dc:title>
     </cc:Agent>
    </dc:creator>
   </cc:Work>
  </rdf:RDF>
 </metadata>
 <defs>
  <style type="text/css">*{stroke-linejoin: round; stroke-linecap: butt}</style>
 </defs>
 <g id="figure_1">
  <g id="patch_1">
   <path d="M 0 300.904687 
L 429.208125 300.904687 
L 429.208125 0 
L 0 0 
z
" style="fill: #ffffff"/>
  </g>
  <g id="axes_1">
   <g id="patch_2">
    <path d="M 31.408125 256.68 
L 422.008125 256.68 
L 422.008125 7.2 
L 31.408125 7.2 
z
" style="fill: #ffffff"/>
   </g>
   <g id="PolyCollection_1">
    <defs>
     <path id="m882a9f2b7d" d="M 31.408125 -165.647377 
L 31.408125 -173.16969 
L 36.213046 -167.882448 
L 41.017966 -173.407193 
L 45.822887 -172.555043 
L 50.627807 -177.443408 
L 55.432728 -168.629086 
L 60.237648 -186.003253 
L 65.042569 -174.467538 
L 69.847489 -181.239238 
L 74.65241 -175.714523 
L 79.457331 -174.348198 
L 84.262251 -172.052614 
L 89.067172 -178.427397 
L 93.872092 -184.116469 
L 98.677013 -187.565538 
L 103.481933 -172.069688 
L 108.286854 -169.106908 
L 113.091774 -169.071772 
L 117.896695 -177.564111 
L 122.701616 -176.101739 
L 127.506536 -179.548199 
L 132.311457 -196.33548 
L 137.116377 -252.551232 
L 141.921298 -266.05083 
L 146.726218 -239.302028 
L 151.531139 -236.869836 
L 156.336059 -237.259864 
L 161.14098 -231.664452 
L 165.9459 -226.995204 
L 170.750821 -232.700409 
L 175.555742 -224.515471 
L 180.360662 -219.66349 
L 185.165583 -219.496199 
L 189.970503 -220.6842 
L 194.775424 -220.632179 
L 199.580344 -224.063102 
L 204.385265 -226.877234 
L 209.190185 -243.565794 
L 213.995106 -237.468669 
L 218.800027 -234.597559 
L 223.604947 -221.408118 
L 228.409868 -223.844266 
L 233.214788 -243.852918 
L 238.019709 -263.224498 
L 242.824629 -247.200767 
L 247.62955 -220.38364 
L 252.43447 -229.339793 
L 257.239391 -240.35994 
L 262.044312 -246.658099 
L 266.849232 -248.965648 
L 271.654153 -235.148743 
L 276.459073 -226.26445 
L 281.263994 -215.223343 
L 286.068914 -208.871293 
L 290.873835 -211.336825 
L 295.678755 -217.148063 
L 300.483676 -213.057308 
L 305.288597 -208.929586 
L 310.093517 -219.094884 
L 314.898438 -218.299175 
L 319.703358 -223.105029 
L 324.508279 -219.905199 
L 329.313199 -215.689803 
L 334.11812 -214.015639 
L 338.92304 -210.060726 
L 343.727961 -211.976517 
L 348.532882 -213.16757 
L 353.337802 -212.337296 
L 358.142723 -210.458158 
L 362.947643 -214.163916 
L 367.752564 -207.456349 
L 372.557484 -207.617674 
L 377.362405 -204.146889 
L 382.167325 -201.1295 
L 386.972246 -198.386694 
L 391.777167 -202.39256 
L 396.582087 -196.914333 
L 401.387008 -200.703982 
L 406.191928 -200.810707 
L 410.996849 -205.482476 
L 410.996849 -192.226458 
L 410.996849 -192.226458 
L 406.191928 -187.665121 
L 401.387008 -188.779401 
L 396.582087 -185.930533 
L 391.777167 -187.600289 
L 386.972246 -182.910175 
L 382.167325 -191.008147 
L 377.362405 -191.469581 
L 372.557484 -191.239891 
L 367.752564 -191.35016 
L 362.947643 -201.263024 
L 358.142723 -200.4778 
L 353.337802 -196.427066 
L 348.532882 -192.420573 
L 343.727961 -193.616773 
L 338.92304 -193.616504 
L 334.11812 -195.591002 
L 329.313199 -198.197487 
L 324.508279 -198.763896 
L 319.703358 -200.719746 
L 314.898438 -205.692181 
L 310.093517 -209.329988 
L 305.288597 -199.314323 
L 300.483676 -200.606568 
L 295.678755 -206.332367 
L 290.873835 -202.286444 
L 286.068914 -198.681363 
L 281.263994 -204.15515 
L 276.459073 -214.971591 
L 271.654153 -217.297356 
L 266.849232 -225.332651 
L 262.044312 -220.460185 
L 257.239391 -222.959288 
L 252.43447 -213.72109 
L 247.62955 -206.411503 
L 242.824629 -228.252215 
L 238.019709 -243.855938 
L 233.214788 -232.978892 
L 228.409868 -207.524625 
L 223.604947 -202.599167 
L 218.800027 -217.570387 
L 213.995106 -220.542522 
L 209.190185 -220.235673 
L 204.385265 -207.20169 
L 199.580344 -204.849899 
L 194.775424 -209.576583 
L 189.970503 -203.02654 
L 185.165583 -199.792892 
L 180.360662 -204.504801 
L 175.555742 -207.924768 
L 170.750821 -213.229563 
L 165.9459 -209.601091 
L 161.14098 -207.37641 
L 156.336059 -209.572642 
L 151.531139 -215.199948 
L 146.726218 -216.599431 
L 141.921298 -240.098158 
L 137.116377 -228.659218 
L 132.311457 -185.265613 
L 127.506536 -171.309276 
L 122.701616 -167.554735 
L 117.896695 -163.766476 
L 113.091774 -160.135681 
L 108.286854 -161.185138 
L 103.481933 -166.768555 
L 98.677013 -175.400697 
L 93.872092 -174.419112 
L 89.067172 -168.298451 
L 84.262251 -162.420268 
L 79.457331 -164.243968 
L 74.65241 -165.912339 
L 69.847489 -171.436244 
L 65.042569 -165.189203 
L 60.237648 -176.469722 
L 55.432728 -161.295723 
L 50.627807 -167.837387 
L 45.822887 -162.273823 
L 41.017966 -167.005498 
L 36.213046 -159.027174 
L 31.408125 -165.647377 
z
" style="stroke: #9e9ac8; stroke-opacity: 0.3"/>
    </defs>
    <g clip-path="url(#p3a389239a8)">
     <use xlink:href="#m882a9f2b7d" x="0" y="300.904687" style="fill: #9e9ac8; fill-opacity: 0.3; stroke: #9e9ac8; stroke-opacity: 0.3"/>
    </g>
   </g>
   <g id="PolyCollection_2">
    <defs>
     <path id="m1562707411" d="M 31.408125 -165.317306 
L 31.408125 -178.715107 
L 36.213046 -173.339909 
L 41.017966 -167.453766 
L 45.822887 -171.532924 
L 50.627807 -173.103866 
L 55.432728 -173.073852 
L 60.237648 -176.448247 
L 65.042569 -177.027248 
L 69.847489 -173.581553 
L 74.65241 -164.590956 
L 79.457331 -175.838722 
L 84.262251 -172.422289 
L 89.067172 -172.977113 
L 93.872092 -185.377838 
L 98.677013 -176.261479 
L 103.481933 -169.720594 
L 108.286854 -177.957952 
L 113.091774 -174.696366 
L 117.896695 -176.143423 
L 122.701616 -168.757233 
L 127.506536 -160.790037 
L 132.311457 -153.780091 
L 137.116377 -115.410901 
L 141.921298 -81.805272 
L 146.726218 -118.284514 
L 151.531139 -128.501756 
L 156.336059 -135.534264 
L 161.14098 -132.098896 
L 165.9459 -133.865261 
L 170.750821 -126.663426 
L 175.555742 -126.616487 
L 180.360662 -118.22689 
L 185.165583 -137.235725 
L 189.970503 -142.951779 
L 194.775424 -128.808597 
L 199.580344 -130.416516 
L 204.385265 -126.589766 
L 209.190185 -130.831792 
L 213.995106 -129.573005 
L 218.800027 -122.73986 
L 223.604947 -125.046691 
L 228.409868 -121.598011 
L 233.214788 -108.738563 
L 238.019709 -78.110069 
L 242.824629 -114.406556 
L 247.62955 -145.235675 
L 252.43447 -132.641205 
L 257.239391 -102.827758 
L 262.044312 -111.242312 
L 266.849232 -107.206213 
L 271.654153 -95.527108 
L 276.459073 -115.574838 
L 281.263994 -124.478709 
L 286.068914 -136.560936 
L 290.873835 -142.924503 
L 295.678755 -153.801648 
L 300.483676 -158.593511 
L 305.288597 -146.096629 
L 310.093517 -142.610655 
L 314.898438 -157.456124 
L 319.703358 -151.773788 
L 324.508279 -142.795082 
L 329.313199 -151.007914 
L 334.11812 -153.406922 
L 338.92304 -155.417813 
L 343.727961 -149.301486 
L 348.532882 -156.144492 
L 353.337802 -155.157543 
L 358.142723 -157.557615 
L 362.947643 -152.246376 
L 367.752564 -154.866345 
L 372.557484 -160.925631 
L 377.362405 -155.091261 
L 382.167325 -152.815303 
L 386.972246 -157.945806 
L 391.777167 -157.889803 
L 396.582087 -154.549783 
L 401.387008 -150.120684 
L 406.191928 -148.747655 
L 410.996849 -148.850105 
L 410.996849 -134.195412 
L 410.996849 -134.195412 
L 406.191928 -137.408944 
L 401.387008 -140.655704 
L 396.582087 -139.657772 
L 391.777167 -141.597116 
L 386.972246 -145.67858 
L 382.167325 -140.33975 
L 377.362405 -143.378174 
L 372.557484 -147.675278 
L 367.752564 -141.070313 
L 362.947643 -136.446493 
L 358.142723 -142.663743 
L 353.337802 -139.924114 
L 348.532882 -139.059179 
L 343.727961 -134.004054 
L 338.92304 -138.425703 
L 334.11812 -135.970268 
L 329.313199 -136.994785 
L 324.508279 -127.957135 
L 319.703358 -129.98868 
L 314.898438 -135.664276 
L 310.093517 -121.438221 
L 305.288597 -126.838224 
L 300.483676 -136.443136 
L 295.678755 -131.091627 
L 290.873835 -128.007059 
L 286.068914 -110.57495 
L 281.263994 -84.146261 
L 276.459073 -66.689248 
L 271.654153 -60.992575 
L 266.849232 -54.918954 
L 262.044312 -59.190199 
L 257.239391 -56.413368 
L 252.43447 -94.525764 
L 247.62955 -114.732153 
L 242.824629 -64.863869 
L 238.019709 -44.771236 
L 233.214788 -83.768903 
L 228.409868 -94.501425 
L 223.604947 -93.77992 
L 218.800027 -91.784118 
L 213.995106 -101.112965 
L 209.190185 -94.204405 
L 204.385265 -97.969307 
L 199.580344 -105.433619 
L 194.775424 -109.811732 
L 189.970503 -121.057714 
L 185.165583 -120.94647 
L 180.360662 -100.148875 
L 175.555742 -96.019385 
L 170.750821 -107.156682 
L 165.9459 -112.468346 
L 161.14098 -112.449211 
L 156.336059 -109.00274 
L 151.531139 -97.649861 
L 146.726218 -91.561538 
L 141.921298 -54.276363 
L 137.116377 -95.676669 
L 132.311457 -145.708327 
L 127.506536 -150.063554 
L 122.701616 -161.225034 
L 117.896695 -161.698096 
L 113.091774 -163.28631 
L 108.286854 -170.372529 
L 103.481933 -160.217553 
L 98.677013 -160.933577 
L 93.872092 -162.966162 
L 89.067172 -164.467561 
L 84.262251 -162.303424 
L 79.457331 -164.333619 
L 74.65241 -156.312452 
L 69.847489 -165.738669 
L 65.042569 -162.653535 
L 60.237648 -164.431314 
L 55.432728 -159.481751 
L 50.627807 -162.846733 
L 45.822887 -161.674761 
L 41.017966 -160.357076 
L 36.213046 -164.019622 
L 31.408125 -165.317306 
z
" style="stroke: #08519c; stroke-opacity: 0.3"/>
    </defs>
    <g clip-path="url(#p3a389239a8)">
     <use xlink:href="#m1562707411" x="0" y="300.904687" style="fill: #08519c; fill-opacity: 0.3; stroke: #08519c; stroke-opacity: 0.3"/>
    </g>
   </g>
   <g id="PolyCollection_3">
    <defs>
     <path id="m22bc85b7b4" d="M 31.408125 -163.551388 
L 31.408125 -169.168589 
L 36.213046 -176.221484 
L 41.017966 -169.77612 
L 45.822887 -179.630252 
L 50.627807 -171.803883 
L 55.432728 -173.24813 
L 60.237648 -160.623878 
L 65.042569 -167.332108 
L 69.847489 -163.935292 
L 74.65241 -172.131514 
L 79.457331 -176.216461 
L 84.262251 -169.456908 
L 89.067172 -170.858315 
L 93.872092 -161.374852 
L 98.677013 -165.522936 
L 103.481933 -172.695175 
L 108.286854 -178.11219 
L 113.091774 -176.4815 
L 117.896695 -174.494425 
L 122.701616 -170.192087 
L 127.506536 -161.924442 
L 132.311457 -147.699244 
L 137.116377 -108.694764 
L 141.921298 -93.836533 
L 146.726218 -118.580322 
L 151.531139 -117.9351 
L 156.336059 -127.331217 
L 161.14098 -127.959697 
L 165.9459 -127.2767 
L 170.750821 -131.921561 
L 175.555742 -131.247898 
L 180.360662 -133.935866 
L 185.165583 -140.441905 
L 189.970503 -135.92898 
L 194.775424 -128.642489 
L 199.580344 -129.594489 
L 204.385265 -127.800588 
L 209.190185 -122.499257 
L 213.995106 -121.762922 
L 218.800027 -123.93974 
L 223.604947 -133.960922 
L 228.409868 -125.163742 
L 233.214788 -110.411145 
L 238.019709 -96.453214 
L 242.824629 -109.879373 
L 247.62955 -131.656453 
L 252.43447 -122.609577 
L 257.239391 -112.174647 
L 262.044312 -115.889699 
L 266.849232 -114.278591 
L 271.654153 -127.385533 
L 276.459073 -129.265629 
L 281.263994 -138.939591 
L 286.068914 -146.177781 
L 290.873835 -143.794003 
L 295.678755 -133.888058 
L 300.483676 -138.0382 
L 305.288597 -140.658569 
L 310.093517 -131.526075 
L 314.898438 -133.452715 
L 319.703358 -135.516677 
L 324.508279 -138.384885 
L 329.313199 -140.613583 
L 334.11812 -137.240814 
L 338.92304 -143.257001 
L 343.727961 -146.333166 
L 348.532882 -150.597999 
L 353.337802 -140.868333 
L 358.142723 -136.392326 
L 362.947643 -143.059041 
L 367.752564 -148.390552 
L 372.557484 -148.362932 
L 377.362405 -144.036612 
L 382.167325 -151.456063 
L 386.972246 -157.720907 
L 391.777167 -150.946 
L 396.582087 -153.88775 
L 401.387008 -152.554119 
L 406.191928 -152.685439 
L 410.996849 -148.694551 
L 410.996849 -130.942614 
L 410.996849 -130.942614 
L 406.191928 -137.705826 
L 401.387008 -137.348902 
L 396.582087 -137.776928 
L 391.777167 -131.962473 
L 386.972246 -138.856142 
L 382.167325 -134.939381 
L 377.362405 -127.179827 
L 372.557484 -129.887744 
L 367.752564 -131.079028 
L 362.947643 -126.453442 
L 358.142723 -121.507189 
L 353.337802 -117.696697 
L 348.532882 -122.822921 
L 343.727961 -120.236494 
L 338.92304 -123.896625 
L 334.11812 -117.858648 
L 329.313199 -118.483547 
L 324.508279 -103.203453 
L 319.703358 -104.800423 
L 314.898438 -121.916407 
L 310.093517 -122.9845 
L 305.288597 -129.429334 
L 300.483676 -125.01147 
L 295.678755 -122.642501 
L 290.873835 -132.948017 
L 286.068914 -135.541684 
L 281.263994 -126.848878 
L 276.459073 -117.566018 
L 271.654153 -107.164313 
L 266.849232 -91.151035 
L 262.044312 -92.025831 
L 257.239391 -95.124073 
L 252.43447 -110.859236 
L 247.62955 -119.644313 
L 242.824629 -92.89349 
L 238.019709 -73.030471 
L 233.214788 -95.295814 
L 228.409868 -106.619795 
L 223.604947 -109.188475 
L 218.800027 -105.732813 
L 213.995106 -105.941688 
L 209.190185 -99.491004 
L 204.385265 -104.79101 
L 199.580344 -110.765104 
L 194.775424 -113.136684 
L 189.970503 -119.482879 
L 185.165583 -121.954243 
L 180.360662 -115.18336 
L 175.555742 -110.389965 
L 170.750821 -112.285831 
L 165.9459 -112.508437 
L 161.14098 -101.237597 
L 156.336059 -100.222265 
L 151.531139 -86.659153 
L 146.726218 -96.920091 
L 141.921298 -68.568263 
L 137.116377 -85.932181 
L 132.311457 -135.4223 
L 127.506536 -149.360724 
L 122.701616 -159.465623 
L 117.896695 -164.386537 
L 113.091774 -170.876657 
L 108.286854 -168.360701 
L 103.481933 -163.622442 
L 98.677013 -155.293349 
L 93.872092 -153.753527 
L 89.067172 -160.469833 
L 84.262251 -161.065251 
L 79.457331 -167.103203 
L 74.65241 -164.826009 
L 69.847489 -157.994563 
L 65.042569 -161.127188 
L 60.237648 -152.187181 
L 55.432728 -162.593624 
L 50.627807 -165.248125 
L 45.822887 -172.802109 
L 41.017966 -158.970778 
L 36.213046 -169.09739 
L 31.408125 -163.551388 
z
" style="stroke: #6baed6; stroke-opacity: 0.3"/>
    </defs>
    <g clip-path="url(#p3a389239a8)">
     <use xlink:href="#m22bc85b7b4" x="0" y="300.904687" style="fill: #6baed6; fill-opacity: 0.3; stroke: #6baed6; stroke-opacity: 0.3"/>
    </g>
   </g>
   <g id="PolyCollection_4">
    <defs>
     <path id="mf54ff0ccdf" d="M 111.490134 -293.704688 
L 111.490134 -44.224688 
L 141.721093 -44.224688 
L 141.721093 -293.704688 
L 141.721093 -293.704688 
L 111.490134 -293.704688 
z
" style="stroke: #808080; stroke-opacity: 0.3"/>
    </defs>
    <g clip-path="url(#p3a389239a8)">
     <use xlink:href="#mf54ff0ccdf" x="0" y="300.904687" style="fill: #808080; fill-opacity: 0.3; stroke: #808080; stroke-opacity: 0.3"/>
    </g>
   </g>
   <g id="PolyCollection_5">
    <defs>
     <path id="m721d595a97" d="M 211.592646 -293.704688 
L 211.592646 -44.224688 
L 241.823604 -44.224688 
L 241.823604 -293.704688 
L 241.823604 -293.704688 
L 211.592646 -293.704688 
z
" style="stroke: #808080; stroke-opacity: 0.3"/>
    </defs>
    <g clip-path="url(#p3a389239a8)">
     <use xlink:href="#m721d595a97" x="0" y="300.904687" style="fill: #808080; fill-opacity: 0.3; stroke: #808080; stroke-opacity: 0.3"/>
    </g>
   </g>
   <g id="patch_3">
    <path d="M 66.444004 57.096 
L 71.44913 65.412 
L 66.444104 65.412 
L 66.444104 106.992 
L 66.443904 106.992 
L 66.443904 65.412 
L 61.438878 65.412 
z
" clip-path="url(#p3a389239a8)" style="stroke: #000000; stroke-linejoin: miter"/>
   </g>
   <g id="patch_4">
    <path d="M 66.444004 206.784 
L 61.438878 198.468 
L 66.443904 198.468 
L 66.443904 156.888 
L 66.444104 156.888 
L 66.444104 198.468 
L 71.44913 198.468 
z
" clip-path="url(#p3a389239a8)" style="stroke: #000000; stroke-linejoin: miter"/>
   </g>
   <g id="matplotlib.axis_1">
    <g id="xtick_1">
     <g id="line2d_1">
      <defs>
       <path id="m9f476c54f4" d="M 0 0 
L 0 3.5 
" style="stroke: #000000; stroke-width: 0.8"/>
      </defs>
      <g>
       <use xlink:href="#m9f476c54f4" x="31.408125" y="256.68" style="stroke: #000000; stroke-width: 0.8"/>
      </g>
     </g>
     <g id="text_1">
      <text style="font: 14px 'Helvetica', sans-serif; text-anchor: middle" x="31.408125" y="273.722812" transform="rotate(-0 31.408125 273.722812)">−400</text>
     </g>
    </g>
    <g id="xtick_2">
     <g id="line2d_2">
      <g>
       <use xlink:href="#m9f476c54f4" x="71.44913" y="256.68" style="stroke: #000000; stroke-width: 0.8"/>
      </g>
     </g>
     <g id="text_2">
      <text style="font: 14px 'Helvetica', sans-serif; text-anchor: middle" x="71.44913" y="273.722812" transform="rotate(-0 71.44913 273.722812)">−200</text>
     </g>
    </g>
    <g id="xtick_3">
     <g id="line2d_3">
      <g>
       <use xlink:href="#m9f476c54f4" x="111.490134" y="256.68" style="stroke: #000000; stroke-width: 0.8"/>
      </g>
     </g>
     <g id="text_3">
      <text style="font: 14px 'Helvetica', sans-serif; text-anchor: middle" x="111.490134" y="273.722812" transform="rotate(-0 111.490134 273.722812)">0</text>
     </g>
    </g>
    <g id="xtick_4">
     <g id="line2d_4">
      <g>
       <use xlink:href="#m9f476c54f4" x="151.531139" y="256.68" style="stroke: #000000; stroke-width: 0.8"/>
      </g>
     </g>
     <g id="text_4">
      <text style="font: 14px 'Helvetica', sans-serif; text-anchor: middle" x="151.531139" y="273.722812" transform="rotate(-0 151.531139 273.722812)">200</text>
     </g>
    </g>
    <g id="xtick_5">
     <g id="line2d_5">
      <g>
       <use xlink:href="#m9f476c54f4" x="191.572143" y="256.68" style="stroke: #000000; stroke-width: 0.8"/>
      </g>
     </g>
     <g id="text_5">
      <text style="font: 14px 'Helvetica', sans-serif; text-anchor: middle" x="191.572143" y="273.722812" transform="rotate(-0 191.572143 273.722812)">400</text>
     </g>
    </g>
    <g id="xtick_6">
     <g id="line2d_6">
      <g>
       <use xlink:href="#m9f476c54f4" x="231.613148" y="256.68" style="stroke: #000000; stroke-width: 0.8"/>
      </g>
     </g>
     <g id="text_6">
      <text style="font: 14px 'Helvetica', sans-serif; text-anchor: middle" x="231.613148" y="273.722812" transform="rotate(-0 231.613148 273.722812)">600</text>
     </g>
    </g>
    <g id="xtick_7">
     <g id="line2d_7">
      <g>
       <use xlink:href="#m9f476c54f4" x="271.654153" y="256.68" style="stroke: #000000; stroke-width: 0.8"/>
      </g>
     </g>
     <g id="text_7">
      <text style="font: 14px 'Helvetica', sans-serif; text-anchor: middle" x="271.654153" y="273.722812" transform="rotate(-0 271.654153 273.722812)">800</text>
     </g>
    </g>
    <g id="xtick_8">
     <g id="line2d_8">
      <g>
       <use xlink:href="#m9f476c54f4" x="311.695157" y="256.68" style="stroke: #000000; stroke-width: 0.8"/>
      </g>
     </g>
     <g id="text_8">
      <text style="font: 14px 'Helvetica', sans-serif; text-anchor: middle" x="311.695157" y="273.722812" transform="rotate(-0 311.695157 273.722812)">1000</text>
     </g>
    </g>
    <g id="xtick_9">
     <g id="line2d_9">
      <g>
       <use xlink:href="#m9f476c54f4" x="351.736162" y="256.68" style="stroke: #000000; stroke-width: 0.8"/>
      </g>
     </g>
     <g id="text_9">
      <text style="font: 14px 'Helvetica', sans-serif; text-anchor: middle" x="351.736162" y="273.722812" transform="rotate(-0 351.736162 273.722812)">1200</text>
     </g>
    </g>
    <g id="xtick_10">
     <g id="line2d_10">
      <g>
       <use xlink:href="#m9f476c54f4" x="391.777167" y="256.68" style="stroke: #000000; stroke-width: 0.8"/>
      </g>
     </g>
     <g id="text_10">
      <text style="font: 14px 'Helvetica', sans-serif; text-anchor: middle" x="391.777167" y="273.722812" transform="rotate(-0 391.777167 273.722812)">1400</text>
     </g>
    </g>
    <g id="text_11">
     <text style="font: 14px 'Helvetica', sans-serif; text-anchor: middle" x="226.708125" y="290.786562" transform="rotate(-0 226.708125 290.786562)">Time (ms)</text>
    </g>
   </g>
   <g id="matplotlib.axis_2">
    <g id="ytick_1">
     <g id="line2d_11">
      <defs>
       <path id="mc947374707" d="M 0 0 
L -3.5 0 
" style="stroke: #000000; stroke-width: 0.8"/>
      </defs>
      <g>
       <use xlink:href="#mc947374707" x="31.408125" y="205.316471" style="stroke: #000000; stroke-width: 0.8"/>
      </g>
     </g>
    </g>
    <g id="ytick_2">
     <g id="line2d_12">
      <g>
       <use xlink:href="#mc947374707" x="31.408125" y="168.628235" style="stroke: #000000; stroke-width: 0.8"/>
      </g>
     </g>
    </g>
    <g id="ytick_3">
     <g id="line2d_13">
      <g>
       <use xlink:href="#mc947374707" x="31.408125" y="131.94" style="stroke: #000000; stroke-width: 0.8"/>
      </g>
     </g>
    </g>
    <g id="ytick_4">
     <g id="line2d_14">
      <g>
       <use xlink:href="#mc947374707" x="31.408125" y="95.251765" style="stroke: #000000; stroke-width: 0.8"/>
      </g>
     </g>
    </g>
    <g id="ytick_5">
     <g id="line2d_15">
      <g>
       <use xlink:href="#mc947374707" x="31.408125" y="58.563529" style="stroke: #000000; stroke-width: 0.8"/>
      </g>
     </g>
    </g>
    <g id="text_12">
     <text style="font: 14px 'Helvetica', sans-serif; text-anchor: middle" x="17.406875" y="131.94" transform="rotate(-90 17.406875 131.94)">Distance from hyperplane (a.u.)</text>
    </g>
   </g>
   <g id="line2d_16">
    <path d="M 31.408125 131.94 
L 36.213046 131.94 
L 41.017966 131.94 
L 45.822887 131.94 
L 50.627807 131.94 
L 55.432728 131.94 
L 60.237648 131.94 
L 65.042569 131.94 
L 69.847489 131.94 
L 74.65241 131.94 
L 79.457331 131.94 
L 84.262251 131.94 
L 89.067172 131.94 
L 93.872092 131.94 
L 98.677013 131.94 
L 103.481933 131.94 
L 108.286854 131.94 
L 113.091774 131.94 
L 117.896695 131.94 
L 122.701616 131.94 
L 127.506536 131.94 
L 132.311457 131.94 
L 137.116377 131.94 
L 141.921298 131.94 
L 146.726218 131.94 
L 151.531139 131.94 
L 156.336059 131.94 
L 161.14098 131.94 
L 165.9459 131.94 
L 170.750821 131.94 
L 175.555742 131.94 
L 180.360662 131.94 
L 185.165583 131.94 
L 189.970503 131.94 
L 194.775424 131.94 
L 199.580344 131.94 
L 204.385265 131.94 
L 209.190185 131.94 
L 213.995106 131.94 
L 218.800027 131.94 
L 223.604947 131.94 
L 228.409868 131.94 
L 233.214788 131.94 
L 238.019709 131.94 
L 242.824629 131.94 
L 247.62955 131.94 
L 252.43447 131.94 
L 257.239391 131.94 
L 262.044312 131.94 
L 266.849232 131.94 
L 271.654153 131.94 
L 276.459073 131.94 
L 281.263994 131.94 
L 286.068914 131.94 
L 290.873835 131.94 
L 295.678755 131.94 
L 300.483676 131.94 
L 305.288597 131.94 
L 310.093517 131.94 
L 314.898438 131.94 
L 319.703358 131.94 
L 324.508279 131.94 
L 329.313199 131.94 
L 334.11812 131.94 
L 338.92304 131.94 
L 343.727961 131.94 
L 348.532882 131.94 
L 353.337802 131.94 
L 358.142723 131.94 
L 362.947643 131.94 
L 367.752564 131.94 
L 372.557484 131.94 
L 377.362405 131.94 
L 382.167325 131.94 
L 386.972246 131.94 
L 391.777167 131.94 
L 396.582087 131.94 
L 401.387008 131.94 
L 406.191928 131.94 
L 410.996849 131.94 
" clip-path="url(#p3a389239a8)" style="fill: none; stroke-dasharray: 5.55,2.4; stroke-dashoffset: 0; stroke: #808080; stroke-width: 1.5"/>
   </g>
   <g id="line2d_17">
    <path d="M 31.408125 131.496154 
L 36.213046 137.449876 
L 41.017966 130.698342 
L 45.822887 133.490254 
L 50.627807 128.26429 
L 55.432728 135.942283 
L 60.237648 119.6682 
L 65.042569 131.076317 
L 69.847489 124.566946 
L 74.65241 130.091256 
L 79.457331 131.608604 
L 84.262251 133.668246 
L 89.067172 127.541764 
L 93.872092 121.636897 
L 98.677013 119.42157 
L 103.481933 131.485566 
L 108.286854 135.758665 
L 113.091774 136.300961 
L 117.896695 130.239394 
L 122.701616 129.076451 
L 127.506536 125.47595 
L 132.311457 110.104141 
L 137.116377 60.299463 
L 141.921298 47.830193 
L 146.726218 72.953958 
L 151.531139 74.869796 
L 156.336059 77.488435 
L 161.14098 81.384257 
L 165.9459 82.60654 
L 170.750821 77.939701 
L 175.555742 84.684568 
L 180.360662 88.820542 
L 185.165583 91.260142 
L 189.970503 89.049318 
L 194.775424 85.800306 
L 199.580344 86.448187 
L 204.385265 83.865226 
L 209.190185 69.003954 
L 213.995106 71.899092 
L 218.800027 74.820715 
L 223.604947 88.901045 
L 228.409868 85.220242 
L 233.214788 62.488782 
L 238.019709 47.364469 
L 242.824629 63.178196 
L 247.62955 87.507116 
L 252.43447 79.374246 
L 257.239391 69.245074 
L 262.044312 67.345546 
L 266.849232 63.755538 
L 271.654153 74.681638 
L 276.459073 80.286667 
L 281.263994 91.215441 
L 286.068914 97.12836 
L 290.873835 94.093053 
L 295.678755 89.164472 
L 300.483676 94.072749 
L 305.288597 96.782733 
L 310.093517 86.692251 
L 314.898438 88.909009 
L 319.703358 88.9923 
L 324.508279 91.57014 
L 329.313199 93.961043 
L 334.11812 96.101367 
L 338.92304 99.066073 
L 343.727961 98.108043 
L 348.532882 98.110616 
L 353.337802 96.522507 
L 358.142723 95.436709 
L 362.947643 93.191217 
L 367.752564 101.501433 
L 372.557484 101.475905 
L 377.362405 103.096453 
L 382.167325 104.835864 
L 386.972246 110.256253 
L 391.777167 105.908263 
L 396.582087 109.482255 
L 401.387008 106.162996 
L 406.191928 106.666773 
L 410.996849 102.05022 
" clip-path="url(#p3a389239a8)" style="fill: none; stroke: #9e9ac8; stroke-width: 1.5; stroke-linecap: square"/>
   </g>
   <g id="line2d_18">
    <path d="M 31.408125 128.888481 
L 36.213046 132.224922 
L 41.017966 136.999266 
L 45.822887 134.300845 
L 50.627807 132.929388 
L 55.432728 134.626886 
L 60.237648 130.464907 
L 65.042569 131.064296 
L 69.847489 131.244576 
L 74.65241 140.452983 
L 79.457331 130.818517 
L 84.262251 133.541831 
L 89.067172 132.18235 
L 93.872092 126.732688 
L 98.677013 132.30716 
L 103.481933 135.935614 
L 108.286854 126.739447 
L 113.091774 131.91335 
L 117.896695 131.983928 
L 122.701616 135.913554 
L 127.506536 145.477892 
L 132.311457 151.160479 
L 137.116377 195.360902 
L 141.921298 232.86387 
L 146.726218 195.981661 
L 151.531139 187.828879 
L 156.336059 178.636186 
L 161.14098 178.630634 
L 165.9459 177.737884 
L 170.750821 183.994633 
L 175.555742 189.586752 
L 180.360662 191.716805 
L 185.165583 171.81359 
L 189.970503 168.899941 
L 194.775424 181.594523 
L 199.580344 182.97962 
L 204.385265 188.625151 
L 209.190185 188.386589 
L 213.995106 185.561702 
L 218.800027 193.642699 
L 223.604947 191.491382 
L 228.409868 192.854969 
L 233.214788 204.650955 
L 238.019709 239.464035 
L 242.824629 211.269475 
L 247.62955 170.920774 
L 252.43447 187.321203 
L 257.239391 221.284124 
L 262.044312 215.688432 
L 266.849232 219.842104 
L 271.654153 222.644846 
L 276.459073 209.772645 
L 281.263994 196.592202 
L 286.068914 177.336745 
L 290.873835 165.438907 
L 295.678755 158.45805 
L 300.483676 153.386364 
L 305.288597 164.437261 
L 310.093517 168.88025 
L 314.898438 154.344487 
L 319.703358 160.023454 
L 324.508279 165.528579 
L 329.313199 156.903338 
L 334.11812 156.216093 
L 338.92304 153.982929 
L 343.727961 159.251918 
L 348.532882 153.302852 
L 353.337802 153.363859 
L 358.142723 150.794008 
L 362.947643 156.558253 
L 367.752564 152.936359 
L 372.557484 146.604233 
L 377.362405 151.66997 
L 382.167325 154.327161 
L 386.972246 149.092494 
L 391.777167 151.161228 
L 396.582087 153.80091 
L 401.387008 155.516493 
L 406.191928 157.826388 
L 410.996849 159.381929 
" clip-path="url(#p3a389239a8)" style="fill: none; stroke: #08519c; stroke-width: 1.5; stroke-linecap: square"/>
   </g>
   <g id="line2d_19">
    <path d="M 31.408125 134.544699 
L 36.213046 128.245251 
L 41.017966 136.531238 
L 45.822887 124.688507 
L 50.627807 132.378684 
L 55.432728 132.983811 
L 60.237648 144.499158 
L 65.042569 136.67504 
L 69.847489 139.93976 
L 74.65241 132.425926 
L 79.457331 129.244855 
L 84.262251 135.643608 
L 89.067172 135.240614 
L 93.872092 143.340498 
L 98.677013 140.496545 
L 103.481933 132.745879 
L 108.286854 127.668242 
L 113.091774 127.225609 
L 117.896695 131.464207 
L 122.701616 136.075832 
L 127.506536 145.262105 
L 132.311457 159.343915 
L 137.116377 203.591215 
L 141.921298 219.702289 
L 146.726218 193.154481 
L 151.531139 198.607561 
L 156.336059 187.127947 
L 161.14098 186.306041 
L 165.9459 181.012119 
L 170.750821 178.800991 
L 175.555742 180.085756 
L 180.360662 176.345074 
L 185.165583 169.706613 
L 189.970503 173.198758 
L 194.775424 180.015101 
L 199.580344 180.724891 
L 204.385265 184.608889 
L 209.190185 189.909557 
L 213.995106 187.052383 
L 218.800027 186.068411 
L 223.604947 179.329989 
L 228.409868 185.012919 
L 233.214788 198.051208 
L 238.019709 216.162845 
L 242.824629 199.518256 
L 247.62955 175.254305 
L 252.43447 184.170281 
L 257.239391 197.255327 
L 262.044312 196.946923 
L 266.849232 198.189874 
L 271.654153 183.629765 
L 276.459073 177.488864 
L 281.263994 168.010453 
L 286.068914 160.044955 
L 290.873835 162.533677 
L 295.678755 172.639408 
L 300.483676 169.379852 
L 305.288597 165.860736 
L 310.093517 173.6494 
L 314.898438 173.220127 
L 319.703358 180.746137 
L 324.508279 180.110518 
L 329.313199 171.356122 
L 334.11812 173.354956 
L 338.92304 167.327874 
L 343.727961 167.619857 
L 348.532882 164.194227 
L 353.337802 171.622172 
L 358.142723 171.95493 
L 362.947643 166.148446 
L 367.752564 161.169898 
L 372.557484 161.77935 
L 377.362405 165.296468 
L 382.167325 157.706966 
L 386.972246 152.616163 
L 391.777167 159.450451 
L 396.582087 155.072348 
L 401.387008 155.953177 
L 406.191928 155.709055 
L 410.996849 161.086105 
" clip-path="url(#p3a389239a8)" style="fill: none; stroke: #6baed6; stroke-width: 1.5; stroke-linecap: square"/>
   </g>
   <g id="patch_5">
    <path d="M 31.408125 256.68 
L 31.408125 7.2 
" style="fill: none; stroke: #000000; stroke-width: 0.8; stroke-linejoin: miter; stroke-linecap: square"/>
   </g>
   <g id="patch_6">
    <path d="M 31.408125 256.68 
L 422.008125 256.68 
" style="fill: none; stroke: #000000; stroke-width: 0.8; stroke-linejoin: miter; stroke-linecap: square"/>
   </g>
   <g id="text_13">
    <text style="font: 12px 'Helvetica', sans-serif" transform="translate(41.097754 25.554)">Predicted</text>
    <text style="font: 12px 'Helvetica', sans-serif" transform="translate(47.106192 38.385)">4 items</text>
   </g>
   <g id="text_14">
    <text style="font: 12px 'Helvetica', sans-serif" transform="translate(41.097754 233.454)">Predicted</text>
    <text style="font: 12px 'Helvetica', sans-serif" transform="translate(47.106192 246.285)">2 items</text>
   </g>
   <g id="legend_1">
    <g id="line2d_20">
     <path d="M 322.2525 22.408125 
L 334.2525 22.408125 
L 346.2525 22.408125 
" style="fill: none; stroke: #9e9ac8; stroke-width: 1.5; stroke-linecap: square"/>
    </g>
    <g id="text_15">
     <text style="font: 12px 'Helvetica', sans-serif; text-anchor: start" x="355.8525" y="26.608125" transform="rotate(-0 355.8525 26.608125)">4 Same</text>
    </g>
    <g id="line2d_21">
     <path d="M 322.2525 39.5175 
L 334.2525 39.5175 
L 346.2525 39.5175 
" style="fill: none; stroke: #08519c; stroke-width: 1.5; stroke-linecap: square"/>
    </g>
    <g id="text_16">
     <text style="font: 12px 'Helvetica', sans-serif; text-anchor: start" x="355.8525" y="43.7175" transform="rotate(-0 355.8525 43.7175)">2 Different</text>
    </g>
    <g id="line2d_22">
     <path d="M 322.2525 56.626875 
L 334.2525 56.626875 
L 346.2525 56.626875 
" style="fill: none; stroke: #6baed6; stroke-width: 1.5; stroke-linecap: square"/>
    </g>
    <g id="text_17">
     <text style="font: 12px 'Helvetica', sans-serif; text-anchor: start" x="355.8525" y="60.826875" transform="rotate(-0 355.8525 60.826875)">2 Same</text>
    </g>
   </g>
  </g>
 </g>
 <defs>
  <clipPath id="p3a389239a8">
   <rect x="31.408125" y="7.2" width="390.6" height="249.48"/>
  </clipPath>
 </defs>
</svg>
