<?xml version="1.0" encoding="utf-8" standalone="no"?>
<!DOCTYPE svg PUBLIC "-//W3C//DTD SVG 1.1//EN"
  "http://www.w3.org/Graphics/SVG/1.1/DTD/svg11.dtd">
<svg xmlns:xlink="http://www.w3.org/1999/xlink" width="448.7775pt" height="305.926094pt" viewBox="0 0 448.7775 305.926094" xmlns="http://www.w3.org/2000/svg" version="1.1">
 <metadata>
  <rdf:RDF xmlns:dc="http://purl.org/dc/elements/1.1/" xmlns:cc="http://creativecommons.org/ns#" xmlns:rdf="http://www.w3.org/1999/02/22-rdf-syntax-ns#">
   <cc:Work>
    <dc:type rdf:resource="http://purl.org/dc/dcmitype/StillImage"/>
    <dc:date>2023-07-20T11:53:58.312204</dc:date>
    <dc:format>image/svg+xml</dc:format>
    <dc:creator>
     <cc:Agent>
      <dc:title>Matplotlib v3.7.1, https://matplotlib.org/</dc:title>
     </cc:Agent>
    </dc:creator>
   </cc:Work>
  </rdf:RDF>
 </metadata>
 <defs>
  <style type="text/css">*{stroke-linejoin: round; stroke-linecap: butt}</style>
 </defs>
 <g id="figure_1">
  <g id="patch_1">
   <path d="M 0 305.926094 
L 448.7775 305.926094 
L 448.7775 -0 
L 0 -0 
z
" style="fill: #ffffff"/>
  </g>
  <g id="axes_1">
   <g id="patch_2">
    <path d="M 50.9775 261.701406 
L 441.5775 261.701406 
L 441.5775 12.221406 
L 50.9775 12.221406 
z
" style="fill: #ffffff"/>
   </g>
   <g id="PolyCollection_1">
    <defs>
     <path id="m4f6c18dd8f" d="M 131.059509 -293.704687 
L 131.059509 -44.224688 
L 161.290468 -44.224688 
L 161.290468 -293.704687 
L 161.290468 -293.704687 
L 131.059509 -293.704687 
z
" style="stroke: #808080; stroke-opacity: 0.3"/>
    </defs>
    <g clip-path="url(#pe09cdd7009)">
     <use xlink:href="#m4f6c18dd8f" x="0" y="305.926094" style="fill: #808080; fill-opacity: 0.3; stroke: #808080; stroke-opacity: 0.3"/>
    </g>
   </g>
   <g id="PolyCollection_2">
    <defs>
     <path id="m8b716f7ced" d="M 231.162021 -293.704687 
L 231.162021 -44.224688 
L 261.392979 -44.224688 
L 261.392979 -293.704687 
L 261.392979 -293.704687 
L 231.162021 -293.704687 
z
" style="stroke: #808080; stroke-opacity: 0.3"/>
    </defs>
    <g clip-path="url(#pe09cdd7009)">
     <use xlink:href="#m8b716f7ced" x="0" y="305.926094" style="fill: #808080; fill-opacity: 0.3; stroke: #808080; stroke-opacity: 0.3"/>
    </g>
   </g>
   <g id="PolyCollection_3">
    <defs>
     <path id="ma741d69065" d="M 50.9775 -126.656727 
L 50.9775 -127.609252 
L 55.782421 -126.922079 
L 60.587341 -128.529033 
L 65.392262 -128.819184 
L 70.197182 -127.978877 
L 75.002103 -128.122037 
L 79.807023 -128.441248 
L 84.611944 -128.21036 
L 89.416864 -128.072246 
L 94.221785 -127.685897 
L 99.026706 -127.613442 
L 103.831626 -128.397374 
L 108.636547 -128.148256 
L 113.441467 -127.913005 
L 118.246388 -127.283873 
L 123.051308 -128.255011 
L 127.856229 -127.855513 
L 132.661149 -126.000667 
L 137.46607 -127.264712 
L 142.270991 -126.469371 
L 147.075911 -127.62447 
L 151.880832 -127.630053 
L 156.685752 -127.636251 
L 161.490673 -128.421362 
L 166.295593 -129.262952 
L 171.100514 -128.126795 
L 175.905434 -128.456716 
L 180.710355 -127.083885 
L 185.515275 -126.938478 
L 190.320196 -127.359052 
L 195.125117 -128.19494 
L 199.930037 -128.414713 
L 204.734958 -127.975013 
L 209.539878 -127.684421 
L 214.344799 -128.151593 
L 219.149719 -128.934982 
L 223.95464 -128.528688 
L 228.75956 -128.246794 
L 233.564481 -128.311669 
L 238.369402 -127.546766 
L 243.174322 -127.462131 
L 247.979243 -128.458707 
L 252.784163 -128.163267 
L 257.589084 -128.085239 
L 262.394004 -128.378161 
L 267.198925 -127.821277 
L 272.003845 -128.204293 
L 276.808766 -127.760231 
L 281.613687 -127.14185 
L 286.418607 -127.679292 
L 291.223528 -127.932135 
L 296.028448 -128.384466 
L 300.833369 -127.04774 
L 305.638289 -127.378635 
L 310.44321 -127.51833 
L 315.24813 -127.948973 
L 320.053051 -128.720326 
L 324.857972 -127.7307 
L 329.662892 -127.82889 
L 334.467813 -128.333315 
L 339.272733 -128.351739 
L 344.077654 -127.805991 
L 348.882574 -127.286825 
L 353.687495 -127.551356 
L 358.492415 -126.950175 
L 363.297336 -127.764201 
L 368.102257 -128.084161 
L 372.907177 -127.763518 
L 377.712098 -128.065099 
L 382.517018 -127.825817 
L 387.321939 -127.548016 
L 392.126859 -126.817166 
L 396.93178 -126.769369 
L 401.7367 -127.225951 
L 406.541621 -127.965272 
L 411.346542 -128.714791 
L 416.151462 -129.147339 
L 420.956383 -128.447904 
L 425.761303 -128.895488 
L 430.566224 -128.60251 
L 430.566224 -126.876497 
L 430.566224 -126.876497 
L 425.761303 -127.282063 
L 420.956383 -127.124242 
L 416.151462 -128.07581 
L 411.346542 -126.995956 
L 406.541621 -126.676591 
L 401.7367 -125.74495 
L 396.93178 -125.742489 
L 392.126859 -125.562745 
L 387.321939 -126.080403 
L 382.517018 -126.099761 
L 377.712098 -126.824026 
L 372.907177 -125.941409 
L 368.102257 -126.121944 
L 363.297336 -126.359852 
L 358.492415 -125.924261 
L 353.687495 -125.7289 
L 348.882574 -125.456773 
L 344.077654 -126.109608 
L 339.272733 -126.670443 
L 334.467813 -126.345138 
L 329.662892 -125.985809 
L 324.857972 -125.589473 
L 320.053051 -127.012596 
L 315.24813 -126.059765 
L 310.44321 -125.887221 
L 305.638289 -126.332945 
L 300.833369 -125.44416 
L 296.028448 -126.890522 
L 291.223528 -126.298363 
L 286.418607 -126.37158 
L 281.613687 -125.68269 
L 276.808766 -126.429242 
L 272.003845 -126.361063 
L 267.198925 -126.087669 
L 262.394004 -126.588581 
L 257.589084 -125.870277 
L 252.784163 -126.447549 
L 247.979243 -127.234298 
L 243.174322 -126.353676 
L 238.369402 -125.599326 
L 233.564481 -126.359023 
L 228.75956 -126.877397 
L 223.95464 -126.877139 
L 219.149719 -127.015265 
L 214.344799 -125.869342 
L 209.539878 -126.088143 
L 204.734958 -127.196856 
L 199.930037 -126.397906 
L 195.125117 -127.090027 
L 190.320196 -126.029867 
L 185.515275 -125.808446 
L 180.710355 -125.771701 
L 175.905434 -126.828251 
L 171.100514 -127.015137 
L 166.295593 -127.151882 
L 161.490673 -126.234915 
L 156.685752 -126.014345 
L 151.880832 -126.000584 
L 147.075911 -126.073805 
L 142.270991 -125.010195 
L 137.46607 -126.128642 
L 132.661149 -125.170652 
L 127.856229 -126.256343 
L 123.051308 -126.556499 
L 118.246388 -125.87996 
L 113.441467 -126.073558 
L 108.636547 -126.58342 
L 103.831626 -126.837697 
L 99.026706 -126.36425 
L 94.221785 -126.042315 
L 89.416864 -126.093942 
L 84.611944 -126.552362 
L 79.807023 -126.280449 
L 75.002103 -125.561822 
L 70.197182 -126.909139 
L 65.392262 -127.203135 
L 60.587341 -126.995435 
L 55.782421 -125.464485 
L 50.9775 -126.656727 
z
" style="stroke: #808080; stroke-opacity: 0.3"/>
    </defs>
    <g clip-path="url(#pe09cdd7009)">
     <use xlink:href="#ma741d69065" x="0" y="305.926094" style="fill: #808080; fill-opacity: 0.3; stroke: #808080; stroke-opacity: 0.3"/>
    </g>
   </g>
   <g id="PolyCollection_4">
    <defs>
     <path id="m6d11df1970" d="M 50.9775 -121.319643 
L 50.9775 -138.922769 
L 55.782421 -141.511332 
L 60.587341 -159.696334 
L 65.392262 -141.195873 
L 70.197182 -146.621007 
L 75.002103 -145.317264 
L 79.807023 -158.896391 
L 84.611944 -140.383732 
L 89.416864 -150.222021 
L 94.221785 -132.956327 
L 99.026706 -129.016072 
L 103.831626 -128.873126 
L 108.636547 -130.566027 
L 113.441467 -150.105189 
L 118.246388 -154.269051 
L 123.051308 -139.747686 
L 127.856229 -127.494192 
L 132.661149 -134.617277 
L 137.46607 -139.924914 
L 142.270991 -143.8284 
L 147.075911 -156.604705 
L 151.880832 -186.138527 
L 156.685752 -249.836558 
L 161.490673 -255.837601 
L 166.295593 -228.201533 
L 171.100514 -221.51366 
L 175.905434 -228.963263 
L 180.710355 -230.244222 
L 185.515275 -228.143567 
L 190.320196 -230.801291 
L 195.125117 -221.905549 
L 199.930037 -227.134874 
L 204.734958 -216.680442 
L 209.539878 -220.465988 
L 214.344799 -228.409302 
L 219.149719 -233.083834 
L 223.95464 -227.165029 
L 228.75956 -235.419219 
L 233.564481 -223.239096 
L 238.369402 -229.494422 
L 243.174322 -227.686396 
L 247.979243 -234.277304 
L 252.784163 -240.391825 
L 257.589084 -244.23888 
L 262.394004 -243.100987 
L 267.198925 -224.623699 
L 272.003845 -223.606398 
L 276.808766 -237.405955 
L 281.613687 -240.47193 
L 286.418607 -233.963661 
L 291.223528 -223.857858 
L 296.028448 -223.034909 
L 300.833369 -209.200996 
L 305.638289 -203.485701 
L 310.44321 -204.152411 
L 315.24813 -215.40519 
L 320.053051 -208.867729 
L 324.857972 -214.408393 
L 329.662892 -219.580215 
L 334.467813 -227.505403 
L 339.272733 -216.870064 
L 344.077654 -204.278771 
L 348.882574 -200.911221 
L 353.687495 -208.7154 
L 358.492415 -209.915273 
L 363.297336 -201.226232 
L 368.102257 -202.060609 
L 372.907177 -219.034332 
L 377.712098 -222.029858 
L 382.517018 -205.442839 
L 387.321939 -194.32344 
L 392.126859 -206.645855 
L 396.93178 -200.259008 
L 401.7367 -196.627205 
L 406.541621 -187.6775 
L 411.346542 -200.013748 
L 416.151462 -198.208849 
L 420.956383 -196.027339 
L 425.761303 -197.603207 
L 430.566224 -204.666838 
L 430.566224 -170.385161 
L 430.566224 -170.385161 
L 425.761303 -164.582277 
L 420.956383 -167.102843 
L 416.151462 -168.761107 
L 411.346542 -168.040614 
L 406.541621 -156.670718 
L 401.7367 -167.585165 
L 396.93178 -174.112188 
L 392.126859 -178.271137 
L 387.321939 -169.124967 
L 382.517018 -184.811917 
L 377.712098 -198.591603 
L 372.907177 -190.126573 
L 368.102257 -175.151333 
L 363.297336 -178.039207 
L 358.492415 -189.872946 
L 353.687495 -188.66894 
L 348.882574 -180.495311 
L 344.077654 -178.576962 
L 339.272733 -198.941423 
L 334.467813 -207.193383 
L 329.662892 -202.650115 
L 324.857972 -192.995064 
L 320.053051 -184.828742 
L 315.24813 -190.438185 
L 310.44321 -182.624039 
L 305.638289 -179.006346 
L 300.833369 -186.354933 
L 296.028448 -205.00886 
L 291.223528 -199.6864 
L 286.418607 -212.362002 
L 281.613687 -214.613253 
L 276.808766 -219.270356 
L 272.003845 -205.923162 
L 267.198925 -206.671071 
L 262.394004 -226.804416 
L 257.589084 -225.786274 
L 252.784163 -223.638048 
L 247.979243 -207.893686 
L 243.174322 -198.771788 
L 238.369402 -210.994518 
L 233.564481 -205.355746 
L 228.75956 -212.886761 
L 223.95464 -203.36467 
L 219.149719 -208.293255 
L 214.344799 -205.9513 
L 209.539878 -194.390822 
L 204.734958 -191.472563 
L 199.930037 -202.373619 
L 195.125117 -191.441076 
L 190.320196 -209.866165 
L 185.515275 -206.796938 
L 180.710355 -209.231275 
L 175.905434 -202.92915 
L 171.100514 -203.480908 
L 166.295593 -204.197602 
L 161.490673 -231.087883 
L 156.685752 -229.284082 
L 151.880832 -168.20885 
L 147.075911 -136.052366 
L 142.270991 -126.117121 
L 137.46607 -117.025471 
L 132.661149 -116.34337 
L 127.856229 -108.721633 
L 123.051308 -118.543237 
L 118.246388 -132.801885 
L 113.441467 -131.038103 
L 108.636547 -109.194631 
L 103.831626 -110.625855 
L 99.026706 -109.977297 
L 94.221785 -114.791018 
L 89.416864 -134.897427 
L 84.611944 -121.794645 
L 79.807023 -130.925479 
L 75.002103 -126.579744 
L 70.197182 -126.941419 
L 65.392262 -120.246261 
L 60.587341 -135.254844 
L 55.782421 -117.284096 
L 50.9775 -121.319643 
z
" style="stroke: #fdbe85; stroke-opacity: 0.3"/>
    </defs>
    <g clip-path="url(#pe09cdd7009)">
     <use xlink:href="#m6d11df1970" x="0" y="305.926094" style="fill: #fdbe85; fill-opacity: 0.3; stroke: #fdbe85; stroke-opacity: 0.3"/>
    </g>
   </g>
   <g id="PolyCollection_5">
    <defs>
     <path id="m477279b01e" d="M 50.9775 -125.936479 
L 50.9775 -128.208642 
L 55.782421 -127.983577 
L 60.587341 -128.661851 
L 65.392262 -128.587215 
L 70.197182 -128.534636 
L 75.002103 -127.947283 
L 79.807023 -129.450491 
L 84.611944 -127.848717 
L 89.416864 -127.551191 
L 94.221785 -128.784732 
L 99.026706 -128.577761 
L 103.831626 -128.463988 
L 108.636547 -128.540772 
L 113.441467 -128.189488 
L 118.246388 -128.947134 
L 123.051308 -127.391285 
L 127.856229 -127.232848 
L 132.661149 -128.372819 
L 137.46607 -128.222872 
L 142.270991 -127.630188 
L 147.075911 -127.722803 
L 151.880832 -127.284185 
L 156.685752 -128.098401 
L 161.490673 -127.892706 
L 166.295593 -128.183595 
L 171.100514 -128.462134 
L 175.905434 -128.041264 
L 180.710355 -126.973958 
L 185.515275 -127.03278 
L 190.320196 -127.485776 
L 195.125117 -127.80997 
L 199.930037 -128.025412 
L 204.734958 -127.73566 
L 209.539878 -127.302411 
L 214.344799 -127.233979 
L 219.149719 -128.252008 
L 223.95464 -128.279676 
L 228.75956 -127.827281 
L 233.564481 -128.95084 
L 238.369402 -128.955528 
L 243.174322 -127.066922 
L 247.979243 -128.109021 
L 252.784163 -128.29808 
L 257.589084 -127.852358 
L 262.394004 -127.93033 
L 267.198925 -127.983125 
L 272.003845 -127.926889 
L 276.808766 -128.709395 
L 281.613687 -128.536598 
L 286.418607 -126.973285 
L 291.223528 -126.73878 
L 296.028448 -127.565229 
L 300.833369 -126.506271 
L 305.638289 -126.272275 
L 310.44321 -125.814339 
L 315.24813 -126.884389 
L 320.053051 -127.57702 
L 324.857972 -127.99089 
L 329.662892 -127.278418 
L 334.467813 -127.670929 
L 339.272733 -128.407635 
L 344.077654 -127.204222 
L 348.882574 -127.152792 
L 353.687495 -127.349169 
L 358.492415 -127.661548 
L 363.297336 -126.950964 
L 368.102257 -127.034306 
L 372.907177 -127.17592 
L 377.712098 -128.665098 
L 382.517018 -127.516462 
L 387.321939 -127.133013 
L 392.126859 -128.336978 
L 396.93178 -127.709318 
L 401.7367 -127.171841 
L 406.541621 -127.355452 
L 411.346542 -127.959363 
L 416.151462 -127.627286 
L 420.956383 -126.234672 
L 425.761303 -127.697051 
L 430.566224 -127.693312 
L 430.566224 -126.498379 
L 430.566224 -126.498379 
L 425.761303 -126.588888 
L 420.956383 -124.827984 
L 416.151462 -126.003351 
L 411.346542 -126.291094 
L 406.541621 -126.047882 
L 401.7367 -125.917702 
L 396.93178 -126.856038 
L 392.126859 -127.557829 
L 387.321939 -126.074063 
L 382.517018 -126.603156 
L 377.712098 -127.428184 
L 372.907177 -126.384863 
L 368.102257 -125.469791 
L 363.297336 -125.488823 
L 358.492415 -126.2729 
L 353.687495 -125.954373 
L 348.882574 -126.013258 
L 344.077654 -126.2102 
L 339.272733 -126.959383 
L 334.467813 -126.429839 
L 329.662892 -125.933093 
L 324.857972 -126.17308 
L 320.053051 -126.236569 
L 315.24813 -125.660733 
L 310.44321 -124.602996 
L 305.638289 -124.901261 
L 300.833369 -125.620834 
L 296.028448 -126.177397 
L 291.223528 -125.490334 
L 286.418607 -125.275788 
L 281.613687 -126.903601 
L 276.808766 -127.321794 
L 272.003845 -126.257039 
L 267.198925 -126.137602 
L 262.394004 -125.841125 
L 257.589084 -125.847025 
L 252.784163 -126.553346 
L 247.979243 -126.653701 
L 243.174322 -126.187833 
L 238.369402 -127.257505 
L 233.564481 -128.038352 
L 228.75956 -126.383259 
L 223.95464 -126.218043 
L 219.149719 -126.088262 
L 214.344799 -125.786819 
L 209.539878 -125.952343 
L 204.734958 -126.164416 
L 199.930037 -125.917907 
L 195.125117 -126.230924 
L 190.320196 -125.944169 
L 185.515275 -125.706382 
L 180.710355 -125.451414 
L 175.905434 -126.417647 
L 171.100514 -126.811745 
L 166.295593 -126.457159 
L 161.490673 -125.95193 
L 156.685752 -126.391556 
L 151.880832 -125.928435 
L 147.075911 -125.571868 
L 142.270991 -125.238703 
L 137.46607 -126.156205 
L 132.661149 -126.935433 
L 127.856229 -126.010819 
L 123.051308 -125.837967 
L 118.246388 -127.647326 
L 113.441467 -126.418003 
L 108.636547 -126.942671 
L 103.831626 -126.786606 
L 99.026706 -127.312611 
L 94.221785 -127.187691 
L 89.416864 -126.211394 
L 84.611944 -126.480464 
L 79.807023 -127.64182 
L 75.002103 -126.7223 
L 70.197182 -127.437787 
L 65.392262 -127.711195 
L 60.587341 -126.707385 
L 55.782421 -126.397718 
L 50.9775 -125.936479 
z
" style="stroke: #808080; stroke-opacity: 0.3"/>
    </defs>
    <g clip-path="url(#pe09cdd7009)">
     <use xlink:href="#m477279b01e" x="0" y="305.926094" style="fill: #808080; fill-opacity: 0.3; stroke: #808080; stroke-opacity: 0.3"/>
    </g>
   </g>
   <g id="PolyCollection_6">
    <defs>
     <path id="m70e59b200b" d="M 50.9775 -131.604861 
L 50.9775 -151.444458 
L 55.782421 -153.358156 
L 60.587341 -143.182843 
L 65.392262 -138.590446 
L 70.197182 -138.721518 
L 75.002103 -149.650701 
L 79.807023 -124.277882 
L 84.611944 -147.580128 
L 89.416864 -148.979342 
L 94.221785 -150.820971 
L 99.026706 -111.783488 
L 103.831626 -125.295579 
L 108.636547 -129.28808 
L 113.441467 -140.624765 
L 118.246388 -124.346732 
L 123.051308 -121.879386 
L 127.856229 -123.958754 
L 132.661149 -134.932385 
L 137.46607 -121.379974 
L 142.270991 -148.459119 
L 147.075911 -165.937171 
L 151.880832 -177.848302 
L 156.685752 -242.400976 
L 161.490673 -260.010232 
L 166.295593 -219.977106 
L 171.100514 -210.753821 
L 175.905434 -216.825169 
L 180.710355 -224.456144 
L 185.515275 -209.026664 
L 190.320196 -213.262635 
L 195.125117 -226.630701 
L 199.930037 -223.068445 
L 204.734958 -205.093292 
L 209.539878 -200.551678 
L 214.344799 -217.121867 
L 219.149719 -226.942866 
L 223.95464 -230.578034 
L 228.75956 -217.111786 
L 233.564481 -223.415645 
L 238.369402 -232.337169 
L 243.174322 -222.057191 
L 247.979243 -218.571874 
L 252.784163 -227.275237 
L 257.589084 -242.443588 
L 262.394004 -242.687921 
L 267.198925 -245.362567 
L 272.003845 -226.47731 
L 276.808766 -221.090979 
L 281.613687 -220.859808 
L 286.418607 -230.290615 
L 291.223528 -220.504433 
L 296.028448 -222.156095 
L 300.833369 -218.506951 
L 305.638289 -210.878444 
L 310.44321 -204.45152 
L 315.24813 -203.282109 
L 320.053051 -186.618604 
L 324.857972 -189.175167 
L 329.662892 -190.596958 
L 334.467813 -190.452053 
L 339.272733 -200.448156 
L 344.077654 -199.144379 
L 348.882574 -201.694645 
L 353.687495 -195.197199 
L 358.492415 -203.929662 
L 363.297336 -195.021395 
L 368.102257 -203.462462 
L 372.907177 -198.672338 
L 377.712098 -198.040979 
L 382.517018 -188.71168 
L 387.321939 -186.468235 
L 392.126859 -194.023331 
L 396.93178 -199.5574 
L 401.7367 -192.70815 
L 406.541621 -188.642318 
L 411.346542 -180.749861 
L 416.151462 -185.752941 
L 420.956383 -186.996152 
L 425.761303 -191.988499 
L 430.566224 -179.62768 
L 430.566224 -147.174887 
L 430.566224 -147.174887 
L 425.761303 -160.803231 
L 420.956383 -157.072648 
L 416.151462 -159.236163 
L 411.346542 -156.252557 
L 406.541621 -164.925572 
L 401.7367 -172.055293 
L 396.93178 -175.228487 
L 392.126859 -169.994999 
L 387.321939 -162.621212 
L 382.517018 -167.382056 
L 377.712098 -174.786767 
L 372.907177 -172.345847 
L 368.102257 -180.254809 
L 363.297336 -173.467617 
L 358.492415 -172.671331 
L 353.687495 -164.770685 
L 348.882574 -181.513687 
L 344.077654 -179.001172 
L 339.272733 -171.926091 
L 334.467813 -162.766565 
L 329.662892 -166.475849 
L 324.857972 -158.952951 
L 320.053051 -162.633836 
L 315.24813 -177.832809 
L 310.44321 -178.338795 
L 305.638289 -182.869032 
L 300.833369 -183.090829 
L 296.028448 -188.151309 
L 291.223528 -185.863404 
L 286.418607 -206.564787 
L 281.613687 -195.300951 
L 276.808766 -195.900271 
L 272.003845 -210.374765 
L 267.198925 -224.011721 
L 262.394004 -223.784638 
L 257.589084 -218.93847 
L 252.784163 -202.045869 
L 247.979243 -193.884384 
L 243.174322 -196.805713 
L 238.369402 -210.13874 
L 233.564481 -198.702696 
L 228.75956 -193.865333 
L 223.95464 -210.433151 
L 219.149719 -206.113788 
L 214.344799 -198.415747 
L 209.539878 -173.165326 
L 204.734958 -173.373811 
L 199.930037 -190.280397 
L 195.125117 -200.799901 
L 190.320196 -189.544846 
L 185.515275 -188.16918 
L 180.710355 -204.071062 
L 175.905434 -189.055905 
L 171.100514 -193.562737 
L 166.295593 -200.728624 
L 161.490673 -241.136721 
L 156.685752 -220.558904 
L 151.880832 -161.165479 
L 147.075911 -139.779347 
L 142.270991 -117.282941 
L 137.46607 -109.712085 
L 132.661149 -120.409131 
L 127.856229 -108.676755 
L 123.051308 -105.16888 
L 118.246388 -107.834169 
L 113.441467 -117.854655 
L 108.636547 -111.168905 
L 103.831626 -104.035707 
L 99.026706 -96.381914 
L 94.221785 -133.408111 
L 89.416864 -127.888417 
L 84.611944 -133.242721 
L 79.807023 -110.829142 
L 75.002103 -129.729599 
L 70.197182 -117.430531 
L 65.392262 -120.588627 
L 60.587341 -124.777926 
L 55.782421 -134.823798 
L 50.9775 -131.604861 
z
" style="stroke: #d94701; stroke-opacity: 0.3"/>
    </defs>
    <g clip-path="url(#pe09cdd7009)">
     <use xlink:href="#m70e59b200b" x="0" y="305.926094" style="fill: #d94701; fill-opacity: 0.3; stroke: #d94701; stroke-opacity: 0.3"/>
    </g>
   </g>
   <g id="matplotlib.axis_1">
    <g id="xtick_1">
     <g id="line2d_1">
      <defs>
       <path id="m43c8d5b515" d="M 0 0 
L 0 3.5 
" style="stroke: #000000; stroke-width: 0.8"/>
      </defs>
      <g>
       <use xlink:href="#m43c8d5b515" x="50.9775" y="261.701406" style="stroke: #000000; stroke-width: 0.8"/>
      </g>
     </g>
     <g id="text_1">
      <!-- −400 -->
      <g transform="translate(35.211094 278.744219) scale(0.14 -0.14)">
       <defs>
        <path id="Helvetica-2212" d="M 3547 1894 
L 3547 1369 
L 288 1369 
L 288 1894 
L 3547 1894 
z
" transform="scale(0.015625)"/>
        <path id="Helvetica-34" d="M 2116 1584 
L 2116 3613 
L 681 1584 
L 2116 1584 
z
M 2125 0 
L 2125 1094 
L 163 1094 
L 163 1644 
L 2213 4488 
L 2688 4488 
L 2688 1584 
L 3347 1584 
L 3347 1094 
L 2688 1094 
L 2688 0 
L 2125 0 
z
" transform="scale(0.015625)"/>
        <path id="Helvetica-30" d="M 1731 4475 
Q 2600 4475 2988 3759 
Q 3288 3206 3288 2244 
Q 3288 1331 3016 734 
Q 2622 -122 1728 -122 
Q 922 -122 528 578 
Q 200 1163 200 2147 
Q 200 2909 397 3456 
Q 766 4475 1731 4475 
z
M 1725 391 
Q 2163 391 2422 778 
Q 2681 1166 2681 2222 
Q 2681 2984 2493 3476 
Q 2306 3969 1766 3969 
Q 1269 3969 1039 3501 
Q 809 3034 809 2125 
Q 809 1441 956 1025 
Q 1181 391 1725 391 
z
" transform="scale(0.015625)"/>
       </defs>
       <use xlink:href="#Helvetica-2212"/>
       <use xlink:href="#Helvetica-34" x="58.398438"/>
       <use xlink:href="#Helvetica-30" x="114.013672"/>
       <use xlink:href="#Helvetica-30" x="169.628906"/>
      </g>
     </g>
    </g>
    <g id="xtick_2">
     <g id="line2d_2">
      <g>
       <use xlink:href="#m43c8d5b515" x="91.018505" y="261.701406" style="stroke: #000000; stroke-width: 0.8"/>
      </g>
     </g>
     <g id="text_2">
      <!-- −200 -->
      <g transform="translate(75.252098 278.744219) scale(0.14 -0.14)">
       <defs>
        <path id="Helvetica-32" d="M 200 0 
Q 231 578 439 1006 
Q 647 1434 1250 1784 
L 1850 2131 
Q 2253 2366 2416 2531 
Q 2672 2791 2672 3125 
Q 2672 3516 2437 3745 
Q 2203 3975 1813 3975 
Q 1234 3975 1013 3538 
Q 894 3303 881 2888 
L 309 2888 
Q 319 3472 525 3841 
Q 891 4491 1816 4491 
Q 2584 4491 2939 4075 
Q 3294 3659 3294 3150 
Q 3294 2613 2916 2231 
Q 2697 2009 2131 1694 
L 1703 1456 
Q 1397 1288 1222 1134 
Q 909 863 828 531 
L 3272 531 
L 3272 0 
L 200 0 
z
" transform="scale(0.015625)"/>
       </defs>
       <use xlink:href="#Helvetica-2212"/>
       <use xlink:href="#Helvetica-32" x="58.398438"/>
       <use xlink:href="#Helvetica-30" x="114.013672"/>
       <use xlink:href="#Helvetica-30" x="169.628906"/>
      </g>
     </g>
    </g>
    <g id="xtick_3">
     <g id="line2d_3">
      <g>
       <use xlink:href="#m43c8d5b515" x="131.059509" y="261.701406" style="stroke: #000000; stroke-width: 0.8"/>
      </g>
     </g>
     <g id="text_3">
      <!-- 0 -->
      <g transform="translate(127.166853 278.744219) scale(0.14 -0.14)">
       <use xlink:href="#Helvetica-30"/>
      </g>
     </g>
    </g>
    <g id="xtick_4">
     <g id="line2d_4">
      <g>
       <use xlink:href="#m43c8d5b515" x="171.100514" y="261.701406" style="stroke: #000000; stroke-width: 0.8"/>
      </g>
     </g>
     <g id="text_4">
      <!-- 200 -->
      <g transform="translate(159.422545 278.744219) scale(0.14 -0.14)">
       <use xlink:href="#Helvetica-32"/>
       <use xlink:href="#Helvetica-30" x="55.615234"/>
       <use xlink:href="#Helvetica-30" x="111.230469"/>
      </g>
     </g>
    </g>
    <g id="xtick_5">
     <g id="line2d_5">
      <g>
       <use xlink:href="#m43c8d5b515" x="211.141518" y="261.701406" style="stroke: #000000; stroke-width: 0.8"/>
      </g>
     </g>
     <g id="text_5">
      <!-- 400 -->
      <g transform="translate(199.46355 278.744219) scale(0.14 -0.14)">
       <use xlink:href="#Helvetica-34"/>
       <use xlink:href="#Helvetica-30" x="55.615234"/>
       <use xlink:href="#Helvetica-30" x="111.230469"/>
      </g>
     </g>
    </g>
    <g id="xtick_6">
     <g id="line2d_6">
      <g>
       <use xlink:href="#m43c8d5b515" x="251.182523" y="261.701406" style="stroke: #000000; stroke-width: 0.8"/>
      </g>
     </g>
     <g id="text_6">
      <!-- 600 -->
      <g transform="translate(239.504554 278.744219) scale(0.14 -0.14)">
       <defs>
        <path id="Helvetica-36" d="M 1872 4494 
Q 2622 4494 2917 4105 
Q 3213 3716 3213 3303 
L 2656 3303 
Q 2606 3569 2497 3719 
Q 2294 4000 1881 4000 
Q 1409 4000 1131 3564 
Q 853 3128 822 2316 
Q 1016 2600 1309 2741 
Q 1578 2866 1909 2866 
Q 2472 2866 2890 2506 
Q 3309 2147 3309 1434 
Q 3309 825 2912 354 
Q 2516 -116 1781 -116 
Q 1153 -116 697 361 
Q 241 838 241 1966 
Q 241 2800 444 3381 
Q 834 4494 1872 4494 
z
M 1831 384 
Q 2275 384 2495 682 
Q 2716 981 2716 1388 
Q 2716 1731 2519 2042 
Q 2322 2353 1803 2353 
Q 1441 2353 1167 2112 
Q 894 1872 894 1388 
Q 894 963 1142 673 
Q 1391 384 1831 384 
z
" transform="scale(0.015625)"/>
       </defs>
       <use xlink:href="#Helvetica-36"/>
       <use xlink:href="#Helvetica-30" x="55.615234"/>
       <use xlink:href="#Helvetica-30" x="111.230469"/>
      </g>
     </g>
    </g>
    <g id="xtick_7">
     <g id="line2d_7">
      <g>
       <use xlink:href="#m43c8d5b515" x="291.223528" y="261.701406" style="stroke: #000000; stroke-width: 0.8"/>
      </g>
     </g>
     <g id="text_7">
      <!-- 800 -->
      <g transform="translate(279.545559 278.744219) scale(0.14 -0.14)">
       <defs>
        <path id="Helvetica-38" d="M 1741 2600 
Q 2113 2600 2322 2808 
Q 2531 3016 2531 3303 
Q 2531 3553 2331 3762 
Q 2131 3972 1722 3972 
Q 1316 3972 1134 3762 
Q 953 3553 953 3272 
Q 953 2956 1187 2778 
Q 1422 2600 1741 2600 
z
M 1775 384 
Q 2166 384 2423 595 
Q 2681 806 2681 1225 
Q 2681 1659 2415 1884 
Q 2150 2109 1734 2109 
Q 1331 2109 1076 1879 
Q 822 1650 822 1244 
Q 822 894 1055 639 
Q 1288 384 1775 384 
z
M 975 2384 
Q 741 2484 609 2619 
Q 363 2869 363 3269 
Q 363 3769 725 4128 
Q 1088 4488 1753 4488 
Q 2397 4488 2762 4148 
Q 3128 3809 3128 3356 
Q 3128 2938 2916 2678 
Q 2797 2531 2547 2391 
Q 2825 2263 2984 2097 
Q 3281 1784 3281 1284 
Q 3281 694 2884 283 
Q 2488 -128 1763 -128 
Q 1109 -128 657 226 
Q 206 581 206 1256 
Q 206 1653 400 1942 
Q 594 2231 975 2384 
z
" transform="scale(0.015625)"/>
       </defs>
       <use xlink:href="#Helvetica-38"/>
       <use xlink:href="#Helvetica-30" x="55.615234"/>
       <use xlink:href="#Helvetica-30" x="111.230469"/>
      </g>
     </g>
    </g>
    <g id="xtick_8">
     <g id="line2d_8">
      <g>
       <use xlink:href="#m43c8d5b515" x="331.264532" y="261.701406" style="stroke: #000000; stroke-width: 0.8"/>
      </g>
     </g>
     <g id="text_8">
      <!-- 1000 -->
      <g transform="translate(315.693907 278.744219) scale(0.14 -0.14)">
       <defs>
        <path id="Helvetica-31" d="M 613 3169 
L 613 3600 
Q 1222 3659 1462 3798 
Q 1703 3938 1822 4456 
L 2266 4456 
L 2266 0 
L 1666 0 
L 1666 3169 
L 613 3169 
z
" transform="scale(0.015625)"/>
       </defs>
       <use xlink:href="#Helvetica-31"/>
       <use xlink:href="#Helvetica-30" x="55.615234"/>
       <use xlink:href="#Helvetica-30" x="111.230469"/>
       <use xlink:href="#Helvetica-30" x="166.845703"/>
      </g>
     </g>
    </g>
    <g id="xtick_9">
     <g id="line2d_9">
      <g>
       <use xlink:href="#m43c8d5b515" x="371.305537" y="261.701406" style="stroke: #000000; stroke-width: 0.8"/>
      </g>
     </g>
     <g id="text_9">
      <!-- 1200 -->
      <g transform="translate(355.734912 278.744219) scale(0.14 -0.14)">
       <use xlink:href="#Helvetica-31"/>
       <use xlink:href="#Helvetica-32" x="55.615234"/>
       <use xlink:href="#Helvetica-30" x="111.230469"/>
       <use xlink:href="#Helvetica-30" x="166.845703"/>
      </g>
     </g>
    </g>
    <g id="xtick_10">
     <g id="line2d_10">
      <g>
       <use xlink:href="#m43c8d5b515" x="411.346542" y="261.701406" style="stroke: #000000; stroke-width: 0.8"/>
      </g>
     </g>
     <g id="text_10">
      <!-- 1400 -->
      <g transform="translate(395.775917 278.744219) scale(0.14 -0.14)">
       <use xlink:href="#Helvetica-31"/>
       <use xlink:href="#Helvetica-34" x="55.615234"/>
       <use xlink:href="#Helvetica-30" x="111.230469"/>
       <use xlink:href="#Helvetica-30" x="166.845703"/>
      </g>
     </g>
    </g>
    <g id="text_11">
     <!-- Time (ms) -->
     <g transform="translate(214.78625 295.807969) scale(0.14 -0.14)">
      <defs>
       <path id="Helvetica-54" d="M 3828 4591 
L 3828 4044 
L 2281 4044 
L 2281 0 
L 1650 0 
L 1650 4044 
L 103 4044 
L 103 4591 
L 3828 4591 
z
" transform="scale(0.015625)"/>
       <path id="Helvetica-69" d="M 413 3331 
L 984 3331 
L 984 0 
L 413 0 
L 413 3331 
z
M 413 4591 
L 984 4591 
L 984 3953 
L 413 3953 
L 413 4591 
z
" transform="scale(0.015625)"/>
       <path id="Helvetica-6d" d="M 413 3347 
L 969 3347 
L 969 2872 
Q 1169 3119 1331 3231 
Q 1609 3422 1963 3422 
Q 2363 3422 2606 3225 
Q 2744 3113 2856 2894 
Q 3044 3163 3297 3292 
Q 3550 3422 3866 3422 
Q 4541 3422 4784 2934 
Q 4916 2672 4916 2228 
L 4916 0 
L 4331 0 
L 4331 2325 
Q 4331 2659 4164 2784 
Q 3997 2909 3756 2909 
Q 3425 2909 3186 2687 
Q 2947 2466 2947 1947 
L 2947 0 
L 2375 0 
L 2375 2184 
Q 2375 2525 2294 2681 
Q 2166 2916 1816 2916 
Q 1497 2916 1236 2669 
Q 975 2422 975 1775 
L 975 0 
L 413 0 
L 413 3347 
z
" transform="scale(0.015625)"/>
       <path id="Helvetica-65" d="M 1806 3422 
Q 2163 3422 2497 3255 
Q 2831 3088 3006 2822 
Q 3175 2569 3231 2231 
Q 3281 2000 3281 1494 
L 828 1494 
Q 844 984 1069 676 
Q 1294 369 1766 369 
Q 2206 369 2469 659 
Q 2619 828 2681 1050 
L 3234 1050 
Q 3213 866 3089 639 
Q 2966 413 2813 269 
Q 2556 19 2178 -69 
Q 1975 -119 1719 -119 
Q 1094 -119 659 336 
Q 225 791 225 1609 
Q 225 2416 662 2919 
Q 1100 3422 1806 3422 
z
M 2703 1941 
Q 2669 2306 2544 2525 
Q 2313 2931 1772 2931 
Q 1384 2931 1121 2651 
Q 859 2372 844 1941 
L 2703 1941 
z
M 1753 3428 
L 1753 3428 
z
" transform="scale(0.015625)"/>
       <path id="Helvetica-20" transform="scale(0.015625)"/>
       <path id="Helvetica-28" d="M 1894 4666 
Q 1403 3713 1256 3263 
Q 1034 2578 1034 1681 
Q 1034 775 1288 25 
Q 1444 -438 1903 -1306 
L 1525 -1306 
Q 1069 -594 959 -397 
Q 850 -200 722 138 
Q 547 600 478 1125 
Q 444 1397 444 1644 
Q 444 2569 734 3291 
Q 919 3750 1503 4666 
L 1894 4666 
z
" transform="scale(0.015625)"/>
       <path id="Helvetica-73" d="M 747 1050 
Q 772 769 888 619 
Q 1100 347 1625 347 
Q 1938 347 2175 483 
Q 2413 619 2413 903 
Q 2413 1119 2222 1231 
Q 2100 1300 1741 1391 
L 1294 1503 
Q 866 1609 663 1741 
Q 300 1969 300 2372 
Q 300 2847 642 3140 
Q 984 3434 1563 3434 
Q 2319 3434 2653 2991 
Q 2863 2709 2856 2384 
L 2325 2384 
Q 2309 2575 2191 2731 
Q 1997 2953 1519 2953 
Q 1200 2953 1036 2831 
Q 872 2709 872 2509 
Q 872 2291 1088 2159 
Q 1213 2081 1456 2022 
L 1828 1931 
Q 2434 1784 2641 1647 
Q 2969 1431 2969 969 
Q 2969 522 2630 197 
Q 2291 -128 1597 -128 
Q 850 -128 539 211 
Q 228 550 206 1050 
L 747 1050 
z
M 1578 3428 
L 1578 3428 
z
" transform="scale(0.015625)"/>
       <path id="Helvetica-29" d="M 222 -1306 
Q 719 -338 863 106 
Q 1081 778 1081 1681 
Q 1081 2584 828 3334 
Q 672 3797 213 4666 
L 591 4666 
Q 1072 3897 1173 3717 
Q 1275 3538 1394 3222 
Q 1544 2831 1608 2450 
Q 1672 2069 1672 1716 
Q 1672 791 1378 66 
Q 1194 -400 613 -1306 
L 222 -1306 
z
" transform="scale(0.015625)"/>
      </defs>
      <use xlink:href="#Helvetica-54"/>
      <use xlink:href="#Helvetica-69" x="61.083984"/>
      <use xlink:href="#Helvetica-6d" x="83.300781"/>
      <use xlink:href="#Helvetica-65" x="166.601562"/>
      <use xlink:href="#Helvetica-20" x="222.216797"/>
      <use xlink:href="#Helvetica-28" x="250"/>
      <use xlink:href="#Helvetica-6d" x="283.300781"/>
      <use xlink:href="#Helvetica-73" x="366.601562"/>
      <use xlink:href="#Helvetica-29" x="416.601562"/>
     </g>
    </g>
   </g>
   <g id="matplotlib.axis_2">
    <g id="ytick_1">
     <g id="line2d_11">
      <defs>
       <path id="m939d70043f" d="M 0 0 
L -3.5 0 
" style="stroke: #000000; stroke-width: 0.8"/>
      </defs>
      <g>
       <use xlink:href="#m939d70043f" x="50.9775" y="245.069406" style="stroke: #000000; stroke-width: 0.8"/>
      </g>
     </g>
     <g id="text_12">
      <!-- 0.3 -->
      <g transform="translate(24.5175 250.090812) scale(0.14 -0.14)">
       <defs>
        <path id="Helvetica-2e" d="M 547 681 
L 1200 681 
L 1200 0 
L 547 0 
L 547 681 
z
" transform="scale(0.015625)"/>
        <path id="Helvetica-33" d="M 1663 -122 
Q 869 -122 511 314 
Q 153 750 153 1375 
L 741 1375 
Q 778 941 903 744 
Q 1122 391 1694 391 
Q 2138 391 2406 628 
Q 2675 866 2675 1241 
Q 2675 1703 2392 1887 
Q 2109 2072 1606 2072 
Q 1550 2072 1492 2070 
Q 1434 2069 1375 2066 
L 1375 2563 
Q 1463 2553 1522 2550 
Q 1581 2547 1650 2547 
Q 1966 2547 2169 2647 
Q 2525 2822 2525 3272 
Q 2525 3606 2287 3787 
Q 2050 3969 1734 3969 
Q 1172 3969 956 3594 
Q 838 3388 822 3006 
L 266 3006 
Q 266 3506 466 3856 
Q 809 4481 1675 4481 
Q 2359 4481 2734 4176 
Q 3109 3872 3109 3294 
Q 3109 2881 2888 2625 
Q 2750 2466 2531 2375 
Q 2884 2278 3082 2001 
Q 3281 1725 3281 1325 
Q 3281 684 2859 281 
Q 2438 -122 1663 -122 
z
" transform="scale(0.015625)"/>
       </defs>
       <use xlink:href="#Helvetica-30"/>
       <use xlink:href="#Helvetica-2e" x="55.615234"/>
       <use xlink:href="#Helvetica-33" x="83.398438"/>
      </g>
     </g>
    </g>
    <g id="ytick_2">
     <g id="line2d_12">
      <g>
       <use xlink:href="#m939d70043f" x="50.9775" y="211.805406" style="stroke: #000000; stroke-width: 0.8"/>
      </g>
     </g>
     <g id="text_13">
      <!-- 0.4 -->
      <g transform="translate(24.5175 216.826812) scale(0.14 -0.14)">
       <use xlink:href="#Helvetica-30"/>
       <use xlink:href="#Helvetica-2e" x="55.615234"/>
       <use xlink:href="#Helvetica-34" x="83.398438"/>
      </g>
     </g>
    </g>
    <g id="ytick_3">
     <g id="line2d_13">
      <g>
       <use xlink:href="#m939d70043f" x="50.9775" y="178.541406" style="stroke: #000000; stroke-width: 0.8"/>
      </g>
     </g>
     <g id="text_14">
      <!-- 0.5 -->
      <g transform="translate(24.5175 183.562812) scale(0.14 -0.14)">
       <defs>
        <path id="Helvetica-35" d="M 791 1141 
Q 847 659 1238 475 
Q 1438 381 1700 381 
Q 2200 381 2440 700 
Q 2681 1019 2681 1406 
Q 2681 1875 2395 2131 
Q 2109 2388 1709 2388 
Q 1419 2388 1211 2275 
Q 1003 2163 856 1963 
L 369 1991 
L 709 4400 
L 3034 4400 
L 3034 3856 
L 1131 3856 
L 941 2613 
Q 1097 2731 1238 2791 
Q 1488 2894 1816 2894 
Q 2431 2894 2859 2497 
Q 3288 2100 3288 1491 
Q 3288 856 2895 371 
Q 2503 -113 1644 -113 
Q 1097 -113 676 195 
Q 256 503 206 1141 
L 791 1141 
z
" transform="scale(0.015625)"/>
       </defs>
       <use xlink:href="#Helvetica-30"/>
       <use xlink:href="#Helvetica-2e" x="55.615234"/>
       <use xlink:href="#Helvetica-35" x="83.398438"/>
      </g>
     </g>
    </g>
    <g id="ytick_4">
     <g id="line2d_14">
      <g>
       <use xlink:href="#m939d70043f" x="50.9775" y="145.277406" style="stroke: #000000; stroke-width: 0.8"/>
      </g>
     </g>
     <g id="text_15">
      <!-- 0.6 -->
      <g transform="translate(24.5175 150.298812) scale(0.14 -0.14)">
       <use xlink:href="#Helvetica-30"/>
       <use xlink:href="#Helvetica-2e" x="55.615234"/>
       <use xlink:href="#Helvetica-36" x="83.398438"/>
      </g>
     </g>
    </g>
    <g id="ytick_5">
     <g id="line2d_15">
      <g>
       <use xlink:href="#m939d70043f" x="50.9775" y="112.013406" style="stroke: #000000; stroke-width: 0.8"/>
      </g>
     </g>
     <g id="text_16">
      <!-- 0.7 -->
      <g transform="translate(24.5175 117.034812) scale(0.14 -0.14)">
       <defs>
        <path id="Helvetica-37" d="M 3347 4400 
L 3347 3909 
Q 3131 3700 2773 3181 
Q 2416 2663 2141 2063 
Q 1869 1478 1728 997 
Q 1638 688 1494 0 
L 872 0 
Q 1084 1281 1809 2550 
Q 2238 3294 2709 3834 
L 234 3834 
L 234 4400 
L 3347 4400 
z
" transform="scale(0.015625)"/>
       </defs>
       <use xlink:href="#Helvetica-30"/>
       <use xlink:href="#Helvetica-2e" x="55.615234"/>
       <use xlink:href="#Helvetica-37" x="83.398438"/>
      </g>
     </g>
    </g>
    <g id="ytick_6">
     <g id="line2d_16">
      <g>
       <use xlink:href="#m939d70043f" x="50.9775" y="78.749406" style="stroke: #000000; stroke-width: 0.8"/>
      </g>
     </g>
     <g id="text_17">
      <!-- 0.8 -->
      <g transform="translate(24.5175 83.770812) scale(0.14 -0.14)">
       <use xlink:href="#Helvetica-30"/>
       <use xlink:href="#Helvetica-2e" x="55.615234"/>
       <use xlink:href="#Helvetica-38" x="83.398438"/>
      </g>
     </g>
    </g>
    <g id="ytick_7">
     <g id="line2d_17">
      <g>
       <use xlink:href="#m939d70043f" x="50.9775" y="45.485406" style="stroke: #000000; stroke-width: 0.8"/>
      </g>
     </g>
     <g id="text_18">
      <!-- 0.9 -->
      <g transform="translate(24.5175 50.506812) scale(0.14 -0.14)">
       <defs>
        <path id="Helvetica-39" d="M 850 1081 
Q 875 616 1209 438 
Q 1381 344 1597 344 
Q 2000 344 2284 680 
Q 2569 1016 2688 2044 
Q 2500 1747 2223 1626 
Q 1947 1506 1628 1506 
Q 981 1506 604 1909 
Q 228 2313 228 2947 
Q 228 3556 600 4018 
Q 972 4481 1697 4481 
Q 2675 4481 3047 3600 
Q 3253 3116 3253 2388 
Q 3253 1566 3006 931 
Q 2597 -125 1619 -125 
Q 963 -125 622 219 
Q 281 563 281 1081 
L 850 1081 
z
M 1703 2000 
Q 2038 2000 2314 2220 
Q 2591 2441 2591 2991 
Q 2591 3484 2342 3726 
Q 2094 3969 1709 3969 
Q 1297 3969 1055 3692 
Q 813 3416 813 2953 
Q 813 2516 1025 2258 
Q 1238 2000 1703 2000 
z
" transform="scale(0.015625)"/>
       </defs>
       <use xlink:href="#Helvetica-30"/>
       <use xlink:href="#Helvetica-2e" x="55.615234"/>
       <use xlink:href="#Helvetica-39" x="83.398438"/>
      </g>
     </g>
    </g>
    <g id="ytick_8">
     <g id="line2d_18">
      <g>
       <use xlink:href="#m939d70043f" x="50.9775" y="12.221406" style="stroke: #000000; stroke-width: 0.8"/>
      </g>
     </g>
     <g id="text_19">
      <!-- 1.0 -->
      <g transform="translate(24.5175 17.242812) scale(0.14 -0.14)">
       <use xlink:href="#Helvetica-31"/>
       <use xlink:href="#Helvetica-2e" x="55.615234"/>
       <use xlink:href="#Helvetica-30" x="83.398438"/>
      </g>
     </g>
    </g>
    <g id="text_20">
     <!-- Classification accuracy -->
     <g transform="translate(17.51625 208.151406) rotate(-90) scale(0.14 -0.14)">
      <defs>
       <path id="Helvetica-43" d="M 2422 4716 
Q 3294 4716 3775 4256 
Q 4256 3797 4309 3213 
L 3703 3213 
Q 3600 3656 3292 3915 
Q 2984 4175 2428 4175 
Q 1750 4175 1333 3698 
Q 916 3222 916 2238 
Q 916 1431 1292 929 
Q 1669 428 2416 428 
Q 3103 428 3463 956 
Q 3653 1234 3747 1688 
L 4353 1688 
Q 4272 963 3816 472 
Q 3269 -119 2341 -119 
Q 1541 -119 997 366 
Q 281 1006 281 2344 
Q 281 3359 819 4009 
Q 1400 4716 2422 4716 
z
M 2297 4716 
L 2297 4716 
z
" transform="scale(0.015625)"/>
       <path id="Helvetica-6c" d="M 428 4591 
L 991 4591 
L 991 0 
L 428 0 
L 428 4591 
z
" transform="scale(0.015625)"/>
       <path id="Helvetica-61" d="M 844 891 
Q 844 647 1022 506 
Q 1200 366 1444 366 
Q 1741 366 2019 503 
Q 2488 731 2488 1250 
L 2488 1703 
Q 2384 1638 2221 1594 
Q 2059 1550 1903 1531 
L 1563 1488 
Q 1256 1447 1103 1359 
Q 844 1213 844 891 
z
M 2206 2028 
Q 2400 2053 2466 2191 
Q 2503 2266 2503 2406 
Q 2503 2694 2298 2823 
Q 2094 2953 1713 2953 
Q 1272 2953 1088 2716 
Q 984 2584 953 2325 
L 428 2325 
Q 444 2944 830 3186 
Q 1216 3428 1725 3428 
Q 2316 3428 2684 3203 
Q 3050 2978 3050 2503 
L 3050 575 
Q 3050 488 3086 434 
Q 3122 381 3238 381 
Q 3275 381 3322 386 
Q 3369 391 3422 400 
L 3422 -16 
Q 3291 -53 3222 -62 
Q 3153 -72 3034 -72 
Q 2744 -72 2613 134 
Q 2544 244 2516 444 
Q 2344 219 2022 53 
Q 1700 -113 1313 -113 
Q 847 -113 551 170 
Q 256 453 256 878 
Q 256 1344 547 1600 
Q 838 1856 1309 1916 
L 2206 2028 
z
M 1741 3428 
L 1741 3428 
z
" transform="scale(0.015625)"/>
       <path id="Helvetica-66" d="M 553 3856 
Q 566 4206 675 4369 
Q 872 4656 1434 4656 
Q 1488 4656 1544 4653 
Q 1600 4650 1672 4644 
L 1672 4131 
Q 1584 4138 1545 4139 
Q 1506 4141 1472 4141 
Q 1216 4141 1166 4008 
Q 1116 3875 1116 3331 
L 1672 3331 
L 1672 2888 
L 1109 2888 
L 1109 0 
L 553 0 
L 553 2888 
L 88 2888 
L 88 3331 
L 553 3331 
L 553 3856 
z
" transform="scale(0.015625)"/>
       <path id="Helvetica-63" d="M 1703 3444 
Q 2269 3444 2623 3169 
Q 2978 2894 3050 2222 
L 2503 2222 
Q 2453 2531 2275 2736 
Q 2097 2941 1703 2941 
Q 1166 2941 934 2416 
Q 784 2075 784 1575 
Q 784 1072 996 728 
Q 1209 384 1666 384 
Q 2016 384 2220 598 
Q 2425 813 2503 1184 
L 3050 1184 
Q 2956 519 2581 211 
Q 2206 -97 1622 -97 
Q 966 -97 575 383 
Q 184 863 184 1581 
Q 184 2463 612 2953 
Q 1041 3444 1703 3444 
z
M 1616 3428 
L 1616 3428 
z
" transform="scale(0.015625)"/>
       <path id="Helvetica-74" d="M 525 4281 
L 1094 4281 
L 1094 3347 
L 1628 3347 
L 1628 2888 
L 1094 2888 
L 1094 703 
Q 1094 528 1213 469 
Q 1278 434 1431 434 
Q 1472 434 1519 436 
Q 1566 438 1628 444 
L 1628 0 
Q 1531 -28 1426 -40 
Q 1322 -53 1200 -53 
Q 806 -53 665 148 
Q 525 350 525 672 
L 525 2888 
L 72 2888 
L 72 3347 
L 525 3347 
L 525 4281 
z
" transform="scale(0.015625)"/>
       <path id="Helvetica-6f" d="M 1741 363 
Q 2300 363 2508 786 
Q 2716 1209 2716 1728 
Q 2716 2197 2566 2491 
Q 2328 2953 1747 2953 
Q 1231 2953 997 2559 
Q 763 2166 763 1609 
Q 763 1075 997 719 
Q 1231 363 1741 363 
z
M 1763 3444 
Q 2409 3444 2856 3012 
Q 3303 2581 3303 1744 
Q 3303 934 2909 406 
Q 2516 -122 1688 -122 
Q 997 -122 590 345 
Q 184 813 184 1600 
Q 184 2444 612 2944 
Q 1041 3444 1763 3444 
z
M 1744 3428 
L 1744 3428 
z
" transform="scale(0.015625)"/>
       <path id="Helvetica-6e" d="M 413 3347 
L 947 3347 
L 947 2872 
Q 1184 3166 1450 3294 
Q 1716 3422 2041 3422 
Q 2753 3422 3003 2925 
Q 3141 2653 3141 2147 
L 3141 0 
L 2569 0 
L 2569 2109 
Q 2569 2416 2478 2603 
Q 2328 2916 1934 2916 
Q 1734 2916 1606 2875 
Q 1375 2806 1200 2600 
Q 1059 2434 1017 2257 
Q 975 2081 975 1753 
L 975 0 
L 413 0 
L 413 3347 
z
M 1734 3428 
L 1734 3428 
z
" transform="scale(0.015625)"/>
       <path id="Helvetica-75" d="M 975 3347 
L 975 1125 
Q 975 869 1056 706 
Q 1206 406 1616 406 
Q 2203 406 2416 931 
Q 2531 1213 2531 1703 
L 2531 3347 
L 3094 3347 
L 3094 0 
L 2563 0 
L 2569 494 
Q 2459 303 2297 172 
Q 1975 -91 1516 -91 
Q 800 -91 541 388 
Q 400 644 400 1072 
L 400 3347 
L 975 3347 
z
M 1747 3428 
L 1747 3428 
z
" transform="scale(0.015625)"/>
       <path id="Helvetica-72" d="M 428 3347 
L 963 3347 
L 963 2769 
Q 1028 2938 1284 3180 
Q 1541 3422 1875 3422 
Q 1891 3422 1928 3419 
Q 1966 3416 2056 3406 
L 2056 2813 
Q 2006 2822 1964 2825 
Q 1922 2828 1872 2828 
Q 1447 2828 1219 2554 
Q 991 2281 991 1925 
L 991 0 
L 428 0 
L 428 3347 
z
" transform="scale(0.015625)"/>
       <path id="Helvetica-79" d="M 2503 3347 
L 3125 3347 
Q 3006 3025 2597 1878 
Q 2291 1016 2084 472 
Q 1597 -809 1397 -1090 
Q 1197 -1372 709 -1372 
Q 591 -1372 527 -1362 
Q 463 -1353 369 -1328 
L 369 -816 
Q 516 -856 581 -865 
Q 647 -875 697 -875 
Q 853 -875 926 -823 
Q 1000 -772 1050 -697 
Q 1066 -672 1162 -440 
Q 1259 -209 1303 -97 
L 66 3347 
L 703 3347 
L 1600 622 
L 2503 3347 
z
M 1597 3428 
L 1597 3428 
z
" transform="scale(0.015625)"/>
      </defs>
      <use xlink:href="#Helvetica-43"/>
      <use xlink:href="#Helvetica-6c" x="72.216797"/>
      <use xlink:href="#Helvetica-61" x="94.433594"/>
      <use xlink:href="#Helvetica-73" x="150.048828"/>
      <use xlink:href="#Helvetica-73" x="200.048828"/>
      <use xlink:href="#Helvetica-69" x="250.048828"/>
      <use xlink:href="#Helvetica-66" x="272.265625"/>
      <use xlink:href="#Helvetica-69" x="300.048828"/>
      <use xlink:href="#Helvetica-63" x="322.265625"/>
      <use xlink:href="#Helvetica-61" x="372.265625"/>
      <use xlink:href="#Helvetica-74" x="427.880859"/>
      <use xlink:href="#Helvetica-69" x="455.664062"/>
      <use xlink:href="#Helvetica-6f" x="477.880859"/>
      <use xlink:href="#Helvetica-6e" x="533.496094"/>
      <use xlink:href="#Helvetica-20" x="589.111328"/>
      <use xlink:href="#Helvetica-61" x="616.894531"/>
      <use xlink:href="#Helvetica-63" x="672.509766"/>
      <use xlink:href="#Helvetica-63" x="722.509766"/>
      <use xlink:href="#Helvetica-75" x="772.509766"/>
      <use xlink:href="#Helvetica-72" x="828.125"/>
      <use xlink:href="#Helvetica-61" x="861.425781"/>
      <use xlink:href="#Helvetica-63" x="917.041016"/>
      <use xlink:href="#Helvetica-79" x="967.041016"/>
     </g>
    </g>
   </g>
   <g id="line2d_19">
    <path d="M 50.9775 178.541406 
L 55.782421 178.541406 
L 60.587341 178.541406 
L 65.392262 178.541406 
L 70.197182 178.541406 
L 75.002103 178.541406 
L 79.807023 178.541406 
L 84.611944 178.541406 
L 89.416864 178.541406 
L 94.221785 178.541406 
L 99.026706 178.541406 
L 103.831626 178.541406 
L 108.636547 178.541406 
L 113.441467 178.541406 
L 118.246388 178.541406 
L 123.051308 178.541406 
L 127.856229 178.541406 
L 132.661149 178.541406 
L 137.46607 178.541406 
L 142.270991 178.541406 
L 147.075911 178.541406 
L 151.880832 178.541406 
L 156.685752 178.541406 
L 161.490673 178.541406 
L 166.295593 178.541406 
L 171.100514 178.541406 
L 175.905434 178.541406 
L 180.710355 178.541406 
L 185.515275 178.541406 
L 190.320196 178.541406 
L 195.125117 178.541406 
L 199.930037 178.541406 
L 204.734958 178.541406 
L 209.539878 178.541406 
L 214.344799 178.541406 
L 219.149719 178.541406 
L 223.95464 178.541406 
L 228.75956 178.541406 
L 233.564481 178.541406 
L 238.369402 178.541406 
L 243.174322 178.541406 
L 247.979243 178.541406 
L 252.784163 178.541406 
L 257.589084 178.541406 
L 262.394004 178.541406 
L 267.198925 178.541406 
L 272.003845 178.541406 
L 276.808766 178.541406 
L 281.613687 178.541406 
L 286.418607 178.541406 
L 291.223528 178.541406 
L 296.028448 178.541406 
L 300.833369 178.541406 
L 305.638289 178.541406 
L 310.44321 178.541406 
L 315.24813 178.541406 
L 320.053051 178.541406 
L 324.857972 178.541406 
L 329.662892 178.541406 
L 334.467813 178.541406 
L 339.272733 178.541406 
L 344.077654 178.541406 
L 348.882574 178.541406 
L 353.687495 178.541406 
L 358.492415 178.541406 
L 363.297336 178.541406 
L 368.102257 178.541406 
L 372.907177 178.541406 
L 377.712098 178.541406 
L 382.517018 178.541406 
L 387.321939 178.541406 
L 392.126859 178.541406 
L 396.93178 178.541406 
L 401.7367 178.541406 
L 406.541621 178.541406 
L 411.346542 178.541406 
L 416.151462 178.541406 
L 420.956383 178.541406 
L 425.761303 178.541406 
L 430.566224 178.541406 
" clip-path="url(#pe09cdd7009)" style="fill: none; stroke-dasharray: 5.55,2.4; stroke-dashoffset: 0; stroke: #808080; stroke-width: 1.5"/>
   </g>
   <g id="line2d_20">
    <path d="M 50.9775 178.541406 
L 55.782421 178.541406 
L 60.587341 178.541406 
L 65.392262 178.541406 
L 70.197182 178.541406 
L 75.002103 178.541406 
L 79.807023 178.541406 
L 84.611944 178.541406 
L 89.416864 178.541406 
L 94.221785 178.541406 
L 99.026706 178.541406 
L 103.831626 178.541406 
L 108.636547 178.541406 
L 113.441467 178.541406 
L 118.246388 178.541406 
L 123.051308 178.541406 
L 127.856229 178.541406 
L 132.661149 178.541406 
L 137.46607 178.541406 
L 142.270991 178.541406 
L 147.075911 178.541406 
L 151.880832 178.541406 
L 156.685752 178.541406 
L 161.490673 178.541406 
L 166.295593 178.541406 
L 171.100514 178.541406 
L 175.905434 178.541406 
L 180.710355 178.541406 
L 185.515275 178.541406 
L 190.320196 178.541406 
L 195.125117 178.541406 
L 199.930037 178.541406 
L 204.734958 178.541406 
L 209.539878 178.541406 
L 214.344799 178.541406 
L 219.149719 178.541406 
L 223.95464 178.541406 
L 228.75956 178.541406 
L 233.564481 178.541406 
L 238.369402 178.541406 
L 243.174322 178.541406 
L 247.979243 178.541406 
L 252.784163 178.541406 
L 257.589084 178.541406 
L 262.394004 178.541406 
L 267.198925 178.541406 
L 272.003845 178.541406 
L 276.808766 178.541406 
L 281.613687 178.541406 
L 286.418607 178.541406 
L 291.223528 178.541406 
L 296.028448 178.541406 
L 300.833369 178.541406 
L 305.638289 178.541406 
L 310.44321 178.541406 
L 315.24813 178.541406 
L 320.053051 178.541406 
L 324.857972 178.541406 
L 329.662892 178.541406 
L 334.467813 178.541406 
L 339.272733 178.541406 
L 344.077654 178.541406 
L 348.882574 178.541406 
L 353.687495 178.541406 
L 358.492415 178.541406 
L 363.297336 178.541406 
L 368.102257 178.541406 
L 372.907177 178.541406 
L 377.712098 178.541406 
L 382.517018 178.541406 
L 387.321939 178.541406 
L 392.126859 178.541406 
L 396.93178 178.541406 
L 401.7367 178.541406 
L 406.541621 178.541406 
L 411.346542 178.541406 
L 416.151462 178.541406 
L 420.956383 178.541406 
L 425.761303 178.541406 
L 430.566224 178.541406 
" clip-path="url(#pe09cdd7009)" style="fill: none; stroke-dasharray: 5.55,2.4; stroke-dashoffset: 0; stroke: #808080; stroke-width: 1.5"/>
   </g>
   <g id="line2d_21">
    <path d="M 50.9775 178.793104 
L 55.782421 179.732812 
L 60.587341 178.16386 
L 65.392262 177.914934 
L 70.197182 178.482085 
L 75.002103 179.084164 
L 79.807023 178.565245 
L 84.611944 178.544733 
L 89.416864 178.843 
L 94.221785 179.061988 
L 99.026706 178.937248 
L 103.831626 178.308558 
L 108.636547 178.560256 
L 113.441467 178.932813 
L 118.246388 179.344177 
L 123.051308 178.520339 
L 127.856229 178.870165 
L 132.661149 180.340434 
L 137.46607 179.229417 
L 142.270991 180.186311 
L 147.075911 179.076957 
L 151.880832 179.110775 
L 156.685752 179.100796 
L 161.490673 178.597955 
L 166.295593 177.718677 
L 171.100514 178.355128 
L 175.905434 178.28361 
L 180.710355 179.498301 
L 185.515275 179.552632 
L 190.320196 179.231634 
L 195.125117 178.28361 
L 199.930037 178.519785 
L 204.734958 178.340159 
L 209.539878 179.039812 
L 214.344799 178.915626 
L 219.149719 177.95097 
L 223.95464 178.223181 
L 228.75956 178.363998 
L 233.564481 178.590748 
L 238.369402 179.353048 
L 243.174322 179.01819 
L 247.979243 178.079591 
L 252.784163 178.620685 
L 257.589084 178.948336 
L 262.394004 178.442723 
L 267.198925 178.971621 
L 272.003845 178.643416 
L 276.808766 178.831357 
L 281.613687 179.513824 
L 286.418607 178.900657 
L 291.223528 178.810845 
L 296.028448 178.2886 
L 300.833369 179.680144 
L 305.638289 179.070304 
L 310.44321 179.223318 
L 315.24813 178.921725 
L 320.053051 178.059633 
L 324.857972 179.266007 
L 329.662892 179.018745 
L 334.467813 178.586867 
L 339.272733 178.415003 
L 344.077654 178.968294 
L 348.882574 179.554295 
L 353.687495 179.285965 
L 358.492415 179.488876 
L 363.297336 178.864067 
L 368.102257 178.823041 
L 372.907177 179.07363 
L 377.712098 178.481531 
L 382.517018 178.963305 
L 387.321939 179.111884 
L 392.126859 179.736138 
L 396.93178 179.670165 
L 401.7367 179.440643 
L 406.541621 178.605162 
L 411.346542 178.070721 
L 416.151462 177.314519 
L 420.956383 178.140021 
L 425.761303 177.837318 
L 430.566224 178.18659 
" clip-path="url(#pe09cdd7009)" style="fill: none; stroke: #808080; stroke-width: 1.5; stroke-linecap: square"/>
   </g>
   <g id="line2d_22">
    <path d="M 50.9775 175.804888 
L 55.782421 176.52838 
L 60.587341 158.450505 
L 65.392262 175.205027 
L 70.197182 169.144881 
L 75.002103 169.977589 
L 79.807023 161.015159 
L 84.611944 174.836905 
L 89.416864 163.366369 
L 94.221785 182.052421 
L 99.026706 186.429409 
L 103.831626 186.176603 
L 108.636547 186.045765 
L 113.441467 165.354448 
L 118.246388 162.390625 
L 123.051308 176.780632 
L 127.856229 187.818181 
L 132.661149 180.44577 
L 137.46607 177.450901 
L 142.270991 170.953333 
L 147.075911 159.597558 
L 151.880832 128.752405 
L 156.685752 66.365773 
L 161.490673 62.463352 
L 166.295593 89.726526 
L 171.100514 93.428809 
L 175.905434 89.979887 
L 180.710355 86.188345 
L 185.515275 88.455841 
L 190.320196 85.592365 
L 195.125117 99.252781 
L 199.930037 91.171847 
L 204.734958 101.849591 
L 209.539878 98.497689 
L 214.344799 88.745793 
L 219.149719 85.237549 
L 223.95464 90.661245 
L 228.75956 81.773104 
L 233.564481 91.628673 
L 238.369402 85.681624 
L 243.174322 92.697001 
L 247.979243 84.840599 
L 252.784163 73.911157 
L 257.589084 70.913517 
L 262.394004 70.973392 
L 267.198925 90.278709 
L 272.003845 91.161313 
L 276.808766 77.587938 
L 281.613687 78.383502 
L 286.418607 82.763262 
L 291.223528 94.153965 
L 296.028448 91.904209 
L 300.833369 108.148129 
L 305.638289 114.68007 
L 310.44321 112.537869 
L 315.24813 103.004406 
L 320.053051 109.077858 
L 324.857972 102.224365 
L 329.662892 94.810929 
L 334.467813 88.576701 
L 339.272733 98.02035 
L 344.077654 114.498227 
L 348.882574 115.222828 
L 353.687495 107.233924 
L 358.492415 106.031985 
L 363.297336 116.293374 
L 368.102257 117.320123 
L 372.907177 101.345641 
L 377.712098 95.615363 
L 382.517018 110.798716 
L 387.321939 124.20189 
L 392.126859 113.467597 
L 396.93178 118.740496 
L 401.7367 123.819909 
L 406.541621 133.751985 
L 411.346542 121.898913 
L 416.151462 122.441116 
L 420.956383 124.361003 
L 425.761303 124.833352 
L 430.566224 118.400094 
" clip-path="url(#pe09cdd7009)" style="fill: none; stroke: #fdbe85; stroke-width: 2; stroke-linecap: square"/>
   </g>
   <g id="line2d_23">
    <path d="M 50.9775 178.853533 
L 55.782421 178.735446 
L 60.587341 178.241476 
L 65.392262 177.776889 
L 70.197182 177.939882 
L 75.002103 178.591302 
L 79.807023 177.379938 
L 84.611944 178.761503 
L 89.416864 179.044801 
L 94.221785 177.939882 
L 99.026706 177.980908 
L 103.831626 178.300797 
L 108.636547 178.184373 
L 113.441467 178.622349 
L 118.246388 177.628864 
L 123.051308 179.311468 
L 127.856229 179.304261 
L 132.661149 178.271968 
L 137.46607 178.736555 
L 142.270991 179.491648 
L 147.075911 179.278758 
L 151.880832 179.319784 
L 156.685752 178.681115 
L 161.490673 179.003776 
L 166.295593 178.605717 
L 171.100514 178.289154 
L 175.905434 178.696638 
L 180.710355 179.713408 
L 185.515275 179.556513 
L 190.320196 179.211121 
L 195.125117 178.905647 
L 199.930037 178.954434 
L 204.734958 178.976056 
L 209.539878 179.298717 
L 214.344799 179.415695 
L 219.149719 178.755959 
L 223.95464 178.677234 
L 228.75956 178.820824 
L 233.564481 177.431497 
L 238.369402 177.819577 
L 243.174322 179.298717 
L 247.979243 178.544733 
L 252.784163 178.500381 
L 257.589084 179.076402 
L 262.394004 179.040366 
L 267.198925 178.86573 
L 272.003845 178.834129 
L 276.808766 177.910499 
L 281.613687 178.205994 
L 286.418607 179.801557 
L 291.223528 179.811537 
L 296.028448 179.054781 
L 300.833369 179.862541 
L 305.638289 180.339325 
L 310.44321 180.717426 
L 315.24813 179.653533 
L 320.053051 179.019299 
L 324.857972 178.844109 
L 329.662892 179.320338 
L 334.467813 178.875709 
L 339.272733 178.242585 
L 344.077654 179.218883 
L 348.882574 179.343069 
L 353.687495 179.274323 
L 358.492415 178.958869 
L 363.297336 179.706201 
L 368.102257 179.674045 
L 372.907177 179.145702 
L 377.712098 177.879453 
L 382.517018 178.866285 
L 387.321939 179.322556 
L 392.126859 177.97869 
L 396.93178 178.643416 
L 401.7367 179.381322 
L 406.541621 179.224427 
L 411.346542 178.800865 
L 416.151462 179.110775 
L 420.956383 180.394765 
L 425.761303 178.783125 
L 430.566224 178.830249 
" clip-path="url(#pe09cdd7009)" style="fill: none; stroke: #808080; stroke-width: 1.5; stroke-linecap: square"/>
   </g>
   <g id="line2d_24">
    <path d="M 50.9775 164.401434 
L 55.782421 161.835117 
L 60.587341 171.945709 
L 65.392262 176.336557 
L 70.197182 177.850069 
L 75.002103 166.235944 
L 79.807023 188.372581 
L 84.611944 165.514669 
L 89.416864 167.492214 
L 94.221785 163.811553 
L 99.026706 201.843393 
L 103.831626 191.260451 
L 108.636547 185.697601 
L 113.441467 176.686384 
L 118.246388 189.835643 
L 123.051308 192.401961 
L 127.856229 189.608339 
L 132.661149 178.255336 
L 137.46607 190.380064 
L 142.270991 173.055064 
L 147.075911 153.067835 
L 151.880832 136.419203 
L 156.685752 74.446153 
L 161.490673 55.352617 
L 166.295593 95.573229 
L 171.100514 103.767815 
L 175.905434 102.985557 
L 180.710355 91.662491 
L 185.515275 107.328172 
L 190.320196 104.522353 
L 195.125117 92.210793 
L 199.930037 99.251673 
L 204.734958 116.692542 
L 209.539878 119.067592 
L 214.344799 98.157287 
L 219.149719 89.397767 
L 223.95464 85.420501 
L 228.75956 100.437534 
L 233.564481 94.866923 
L 238.369402 84.688139 
L 243.174322 96.494641 
L 247.979243 99.697965 
L 252.784163 91.265541 
L 257.589084 75.235065 
L 262.394004 72.689814 
L 267.198925 71.238949 
L 272.003845 87.500056 
L 276.808766 97.430469 
L 281.613687 97.845714 
L 286.418607 87.498393 
L 291.223528 102.742175 
L 296.028448 100.772392 
L 300.833369 105.127204 
L 305.638289 109.052356 
L 310.44321 114.530937 
L 315.24813 115.368635 
L 320.053051 131.299873 
L 324.857972 131.862035 
L 329.662892 127.38969 
L 334.467813 129.316785 
L 339.272733 119.73897 
L 344.077654 116.853318 
L 348.882574 114.321928 
L 353.687495 125.942152 
L 358.492415 117.625597 
L 363.297336 121.681588 
L 368.102257 114.067458 
L 372.907177 120.417001 
L 377.712098 119.512221 
L 382.517018 127.879225 
L 387.321939 131.38137 
L 392.126859 123.916929 
L 396.93178 118.53315 
L 401.7367 123.544372 
L 406.541621 129.142149 
L 411.346542 137.424885 
L 416.151462 133.431541 
L 420.956383 133.891693 
L 425.761303 129.530229 
L 430.566224 142.52481 
" clip-path="url(#pe09cdd7009)" style="fill: none; stroke: #d94701; stroke-width: 2; stroke-linecap: square"/>
   </g>
   <g id="patch_3">
    <path d="M 50.9775 261.701406 
L 50.9775 12.221406 
" style="fill: none; stroke: #000000; stroke-width: 0.8; stroke-linejoin: miter; stroke-linecap: square"/>
   </g>
   <g id="patch_4">
    <path d="M 50.9775 261.701406 
L 441.5775 261.701406 
" style="fill: none; stroke: #000000; stroke-width: 0.8; stroke-linejoin: miter; stroke-linecap: square"/>
   </g>
   <g id="legend_1">
    <g id="line2d_25">
     <path d="M 359.307813 229.975 
L 370.307813 229.975 
L 381.307813 229.975 
" style="fill: none; stroke: #fdbe85; stroke-width: 2; stroke-linecap: square"/>
    </g>
    <g id="text_21">
     <!-- Same -->
     <g transform="translate(390.107813 233.825) scale(0.11 -0.11)">
      <defs>
       <path id="Helvetica-53" d="M 894 1481 
Q 916 1091 1078 847 
Q 1388 391 2169 391 
Q 2519 391 2806 491 
Q 3363 684 3363 1184 
Q 3363 1559 3128 1719 
Q 2891 1875 2384 1991 
L 1763 2131 
Q 1153 2269 900 2434 
Q 463 2722 463 3294 
Q 463 3913 891 4309 
Q 1319 4706 2103 4706 
Q 2825 4706 3329 4357 
Q 3834 4009 3834 3244 
L 3250 3244 
Q 3203 3613 3050 3809 
Q 2766 4169 2084 4169 
Q 1534 4169 1293 3937 
Q 1053 3706 1053 3400 
Q 1053 3063 1334 2906 
Q 1519 2806 2169 2656 
L 2813 2509 
Q 3278 2403 3531 2219 
Q 3969 1897 3969 1284 
Q 3969 522 3414 194 
Q 2859 -134 2125 -134 
Q 1269 -134 784 303 
Q 300 738 309 1481 
L 894 1481 
z
M 2150 4716 
L 2150 4716 
z
" transform="scale(0.015625)"/>
      </defs>
      <use xlink:href="#Helvetica-53"/>
      <use xlink:href="#Helvetica-61" x="66.699219"/>
      <use xlink:href="#Helvetica-6d" x="122.314453"/>
      <use xlink:href="#Helvetica-65" x="205.615234"/>
     </g>
    </g>
    <g id="line2d_26">
     <path d="M 359.307813 245.658594 
L 370.307813 245.658594 
L 381.307813 245.658594 
" style="fill: none; stroke: #d94701; stroke-width: 2; stroke-linecap: square"/>
    </g>
    <g id="text_22">
     <!-- Different -->
     <g transform="translate(390.107813 249.508594) scale(0.11 -0.11)">
      <defs>
       <path id="Helvetica-44" d="M 2250 531 
Q 2566 531 2769 597 
Q 3131 719 3363 1066 
Q 3547 1344 3628 1778 
Q 3675 2038 3675 2259 
Q 3675 3113 3336 3584 
Q 2997 4056 2244 4056 
L 1141 4056 
L 1141 531 
L 2250 531 
z
M 516 4591 
L 2375 4591 
Q 3322 4591 3844 3919 
Q 4309 3313 4309 2366 
Q 4309 1634 4034 1044 
Q 3550 0 2369 0 
L 516 0 
L 516 4591 
z
" transform="scale(0.015625)"/>
      </defs>
      <use xlink:href="#Helvetica-44"/>
      <use xlink:href="#Helvetica-69" x="72.216797"/>
      <use xlink:href="#Helvetica-66" x="94.433594"/>
      <use xlink:href="#Helvetica-66" x="122.216797"/>
      <use xlink:href="#Helvetica-65" x="150"/>
      <use xlink:href="#Helvetica-72" x="205.615234"/>
      <use xlink:href="#Helvetica-65" x="238.916016"/>
      <use xlink:href="#Helvetica-6e" x="294.53125"/>
      <use xlink:href="#Helvetica-74" x="350.146484"/>
     </g>
    </g>
   </g>
  </g>
 </g>
 <defs>
  <clipPath id="pe09cdd7009">
   <rect x="50.9775" y="12.221406" width="390.6" height="249.48"/>
  </clipPath>
 </defs>
</svg>
