<?xml version="1.0" encoding="utf-8" standalone="no"?>
<!DOCTYPE svg PUBLIC "-//W3C//DTD SVG 1.1//EN"
  "http://www.w3.org/Graphics/SVG/1.1/DTD/svg11.dtd">
<svg xmlns:xlink="http://www.w3.org/1999/xlink" width="429.208125pt" height="300.904687pt" viewBox="0 0 429.208125 300.904687" xmlns="http://www.w3.org/2000/svg" version="1.1">
 <metadata>
  <rdf:RDF xmlns:dc="http://purl.org/dc/elements/1.1/" xmlns:cc="http://creativecommons.org/ns#" xmlns:rdf="http://www.w3.org/1999/02/22-rdf-syntax-ns#">
   <cc:Work>
    <dc:type rdf:resource="http://purl.org/dc/dcmitype/StillImage"/>
    <dc:date>2023-07-20T12:24:54.202499</dc:date>
    <dc:format>image/svg+xml</dc:format>
    <dc:creator>
     <cc:Agent>
      <dc:title>Matplotlib v3.7.1, https://matplotlib.org/</dc:title>
     </cc:Agent>
    </dc:creator>
   </cc:Work>
  </rdf:RDF>
 </metadata>
 <defs>
  <style type="text/css">*{stroke-linejoin: round; stroke-linecap: butt}</style>
 </defs>
 <g id="figure_1">
  <g id="patch_1">
   <path d="M 0 300.904687 
L 429.208125 300.904687 
L 429.208125 0 
L 0 0 
z
" style="fill: #ffffff"/>
  </g>
  <g id="axes_1">
   <g id="patch_2">
    <path d="M 31.408125 256.68 
L 422.008125 256.68 
L 422.008125 7.2 
L 31.408125 7.2 
z
" style="fill: #ffffff"/>
   </g>
   <g id="PolyCollection_1">
    <defs>
     <path id="meee20fcf29" d="M 31.408125 -165.575427 
L 31.408125 -175.431256 
L 36.213046 -174.794955 
L 41.017966 -174.218735 
L 45.822887 -179.534232 
L 50.627807 -175.495 
L 55.432728 -177.69128 
L 60.237648 -172.509018 
L 65.042569 -170.562702 
L 69.847489 -174.904073 
L 74.65241 -180.687125 
L 79.457331 -165.369019 
L 84.262251 -172.667715 
L 89.067172 -166.616677 
L 93.872092 -170.485086 
L 98.677013 -167.842557 
L 103.481933 -168.542658 
L 108.286854 -168.009391 
L 113.091774 -169.366114 
L 117.896695 -163.592986 
L 122.701616 -168.318048 
L 127.506536 -187.123119 
L 132.311457 -195.315348 
L 137.116377 -244.764166 
L 141.921298 -264.149519 
L 146.726218 -235.680782 
L 151.531139 -223.837329 
L 156.336059 -231.731113 
L 161.14098 -226.657688 
L 165.9459 -220.929525 
L 170.750821 -237.476912 
L 175.555742 -235.981325 
L 180.360662 -245.687472 
L 185.165583 -224.779452 
L 189.970503 -212.57452 
L 194.775424 -223.368813 
L 199.580344 -228.378821 
L 204.385265 -234.924039 
L 209.190185 -237.272677 
L 213.995106 -233.529752 
L 218.800027 -232.723748 
L 223.604947 -228.116215 
L 228.409868 -227.298129 
L 233.214788 -231.561595 
L 238.019709 -246.930373 
L 242.824629 -242.152491 
L 247.62955 -229.478352 
L 252.43447 -239.57821 
L 257.239391 -240.198315 
L 262.044312 -229.181894 
L 266.849232 -224.308864 
L 271.654153 -231.759923 
L 276.459073 -231.803236 
L 281.263994 -219.239198 
L 286.068914 -217.116738 
L 290.873835 -214.272189 
L 295.678755 -211.40393 
L 300.483676 -208.489271 
L 305.288597 -210.98589 
L 310.093517 -206.154817 
L 314.898438 -202.951402 
L 319.703358 -208.70282 
L 324.508279 -207.425551 
L 329.313199 -200.977017 
L 334.11812 -202.414473 
L 338.92304 -207.544495 
L 343.727961 -209.748762 
L 348.532882 -211.064827 
L 353.337802 -210.619048 
L 358.142723 -206.762755 
L 362.947643 -203.207865 
L 367.752564 -209.691104 
L 372.557484 -207.910586 
L 377.362405 -206.937093 
L 382.167325 -203.614439 
L 386.972246 -203.735095 
L 391.777167 -199.597725 
L 396.582087 -197.655972 
L 401.387008 -206.821349 
L 406.191928 -212.012661 
L 410.996849 -200.343318 
L 410.996849 -179.85959 
L 410.996849 -179.85959 
L 406.191928 -188.194139 
L 401.387008 -186.390353 
L 396.582087 -183.830576 
L 391.777167 -181.77596 
L 386.972246 -186.891226 
L 382.167325 -188.707549 
L 377.362405 -194.013211 
L 372.557484 -192.193257 
L 367.752564 -191.616256 
L 362.947643 -187.864842 
L 358.142723 -192.52454 
L 353.337802 -196.735452 
L 348.532882 -194.053348 
L 343.727961 -192.567536 
L 338.92304 -191.374844 
L 334.11812 -187.756958 
L 329.313199 -188.640718 
L 324.508279 -194.357866 
L 319.703358 -192.708332 
L 314.898438 -186.576836 
L 310.093517 -190.835297 
L 305.288597 -192.740062 
L 300.483676 -191.071759 
L 295.678755 -193.810318 
L 290.873835 -198.243347 
L 286.068914 -195.860422 
L 281.263994 -191.989727 
L 276.459073 -204.335888 
L 271.654153 -207.699599 
L 266.849232 -208.419529 
L 262.044312 -211.050881 
L 257.239391 -212.606877 
L 252.43447 -219.913574 
L 247.62955 -221.141363 
L 242.824629 -223.040633 
L 238.019709 -228.08789 
L 233.214788 -211.566045 
L 228.409868 -201.579851 
L 223.604947 -205.073593 
L 218.800027 -211.077282 
L 213.995106 -204.27105 
L 209.190185 -205.885996 
L 204.385265 -218.701524 
L 199.580344 -209.672114 
L 194.775424 -209.720495 
L 189.970503 -194.091206 
L 185.165583 -198.819944 
L 180.360662 -218.706352 
L 175.555742 -217.729578 
L 170.750821 -216.331376 
L 165.9459 -206.170226 
L 161.14098 -211.236956 
L 156.336059 -208.323046 
L 151.531139 -207.923661 
L 146.726218 -216.467361 
L 141.921298 -241.708675 
L 137.116377 -223.173742 
L 132.311457 -184.536671 
L 127.506536 -175.22387 
L 122.701616 -159.120031 
L 117.896695 -158.811684 
L 113.091774 -160.721476 
L 108.286854 -160.715851 
L 103.481933 -160.490448 
L 98.677013 -161.428804 
L 93.872092 -163.915526 
L 89.067172 -160.928438 
L 84.262251 -164.520115 
L 79.457331 -159.940976 
L 74.65241 -170.216475 
L 69.847489 -162.930962 
L 65.042569 -163.804843 
L 60.237648 -163.812231 
L 55.432728 -169.185557 
L 50.627807 -166.559732 
L 45.822887 -168.583973 
L 41.017966 -167.05667 
L 36.213046 -163.435093 
L 31.408125 -165.575427 
z
" style="stroke: #54278f; stroke-opacity: 0.3"/>
    </defs>
    <g clip-path="url(#p10e87870ee)">
     <use xlink:href="#meee20fcf29" x="0" y="300.904687" style="fill: #54278f; fill-opacity: 0.3; stroke: #54278f; stroke-opacity: 0.3"/>
    </g>
   </g>
   <g id="PolyCollection_2">
    <defs>
     <path id="m0b9f4b6c50" d="M 31.408125 -156.201432 
L 31.408125 -169.443231 
L 36.213046 -171.188461 
L 41.017966 -170.532867 
L 45.822887 -174.286971 
L 50.627807 -170.803298 
L 55.432728 -171.768108 
L 60.237648 -169.114204 
L 65.042569 -173.269029 
L 69.847489 -176.989255 
L 74.65241 -175.284842 
L 79.457331 -175.149219 
L 84.262251 -168.078836 
L 89.067172 -171.255636 
L 93.872092 -163.731427 
L 98.677013 -176.30109 
L 103.481933 -176.838578 
L 108.286854 -171.046358 
L 113.091774 -180.004759 
L 117.896695 -172.029987 
L 122.701616 -170.62585 
L 127.506536 -186.039938 
L 132.311457 -195.297904 
L 137.116377 -250.574632 
L 141.921298 -264.121246 
L 146.726218 -238.699234 
L 151.531139 -234.51876 
L 156.336059 -242.202708 
L 161.14098 -239.747096 
L 165.9459 -248.313261 
L 170.750821 -241.73711 
L 175.555742 -236.276251 
L 180.360662 -244.611338 
L 185.165583 -233.888007 
L 189.970503 -222.33952 
L 194.775424 -237.989598 
L 199.580344 -237.640996 
L 204.385265 -233.124037 
L 209.190185 -248.841156 
L 213.995106 -249.608397 
L 218.800027 -243.902018 
L 223.604947 -246.522166 
L 228.409868 -247.560937 
L 233.214788 -267.725591 
L 238.019709 -293.369812 
L 242.824629 -260.572826 
L 247.62955 -229.310834 
L 252.43447 -273.193301 
L 257.239391 -281.13564 
L 262.044312 -260.627994 
L 266.849232 -237.696613 
L 271.654153 -270.555604 
L 276.459073 -306.998741 
L 281.263994 -266.478926 
L 286.068914 -220.856267 
L 290.873835 -204.19419 
L 295.678755 -206.445421 
L 300.483676 -211.946922 
L 305.288597 -218.789247 
L 310.093517 -209.036916 
L 314.898438 -198.568572 
L 319.703358 -204.035155 
L 324.508279 -196.24492 
L 329.313199 -189.641259 
L 334.11812 -192.099192 
L 338.92304 -195.115156 
L 343.727961 -188.955443 
L 348.532882 -200.096095 
L 353.337802 -208.431228 
L 358.142723 -198.155436 
L 362.947643 -199.078955 
L 367.752564 -207.908637 
L 372.557484 -206.757286 
L 377.362405 -203.155219 
L 382.167325 -201.106176 
L 386.972246 -198.439535 
L 391.777167 -195.790388 
L 396.582087 -190.410414 
L 401.387008 -200.648981 
L 406.191928 -209.545253 
L 410.996849 -200.246725 
L 410.996849 -182.770549 
L 410.996849 -182.770549 
L 406.191928 -189.902129 
L 401.387008 -185.299794 
L 396.582087 -176.433149 
L 391.777167 -177.460434 
L 386.972246 -182.205889 
L 382.167325 -185.622565 
L 377.362405 -183.864068 
L 372.557484 -181.676967 
L 367.752564 -182.667909 
L 362.947643 -179.566242 
L 358.142723 -179.885136 
L 353.337802 -184.809637 
L 348.532882 -176.132172 
L 343.727961 -164.011048 
L 338.92304 -174.702594 
L 334.11812 -172.961287 
L 329.313199 -170.136345 
L 324.508279 -170.651866 
L 319.703358 -182.230749 
L 314.898438 -187.282954 
L 310.093517 -190.006831 
L 305.288597 -192.961676 
L 300.483676 -195.326666 
L 295.678755 -187.57419 
L 290.873835 -178.534355 
L 286.068914 -193.564432 
L 281.263994 -220.080443 
L 276.459073 -240.773054 
L 271.654153 -211.582951 
L 266.849232 -185.093636 
L 262.044312 -195.927509 
L 257.239391 -216.649185 
L 252.43447 -218.20222 
L 247.62955 -193.105479 
L 242.824629 -213.168028 
L 238.019709 -262.591022 
L 233.214788 -244.883536 
L 228.409868 -213.542921 
L 223.604947 -215.280892 
L 218.800027 -220.211215 
L 213.995106 -217.373884 
L 209.190185 -212.747968 
L 204.385265 -210.562564 
L 199.580344 -212.225129 
L 194.775424 -219.151755 
L 189.970503 -204.235069 
L 185.165583 -208.757239 
L 180.360662 -215.572837 
L 175.555742 -211.168654 
L 170.750821 -222.374717 
L 165.9459 -220.602319 
L 161.14098 -214.136313 
L 156.336059 -217.750955 
L 151.531139 -212.252446 
L 146.726218 -212.346219 
L 141.921298 -230.023174 
L 137.116377 -219.729728 
L 132.311457 -183.801788 
L 127.506536 -171.89744 
L 122.701616 -161.641208 
L 117.896695 -162.065968 
L 113.091774 -170.419716 
L 108.286854 -160.434075 
L 103.481933 -169.894288 
L 98.677013 -161.345676 
L 93.872092 -159.18494 
L 89.067172 -159.536487 
L 84.262251 -160.830769 
L 79.457331 -165.94263 
L 74.65241 -162.014818 
L 69.847489 -167.10719 
L 65.042569 -167.167964 
L 60.237648 -154.516168 
L 55.432728 -163.984058 
L 50.627807 -154.227602 
L 45.822887 -157.434215 
L 41.017966 -154.732489 
L 36.213046 -151.777209 
L 31.408125 -156.201432 
z
" style="stroke: #9e9ac8; stroke-opacity: 0.3"/>
    </defs>
    <g clip-path="url(#p10e87870ee)">
     <use xlink:href="#m0b9f4b6c50" x="0" y="300.904687" style="fill: #9e9ac8; fill-opacity: 0.3; stroke: #9e9ac8; stroke-opacity: 0.3"/>
    </g>
   </g>
   <g id="PolyCollection_3">
    <defs>
     <path id="m64a654b34b" d="M 31.408125 -168.365398 
L 31.408125 -176.621499 
L 36.213046 -170.700631 
L 41.017966 -172.394571 
L 45.822887 -166.853511 
L 50.627807 -168.484665 
L 55.432728 -167.183758 
L 60.237648 -171.163844 
L 65.042569 -171.513924 
L 69.847489 -173.492227 
L 74.65241 -167.376957 
L 79.457331 -179.036769 
L 84.262251 -172.361197 
L 89.067172 -175.44781 
L 93.872092 -169.056029 
L 98.677013 -177.896594 
L 103.481933 -178.268647 
L 108.286854 -177.207003 
L 113.091774 -175.003305 
L 117.896695 -182.027652 
L 122.701616 -179.002018 
L 127.506536 -163.929325 
L 132.311457 -154.986747 
L 137.116377 -115.460022 
L 141.921298 -88.861914 
L 146.726218 -110.693864 
L 151.531139 -129.762728 
L 156.336059 -129.835447 
L 161.14098 -131.83398 
L 165.9459 -130.490708 
L 170.750821 -120.316581 
L 175.555742 -123.107915 
L 180.360662 -122.440312 
L 185.165583 -143.92456 
L 189.970503 -139.864568 
L 194.775424 -126.442043 
L 199.580344 -124.410295 
L 204.385265 -117.81289 
L 209.190185 -135.394065 
L 213.995106 -130.549877 
L 218.800027 -123.14613 
L 223.604947 -132.622531 
L 228.409868 -137.087768 
L 233.214788 -127.457375 
L 238.019709 -112.926206 
L 242.824629 -114.759168 
L 247.62955 -114.4813 
L 252.43447 -117.159603 
L 257.239391 -122.764917 
L 262.044312 -127.243758 
L 266.849232 -131.868189 
L 271.654153 -131.007051 
L 276.459073 -129.821003 
L 281.263994 -139.828099 
L 286.068914 -140.32758 
L 290.873835 -139.836016 
L 295.678755 -141.70556 
L 300.483676 -148.456667 
L 305.288597 -148.079265 
L 310.093517 -148.726494 
L 314.898438 -150.712488 
L 319.703358 -144.073676 
L 324.508279 -141.266794 
L 329.313199 -149.504368 
L 334.11812 -147.607105 
L 338.92304 -142.964577 
L 343.727961 -140.299158 
L 348.532882 -135.307193 
L 353.337802 -137.845023 
L 358.142723 -139.118584 
L 362.947643 -143.917943 
L 367.752564 -141.986266 
L 372.557484 -143.181201 
L 377.362405 -140.499222 
L 382.167325 -146.496136 
L 386.972246 -146.371624 
L 391.777167 -151.624902 
L 396.582087 -149.317721 
L 401.387008 -147.403499 
L 406.191928 -143.254444 
L 410.996849 -151.432215 
L 410.996849 -131.338009 
L 410.996849 -131.338009 
L 406.191928 -123.223229 
L 401.387008 -130.241618 
L 396.582087 -139.068221 
L 391.777167 -138.033367 
L 386.972246 -134.343579 
L 382.167325 -134.587171 
L 377.362405 -129.087156 
L 372.557484 -128.69534 
L 367.752564 -126.747283 
L 362.947643 -131.001141 
L 358.142723 -124.601593 
L 353.337802 -122.807762 
L 348.532882 -124.103157 
L 343.727961 -130.926131 
L 338.92304 -128.998223 
L 334.11812 -134.887036 
L 329.313199 -135.839528 
L 324.508279 -126.795224 
L 319.703358 -126.295477 
L 314.898438 -136.051546 
L 310.093517 -133.340761 
L 305.288597 -128.578742 
L 300.483676 -131.592445 
L 295.678755 -126.271849 
L 290.873835 -125.538323 
L 286.068914 -122.549975 
L 281.263994 -114.902283 
L 276.459073 -103.069103 
L 271.654153 -106.229328 
L 266.849232 -116.353926 
L 262.044312 -104.898499 
L 257.239391 -97.052187 
L 252.43447 -94.326989 
L 247.62955 -105.468809 
L 242.824629 -101.100616 
L 238.019709 -97.86686 
L 233.214788 -109.484351 
L 228.409868 -115.306373 
L 223.604947 -113.656104 
L 218.800027 -102.314006 
L 213.995106 -105.124451 
L 209.190185 -111.276259 
L 204.385265 -100.625826 
L 199.580344 -102.340519 
L 194.775424 -113.345127 
L 189.970503 -121.998369 
L 185.165583 -120.567809 
L 180.360662 -98.772977 
L 175.555742 -102.299154 
L 170.750821 -95.556454 
L 165.9459 -112.400902 
L 161.14098 -116.989566 
L 156.336059 -106.796965 
L 151.531139 -106.273705 
L 146.726218 -90.88073 
L 141.921298 -63.128922 
L 137.116377 -91.533271 
L 132.311457 -143.70745 
L 127.506536 -149.346088 
L 122.701616 -170.376677 
L 117.896695 -177.3673 
L 113.091774 -166.002691 
L 108.286854 -169.740376 
L 103.481933 -168.487619 
L 98.677013 -169.34733 
L 93.872092 -164.612634 
L 89.067172 -164.567127 
L 84.262251 -166.245123 
L 79.457331 -170.928347 
L 74.65241 -158.876999 
L 69.847489 -162.257637 
L 65.042569 -164.215709 
L 60.237648 -163.537331 
L 55.432728 -155.91802 
L 50.627807 -160.291146 
L 45.822887 -158.807796 
L 41.017966 -166.046851 
L 36.213046 -162.293979 
L 31.408125 -168.365398 
z
" style="stroke: #08519c; stroke-opacity: 0.3"/>
    </defs>
    <g clip-path="url(#p10e87870ee)">
     <use xlink:href="#m64a654b34b" x="0" y="300.904687" style="fill: #08519c; fill-opacity: 0.3; stroke: #08519c; stroke-opacity: 0.3"/>
    </g>
   </g>
   <g id="PolyCollection_4">
    <defs>
     <path id="m71f7882c79" d="M 111.490134 -293.704688 
L 111.490134 -44.224688 
L 141.721093 -44.224688 
L 141.721093 -293.704688 
L 141.721093 -293.704688 
L 111.490134 -293.704688 
z
" style="stroke: #808080; stroke-opacity: 0.3"/>
    </defs>
    <g clip-path="url(#p10e87870ee)">
     <use xlink:href="#m71f7882c79" x="0" y="300.904687" style="fill: #808080; fill-opacity: 0.3; stroke: #808080; stroke-opacity: 0.3"/>
    </g>
   </g>
   <g id="PolyCollection_5">
    <defs>
     <path id="m6096d5fd1c" d="M 211.592646 -293.704688 
L 211.592646 -44.224688 
L 241.823604 -44.224688 
L 241.823604 -293.704688 
L 241.823604 -293.704688 
L 211.592646 -293.704688 
z
" style="stroke: #808080; stroke-opacity: 0.3"/>
    </defs>
    <g clip-path="url(#p10e87870ee)">
     <use xlink:href="#m6096d5fd1c" x="0" y="300.904687" style="fill: #808080; fill-opacity: 0.3; stroke: #808080; stroke-opacity: 0.3"/>
    </g>
   </g>
   <g id="patch_3">
    <path d="M 66.444004 57.096 
L 71.44913 65.412 
L 66.444104 65.412 
L 66.444104 106.992 
L 66.443904 106.992 
L 66.443904 65.412 
L 61.438878 65.412 
z
" clip-path="url(#p10e87870ee)" style="stroke: #000000; stroke-linejoin: miter"/>
   </g>
   <g id="patch_4">
    <path d="M 66.444004 206.784 
L 61.438878 198.468 
L 66.443904 198.468 
L 66.443904 156.888 
L 66.444104 156.888 
L 66.444104 198.468 
L 71.44913 198.468 
z
" clip-path="url(#p10e87870ee)" style="stroke: #000000; stroke-linejoin: miter"/>
   </g>
   <g id="matplotlib.axis_1">
    <g id="xtick_1">
     <g id="line2d_1">
      <defs>
       <path id="m17b9d02283" d="M 0 0 
L 0 3.5 
" style="stroke: #000000; stroke-width: 0.8"/>
      </defs>
      <g>
       <use xlink:href="#m17b9d02283" x="31.408125" y="256.68" style="stroke: #000000; stroke-width: 0.8"/>
      </g>
     </g>
     <g id="text_1">
      <text style="font: 14px 'Helvetica', sans-serif; text-anchor: middle" x="31.408125" y="273.722812" transform="rotate(-0 31.408125 273.722812)">−400</text>
     </g>
    </g>
    <g id="xtick_2">
     <g id="line2d_2">
      <g>
       <use xlink:href="#m17b9d02283" x="71.44913" y="256.68" style="stroke: #000000; stroke-width: 0.8"/>
      </g>
     </g>
     <g id="text_2">
      <text style="font: 14px 'Helvetica', sans-serif; text-anchor: middle" x="71.44913" y="273.722812" transform="rotate(-0 71.44913 273.722812)">−200</text>
     </g>
    </g>
    <g id="xtick_3">
     <g id="line2d_3">
      <g>
       <use xlink:href="#m17b9d02283" x="111.490134" y="256.68" style="stroke: #000000; stroke-width: 0.8"/>
      </g>
     </g>
     <g id="text_3">
      <text style="font: 14px 'Helvetica', sans-serif; text-anchor: middle" x="111.490134" y="273.722812" transform="rotate(-0 111.490134 273.722812)">0</text>
     </g>
    </g>
    <g id="xtick_4">
     <g id="line2d_4">
      <g>
       <use xlink:href="#m17b9d02283" x="151.531139" y="256.68" style="stroke: #000000; stroke-width: 0.8"/>
      </g>
     </g>
     <g id="text_4">
      <text style="font: 14px 'Helvetica', sans-serif; text-anchor: middle" x="151.531139" y="273.722812" transform="rotate(-0 151.531139 273.722812)">200</text>
     </g>
    </g>
    <g id="xtick_5">
     <g id="line2d_5">
      <g>
       <use xlink:href="#m17b9d02283" x="191.572143" y="256.68" style="stroke: #000000; stroke-width: 0.8"/>
      </g>
     </g>
     <g id="text_5">
      <text style="font: 14px 'Helvetica', sans-serif; text-anchor: middle" x="191.572143" y="273.722812" transform="rotate(-0 191.572143 273.722812)">400</text>
     </g>
    </g>
    <g id="xtick_6">
     <g id="line2d_6">
      <g>
       <use xlink:href="#m17b9d02283" x="231.613148" y="256.68" style="stroke: #000000; stroke-width: 0.8"/>
      </g>
     </g>
     <g id="text_6">
      <text style="font: 14px 'Helvetica', sans-serif; text-anchor: middle" x="231.613148" y="273.722812" transform="rotate(-0 231.613148 273.722812)">600</text>
     </g>
    </g>
    <g id="xtick_7">
     <g id="line2d_7">
      <g>
       <use xlink:href="#m17b9d02283" x="271.654153" y="256.68" style="stroke: #000000; stroke-width: 0.8"/>
      </g>
     </g>
     <g id="text_7">
      <text style="font: 14px 'Helvetica', sans-serif; text-anchor: middle" x="271.654153" y="273.722812" transform="rotate(-0 271.654153 273.722812)">800</text>
     </g>
    </g>
    <g id="xtick_8">
     <g id="line2d_8">
      <g>
       <use xlink:href="#m17b9d02283" x="311.695157" y="256.68" style="stroke: #000000; stroke-width: 0.8"/>
      </g>
     </g>
     <g id="text_8">
      <text style="font: 14px 'Helvetica', sans-serif; text-anchor: middle" x="311.695157" y="273.722812" transform="rotate(-0 311.695157 273.722812)">1000</text>
     </g>
    </g>
    <g id="xtick_9">
     <g id="line2d_9">
      <g>
       <use xlink:href="#m17b9d02283" x="351.736162" y="256.68" style="stroke: #000000; stroke-width: 0.8"/>
      </g>
     </g>
     <g id="text_9">
      <text style="font: 14px 'Helvetica', sans-serif; text-anchor: middle" x="351.736162" y="273.722812" transform="rotate(-0 351.736162 273.722812)">1200</text>
     </g>
    </g>
    <g id="xtick_10">
     <g id="line2d_10">
      <g>
       <use xlink:href="#m17b9d02283" x="391.777167" y="256.68" style="stroke: #000000; stroke-width: 0.8"/>
      </g>
     </g>
     <g id="text_10">
      <text style="font: 14px 'Helvetica', sans-serif; text-anchor: middle" x="391.777167" y="273.722812" transform="rotate(-0 391.777167 273.722812)">1400</text>
     </g>
    </g>
    <g id="text_11">
     <text style="font: 14px 'Helvetica', sans-serif; text-anchor: middle" x="226.708125" y="290.786562" transform="rotate(-0 226.708125 290.786562)">Time (ms)</text>
    </g>
   </g>
   <g id="matplotlib.axis_2">
    <g id="ytick_1">
     <g id="line2d_11">
      <defs>
       <path id="m21032690b6" d="M 0 0 
L -3.5 0 
" style="stroke: #000000; stroke-width: 0.8"/>
      </defs>
      <g>
       <use xlink:href="#m21032690b6" x="31.408125" y="201.24" style="stroke: #000000; stroke-width: 0.8"/>
      </g>
     </g>
    </g>
    <g id="ytick_2">
     <g id="line2d_12">
      <g>
       <use xlink:href="#m21032690b6" x="31.408125" y="166.59" style="stroke: #000000; stroke-width: 0.8"/>
      </g>
     </g>
    </g>
    <g id="ytick_3">
     <g id="line2d_13">
      <g>
       <use xlink:href="#m21032690b6" x="31.408125" y="131.94" style="stroke: #000000; stroke-width: 0.8"/>
      </g>
     </g>
    </g>
    <g id="ytick_4">
     <g id="line2d_14">
      <g>
       <use xlink:href="#m21032690b6" x="31.408125" y="97.29" style="stroke: #000000; stroke-width: 0.8"/>
      </g>
     </g>
    </g>
    <g id="ytick_5">
     <g id="line2d_15">
      <g>
       <use xlink:href="#m21032690b6" x="31.408125" y="62.64" style="stroke: #000000; stroke-width: 0.8"/>
      </g>
     </g>
    </g>
    <g id="text_12">
     <text style="font: 14px 'Helvetica', sans-serif; text-anchor: middle" x="17.406875" y="131.94" transform="rotate(-90 17.406875 131.94)">Distance from hyperplane (a.u.)</text>
    </g>
   </g>
   <g id="line2d_16">
    <path d="M 31.408125 131.94 
L 36.213046 131.94 
L 41.017966 131.94 
L 45.822887 131.94 
L 50.627807 131.94 
L 55.432728 131.94 
L 60.237648 131.94 
L 65.042569 131.94 
L 69.847489 131.94 
L 74.65241 131.94 
L 79.457331 131.94 
L 84.262251 131.94 
L 89.067172 131.94 
L 93.872092 131.94 
L 98.677013 131.94 
L 103.481933 131.94 
L 108.286854 131.94 
L 113.091774 131.94 
L 117.896695 131.94 
L 122.701616 131.94 
L 127.506536 131.94 
L 132.311457 131.94 
L 137.116377 131.94 
L 141.921298 131.94 
L 146.726218 131.94 
L 151.531139 131.94 
L 156.336059 131.94 
L 161.14098 131.94 
L 165.9459 131.94 
L 170.750821 131.94 
L 175.555742 131.94 
L 180.360662 131.94 
L 185.165583 131.94 
L 189.970503 131.94 
L 194.775424 131.94 
L 199.580344 131.94 
L 204.385265 131.94 
L 209.190185 131.94 
L 213.995106 131.94 
L 218.800027 131.94 
L 223.604947 131.94 
L 228.409868 131.94 
L 233.214788 131.94 
L 238.019709 131.94 
L 242.824629 131.94 
L 247.62955 131.94 
L 252.43447 131.94 
L 257.239391 131.94 
L 262.044312 131.94 
L 266.849232 131.94 
L 271.654153 131.94 
L 276.459073 131.94 
L 281.263994 131.94 
L 286.068914 131.94 
L 290.873835 131.94 
L 295.678755 131.94 
L 300.483676 131.94 
L 305.288597 131.94 
L 310.093517 131.94 
L 314.898438 131.94 
L 319.703358 131.94 
L 324.508279 131.94 
L 329.313199 131.94 
L 334.11812 131.94 
L 338.92304 131.94 
L 343.727961 131.94 
L 348.532882 131.94 
L 353.337802 131.94 
L 358.142723 131.94 
L 362.947643 131.94 
L 367.752564 131.94 
L 372.557484 131.94 
L 377.362405 131.94 
L 382.167325 131.94 
L 386.972246 131.94 
L 391.777167 131.94 
L 396.582087 131.94 
L 401.387008 131.94 
L 406.191928 131.94 
L 410.996849 131.94 
" clip-path="url(#p10e87870ee)" style="fill: none; stroke-dasharray: 5.55,2.4; stroke-dashoffset: 0; stroke: #808080; stroke-width: 1.5"/>
   </g>
   <g id="line2d_17">
    <path d="M 31.408125 130.401346 
L 36.213046 131.789664 
L 41.017966 130.266985 
L 45.822887 126.845585 
L 50.627807 129.877321 
L 55.432728 127.466269 
L 60.237648 132.744063 
L 65.042569 133.720915 
L 69.847489 131.98717 
L 74.65241 125.452888 
L 79.457331 138.24969 
L 84.262251 132.310772 
L 89.067172 137.13213 
L 93.872092 133.704381 
L 98.677013 136.269007 
L 103.481933 136.388135 
L 108.286854 136.542066 
L 113.091774 135.860892 
L 117.896695 139.702353 
L 122.701616 137.185648 
L 127.506536 119.731193 
L 132.311457 110.978678 
L 137.116377 66.935733 
L 141.921298 47.975591 
L 146.726218 74.830616 
L 151.531139 85.024192 
L 156.336059 80.877608 
L 161.14098 81.957365 
L 165.9459 87.354812 
L 170.750821 74.000544 
L 175.555742 74.049236 
L 180.360662 68.707775 
L 185.165583 89.104989 
L 189.970503 97.571824 
L 194.775424 84.360034 
L 199.580344 81.87922 
L 204.385265 74.091906 
L 209.190185 79.325351 
L 213.995106 82.004286 
L 218.800027 79.004172 
L 223.604947 84.309784 
L 228.409868 86.465697 
L 233.214788 79.340867 
L 238.019709 63.395556 
L 242.824629 68.308126 
L 247.62955 75.59483 
L 252.43447 71.158796 
L 257.239391 74.502092 
L 262.044312 80.7883 
L 266.849232 84.540491 
L 271.654153 81.174926 
L 276.459073 82.835125 
L 281.263994 95.290225 
L 286.068914 94.416107 
L 290.873835 94.646919 
L 295.678755 98.297563 
L 300.483676 101.124172 
L 305.288597 99.041712 
L 310.093517 102.40963 
L 314.898438 106.140569 
L 319.703358 100.199111 
L 324.508279 100.012979 
L 329.313199 106.09582 
L 334.11812 105.818972 
L 338.92304 101.445018 
L 343.727961 99.746538 
L 348.532882 98.3456 
L 353.337802 97.227437 
L 358.142723 101.26104 
L 362.947643 105.368334 
L 367.752564 100.251007 
L 372.557484 100.852766 
L 377.362405 100.429535 
L 382.167325 104.743693 
L 386.972246 105.591527 
L 391.777167 110.217845 
L 396.582087 110.161413 
L 401.387008 104.298836 
L 406.191928 100.801287 
L 410.996849 110.803234 
" clip-path="url(#p10e87870ee)" style="fill: none; stroke: #54278f; stroke-width: 1.5; stroke-linecap: square"/>
   </g>
   <g id="line2d_18">
    <path d="M 31.408125 138.082356 
L 36.213046 139.421853 
L 41.017966 138.272009 
L 45.822887 135.044095 
L 50.627807 138.389238 
L 55.432728 133.028605 
L 60.237648 139.089502 
L 65.042569 130.686191 
L 69.847489 128.856465 
L 74.65241 132.254857 
L 79.457331 130.358763 
L 84.262251 136.449885 
L 89.067172 135.508626 
L 93.872092 139.446504 
L 98.677013 132.081304 
L 103.481933 127.538255 
L 108.286854 135.164471 
L 113.091774 125.69245 
L 117.896695 133.85671 
L 122.701616 134.771159 
L 127.506536 121.935998 
L 132.311457 111.354841 
L 137.116377 65.752508 
L 141.921298 53.832477 
L 146.726218 75.381961 
L 151.531139 77.519084 
L 156.336059 70.927856 
L 161.14098 73.962983 
L 165.9459 66.446898 
L 170.750821 68.848774 
L 175.555742 77.182235 
L 180.360662 70.8126 
L 185.165583 79.582064 
L 189.970503 87.617393 
L 194.775424 72.334011 
L 199.580344 75.971625 
L 204.385265 79.061387 
L 209.190185 70.110126 
L 213.995106 67.413547 
L 218.800027 68.848071 
L 223.604947 70.003158 
L 228.409868 70.352758 
L 233.214788 44.600124 
L 238.019709 22.92427 
L 242.824629 64.034261 
L 247.62955 89.696531 
L 252.43447 55.206927 
L 257.239391 52.012275 
L 262.044312 72.626936 
L 266.849232 89.509563 
L 271.654153 59.83541 
L 276.459073 27.01879 
L 281.263994 57.625003 
L 286.068914 93.694338 
L 290.873835 109.540415 
L 295.678755 103.894882 
L 300.483676 97.267893 
L 305.288597 95.029226 
L 310.093517 101.382814 
L 314.898438 107.978924 
L 319.703358 107.771735 
L 324.508279 117.456294 
L 329.313199 121.015885 
L 334.11812 118.374448 
L 338.92304 115.995813 
L 343.727961 124.421442 
L 348.532882 112.790554 
L 353.337802 104.284255 
L 358.142723 111.884402 
L 362.947643 111.582089 
L 367.752564 105.616415 
L 372.557484 106.687561 
L 377.362405 107.395044 
L 382.167325 107.540317 
L 386.972246 110.581975 
L 391.777167 114.279277 
L 396.582087 117.482906 
L 401.387008 107.9303 
L 406.191928 101.180996 
L 410.996849 109.39605 
" clip-path="url(#p10e87870ee)" style="fill: none; stroke: #9e9ac8; stroke-width: 1.5; stroke-linecap: square"/>
   </g>
   <g id="line2d_19">
    <path d="M 31.408125 128.411239 
L 36.213046 134.407382 
L 41.017966 131.683976 
L 45.822887 138.074034 
L 50.627807 136.516782 
L 55.432728 139.353798 
L 60.237648 133.5541 
L 65.042569 133.039871 
L 69.847489 133.029755 
L 74.65241 137.77771 
L 79.457331 125.92213 
L 84.262251 131.601528 
L 89.067172 130.897219 
L 93.872092 134.070356 
L 98.677013 127.282726 
L 103.481933 127.526555 
L 108.286854 127.430998 
L 113.091774 130.40169 
L 117.896695 121.207212 
L 122.701616 126.21534 
L 127.506536 144.266981 
L 132.311457 151.557589 
L 137.116377 197.408041 
L 141.921298 224.909269 
L 146.726218 200.117391 
L 151.531139 182.886471 
L 156.336059 182.588481 
L 161.14098 176.492914 
L 165.9459 179.458883 
L 170.750821 192.96817 
L 175.555742 188.201153 
L 180.360662 190.298043 
L 185.165583 168.658503 
L 189.970503 169.973219 
L 194.775424 181.011102 
L 199.580344 187.52928 
L 204.385265 191.68533 
L 209.190185 177.569525 
L 213.995106 183.067523 
L 218.800027 188.17462 
L 223.604947 177.76537 
L 228.409868 174.707617 
L 233.214788 182.433824 
L 238.019709 195.508154 
L 242.824629 192.974795 
L 247.62955 190.929633 
L 252.43447 195.161391 
L 257.239391 190.996136 
L 262.044312 184.833559 
L 266.849232 176.79363 
L 271.654153 182.286498 
L 276.459073 184.459635 
L 281.263994 173.539496 
L 286.068914 169.46591 
L 290.873835 168.217518 
L 295.678755 166.915983 
L 300.483676 160.880131 
L 305.288597 162.575684 
L 310.093517 159.87106 
L 314.898438 157.52267 
L 319.703358 165.720111 
L 324.508279 166.873678 
L 329.313199 158.23274 
L 334.11812 159.657617 
L 338.92304 164.923288 
L 343.727961 165.292043 
L 348.532882 171.199513 
L 353.337802 170.578295 
L 358.142723 169.044599 
L 362.947643 163.445146 
L 367.752564 166.537913 
L 372.557484 164.966417 
L 377.362405 166.111499 
L 382.167325 160.363034 
L 386.972246 160.547086 
L 391.777167 156.075553 
L 396.582087 156.711717 
L 401.387008 162.082129 
L 406.191928 167.665851 
L 410.996849 159.519576 
" clip-path="url(#p10e87870ee)" style="fill: none; stroke: #08519c; stroke-width: 1.5; stroke-linecap: square"/>
   </g>
   <g id="patch_5">
    <path d="M 31.408125 256.68 
L 31.408125 7.2 
" style="fill: none; stroke: #000000; stroke-width: 0.8; stroke-linejoin: miter; stroke-linecap: square"/>
   </g>
   <g id="patch_6">
    <path d="M 31.408125 256.68 
L 422.008125 256.68 
" style="fill: none; stroke: #000000; stroke-width: 0.8; stroke-linejoin: miter; stroke-linecap: square"/>
   </g>
   <g id="text_13">
    <text style="font: 12px 'Helvetica', sans-serif" transform="translate(41.097754 25.554)">Predicted</text>
    <text style="font: 12px 'Helvetica', sans-serif" transform="translate(47.106192 38.385)">4 items</text>
   </g>
   <g id="text_14">
    <text style="font: 12px 'Helvetica', sans-serif" transform="translate(41.097754 233.454)">Predicted</text>
    <text style="font: 12px 'Helvetica', sans-serif" transform="translate(47.106192 246.285)">2 items</text>
   </g>
   <g id="legend_1">
    <g id="line2d_20">
     <path d="M 322.2525 22.408125 
L 334.2525 22.408125 
L 346.2525 22.408125 
" style="fill: none; stroke: #54278f; stroke-width: 1.5; stroke-linecap: square"/>
    </g>
    <g id="text_15">
     <text style="font: 12px 'Helvetica', sans-serif; text-anchor: start" x="355.8525" y="26.608125" transform="rotate(-0 355.8525 26.608125)">4 Different</text>
    </g>
    <g id="line2d_21">
     <path d="M 322.2525 39.5175 
L 334.2525 39.5175 
L 346.2525 39.5175 
" style="fill: none; stroke: #9e9ac8; stroke-width: 1.5; stroke-linecap: square"/>
    </g>
    <g id="text_16">
     <text style="font: 12px 'Helvetica', sans-serif; text-anchor: start" x="355.8525" y="43.7175" transform="rotate(-0 355.8525 43.7175)">4 Same</text>
    </g>
    <g id="line2d_22">
     <path d="M 322.2525 56.626875 
L 334.2525 56.626875 
L 346.2525 56.626875 
" style="fill: none; stroke: #08519c; stroke-width: 1.5; stroke-linecap: square"/>
    </g>
    <g id="text_17">
     <text style="font: 12px 'Helvetica', sans-serif; text-anchor: start" x="355.8525" y="60.826875" transform="rotate(-0 355.8525 60.826875)">2 Different</text>
    </g>
   </g>
  </g>
 </g>
 <defs>
  <clipPath id="p10e87870ee">
   <rect x="31.408125" y="7.2" width="390.6" height="249.48"/>
  </clipPath>
 </defs>
</svg>
