<?xml version="1.0" encoding="utf-8" standalone="no"?>
<!DOCTYPE svg PUBLIC "-//W3C//DTD SVG 1.1//EN"
  "http://www.w3.org/Graphics/SVG/1.1/DTD/svg11.dtd">
<svg xmlns:xlink="http://www.w3.org/1999/xlink" width="448.7775pt" height="305.926094pt" viewBox="0 0 448.7775 305.926094" xmlns="http://www.w3.org/2000/svg" version="1.1">
 <metadata>
  <rdf:RDF xmlns:dc="http://purl.org/dc/elements/1.1/" xmlns:cc="http://creativecommons.org/ns#" xmlns:rdf="http://www.w3.org/1999/02/22-rdf-syntax-ns#">
   <cc:Work>
    <dc:type rdf:resource="http://purl.org/dc/dcmitype/StillImage"/>
    <dc:date>2023-07-20T11:53:34.341161</dc:date>
    <dc:format>image/svg+xml</dc:format>
    <dc:creator>
     <cc:Agent>
      <dc:title>Matplotlib v3.7.1, https://matplotlib.org/</dc:title>
     </cc:Agent>
    </dc:creator>
   </cc:Work>
  </rdf:RDF>
 </metadata>
 <defs>
  <style type="text/css">*{stroke-linejoin: round; stroke-linecap: butt}</style>
 </defs>
 <g id="figure_1">
  <g id="patch_1">
   <path d="M 0 305.926094 
L 448.7775 305.926094 
L 448.7775 -0 
L 0 -0 
z
" style="fill: #ffffff"/>
  </g>
  <g id="axes_1">
   <g id="patch_2">
    <path d="M 50.9775 261.701406 
L 441.5775 261.701406 
L 441.5775 12.221406 
L 50.9775 12.221406 
z
" style="fill: #ffffff"/>
   </g>
   <g id="PolyCollection_1">
    <defs>
     <path id="m6260413ce9" d="M 131.059509 -293.704687 
L 131.059509 -44.224688 
L 161.290468 -44.224688 
L 161.290468 -293.704687 
L 161.290468 -293.704687 
L 131.059509 -293.704687 
z
" style="stroke: #808080; stroke-opacity: 0.3"/>
    </defs>
    <g clip-path="url(#p6e3f34bc58)">
     <use xlink:href="#m6260413ce9" x="0" y="305.926094" style="fill: #808080; fill-opacity: 0.3; stroke: #808080; stroke-opacity: 0.3"/>
    </g>
   </g>
   <g id="PolyCollection_2">
    <defs>
     <path id="mfcce5c9a8d" d="M 231.162021 -293.704687 
L 231.162021 -44.224688 
L 261.392979 -44.224688 
L 261.392979 -293.704687 
L 261.392979 -293.704687 
L 231.162021 -293.704687 
z
" style="stroke: #808080; stroke-opacity: 0.3"/>
    </defs>
    <g clip-path="url(#p6e3f34bc58)">
     <use xlink:href="#mfcce5c9a8d" x="0" y="305.926094" style="fill: #808080; fill-opacity: 0.3; stroke: #808080; stroke-opacity: 0.3"/>
    </g>
   </g>
   <g id="PolyCollection_3">
    <defs>
     <path id="m5fcb26baf4" d="M 50.9775 -126.454287 
L 50.9775 -127.904832 
L 55.782421 -127.593657 
L 60.587341 -127.622859 
L 65.392262 -127.944773 
L 70.197182 -128.291992 
L 75.002103 -128.004053 
L 79.807023 -128.097374 
L 84.611944 -127.636441 
L 89.416864 -128.896866 
L 94.221785 -127.067244 
L 99.026706 -127.603479 
L 103.831626 -126.6931 
L 108.636547 -128.036895 
L 113.441467 -128.890351 
L 118.246388 -126.854597 
L 123.051308 -126.54382 
L 127.856229 -126.913938 
L 132.661149 -127.161988 
L 137.46607 -126.998797 
L 142.270991 -126.118528 
L 147.075911 -126.514782 
L 151.880832 -126.886053 
L 156.685752 -127.733838 
L 161.490673 -128.972611 
L 166.295593 -128.609321 
L 171.100514 -128.016493 
L 175.905434 -127.116741 
L 180.710355 -127.691423 
L 185.515275 -127.520231 
L 190.320196 -128.43951 
L 195.125117 -128.824841 
L 199.930037 -128.785304 
L 204.734958 -128.061227 
L 209.539878 -126.829064 
L 214.344799 -127.658757 
L 219.149719 -127.318735 
L 223.95464 -127.644775 
L 228.75956 -127.839515 
L 233.564481 -127.562626 
L 238.369402 -127.758251 
L 243.174322 -127.837218 
L 247.979243 -127.910505 
L 252.784163 -127.510091 
L 257.589084 -128.480068 
L 262.394004 -128.294651 
L 267.198925 -128.43542 
L 272.003845 -128.534009 
L 276.808766 -129.336354 
L 281.613687 -129.075771 
L 286.418607 -129.519423 
L 291.223528 -129.295104 
L 296.028448 -129.772121 
L 300.833369 -129.995955 
L 305.638289 -129.166789 
L 310.44321 -129.569993 
L 315.24813 -128.878327 
L 320.053051 -128.586149 
L 324.857972 -127.711795 
L 329.662892 -128.181997 
L 334.467813 -127.931691 
L 339.272733 -128.195133 
L 344.077654 -128.396058 
L 348.882574 -128.573681 
L 353.687495 -128.414188 
L 358.492415 -128.786435 
L 363.297336 -129.734037 
L 368.102257 -129.523272 
L 372.907177 -128.436843 
L 377.712098 -128.470039 
L 382.517018 -128.19451 
L 387.321939 -128.529905 
L 392.126859 -128.859579 
L 396.93178 -128.55104 
L 401.7367 -128.32629 
L 406.541621 -128.170297 
L 411.346542 -128.223935 
L 416.151462 -128.330198 
L 420.956383 -128.304176 
L 425.761303 -127.978014 
L 430.566224 -128.298926 
L 430.566224 -126.768716 
L 430.566224 -126.768716 
L 425.761303 -126.601202 
L 420.956383 -127.139349 
L 416.151462 -127.274657 
L 411.346542 -126.992286 
L 406.541621 -127.001018 
L 401.7367 -127.227007 
L 396.93178 -127.389782 
L 392.126859 -127.91617 
L 387.321939 -127.595532 
L 382.517018 -126.889764 
L 377.712098 -126.735094 
L 372.907177 -127.225116 
L 368.102257 -128.281443 
L 363.297336 -128.202071 
L 358.492415 -127.356743 
L 353.687495 -127.021576 
L 348.882574 -126.957439 
L 344.077654 -126.718154 
L 339.272733 -126.24881 
L 334.467813 -126.710727 
L 329.662892 -126.782526 
L 324.857972 -126.390082 
L 320.053051 -126.872346 
L 315.24813 -127.188344 
L 310.44321 -128.411576 
L 305.638289 -127.729265 
L 300.833369 -128.13253 
L 296.028448 -127.969392 
L 291.223528 -127.400257 
L 286.418607 -128.096242 
L 281.613687 -127.42056 
L 276.808766 -127.652284 
L 272.003845 -126.502587 
L 267.198925 -126.733677 
L 262.394004 -126.54347 
L 257.589084 -126.693465 
L 252.784163 -126.384441 
L 247.979243 -126.353258 
L 243.174322 -126.071174 
L 238.369402 -126.218332 
L 233.564481 -125.924976 
L 228.75956 -126.296181 
L 223.95464 -125.669854 
L 219.149719 -125.148217 
L 214.344799 -125.61263 
L 209.539878 -124.813495 
L 204.734958 -125.960262 
L 199.930037 -126.531264 
L 195.125117 -127.131504 
L 190.320196 -126.867078 
L 185.515275 -126.178043 
L 180.710355 -126.728125 
L 175.905434 -125.925124 
L 171.100514 -126.495641 
L 166.295593 -127.167953 
L 161.490673 -126.807435 
L 156.685752 -125.612946 
L 151.880832 -125.13627 
L 147.075911 -124.703107 
L 142.270991 -124.630338 
L 137.46607 -125.681599 
L 132.661149 -125.515636 
L 127.856229 -125.224809 
L 123.051308 -125.073791 
L 118.246388 -125.318523 
L 113.441467 -127.139175 
L 108.636547 -126.616611 
L 103.831626 -125.323125 
L 99.026706 -126.198468 
L 94.221785 -125.974621 
L 89.416864 -127.224691 
L 84.611944 -125.901612 
L 79.807023 -126.117047 
L 75.002103 -126.810228 
L 70.197182 -127.119378 
L 65.392262 -125.920376 
L 60.587341 -126.156912 
L 55.782421 -126.482718 
L 50.9775 -126.454287 
z
" style="stroke: #808080; stroke-opacity: 0.3"/>
    </defs>
    <g clip-path="url(#p6e3f34bc58)">
     <use xlink:href="#m5fcb26baf4" x="0" y="305.926094" style="fill: #808080; fill-opacity: 0.3; stroke: #808080; stroke-opacity: 0.3"/>
    </g>
   </g>
   <g id="PolyCollection_4">
    <defs>
     <path id="m10131d1c0c" d="M 50.9775 -122.381889 
L 50.9775 -140.852065 
L 55.782421 -141.843229 
L 60.587341 -138.289616 
L 65.392262 -127.687453 
L 70.197182 -146.008688 
L 75.002103 -134.518311 
L 79.807023 -132.133888 
L 84.611944 -132.802966 
L 89.416864 -144.781769 
L 94.221785 -137.511636 
L 99.026706 -147.358308 
L 103.831626 -146.727561 
L 108.636547 -153.806199 
L 113.441467 -151.11641 
L 118.246388 -125.575802 
L 123.051308 -128.741145 
L 127.856229 -126.742968 
L 132.661149 -130.191326 
L 137.46607 -119.198345 
L 142.270991 -125.763984 
L 147.075911 -119.688894 
L 151.880832 -131.746312 
L 156.685752 -131.052702 
L 161.490673 -147.404471 
L 166.295593 -161.881155 
L 171.100514 -164.11249 
L 175.905434 -162.496313 
L 180.710355 -179.656237 
L 185.515275 -176.122367 
L 190.320196 -175.830153 
L 195.125117 -164.408584 
L 199.930037 -168.025999 
L 204.734958 -178.138442 
L 209.539878 -179.658097 
L 214.344799 -186.102588 
L 219.149719 -182.700029 
L 223.95464 -177.456354 
L 228.75956 -172.771087 
L 233.564481 -178.005486 
L 238.369402 -180.314103 
L 243.174322 -172.577082 
L 247.979243 -172.408068 
L 252.784163 -175.276827 
L 257.589084 -172.362771 
L 262.394004 -176.94588 
L 267.198925 -187.48796 
L 272.003845 -197.185958 
L 276.808766 -204.838707 
L 281.613687 -208.283852 
L 286.418607 -210.505142 
L 291.223528 -206.54456 
L 296.028448 -216.196071 
L 300.833369 -217.649101 
L 305.638289 -215.886676 
L 310.44321 -209.181848 
L 315.24813 -205.494402 
L 320.053051 -198.394123 
L 324.857972 -192.270286 
L 329.662892 -194.025667 
L 334.467813 -187.544636 
L 339.272733 -187.48583 
L 344.077654 -177.950446 
L 348.882574 -174.906061 
L 353.687495 -186.743681 
L 358.492415 -178.063811 
L 363.297336 -181.281754 
L 368.102257 -181.934391 
L 372.907177 -182.414851 
L 377.712098 -178.320447 
L 382.517018 -180.770148 
L 387.321939 -179.759665 
L 392.126859 -170.361807 
L 396.93178 -175.025617 
L 401.7367 -176.95803 
L 406.541621 -173.862242 
L 411.346542 -173.998487 
L 416.151462 -176.474885 
L 420.956383 -175.79292 
L 425.761303 -177.929316 
L 430.566224 -174.294241 
L 430.566224 -156.277137 
L 430.566224 -156.277137 
L 425.761303 -157.141019 
L 420.956383 -156.824194 
L 416.151462 -158.204043 
L 411.346542 -157.131727 
L 406.541621 -154.507614 
L 401.7367 -157.046193 
L 396.93178 -155.18263 
L 392.126859 -151.541528 
L 387.321939 -158.133119 
L 382.517018 -155.910718 
L 377.712098 -152.90734 
L 372.907177 -158.455062 
L 368.102257 -158.209812 
L 363.297336 -154.312488 
L 358.492415 -154.857114 
L 353.687495 -167.605913 
L 348.882574 -154.711749 
L 344.077654 -154.781983 
L 339.272733 -164.05351 
L 334.467813 -166.75229 
L 329.662892 -174.363553 
L 324.857972 -169.8398 
L 320.053051 -178.94145 
L 315.24813 -184.995419 
L 310.44321 -190.817042 
L 305.638289 -198.55877 
L 300.833369 -198.009926 
L 296.028448 -195.755129 
L 291.223528 -183.488436 
L 286.418607 -191.368729 
L 281.613687 -189.040059 
L 276.808766 -184.65264 
L 272.003845 -177.732985 
L 267.198925 -168.732734 
L 262.394004 -159.207198 
L 257.589084 -153.782832 
L 252.784163 -154.22456 
L 247.979243 -153.394361 
L 243.174322 -154.564223 
L 238.369402 -158.598777 
L 233.564481 -154.827845 
L 228.75956 -154.102997 
L 223.95464 -161.867891 
L 219.149719 -162.329547 
L 214.344799 -162.862673 
L 209.539878 -156.679041 
L 204.734958 -157.069383 
L 199.930037 -147.998478 
L 195.125117 -141.362819 
L 190.320196 -153.201656 
L 185.515275 -154.799392 
L 180.710355 -157.301275 
L 175.905434 -142.896435 
L 171.100514 -146.507141 
L 166.295593 -142.744303 
L 161.490673 -128.128847 
L 156.685752 -110.987649 
L 151.880832 -116.156819 
L 147.075911 -103.13928 
L 142.270991 -112.779212 
L 137.46607 -102.071965 
L 132.661149 -114.515135 
L 127.856229 -111.245274 
L 123.051308 -114.12249 
L 118.246388 -112.674116 
L 113.441467 -133.665409 
L 108.636547 -135.363141 
L 103.831626 -129.84304 
L 99.026706 -130.703074 
L 94.221785 -121.676307 
L 89.416864 -126.670057 
L 84.611944 -113.220749 
L 79.807023 -114.254623 
L 75.002103 -116.714546 
L 70.197182 -123.821518 
L 65.392262 -110.135577 
L 60.587341 -123.828331 
L 55.782421 -125.79377 
L 50.9775 -122.381889 
z
" style="stroke: #fdbe85; stroke-opacity: 0.3"/>
    </defs>
    <g clip-path="url(#p6e3f34bc58)">
     <use xlink:href="#m10131d1c0c" x="0" y="305.926094" style="fill: #fdbe85; fill-opacity: 0.3; stroke: #fdbe85; stroke-opacity: 0.3"/>
    </g>
   </g>
   <g id="PolyCollection_5">
    <defs>
     <path id="m675b60688b" d="M 50.9775 -126.55311 
L 50.9775 -127.829848 
L 55.782421 -127.314025 
L 60.587341 -128.637499 
L 65.392262 -128.560745 
L 70.197182 -127.231511 
L 75.002103 -127.137289 
L 79.807023 -127.144952 
L 84.611944 -127.352426 
L 89.416864 -128.351577 
L 94.221785 -127.688782 
L 99.026706 -127.787445 
L 103.831626 -127.433165 
L 108.636547 -128.102805 
L 113.441467 -127.242128 
L 118.246388 -127.876623 
L 123.051308 -126.549026 
L 127.856229 -127.123826 
L 132.661149 -127.071852 
L 137.46607 -127.011299 
L 142.270991 -127.698535 
L 147.075911 -127.374159 
L 151.880832 -126.935758 
L 156.685752 -126.64237 
L 161.490673 -127.511456 
L 166.295593 -127.787757 
L 171.100514 -127.935137 
L 175.905434 -127.857264 
L 180.710355 -126.953683 
L 185.515275 -127.970357 
L 190.320196 -127.849328 
L 195.125117 -128.417234 
L 199.930037 -127.438462 
L 204.734958 -127.272861 
L 209.539878 -128.04525 
L 214.344799 -127.550661 
L 219.149719 -126.531403 
L 223.95464 -126.684899 
L 228.75956 -127.156783 
L 233.564481 -126.60247 
L 238.369402 -127.316966 
L 243.174322 -127.616484 
L 247.979243 -127.256725 
L 252.784163 -127.384464 
L 257.589084 -127.350124 
L 262.394004 -127.716025 
L 267.198925 -127.086245 
L 272.003845 -128.558931 
L 276.808766 -128.831719 
L 281.613687 -128.178959 
L 286.418607 -128.415432 
L 291.223528 -128.21616 
L 296.028448 -128.100517 
L 300.833369 -127.563208 
L 305.638289 -128.373077 
L 310.44321 -128.469875 
L 315.24813 -127.899199 
L 320.053051 -127.334707 
L 324.857972 -127.539884 
L 329.662892 -127.467527 
L 334.467813 -127.524723 
L 339.272733 -127.869854 
L 344.077654 -128.076087 
L 348.882574 -127.339979 
L 353.687495 -126.96898 
L 358.492415 -128.418844 
L 363.297336 -127.816872 
L 368.102257 -128.295245 
L 372.907177 -128.161243 
L 377.712098 -127.665502 
L 382.517018 -127.944875 
L 387.321939 -127.332518 
L 392.126859 -127.452237 
L 396.93178 -127.693799 
L 401.7367 -126.829797 
L 406.541621 -127.118459 
L 411.346542 -126.741734 
L 416.151462 -127.447902 
L 420.956383 -126.650254 
L 425.761303 -127.408291 
L 430.566224 -127.23132 
L 430.566224 -126.028978 
L 430.566224 -126.028978 
L 425.761303 -126.18742 
L 420.956383 -125.624876 
L 416.151462 -126.307475 
L 411.346542 -125.647602 
L 406.541621 -126.119663 
L 401.7367 -125.574508 
L 396.93178 -126.390338 
L 392.126859 -125.971054 
L 387.321939 -126.015376 
L 382.517018 -126.253468 
L 377.712098 -126.034435 
L 372.907177 -126.615894 
L 368.102257 -126.740242 
L 363.297336 -126.165255 
L 358.492415 -126.950392 
L 353.687495 -125.371014 
L 348.882574 -125.953583 
L 344.077654 -126.286358 
L 339.272733 -126.320727 
L 334.467813 -126.243406 
L 329.662892 -125.8532 
L 324.857972 -125.885071 
L 320.053051 -125.915612 
L 315.24813 -126.383412 
L 310.44321 -126.745238 
L 305.638289 -126.410158 
L 300.833369 -126.490437 
L 296.028448 -126.360057 
L 291.223528 -127.027782 
L 286.418607 -126.990394 
L 281.613687 -126.977941 
L 276.808766 -127.634674 
L 272.003845 -127.218344 
L 267.198925 -125.805931 
L 262.394004 -126.069844 
L 257.589084 -126.105877 
L 252.784163 -125.92573 
L 247.979243 -125.736907 
L 243.174322 -126.275275 
L 238.369402 -126.22275 
L 233.564481 -125.209181 
L 228.75956 -125.824652 
L 223.95464 -125.078519 
L 219.149719 -125.325155 
L 214.344799 -126.347752 
L 209.539878 -126.530085 
L 204.734958 -125.87434 
L 199.930037 -126.14228 
L 195.125117 -126.966971 
L 190.320196 -126.609029 
L 185.515275 -126.869427 
L 180.710355 -125.316456 
L 175.905434 -126.527912 
L 171.100514 -126.502153 
L 166.295593 -126.469907 
L 161.490673 -126.217311 
L 156.685752 -125.199773 
L 151.880832 -125.509018 
L 147.075911 -126.572486 
L 142.270991 -126.380612 
L 137.46607 -125.345882 
L 132.661149 -125.598011 
L 127.856229 -125.533839 
L 123.051308 -125.249319 
L 118.246388 -126.463646 
L 113.441467 -125.981026 
L 108.636547 -126.69429 
L 103.831626 -126.012303 
L 99.026706 -125.86315 
L 94.221785 -125.898058 
L 89.416864 -127.137409 
L 84.611944 -126.26158 
L 79.807023 -126.168568 
L 75.002103 -126.008248 
L 70.197182 -126.179029 
L 65.392262 -127.629003 
L 60.587341 -127.444695 
L 55.782421 -126.12978 
L 50.9775 -126.55311 
z
" style="stroke: #808080; stroke-opacity: 0.3"/>
    </defs>
    <g clip-path="url(#p6e3f34bc58)">
     <use xlink:href="#m675b60688b" x="0" y="305.926094" style="fill: #808080; fill-opacity: 0.3; stroke: #808080; stroke-opacity: 0.3"/>
    </g>
   </g>
   <g id="PolyCollection_6">
    <defs>
     <path id="meb2249f0ec" d="M 50.9775 -116.35278 
L 50.9775 -137.818397 
L 55.782421 -146.42864 
L 60.587341 -138.780887 
L 65.392262 -136.341807 
L 70.197182 -139.359861 
L 75.002103 -119.875705 
L 79.807023 -129.209504 
L 84.611944 -127.824229 
L 89.416864 -136.959353 
L 94.221785 -117.728591 
L 99.026706 -132.05315 
L 103.831626 -128.202964 
L 108.636547 -143.699072 
L 113.441467 -147.637141 
L 118.246388 -136.066861 
L 123.051308 -138.447851 
L 127.856229 -127.463415 
L 132.661149 -127.973603 
L 137.46607 -127.356226 
L 142.270991 -120.279779 
L 147.075911 -128.070579 
L 151.880832 -128.841827 
L 156.685752 -123.893208 
L 161.490673 -138.637194 
L 166.295593 -139.344082 
L 171.100514 -142.833193 
L 175.905434 -152.038556 
L 180.710355 -156.20923 
L 185.515275 -173.827836 
L 190.320196 -168.601025 
L 195.125117 -164.378112 
L 199.930037 -172.141532 
L 204.734958 -176.575381 
L 209.539878 -173.450978 
L 214.344799 -166.945357 
L 219.149719 -162.85511 
L 223.95464 -166.083097 
L 228.75956 -167.735946 
L 233.564481 -155.764781 
L 238.369402 -167.958565 
L 243.174322 -169.718277 
L 247.979243 -162.522639 
L 252.784163 -159.20132 
L 257.589084 -171.553812 
L 262.394004 -175.796081 
L 267.198925 -171.002707 
L 272.003845 -194.341433 
L 276.808766 -216.102008 
L 281.613687 -219.704295 
L 286.418607 -205.877704 
L 291.223528 -195.62715 
L 296.028448 -203.255906 
L 300.833369 -199.717196 
L 305.638289 -195.560936 
L 310.44321 -198.782889 
L 315.24813 -197.11984 
L 320.053051 -187.289471 
L 324.857972 -183.929481 
L 329.662892 -186.647689 
L 334.467813 -186.552414 
L 339.272733 -177.340787 
L 344.077654 -182.641024 
L 348.882574 -183.198151 
L 353.687495 -174.455046 
L 358.492415 -166.227134 
L 363.297336 -173.185672 
L 368.102257 -182.824686 
L 372.907177 -172.634115 
L 377.712098 -172.475025 
L 382.517018 -178.312724 
L 387.321939 -180.491243 
L 392.126859 -173.945522 
L 396.93178 -160.208336 
L 401.7367 -167.281286 
L 406.541621 -171.525549 
L 411.346542 -169.759536 
L 416.151462 -167.962881 
L 420.956383 -164.650269 
L 425.761303 -166.711782 
L 430.566224 -162.664254 
L 430.566224 -143.949282 
L 430.566224 -143.949282 
L 425.761303 -148.077491 
L 420.956383 -146.430068 
L 416.151462 -148.558338 
L 411.346542 -148.503608 
L 406.541621 -151.614652 
L 401.7367 -142.977985 
L 396.93178 -134.93023 
L 392.126859 -150.968759 
L 387.321939 -155.365785 
L 382.517018 -154.552761 
L 377.712098 -146.205028 
L 372.907177 -144.222516 
L 368.102257 -160.374815 
L 363.297336 -150.874833 
L 358.492415 -144.613148 
L 353.687495 -154.679328 
L 348.882574 -161.947295 
L 344.077654 -159.52064 
L 339.272733 -156.53038 
L 334.467813 -167.138553 
L 329.662892 -165.443834 
L 324.857972 -162.502727 
L 320.053051 -168.886317 
L 315.24813 -178.284758 
L 310.44321 -179.29059 
L 305.638289 -172.307702 
L 300.833369 -174.471602 
L 296.028448 -174.832541 
L 291.223528 -174.257841 
L 286.418607 -186.884049 
L 281.613687 -198.159026 
L 276.808766 -196.056537 
L 272.003845 -177.690195 
L 267.198925 -153.404852 
L 262.394004 -154.460398 
L 257.589084 -150.779737 
L 252.784163 -141.718528 
L 247.979243 -145.5717 
L 243.174322 -152.924627 
L 238.369402 -148.827103 
L 233.564481 -134.052099 
L 228.75956 -146.908074 
L 223.95464 -142.892184 
L 219.149719 -141.428838 
L 214.344799 -143.624932 
L 209.539878 -150.101696 
L 204.734958 -153.0136 
L 199.930037 -150.226944 
L 195.125117 -145.286288 
L 190.320196 -151.650198 
L 185.515275 -153.8213 
L 180.710355 -133.107026 
L 175.905434 -134.374308 
L 171.100514 -123.330765 
L 166.295593 -123.623206 
L 161.490673 -119.226287 
L 156.685752 -106.902802 
L 151.880832 -113.082654 
L 147.075911 -109.764094 
L 142.270991 -106.699187 
L 137.46607 -108.621761 
L 132.661149 -112.666888 
L 127.856229 -113.170423 
L 123.051308 -121.74411 
L 118.246388 -118.91873 
L 113.441467 -126.795139 
L 108.636547 -121.77244 
L 103.831626 -114.418398 
L 99.026706 -112.232521 
L 94.221785 -98.764453 
L 89.416864 -120.555411 
L 84.611944 -110.713423 
L 79.807023 -109.471183 
L 75.002103 -100.602367 
L 70.197182 -122.450948 
L 65.392262 -119.711559 
L 60.587341 -120.619946 
L 55.782421 -127.359427 
L 50.9775 -116.35278 
z
" style="stroke: #d94701; stroke-opacity: 0.3"/>
    </defs>
    <g clip-path="url(#p6e3f34bc58)">
     <use xlink:href="#meb2249f0ec" x="0" y="305.926094" style="fill: #d94701; fill-opacity: 0.3; stroke: #d94701; stroke-opacity: 0.3"/>
    </g>
   </g>
   <g id="matplotlib.axis_1">
    <g id="xtick_1">
     <g id="line2d_1">
      <defs>
       <path id="mc4cfc06fe7" d="M 0 0 
L 0 3.5 
" style="stroke: #000000; stroke-width: 0.8"/>
      </defs>
      <g>
       <use xlink:href="#mc4cfc06fe7" x="50.9775" y="261.701406" style="stroke: #000000; stroke-width: 0.8"/>
      </g>
     </g>
     <g id="text_1">
      <!-- −400 -->
      <g transform="translate(35.211094 278.744219) scale(0.14 -0.14)">
       <defs>
        <path id="Helvetica-2212" d="M 3547 1894 
L 3547 1369 
L 288 1369 
L 288 1894 
L 3547 1894 
z
" transform="scale(0.015625)"/>
        <path id="Helvetica-34" d="M 2116 1584 
L 2116 3613 
L 681 1584 
L 2116 1584 
z
M 2125 0 
L 2125 1094 
L 163 1094 
L 163 1644 
L 2213 4488 
L 2688 4488 
L 2688 1584 
L 3347 1584 
L 3347 1094 
L 2688 1094 
L 2688 0 
L 2125 0 
z
" transform="scale(0.015625)"/>
        <path id="Helvetica-30" d="M 1731 4475 
Q 2600 4475 2988 3759 
Q 3288 3206 3288 2244 
Q 3288 1331 3016 734 
Q 2622 -122 1728 -122 
Q 922 -122 528 578 
Q 200 1163 200 2147 
Q 200 2909 397 3456 
Q 766 4475 1731 4475 
z
M 1725 391 
Q 2163 391 2422 778 
Q 2681 1166 2681 2222 
Q 2681 2984 2493 3476 
Q 2306 3969 1766 3969 
Q 1269 3969 1039 3501 
Q 809 3034 809 2125 
Q 809 1441 956 1025 
Q 1181 391 1725 391 
z
" transform="scale(0.015625)"/>
       </defs>
       <use xlink:href="#Helvetica-2212"/>
       <use xlink:href="#Helvetica-34" x="58.398438"/>
       <use xlink:href="#Helvetica-30" x="114.013672"/>
       <use xlink:href="#Helvetica-30" x="169.628906"/>
      </g>
     </g>
    </g>
    <g id="xtick_2">
     <g id="line2d_2">
      <g>
       <use xlink:href="#mc4cfc06fe7" x="91.018505" y="261.701406" style="stroke: #000000; stroke-width: 0.8"/>
      </g>
     </g>
     <g id="text_2">
      <!-- −200 -->
      <g transform="translate(75.252098 278.744219) scale(0.14 -0.14)">
       <defs>
        <path id="Helvetica-32" d="M 200 0 
Q 231 578 439 1006 
Q 647 1434 1250 1784 
L 1850 2131 
Q 2253 2366 2416 2531 
Q 2672 2791 2672 3125 
Q 2672 3516 2437 3745 
Q 2203 3975 1813 3975 
Q 1234 3975 1013 3538 
Q 894 3303 881 2888 
L 309 2888 
Q 319 3472 525 3841 
Q 891 4491 1816 4491 
Q 2584 4491 2939 4075 
Q 3294 3659 3294 3150 
Q 3294 2613 2916 2231 
Q 2697 2009 2131 1694 
L 1703 1456 
Q 1397 1288 1222 1134 
Q 909 863 828 531 
L 3272 531 
L 3272 0 
L 200 0 
z
" transform="scale(0.015625)"/>
       </defs>
       <use xlink:href="#Helvetica-2212"/>
       <use xlink:href="#Helvetica-32" x="58.398438"/>
       <use xlink:href="#Helvetica-30" x="114.013672"/>
       <use xlink:href="#Helvetica-30" x="169.628906"/>
      </g>
     </g>
    </g>
    <g id="xtick_3">
     <g id="line2d_3">
      <g>
       <use xlink:href="#mc4cfc06fe7" x="131.059509" y="261.701406" style="stroke: #000000; stroke-width: 0.8"/>
      </g>
     </g>
     <g id="text_3">
      <!-- 0 -->
      <g transform="translate(127.166853 278.744219) scale(0.14 -0.14)">
       <use xlink:href="#Helvetica-30"/>
      </g>
     </g>
    </g>
    <g id="xtick_4">
     <g id="line2d_4">
      <g>
       <use xlink:href="#mc4cfc06fe7" x="171.100514" y="261.701406" style="stroke: #000000; stroke-width: 0.8"/>
      </g>
     </g>
     <g id="text_4">
      <!-- 200 -->
      <g transform="translate(159.422545 278.744219) scale(0.14 -0.14)">
       <use xlink:href="#Helvetica-32"/>
       <use xlink:href="#Helvetica-30" x="55.615234"/>
       <use xlink:href="#Helvetica-30" x="111.230469"/>
      </g>
     </g>
    </g>
    <g id="xtick_5">
     <g id="line2d_5">
      <g>
       <use xlink:href="#mc4cfc06fe7" x="211.141518" y="261.701406" style="stroke: #000000; stroke-width: 0.8"/>
      </g>
     </g>
     <g id="text_5">
      <!-- 400 -->
      <g transform="translate(199.46355 278.744219) scale(0.14 -0.14)">
       <use xlink:href="#Helvetica-34"/>
       <use xlink:href="#Helvetica-30" x="55.615234"/>
       <use xlink:href="#Helvetica-30" x="111.230469"/>
      </g>
     </g>
    </g>
    <g id="xtick_6">
     <g id="line2d_6">
      <g>
       <use xlink:href="#mc4cfc06fe7" x="251.182523" y="261.701406" style="stroke: #000000; stroke-width: 0.8"/>
      </g>
     </g>
     <g id="text_6">
      <!-- 600 -->
      <g transform="translate(239.504554 278.744219) scale(0.14 -0.14)">
       <defs>
        <path id="Helvetica-36" d="M 1872 4494 
Q 2622 4494 2917 4105 
Q 3213 3716 3213 3303 
L 2656 3303 
Q 2606 3569 2497 3719 
Q 2294 4000 1881 4000 
Q 1409 4000 1131 3564 
Q 853 3128 822 2316 
Q 1016 2600 1309 2741 
Q 1578 2866 1909 2866 
Q 2472 2866 2890 2506 
Q 3309 2147 3309 1434 
Q 3309 825 2912 354 
Q 2516 -116 1781 -116 
Q 1153 -116 697 361 
Q 241 838 241 1966 
Q 241 2800 444 3381 
Q 834 4494 1872 4494 
z
M 1831 384 
Q 2275 384 2495 682 
Q 2716 981 2716 1388 
Q 2716 1731 2519 2042 
Q 2322 2353 1803 2353 
Q 1441 2353 1167 2112 
Q 894 1872 894 1388 
Q 894 963 1142 673 
Q 1391 384 1831 384 
z
" transform="scale(0.015625)"/>
       </defs>
       <use xlink:href="#Helvetica-36"/>
       <use xlink:href="#Helvetica-30" x="55.615234"/>
       <use xlink:href="#Helvetica-30" x="111.230469"/>
      </g>
     </g>
    </g>
    <g id="xtick_7">
     <g id="line2d_7">
      <g>
       <use xlink:href="#mc4cfc06fe7" x="291.223528" y="261.701406" style="stroke: #000000; stroke-width: 0.8"/>
      </g>
     </g>
     <g id="text_7">
      <!-- 800 -->
      <g transform="translate(279.545559 278.744219) scale(0.14 -0.14)">
       <defs>
        <path id="Helvetica-38" d="M 1741 2600 
Q 2113 2600 2322 2808 
Q 2531 3016 2531 3303 
Q 2531 3553 2331 3762 
Q 2131 3972 1722 3972 
Q 1316 3972 1134 3762 
Q 953 3553 953 3272 
Q 953 2956 1187 2778 
Q 1422 2600 1741 2600 
z
M 1775 384 
Q 2166 384 2423 595 
Q 2681 806 2681 1225 
Q 2681 1659 2415 1884 
Q 2150 2109 1734 2109 
Q 1331 2109 1076 1879 
Q 822 1650 822 1244 
Q 822 894 1055 639 
Q 1288 384 1775 384 
z
M 975 2384 
Q 741 2484 609 2619 
Q 363 2869 363 3269 
Q 363 3769 725 4128 
Q 1088 4488 1753 4488 
Q 2397 4488 2762 4148 
Q 3128 3809 3128 3356 
Q 3128 2938 2916 2678 
Q 2797 2531 2547 2391 
Q 2825 2263 2984 2097 
Q 3281 1784 3281 1284 
Q 3281 694 2884 283 
Q 2488 -128 1763 -128 
Q 1109 -128 657 226 
Q 206 581 206 1256 
Q 206 1653 400 1942 
Q 594 2231 975 2384 
z
" transform="scale(0.015625)"/>
       </defs>
       <use xlink:href="#Helvetica-38"/>
       <use xlink:href="#Helvetica-30" x="55.615234"/>
       <use xlink:href="#Helvetica-30" x="111.230469"/>
      </g>
     </g>
    </g>
    <g id="xtick_8">
     <g id="line2d_8">
      <g>
       <use xlink:href="#mc4cfc06fe7" x="331.264532" y="261.701406" style="stroke: #000000; stroke-width: 0.8"/>
      </g>
     </g>
     <g id="text_8">
      <!-- 1000 -->
      <g transform="translate(315.693907 278.744219) scale(0.14 -0.14)">
       <defs>
        <path id="Helvetica-31" d="M 613 3169 
L 613 3600 
Q 1222 3659 1462 3798 
Q 1703 3938 1822 4456 
L 2266 4456 
L 2266 0 
L 1666 0 
L 1666 3169 
L 613 3169 
z
" transform="scale(0.015625)"/>
       </defs>
       <use xlink:href="#Helvetica-31"/>
       <use xlink:href="#Helvetica-30" x="55.615234"/>
       <use xlink:href="#Helvetica-30" x="111.230469"/>
       <use xlink:href="#Helvetica-30" x="166.845703"/>
      </g>
     </g>
    </g>
    <g id="xtick_9">
     <g id="line2d_9">
      <g>
       <use xlink:href="#mc4cfc06fe7" x="371.305537" y="261.701406" style="stroke: #000000; stroke-width: 0.8"/>
      </g>
     </g>
     <g id="text_9">
      <!-- 1200 -->
      <g transform="translate(355.734912 278.744219) scale(0.14 -0.14)">
       <use xlink:href="#Helvetica-31"/>
       <use xlink:href="#Helvetica-32" x="55.615234"/>
       <use xlink:href="#Helvetica-30" x="111.230469"/>
       <use xlink:href="#Helvetica-30" x="166.845703"/>
      </g>
     </g>
    </g>
    <g id="xtick_10">
     <g id="line2d_10">
      <g>
       <use xlink:href="#mc4cfc06fe7" x="411.346542" y="261.701406" style="stroke: #000000; stroke-width: 0.8"/>
      </g>
     </g>
     <g id="text_10">
      <!-- 1400 -->
      <g transform="translate(395.775917 278.744219) scale(0.14 -0.14)">
       <use xlink:href="#Helvetica-31"/>
       <use xlink:href="#Helvetica-34" x="55.615234"/>
       <use xlink:href="#Helvetica-30" x="111.230469"/>
       <use xlink:href="#Helvetica-30" x="166.845703"/>
      </g>
     </g>
    </g>
    <g id="text_11">
     <!-- Time (ms) -->
     <g transform="translate(214.78625 295.807969) scale(0.14 -0.14)">
      <defs>
       <path id="Helvetica-54" d="M 3828 4591 
L 3828 4044 
L 2281 4044 
L 2281 0 
L 1650 0 
L 1650 4044 
L 103 4044 
L 103 4591 
L 3828 4591 
z
" transform="scale(0.015625)"/>
       <path id="Helvetica-69" d="M 413 3331 
L 984 3331 
L 984 0 
L 413 0 
L 413 3331 
z
M 413 4591 
L 984 4591 
L 984 3953 
L 413 3953 
L 413 4591 
z
" transform="scale(0.015625)"/>
       <path id="Helvetica-6d" d="M 413 3347 
L 969 3347 
L 969 2872 
Q 1169 3119 1331 3231 
Q 1609 3422 1963 3422 
Q 2363 3422 2606 3225 
Q 2744 3113 2856 2894 
Q 3044 3163 3297 3292 
Q 3550 3422 3866 3422 
Q 4541 3422 4784 2934 
Q 4916 2672 4916 2228 
L 4916 0 
L 4331 0 
L 4331 2325 
Q 4331 2659 4164 2784 
Q 3997 2909 3756 2909 
Q 3425 2909 3186 2687 
Q 2947 2466 2947 1947 
L 2947 0 
L 2375 0 
L 2375 2184 
Q 2375 2525 2294 2681 
Q 2166 2916 1816 2916 
Q 1497 2916 1236 2669 
Q 975 2422 975 1775 
L 975 0 
L 413 0 
L 413 3347 
z
" transform="scale(0.015625)"/>
       <path id="Helvetica-65" d="M 1806 3422 
Q 2163 3422 2497 3255 
Q 2831 3088 3006 2822 
Q 3175 2569 3231 2231 
Q 3281 2000 3281 1494 
L 828 1494 
Q 844 984 1069 676 
Q 1294 369 1766 369 
Q 2206 369 2469 659 
Q 2619 828 2681 1050 
L 3234 1050 
Q 3213 866 3089 639 
Q 2966 413 2813 269 
Q 2556 19 2178 -69 
Q 1975 -119 1719 -119 
Q 1094 -119 659 336 
Q 225 791 225 1609 
Q 225 2416 662 2919 
Q 1100 3422 1806 3422 
z
M 2703 1941 
Q 2669 2306 2544 2525 
Q 2313 2931 1772 2931 
Q 1384 2931 1121 2651 
Q 859 2372 844 1941 
L 2703 1941 
z
M 1753 3428 
L 1753 3428 
z
" transform="scale(0.015625)"/>
       <path id="Helvetica-20" transform="scale(0.015625)"/>
       <path id="Helvetica-28" d="M 1894 4666 
Q 1403 3713 1256 3263 
Q 1034 2578 1034 1681 
Q 1034 775 1288 25 
Q 1444 -438 1903 -1306 
L 1525 -1306 
Q 1069 -594 959 -397 
Q 850 -200 722 138 
Q 547 600 478 1125 
Q 444 1397 444 1644 
Q 444 2569 734 3291 
Q 919 3750 1503 4666 
L 1894 4666 
z
" transform="scale(0.015625)"/>
       <path id="Helvetica-73" d="M 747 1050 
Q 772 769 888 619 
Q 1100 347 1625 347 
Q 1938 347 2175 483 
Q 2413 619 2413 903 
Q 2413 1119 2222 1231 
Q 2100 1300 1741 1391 
L 1294 1503 
Q 866 1609 663 1741 
Q 300 1969 300 2372 
Q 300 2847 642 3140 
Q 984 3434 1563 3434 
Q 2319 3434 2653 2991 
Q 2863 2709 2856 2384 
L 2325 2384 
Q 2309 2575 2191 2731 
Q 1997 2953 1519 2953 
Q 1200 2953 1036 2831 
Q 872 2709 872 2509 
Q 872 2291 1088 2159 
Q 1213 2081 1456 2022 
L 1828 1931 
Q 2434 1784 2641 1647 
Q 2969 1431 2969 969 
Q 2969 522 2630 197 
Q 2291 -128 1597 -128 
Q 850 -128 539 211 
Q 228 550 206 1050 
L 747 1050 
z
M 1578 3428 
L 1578 3428 
z
" transform="scale(0.015625)"/>
       <path id="Helvetica-29" d="M 222 -1306 
Q 719 -338 863 106 
Q 1081 778 1081 1681 
Q 1081 2584 828 3334 
Q 672 3797 213 4666 
L 591 4666 
Q 1072 3897 1173 3717 
Q 1275 3538 1394 3222 
Q 1544 2831 1608 2450 
Q 1672 2069 1672 1716 
Q 1672 791 1378 66 
Q 1194 -400 613 -1306 
L 222 -1306 
z
" transform="scale(0.015625)"/>
      </defs>
      <use xlink:href="#Helvetica-54"/>
      <use xlink:href="#Helvetica-69" x="61.083984"/>
      <use xlink:href="#Helvetica-6d" x="83.300781"/>
      <use xlink:href="#Helvetica-65" x="166.601562"/>
      <use xlink:href="#Helvetica-20" x="222.216797"/>
      <use xlink:href="#Helvetica-28" x="250"/>
      <use xlink:href="#Helvetica-6d" x="283.300781"/>
      <use xlink:href="#Helvetica-73" x="366.601562"/>
      <use xlink:href="#Helvetica-29" x="416.601562"/>
     </g>
    </g>
   </g>
   <g id="matplotlib.axis_2">
    <g id="ytick_1">
     <g id="line2d_11">
      <defs>
       <path id="m33a7226161" d="M 0 0 
L -3.5 0 
" style="stroke: #000000; stroke-width: 0.8"/>
      </defs>
      <g>
       <use xlink:href="#m33a7226161" x="50.9775" y="245.069406" style="stroke: #000000; stroke-width: 0.8"/>
      </g>
     </g>
     <g id="text_12">
      <!-- 0.3 -->
      <g transform="translate(24.5175 250.090812) scale(0.14 -0.14)">
       <defs>
        <path id="Helvetica-2e" d="M 547 681 
L 1200 681 
L 1200 0 
L 547 0 
L 547 681 
z
" transform="scale(0.015625)"/>
        <path id="Helvetica-33" d="M 1663 -122 
Q 869 -122 511 314 
Q 153 750 153 1375 
L 741 1375 
Q 778 941 903 744 
Q 1122 391 1694 391 
Q 2138 391 2406 628 
Q 2675 866 2675 1241 
Q 2675 1703 2392 1887 
Q 2109 2072 1606 2072 
Q 1550 2072 1492 2070 
Q 1434 2069 1375 2066 
L 1375 2563 
Q 1463 2553 1522 2550 
Q 1581 2547 1650 2547 
Q 1966 2547 2169 2647 
Q 2525 2822 2525 3272 
Q 2525 3606 2287 3787 
Q 2050 3969 1734 3969 
Q 1172 3969 956 3594 
Q 838 3388 822 3006 
L 266 3006 
Q 266 3506 466 3856 
Q 809 4481 1675 4481 
Q 2359 4481 2734 4176 
Q 3109 3872 3109 3294 
Q 3109 2881 2888 2625 
Q 2750 2466 2531 2375 
Q 2884 2278 3082 2001 
Q 3281 1725 3281 1325 
Q 3281 684 2859 281 
Q 2438 -122 1663 -122 
z
" transform="scale(0.015625)"/>
       </defs>
       <use xlink:href="#Helvetica-30"/>
       <use xlink:href="#Helvetica-2e" x="55.615234"/>
       <use xlink:href="#Helvetica-33" x="83.398438"/>
      </g>
     </g>
    </g>
    <g id="ytick_2">
     <g id="line2d_12">
      <g>
       <use xlink:href="#m33a7226161" x="50.9775" y="211.805406" style="stroke: #000000; stroke-width: 0.8"/>
      </g>
     </g>
     <g id="text_13">
      <!-- 0.4 -->
      <g transform="translate(24.5175 216.826812) scale(0.14 -0.14)">
       <use xlink:href="#Helvetica-30"/>
       <use xlink:href="#Helvetica-2e" x="55.615234"/>
       <use xlink:href="#Helvetica-34" x="83.398438"/>
      </g>
     </g>
    </g>
    <g id="ytick_3">
     <g id="line2d_13">
      <g>
       <use xlink:href="#m33a7226161" x="50.9775" y="178.541406" style="stroke: #000000; stroke-width: 0.8"/>
      </g>
     </g>
     <g id="text_14">
      <!-- 0.5 -->
      <g transform="translate(24.5175 183.562812) scale(0.14 -0.14)">
       <defs>
        <path id="Helvetica-35" d="M 791 1141 
Q 847 659 1238 475 
Q 1438 381 1700 381 
Q 2200 381 2440 700 
Q 2681 1019 2681 1406 
Q 2681 1875 2395 2131 
Q 2109 2388 1709 2388 
Q 1419 2388 1211 2275 
Q 1003 2163 856 1963 
L 369 1991 
L 709 4400 
L 3034 4400 
L 3034 3856 
L 1131 3856 
L 941 2613 
Q 1097 2731 1238 2791 
Q 1488 2894 1816 2894 
Q 2431 2894 2859 2497 
Q 3288 2100 3288 1491 
Q 3288 856 2895 371 
Q 2503 -113 1644 -113 
Q 1097 -113 676 195 
Q 256 503 206 1141 
L 791 1141 
z
" transform="scale(0.015625)"/>
       </defs>
       <use xlink:href="#Helvetica-30"/>
       <use xlink:href="#Helvetica-2e" x="55.615234"/>
       <use xlink:href="#Helvetica-35" x="83.398438"/>
      </g>
     </g>
    </g>
    <g id="ytick_4">
     <g id="line2d_14">
      <g>
       <use xlink:href="#m33a7226161" x="50.9775" y="145.277406" style="stroke: #000000; stroke-width: 0.8"/>
      </g>
     </g>
     <g id="text_15">
      <!-- 0.6 -->
      <g transform="translate(24.5175 150.298812) scale(0.14 -0.14)">
       <use xlink:href="#Helvetica-30"/>
       <use xlink:href="#Helvetica-2e" x="55.615234"/>
       <use xlink:href="#Helvetica-36" x="83.398438"/>
      </g>
     </g>
    </g>
    <g id="ytick_5">
     <g id="line2d_15">
      <g>
       <use xlink:href="#m33a7226161" x="50.9775" y="112.013406" style="stroke: #000000; stroke-width: 0.8"/>
      </g>
     </g>
     <g id="text_16">
      <!-- 0.7 -->
      <g transform="translate(24.5175 117.034812) scale(0.14 -0.14)">
       <defs>
        <path id="Helvetica-37" d="M 3347 4400 
L 3347 3909 
Q 3131 3700 2773 3181 
Q 2416 2663 2141 2063 
Q 1869 1478 1728 997 
Q 1638 688 1494 0 
L 872 0 
Q 1084 1281 1809 2550 
Q 2238 3294 2709 3834 
L 234 3834 
L 234 4400 
L 3347 4400 
z
" transform="scale(0.015625)"/>
       </defs>
       <use xlink:href="#Helvetica-30"/>
       <use xlink:href="#Helvetica-2e" x="55.615234"/>
       <use xlink:href="#Helvetica-37" x="83.398438"/>
      </g>
     </g>
    </g>
    <g id="ytick_6">
     <g id="line2d_16">
      <g>
       <use xlink:href="#m33a7226161" x="50.9775" y="78.749406" style="stroke: #000000; stroke-width: 0.8"/>
      </g>
     </g>
     <g id="text_17">
      <!-- 0.8 -->
      <g transform="translate(24.5175 83.770812) scale(0.14 -0.14)">
       <use xlink:href="#Helvetica-30"/>
       <use xlink:href="#Helvetica-2e" x="55.615234"/>
       <use xlink:href="#Helvetica-38" x="83.398438"/>
      </g>
     </g>
    </g>
    <g id="ytick_7">
     <g id="line2d_17">
      <g>
       <use xlink:href="#m33a7226161" x="50.9775" y="45.485406" style="stroke: #000000; stroke-width: 0.8"/>
      </g>
     </g>
     <g id="text_18">
      <!-- 0.9 -->
      <g transform="translate(24.5175 50.506812) scale(0.14 -0.14)">
       <defs>
        <path id="Helvetica-39" d="M 850 1081 
Q 875 616 1209 438 
Q 1381 344 1597 344 
Q 2000 344 2284 680 
Q 2569 1016 2688 2044 
Q 2500 1747 2223 1626 
Q 1947 1506 1628 1506 
Q 981 1506 604 1909 
Q 228 2313 228 2947 
Q 228 3556 600 4018 
Q 972 4481 1697 4481 
Q 2675 4481 3047 3600 
Q 3253 3116 3253 2388 
Q 3253 1566 3006 931 
Q 2597 -125 1619 -125 
Q 963 -125 622 219 
Q 281 563 281 1081 
L 850 1081 
z
M 1703 2000 
Q 2038 2000 2314 2220 
Q 2591 2441 2591 2991 
Q 2591 3484 2342 3726 
Q 2094 3969 1709 3969 
Q 1297 3969 1055 3692 
Q 813 3416 813 2953 
Q 813 2516 1025 2258 
Q 1238 2000 1703 2000 
z
" transform="scale(0.015625)"/>
       </defs>
       <use xlink:href="#Helvetica-30"/>
       <use xlink:href="#Helvetica-2e" x="55.615234"/>
       <use xlink:href="#Helvetica-39" x="83.398438"/>
      </g>
     </g>
    </g>
    <g id="ytick_8">
     <g id="line2d_18">
      <g>
       <use xlink:href="#m33a7226161" x="50.9775" y="12.221406" style="stroke: #000000; stroke-width: 0.8"/>
      </g>
     </g>
     <g id="text_19">
      <!-- 1.0 -->
      <g transform="translate(24.5175 17.242812) scale(0.14 -0.14)">
       <use xlink:href="#Helvetica-31"/>
       <use xlink:href="#Helvetica-2e" x="55.615234"/>
       <use xlink:href="#Helvetica-30" x="83.398438"/>
      </g>
     </g>
    </g>
    <g id="text_20">
     <!-- Classification accuracy -->
     <g transform="translate(17.51625 208.151406) rotate(-90) scale(0.14 -0.14)">
      <defs>
       <path id="Helvetica-43" d="M 2422 4716 
Q 3294 4716 3775 4256 
Q 4256 3797 4309 3213 
L 3703 3213 
Q 3600 3656 3292 3915 
Q 2984 4175 2428 4175 
Q 1750 4175 1333 3698 
Q 916 3222 916 2238 
Q 916 1431 1292 929 
Q 1669 428 2416 428 
Q 3103 428 3463 956 
Q 3653 1234 3747 1688 
L 4353 1688 
Q 4272 963 3816 472 
Q 3269 -119 2341 -119 
Q 1541 -119 997 366 
Q 281 1006 281 2344 
Q 281 3359 819 4009 
Q 1400 4716 2422 4716 
z
M 2297 4716 
L 2297 4716 
z
" transform="scale(0.015625)"/>
       <path id="Helvetica-6c" d="M 428 4591 
L 991 4591 
L 991 0 
L 428 0 
L 428 4591 
z
" transform="scale(0.015625)"/>
       <path id="Helvetica-61" d="M 844 891 
Q 844 647 1022 506 
Q 1200 366 1444 366 
Q 1741 366 2019 503 
Q 2488 731 2488 1250 
L 2488 1703 
Q 2384 1638 2221 1594 
Q 2059 1550 1903 1531 
L 1563 1488 
Q 1256 1447 1103 1359 
Q 844 1213 844 891 
z
M 2206 2028 
Q 2400 2053 2466 2191 
Q 2503 2266 2503 2406 
Q 2503 2694 2298 2823 
Q 2094 2953 1713 2953 
Q 1272 2953 1088 2716 
Q 984 2584 953 2325 
L 428 2325 
Q 444 2944 830 3186 
Q 1216 3428 1725 3428 
Q 2316 3428 2684 3203 
Q 3050 2978 3050 2503 
L 3050 575 
Q 3050 488 3086 434 
Q 3122 381 3238 381 
Q 3275 381 3322 386 
Q 3369 391 3422 400 
L 3422 -16 
Q 3291 -53 3222 -62 
Q 3153 -72 3034 -72 
Q 2744 -72 2613 134 
Q 2544 244 2516 444 
Q 2344 219 2022 53 
Q 1700 -113 1313 -113 
Q 847 -113 551 170 
Q 256 453 256 878 
Q 256 1344 547 1600 
Q 838 1856 1309 1916 
L 2206 2028 
z
M 1741 3428 
L 1741 3428 
z
" transform="scale(0.015625)"/>
       <path id="Helvetica-66" d="M 553 3856 
Q 566 4206 675 4369 
Q 872 4656 1434 4656 
Q 1488 4656 1544 4653 
Q 1600 4650 1672 4644 
L 1672 4131 
Q 1584 4138 1545 4139 
Q 1506 4141 1472 4141 
Q 1216 4141 1166 4008 
Q 1116 3875 1116 3331 
L 1672 3331 
L 1672 2888 
L 1109 2888 
L 1109 0 
L 553 0 
L 553 2888 
L 88 2888 
L 88 3331 
L 553 3331 
L 553 3856 
z
" transform="scale(0.015625)"/>
       <path id="Helvetica-63" d="M 1703 3444 
Q 2269 3444 2623 3169 
Q 2978 2894 3050 2222 
L 2503 2222 
Q 2453 2531 2275 2736 
Q 2097 2941 1703 2941 
Q 1166 2941 934 2416 
Q 784 2075 784 1575 
Q 784 1072 996 728 
Q 1209 384 1666 384 
Q 2016 384 2220 598 
Q 2425 813 2503 1184 
L 3050 1184 
Q 2956 519 2581 211 
Q 2206 -97 1622 -97 
Q 966 -97 575 383 
Q 184 863 184 1581 
Q 184 2463 612 2953 
Q 1041 3444 1703 3444 
z
M 1616 3428 
L 1616 3428 
z
" transform="scale(0.015625)"/>
       <path id="Helvetica-74" d="M 525 4281 
L 1094 4281 
L 1094 3347 
L 1628 3347 
L 1628 2888 
L 1094 2888 
L 1094 703 
Q 1094 528 1213 469 
Q 1278 434 1431 434 
Q 1472 434 1519 436 
Q 1566 438 1628 444 
L 1628 0 
Q 1531 -28 1426 -40 
Q 1322 -53 1200 -53 
Q 806 -53 665 148 
Q 525 350 525 672 
L 525 2888 
L 72 2888 
L 72 3347 
L 525 3347 
L 525 4281 
z
" transform="scale(0.015625)"/>
       <path id="Helvetica-6f" d="M 1741 363 
Q 2300 363 2508 786 
Q 2716 1209 2716 1728 
Q 2716 2197 2566 2491 
Q 2328 2953 1747 2953 
Q 1231 2953 997 2559 
Q 763 2166 763 1609 
Q 763 1075 997 719 
Q 1231 363 1741 363 
z
M 1763 3444 
Q 2409 3444 2856 3012 
Q 3303 2581 3303 1744 
Q 3303 934 2909 406 
Q 2516 -122 1688 -122 
Q 997 -122 590 345 
Q 184 813 184 1600 
Q 184 2444 612 2944 
Q 1041 3444 1763 3444 
z
M 1744 3428 
L 1744 3428 
z
" transform="scale(0.015625)"/>
       <path id="Helvetica-6e" d="M 413 3347 
L 947 3347 
L 947 2872 
Q 1184 3166 1450 3294 
Q 1716 3422 2041 3422 
Q 2753 3422 3003 2925 
Q 3141 2653 3141 2147 
L 3141 0 
L 2569 0 
L 2569 2109 
Q 2569 2416 2478 2603 
Q 2328 2916 1934 2916 
Q 1734 2916 1606 2875 
Q 1375 2806 1200 2600 
Q 1059 2434 1017 2257 
Q 975 2081 975 1753 
L 975 0 
L 413 0 
L 413 3347 
z
M 1734 3428 
L 1734 3428 
z
" transform="scale(0.015625)"/>
       <path id="Helvetica-75" d="M 975 3347 
L 975 1125 
Q 975 869 1056 706 
Q 1206 406 1616 406 
Q 2203 406 2416 931 
Q 2531 1213 2531 1703 
L 2531 3347 
L 3094 3347 
L 3094 0 
L 2563 0 
L 2569 494 
Q 2459 303 2297 172 
Q 1975 -91 1516 -91 
Q 800 -91 541 388 
Q 400 644 400 1072 
L 400 3347 
L 975 3347 
z
M 1747 3428 
L 1747 3428 
z
" transform="scale(0.015625)"/>
       <path id="Helvetica-72" d="M 428 3347 
L 963 3347 
L 963 2769 
Q 1028 2938 1284 3180 
Q 1541 3422 1875 3422 
Q 1891 3422 1928 3419 
Q 1966 3416 2056 3406 
L 2056 2813 
Q 2006 2822 1964 2825 
Q 1922 2828 1872 2828 
Q 1447 2828 1219 2554 
Q 991 2281 991 1925 
L 991 0 
L 428 0 
L 428 3347 
z
" transform="scale(0.015625)"/>
       <path id="Helvetica-79" d="M 2503 3347 
L 3125 3347 
Q 3006 3025 2597 1878 
Q 2291 1016 2084 472 
Q 1597 -809 1397 -1090 
Q 1197 -1372 709 -1372 
Q 591 -1372 527 -1362 
Q 463 -1353 369 -1328 
L 369 -816 
Q 516 -856 581 -865 
Q 647 -875 697 -875 
Q 853 -875 926 -823 
Q 1000 -772 1050 -697 
Q 1066 -672 1162 -440 
Q 1259 -209 1303 -97 
L 66 3347 
L 703 3347 
L 1600 622 
L 2503 3347 
z
M 1597 3428 
L 1597 3428 
z
" transform="scale(0.015625)"/>
      </defs>
      <use xlink:href="#Helvetica-43"/>
      <use xlink:href="#Helvetica-6c" x="72.216797"/>
      <use xlink:href="#Helvetica-61" x="94.433594"/>
      <use xlink:href="#Helvetica-73" x="150.048828"/>
      <use xlink:href="#Helvetica-73" x="200.048828"/>
      <use xlink:href="#Helvetica-69" x="250.048828"/>
      <use xlink:href="#Helvetica-66" x="272.265625"/>
      <use xlink:href="#Helvetica-69" x="300.048828"/>
      <use xlink:href="#Helvetica-63" x="322.265625"/>
      <use xlink:href="#Helvetica-61" x="372.265625"/>
      <use xlink:href="#Helvetica-74" x="427.880859"/>
      <use xlink:href="#Helvetica-69" x="455.664062"/>
      <use xlink:href="#Helvetica-6f" x="477.880859"/>
      <use xlink:href="#Helvetica-6e" x="533.496094"/>
      <use xlink:href="#Helvetica-20" x="589.111328"/>
      <use xlink:href="#Helvetica-61" x="616.894531"/>
      <use xlink:href="#Helvetica-63" x="672.509766"/>
      <use xlink:href="#Helvetica-63" x="722.509766"/>
      <use xlink:href="#Helvetica-75" x="772.509766"/>
      <use xlink:href="#Helvetica-72" x="828.125"/>
      <use xlink:href="#Helvetica-61" x="861.425781"/>
      <use xlink:href="#Helvetica-63" x="917.041016"/>
      <use xlink:href="#Helvetica-79" x="967.041016"/>
     </g>
    </g>
   </g>
   <g id="line2d_19">
    <path d="M 50.9775 178.541406 
L 55.782421 178.541406 
L 60.587341 178.541406 
L 65.392262 178.541406 
L 70.197182 178.541406 
L 75.002103 178.541406 
L 79.807023 178.541406 
L 84.611944 178.541406 
L 89.416864 178.541406 
L 94.221785 178.541406 
L 99.026706 178.541406 
L 103.831626 178.541406 
L 108.636547 178.541406 
L 113.441467 178.541406 
L 118.246388 178.541406 
L 123.051308 178.541406 
L 127.856229 178.541406 
L 132.661149 178.541406 
L 137.46607 178.541406 
L 142.270991 178.541406 
L 147.075911 178.541406 
L 151.880832 178.541406 
L 156.685752 178.541406 
L 161.490673 178.541406 
L 166.295593 178.541406 
L 171.100514 178.541406 
L 175.905434 178.541406 
L 180.710355 178.541406 
L 185.515275 178.541406 
L 190.320196 178.541406 
L 195.125117 178.541406 
L 199.930037 178.541406 
L 204.734958 178.541406 
L 209.539878 178.541406 
L 214.344799 178.541406 
L 219.149719 178.541406 
L 223.95464 178.541406 
L 228.75956 178.541406 
L 233.564481 178.541406 
L 238.369402 178.541406 
L 243.174322 178.541406 
L 247.979243 178.541406 
L 252.784163 178.541406 
L 257.589084 178.541406 
L 262.394004 178.541406 
L 267.198925 178.541406 
L 272.003845 178.541406 
L 276.808766 178.541406 
L 281.613687 178.541406 
L 286.418607 178.541406 
L 291.223528 178.541406 
L 296.028448 178.541406 
L 300.833369 178.541406 
L 305.638289 178.541406 
L 310.44321 178.541406 
L 315.24813 178.541406 
L 320.053051 178.541406 
L 324.857972 178.541406 
L 329.662892 178.541406 
L 334.467813 178.541406 
L 339.272733 178.541406 
L 344.077654 178.541406 
L 348.882574 178.541406 
L 353.687495 178.541406 
L 358.492415 178.541406 
L 363.297336 178.541406 
L 368.102257 178.541406 
L 372.907177 178.541406 
L 377.712098 178.541406 
L 382.517018 178.541406 
L 387.321939 178.541406 
L 392.126859 178.541406 
L 396.93178 178.541406 
L 401.7367 178.541406 
L 406.541621 178.541406 
L 411.346542 178.541406 
L 416.151462 178.541406 
L 420.956383 178.541406 
L 425.761303 178.541406 
L 430.566224 178.541406 
" clip-path="url(#p6e3f34bc58)" style="fill: none; stroke-dasharray: 5.55,2.4; stroke-dashoffset: 0; stroke: #808080; stroke-width: 1.5"/>
   </g>
   <g id="line2d_20">
    <path d="M 50.9775 178.541406 
L 55.782421 178.541406 
L 60.587341 178.541406 
L 65.392262 178.541406 
L 70.197182 178.541406 
L 75.002103 178.541406 
L 79.807023 178.541406 
L 84.611944 178.541406 
L 89.416864 178.541406 
L 94.221785 178.541406 
L 99.026706 178.541406 
L 103.831626 178.541406 
L 108.636547 178.541406 
L 113.441467 178.541406 
L 118.246388 178.541406 
L 123.051308 178.541406 
L 127.856229 178.541406 
L 132.661149 178.541406 
L 137.46607 178.541406 
L 142.270991 178.541406 
L 147.075911 178.541406 
L 151.880832 178.541406 
L 156.685752 178.541406 
L 161.490673 178.541406 
L 166.295593 178.541406 
L 171.100514 178.541406 
L 175.905434 178.541406 
L 180.710355 178.541406 
L 185.515275 178.541406 
L 190.320196 178.541406 
L 195.125117 178.541406 
L 199.930037 178.541406 
L 204.734958 178.541406 
L 209.539878 178.541406 
L 214.344799 178.541406 
L 219.149719 178.541406 
L 223.95464 178.541406 
L 228.75956 178.541406 
L 233.564481 178.541406 
L 238.369402 178.541406 
L 243.174322 178.541406 
L 247.979243 178.541406 
L 252.784163 178.541406 
L 257.589084 178.541406 
L 262.394004 178.541406 
L 267.198925 178.541406 
L 272.003845 178.541406 
L 276.808766 178.541406 
L 281.613687 178.541406 
L 286.418607 178.541406 
L 291.223528 178.541406 
L 296.028448 178.541406 
L 300.833369 178.541406 
L 305.638289 178.541406 
L 310.44321 178.541406 
L 315.24813 178.541406 
L 320.053051 178.541406 
L 324.857972 178.541406 
L 329.662892 178.541406 
L 334.467813 178.541406 
L 339.272733 178.541406 
L 344.077654 178.541406 
L 348.882574 178.541406 
L 353.687495 178.541406 
L 358.492415 178.541406 
L 363.297336 178.541406 
L 368.102257 178.541406 
L 372.907177 178.541406 
L 377.712098 178.541406 
L 382.517018 178.541406 
L 387.321939 178.541406 
L 392.126859 178.541406 
L 396.93178 178.541406 
L 401.7367 178.541406 
L 406.541621 178.541406 
L 411.346542 178.541406 
L 416.151462 178.541406 
L 420.956383 178.541406 
L 425.761303 178.541406 
L 430.566224 178.541406 
" clip-path="url(#p6e3f34bc58)" style="fill: none; stroke-dasharray: 5.55,2.4; stroke-dashoffset: 0; stroke: #808080; stroke-width: 1.5"/>
   </g>
   <g id="line2d_21">
    <path d="M 50.9775 178.746534 
L 55.782421 178.887906 
L 60.587341 179.036208 
L 65.392262 178.993519 
L 70.197182 178.220409 
L 75.002103 178.518953 
L 79.807023 178.818883 
L 84.611944 179.157067 
L 89.416864 177.865315 
L 94.221785 179.405161 
L 99.026706 179.02512 
L 103.831626 179.917981 
L 108.636547 178.599341 
L 113.441467 177.911331 
L 118.246388 179.839534 
L 123.051308 180.117288 
L 127.856229 179.85672 
L 132.661149 179.587282 
L 137.46607 179.585896 
L 142.270991 180.551661 
L 147.075911 180.317149 
L 151.880832 179.914932 
L 156.685752 179.252701 
L 161.490673 178.036071 
L 166.295593 178.037457 
L 171.100514 178.670027 
L 175.905434 179.405161 
L 180.710355 178.716319 
L 185.515275 179.076957 
L 190.320196 178.272799 
L 195.125117 177.947921 
L 199.930037 178.26781 
L 204.734958 178.915349 
L 209.539878 180.104814 
L 214.344799 179.290401 
L 219.149719 179.692618 
L 223.95464 179.268779 
L 228.75956 178.858246 
L 233.564481 179.182293 
L 238.369402 178.937802 
L 243.174322 178.971898 
L 247.979243 178.794213 
L 252.784163 178.978828 
L 257.589084 178.339327 
L 262.394004 178.507033 
L 267.198925 178.341545 
L 272.003845 178.407796 
L 276.808766 177.431775 
L 281.613687 177.677928 
L 286.418607 177.118261 
L 291.223528 177.578413 
L 296.028448 177.055337 
L 300.833369 176.861851 
L 305.638289 177.478067 
L 310.44321 176.935309 
L 315.24813 177.892758 
L 320.053051 178.196847 
L 324.857972 178.875155 
L 329.662892 178.443832 
L 334.467813 178.604885 
L 339.272733 178.704123 
L 344.077654 178.368988 
L 348.882574 178.160533 
L 353.687495 178.208212 
L 358.492415 177.854505 
L 363.297336 176.95804 
L 368.102257 177.023736 
L 372.907177 178.095114 
L 377.712098 178.323527 
L 382.517018 178.383957 
L 387.321939 177.863375 
L 392.126859 177.538219 
L 396.93178 177.955683 
L 401.7367 178.149445 
L 406.541621 178.340436 
L 411.346542 178.317983 
L 416.151462 178.123666 
L 420.956383 178.204331 
L 425.761303 178.636486 
L 430.566224 178.392273 
" clip-path="url(#p6e3f34bc58)" style="fill: none; stroke: #808080; stroke-width: 1.5; stroke-linecap: square"/>
   </g>
   <g id="line2d_22">
    <path d="M 50.9775 174.309117 
L 55.782421 172.107594 
L 60.587341 174.86712 
L 65.392262 187.014579 
L 70.197182 171.010991 
L 75.002103 180.309665 
L 79.807023 182.731839 
L 84.611944 182.914236 
L 89.416864 170.200181 
L 94.221785 176.332122 
L 99.026706 166.895403 
L 103.831626 167.640793 
L 108.636547 161.341423 
L 113.441467 163.535184 
L 118.246388 186.801135 
L 123.051308 184.494276 
L 127.856229 186.931973 
L 132.661149 183.572863 
L 137.46607 195.290939 
L 142.270991 186.654496 
L 147.075911 194.512007 
L 151.880832 181.974528 
L 156.685752 184.905918 
L 161.490673 168.159435 
L 166.295593 153.613365 
L 171.100514 150.616278 
L 175.905434 153.22972 
L 180.710355 137.447338 
L 185.515275 140.465214 
L 190.320196 141.410189 
L 195.125117 153.040392 
L 199.930037 147.913855 
L 204.734958 138.322181 
L 209.539878 137.757525 
L 214.344799 131.443463 
L 219.149719 133.411306 
L 223.95464 136.263971 
L 228.75956 142.489051 
L 233.564481 139.509429 
L 238.369402 136.469653 
L 243.174322 142.355441 
L 247.979243 143.024879 
L 252.784163 141.175401 
L 257.589084 142.853292 
L 262.394004 137.849555 
L 267.198925 127.815747 
L 272.003845 118.466622 
L 276.808766 111.18042 
L 281.613687 107.264139 
L 286.418607 104.989158 
L 291.223528 110.909596 
L 296.028448 99.950494 
L 300.833369 98.09658 
L 305.638289 98.703371 
L 310.44321 105.926649 
L 315.24813 110.681183 
L 320.053051 117.258307 
L 324.857972 124.871051 
L 329.662892 121.731484 
L 334.467813 128.777631 
L 339.272733 130.156423 
L 344.077654 139.559879 
L 348.882574 141.117189 
L 353.687495 128.751297 
L 358.492415 139.465631 
L 363.297336 138.128973 
L 368.102257 135.853992 
L 372.907177 135.491137 
L 377.712098 140.3122 
L 382.517018 137.585661 
L 387.321939 136.979701 
L 392.126859 144.974427 
L 396.93178 140.821971 
L 401.7367 138.923982 
L 406.541621 141.741166 
L 411.346542 140.360987 
L 416.151462 138.58663 
L 420.956383 139.617537 
L 425.761303 138.390927 
L 430.566224 140.640405 
" clip-path="url(#p6e3f34bc58)" style="fill: none; stroke: #fdbe85; stroke-width: 2; stroke-linecap: square"/>
   </g>
   <g id="line2d_23">
    <path d="M 50.9775 178.734615 
L 55.782421 179.204191 
L 60.587341 177.884997 
L 65.392262 177.83122 
L 70.197182 179.220823 
L 75.002103 179.353325 
L 79.807023 179.269333 
L 84.611944 179.119091 
L 89.416864 178.181601 
L 94.221785 179.132674 
L 99.026706 179.100796 
L 103.831626 179.20336 
L 108.636547 178.527546 
L 113.441467 179.314517 
L 118.246388 178.755959 
L 123.051308 180.026921 
L 127.856229 179.597261 
L 132.661149 179.591163 
L 137.46607 179.747503 
L 142.270991 178.88652 
L 147.075911 178.952771 
L 151.880832 179.703706 
L 156.685752 180.005022 
L 161.490673 179.061711 
L 166.295593 178.797262 
L 171.100514 178.707449 
L 175.905434 178.733506 
L 180.710355 179.791024 
L 185.515275 178.506202 
L 190.320196 178.696915 
L 195.125117 178.233991 
L 199.930037 179.135723 
L 204.734958 179.352493 
L 209.539878 178.638426 
L 214.344799 178.976887 
L 219.149719 179.997815 
L 223.95464 180.044385 
L 228.75956 179.435376 
L 233.564481 180.020268 
L 238.369402 179.156236 
L 243.174322 178.980214 
L 247.979243 179.429278 
L 252.784163 179.270997 
L 257.589084 179.198093 
L 262.394004 179.033159 
L 267.198925 179.480005 
L 272.003845 178.037457 
L 276.808766 177.692897 
L 281.613687 178.347643 
L 286.418607 178.223181 
L 291.223528 178.304123 
L 296.028448 178.695807 
L 300.833369 178.899271 
L 305.638289 178.534476 
L 310.44321 178.318537 
L 315.24813 178.784788 
L 320.053051 179.300934 
L 324.857972 179.213616 
L 329.662892 179.26573 
L 334.467813 179.042029 
L 339.272733 178.830803 
L 344.077654 178.744871 
L 348.882574 179.279313 
L 353.687495 179.756097 
L 358.492415 178.241476 
L 363.297336 178.93503 
L 368.102257 178.40835 
L 372.907177 178.537525 
L 377.712098 179.076125 
L 382.517018 178.826922 
L 387.321939 179.252147 
L 392.126859 179.214448 
L 396.93178 178.884025 
L 401.7367 179.723941 
L 406.541621 179.307033 
L 411.346542 179.731426 
L 416.151462 179.048405 
L 420.956383 179.788529 
L 425.761303 179.128239 
L 430.566224 179.295945 
" clip-path="url(#p6e3f34bc58)" style="fill: none; stroke: #808080; stroke-width: 1.5; stroke-linecap: square"/>
   </g>
   <g id="line2d_24">
    <path d="M 50.9775 178.840505 
L 55.782421 169.03206 
L 60.587341 176.225677 
L 65.392262 177.899411 
L 70.197182 175.020689 
L 75.002103 195.687058 
L 79.807023 186.58575 
L 84.611944 186.657268 
L 89.416864 177.168712 
L 94.221785 197.679571 
L 99.026706 183.783258 
L 103.831626 184.615413 
L 108.636547 173.190337 
L 113.441467 168.709954 
L 118.246388 178.433298 
L 123.051308 175.830113 
L 127.856229 185.609175 
L 132.661149 185.605848 
L 137.46607 187.9371 
L 142.270991 192.436611 
L 147.075911 187.008757 
L 151.880832 184.963853 
L 156.685752 190.528089 
L 161.490673 176.994353 
L 166.295593 174.44245 
L 171.100514 172.844115 
L 175.905434 162.719662 
L 180.710355 161.267965 
L 185.515275 142.101526 
L 190.320196 145.800483 
L 195.125117 151.093894 
L 199.930037 144.741856 
L 204.734958 141.131603 
L 209.539878 144.149757 
L 214.344799 150.640949 
L 219.149719 153.78412 
L 223.95464 151.438453 
L 228.75956 148.604083 
L 233.564481 161.017654 
L 238.369402 147.53326 
L 243.174322 144.604642 
L 247.979243 151.878924 
L 252.784163 155.466169 
L 257.589084 144.759319 
L 262.394004 140.797854 
L 267.198925 143.722314 
L 272.003845 119.91028 
L 276.808766 99.846821 
L 281.613687 96.994433 
L 286.418607 109.545217 
L 291.223528 120.983598 
L 296.028448 116.88187 
L 300.833369 118.831695 
L 305.638289 121.991775 
L 310.44321 116.889354 
L 315.24813 118.223795 
L 320.053051 127.8382 
L 324.857972 132.70999 
L 329.662892 129.880332 
L 334.467813 129.08061 
L 339.272733 138.99051 
L 344.077654 134.845261 
L 348.882574 133.353371 
L 353.687495 141.358907 
L 358.492415 150.505953 
L 363.297336 143.895841 
L 368.102257 134.326343 
L 372.907177 147.497778 
L 377.712098 146.586067 
L 382.517018 139.493351 
L 387.321939 137.99758 
L 392.126859 143.468953 
L 396.93178 158.356811 
L 401.7367 150.796458 
L 406.541621 144.355993 
L 411.346542 146.794522 
L 416.151462 147.665484 
L 420.956383 150.385925 
L 425.761303 148.531457 
L 430.566224 152.619325 
" clip-path="url(#p6e3f34bc58)" style="fill: none; stroke: #d94701; stroke-width: 2; stroke-linecap: square"/>
   </g>
   <g id="patch_3">
    <path d="M 50.9775 261.701406 
L 50.9775 12.221406 
" style="fill: none; stroke: #000000; stroke-width: 0.8; stroke-linejoin: miter; stroke-linecap: square"/>
   </g>
   <g id="patch_4">
    <path d="M 50.9775 261.701406 
L 441.5775 261.701406 
" style="fill: none; stroke: #000000; stroke-width: 0.8; stroke-linejoin: miter; stroke-linecap: square"/>
   </g>
   <g id="legend_1">
    <g id="line2d_25">
     <path d="M 359.307813 229.975 
L 370.307813 229.975 
L 381.307813 229.975 
" style="fill: none; stroke: #fdbe85; stroke-width: 2; stroke-linecap: square"/>
    </g>
    <g id="text_21">
     <!-- Same -->
     <g transform="translate(390.107813 233.825) scale(0.11 -0.11)">
      <defs>
       <path id="Helvetica-53" d="M 894 1481 
Q 916 1091 1078 847 
Q 1388 391 2169 391 
Q 2519 391 2806 491 
Q 3363 684 3363 1184 
Q 3363 1559 3128 1719 
Q 2891 1875 2384 1991 
L 1763 2131 
Q 1153 2269 900 2434 
Q 463 2722 463 3294 
Q 463 3913 891 4309 
Q 1319 4706 2103 4706 
Q 2825 4706 3329 4357 
Q 3834 4009 3834 3244 
L 3250 3244 
Q 3203 3613 3050 3809 
Q 2766 4169 2084 4169 
Q 1534 4169 1293 3937 
Q 1053 3706 1053 3400 
Q 1053 3063 1334 2906 
Q 1519 2806 2169 2656 
L 2813 2509 
Q 3278 2403 3531 2219 
Q 3969 1897 3969 1284 
Q 3969 522 3414 194 
Q 2859 -134 2125 -134 
Q 1269 -134 784 303 
Q 300 738 309 1481 
L 894 1481 
z
M 2150 4716 
L 2150 4716 
z
" transform="scale(0.015625)"/>
      </defs>
      <use xlink:href="#Helvetica-53"/>
      <use xlink:href="#Helvetica-61" x="66.699219"/>
      <use xlink:href="#Helvetica-6d" x="122.314453"/>
      <use xlink:href="#Helvetica-65" x="205.615234"/>
     </g>
    </g>
    <g id="line2d_26">
     <path d="M 359.307813 245.658594 
L 370.307813 245.658594 
L 381.307813 245.658594 
" style="fill: none; stroke: #d94701; stroke-width: 2; stroke-linecap: square"/>
    </g>
    <g id="text_22">
     <!-- Different -->
     <g transform="translate(390.107813 249.508594) scale(0.11 -0.11)">
      <defs>
       <path id="Helvetica-44" d="M 2250 531 
Q 2566 531 2769 597 
Q 3131 719 3363 1066 
Q 3547 1344 3628 1778 
Q 3675 2038 3675 2259 
Q 3675 3113 3336 3584 
Q 2997 4056 2244 4056 
L 1141 4056 
L 1141 531 
L 2250 531 
z
M 516 4591 
L 2375 4591 
Q 3322 4591 3844 3919 
Q 4309 3313 4309 2366 
Q 4309 1634 4034 1044 
Q 3550 0 2369 0 
L 516 0 
L 516 4591 
z
" transform="scale(0.015625)"/>
      </defs>
      <use xlink:href="#Helvetica-44"/>
      <use xlink:href="#Helvetica-69" x="72.216797"/>
      <use xlink:href="#Helvetica-66" x="94.433594"/>
      <use xlink:href="#Helvetica-66" x="122.216797"/>
      <use xlink:href="#Helvetica-65" x="150"/>
      <use xlink:href="#Helvetica-72" x="205.615234"/>
      <use xlink:href="#Helvetica-65" x="238.916016"/>
      <use xlink:href="#Helvetica-6e" x="294.53125"/>
      <use xlink:href="#Helvetica-74" x="350.146484"/>
     </g>
    </g>
   </g>
  </g>
 </g>
 <defs>
  <clipPath id="p6e3f34bc58">
   <rect x="50.9775" y="12.221406" width="390.6" height="249.48"/>
  </clipPath>
 </defs>
</svg>
