<?xml version="1.0" encoding="utf-8" standalone="no"?>
<!DOCTYPE svg PUBLIC "-//W3C//DTD SVG 1.1//EN"
  "http://www.w3.org/Graphics/SVG/1.1/DTD/svg11.dtd">
<svg xmlns:xlink="http://www.w3.org/1999/xlink" width="429.208125pt" height="300.904687pt" viewBox="0 0 429.208125 300.904687" xmlns="http://www.w3.org/2000/svg" version="1.1">
 <metadata>
  <rdf:RDF xmlns:dc="http://purl.org/dc/elements/1.1/" xmlns:cc="http://creativecommons.org/ns#" xmlns:rdf="http://www.w3.org/1999/02/22-rdf-syntax-ns#">
   <cc:Work>
    <dc:type rdf:resource="http://purl.org/dc/dcmitype/StillImage"/>
    <dc:date>2023-07-20T12:31:48.648609</dc:date>
    <dc:format>image/svg+xml</dc:format>
    <dc:creator>
     <cc:Agent>
      <dc:title>Matplotlib v3.7.1, https://matplotlib.org/</dc:title>
     </cc:Agent>
    </dc:creator>
   </cc:Work>
  </rdf:RDF>
 </metadata>
 <defs>
  <style type="text/css">*{stroke-linejoin: round; stroke-linecap: butt}</style>
 </defs>
 <g id="figure_1">
  <g id="patch_1">
   <path d="M 0 300.904687 
L 429.208125 300.904687 
L 429.208125 0 
L 0 0 
z
" style="fill: #ffffff"/>
  </g>
  <g id="axes_1">
   <g id="patch_2">
    <path d="M 31.408125 256.68 
L 422.008125 256.68 
L 422.008125 7.2 
L 31.408125 7.2 
z
" style="fill: #ffffff"/>
   </g>
   <g id="PolyCollection_1">
    <defs>
     <path id="m05045c98f2" d="M 31.408125 -157.093263 
L 31.408125 -179.61999 
L 36.213046 -199.19416 
L 41.017966 -184.12756 
L 45.822887 -187.05197 
L 50.627807 -196.653348 
L 55.432728 -162.328548 
L 60.237648 -172.344029 
L 65.042569 -181.458398 
L 69.847489 -180.140939 
L 74.65241 -159.103655 
L 79.457331 -182.778874 
L 84.262251 -179.951838 
L 89.067172 -188.499393 
L 93.872092 -181.352717 
L 98.677013 -182.685524 
L 103.481933 -177.9747 
L 108.286854 -174.978268 
L 113.091774 -162.761935 
L 117.896695 -172.28888 
L 122.701616 -174.608005 
L 127.506536 -175.369764 
L 132.311457 -180.881741 
L 137.116377 -180.676635 
L 141.921298 -179.484934 
L 146.726218 -175.248795 
L 151.531139 -187.628795 
L 156.336059 -204.885187 
L 161.14098 -222.763538 
L 165.9459 -230.857203 
L 170.750821 -224.230471 
L 175.555742 -218.863924 
L 180.360662 -218.051156 
L 185.165583 -232.7478 
L 189.970503 -239.167335 
L 194.775424 -226.17757 
L 199.580344 -232.94322 
L 204.385265 -232.917308 
L 209.190185 -229.209423 
L 213.995106 -233.610362 
L 218.800027 -227.884004 
L 223.604947 -220.134085 
L 228.409868 -210.428554 
L 233.214788 -210.893815 
L 238.019709 -225.106087 
L 242.824629 -227.980577 
L 247.62955 -225.529502 
L 252.43447 -261.510521 
L 257.239391 -272.960933 
L 262.044312 -274.901541 
L 266.849232 -267.457632 
L 271.654153 -264.606217 
L 276.459073 -258.326058 
L 281.263994 -261.270146 
L 286.068914 -255.631833 
L 290.873835 -251.981967 
L 295.678755 -237.273571 
L 300.483676 -240.505291 
L 305.288597 -248.28928 
L 310.093517 -242.695285 
L 314.898438 -242.061691 
L 319.703358 -248.137456 
L 324.508279 -249.863537 
L 329.313199 -246.595196 
L 334.11812 -235.180487 
L 338.92304 -222.221971 
L 343.727961 -233.547724 
L 348.532882 -245.115551 
L 353.337802 -234.165273 
L 358.142723 -234.906863 
L 362.947643 -241.718175 
L 367.752564 -238.926978 
L 372.557484 -226.460788 
L 377.362405 -219.590099 
L 382.167325 -226.569137 
L 386.972246 -229.513216 
L 391.777167 -230.772501 
L 396.582087 -233.425924 
L 401.387008 -220.716876 
L 406.191928 -210.836426 
L 410.996849 -212.243096 
L 410.996849 -186.902965 
L 410.996849 -186.902965 
L 406.191928 -187.890651 
L 401.387008 -193.341968 
L 396.582087 -204.785061 
L 391.777167 -202.828703 
L 386.972246 -204.138798 
L 382.167325 -199.4148 
L 377.362405 -189.688717 
L 372.557484 -190.781566 
L 367.752564 -209.473127 
L 362.947643 -214.641223 
L 358.142723 -203.540531 
L 353.337802 -204.035127 
L 348.532882 -216.931538 
L 343.727961 -205.11955 
L 338.92304 -198.80138 
L 334.11812 -212.455075 
L 329.313199 -219.116011 
L 324.508279 -218.896471 
L 319.703358 -219.301575 
L 314.898438 -214.622461 
L 310.093517 -214.569052 
L 305.288597 -217.334208 
L 300.483676 -217.124136 
L 295.678755 -214.219044 
L 290.873835 -223.52961 
L 286.068914 -223.305629 
L 281.263994 -224.356903 
L 276.459073 -219.978133 
L 271.654153 -224.852051 
L 266.849232 -232.269497 
L 262.044312 -240.876313 
L 257.239391 -242.339228 
L 252.43447 -231.163429 
L 247.62955 -203.270911 
L 242.824629 -205.870257 
L 238.019709 -195.694565 
L 233.214788 -186.813632 
L 228.409868 -185.860416 
L 223.604947 -193.195212 
L 218.800027 -197.930362 
L 213.995106 -198.036599 
L 209.190185 -194.253036 
L 204.385265 -196.442682 
L 199.580344 -198.729779 
L 194.775424 -186.894413 
L 189.970503 -198.09261 
L 185.165583 -196.999817 
L 180.360662 -188.395078 
L 175.555742 -191.705473 
L 170.750821 -200.920806 
L 165.9459 -203.636005 
L 161.14098 -188.125302 
L 156.336059 -178.4043 
L 151.531139 -162.651042 
L 146.726218 -157.343846 
L 141.921298 -158.794214 
L 137.116377 -159.438031 
L 132.311457 -162.207372 
L 127.506536 -154.046682 
L 122.701616 -160.675178 
L 117.896695 -155.77696 
L 113.091774 -143.009109 
L 108.286854 -155.730716 
L 103.481933 -157.587853 
L 98.677013 -164.171753 
L 93.872092 -164.541008 
L 89.067172 -164.869134 
L 84.262251 -158.593288 
L 79.457331 -158.985785 
L 74.65241 -140.714518 
L 69.847489 -162.516366 
L 65.042569 -159.549351 
L 60.237648 -146.658648 
L 55.432728 -141.810929 
L 50.627807 -172.007254 
L 45.822887 -160.886949 
L 41.017966 -163.470138 
L 36.213046 -173.704824 
L 31.408125 -157.093263 
z
" style="stroke: #54278f; stroke-opacity: 0.3"/>
    </defs>
    <g clip-path="url(#p39902d1d59)">
     <use xlink:href="#m05045c98f2" x="0" y="300.904687" style="fill: #54278f; fill-opacity: 0.3; stroke: #54278f; stroke-opacity: 0.3"/>
    </g>
   </g>
   <g id="PolyCollection_2">
    <defs>
     <path id="m232bd518d9" d="M 31.408125 -162.317244 
L 31.408125 -183.632924 
L 36.213046 -177.35393 
L 41.017966 -184.013753 
L 45.822887 -172.074513 
L 50.627807 -185.48318 
L 55.432728 -173.44792 
L 60.237648 -177.884075 
L 65.042569 -174.436699 
L 69.847489 -184.346304 
L 74.65241 -169.561214 
L 79.457331 -206.203562 
L 84.262251 -186.490052 
L 89.067172 -180.596735 
L 93.872092 -182.923705 
L 98.677013 -178.262925 
L 103.481933 -184.198798 
L 108.286854 -164.726317 
L 113.091774 -164.43394 
L 117.896695 -179.150156 
L 122.701616 -195.88088 
L 127.506536 -169.852468 
L 132.311457 -174.697155 
L 137.116377 -187.009708 
L 141.921298 -186.856595 
L 146.726218 -197.780468 
L 151.531139 -202.365209 
L 156.336059 -219.66484 
L 161.14098 -235.479625 
L 165.9459 -230.838698 
L 170.750821 -224.044369 
L 175.555742 -229.653547 
L 180.360662 -235.079526 
L 185.165583 -243.743293 
L 189.970503 -236.16938 
L 194.775424 -235.912728 
L 199.580344 -250.794463 
L 204.385265 -240.765175 
L 209.190185 -245.609167 
L 213.995106 -253.340238 
L 218.800027 -249.072643 
L 223.604947 -233.704298 
L 228.409868 -220.493392 
L 233.214788 -197.750631 
L 238.019709 -208.162231 
L 242.824629 -218.091554 
L 247.62955 -198.688601 
L 252.43447 -207.023575 
L 257.239391 -228.908322 
L 262.044312 -241.06259 
L 266.849232 -256.975099 
L 271.654153 -259.30393 
L 276.459073 -255.485982 
L 281.263994 -238.555719 
L 286.068914 -215.654845 
L 290.873835 -247.457288 
L 295.678755 -246.292936 
L 300.483676 -237.867924 
L 305.288597 -226.115527 
L 310.093517 -215.91063 
L 314.898438 -212.652044 
L 319.703358 -215.551174 
L 324.508279 -209.868069 
L 329.313199 -218.1039 
L 334.11812 -207.976396 
L 338.92304 -199.951445 
L 343.727961 -205.921391 
L 348.532882 -220.132607 
L 353.337802 -218.468926 
L 358.142723 -208.828814 
L 362.947643 -208.382615 
L 367.752564 -220.22321 
L 372.557484 -213.76513 
L 377.362405 -220.507715 
L 382.167325 -222.922087 
L 386.972246 -220.242544 
L 391.777167 -218.664156 
L 396.582087 -212.930459 
L 401.387008 -213.624634 
L 406.191928 -214.159327 
L 410.996849 -230.62071 
L 410.996849 -192.113196 
L 410.996849 -192.113196 
L 406.191928 -185.137768 
L 401.387008 -193.188883 
L 396.582087 -186.563526 
L 391.777167 -189.439675 
L 386.972246 -190.151313 
L 382.167325 -188.195737 
L 377.362405 -187.964062 
L 372.557484 -184.648907 
L 367.752564 -191.186 
L 362.947643 -179.147107 
L 358.142723 -175.909145 
L 353.337802 -182.259431 
L 348.532882 -185.980469 
L 343.727961 -173.656312 
L 338.92304 -166.190396 
L 334.11812 -175.353968 
L 329.313199 -181.625912 
L 324.508279 -170.570826 
L 319.703358 -177.411815 
L 314.898438 -180.735309 
L 310.093517 -183.438916 
L 305.288597 -184.274845 
L 300.483676 -183.492397 
L 295.678755 -184.704703 
L 290.873835 -153.516105 
L 286.068914 -147.734096 
L 281.263994 -190.611453 
L 276.459073 -215.228845 
L 271.654153 -210.238014 
L 266.849232 -208.534714 
L 262.044312 -197.956405 
L 257.239391 -186.975394 
L 252.43447 -173.89515 
L 247.62955 -172.784447 
L 242.824629 -189.692602 
L 238.019709 -181.434701 
L 233.214788 -175.311626 
L 228.409868 -199.631712 
L 223.604947 -210.03963 
L 218.800027 -217.95924 
L 213.995106 -220.354377 
L 209.190185 -208.803069 
L 204.385265 -202.300083 
L 199.580344 -206.29761 
L 194.775424 -191.65666 
L 189.970503 -187.65689 
L 185.165583 -195.514734 
L 180.360662 -190.672082 
L 175.555742 -191.973862 
L 170.750821 -197.149703 
L 165.9459 -194.28976 
L 161.14098 -188.081459 
L 156.336059 -182.171692 
L 151.531139 -183.626568 
L 146.726218 -175.306084 
L 141.921298 -161.989079 
L 137.116377 -161.018767 
L 132.311457 -151.165878 
L 127.506536 -147.271525 
L 122.701616 -169.258608 
L 117.896695 -153.41782 
L 113.091774 -145.519892 
L 108.286854 -144.923748 
L 103.481933 -154.913366 
L 98.677013 -150.050914 
L 93.872092 -156.045564 
L 89.067172 -150.703596 
L 84.262251 -156.398504 
L 79.457331 -176.944562 
L 74.65241 -150.438491 
L 69.847489 -163.2932 
L 65.042569 -150.438711 
L 60.237648 -153.636997 
L 55.432728 -151.333999 
L 50.627807 -157.309591 
L 45.822887 -155.125959 
L 41.017966 -165.124898 
L 36.213046 -158.117405 
L 31.408125 -162.317244 
z
" style="stroke: #9e9ac8; stroke-opacity: 0.3"/>
    </defs>
    <g clip-path="url(#p39902d1d59)">
     <use xlink:href="#m232bd518d9" x="0" y="300.904687" style="fill: #9e9ac8; fill-opacity: 0.3; stroke: #9e9ac8; stroke-opacity: 0.3"/>
    </g>
   </g>
   <g id="PolyCollection_3">
    <defs>
     <path id="m82f8efcf13" d="M 31.408125 -159.891011 
L 31.408125 -179.435758 
L 36.213046 -169.575867 
L 41.017966 -183.993304 
L 45.822887 -173.234113 
L 50.627807 -176.585115 
L 55.432728 -193.380347 
L 60.237648 -183.521891 
L 65.042569 -181.519578 
L 69.847489 -177.133092 
L 74.65241 -179.240432 
L 79.457331 -158.060487 
L 84.262251 -176.760047 
L 89.067172 -176.253749 
L 93.872092 -169.989041 
L 98.677013 -176.295002 
L 103.481933 -179.591318 
L 108.286854 -184.010822 
L 113.091774 -185.964394 
L 117.896695 -188.437928 
L 122.701616 -191.009985 
L 127.506536 -171.958471 
L 132.311457 -173.710299 
L 137.116377 -186.181257 
L 141.921298 -183.757444 
L 146.726218 -180.138354 
L 151.531139 -179.452458 
L 156.336059 -166.259714 
L 161.14098 -157.223875 
L 165.9459 -147.259932 
L 170.750821 -140.449011 
L 175.555742 -155.209625 
L 180.360662 -159.49159 
L 185.165583 -145.392024 
L 189.970503 -143.55844 
L 194.775424 -140.25765 
L 199.580344 -135.357136 
L 204.385265 -145.869968 
L 209.190185 -152.720721 
L 213.995106 -150.250067 
L 218.800027 -144.586585 
L 223.604947 -152.560973 
L 228.409868 -158.726273 
L 233.214788 -159.303611 
L 238.019709 -148.639827 
L 242.824629 -146.693632 
L 247.62955 -149.387121 
L 252.43447 -123.326321 
L 257.239391 -101.72458 
L 262.044312 -99.439332 
L 266.849232 -114.892763 
L 271.654153 -121.95001 
L 276.459073 -123.353161 
L 281.263994 -116.703482 
L 286.068914 -106.100906 
L 290.873835 -110.835504 
L 295.678755 -123.545745 
L 300.483676 -127.241364 
L 305.288597 -120.967257 
L 310.093517 -124.185529 
L 314.898438 -134.669438 
L 319.703358 -134.541394 
L 324.508279 -128.89549 
L 329.313199 -131.778116 
L 334.11812 -140.120573 
L 338.92304 -146.293829 
L 343.727961 -132.750026 
L 348.532882 -138.434568 
L 353.337802 -149.440309 
L 358.142723 -148.350069 
L 362.947643 -139.930526 
L 367.752564 -144.871132 
L 372.557484 -150.362764 
L 377.362405 -157.539353 
L 382.167325 -151.380259 
L 386.972246 -144.766485 
L 391.777167 -141.558289 
L 396.582087 -136.023431 
L 401.387008 -147.323008 
L 406.191928 -154.611316 
L 410.996849 -157.687777 
L 410.996849 -136.479465 
L 410.996849 -136.479465 
L 406.191928 -132.382995 
L 401.387008 -118.712861 
L 396.582087 -106.380069 
L 391.777167 -112.396916 
L 386.972246 -117.024547 
L 382.167325 -119.01178 
L 377.362405 -125.237449 
L 372.557484 -117.347041 
L 367.752564 -112.644246 
L 362.947643 -109.52938 
L 358.142723 -114.005291 
L 353.337802 -112.889396 
L 348.532882 -105.449635 
L 343.727961 -102.712349 
L 338.92304 -120.478991 
L 334.11812 -115.135196 
L 329.313199 -102.709501 
L 324.508279 -95.80876 
L 319.703358 -104.363353 
L 314.898438 -103.10991 
L 310.093517 -90.563469 
L 305.288597 -77.189208 
L 300.483676 -98.073042 
L 295.678755 -95.686743 
L 290.873835 -74.38111 
L 286.068914 -71.13115 
L 281.263994 -81.440386 
L 276.459073 -85.037038 
L 271.654153 -82.664529 
L 266.849232 -76.697105 
L 262.044312 -65.752344 
L 257.239391 -68.423631 
L 252.43447 -93.159214 
L 247.62955 -123.009153 
L 242.824629 -116.194444 
L 238.019709 -116.535668 
L 233.214788 -136.087351 
L 228.409868 -130.547782 
L 223.604947 -122.330116 
L 218.800027 -111.422695 
L 213.995106 -114.111534 
L 209.190185 -119.596287 
L 204.385265 -114.379444 
L 199.580344 -100.922462 
L 194.775424 -99.068172 
L 189.970503 -96.052349 
L 185.165583 -102.752557 
L 180.360662 -128.504834 
L 175.555742 -129.240635 
L 170.750821 -109.463692 
L 165.9459 -117.235618 
L 161.14098 -128.59526 
L 156.336059 -144.627421 
L 151.531139 -157.882568 
L 146.726218 -161.588303 
L 141.921298 -165.17072 
L 137.116377 -166.171408 
L 132.311457 -156.122372 
L 127.506536 -153.792333 
L 122.701616 -169.827028 
L 117.896695 -166.808362 
L 113.091774 -171.827479 
L 108.286854 -170.21645 
L 103.481933 -161.984719 
L 98.677013 -152.696566 
L 93.872092 -149.336534 
L 89.067172 -149.898878 
L 84.262251 -153.995787 
L 79.457331 -140.58816 
L 74.65241 -161.261514 
L 69.847489 -160.739443 
L 65.042569 -164.06901 
L 60.237648 -160.827448 
L 55.432728 -171.267173 
L 50.627807 -150.457127 
L 45.822887 -150.488577 
L 41.017966 -159.356845 
L 36.213046 -146.277809 
L 31.408125 -159.891011 
z
" style="stroke: #08519c; stroke-opacity: 0.3"/>
    </defs>
    <g clip-path="url(#p39902d1d59)">
     <use xlink:href="#m82f8efcf13" x="0" y="300.904687" style="fill: #08519c; fill-opacity: 0.3; stroke: #08519c; stroke-opacity: 0.3"/>
    </g>
   </g>
   <g id="PolyCollection_4">
    <defs>
     <path id="m8cb6812879" d="M 111.490134 -293.704688 
L 111.490134 -44.224688 
L 141.721093 -44.224688 
L 141.721093 -293.704688 
L 141.721093 -293.704688 
L 111.490134 -293.704688 
z
" style="stroke: #808080; stroke-opacity: 0.3"/>
    </defs>
    <g clip-path="url(#p39902d1d59)">
     <use xlink:href="#m8cb6812879" x="0" y="300.904687" style="fill: #808080; fill-opacity: 0.3; stroke: #808080; stroke-opacity: 0.3"/>
    </g>
   </g>
   <g id="PolyCollection_5">
    <defs>
     <path id="m88a71afd50" d="M 211.592646 -293.704688 
L 211.592646 -44.224688 
L 241.823604 -44.224688 
L 241.823604 -293.704688 
L 241.823604 -293.704688 
L 211.592646 -293.704688 
z
" style="stroke: #808080; stroke-opacity: 0.3"/>
    </defs>
    <g clip-path="url(#p39902d1d59)">
     <use xlink:href="#m88a71afd50" x="0" y="300.904687" style="fill: #808080; fill-opacity: 0.3; stroke: #808080; stroke-opacity: 0.3"/>
    </g>
   </g>
   <g id="patch_3">
    <path d="M 66.444004 57.096 
L 71.44913 65.412 
L 66.444104 65.412 
L 66.444104 106.992 
L 66.443904 106.992 
L 66.443904 65.412 
L 61.438878 65.412 
z
" clip-path="url(#p39902d1d59)" style="stroke: #000000; stroke-linejoin: miter"/>
   </g>
   <g id="patch_4">
    <path d="M 66.444004 206.784 
L 61.438878 198.468 
L 66.443904 198.468 
L 66.443904 156.888 
L 66.444104 156.888 
L 66.444104 198.468 
L 71.44913 198.468 
z
" clip-path="url(#p39902d1d59)" style="stroke: #000000; stroke-linejoin: miter"/>
   </g>
   <g id="matplotlib.axis_1">
    <g id="xtick_1">
     <g id="line2d_1">
      <defs>
       <path id="m698f75a440" d="M 0 0 
L 0 3.5 
" style="stroke: #000000; stroke-width: 0.8"/>
      </defs>
      <g>
       <use xlink:href="#m698f75a440" x="31.408125" y="256.68" style="stroke: #000000; stroke-width: 0.8"/>
      </g>
     </g>
     <g id="text_1">
      <text style="font: 14px 'Helvetica', sans-serif; text-anchor: middle" x="31.408125" y="273.722812" transform="rotate(-0 31.408125 273.722812)">−400</text>
     </g>
    </g>
    <g id="xtick_2">
     <g id="line2d_2">
      <g>
       <use xlink:href="#m698f75a440" x="71.44913" y="256.68" style="stroke: #000000; stroke-width: 0.8"/>
      </g>
     </g>
     <g id="text_2">
      <text style="font: 14px 'Helvetica', sans-serif; text-anchor: middle" x="71.44913" y="273.722812" transform="rotate(-0 71.44913 273.722812)">−200</text>
     </g>
    </g>
    <g id="xtick_3">
     <g id="line2d_3">
      <g>
       <use xlink:href="#m698f75a440" x="111.490134" y="256.68" style="stroke: #000000; stroke-width: 0.8"/>
      </g>
     </g>
     <g id="text_3">
      <text style="font: 14px 'Helvetica', sans-serif; text-anchor: middle" x="111.490134" y="273.722812" transform="rotate(-0 111.490134 273.722812)">0</text>
     </g>
    </g>
    <g id="xtick_4">
     <g id="line2d_4">
      <g>
       <use xlink:href="#m698f75a440" x="151.531139" y="256.68" style="stroke: #000000; stroke-width: 0.8"/>
      </g>
     </g>
     <g id="text_4">
      <text style="font: 14px 'Helvetica', sans-serif; text-anchor: middle" x="151.531139" y="273.722812" transform="rotate(-0 151.531139 273.722812)">200</text>
     </g>
    </g>
    <g id="xtick_5">
     <g id="line2d_5">
      <g>
       <use xlink:href="#m698f75a440" x="191.572143" y="256.68" style="stroke: #000000; stroke-width: 0.8"/>
      </g>
     </g>
     <g id="text_5">
      <text style="font: 14px 'Helvetica', sans-serif; text-anchor: middle" x="191.572143" y="273.722812" transform="rotate(-0 191.572143 273.722812)">400</text>
     </g>
    </g>
    <g id="xtick_6">
     <g id="line2d_6">
      <g>
       <use xlink:href="#m698f75a440" x="231.613148" y="256.68" style="stroke: #000000; stroke-width: 0.8"/>
      </g>
     </g>
     <g id="text_6">
      <text style="font: 14px 'Helvetica', sans-serif; text-anchor: middle" x="231.613148" y="273.722812" transform="rotate(-0 231.613148 273.722812)">600</text>
     </g>
    </g>
    <g id="xtick_7">
     <g id="line2d_7">
      <g>
       <use xlink:href="#m698f75a440" x="271.654153" y="256.68" style="stroke: #000000; stroke-width: 0.8"/>
      </g>
     </g>
     <g id="text_7">
      <text style="font: 14px 'Helvetica', sans-serif; text-anchor: middle" x="271.654153" y="273.722812" transform="rotate(-0 271.654153 273.722812)">800</text>
     </g>
    </g>
    <g id="xtick_8">
     <g id="line2d_8">
      <g>
       <use xlink:href="#m698f75a440" x="311.695157" y="256.68" style="stroke: #000000; stroke-width: 0.8"/>
      </g>
     </g>
     <g id="text_8">
      <text style="font: 14px 'Helvetica', sans-serif; text-anchor: middle" x="311.695157" y="273.722812" transform="rotate(-0 311.695157 273.722812)">1000</text>
     </g>
    </g>
    <g id="xtick_9">
     <g id="line2d_9">
      <g>
       <use xlink:href="#m698f75a440" x="351.736162" y="256.68" style="stroke: #000000; stroke-width: 0.8"/>
      </g>
     </g>
     <g id="text_9">
      <text style="font: 14px 'Helvetica', sans-serif; text-anchor: middle" x="351.736162" y="273.722812" transform="rotate(-0 351.736162 273.722812)">1200</text>
     </g>
    </g>
    <g id="xtick_10">
     <g id="line2d_10">
      <g>
       <use xlink:href="#m698f75a440" x="391.777167" y="256.68" style="stroke: #000000; stroke-width: 0.8"/>
      </g>
     </g>
     <g id="text_10">
      <text style="font: 14px 'Helvetica', sans-serif; text-anchor: middle" x="391.777167" y="273.722812" transform="rotate(-0 391.777167 273.722812)">1400</text>
     </g>
    </g>
    <g id="text_11">
     <text style="font: 14px 'Helvetica', sans-serif; text-anchor: middle" x="226.708125" y="290.786562" transform="rotate(-0 226.708125 290.786562)">Time (ms)</text>
    </g>
   </g>
   <g id="matplotlib.axis_2">
    <g id="ytick_1">
     <g id="line2d_11">
      <defs>
       <path id="m09f0624e97" d="M 0 0 
L -3.5 0 
" style="stroke: #000000; stroke-width: 0.8"/>
      </defs>
      <g>
       <use xlink:href="#m09f0624e97" x="31.408125" y="209.9025" style="stroke: #000000; stroke-width: 0.8"/>
      </g>
     </g>
    </g>
    <g id="ytick_2">
     <g id="line2d_12">
      <g>
       <use xlink:href="#m09f0624e97" x="31.408125" y="131.94" style="stroke: #000000; stroke-width: 0.8"/>
      </g>
     </g>
    </g>
    <g id="ytick_3">
     <g id="line2d_13">
      <g>
       <use xlink:href="#m09f0624e97" x="31.408125" y="53.9775" style="stroke: #000000; stroke-width: 0.8"/>
      </g>
     </g>
    </g>
    <g id="text_12">
     <text style="font: 14px 'Helvetica', sans-serif; text-anchor: middle" x="17.406875" y="131.94" transform="rotate(-90 17.406875 131.94)">Distance from hyperplane (a.u.)</text>
    </g>
   </g>
   <g id="line2d_14">
    <path d="M 31.408125 131.94 
L 36.213046 131.94 
L 41.017966 131.94 
L 45.822887 131.94 
L 50.627807 131.94 
L 55.432728 131.94 
L 60.237648 131.94 
L 65.042569 131.94 
L 69.847489 131.94 
L 74.65241 131.94 
L 79.457331 131.94 
L 84.262251 131.94 
L 89.067172 131.94 
L 93.872092 131.94 
L 98.677013 131.94 
L 103.481933 131.94 
L 108.286854 131.94 
L 113.091774 131.94 
L 117.896695 131.94 
L 122.701616 131.94 
L 127.506536 131.94 
L 132.311457 131.94 
L 137.116377 131.94 
L 141.921298 131.94 
L 146.726218 131.94 
L 151.531139 131.94 
L 156.336059 131.94 
L 161.14098 131.94 
L 165.9459 131.94 
L 170.750821 131.94 
L 175.555742 131.94 
L 180.360662 131.94 
L 185.165583 131.94 
L 189.970503 131.94 
L 194.775424 131.94 
L 199.580344 131.94 
L 204.385265 131.94 
L 209.190185 131.94 
L 213.995106 131.94 
L 218.800027 131.94 
L 223.604947 131.94 
L 228.409868 131.94 
L 233.214788 131.94 
L 238.019709 131.94 
L 242.824629 131.94 
L 247.62955 131.94 
L 252.43447 131.94 
L 257.239391 131.94 
L 262.044312 131.94 
L 266.849232 131.94 
L 271.654153 131.94 
L 276.459073 131.94 
L 281.263994 131.94 
L 286.068914 131.94 
L 290.873835 131.94 
L 295.678755 131.94 
L 300.483676 131.94 
L 305.288597 131.94 
L 310.093517 131.94 
L 314.898438 131.94 
L 319.703358 131.94 
L 324.508279 131.94 
L 329.313199 131.94 
L 334.11812 131.94 
L 338.92304 131.94 
L 343.727961 131.94 
L 348.532882 131.94 
L 353.337802 131.94 
L 358.142723 131.94 
L 362.947643 131.94 
L 367.752564 131.94 
L 372.557484 131.94 
L 377.362405 131.94 
L 382.167325 131.94 
L 386.972246 131.94 
L 391.777167 131.94 
L 396.582087 131.94 
L 401.387008 131.94 
L 406.191928 131.94 
L 410.996849 131.94 
" clip-path="url(#p39902d1d59)" style="fill: none; stroke-dasharray: 5.55,2.4; stroke-dashoffset: 0; stroke: #808080; stroke-width: 1.5"/>
   </g>
   <g id="line2d_15">
    <path d="M 31.408125 132.548061 
L 36.213046 114.455196 
L 41.017966 127.105838 
L 45.822887 126.935228 
L 50.627807 116.574387 
L 55.432728 148.834949 
L 60.237648 141.403349 
L 65.042569 130.400813 
L 69.847489 129.576035 
L 74.65241 150.995601 
L 79.457331 130.022358 
L 84.262251 131.632124 
L 89.067172 124.220424 
L 93.872092 127.957825 
L 98.677013 127.476049 
L 103.481933 133.123411 
L 108.286854 135.550196 
L 113.091774 148.019166 
L 117.896695 136.871767 
L 122.701616 133.263096 
L 127.506536 136.196464 
L 132.311457 129.360131 
L 137.116377 130.847355 
L 141.921298 131.765113 
L 146.726218 134.608367 
L 151.531139 125.764769 
L 156.336059 109.259944 
L 161.14098 95.460268 
L 165.9459 83.658084 
L 170.750821 88.329049 
L 175.555742 95.619989 
L 180.360662 97.68157 
L 185.165583 86.030879 
L 189.970503 82.274715 
L 194.775424 94.368696 
L 199.580344 85.068188 
L 204.385265 86.224693 
L 209.190185 89.173458 
L 213.995106 85.081207 
L 218.800027 87.997505 
L 223.604947 94.240039 
L 228.409868 102.760202 
L 233.214788 102.050964 
L 238.019709 90.504361 
L 242.824629 83.97927 
L 247.62955 86.504481 
L 252.43447 54.567713 
L 257.239391 43.254607 
L 262.044312 43.015761 
L 266.849232 51.041123 
L 271.654153 56.175554 
L 276.459073 61.752592 
L 281.263994 58.091163 
L 286.068914 61.435957 
L 290.873835 63.148899 
L 295.678755 75.15838 
L 300.483676 72.089974 
L 305.288597 68.092944 
L 310.093517 72.272519 
L 314.898438 72.562612 
L 319.703358 67.185172 
L 324.508279 66.524684 
L 329.313199 68.049084 
L 334.11812 77.086907 
L 338.92304 90.393012 
L 343.727961 81.57105 
L 348.532882 69.881143 
L 353.337802 81.804488 
L 358.142723 81.680991 
L 362.947643 72.724988 
L 367.752564 76.704635 
L 372.557484 92.283511 
L 377.362405 96.26528 
L 382.167325 87.912719 
L 386.972246 84.07868 
L 391.777167 84.104086 
L 396.582087 81.799195 
L 401.387008 93.875266 
L 406.191928 101.541149 
L 410.996849 101.331657 
" clip-path="url(#p39902d1d59)" style="fill: none; stroke: #54278f; stroke-width: 1.5; stroke-linecap: square"/>
   </g>
   <g id="line2d_16">
    <path d="M 31.408125 127.929603 
L 36.213046 133.16902 
L 41.017966 126.335362 
L 45.822887 137.304451 
L 50.627807 129.508302 
L 55.432728 138.513728 
L 60.237648 135.144151 
L 65.042569 138.466982 
L 69.847489 127.084936 
L 74.65241 140.904835 
L 79.457331 109.330626 
L 84.262251 129.460409 
L 89.067172 135.254522 
L 93.872092 131.420053 
L 98.677013 136.747768 
L 103.481933 131.348605 
L 108.286854 146.079655 
L 113.091774 145.927771 
L 117.896695 134.6207 
L 122.701616 118.334943 
L 127.506536 142.342691 
L 132.311457 137.973171 
L 137.116377 126.89045 
L 141.921298 126.481851 
L 146.726218 114.361411 
L 151.531139 107.908799 
L 156.336059 99.986422 
L 161.14098 89.124146 
L 165.9459 88.340458 
L 170.750821 90.307652 
L 175.555742 90.090983 
L 180.360662 88.028884 
L 185.165583 81.275674 
L 189.970503 88.991552 
L 194.775424 87.119993 
L 199.580344 72.358651 
L 204.385265 79.372059 
L 209.190185 73.698569 
L 213.995106 64.05738 
L 218.800027 67.388746 
L 223.604947 79.032723 
L 228.409868 90.842136 
L 233.214788 114.373559 
L 238.019709 106.106222 
L 242.824629 97.012609 
L 247.62955 115.168164 
L 252.43447 110.445325 
L 257.239391 92.96283 
L 262.044312 81.39519 
L 266.849232 68.149781 
L 271.654153 66.133715 
L 276.459073 65.547274 
L 281.263994 86.321101 
L 286.068914 119.210217 
L 290.873835 100.417991 
L 295.678755 85.405868 
L 300.483676 90.224527 
L 305.288597 95.709502 
L 310.093517 101.229914 
L 314.898438 104.211011 
L 319.703358 104.423193 
L 324.508279 110.68524 
L 329.313199 101.039782 
L 334.11812 109.239506 
L 338.92304 117.833767 
L 343.727961 111.115836 
L 348.532882 97.848149 
L 353.337802 100.540509 
L 358.142723 108.535708 
L 362.947643 107.139826 
L 367.752564 95.200083 
L 372.557484 101.697669 
L 377.362405 96.668799 
L 382.167325 95.345776 
L 386.972246 95.707759 
L 391.777167 96.852772 
L 396.582087 101.157695 
L 401.387008 97.497929 
L 406.191928 101.25614 
L 410.996849 89.537734 
" clip-path="url(#p39902d1d59)" style="fill: none; stroke: #9e9ac8; stroke-width: 1.5; stroke-linecap: square"/>
   </g>
   <g id="line2d_17">
    <path d="M 31.408125 131.241303 
L 36.213046 142.97785 
L 41.017966 129.229613 
L 45.822887 139.043342 
L 50.627807 137.383566 
L 55.432728 118.580928 
L 60.237648 128.730018 
L 65.042569 128.110393 
L 69.847489 131.96842 
L 74.65241 130.653715 
L 79.457331 151.580364 
L 84.262251 135.52677 
L 89.067172 137.828374 
L 93.872092 141.2419 
L 98.677013 136.408904 
L 103.481933 130.116669 
L 108.286854 123.791052 
L 113.091774 122.008751 
L 117.896695 123.281543 
L 122.701616 120.486181 
L 127.506536 138.029286 
L 132.311457 135.988352 
L 137.116377 124.728355 
L 141.921298 126.440606 
L 146.726218 130.041359 
L 151.531139 132.237174 
L 156.336059 145.46112 
L 161.14098 157.99512 
L 165.9459 168.656913 
L 170.750821 175.948336 
L 175.555742 158.679557 
L 180.360662 156.906475 
L 185.165583 176.832397 
L 189.970503 181.099293 
L 194.775424 181.241777 
L 199.580344 182.764889 
L 204.385265 170.779982 
L 209.190185 164.746184 
L 213.995106 168.723887 
L 218.800027 172.900048 
L 223.604947 163.459143 
L 228.409868 156.26766 
L 233.214788 153.209207 
L 238.019709 168.31694 
L 242.824629 169.46065 
L 247.62955 164.70655 
L 252.43447 192.66192 
L 257.239391 215.830582 
L 262.044312 218.308849 
L 266.849232 205.109754 
L 271.654153 198.597418 
L 276.459073 196.709588 
L 281.263994 201.832754 
L 286.068914 212.28866 
L 290.873835 208.296381 
L 295.678755 191.288443 
L 300.483676 188.247484 
L 305.288597 201.826455 
L 310.093517 193.530189 
L 314.898438 182.015014 
L 319.703358 181.452314 
L 324.508279 188.552562 
L 329.313199 183.660879 
L 334.11812 173.276803 
L 338.92304 167.518278 
L 343.727961 183.1735 
L 348.532882 178.962586 
L 353.337802 169.739835 
L 358.142723 169.727008 
L 362.947643 176.174734 
L 367.752564 172.146998 
L 372.557484 167.049785 
L 377.362405 159.516287 
L 382.167325 165.708668 
L 386.972246 170.009172 
L 391.777167 173.927085 
L 396.582087 179.702937 
L 401.387008 167.886753 
L 406.191928 157.407532 
L 410.996849 153.821067 
" clip-path="url(#p39902d1d59)" style="fill: none; stroke: #08519c; stroke-width: 1.5; stroke-linecap: square"/>
   </g>
   <g id="patch_5">
    <path d="M 31.408125 256.68 
L 31.408125 7.2 
" style="fill: none; stroke: #000000; stroke-width: 0.8; stroke-linejoin: miter; stroke-linecap: square"/>
   </g>
   <g id="patch_6">
    <path d="M 31.408125 256.68 
L 422.008125 256.68 
" style="fill: none; stroke: #000000; stroke-width: 0.8; stroke-linejoin: miter; stroke-linecap: square"/>
   </g>
   <g id="text_13">
    <text style="font: 12px 'Helvetica', sans-serif" transform="translate(41.097754 25.554)">Predicted</text>
    <text style="font: 12px 'Helvetica', sans-serif" transform="translate(47.106192 38.385)">4 items</text>
   </g>
   <g id="text_14">
    <text style="font: 12px 'Helvetica', sans-serif" transform="translate(41.097754 233.454)">Predicted</text>
    <text style="font: 12px 'Helvetica', sans-serif" transform="translate(47.106192 246.285)">2 items</text>
   </g>
   <g id="legend_1">
    <g id="line2d_18">
     <path d="M 322.2525 22.408125 
L 334.2525 22.408125 
L 346.2525 22.408125 
" style="fill: none; stroke: #54278f; stroke-width: 1.5; stroke-linecap: square"/>
    </g>
    <g id="text_15">
     <text style="font: 12px 'Helvetica', sans-serif; text-anchor: start" x="355.8525" y="26.608125" transform="rotate(-0 355.8525 26.608125)">4 Different</text>
    </g>
    <g id="line2d_19">
     <path d="M 322.2525 39.5175 
L 334.2525 39.5175 
L 346.2525 39.5175 
" style="fill: none; stroke: #9e9ac8; stroke-width: 1.5; stroke-linecap: square"/>
    </g>
    <g id="text_16">
     <text style="font: 12px 'Helvetica', sans-serif; text-anchor: start" x="355.8525" y="43.7175" transform="rotate(-0 355.8525 43.7175)">4 Same</text>
    </g>
    <g id="line2d_20">
     <path d="M 322.2525 56.626875 
L 334.2525 56.626875 
L 346.2525 56.626875 
" style="fill: none; stroke: #08519c; stroke-width: 1.5; stroke-linecap: square"/>
    </g>
    <g id="text_17">
     <text style="font: 12px 'Helvetica', sans-serif; text-anchor: start" x="355.8525" y="60.826875" transform="rotate(-0 355.8525 60.826875)">2 Different</text>
    </g>
   </g>
  </g>
 </g>
 <defs>
  <clipPath id="p39902d1d59">
   <rect x="31.408125" y="7.2" width="390.6" height="249.48"/>
  </clipPath>
 </defs>
</svg>
