<?xml version="1.0" encoding="utf-8" standalone="no"?>
<!DOCTYPE svg PUBLIC "-//W3C//DTD SVG 1.1//EN"
  "http://www.w3.org/Graphics/SVG/1.1/DTD/svg11.dtd">
<svg xmlns:xlink="http://www.w3.org/1999/xlink" width="429.208125pt" height="300.904687pt" viewBox="0 0 429.208125 300.904687" xmlns="http://www.w3.org/2000/svg" version="1.1">
 <metadata>
  <rdf:RDF xmlns:dc="http://purl.org/dc/elements/1.1/" xmlns:cc="http://creativecommons.org/ns#" xmlns:rdf="http://www.w3.org/1999/02/22-rdf-syntax-ns#">
   <cc:Work>
    <dc:type rdf:resource="http://purl.org/dc/dcmitype/StillImage"/>
    <dc:date>2023-07-20T12:31:48.290397</dc:date>
    <dc:format>image/svg+xml</dc:format>
    <dc:creator>
     <cc:Agent>
      <dc:title>Matplotlib v3.7.1, https://matplotlib.org/</dc:title>
     </cc:Agent>
    </dc:creator>
   </cc:Work>
  </rdf:RDF>
 </metadata>
 <defs>
  <style type="text/css">*{stroke-linejoin: round; stroke-linecap: butt}</style>
 </defs>
 <g id="figure_1">
  <g id="patch_1">
   <path d="M 0 300.904687 
L 429.208125 300.904687 
L 429.208125 0 
L 0 0 
z
" style="fill: #ffffff"/>
  </g>
  <g id="axes_1">
   <g id="patch_2">
    <path d="M 31.408125 256.68 
L 422.008125 256.68 
L 422.008125 7.2 
L 31.408125 7.2 
z
" style="fill: #ffffff"/>
   </g>
   <g id="PolyCollection_1">
    <defs>
     <path id="m3d425db4c3" d="M 31.408125 -158.708246 
L 31.408125 -176.768516 
L 36.213046 -178.453405 
L 41.017966 -193.199757 
L 45.822887 -173.176152 
L 50.627807 -182.519506 
L 55.432728 -172.396036 
L 60.237648 -173.605493 
L 65.042569 -175.529806 
L 69.847489 -186.271577 
L 74.65241 -172.874397 
L 79.457331 -183.264169 
L 84.262251 -179.701185 
L 89.067172 -175.651133 
L 93.872092 -181.269969 
L 98.677013 -174.497925 
L 103.481933 -177.120095 
L 108.286854 -170.228964 
L 113.091774 -172.21515 
L 117.896695 -164.272963 
L 122.701616 -173.959909 
L 127.506536 -166.395717 
L 132.311457 -178.412286 
L 137.116377 -197.389616 
L 141.921298 -220.447833 
L 146.726218 -208.474494 
L 151.531139 -200.070259 
L 156.336059 -210.941218 
L 161.14098 -231.426058 
L 165.9459 -237.293397 
L 170.750821 -216.090086 
L 175.555742 -216.033725 
L 180.360662 -229.02846 
L 185.165583 -237.719804 
L 189.970503 -238.093005 
L 194.775424 -239.897958 
L 199.580344 -237.673598 
L 204.385265 -226.948032 
L 209.190185 -223.937052 
L 213.995106 -228.290061 
L 218.800027 -225.73758 
L 223.604947 -220.061764 
L 228.409868 -221.01442 
L 233.214788 -219.762491 
L 238.019709 -220.981356 
L 242.824629 -224.706647 
L 247.62955 -233.293401 
L 252.43447 -252.470101 
L 257.239391 -266.350598 
L 262.044312 -276.853575 
L 266.849232 -270.223616 
L 271.654153 -262.676385 
L 276.459073 -271.680315 
L 281.263994 -275.017017 
L 286.068914 -265.976049 
L 290.873835 -272.871096 
L 295.678755 -254.560931 
L 300.483676 -244.128927 
L 305.288597 -244.885819 
L 310.093517 -235.537921 
L 314.898438 -231.466267 
L 319.703358 -233.552776 
L 324.508279 -224.39837 
L 329.313199 -221.042906 
L 334.11812 -227.487658 
L 338.92304 -224.486608 
L 343.727961 -222.988739 
L 348.532882 -220.65604 
L 353.337802 -225.838127 
L 358.142723 -224.987706 
L 362.947643 -226.912427 
L 367.752564 -231.504118 
L 372.557484 -221.512001 
L 377.362405 -218.370649 
L 382.167325 -211.786527 
L 386.972246 -212.031457 
L 391.777167 -220.386973 
L 396.582087 -219.06182 
L 401.387008 -216.654153 
L 406.191928 -213.541356 
L 410.996849 -222.576926 
L 410.996849 -206.295659 
L 410.996849 -206.295659 
L 406.191928 -194.761641 
L 401.387008 -196.133259 
L 396.582087 -200.994806 
L 391.777167 -202.570237 
L 386.972246 -192.580992 
L 382.167325 -193.652245 
L 377.362405 -200.707479 
L 372.557484 -199.699523 
L 367.752564 -204.168594 
L 362.947643 -200.833533 
L 358.142723 -202.658322 
L 353.337802 -202.941433 
L 348.532882 -197.626997 
L 343.727961 -196.254613 
L 338.92304 -198.322448 
L 334.11812 -202.115536 
L 329.313199 -196.572866 
L 324.508279 -197.931604 
L 319.703358 -208.321333 
L 314.898438 -209.546162 
L 310.093517 -212.871811 
L 305.288597 -219.7791 
L 300.483676 -220.408735 
L 295.678755 -229.161958 
L 290.873835 -244.446438 
L 286.068914 -236.851409 
L 281.263994 -244.584165 
L 276.459073 -242.632184 
L 271.654153 -233.240596 
L 266.849232 -238.079955 
L 262.044312 -245.607127 
L 257.239391 -235.213321 
L 252.43447 -227.464226 
L 247.62955 -213.844324 
L 242.824629 -208.32073 
L 238.019709 -203.167305 
L 233.214788 -200.12801 
L 228.409868 -199.267282 
L 223.604947 -202.122136 
L 218.800027 -203.798045 
L 213.995106 -203.66643 
L 209.190185 -202.238396 
L 204.385265 -202.688936 
L 199.580344 -211.515526 
L 194.775424 -208.491936 
L 189.970503 -207.742478 
L 185.165583 -208.460368 
L 180.360662 -201.704449 
L 175.555742 -192.546217 
L 170.750821 -192.429893 
L 165.9459 -204.703614 
L 161.14098 -201.376544 
L 156.336059 -185.99224 
L 151.531139 -184.034456 
L 146.726218 -188.034576 
L 141.921298 -191.38755 
L 137.116377 -175.335443 
L 132.311457 -163.720691 
L 127.506536 -151.629733 
L 122.701616 -156.169677 
L 117.896695 -150.965543 
L 113.091774 -154.846196 
L 108.286854 -152.200104 
L 103.481933 -156.74908 
L 98.677013 -152.928356 
L 93.872092 -164.054451 
L 89.067172 -161.320867 
L 84.262251 -163.981923 
L 79.457331 -168.370498 
L 74.65241 -157.603535 
L 69.847489 -166.58085 
L 65.042569 -151.385952 
L 60.237648 -157.192703 
L 55.432728 -156.793087 
L 50.627807 -161.113738 
L 45.822887 -157.3161 
L 41.017966 -178.768056 
L 36.213046 -161.063408 
L 31.408125 -158.708246 
z
" style="stroke: #9e9ac8; stroke-opacity: 0.3"/>
    </defs>
    <g clip-path="url(#pd66338dbc2)">
     <use xlink:href="#m3d425db4c3" x="0" y="300.904687" style="fill: #9e9ac8; fill-opacity: 0.3; stroke: #9e9ac8; stroke-opacity: 0.3"/>
    </g>
   </g>
   <g id="PolyCollection_2">
    <defs>
     <path id="m1067e52c2f" d="M 31.408125 -147.7247 
L 31.408125 -163.807257 
L 36.213046 -161.624487 
L 41.017966 -170.242599 
L 45.822887 -186.773433 
L 50.627807 -169.256937 
L 55.432728 -173.501472 
L 60.237648 -174.606987 
L 65.042569 -156.435094 
L 69.847489 -172.918643 
L 74.65241 -185.607335 
L 79.457331 -158.255441 
L 84.262251 -181.090806 
L 89.067172 -179.218308 
L 93.872092 -170.772528 
L 98.677013 -177.641266 
L 103.481933 -176.721028 
L 108.286854 -181.379925 
L 113.091774 -189.853145 
L 117.896695 -164.531758 
L 122.701616 -161.426528 
L 127.506536 -178.489629 
L 132.311457 -169.808675 
L 137.116377 -185.826917 
L 141.921298 -186.308798 
L 146.726218 -180.145669 
L 151.531139 -171.14309 
L 156.336059 -147.765937 
L 161.14098 -144.164049 
L 165.9459 -166.61159 
L 170.750821 -163.114555 
L 175.555742 -157.302902 
L 180.360662 -151.83872 
L 185.165583 -146.276625 
L 189.970503 -156.081669 
L 194.775424 -155.017779 
L 199.580344 -158.621276 
L 204.385265 -161.898983 
L 209.190185 -164.444271 
L 213.995106 -155.571746 
L 218.800027 -149.3575 
L 223.604947 -146.374917 
L 228.409868 -162.39892 
L 233.214788 -162.996906 
L 238.019709 -150.097305 
L 242.824629 -156.854844 
L 247.62955 -183.538489 
L 252.43447 -173.682241 
L 257.239391 -139.985056 
L 262.044312 -133.633873 
L 266.849232 -138.047891 
L 271.654153 -147.95985 
L 276.459073 -145.098158 
L 281.263994 -149.538833 
L 286.068914 -130.153954 
L 290.873835 -125.814793 
L 295.678755 -153.68897 
L 300.483676 -174.449363 
L 305.288597 -173.944548 
L 310.093517 -176.480571 
L 314.898438 -166.945299 
L 319.703358 -175.383427 
L 324.508279 -179.143398 
L 329.313199 -184.497919 
L 334.11812 -189.545178 
L 338.92304 -199.838131 
L 343.727961 -207.17601 
L 348.532882 -186.024656 
L 353.337802 -179.573124 
L 358.142723 -191.148355 
L 362.947643 -203.05382 
L 367.752564 -195.316531 
L 372.557484 -178.902218 
L 377.362405 -172.547672 
L 382.167325 -174.963213 
L 386.972246 -174.73038 
L 391.777167 -175.487771 
L 396.582087 -177.075553 
L 401.387008 -183.303099 
L 406.191928 -172.164195 
L 410.996849 -166.486861 
L 410.996849 -142.564192 
L 410.996849 -142.564192 
L 406.191928 -150.940104 
L 401.387008 -159.244255 
L 396.582087 -149.759184 
L 391.777167 -145.166065 
L 386.972246 -149.169613 
L 382.167325 -149.820872 
L 377.362405 -147.0377 
L 372.557484 -154.798458 
L 367.752564 -164.767343 
L 362.947643 -169.820348 
L 358.142723 -158.629877 
L 353.337802 -153.017116 
L 348.532882 -163.7984 
L 343.727961 -182.655753 
L 338.92304 -176.879912 
L 334.11812 -166.549531 
L 329.313199 -165.003607 
L 324.508279 -157.146134 
L 319.703358 -147.635143 
L 314.898438 -143.630518 
L 310.093517 -154.007312 
L 305.288597 -149.173833 
L 300.483676 -136.393859 
L 295.678755 -106.002495 
L 290.873835 -60.395945 
L 286.068914 -78.715901 
L 281.263994 -103.465993 
L 276.459073 -97.379013 
L 271.654153 -101.759421 
L 266.849232 -98.558453 
L 262.044312 -96.363021 
L 257.239391 -98.398991 
L 252.43447 -140.526797 
L 247.62955 -154.014367 
L 242.824629 -134.721601 
L 238.019709 -128.774711 
L 233.214788 -135.794407 
L 228.409868 -135.253945 
L 223.604947 -120.100702 
L 218.800027 -120.797964 
L 213.995106 -126.103456 
L 209.190185 -136.207513 
L 204.385265 -139.276739 
L 199.580344 -134.241327 
L 194.775424 -124.555708 
L 189.970503 -122.318546 
L 185.165583 -111.551929 
L 180.360662 -119.99233 
L 175.555742 -134.202519 
L 170.750821 -139.003927 
L 165.9459 -131.047438 
L 161.14098 -113.420141 
L 156.336059 -127.409523 
L 151.531139 -156.279228 
L 146.726218 -161.058297 
L 141.921298 -163.736612 
L 137.116377 -161.819439 
L 132.311457 -155.052211 
L 127.506536 -158.44748 
L 122.701616 -138.220717 
L 117.896695 -145.222038 
L 113.091774 -173.546767 
L 108.286854 -166.111249 
L 103.481933 -160.102803 
L 98.677013 -164.460572 
L 93.872092 -153.365431 
L 89.067172 -153.441497 
L 84.262251 -160.476545 
L 79.457331 -141.757881 
L 74.65241 -168.350031 
L 69.847489 -150.697511 
L 65.042569 -141.858564 
L 60.237648 -149.044135 
L 55.432728 -148.143274 
L 50.627807 -143.966657 
L 45.822887 -165.811215 
L 41.017966 -151.529884 
L 36.213046 -140.73061 
L 31.408125 -147.7247 
z
" style="stroke: #08519c; stroke-opacity: 0.3"/>
    </defs>
    <g clip-path="url(#pd66338dbc2)">
     <use xlink:href="#m1067e52c2f" x="0" y="300.904687" style="fill: #08519c; fill-opacity: 0.3; stroke: #08519c; stroke-opacity: 0.3"/>
    </g>
   </g>
   <g id="PolyCollection_3">
    <defs>
     <path id="m6ef0c81759" d="M 31.408125 -155.294739 
L 31.408125 -170.863165 
L 36.213046 -186.478309 
L 41.017966 -169.398482 
L 45.822887 -171.219346 
L 50.627807 -172.520924 
L 55.432728 -175.68014 
L 60.237648 -178.03484 
L 65.042569 -179.171873 
L 69.847489 -169.555266 
L 74.65241 -177.667661 
L 79.457331 -172.206573 
L 84.262251 -169.600203 
L 89.067172 -162.655438 
L 93.872092 -183.693562 
L 98.677013 -187.842752 
L 103.481933 -182.703411 
L 108.286854 -176.849849 
L 113.091774 -177.545431 
L 117.896695 -180.797212 
L 122.701616 -170.543712 
L 127.506536 -177.069216 
L 132.311457 -168.383993 
L 137.116377 -164.411856 
L 141.921298 -156.109195 
L 146.726218 -159.476117 
L 151.531139 -153.953484 
L 156.336059 -144.237273 
L 161.14098 -126.265832 
L 165.9459 -131.766772 
L 170.750821 -147.215032 
L 175.555742 -144.304114 
L 180.360662 -135.116184 
L 185.165583 -130.682755 
L 189.970503 -130.741503 
L 194.775424 -127.956878 
L 199.580344 -129.063414 
L 204.385265 -130.533009 
L 209.190185 -136.437054 
L 213.995106 -140.025975 
L 218.800027 -144.269381 
L 223.604947 -147.109379 
L 228.409868 -143.102815 
L 233.214788 -139.896515 
L 238.019709 -142.185713 
L 242.824629 -136.584687 
L 247.62955 -128.66113 
L 252.43447 -115.471655 
L 257.239391 -104.783805 
L 262.044312 -105.523958 
L 266.849232 -106.33319 
L 271.654153 -109.970027 
L 276.459073 -106.585542 
L 281.263994 -107.086227 
L 286.068914 -106.13687 
L 290.873835 -98.439258 
L 295.678755 -109.191541 
L 300.483676 -123.88226 
L 305.288597 -125.659966 
L 310.093517 -127.242533 
L 314.898438 -130.656166 
L 319.703358 -131.849332 
L 324.508279 -139.796938 
L 329.313199 -142.328826 
L 334.11812 -140.352332 
L 338.92304 -144.116391 
L 343.727961 -140.709254 
L 348.532882 -134.491264 
L 353.337802 -138.07566 
L 358.142723 -136.875874 
L 362.947643 -137.378004 
L 367.752564 -131.40449 
L 372.557484 -137.202469 
L 377.362405 -134.004031 
L 382.167325 -135.216944 
L 386.972246 -145.725803 
L 391.777167 -135.898435 
L 396.582087 -134.487546 
L 401.387008 -135.956079 
L 406.191928 -140.379644 
L 410.996849 -130.682971 
L 410.996849 -113.164129 
L 410.996849 -113.164129 
L 406.191928 -122.811086 
L 401.387008 -116.77507 
L 396.582087 -111.913217 
L 391.777167 -113.960652 
L 386.972246 -121.726302 
L 382.167325 -116.343098 
L 377.362405 -111.025914 
L 372.557484 -113.270073 
L 367.752564 -106.264296 
L 362.947643 -113.861859 
L 358.142723 -113.451246 
L 353.337802 -114.035192 
L 348.532882 -111.80345 
L 343.727961 -114.856935 
L 338.92304 -116.779812 
L 334.11812 -112.757802 
L 329.313199 -118.69807 
L 324.508279 -115.399264 
L 319.703358 -105.575012 
L 314.898438 -103.615181 
L 310.093517 -103.079611 
L 305.288597 -103.012061 
L 300.483676 -100.321175 
L 295.678755 -83.459441 
L 290.873835 -65.589713 
L 286.068914 -79.02437 
L 281.263994 -80.210337 
L 276.459073 -80.233245 
L 271.654153 -82.82399 
L 266.849232 -81.861138 
L 262.044312 -79.735331 
L 257.239391 -74.128299 
L 252.43447 -91.591284 
L 247.62955 -108.457646 
L 242.824629 -118.999239 
L 238.019709 -123.954652 
L 233.214788 -124.686305 
L 228.409868 -124.274645 
L 223.604947 -127.43354 
L 218.800027 -122.007035 
L 213.995106 -117.339356 
L 209.190185 -114.859582 
L 204.385265 -108.784036 
L 199.580344 -108.601687 
L 194.775424 -101.781978 
L 189.970503 -104.659636 
L 185.165583 -105.535675 
L 180.360662 -112.630208 
L 175.555742 -121.570236 
L 170.750821 -127.157004 
L 165.9459 -107.821326 
L 161.14098 -97.948702 
L 156.336059 -116.583231 
L 151.531139 -133.704622 
L 146.726218 -135.082845 
L 141.921298 -129.194611 
L 137.116377 -147.798543 
L 132.311457 -153.667643 
L 127.506536 -161.028486 
L 122.701616 -155.40994 
L 117.896695 -165.723241 
L 113.091774 -159.944333 
L 108.286854 -158.376672 
L 103.481933 -159.570309 
L 98.677013 -164.986194 
L 93.872092 -159.847821 
L 89.067172 -146.266021 
L 84.262251 -155.342147 
L 79.457331 -157.307584 
L 74.65241 -160.332676 
L 69.847489 -146.990481 
L 65.042569 -156.93646 
L 60.237648 -159.833824 
L 55.432728 -159.084492 
L 50.627807 -155.836153 
L 45.822887 -151.760355 
L 41.017966 -155.211201 
L 36.213046 -169.763231 
L 31.408125 -155.294739 
z
" style="stroke: #6baed6; stroke-opacity: 0.3"/>
    </defs>
    <g clip-path="url(#pd66338dbc2)">
     <use xlink:href="#m6ef0c81759" x="0" y="300.904687" style="fill: #6baed6; fill-opacity: 0.3; stroke: #6baed6; stroke-opacity: 0.3"/>
    </g>
   </g>
   <g id="PolyCollection_4">
    <defs>
     <path id="mc769ec9464" d="M 111.490134 -293.704687 
L 111.490134 -44.224688 
L 141.721093 -44.224688 
L 141.721093 -293.704687 
L 141.721093 -293.704687 
L 111.490134 -293.704687 
z
" style="stroke: #808080; stroke-opacity: 0.3"/>
    </defs>
    <g clip-path="url(#pd66338dbc2)">
     <use xlink:href="#mc769ec9464" x="0" y="300.904687" style="fill: #808080; fill-opacity: 0.3; stroke: #808080; stroke-opacity: 0.3"/>
    </g>
   </g>
   <g id="PolyCollection_5">
    <defs>
     <path id="mcc2a6acd21" d="M 211.592646 -293.704687 
L 211.592646 -44.224688 
L 241.823604 -44.224688 
L 241.823604 -293.704687 
L 241.823604 -293.704687 
L 211.592646 -293.704687 
z
" style="stroke: #808080; stroke-opacity: 0.3"/>
    </defs>
    <g clip-path="url(#pd66338dbc2)">
     <use xlink:href="#mcc2a6acd21" x="0" y="300.904687" style="fill: #808080; fill-opacity: 0.3; stroke: #808080; stroke-opacity: 0.3"/>
    </g>
   </g>
   <g id="patch_3">
    <path d="M 66.444004 57.096 
L 71.44913 65.412 
L 66.444104 65.412 
L 66.444104 106.992 
L 66.443904 106.992 
L 66.443904 65.412 
L 61.438878 65.412 
z
" clip-path="url(#pd66338dbc2)" style="stroke: #000000; stroke-linejoin: miter"/>
   </g>
   <g id="patch_4">
    <path d="M 66.444004 206.784 
L 61.438878 198.468 
L 66.443904 198.468 
L 66.443904 156.888 
L 66.444104 156.888 
L 66.444104 198.468 
L 71.44913 198.468 
z
" clip-path="url(#pd66338dbc2)" style="stroke: #000000; stroke-linejoin: miter"/>
   </g>
   <g id="matplotlib.axis_1">
    <g id="xtick_1">
     <g id="line2d_1">
      <defs>
       <path id="mbacf8ab79d" d="M 0 0 
L 0 3.5 
" style="stroke: #000000; stroke-width: 0.8"/>
      </defs>
      <g>
       <use xlink:href="#mbacf8ab79d" x="31.408125" y="256.68" style="stroke: #000000; stroke-width: 0.8"/>
      </g>
     </g>
     <g id="text_1">
      <text style="font: 14px 'Helvetica', sans-serif; text-anchor: middle" x="31.408125" y="273.722812" transform="rotate(-0 31.408125 273.722812)">−400</text>
     </g>
    </g>
    <g id="xtick_2">
     <g id="line2d_2">
      <g>
       <use xlink:href="#mbacf8ab79d" x="71.44913" y="256.68" style="stroke: #000000; stroke-width: 0.8"/>
      </g>
     </g>
     <g id="text_2">
      <text style="font: 14px 'Helvetica', sans-serif; text-anchor: middle" x="71.44913" y="273.722812" transform="rotate(-0 71.44913 273.722812)">−200</text>
     </g>
    </g>
    <g id="xtick_3">
     <g id="line2d_3">
      <g>
       <use xlink:href="#mbacf8ab79d" x="111.490134" y="256.68" style="stroke: #000000; stroke-width: 0.8"/>
      </g>
     </g>
     <g id="text_3">
      <text style="font: 14px 'Helvetica', sans-serif; text-anchor: middle" x="111.490134" y="273.722812" transform="rotate(-0 111.490134 273.722812)">0</text>
     </g>
    </g>
    <g id="xtick_4">
     <g id="line2d_4">
      <g>
       <use xlink:href="#mbacf8ab79d" x="151.531139" y="256.68" style="stroke: #000000; stroke-width: 0.8"/>
      </g>
     </g>
     <g id="text_4">
      <text style="font: 14px 'Helvetica', sans-serif; text-anchor: middle" x="151.531139" y="273.722812" transform="rotate(-0 151.531139 273.722812)">200</text>
     </g>
    </g>
    <g id="xtick_5">
     <g id="line2d_5">
      <g>
       <use xlink:href="#mbacf8ab79d" x="191.572143" y="256.68" style="stroke: #000000; stroke-width: 0.8"/>
      </g>
     </g>
     <g id="text_5">
      <text style="font: 14px 'Helvetica', sans-serif; text-anchor: middle" x="191.572143" y="273.722812" transform="rotate(-0 191.572143 273.722812)">400</text>
     </g>
    </g>
    <g id="xtick_6">
     <g id="line2d_6">
      <g>
       <use xlink:href="#mbacf8ab79d" x="231.613148" y="256.68" style="stroke: #000000; stroke-width: 0.8"/>
      </g>
     </g>
     <g id="text_6">
      <text style="font: 14px 'Helvetica', sans-serif; text-anchor: middle" x="231.613148" y="273.722812" transform="rotate(-0 231.613148 273.722812)">600</text>
     </g>
    </g>
    <g id="xtick_7">
     <g id="line2d_7">
      <g>
       <use xlink:href="#mbacf8ab79d" x="271.654153" y="256.68" style="stroke: #000000; stroke-width: 0.8"/>
      </g>
     </g>
     <g id="text_7">
      <text style="font: 14px 'Helvetica', sans-serif; text-anchor: middle" x="271.654153" y="273.722812" transform="rotate(-0 271.654153 273.722812)">800</text>
     </g>
    </g>
    <g id="xtick_8">
     <g id="line2d_8">
      <g>
       <use xlink:href="#mbacf8ab79d" x="311.695157" y="256.68" style="stroke: #000000; stroke-width: 0.8"/>
      </g>
     </g>
     <g id="text_8">
      <text style="font: 14px 'Helvetica', sans-serif; text-anchor: middle" x="311.695157" y="273.722812" transform="rotate(-0 311.695157 273.722812)">1000</text>
     </g>
    </g>
    <g id="xtick_9">
     <g id="line2d_9">
      <g>
       <use xlink:href="#mbacf8ab79d" x="351.736162" y="256.68" style="stroke: #000000; stroke-width: 0.8"/>
      </g>
     </g>
     <g id="text_9">
      <text style="font: 14px 'Helvetica', sans-serif; text-anchor: middle" x="351.736162" y="273.722812" transform="rotate(-0 351.736162 273.722812)">1200</text>
     </g>
    </g>
    <g id="xtick_10">
     <g id="line2d_10">
      <g>
       <use xlink:href="#mbacf8ab79d" x="391.777167" y="256.68" style="stroke: #000000; stroke-width: 0.8"/>
      </g>
     </g>
     <g id="text_10">
      <text style="font: 14px 'Helvetica', sans-serif; text-anchor: middle" x="391.777167" y="273.722812" transform="rotate(-0 391.777167 273.722812)">1400</text>
     </g>
    </g>
    <g id="text_11">
     <text style="font: 14px 'Helvetica', sans-serif; text-anchor: middle" x="226.708125" y="290.786562" transform="rotate(-0 226.708125 290.786562)">Time (ms)</text>
    </g>
   </g>
   <g id="matplotlib.axis_2">
    <g id="ytick_1">
     <g id="line2d_11">
      <defs>
       <path id="m961342cb1a" d="M 0 0 
L -3.5 0 
" style="stroke: #000000; stroke-width: 0.8"/>
      </defs>
      <g>
       <use xlink:href="#m961342cb1a" x="31.408125" y="197.592632" style="stroke: #000000; stroke-width: 0.8"/>
      </g>
     </g>
    </g>
    <g id="ytick_2">
     <g id="line2d_12">
      <g>
       <use xlink:href="#m961342cb1a" x="31.408125" y="131.94" style="stroke: #000000; stroke-width: 0.8"/>
      </g>
     </g>
    </g>
    <g id="ytick_3">
     <g id="line2d_13">
      <g>
       <use xlink:href="#m961342cb1a" x="31.408125" y="66.287368" style="stroke: #000000; stroke-width: 0.8"/>
      </g>
     </g>
    </g>
    <g id="text_12">
     <text style="font: 14px 'Helvetica', sans-serif; text-anchor: middle" x="17.406875" y="131.94" transform="rotate(-90 17.406875 131.94)">Distance from hyperplane (a.u.)</text>
    </g>
   </g>
   <g id="line2d_14">
    <path d="M 31.408125 131.94 
L 36.213046 131.94 
L 41.017966 131.94 
L 45.822887 131.94 
L 50.627807 131.94 
L 55.432728 131.94 
L 60.237648 131.94 
L 65.042569 131.94 
L 69.847489 131.94 
L 74.65241 131.94 
L 79.457331 131.94 
L 84.262251 131.94 
L 89.067172 131.94 
L 93.872092 131.94 
L 98.677013 131.94 
L 103.481933 131.94 
L 108.286854 131.94 
L 113.091774 131.94 
L 117.896695 131.94 
L 122.701616 131.94 
L 127.506536 131.94 
L 132.311457 131.94 
L 137.116377 131.94 
L 141.921298 131.94 
L 146.726218 131.94 
L 151.531139 131.94 
L 156.336059 131.94 
L 161.14098 131.94 
L 165.9459 131.94 
L 170.750821 131.94 
L 175.555742 131.94 
L 180.360662 131.94 
L 185.165583 131.94 
L 189.970503 131.94 
L 194.775424 131.94 
L 199.580344 131.94 
L 204.385265 131.94 
L 209.190185 131.94 
L 213.995106 131.94 
L 218.800027 131.94 
L 223.604947 131.94 
L 228.409868 131.94 
L 233.214788 131.94 
L 238.019709 131.94 
L 242.824629 131.94 
L 247.62955 131.94 
L 252.43447 131.94 
L 257.239391 131.94 
L 262.044312 131.94 
L 266.849232 131.94 
L 271.654153 131.94 
L 276.459073 131.94 
L 281.263994 131.94 
L 286.068914 131.94 
L 290.873835 131.94 
L 295.678755 131.94 
L 300.483676 131.94 
L 305.288597 131.94 
L 310.093517 131.94 
L 314.898438 131.94 
L 319.703358 131.94 
L 324.508279 131.94 
L 329.313199 131.94 
L 334.11812 131.94 
L 338.92304 131.94 
L 343.727961 131.94 
L 348.532882 131.94 
L 353.337802 131.94 
L 358.142723 131.94 
L 362.947643 131.94 
L 367.752564 131.94 
L 372.557484 131.94 
L 377.362405 131.94 
L 382.167325 131.94 
L 386.972246 131.94 
L 391.777167 131.94 
L 396.582087 131.94 
L 401.387008 131.94 
L 406.191928 131.94 
L 410.996849 131.94 
" clip-path="url(#pd66338dbc2)" style="fill: none; stroke-dasharray: 5.55,2.4; stroke-dashoffset: 0; stroke: #808080; stroke-width: 1.5"/>
   </g>
   <g id="line2d_15">
    <path d="M 31.408125 133.166306 
L 36.213046 131.146281 
L 41.017966 114.920781 
L 45.822887 135.658561 
L 50.627807 129.088065 
L 55.432728 136.310126 
L 60.237648 135.505589 
L 65.042569 137.446809 
L 69.847489 124.478474 
L 74.65241 135.665722 
L 79.457331 125.087354 
L 84.262251 129.063133 
L 89.067172 132.418687 
L 93.872092 128.242478 
L 98.677013 137.191547 
L 103.481933 133.9701 
L 108.286854 139.690154 
L 113.091774 137.374014 
L 117.896695 143.285434 
L 122.701616 135.839894 
L 127.506536 141.891963 
L 132.311457 129.838199 
L 137.116377 114.542158 
L 141.921298 94.986996 
L 146.726218 102.650153 
L 151.531139 108.85233 
L 156.336059 102.437958 
L 161.14098 84.503386 
L 165.9459 79.906182 
L 170.750821 96.644698 
L 175.555742 96.614716 
L 180.360662 85.538233 
L 185.165583 77.814602 
L 189.970503 77.986946 
L 194.775424 76.70974 
L 199.580344 76.310125 
L 204.385265 86.086203 
L 209.190185 87.816963 
L 213.995106 84.926442 
L 218.800027 86.136875 
L 223.604947 89.812737 
L 228.409868 90.763837 
L 233.214788 90.959437 
L 238.019709 88.830357 
L 242.824629 84.390999 
L 247.62955 77.335825 
L 252.43447 60.937524 
L 257.239391 50.122728 
L 262.044312 39.674337 
L 266.849232 46.752902 
L 271.654153 52.946197 
L 276.459073 43.748438 
L 281.263994 41.104096 
L 286.068914 49.490959 
L 290.873835 42.245921 
L 295.678755 59.043243 
L 300.483676 68.635857 
L 305.288597 68.572228 
L 310.093517 76.699821 
L 314.898438 80.398473 
L 319.703358 79.967633 
L 324.508279 89.7397 
L 329.313199 92.096801 
L 334.11812 86.10309 
L 338.92304 89.50016 
L 343.727961 91.283012 
L 348.532882 91.763169 
L 353.337802 86.514907 
L 358.142723 87.081673 
L 362.947643 87.031707 
L 367.752564 83.068331 
L 372.557484 90.298926 
L 377.362405 91.365623 
L 382.167325 98.185301 
L 386.972246 98.598463 
L 391.777167 89.426083 
L 396.582087 90.876374 
L 401.387008 94.510981 
L 406.191928 96.753189 
L 410.996849 86.468395 
" clip-path="url(#pd66338dbc2)" style="fill: none; stroke: #9e9ac8; stroke-width: 1.5; stroke-linecap: square"/>
   </g>
   <g id="line2d_16">
    <path d="M 31.408125 145.138709 
L 36.213046 149.727139 
L 41.017966 140.018446 
L 45.822887 124.612364 
L 50.627807 144.292891 
L 55.432728 140.082315 
L 60.237648 139.079127 
L 65.042569 151.757858 
L 69.847489 139.09661 
L 74.65241 123.926005 
L 79.457331 150.898026 
L 84.262251 130.121012 
L 89.067172 134.574785 
L 93.872092 138.835708 
L 98.677013 129.853769 
L 103.481933 132.492772 
L 108.286854 127.1591 
L 113.091774 119.204732 
L 117.896695 146.027789 
L 122.701616 151.081065 
L 127.506536 132.436133 
L 132.311457 138.474244 
L 137.116377 127.08151 
L 141.921298 125.881982 
L 146.726218 130.302704 
L 151.531139 137.193529 
L 156.336059 163.316957 
L 161.14098 172.112592 
L 165.9459 152.075173 
L 170.750821 149.845446 
L 175.555742 155.151977 
L 180.360662 164.989162 
L 185.165583 171.990411 
L 189.970503 161.70458 
L 194.775424 161.117944 
L 199.580344 154.473386 
L 204.385265 150.316826 
L 209.190185 150.578796 
L 213.995106 160.067086 
L 218.800027 165.826955 
L 223.604947 167.666878 
L 228.409868 152.078255 
L 233.214788 151.509031 
L 238.019709 161.46868 
L 242.824629 155.116465 
L 247.62955 132.12826 
L 252.43447 143.800169 
L 257.239391 181.712664 
L 262.044312 185.90624 
L 266.849232 182.601516 
L 271.654153 176.045052 
L 276.459073 179.666102 
L 281.263994 174.402274 
L 286.068914 196.46976 
L 290.873835 207.799319 
L 295.678755 171.058955 
L 300.483676 145.483076 
L 305.288597 139.345497 
L 310.093517 135.660746 
L 314.898438 145.616779 
L 319.703358 139.395403 
L 324.508279 132.759921 
L 329.313199 126.153925 
L 334.11812 122.857333 
L 338.92304 112.545666 
L 343.727961 105.988806 
L 348.532882 125.993159 
L 353.337802 134.609568 
L 358.142723 126.015571 
L 362.947643 114.467604 
L 367.752564 120.86275 
L 372.557484 134.054349 
L 377.362405 141.112001 
L 382.167325 138.512645 
L 386.972246 138.954691 
L 391.777167 140.577769 
L 396.582087 137.487319 
L 401.387008 129.631011 
L 406.191928 139.352538 
L 410.996849 146.379161 
" clip-path="url(#pd66338dbc2)" style="fill: none; stroke: #08519c; stroke-width: 1.5; stroke-linecap: square"/>
   </g>
   <g id="line2d_17">
    <path d="M 31.408125 137.825735 
L 36.213046 122.783917 
L 41.017966 138.599846 
L 45.822887 139.414837 
L 50.627807 136.726149 
L 55.432728 133.522371 
L 60.237648 131.970356 
L 65.042569 132.850521 
L 69.847489 142.631814 
L 74.65241 131.904519 
L 79.457331 136.147609 
L 84.262251 138.433512 
L 89.067172 146.443958 
L 93.872092 129.133996 
L 98.677013 124.490215 
L 103.481933 129.767828 
L 108.286854 133.291427 
L 113.091774 132.159806 
L 117.896695 127.644461 
L 122.701616 137.927861 
L 127.506536 131.855836 
L 132.311457 139.878869 
L 137.116377 144.799488 
L 141.921298 158.252784 
L 146.726218 153.625207 
L 151.531139 157.075634 
L 156.336059 170.494435 
L 161.14098 188.797421 
L 165.9459 181.110638 
L 170.750821 163.718669 
L 175.555742 167.967512 
L 180.360662 177.031492 
L 185.165583 182.795473 
L 189.970503 183.204118 
L 194.775424 186.03526 
L 199.580344 182.072137 
L 204.385265 181.246165 
L 209.190185 175.256369 
L 213.995106 172.222022 
L 218.800027 167.76648 
L 223.604947 163.633228 
L 228.409868 167.215957 
L 233.214788 168.613278 
L 238.019709 167.834505 
L 242.824629 173.112724 
L 247.62955 182.3453 
L 252.43447 197.373218 
L 257.239391 211.448636 
L 262.044312 208.275043 
L 266.849232 206.807523 
L 271.654153 204.507679 
L 276.459073 207.495294 
L 281.263994 207.256406 
L 286.068914 208.324067 
L 290.873835 218.890202 
L 295.678755 204.579197 
L 300.483676 188.80297 
L 305.288597 186.568674 
L 310.093517 185.743616 
L 314.898438 183.769014 
L 319.703358 182.192515 
L 324.508279 173.306586 
L 329.313199 170.39124 
L 334.11812 174.34962 
L 338.92304 170.456586 
L 343.727961 173.121593 
L 348.532882 177.75733 
L 353.337802 174.849262 
L 358.142723 175.741128 
L 362.947643 175.284756 
L 367.752564 182.070294 
L 372.557484 175.668417 
L 377.362405 178.389715 
L 382.167325 175.124667 
L 386.972246 167.178635 
L 391.777167 175.975144 
L 396.582087 177.704306 
L 401.387008 174.539113 
L 406.191928 169.309322 
L 410.996849 178.981138 
" clip-path="url(#pd66338dbc2)" style="fill: none; stroke: #6baed6; stroke-width: 1.5; stroke-linecap: square"/>
   </g>
   <g id="patch_5">
    <path d="M 31.408125 256.68 
L 31.408125 7.2 
" style="fill: none; stroke: #000000; stroke-width: 0.8; stroke-linejoin: miter; stroke-linecap: square"/>
   </g>
   <g id="patch_6">
    <path d="M 31.408125 256.68 
L 422.008125 256.68 
" style="fill: none; stroke: #000000; stroke-width: 0.8; stroke-linejoin: miter; stroke-linecap: square"/>
   </g>
   <g id="text_13">
    <text style="font: 12px 'Helvetica', sans-serif" transform="translate(41.097754 25.554)">Predicted</text>
    <text style="font: 12px 'Helvetica', sans-serif" transform="translate(47.106192 38.385)">4 items</text>
   </g>
   <g id="text_14">
    <text style="font: 12px 'Helvetica', sans-serif" transform="translate(41.097754 233.454)">Predicted</text>
    <text style="font: 12px 'Helvetica', sans-serif" transform="translate(47.106192 246.285)">2 items</text>
   </g>
   <g id="legend_1">
    <g id="line2d_18">
     <path d="M 322.2525 22.408125 
L 334.2525 22.408125 
L 346.2525 22.408125 
" style="fill: none; stroke: #9e9ac8; stroke-width: 1.5; stroke-linecap: square"/>
    </g>
    <g id="text_15">
     <text style="font: 12px 'Helvetica', sans-serif; text-anchor: start" x="355.8525" y="26.608125" transform="rotate(-0 355.8525 26.608125)">4 Same</text>
    </g>
    <g id="line2d_19">
     <path d="M 322.2525 39.5175 
L 334.2525 39.5175 
L 346.2525 39.5175 
" style="fill: none; stroke: #08519c; stroke-width: 1.5; stroke-linecap: square"/>
    </g>
    <g id="text_16">
     <text style="font: 12px 'Helvetica', sans-serif; text-anchor: start" x="355.8525" y="43.7175" transform="rotate(-0 355.8525 43.7175)">2 Different</text>
    </g>
    <g id="line2d_20">
     <path d="M 322.2525 56.626875 
L 334.2525 56.626875 
L 346.2525 56.626875 
" style="fill: none; stroke: #6baed6; stroke-width: 1.5; stroke-linecap: square"/>
    </g>
    <g id="text_17">
     <text style="font: 12px 'Helvetica', sans-serif; text-anchor: start" x="355.8525" y="60.826875" transform="rotate(-0 355.8525 60.826875)">2 Same</text>
    </g>
   </g>
  </g>
 </g>
 <defs>
  <clipPath id="pd66338dbc2">
   <rect x="31.408125" y="7.2" width="390.6" height="249.48"/>
  </clipPath>
 </defs>
</svg>
